<?xml version="1.0" standalone="no"?><!DOCTYPE svg PUBLIC "-//W3C//DTD SVG 1.1//EN" "http://www.w3.org/Graphics/SVG/1.1/DTD/svg11.dtd"><svg t="1558692189572" class="icon" style="" viewBox="0 0 1024 1024" version="1.1" xmlns="http://www.w3.org/2000/svg" p-id="2018" xmlns:xlink="http://www.w3.org/1999/xlink" width="32" height="32"><defs><style type="text/css"></style></defs><path d="M924.8 754.5V230.8c0-35.9-29.2-65.1-65.1-65.1H165.5c-35.9 0-65.1 29.2-65.1 65.1v564.1c0 35.9 29.2 65.1 65.1 65.1h105.1c20.7 0 44.9 0.1 73.8 0.1 29.7 0 64.6 0 104.5-0.1h410.8c33.4 0 60.6-25.3 64.3-57.7 0-0.1 1.7-42.3 0.8-47.8z m-627.7 62c-74 0-129.3-0.1-141.1-0.4-17.8-5.2-17.8-17.5-17.8-22.2v-51.7c0-5.9 2.5-11.7 6.8-15.8l279-264.1c8.7-8.2 22.5-7.8 30.6 0.8l1.9 2.3c51.9 71.4 86.1 118 102.5 140.1 6.6 8.9 16.3 14.7 27.3 16.3 11.2 1.7 22-1.2 30.6-7.6l3-2.4c13.1-7.9 34.7-27.2 76.8-64.7 8.9-8 22.7-7.1 32.5 4 75.8 112.3 123.4 183.4 142 212.2v30.3c-1.2 6-3 11.7-6.4 15.7-2.6 3.1-8.4 7.1-20.6 6.8l-108.9 0.1c-106.2 0.1-278.6 0.4-408.3 0.4h-29.9zM155.3 209.1h694.2c11.9 0 21.7 9.7 21.7 21.7v453.8c-24.9-37.4-59.9-89.4-106.1-157.8-1.7-2.4-3.4-4.7-5.2-6.6-11.5-13-27.5-20.7-44.8-21.7-16.8-1.2-34 4.8-47 16.4-38.3 34-55.3 48.5-62.9 54.6l-7.9 5.3c-2.2 1.5-4.2 3.1-3.4 5.1-16.3-22-50.4-68.6-102.3-139.8-1.6-2.2-3.3-4.3-5.3-6.4-24.7-26.1-66-27.1-92-2.5L133.6 677.6V230.8c0-12 9.8-21.7 21.7-21.7z" fill="#0CBABD" p-id="2019"></path><path d="M688.8 373.8m-44.4 0a44.4 44.4 0 1 0 88.8 0 44.4 44.4 0 1 0-88.8 0Z" fill="#0CBABD" p-id="2020"></path></svg>