<?xml version="1.0" standalone="no"?><!DOCTYPE svg PUBLIC "-//W3C//DTD SVG 1.1//EN" "http://www.w3.org/Graphics/SVG/1.1/DTD/svg11.dtd"><svg t="1557125830495" class="icon" style="" viewBox="0 0 1024 1024" version="1.1" xmlns="http://www.w3.org/2000/svg" p-id="5548" xmlns:xlink="http://www.w3.org/1999/xlink" width="32" height="32"><defs><style type="text/css"></style></defs><path d="M828.406 512h-52.734v-105.469c0-58.219-47.197-105.469-105.469-105.469h-158.203v-105.469c0-58.219-47.197-105.469-105.469-105.469h-210.938c-58.219 0-105.469 47.25-105.469 105.469v210.938c0 58.219 47.25 105.469 105.469 105.469h105.469v158.203c0 58.219 47.25 105.469 105.469 105.469h105.469v52.734c0 58.219 47.25 105.469 105.469 105.469h210.938c58.271 0 105.469-47.25 105.469-105.469v-210.938c0-58.219-47.197-105.469-105.469-105.469zM406.531 722.938c-29.057 0-52.734-23.678-52.734-52.734v-158.203h52.734c58.271 0 105.469-47.25 105.469-105.469v-52.734h158.203c29.057 0 52.734 23.678 52.734 52.734v105.469h-105.469c-58.219 0-105.469 47.25-105.469 105.469v105.469h-105.469z" p-id="5549" fill="#0CBABD"></path></svg>