<?xml version="1.0" standalone="no"?><!DOCTYPE svg PUBLIC "-//W3C//DTD SVG 1.1//EN" "http://www.w3.org/Graphics/SVG/1.1/DTD/svg11.dtd"><svg t="1560569954643" class="icon" style="" viewBox="0 0 1104 1024" version="1.1" xmlns="http://www.w3.org/2000/svg" p-id="2024" xmlns:xlink="http://www.w3.org/1999/xlink" width="34.5" height="32"><defs><style type="text/css"></style></defs><path d="M664.309244 994.742857q-21.942857 0-34.133334-14.628571-14.628571-14.628571-14.628571-34.133334 0-21.942857 14.628571-34.133333l375.466667-368.152381q14.628571-14.628571 36.571429-14.628571 19.504762 0 34.133333 14.628571l12.190476 36.571429-14.628571 34.133333-375.466667 368.152381-34.133333 12.190476M15.77591 151.161905Q15.77591 87.771429 59.661625 43.885714L62.09972 41.447619q26.819048-24.380952 58.514286-34.133333L166.937815 0q63.390476 0 102.4 39.009524l19.504762 19.504762 24.380952 43.885714h295.009524l31.695238-46.32381h2.438096q43.885714-43.885714 107.27619-43.885714l31.695238 4.876191 29.257143 21.942857 7.314286 36.571428-24.380953 29.257143-36.571428 7.314286-7.314286-2.438095q-24.380952 0-41.447619 14.628571v2.438095l-9.752381 17.066667V146.285714l-2.438095 4.876191-2.438095 17.066666 9.752381 24.380953 2.438095 4.87619 2.438095 4.876191 41.447619 14.628571 36.571429-12.190476 4.87619-7.314286 7.314286-4.87619 4.87619-26.819048q0-19.504762 14.628572-34.133333 14.628571-14.628571 34.133333-14.628572 19.504762 0 34.133333 14.628572l14.628572 34.133333q0 43.885714-21.942857 80.457143l-2.438096 2.438095-26.819047 26.819048q-39.009524 39.009524-99.961905 39.009524-63.390476 0-107.27619-41.447619l-2.438096-2.438096-17.066666-21.942857-2.438096-2.438095-2.438095-4.87619L600.918768 199.92381H313.223529l-36.571428 53.638095v2.438095l-4.876191 2.438095-58.514285 36.571429-4.876191 2.438095v343.771429q51.2 4.87619 85.333334 36.571428l19.504761 21.942857q26.819048 31.695238 31.695239 75.580953h197.485714q19.504762 0 34.133333 14.628571l14.628572 34.133333-14.628572 34.133334-34.133333 14.628571H320.537815l-19.504762 21.942857-4.87619 4.876191-58.514286 36.571428h4.876191l-48.761905 7.314286q-63.390476 0-109.714286-46.323809-43.885714-43.885714-43.885714-104.838096 0-63.390476 43.885714-107.27619l2.438095-2.438095 24.380953-17.066667V292.571429L59.661625 256Q15.77591 212.114286 15.77591 151.161905m733.866667 246.247619q14.628571-14.628571 34.133333-14.628572 19.504762 0 34.133334 14.628572l14.628571 34.133333V585.142857l-14.628571 34.133333-34.133334 14.628572-34.133333-14.628572q-14.628571-14.628571-14.628571-34.133333V431.542857q0-19.504762 14.628571-34.133333M166.937815 204.8l17.066667-2.438095h2.438095l17.066667-12.190476 4.87619-4.876191 12.190476-17.066667 2.438096-14.628571V151.161905l-9.752381-31.695238-7.314286-7.314286Q191.318768 97.52381 166.937815 97.52381l-14.628571 2.438095-26.819048 14.628571Q113.29972 129.219048 113.29972 151.161905t14.628571 36.571428l36.571429 17.066667h2.438095m7.314286 536.380952l-24.380953 14.628572q-12.190476 14.628571-12.190476 36.571428t14.628572 36.571429q17.066667 17.066667 41.447619 17.066667h12.190476l4.87619-2.438096 17.066667-12.190476 4.876191-4.87619 12.190476-17.066667v-2.438095l2.438095-14.628572-9.752381-31.695238-7.314286-7.314285q-14.628571-14.628571-36.571428-14.628572l-17.066667 2.438095h-2.438095" fill="#0cbabd" p-id="2025"></path></svg>