<?xml version="1.0" standalone="no"?><!DOCTYPE svg PUBLIC "-//W3C//DTD SVG 1.1//EN" "http://www.w3.org/Graphics/SVG/1.1/DTD/svg11.dtd"><svg t="1557124276707" class="icon" style="" viewBox="0 0 1024 1024" version="1.1" xmlns="http://www.w3.org/2000/svg" p-id="9003" xmlns:xlink="http://www.w3.org/1999/xlink" width="32" height="32"><defs><style type="text/css"></style></defs><path d="M213.333333 682.666667a42.538667 42.538667 0 0 1-30.165333-12.501334l-128-128a42.624 42.624 0 0 1 0-60.330666l128-128a42.624 42.624 0 1 1 60.330667 60.330666L145.664 512l97.834667 97.834667A42.624 42.624 0 0 1 213.333333 682.666667zM640 256a42.538667 42.538667 0 0 1-30.165333-12.501333L512 145.664 414.165333 243.498667a42.624 42.624 0 1 1-60.330666-60.330667l128-128a42.624 42.624 0 0 1 60.330666 0l128 128A42.624 42.624 0 0 1 640 256zM512 981.333333a42.538667 42.538667 0 0 1-30.165333-12.501333l-128-128a42.624 42.624 0 1 1 60.330666-60.330667L512 878.336l97.834667-97.834667a42.624 42.624 0 1 1 60.330666 60.330667l-128 128A42.538667 42.538667 0 0 1 512 981.333333zM810.666667 682.666667a42.624 42.624 0 0 1-30.165334-72.832L878.336 512l-97.834667-97.834667a42.624 42.624 0 1 1 60.330667-60.330666l128 128a42.624 42.624 0 0 1 0 60.330666l-128 128A42.538667 42.538667 0 0 1 810.666667 682.666667z" fill="#0CBABD" p-id="9004"></path><path d="M938.666667 554.666667H85.333333a42.666667 42.666667 0 1 1 0-85.333334h853.333334a42.666667 42.666667 0 1 1 0 85.333334z" fill="#0CBABD" p-id="9005"></path><path d="M512 981.333333a42.666667 42.666667 0 0 1-42.666667-42.666666V85.333333a42.666667 42.666667 0 0 1 85.333334 0v853.333334a42.666667 42.666667 0 0 1-42.666667 42.666666z" fill="#0CBABD" p-id="9006"></path></svg>