<?xml version="1.0" standalone="no"?><!DOCTYPE svg PUBLIC "-//W3C//DTD SVG 1.1//EN" "http://www.w3.org/Graphics/SVG/1.1/DTD/svg11.dtd"><svg t="1557124348458" class="icon" style="" viewBox="0 0 1024 1024" version="1.1" xmlns="http://www.w3.org/2000/svg" p-id="12217" xmlns:xlink="http://www.w3.org/1999/xlink" width="32" height="32"><defs><style type="text/css"></style></defs><path d="M214.016 870.4c-45.056 0-81.92-36.864-81.92-81.92s36.864-81.92 81.92-81.92c46.08 1.024 81.92 36.864 81.92 81.92s-36.864 81.92-81.92 81.92z m-1.024-122.88c-21.504 0-39.936 18.432-39.936 40.96s18.432 40.96 40.96 40.96 40.96-18.432 40.96-40.96-18.432-39.936-41.984-40.96zM788.48 870.4c-45.056 0-81.92-36.864-81.92-81.92s36.864-81.92 81.92-81.92c46.08 1.024 81.92 36.864 81.92 81.92s-36.864 81.92-81.92 81.92z m-1.024-122.88c-21.504 0-39.936 18.432-39.936 40.96s18.432 40.96 40.96 40.96 40.96-18.432 40.96-40.96-18.432-39.936-41.984-40.96zM788.48 295.936c-45.056 0-81.92-36.864-81.92-81.92s36.864-81.92 81.92-81.92 81.92 36.864 81.92 81.92-36.864 81.92-81.92 81.92z m0-122.88c-22.528 0-40.96 18.432-40.96 40.96s18.432 40.96 40.96 40.96 40.96-18.432 40.96-40.96-18.432-40.96-40.96-40.96zM214.016 295.936c-45.056 0-81.92-36.864-81.92-81.92s36.864-81.92 81.92-81.92 81.92 36.864 81.92 81.92-36.864 81.92-81.92 81.92z m0-122.88c-22.528 0-40.96 18.432-40.96 40.96s18.432 40.96 40.96 40.96 40.96-18.432 40.96-40.96-18.432-40.96-40.96-40.96z" p-id="12218" fill="#0CBABD"></path><path d="M227.328 749.568c-11.264 0-20.48-9.216-20.48-20.48V274.432c0-11.264 9.216-20.48 20.48-20.48s20.48 9.216 20.48 20.48v454.656c0 11.264-9.216 20.48-20.48 20.48zM729.088 798.72H275.456c-11.264 0-20.48-9.216-20.48-20.48s9.216-20.48 20.48-20.48h453.632c11.264 0 20.48 9.216 20.48 20.48s-9.216 20.48-20.48 20.48zM777.216 748.544c-11.264 0-20.48-9.216-20.48-20.48V274.432c0-11.264 9.216-20.48 20.48-20.48s20.48 9.216 20.48 20.48v453.632c0 11.264-9.216 20.48-20.48 20.48zM728.064 247.808H275.456c-11.264 0-20.48-9.216-20.48-20.48s9.216-20.48 20.48-20.48h452.608c11.264 0 20.48 9.216 20.48 20.48s-9.216 20.48-20.48 20.48z" p-id="12219" fill="#0CBABD"></path></svg>