<?xml version="1.0" standalone="no"?><!DOCTYPE svg PUBLIC "-//W3C//DTD SVG 1.1//EN" "http://www.w3.org/Graphics/SVG/1.1/DTD/svg11.dtd"><svg t="1557125527434" class="icon" style="" viewBox="0 0 1024 1024" version="1.1" xmlns="http://www.w3.org/2000/svg" p-id="1631" xmlns:xlink="http://www.w3.org/1999/xlink" width="32" height="32"><defs><style type="text/css"></style></defs><path d="M872.6 948.1H428.7c-47.8 0-86.7-38.9-86.7-86.7V417.5c0-47.8 38.9-86.7 86.7-86.7h443.9c47.8 0 86.7 38.9 86.7 86.7v443.9c0 47.8-38.9 86.7-86.7 86.7zM428.7 393.3c-13.4 0-24.3 10.9-24.3 24.3v443.9c0 13.4 10.9 24.3 24.3 24.3h443.9c13.4 0 24.3-10.9 24.3-24.3v-444c0-13.4-10.9-24.3-24.3-24.3H428.7v0.1z" fill="#0CBABD" p-id="1632"></path><path d="M595.2 689.2H151.3c-47.8 0-86.7-38.9-86.7-86.7V158.6c0-47.8 38.9-86.7 86.7-86.7h443.9c47.8 0 86.7 38.9 86.7 86.7v443.9c0 47.8-38.9 86.7-86.7 86.7zM151.3 134.3c-13.4 0-24.3 10.9-24.3 24.3v443.9c0 13.4 10.9 24.3 24.3 24.3h443.9c13.4 0 24.3-10.9 24.3-24.3V158.6c0-13.4-10.9-24.3-24.3-24.3H151.3z" fill="#0CBABD" p-id="1633"></path></svg>