<?xml version="1.0" standalone="no"?><!DOCTYPE svg PUBLIC "-//W3C//DTD SVG 1.1//EN" "http://www.w3.org/Graphics/SVG/1.1/DTD/svg11.dtd"><svg t="1559283252908" class="icon" style="" viewBox="0 0 1024 1024" version="1.1" xmlns="http://www.w3.org/2000/svg" p-id="6738" xmlns:xlink="http://www.w3.org/1999/xlink" width="32" height="32"><defs><style type="text/css"></style></defs><path d="M509.44 936.96c-233.472 0-422.4-188.928-422.4-422.4s188.928-422.4 422.4-422.4 422.4 188.928 422.4 422.4-188.928 422.4-422.4 422.4z m0 66.56c271.36 0 488.96-218.112 488.96-488.96S780.288 25.088 509.44 25.088 19.968 243.2 19.968 514.56s218.112 488.96 489.472 488.96M282.624 490.496L486.912 286.72c12.288-12.288 30.72-12.288 43.008 0l205.824 203.776c12.288 12.288 12.288 30.72 0 43.008-12.288 12.288-30.72 12.288-43.008 0L511.488 352.768 330.24 534.016c-12.288 12.288-30.72 12.288-43.008 0-14.848-12.288-14.848-30.72-4.608-43.52zM512 799.744c-16.384 0-29.696-13.312-29.696-29.696V358.4c0-16.384 13.312-29.696 29.696-29.696s29.696 13.312 29.696 29.696v412.16c0 15.872-13.312 29.184-29.696 29.184z" p-id="6739" fill="#ffaa00"></path></svg>