<?xml version="1.0" standalone="no"?><!DOCTYPE svg PUBLIC "-//W3C//DTD SVG 1.1//EN" "http://www.w3.org/Graphics/SVG/1.1/DTD/svg11.dtd"><svg t="1558921528976" class="icon" style="" viewBox="0 0 1024 1024" version="1.1" xmlns="http://www.w3.org/2000/svg" p-id="7370" xmlns:xlink="http://www.w3.org/1999/xlink" width="32" height="32"><defs><style type="text/css"></style></defs><path d="M295.74285752 465.61142832a23.01428584 23.01428584 0 0 1-16.25142919-6.68571416L106.48571416 285.89428584a22.93714248 22.93714248 0 0 1 0-32.4L279.49142832 80.46285752a22.93714248 22.93714248 0 0 1 32.4 32.4L154.18571416 268.76857168l157.70571416 157.70571416a22.93714248 22.93714248 0 0 1 0 32.4c-4.34571416 4.37142833-10.15714248 6.68571416-15.3 4.5l-0.87428584 2.23714248z m432.51428496 0a22.93714248 22.93714248 0 0 1-16.2-39.08571416l157.70571504-155.90571416L712.05714248 112.91428584A22.93714248 22.93714248 0 0 1 744.45714248 80.51428584l173.00571504 173.03142832a22.93714248 22.93714248 0 0 1 0 32.4l-173.00571504 173.00571417c-4.34571416 4.37142833-10.13142832 6.68571416-17.07428496 4.52571415l0.9 2.13428584z m-324.38571416 0a22.93714248 22.93714248 0 0 1-19.43999999-35.0485708L600.68857168 84.47428584a22.93714248 22.93714248 0 0 1 38.88 24.3l-216.25714335 346.03714248a22.88571416 22.88571416 0 0 1-19.44 10.77428584zM365.42857168 949.14285752H296.51428584l-48.85714336-90.36c-1.77428584-3.26571416-3.6-9.18-5.45142832-17.74285752H241.48571416a122.91428584 122.91428584 0 0 1-6.32571416 18.25714248L186.12285752 949.14285752h-69.42857168l87.35142832-136.23428584-79.79142832-136.02857168h70.66285664l40.60285752 83.31428584c3.29142832 6.78857168 6.09428584 14.27142832 8.43428584 22.47428584h0.72c2.44285752-7.38 5.42571416-15.17142832 8.94857168-23.37428584l44.82-82.44h64.87714248l-82.28571416 135L365.42857168 949.14285752z m282.65142832 0v-165.24c0-15.22285752 0.77142833-34.38 2.28857168-57.4714292h-1.41428584c-3.52285752 17.46-6.32571416 29.10857168-8.43428584 34.9714292L573.38 949.14285752h-46.23428584l-68.04-185.96571504c-1.62-4.47428584-4.5-16.71428584-8.61428584-36.77142832h-1.5685708c1.54285752 22.88571416 2.28857168 45.77142832 2.2885708 68.76V949.14285752h-52.38V676.85428584h84.34285752l58.73142832 164.54571416a197.74285752 197.74285752 0 0 1 10.02857168 38.31428584h1.23428584c3.6-14.88857168 7.38-27.77142833 11.23714248-38.67428584l58.88571416-164.18571416h82.10571416V949.14285752h-57.31714248z m280.72285752 0h-159.78857168V676.85428584h58.01142832v224.82h101.77714336V949.14285752z" fill="#0CBABD" p-id="7371"></path></svg>