<?xml version="1.0" encoding="utf-8"?>
<!-- Generator: Adobe Illustrator 22.0.0, SVG Export Plug-In . SVG Version: 6.00 Build 0)  -->
<svg version="1.1" id="图层_1" xmlns="http://www.w3.org/2000/svg" xmlns:xlink="http://www.w3.org/1999/xlink" x="0px" y="0px"
	 viewBox="0 0 100 100" style="enable-background:new 0 0 100 100;" xml:space="preserve">
<style type="text/css">
	.st0{fill:#E9E9E9;}
	.st1{fill:#808080;}
</style>
<g>
	<path class="st0" d="M5.7,62.7c5.6,0,14.4,2.3,17,3v4.1c0,0.3,0.2,0.6,0.4,0.8l21.2,15.2C33.4,82.7,9,75,2.8,66.7
		c-1-1.4-1.5-2.5-1.2-3C1.8,63.5,2.4,62.7,5.7,62.7 M5.7,61.7c-4.4,0-6.9,1.3-3.7,5.7c8.3,11.1,47.4,20.9,47.4,20.9L23.7,69.8v-4.9
		C23.7,64.9,12.5,61.7,5.7,61.7L5.7,61.7z"/>
</g>
<g>
	<path class="st0" d="M24.2,48.3L39,59.1c0.2,0.1,0.4,0.2,0.6,0.2c0.1,0,0.1,0,0.2,0c2.1-0.4,4-1.5,5.7-3.4c0.1-0.1,0.1-0.2,0.2-0.3
		c1.2-1.4,2.2-3.1,2.9-4.6v6.4v29.1L24.2,69.6v-4.3V48.3 M49.6,45.1c0,0-1.3,6-4.7,9.9c-0.1,0.1-0.1,0.2-0.2,0.2
		c-1.4,1.5-3.1,2.7-5.1,3.1L23.2,46.4v18.9v4.9l26.4,18.3v-31V45.1L49.6,45.1z"/>
</g>
<path class="st1" d="M44.9,55c-0.1,0.1-0.1,0.2-0.2,0.2c0,0,0,0,0,0C44.8,55.1,44.8,55.1,44.9,55z"/>
<g>
	<g>
		<path class="st0" d="M23.9,31.3l24.6,14.2c-0.4,1.6-1.7,5.8-4.3,8.8c-0.1,0.1-0.1,0.1-0.2,0.2c-1.3,1.4-2.7,2.3-4.2,2.7L23.7,45.6
			L16,40c0.9-0.3,2-0.8,3.1-1.6c0.1-0.1,0.3-0.2,0.4-0.3c0.2-0.1,0.4-0.3,0.6-0.5c0.1-0.1,0.1-0.1,0.2-0.2l0.1-0.1
			c0.2-0.2,0.4-0.4,0.6-0.6c0,0,0.1-0.1,0.1-0.2l0-0.1c0.2-0.2,0.4-0.4,0.5-0.7C22.7,34.5,23.4,33,23.9,31.3 M23.2,29.8
			c-0.4,2.3-1.2,4.1-2.2,5.5c-0.2,0.2-0.3,0.4-0.5,0.6c-0.1,0.1-0.1,0.1-0.2,0.2c-0.2,0.2-0.4,0.4-0.6,0.6c-0.1,0.1-0.2,0.2-0.2,0.2
			c-0.2,0.1-0.3,0.3-0.5,0.4c-0.1,0.1-0.3,0.2-0.4,0.3c-2.4,1.7-4.9,1.9-4.9,1.9l9.5,6.9l16.4,11.9c2.1-0.4,3.8-1.6,5.1-3.1
			c0.1-0.1,0.1-0.2,0.2-0.2c3.4-4,4.7-9.9,4.7-9.9L23.2,29.8L23.2,29.8z"/>
	</g>
	<path class="st0" d="M47.8,50.2c-8.5-5.3-17.2-10.3-26-16.1c-0.4,0.7-0.8,1.3-1.3,1.8c-0.1,0.1-0.1,0.1-0.2,0.2
		c-0.2,0.2-0.4,0.4-0.6,0.6c-0.1,0.1-0.2,0.2-0.2,0.2c-0.2,0.1-0.3,0.3-0.5,0.4c-0.1,0.1-0.3,0.2-0.4,0.3c0,0-0.1,0.1-0.1,0.1
		c5,3.9,20,13.3,26.3,17.5c0.1-0.1,0.1-0.2,0.2-0.2C46.1,53.5,47.1,51.8,47.8,50.2z"/>
</g>
<g>
	<g>
		<path class="st0" d="M88.5,35.3c0,0.4,0,0.8,0,1.2V35.3L88.5,35.3z"/>
	</g>
	<g>
		<path class="st0" d="M50.6,52.6c1.7,3.6,4.9,7.2,10.8,7.3c0,0,0,0,0,0c0.1,0,0.2,0,0.3,0l25.9-7.2v24.9l-36.9,9.2V57.4V52.6
			 M49.6,45.1v12.3v30.8l38.9-9.7v-27L61.4,59C50.3,58.7,49.6,45.1,49.6,45.1L49.6,45.1z"/>
	</g>
	<g>
		<path class="st0" d="M87.5,36.6c0.2,7.1,4.4,10.5,7.3,12l-6.6,1.8l-27,7.5c-8.6-0.3-10.3-9.3-10.6-12.1L87.5,36.6 M88.5,35.3
			L88.5,35.3L88.5,35.3z M88.5,35.3l-38.9,9.7c0,0,0.7,13.6,11.8,13.9l27.1-7.5l9.5-2.6c0,0-9.1-1.9-9.5-12.2
			C88.5,36.2,88.5,35.8,88.5,35.3L88.5,35.3z"/>
	</g>
</g>
<path class="st0" d="M50.8,50.9c0.8,2.1,2.1,4.3,4.2,6c11.3-3.3,28.2-7.9,37.8-10.7c-1.4-1.3-2.8-2.9-3.6-5.3
	C82,43,56.5,49.5,50.8,50.9z"/>
<path class="st1" d="M4.8,23.5"/>
<g>
	<g>
		<path class="st0" d="M57.6,22v20l-7.9,2l-24-13.9l15.5-4L48.5,37c0.2,0.3,0.5,0.4,0.8,0.4c0.1,0,0.2,0,0.3-0.1
			c0.4-0.1,0.7-0.6,0.7-1l-0.8-12.3L57.6,22 M58.6,20.7l-10.1,2.6l0.8,13.1L41.7,25l-18.6,4.7l26.4,15.3l9-2.3V20.7L58.6,20.7z"/>
	</g>
	<g>
		<path class="st0" d="M41.6,6c4.3,0,5.3,4.3,5.3,4.5c0.1,0.3,0.2,0.5,0.5,0.7c0.1,0.1,0.3,0.1,0.5,0.1c0.1,0,0.2,0,0.4-0.1
			c0,0,1-0.4,2.1-0.4c1.7,0,2.9,0.8,3.6,2.3c0.7,1.6,0.7,2.9,0.1,3.9c-1.4,2.4-5.7,2.8-5.8,2.8c-0.5,0-0.9,0.5-0.9,1.1l0.2,2.4
			l0.6,9.4l-5.5-8.3l-1.2-1.8c-0.2-0.3-0.5-0.4-0.8-0.4c-0.1,0-0.2,0-0.3,0.1c0,0-1.5,0.5-3.2,0.5c-2,0-3.3-0.7-4-1.9
			c-0.6-1.3-0.8-2.6-0.3-3.8c0.5-1.4,1.6-2.4,2.3-2.8c0.3-0.1,0.5-0.4,0.6-0.7c0.1-0.3,0-0.6-0.2-0.8c-0.2-0.3-0.4-1.7,0.2-3.3
			c0.5-1.2,1.5-2.7,3.9-3.2C40.3,6.1,41,6,41.6,6 M41.6,5c-0.7,0-1.4,0.1-2.2,0.3c-5.4,1.3-5.6,7-4.7,8.1c-1.8,0.8-4.5,4-2.5,7.9
			c1,2,3.1,2.5,4.9,2.5c1.9,0,3.5-0.5,3.5-0.5l1.2,1.8l7.6,11.4l-0.8-13.1l-0.2-2.4c0,0,9.6-0.8,6.5-8.1c-1-2.4-2.9-2.9-4.5-2.9
			c-1.4,0-2.5,0.4-2.5,0.4S46.8,5,41.6,5L41.6,5z"/>
	</g>
</g>
<g>
	<g>
		<path class="st0" d="M59.6,22.3l7.3,3.6l-2.7,8c-0.1,0.4,0,0.9,0.4,1.2c0.2,0.1,0.4,0.2,0.6,0.2c0.2,0,0.5-0.1,0.7-0.2l6.4-5.5
			c0.8,0.7,2.1,1.6,3.6,1.6c0.4,0,0.8-0.1,1.1-0.2l8.6,4.2l-26,6.5V22.3 M58.6,20.7v22.1l29.9-7.5L77,29.7c-0.4,0.2-0.8,0.3-1.2,0.3
			c-1.8,0-3.6-1.9-3.6-1.9l-7.1,6.1l3-8.8L58.6,20.7L58.6,20.7z"/>
	</g>
	<g>
		<path class="st0" d="M73.8,18.3c0.7,0,1.3,0.2,1.9,0.7c0.8,0.7,1.3,1.4,1.3,2.2c0.1,1.2-0.7,2.2-0.7,2.2C76,23.6,76,23.9,76,24.2
			c0,0.3,0.2,0.5,0.5,0.7c0.3,0.2,1.9,1.3,1,2.8c-0.3,0.5-0.6,0.9-1,1.1c-0.2,0.1-0.4,0.2-0.7,0.2c-1.1,0-2.5-1.1-2.9-1.6
			c-0.2-0.2-0.5-0.3-0.7-0.3c-0.2,0-0.5,0.1-0.7,0.2L67.3,31l1.8-5.3l0-0.1c0.1-0.4,0-0.9-0.4-1.2c0,0-2.6-1.8-1.7-3.3
			c0.6-1.2,1.6-1.5,2.3-1.5c0.4,0,0.8,0.1,0.9,0.2c0.1,0.1,0.3,0.1,0.4,0.1c0.2,0,0.3,0,0.5-0.1c0.2-0.1,0.4-0.4,0.5-0.6
			C71.9,18.9,72.7,18.3,73.8,18.3 M73.8,17.3c-1.6,0-2.9,1.1-3,1.6c-0.3-0.1-0.8-0.2-1.3-0.2c-1.1,0-2.5,0.5-3.3,2.1
			c-1.3,2.4,2.1,4.6,2.1,4.6l0,0.1l-3,8.8l7.1-6.1c0,0,1.8,1.9,3.6,1.9c0.4,0,0.8-0.1,1.2-0.3c0.5-0.3,1-0.7,1.4-1.5
			c1.4-2.5-1.4-4.2-1.4-4.2s2.6-3.1-0.7-5.8C75.4,17.5,74.6,17.3,73.8,17.3L73.8,17.3z"/>
	</g>
</g>
<g>
	<g>
		<path class="st0" d="M58.9,72.6v-6l2.8-0.7v0.4l-2.4,0.6v2.4l2.2-0.6v0.4l-2.2,0.6v2.4l2.5-0.6v0.4L58.9,72.6z"/>
		<path class="st0" d="M68.2,70.4v-4.2c0-0.1,0-0.4,0-0.8l0,0c-0.1,0.3-0.1,0.4-0.3,0.6l-2.1,5h-0.1l-2.1-4c0-0.1-0.1-0.3-0.1-0.6
			l0,0c0,0.3,0,0.6,0,0.8v4.3l-0.4,0.1v-5.8l0.4-0.1l2.2,4.2c0,0,0,0,0,0.1v0.1c0,0,0,0.1,0.1,0.3l0,0v-0.1c0,0,0-0.1,0.1-0.4
			l2.2-5.1l0.4-0.1v5.8H68.2z"/>
		<path class="st0" d="M70.6,67.6V70l-0.4,0.1v-5.8l1.4-0.3c0.6-0.1,1.1-0.1,1.4,0.1c0.3,0.1,0.4,0.6,0.4,1.1c0,0.6-0.1,1-0.6,1.5
			c-0.4,0.4-0.8,0.7-1.5,0.8L70.6,67.6z M70.6,64.4v2.8l0.8-0.1c0.6-0.1,1-0.3,1.3-0.7c0.3-0.4,0.4-0.7,0.4-1.1c0-0.8-0.6-1.3-1.5-1
			L70.6,64.4z"/>
		<path class="st0" d="M76.3,63.2v5.6l-0.4,0.1v-5.6l-1.7,0.4v-0.4l3.8-0.8v0.4L76.3,63.2z"/>
		<path class="st0" d="M80.9,65.4v2.2l-0.4,0.1v-2.2l-1.8-3.2l0.4-0.1l1.4,2.5c0,0.1,0.1,0.3,0.1,0.4l0,0c0-0.1,0.1-0.3,0.1-0.4
			l1.4-3.2l0.4-0.1L80.9,65.4z"/>
	</g>
</g>
</svg>
