<svg xmlns="http://www.w3.org/2000/svg" id="图层_1" viewBox="0 0 960 560"><style>.st35{fill:#fff}</style><linearGradient id="SVGID_1_" x1="297.607" x2="339.293" y1="250.717" y2="257.714" gradientUnits="userSpaceOnUse"><stop offset="0" stop-color="#acabb1"/><stop offset=".111" stop-color="#a7a6ac"/><stop offset=".249" stop-color="#98979c"/><stop offset=".403" stop-color="#7f7e83"/><stop offset=".436" stop-color="#79787c"/><stop offset=".535" stop-color="#959497"/><stop offset=".747" stop-color="#dcdcdc"/><stop offset=".774" stop-color="#e6e6e6"/><stop offset=".833" stop-color="#e0e0e0"/><stop offset=".911" stop-color="#cfcfcf"/><stop offset="1" stop-color="#b3b3b3"/></linearGradient><path fill="url(#SVGID_1_)" d="M311.6 196.9l-2.4 2.2s15.3 10.4 9.2 53.3c-5.9 41.1-30 51.7-30 51.7l2.5 1.8s25.6-11.8 31-55.7-10.3-53.3-10.3-53.3z"/><linearGradient id="SVGID_2_" x1="309.235" x2="712.797" y1="374.07" y2="339.224" gradientUnits="userSpaceOnUse"><stop offset=".403" stop-color="#3c3c3c"/><stop offset=".499" stop-color="#575758"/><stop offset=".649" stop-color="#7c7b7f"/><stop offset=".787" stop-color="#96959a"/><stop offset=".908" stop-color="#a6a5ab"/><stop offset="1" stop-color="#acabb1"/></linearGradient><path fill="url(#SVGID_2_)" d="M270.7 341.6l360 52.6 63.3-23.3-324.1-50z"/><linearGradient id="SVGID_3_" x1="272.904" x2="318.955" y1="397.912" y2="240.788" gradientUnits="userSpaceOnUse"><stop offset=".248" stop-color="#3c3c3c"/><stop offset=".572" stop-color="#575758"/><stop offset=".752" stop-color="#7c7b7f"/><stop offset=".787" stop-color="#96959a"/><stop offset=".908" stop-color="#a6a5ab"/><stop offset="1" stop-color="#acabb1"/></linearGradient><path fill="url(#SVGID_3_)" d="M311.6 196.9l-40.9 37.2-4.7 54.5 24.9 17.2s25.6-11.8 31-55.7-10.3-53.2-10.3-53.2zm50 56.2c-.7 25.3-10.7 62-40 68.7-29.3 6.7-38-30-39.3-50s10.1-68.4 35-70.7c29-2.7 45 26.7 44.3 52z"/><linearGradient id="SVGID_4_" x1="231.424" x2="370.561" y1="245.487" y2="268.839" gradientUnits="userSpaceOnUse"><stop offset="0" stop-color="#acabb1"/><stop offset=".111" stop-color="#a7a6ac"/><stop offset=".249" stop-color="#98979c"/><stop offset=".403" stop-color="#7f7e83"/><stop offset=".436" stop-color="#79787c"/><stop offset=".535" stop-color="#959497"/><stop offset=".747" stop-color="#dcdcdc"/><stop offset=".774" stop-color="#e6e6e6"/><stop offset=".833" stop-color="#e0e0e0"/><stop offset=".911" stop-color="#cfcfcf"/><stop offset="1" stop-color="#b3b3b3"/></linearGradient><path fill="url(#SVGID_4_)" d="M280.2 188.4l41.8 1.8s-50.3 17.3-49 46-5.5 64 17.8 86l-38-2.5s-32-22.8-22-74.7 49.4-56.6 49.4-56.6z"/><linearGradient id="SVGID_5_" x1="313.122" x2="236.943" y1="6.268" y2="294.851" gradientUnits="userSpaceOnUse"><stop offset="0" stop-color="#acabb1"/><stop offset=".111" stop-color="#a7a6ac"/><stop offset=".249" stop-color="#98979c"/><stop offset=".403" stop-color="#7f7e83"/><stop offset=".436" stop-color="#79787c"/><stop offset=".535" stop-color="#959497"/><stop offset=".747" stop-color="#dcdcdc"/><stop offset=".774" stop-color="#e6e6e6"/><stop offset=".833" stop-color="#e0e0e0"/><stop offset=".911" stop-color="#cfcfcf"/><stop offset="1" stop-color="#b3b3b3"/></linearGradient><path fill="url(#SVGID_5_)" d="M280.2 188.4l-4.8-1.2s-35.5 5.9-46.6 54.5c-6.4 28.1 0 61 20.9 77.5l3 .4s-32-22.8-22-74.7 49.5-56.5 49.5-56.5z"/><linearGradient id="SVGID_6_" x1="307.19" x2="721.869" y1="448.9" y2="114.439" gradientUnits="userSpaceOnUse"><stop offset=".403" stop-color="#3c3c3c"/><stop offset=".499" stop-color="#575758"/><stop offset=".649" stop-color="#7c7b7f"/><stop offset=".787" stop-color="#96959a"/><stop offset=".908" stop-color="#a6a5ab"/><stop offset="1" stop-color="#acabb1"/></linearGradient><path fill="url(#SVGID_6_)" d="M366.7 166.9l3.2 154 324.1 50 5.4-165.7z"/><linearGradient id="SVGID_7_" x1="200.203" x2="411.779" y1="268.163" y2="268.163" gradientUnits="userSpaceOnUse"><stop offset=".403" stop-color="#3c3c3c"/><stop offset=".499" stop-color="#575758"/><stop offset=".649" stop-color="#7c7b7f"/><stop offset=".787" stop-color="#96959a"/><stop offset=".908" stop-color="#a6a5ab"/><stop offset="1" stop-color="#acabb1"/></linearGradient><path fill="url(#SVGID_7_)" d="M276.6 238.2l56.7 64 4.3-4.3-52.3-63.8z"/><linearGradient id="SVGID_8_" x1="255.954" x2="354.408" y1="234.636" y2="308.118" gradientUnits="userSpaceOnUse"><stop offset=".403" stop-color="#3c3c3c"/><stop offset=".499" stop-color="#575758"/><stop offset=".649" stop-color="#7c7b7f"/><stop offset=".787" stop-color="#96959a"/><stop offset=".908" stop-color="#a6a5ab"/><stop offset="1" stop-color="#acabb1"/></linearGradient><path fill="url(#SVGID_8_)" d="M329.3 301.2l4 1-56.7-64h-4.8z"/><linearGradient id="SVGID_9_" x1="298.09" x2="327.96" y1="242.324" y2="264.618" gradientUnits="userSpaceOnUse"><stop offset=".403" stop-color="#3c3c3c"/><stop offset=".499" stop-color="#575758"/><stop offset=".649" stop-color="#7c7b7f"/><stop offset=".787" stop-color="#96959a"/><stop offset=".908" stop-color="#a6a5ab"/><stop offset="1" stop-color="#acabb1"/></linearGradient><path fill="url(#SVGID_9_)" d="M337.6 196.9l-63.3 113.3 7.6 5.7 67-121.3z"/><linearGradient id="SVGID_10_" x1="293.385" x2="316.441" y1="244.538" y2="261.745" gradientUnits="userSpaceOnUse"><stop offset=".403" stop-color="#3c3c3c"/><stop offset=".499" stop-color="#575758"/><stop offset=".649" stop-color="#7c7b7f"/><stop offset=".787" stop-color="#96959a"/><stop offset=".908" stop-color="#a6a5ab"/><stop offset="1" stop-color="#acabb1"/></linearGradient><path fill="url(#SVGID_10_)" d="M271.8 309l2.5 1.2 63.3-113.3h-4.3z"/><linearGradient id="SVGID_11_" x1="257.673" x2="471.963" y1="244.002" y2="279.968" gradientUnits="userSpaceOnUse"><stop offset=".403" stop-color="#3c3c3c"/><stop offset=".499" stop-color="#575758"/><stop offset=".649" stop-color="#7c7b7f"/><stop offset=".787" stop-color="#96959a"/><stop offset=".908" stop-color="#a6a5ab"/><stop offset="1" stop-color="#acabb1"/></linearGradient><path fill="url(#SVGID_11_)" d="M366.7 166.9L266 186.2l4.7 155.3 99.2-20.7-3.2-153.9zm-5.1 86.2c-.7 25.3-10.7 62-40 68.7-29.3 6.7-38-30-39.3-50s10.1-68.4 35-70.7c29-2.7 45 26.7 44.3 52z"/><linearGradient id="SVGID_12_" x1="306.184" x2="501.481" y1="340.013" y2="244.763" gradientUnits="userSpaceOnUse"><stop offset=".34" stop-color="#575758"/><stop offset=".381" stop-color="#646466"/><stop offset=".443" stop-color="#727174"/><stop offset=".519" stop-color="#7a797d"/><stop offset=".649" stop-color="#7c7b7f"/><stop offset=".908" stop-color="#a6a5ab"/><stop offset=".913" stop-color="#96959a"/><stop offset="1" stop-color="#acabb1"/></linearGradient><path fill="url(#SVGID_12_)" d="M491.5 186.7L390.8 206v159.8l103.8-25.1-3.1-154zm-5 86.2c-.7 25.3-10.7 62-40 68.7-29.3 6.7-38-30-39.3-50s10.1-68.4 35-70.7c28.9-2.6 44.9 26.7 44.3 52z"/><linearGradient id="SVGID_13_" x1="391.715" x2="526.279" y1="316.686" y2="251.057" gradientUnits="userSpaceOnUse"><stop offset=".403" stop-color="#3c3c3c"/><stop offset=".499" stop-color="#575758"/><stop offset=".649" stop-color="#7c7b7f"/><stop offset=".787" stop-color="#96959a"/><stop offset=".908" stop-color="#a6a5ab"/><stop offset="1" stop-color="#acabb1"/></linearGradient><path fill="url(#SVGID_13_)" d="M469.9 230.3c-23-19.8-42.6-1-55.9 15.7-13.3 16.7-6.6 64.2.1 76.2 6.7 12 32.7 33.7 55.8 4.1 23.8-34 19.8-79.1 0-96zm43.7 46.1c-.7 25.3-10.7 62-40 68.7-29.3 6.7-38-30-39.3-50s10.1-68.4 35-70.7c29-2.6 45 26.7 44.3 52z"/><linearGradient id="SVGID_14_" x1="357.546" x2="631.374" y1="331.72" y2="198.17" gradientUnits="userSpaceOnUse"><stop offset=".34" stop-color="#575758"/><stop offset=".381" stop-color="#646466"/><stop offset=".443" stop-color="#727174"/><stop offset=".519" stop-color="#7a797d"/><stop offset=".649" stop-color="#7c7b7f"/><stop offset=".908" stop-color="#a6a5ab"/><stop offset=".913" stop-color="#96959a"/><stop offset="1" stop-color="#acabb1"/></linearGradient><path fill="url(#SVGID_14_)" d="M518.7 190.2L418 209.6v159.8l103.8-25.1-3.1-154.1zm-5.1 86.2c-.7 25.3-10.7 62-40 68.7-29.3 6.7-38-30-39.3-50s10.1-68.4 35-70.7c29-2.6 45 26.7 44.3 52z"/><path fill="none" stroke="#fff" stroke-linecap="round" stroke-linejoin="round" stroke-miterlimit="10" stroke-width="4" d="M588.3 212.2l-.9 60.9"/><linearGradient id="SVGID_15_" x1="409.99" x2="575.647" y1="316.425" y2="235.632" gradientUnits="userSpaceOnUse"><stop offset=".403" stop-color="#3c3c3c"/><stop offset=".499" stop-color="#575758"/><stop offset=".649" stop-color="#7c7b7f"/><stop offset=".787" stop-color="#96959a"/><stop offset=".908" stop-color="#a6a5ab"/><stop offset="1" stop-color="#acabb1"/></linearGradient><path fill="url(#SVGID_15_)" d="M425.3 295.7c18.8 2.4 55.3 7 90.7 0s13.9-18.4-15.2-20.9c-30-2.6-45.4-3.4-74.9.4.3 2.6-.4 16.4-.6 20.5z"/><linearGradient id="SVGID_16_" x1="411.364" x2="576.794" y1="321.087" y2="240.405" gradientUnits="userSpaceOnUse"><stop offset=".34" stop-color="#575758"/><stop offset=".381" stop-color="#646466"/><stop offset=".443" stop-color="#727174"/><stop offset=".519" stop-color="#7a797d"/><stop offset=".649" stop-color="#7c7b7f"/><stop offset=".908" stop-color="#a6a5ab"/><stop offset=".913" stop-color="#96959a"/><stop offset="1" stop-color="#acabb1"/></linearGradient><path fill="url(#SVGID_16_)" d="M425.3 295.7c18.8 2.4 55.3 7 90.7 0 11.6-2.3 17.1-5.1 18.2-7.8 0 1.1-.1 1.3-.1 1.9-4.8 6.6-22.5 9.6-32.9 10.6-31.3 2.9-44.8 1.3-75.8-2.8 0-2.8 1.3-5 1.9-10.5 0-1-.2-2.4-.2-3.7.3 4.2-1.6 8.4-1.8 12.3z"/><linearGradient id="SVGID_17_" x1="364.081" x2="566.636" y1="322.648" y2="223.859" gradientUnits="userSpaceOnUse"><stop offset=".34" stop-color="#575758"/><stop offset=".381" stop-color="#646466"/><stop offset=".443" stop-color="#727174"/><stop offset=".519" stop-color="#7a797d"/><stop offset=".649" stop-color="#7c7b7f"/><stop offset=".908" stop-color="#a6a5ab"/><stop offset=".913" stop-color="#96959a"/><stop offset="1" stop-color="#acabb1"/></linearGradient><path fill="url(#SVGID_17_)" d="M473.9 345c-.1 0-.2.1-.3.1-29.3 6.7-38-30-39.3-50s10.1-68.4 35-70.7c1.6-.1 3.1-.2 4.6-.1v-25.5L418 209.6v159.8l55.9-13.5V345z"/><linearGradient id="SVGID_18_" x1="279.402" x2="859.677" y1="269.647" y2="58.682" gradientUnits="userSpaceOnUse"><stop offset=".079" stop-color="#dddde8"/><stop offset=".212" stop-color="#d9d9e3"/><stop offset=".367" stop-color="#ccccd5"/><stop offset=".534" stop-color="#b7b6bd"/><stop offset=".604" stop-color="#acabb1"/><stop offset=".622" stop-color="#b9b9bf"/><stop offset=".652" stop-color="#cacad1"/><stop offset=".684" stop-color="#d5d5dc"/><stop offset=".72" stop-color="#d8d8e0"/><stop offset=".724" stop-color="#dadae3"/><stop offset=".751" stop-color="#e4e4ee"/><stop offset=".789" stop-color="#e9e9f5"/><stop offset=".895" stop-color="#ebebf7"/></linearGradient><path fill="url(#SVGID_18_)" d="M266 186.2l368.7 38 64.7-19-332.7-38.3z"/><linearGradient id="SVGID_19_" x1="347.467" x2="262.081" y1="-7.724" y2="315.736" gradientUnits="userSpaceOnUse"><stop offset=".079" stop-color="#dddde8"/><stop offset=".212" stop-color="#d9d9e3"/><stop offset=".367" stop-color="#ccccd5"/><stop offset=".534" stop-color="#b7b6bd"/><stop offset=".604" stop-color="#acabb1"/><stop offset=".622" stop-color="#b9b9bf"/><stop offset=".652" stop-color="#cacad1"/><stop offset=".684" stop-color="#d5d5dc"/><stop offset=".72" stop-color="#d8d8e0"/><stop offset=".724" stop-color="#dadae3"/><stop offset=".751" stop-color="#e4e4ee"/><stop offset=".789" stop-color="#e9e9f5"/><stop offset=".895" stop-color="#ebebf7"/></linearGradient><path fill="url(#SVGID_19_)" d="M280.2 188.4l-14.2-2.2 4.7 155.4 14.3 2.1z"/><linearGradient id="SVGID_20_" x1="544.684" x2="782.852" y1="299.742" y2="299.742" gradientUnits="userSpaceOnUse"><stop offset=".079" stop-color="#dddde8"/><stop offset=".212" stop-color="#d9d9e3"/><stop offset=".367" stop-color="#ccccd5"/><stop offset=".534" stop-color="#b7b6bd"/><stop offset=".604" stop-color="#acabb1"/><stop offset=".622" stop-color="#b9b9bf"/><stop offset=".652" stop-color="#cacad1"/><stop offset=".684" stop-color="#d5d5dc"/><stop offset=".72" stop-color="#d8d8e0"/><stop offset=".724" stop-color="#dadae3"/><stop offset=".751" stop-color="#e4e4ee"/><stop offset=".789" stop-color="#e9e9f5"/><stop offset=".895" stop-color="#ebebf7"/></linearGradient><path fill="url(#SVGID_20_)" d="M634.7 224.2l-1 43.6c1.6-4.7 3.3-8.7 5.1-11.7 0 0 10-26.7 34.7-22.7 18.1 2.9 26.3 50.7 16.3 89.7s-28 56-51 44c-2.9-1.5-5.3-4.1-7.2-7.5l-.8 34.6 63.3-23.3 5.3-165.7-64.7 19z"/><linearGradient id="SVGID_21_" x1="463.175" x2="929.327" y1="304.811" y2="304.811" gradientUnits="userSpaceOnUse"><stop offset=".403" stop-color="#3c3c3c"/><stop offset=".499" stop-color="#575758"/><stop offset=".649" stop-color="#7c7b7f"/><stop offset=".787" stop-color="#96959a"/><stop offset=".908" stop-color="#a6a5ab"/><stop offset="1" stop-color="#acabb1"/></linearGradient><path fill="url(#SVGID_21_)" d="M633.7 267.8l71.9 6.2c1.6-4.7 3.3-8.7 5.1-11.7 0 0 10-26.7 34.7-22.7 18.1 2.9 26.3 50.7 16.3 89.7s-28 56-51 44c-2.9-1.5-5.3-4.1-7.2-7.5l-71.9-6.2s5.9 14.2 22.4 11.2c24.1-4.4 38.5-40 40.1-78 1.4-35-5.9-57.7-22.6-60.1-27.4-3.9-37.8 35.1-37.8 35.1z"/><linearGradient id="SVGID_22_" x1="625.096" x2="841.884" y1="308.096" y2="308.096" gradientUnits="userSpaceOnUse"><stop offset=".403" stop-color="#3c3c3c"/><stop offset=".499" stop-color="#575758"/><stop offset=".649" stop-color="#7c7b7f"/><stop offset=".787" stop-color="#96959a"/><stop offset=".908" stop-color="#a6a5ab"/><stop offset="1" stop-color="#acabb1"/></linearGradient><path fill="url(#SVGID_22_)" d="M709 274.3l-3.4-.2c1.6-4.7 10.6-40 39.7-34.4 18 3.4 26.3 50.7 16.3 89.7s-28 56-51 44c-2.9-1.5-5.3-4.1-7.2-7.5l1.3-2 1.7 2.2s5.6 8.4 16.9 8.7c6.5.2 11.8-1.1 17.8-7.2 6.2-6.3 11.1-16.1 15-27.7 3.2-9.6 8.3-33 8-44.3-.4-17.8-3.3-51.3-20-53.7-27.2-4.1-35.1 32.4-35.1 32.4z"/><linearGradient id="SVGID_23_" x1="516.574" x2="834.843" y1="368.377" y2="368.377" gradientUnits="userSpaceOnUse"><stop offset=".403" stop-color="#3c3c3c"/><stop offset=".499" stop-color="#575758"/><stop offset=".649" stop-color="#7c7b7f"/><stop offset=".787" stop-color="#96959a"/><stop offset=".908" stop-color="#a6a5ab"/><stop offset="1" stop-color="#acabb1"/></linearGradient><path fill="url(#SVGID_23_)" d="M723.3 377.1c-4-.2-8.3-1.5-12.7-3.8-2.9-1.5-5.3-4.1-7.2-7.5l-71.9-6.2s3.9 9.4 14.2 11.3c2.4.5 68.3 6.5 77.6 6.2z"/><linearGradient id="SVGID_24_" x1="602.111" x2="784.344" y1="301.549" y2="193.021" gradientUnits="userSpaceOnUse"><stop offset=".079" stop-color="#dddde8"/><stop offset=".212" stop-color="#d9d9e3"/><stop offset=".367" stop-color="#ccccd5"/><stop offset=".534" stop-color="#b7b6bd"/><stop offset=".604" stop-color="#acabb1"/><stop offset=".622" stop-color="#b9b9bf"/><stop offset=".652" stop-color="#cacad1"/><stop offset=".684" stop-color="#d5d5dc"/><stop offset=".72" stop-color="#d8d8e0"/><stop offset=".724" stop-color="#dadae3"/><stop offset=".751" stop-color="#e4e4ee"/><stop offset=".789" stop-color="#e9e9f5"/><stop offset=".895" stop-color="#ebebf7"/></linearGradient><path fill="url(#SVGID_24_)" d="M633.7 267.8l71.9 6.2c1.6-4.7 3.3-8.7 5.1-11.7 0 0 10-26.7 34.7-22.7-15.3-2.2-57.2-4.4-73.9-6.9-27.4-3.9-37.8 35.1-37.8 35.1z"/><linearGradient id="SVGID_25_" x1="539.89" x2="793.589" y1="361.78" y2="361.78" gradientUnits="userSpaceOnUse"><stop offset=".403" stop-color="#3c3c3c"/><stop offset=".499" stop-color="#575758"/><stop offset=".649" stop-color="#7c7b7f"/><stop offset=".787" stop-color="#96959a"/><stop offset=".908" stop-color="#a6a5ab"/><stop offset="1" stop-color="#acabb1"/></linearGradient><path fill="url(#SVGID_25_)" d="M631.5 359.7l71.9 6.2 1.2-2-71.8-6.2z"/><g><linearGradient id="SVGID_26_" x1="397.201" x2="454.962" y1="340.988" y2="312.817" gradientUnits="userSpaceOnUse"><stop offset=".34" stop-color="#575758"/><stop offset=".381" stop-color="#646466"/><stop offset=".443" stop-color="#727174"/><stop offset=".519" stop-color="#7a797d"/><stop offset=".649" stop-color="#7c7b7f"/><stop offset=".908" stop-color="#a6a5ab"/><stop offset=".913" stop-color="#96959a"/><stop offset=".988" stop-color="#a9a8ae"/><stop offset="1" stop-color="#acabb1"/></linearGradient><path fill="url(#SVGID_26_)" d="M428.9 313l-1.6 3.7-1.7 1.8-.6 8.8 2.5 2.4 1.4 6.1 7.7-1.5v-24.8z"/><linearGradient id="SVGID_27_" x1="389.439" x2="470.469" y1="316.75" y2="277.231" gradientUnits="userSpaceOnUse"><stop offset=".34" stop-color="#575758"/><stop offset=".381" stop-color="#646466"/><stop offset=".443" stop-color="#727174"/><stop offset=".519" stop-color="#7a797d"/><stop offset=".649" stop-color="#7c7b7f"/><stop offset=".908" stop-color="#a6a5ab"/><stop offset=".913" stop-color="#96959a"/><stop offset="1" stop-color="#acabb1"/></linearGradient><path fill="url(#SVGID_27_)" d="M379.4 306.4l49.5 6.6 7.7-3.5-51.5-6.4z"/><linearGradient id="SVGID_28_" x1="444.159" x2="365.792" y1="333.762" y2="307.225" gradientUnits="userSpaceOnUse"><stop offset=".119" stop-color="#575758"/><stop offset=".322" stop-color="#5a5a5b"/><stop offset=".462" stop-color="#626264"/><stop offset=".584" stop-color="#717073"/><stop offset=".649" stop-color="#7c7b7f"/><stop offset=".908" stop-color="#a6a5ab"/><stop offset=".913" stop-color="#96959a"/><stop offset="1" stop-color="#acabb1"/></linearGradient><path fill="url(#SVGID_28_)" d="M425.6 318.5l-.6 8.8-48.9-7.5v-7.6z"/><linearGradient id="SVGID_29_" x1="359.357" x2="435.841" y1="318.024" y2="306.817" gradientUnits="userSpaceOnUse"><stop offset=".34" stop-color="#575758"/><stop offset=".381" stop-color="#646466"/><stop offset=".443" stop-color="#727174"/><stop offset=".519" stop-color="#7a797d"/><stop offset=".649" stop-color="#7c7b7f"/><stop offset=".908" stop-color="#a6a5ab"/><stop offset=".913" stop-color="#96959a"/><stop offset="1" stop-color="#acabb1"/></linearGradient><path fill="url(#SVGID_29_)" d="M379.4 306.4v3.1l47.9 7.2 1.6-3.7z"/><linearGradient id="SVGID_30_" x1="373.014" x2="444.361" y1="328.394" y2="293.598" gradientUnits="userSpaceOnUse"><stop offset=".34" stop-color="#575758"/><stop offset=".381" stop-color="#646466"/><stop offset=".443" stop-color="#727174"/><stop offset=".519" stop-color="#7a797d"/><stop offset=".649" stop-color="#7c7b7f"/><stop offset=".908" stop-color="#a6a5ab"/><stop offset=".913" stop-color="#96959a"/><stop offset="1" stop-color="#acabb1"/></linearGradient><path fill="url(#SVGID_30_)" d="M376.1 312.2l3.3-2.7 47.9 7.2-1.7 1.8z"/><linearGradient id="SVGID_31_" x1="390.696" x2="458.409" y1="331.675" y2="317.395" gradientUnits="userSpaceOnUse"><stop offset=".34" stop-color="#575758"/><stop offset=".381" stop-color="#646466"/><stop offset=".443" stop-color="#727174"/><stop offset=".519" stop-color="#7a797d"/><stop offset=".649" stop-color="#7c7b7f"/><stop offset=".908" stop-color="#a6a5ab"/><stop offset=".913" stop-color="#96959a"/><stop offset="1" stop-color="#acabb1"/></linearGradient><path fill="url(#SVGID_31_)" d="M428.9 335.8l-1.4-6.1-46.5-8.1 3.5 4.2z"/><linearGradient id="SVGID_32_" x1="378.515" x2="441.256" y1="337.291" y2="306.691" gradientUnits="userSpaceOnUse"><stop offset=".34" stop-color="#575758"/><stop offset=".381" stop-color="#646466"/><stop offset=".443" stop-color="#727174"/><stop offset=".519" stop-color="#7a797d"/><stop offset=".649" stop-color="#7c7b7f"/><stop offset=".908" stop-color="#a6a5ab"/><stop offset=".913" stop-color="#96959a"/><stop offset="1" stop-color="#acabb1"/></linearGradient><path fill="url(#SVGID_32_)" d="M425 327.3l-45.1-7 1.1 1.3 46.5 8.1z"/></g><g><path fill="#c9741f" d="M573.3 201.8s10.7 6.3 30.7 3.7V185s-2.1-3.5-11.3-4.8-15.4-.8-19.3 1.3v20.3z"/><path fill="#885a27" d="M573.3 201.8s10.7 6.3 30.7 3.7l2.7 1.2s-9.3 2-18.6 1.2c-10.2-.8-14.7-3.9-18.6-5.5l3.8-.6z"/><ellipse cx="576.8" cy="187.1" class="st35" rx="2.4" ry="1.7" transform="rotate(-8.773 576.764 187.075)"/><ellipse cx="579.4" cy="189.1" class="st35" rx=".6" ry=".4" transform="rotate(-8.773 579.382 189.042)"/><path d="M599.2 201.3c-3 3.2-11 3.5-12.8 1.5-1.7-1.8 4.3.6 8-1.8 3.7-2.5-.1-5.5 3.9-5.8 2.3-.2 2.7 4.2.9 6.1z" class="st35"/></g><linearGradient id="SVGID_33_" x1="225.306" x2="364.299" y1="317.106" y2="249.317" gradientUnits="userSpaceOnUse"><stop offset=".34" stop-color="#575758"/><stop offset=".381" stop-color="#646466"/><stop offset=".443" stop-color="#727174"/><stop offset=".519" stop-color="#7a797d"/><stop offset=".649" stop-color="#7c7b7f"/><stop offset=".908" stop-color="#a6a5ab"/><stop offset=".913" stop-color="#96959a"/><stop offset="1" stop-color="#acabb1"/></linearGradient><path fill="none" stroke="url(#SVGID_33_)" stroke-linecap="round" stroke-linejoin="round" stroke-miterlimit="10" stroke-width="3" d="M262 224.3s-83.6 27.2-44.6 68.3 143.2 8.2 175.5 19"/><linearGradient id="SVGID_34_" x1="220.209" x2="379.27" y1="367.578" y2="290.002" gradientUnits="userSpaceOnUse"><stop offset=".34" stop-color="#575758"/><stop offset=".381" stop-color="#646466"/><stop offset=".443" stop-color="#727174"/><stop offset=".519" stop-color="#7a797d"/><stop offset=".649" stop-color="#7c7b7f"/><stop offset=".908" stop-color="#a6a5ab"/><stop offset=".913" stop-color="#96959a"/><stop offset="1" stop-color="#acabb1"/></linearGradient><path fill="none" stroke="url(#SVGID_34_)" stroke-linecap="round" stroke-linejoin="round" stroke-miterlimit="10" stroke-width="3" d="M267.4 320.3s-89 45.6-30 41.4c59-4.2 105.4-50.3 150.1-51.5"/></svg>