<svg xmlns="http://www.w3.org/2000/svg" id="图层_1" viewBox="0 0 93.9 100"><style>.st1{fill:#b3b3b3}.st3{fill:#aeaeae}.st5{fill:#757575}.st6{fill:#aaa}.st14{fill:#a1a1a1}.st15{fill:#a3a3a3}.st16{fill:#7f7f7f}.st17{fill:#777}.st18{fill:#cececf}.st21{fill:#5e5e5e}.st23{fill:#818291}.st27{fill:#939393}.st29{fill:#5b5b5b}.st31{fill:#3b3c43}.st33{fill:#b9b9b9}.st36{fill:#989899}.st41{fill:#b8b8b8}.st42{fill:#5c5c5c}.st56{fill:#a7a8ba}.st67{fill:#f9f9f9}.st70{fill:#eee}.st72{fill:#f1f1f1}.st74{fill:#101010}.st75{fill:#b0b0b0}.st76{fill:#ededed}.st78{fill:#8f8f90}.st86{fill:#7d80ac}.st96{fill:#101c59}.st107{fill:#8b8fd2}.st110{fill:#7f82ba}.st112{fill:#45486d}.st113{fill:#77787b}.st124{fill:#7eeafd}.st133{fill:#d5d3d5}.st139{fill:#13859b}</style><path fill="#acacac" d="M38.5 99.9l-.5.1c-3.6-.1-7.1-.4-10.6-1.2l-.2-.1a266.5 266.5 0 0 1-1.4-13.8l-.4-6.3-.3-5.3-.4-7-.3-6.3c0-2.1-.2-4.2-.4-6.2-.1-1.3 0-2.5-.2-3.8a129 129 0 0 1-.4-6.2l-.3-5.1c0-.3 0-.6.2-.9l.3-.1.4.2c.4 1 .2 2.1.4 3.2l.6 5.6c.2 2.1.6 4.2 1 6.3.3 1.4.5 2.8 1 4.1.3.8.4 1.7.6 2.5.4 1.5 1 3 1.6 4.5.1.3.3.3.6.4.3.1.6.2.4.6-.2.4.1.7.4.8.3.1.8.2.9-.4.1-.6.5-1 .8-1.4a5 5 0 0 0 .9-1.8l1.2-4.5c.3-1.1.7-2.1.9-3.3.4-2.8 1-5.6 1.2-8.5l.7-5.3c.1-.7-.1-1.3.1-2l.2-.2.2.2.1 1.1V51c.2 8.8 0 17.7.2 26.5l.1 21c-.1.5-.1 1 .4 1.4z"/><path d="M2.1 61.9l-.1-.6-.3-9a321 321 0 0 0-.4-9.8l-.1-3.4v-1.3c.5.3.5.7.6 1 .1.3-.1 1 .7.8l.2.4.2.8c.3.9.4 1 1.2 1 .7 0 1.3 0 1.8-.6.1-.3.4-.3.6-.2 1.6.4 3.1.1 4.7.2 1.4 0 2.8-.1 4.1.2l.5.1c.3 0 .4-.2.2-.4s-.5-.4-.3-.8c.2-.1.3 0 .4.1l1.6 1.1.2.3c.2.8 0 1.6 0 2.5l-.1 2.7-.3 13.6c-.1 2.3-.1 4.7-.4 7-.1.7-.2.8-.9.9-1.7.3-3.4-.3-4.8-.1h2.1c.2 0 .4 0 .5.2 0 .3-.2.3-.4.3l-1.8.3h-.3c-.8-.4-1.6-.1-2.4 0-.4.1-.8 0-1.2-.1h-.7c-.2 0-.3.1-.4.3 0 .2.1.3.3.4.5.1.6.5.6.9 0 .8-.1 1-.7 1.1-.9.2-1.1 0-1.3-.8-.1-.5-.2-.8-.7-.9l-.3-.2c0-.6-.5-.7-.8-1a1 1 0 0 1-.3-.7l-.4-4.4v1c0 .2.1.5-.2.6-.3.1-.4-.2-.4-.4a9.6 9.6 0 0 1-.4-3.4v-1.1c0 .5.2 1-.1 1.4z" class="st1"/><path fill="#afafaf" d="M49.8 69.6c-1.2-1-2.4-2-3.5-3.2 0-.1.1-.4-.3-.3-.9-.8-1.6-1.8-2.3-2.8l-.2-.6v-17c.3-.4.6-.1.9.1l1.1 1.2c.2.2.4.5.7.4.2-.1.3.1.3.3.1 1.1 1 1.7 1.6 2.4a61 61 0 0 1 4 5.9l2.3 4c.5.8 1.2 1.5 2.2 1.7 1 .2 1.9-.2 2.2-1 .6-.8.8-1.6.5-2.6-.1-.4.1-.7.2-1.1l.3-.6.6-.5a10 10 0 0 1 2.2-2.4c.2-.1.3-.3.3-.5.4-.7 1-1.1 1.4-1.7 1-.6 1.5-1.6 2.1-2.5.3-.5.8-.6 1.1-1.1l.3-.3c.1-.8.9-1.2 1.2-1.9.1-.2.2-.3.4-.2.2.1.3.2.2.4-.1.3 0 .5 0 .8-.3 1.2-.2 2.3-.3 3.5l-.6 6.6v3.7c-.1 1.1-.1 2.3-.5 3.4l-.2.3c-.7.4-.8 1.1-1 1.8-.2.6-.7 1-.8 1.6 0 .2-.3.2-.5.3l-2 .5c-.1 0-.3 0-.4.2-.1.2.1.3.3.4 1.1.7 1.9 1.7 2.9 2.5l1.8 1.6c.1.1.3.3.2.5-.4.2-.6-.1-.8-.3l-6.6-5.2c-.2-.2-.4-.4-.8-.5 0 .6.4.8.7 1.1l4.4 3.5c.2.2.4.3.5.6l-.1 2c-.1.2 0 .6-.4.5-.5-.7-.8-1.5-1.6-1.9-.2-.1-.3-.3-.6-.2.5.9 1.6 1.2 2.1 2.1.2.4.6.7.3 1.2-.3.1-.4-.1-.6-.2l-1.2-1-.2-.1c-.1-.1-.3-.2-.4 0-.1.2.1.3.2.4.3.3.8.5 1 .9l.5.7c0 .2 0 .4-.2.6-.4.1-.6-.2-.9-.4-.2-.1-.3-.4-.7-.3.4.7 1.1 1 1.6 1.6l.1.4c-.1.1-.2.2-.3.1-.9-.3-1.8-.8-2.1-1.7a9.5 9.5 0 0 1-.7-3.8c.1-1 .4-1.6 1.4-2 .5-.2.5-.3.1-.6l-2.3-1.6a.6.6 0 0 0-.7-.1c-.6.2-.8 0-.8-.6 0-1 0-2-.3-3l-.2 3c0 .8-.2 1-1 1-.4 0-.7.1-1.1.3l-.6.2c-.6.1-.9-.1-.9-.7v-1.6l-.2-2c.1 1.2-.2 2.3-.2 3.5l-.1.5c-.1.7-.2.7-.8.5l-.4-.1c-.4 0-.6-.3-.9-.5l-.1-.1-.8-.8-2.1-1.9-1-.9-1-.8-.7-.6c.2.2.4.5.7.6l1.1.9c.2.4.6.6.9.8l.8.8c.7.8 1.3 1.7 2.4 2.2.4.2.5.5.5.9.1.4-.3.4-.6.4-.8-.2-1.5-.5-2-1.1l-1-.5z"/><path d="M84.8 91.5c-2.4-.2-4.8-.5-7.2-1.2-.6-.3-.8-.8-.8-1.4-.1-3.4-.3-6.7-.3-10.1 0-1.4-.3-2.7-.6-4.1-.5-2.1-.5-4.1-.1-6.2.7-3.5 1-7.1 1-10.6l.1-15.8c0-2.5-.1-4.9-.3-7.4 0-.5-.1-1 .1-1.5.1-.2.4-.2.6-.1l.3.2c.2.8.2 1.6.2 2.4l.3 10.3.1 2 .1.4c.7.9.7 1.9.8 2.9l.5 7.6c.1 2.4.4 4.7 1 7 .3.9.3 1.9.5 2.9.1.4-.3.9-.2 1.4 0 .3 0 .5.2.7 1.7.5 3.2.1 4.6-1 .7-.6 1.1-1.4 1.3-2.2l.1-1.4.1-1c.2-.8.1-1.6.1-2.4l.1-.9c.2-.6.1-1.2.1-1.8-.1-.5-.1-.9.1-1.4l.1-.3c0-1 .3-2 0-3l-.1-.2v-.2c.3-3.3.8-6.5 1.2-9.8l1-8.9.2-2h.5c.3.2.3.5.2.9l-1.2 12.9-.7 8.5-.7 8.7c-.4 4.1-.9 8.1-1.2 12.2l-.9 8.7-.5 4.1c-.4.3-.4.7-.7 1.1z" class="st3"/><path fill="#aaaaab" d="M2.1 61.9v-1.8c.4.3.4.8.4 1.1-.1 1.3.2 2.5.4 3.7 0 .1 0 .3.2.3s.2-.2.1-.4c-.2-.4-.2-1.3.1-2 .2.6.2 1.1.2 1.7l.3 3.1C4 69 4 69 5.3 69.3c0 .2-.2.2-.3.2-.1 0-.3 0-.3.2s.2.2.3.2c.7 0 .8.5.9 1 0 .7.8 1.2 1.4.8.4-.3.1-.8.2-1.2 0-.2-.1-.4-.3-.4-.4 0-.7-.2-.7-.6.1-.4.4-.6.9-.6l1.6.2c.3 0 .6 0 .9-.2a1 1 0 0 1 1.1 0c.3.2.7.3 1.1 0 .3-.2.6-.2.9-.2.3 0 .6.1.9-.2h-3.5c.3-.4.5-.3.6-.3 1.1 0 2.3-.1 3.4.1.7.1 1.5-.1 2.2-.1.4 0 .4-.3.4-.6l.3-5.5.1-5.6c.2-1.8 0-3.6.1-5.4.2-2.1.1-4.3.1-6.4l.1-3.1.3-.1c.3.2.2.5.2.8l.1 1 .1 4c-.3.7-.2 1.3 0 2v.3c-.2.4-.3.8 0 1.2.1.3.1.6-.1.9-.3.2-.3.6-.2.9.2.5.1 1 0 1.5v.9c.2 8.4.2 16.8.1 25.2l-.1 7.7.1 1.5c0 .4 0 .8-.4.9-.4.1-.5-.3-.7-.5-.9-1-1.5-2.2-2.3-3.3l-3.1-4.7-3.3-5-3.8-5.7-1-1.5 1 1.5a147.8 147.8 0 0 1 7.2 10.8l5.4 8.1 1.8 2.3c.3.6.2 1.3.3 1.9 0 .3-.1.7-.6.6-.8-.6-1.3-1.6-1.9-2.4-4-6.5-8.2-12.9-12.4-19.4-1-1.5-1.7-3.1-2.1-4.8-.2-1.1-.1-2.2-.1-3.2-.2-.7.1-1.4-.1-2.1v-1z"/><path d="M23.4 97.6c-1.3-.6-2.5-1.1-3.6-2 .1-1.3-.1-2.6-.1-3.9.1-3.2-.2-6.5-.1-9.7l-.2-8.2-.1-7.5c-.1-3.9 0-7.9-.2-11.8L19 37.9v-.6c0-.5.3-.7.8-.5h.1c2.1.6 1.7.2 1.8 2.2l.5 9.8.1 3.5.2 6.2c.1 3.5.1 7 .4 10.4l.1 4.5.2 8.1.3 11.6.1 3.6c0 .3 0 .6-.2.9z" class="st5"/><path d="M53.5 70.3c.2-.2.4-.2.6 0 .4.3.6.3.6-.3l.2-3.6c0-.3 0-.7.4-1.1l.2 2.5v1.6c0 .3-.1.6.2.8.3.1.8 0 1-.2.4-.4.9-.5 1.4-.4.5 0 .6-.2.6-.6 0-1.2.1-2.3.3-3.5 0-.1 0-.3.2-.3.1 1.1.3 2.1.3 3.2v.7c0 .2.2.5.4.3.6-.6 1.1 0 1.5.3.7.5 1.5.9 2.2 1.5.2.1.3.2.3.5s-.3.2-.4.2c-1 .2-1.3.7-1.4 1.7-.2 1.4.4 2.6.6 3.9.1.6 1.7 1.6 2.2 1.5.2-.1.3.2.5 0 .1-.2 0-.4-.1-.5-.1-.2-.4-.3-.4-.7 0-.2-.1-.5.1-.7.5.1.5-.3.7-.5.2-.5-.3-.7-.3-1.2 0-.1.1-.1.1 0l.3-.2c-.1-.5.3-1.1.1-1.6-.1-.3 0-.5.2-.7.3-.1.5.1.7.3l1.9 1.5c.2-.3-.1-.6 0-1-.4-.7-1-1.2-1.7-1.7-.6-.5-1.3-1-1.8-1.6l-1-.7c-.4-.2-.8-.6-1.1-1-.2-.2.2-.4.4-.4l2.4-.6c.1 0 .3 0 .3-.2 0-1 1.2-1.6 1-2.7l.2-.4c.9-.4.8-1.2 1-1.9.2-1.5.3-2.9.2-4.4-.1-2.2.3-4.3.5-6.5l.2-3.4c0-.6-.1-1.2.3-1.8.3 0 .3.2.3.4-.1.6 0 1.1.2 1.7v.5c-.1.6.1 1.2-.1 1.7-.1 2-.5 4-.4 6a59 59 0 0 1 .1 11c.3 3.3.2 6.6.1 9.8l-.2 5.7c0 .4.2.6.5.7.3.2.6.3.6.6v.2l-.2.1c-.7-.2-.7-.2-.8.6-.1.4.1.9-.3 1.3-.9-.5-1.7-1.3-2.4-2a907 907 0 0 1-10.6-9.5l-6.3-5.6-.2-.3c.5-.3.7.1.9.4.4.5 1 .9 1.6 1.1.3.1.7.4.8 0 .1-.3-.1-.8-.5-.9-1.1-.4-1.5-1.4-2.3-2.1v-.2c.7.1.9.8 1.5 1l.9.9 4 3.5 7.9 6.9 1.1.9 2.6 2.2-2.5-2.2c-.4-.2-.6-.7-1.1-.9-2.6-2.4-5.3-4.6-8-6.9l-3.2-2.7c-.1.2-.1.1-.1 0z" class="st6"/><path fill="gray" d="M17.1 19.9c.3 0 .6 0 .9.2L33.8 30l.2.2c-.1.4-.5.4-.8.5l-9.7.7-5.6.4h-.3c-.7 0-1.3-.3-1.5-1-.2-1-.9-1.9-1.3-2.8l-.5-1.4c-.1-.3-.1-.6.1-.8l2.7.1c1 0 1.9-.2 2.9-.4l.7-.3a6 6 0 0 0-2.2-.4c-1.5 0-3.1-.1-4.6.3h-.3c-.9-.6-1.1-1.6-1.4-2.5-.1-.5.4-.7.6-1.1v-.9l.1-.3c.1-.2.3-.2.4-.2.7 0 1.5-.1 2.2.1.5-.2 1.1-.5 1.6-.3z"/><path fill="#c3c3c5" d="M15.8 40.2c-.2.4.2.5.3.7.1.1.4.2.3.4-.1.2-.4.4-.6.3-1.4-.5-2.8-.2-4.2-.3-1.3-.1-2.6 0-4 .1H7c-.6-.3-1.1-.4-1.4.4l-.3.2h-1c-1.4-.1-1.6-.3-1.8-1.7v-.5c-.3-.1-.3.4-.6.4-.5-.6-.2-1.4-.7-2.2v1.2c-.2-.2-.2-.4-.2-.5l-.2-5.3-.1-4c-.1-.3-.2-.7.1-.8.3-.1.4.4.6.6l.2.4c.2-.1.2-.5.5-.4.2.1.2.3.2.5v.5c.1.6.3.8 1 1 .8.2 1.4.1 1.7-.6.4-.2.6.1.9.3l5.8 5.2a123 123 0 0 0 3.9 3.5c0 .2.3.3.2.6z"/><path fill="#676767" d="M17.8 31.5L25 31l4.3-.3 4.1-.3c.3 0 .4-.2.6-.3.8.3 1.2 1 1.8 1.6 1.3 1.3 2.4 2.8 3.3 4.3.3.5.5.9.5 1.5v.5h-.2l-.1-.5c0-.2-.2-.3-.4-.2-.9.3-1.8.2-2.7.1-5-.3-9.9-1-14.6-2.5-.9-.3-1.8-.6-2.6-1.1l-2-1.3-.6-.6c-.1-.1-.3-.3 0-.5.5 0 .9.3 1.4.1z"/><path fill="#787878" d="M90.3 91.6h-.1-.1c-.6.1-1.3.2-1.8 0-.6-.3-.1-1.1-.1-1.6l.3-7.5.3-5.6.5-8.4.3-5.6.3-5.9c.2-1.7.2-3.5.3-5.2.3-3.6.4-7.2.8-10.8l.4-6c.1-.8-.5-.3-.8-.5-.1 0-.2-.1-.2-.3.7-.5 1.4-.3 2.2-.1.2.1.2.3.2.5 0 .8.1 1.7-.1 2.5l-.1.5c.1 1.6-.1 3.2-.2 4.8l-.3 6.8c-.1 1.9-.1 3.8-.3 5.6-.2 3.5-.2 7-.5 10.6l-.1 3.3-.3 7.8-.5 10.4-.2 3.9c.3.2.3.5.1.8z"/><path fill="#8b8b8b" d="M23.4 97.6c.1-3.1-.1-6.2-.2-9.2 0-1.6 0-3.2-.2-4.8-.2-1.8 0-3.6-.1-5.3l-.3-9.2-.1-4.6-.3-8.3-.3-7.1-.4-8.4c0-1-.2-1.9-.1-2.9 0-.2-.2-.3-.3-.3l-1-.3c-.9-.2-.9-.2-.9.7v14.9l.1 10.1.1 4.4c0 3.9 0 7.7.2 11.6l.1 7.2c.2 2.5 0 5 .1 7.4l.1 1.2c0 .3 0 .7-.3.9l-1-.8c.3-.2.5-.5.4-.8l-.2-1.7.3-.3-.1-.9c.1-2.8-.1-5.5-.2-8.2l-.3-12.6-.3-10.8-.1-6.1c0-.6-.3-1.2.1-1.7v-.9c-.2-.4-.1-.7 0-1.1v-.3c-.2-.6-.1-1.2-.1-1.9-.1-1.1.1-2.2-.1-3.4l.1-.8v-4c0-.9-.1-1.8.1-2.7.2-.4.6-.1.9-.2l3.2.8.2.2-.2.5.4 7.8.1 4.5.3 10 .3 10.2.3 9c.3 3.6.3 7.1.5 10.5l.1 5.1c0 .7.2 1.3.1 2 0 .3.1.7-.4.7-.2.1-.4-.1-.6-.1z"/><path fill="#a1a1a4" d="M76.7 33.1l.3 4.2.1 6.2v12.6l-.3 6.7c-.2 2.2-.6 4.4-1 6.6-.2 1.7-.2 3.4.2 5.1.3 1.4.6 2.8.6 4.2l.2 6.7.1 3.9c0 .5.5.7.7 1-.9-.1-1.8-.4-2.7-.7-.2-.3-.2-.7-.2-1.1.2-1.5.1-3 .1-4.5v-4.8a25 25 0 0 0-.7-5.4c-.4-1.6-.4-3.3 0-5 .5-2.5.9-5 1.1-7.5.3-3.7.5-7.5.5-11.2 0-2.3.2-4.7.1-7V39.3c.2-.2-.2-.4 0-.6 0-1.4.3-2.8.1-4.1 0-.5-.2-1.1.2-1.6.2-.1.4-.1.6.1z"/><path d="M73.8 89.2c-1-.5-2.1-.8-3.1-1.5-.3-.9-.3-1.8 0-2.7.1-.5-.1-.9-.1-1.4-.1-2.9.1-5.8.2-8.6 0-2 0-4 .2-6l.1-5.8c.1-1.4 0-2.9.2-4.3.3-.5.6-.9.8-1.5l.3-.5c.3-.2.4-.5.5-.8 0-.4.3-.6.5-.9.2-.3.5-.3.8-.2.3.1.1.4.1.6v1.1c-.1 2-.4 4-.1 6 .1.5-.1 1-.2 1.4-.1.3-.3.4-.6.4-.4.1-.7.3-.8.7-.3 1.6-.6 3.2-.6 4.8 0 2.1.8 4.1 1.4 6.1.3 1 .5 2.1.5 3.2v4.9c0 1.5-.2 3.1-.1 4.6v.4z" class="st5"/><path fill="#959595" d="M90.7 34.3c.4-.1.8-.2 1.2-.1l-.2 1.7c-.1 1.6-.1 3.3-.3 4.9-.3 2.7-.4 5.5-.6 8.2l-.3 4.5L90 62c-.1 1.7-.3 3.4-.3 5.2 0 2.9-.3 5.7-.4 8.5l-.2 4.5-.4 7.9-.1 2.3c0 .4 0 .8-.3 1.3h2c-.8.3-1.5.1-2.3.1l-1.2-.1.4-5 .4-5.8.4-6 .3-5.2.3-5.2.3-5.1.6-8.4.5-6.2.5-6.1.2-2.7c-.2-.8-.2-1.2 0-1.7z"/><path d="M90.7 34.3c.2.8 0 1.6-.1 2.4l-.2 2.2-.4 6.3-.5 7.1-.4 5.5-.4 6.3-.4 6.3-.4 6.6-.4 6.4c-.1 2.3-.4 4.7-.4 7 0 .4-.1.8-.4 1.2-.6 0-1.3.1-1.9-.1l.4-3.8.5-4.2.8-7.7c.3-2.1.3-4.2.6-6.2l.6-6.2c.2-1.4.2-2.9.3-4.3l.5-5.1.3-3.7.5-5 .3-3.4.5-5.5c.1-.7.3-1.4 0-2.1l.1-.2h.2l.3.2z" class="st14"/><path d="M22.3 37.6c.1-.2.3-.1.4-.2.3-.1.6-.3.7.3-.3.5-.2 1.1-.1 1.6.2.9.1 1.9.2 2.8l.3 5.9.3 5.4.4 7.8.4 7.3c.1 1.7.1 3.5.3 5.2.2 2.2.2 4.5.5 6.8l.2 3.2.6 7.6.5 4.9c.1.7 0 1.6.4 2.2.1.2-.1.2-.2.2-.7 0-1.4-.3-2.1-.6-.3-.3-.3-.7-.3-1l-.3-9.8-.3-8.7-.3-8.5-.4-12.4-.4-9.9-.4-8.6c-.1-.4 0-1-.4-1.5z" class="st15"/><path d="M59.5 17.2c1.1-.1 2.2.1 3.3.6l5 2c.4.7.3.9-.5 1.2-.6.2-1.2.2-1.8.1-.8-.1-1.5.2-2.2.3-.5.2-1.1.3-1.6.3-.4 0-.5.1-.3.5l.5.5c.3.1.5.3.6.5.1.2.2.4.1.5-.1.2-.3.1-.5 0s-.3-.1-.4.1c-.3.4-.5.3-.8 0l-.7-.4a4 4 0 0 1-1.4-.5c-.5-.3-1.1-.2-1.6-.4-1.3-.4-2.5-1-3.7-1.6l-5.1-2.2c-.2-.2-.6-.2-.4-.6.8-.4 1.6-.3 2.4-.3l9.1-.6z" class="st16"/><path d="M38.5 99.9c-.5 0-.7-.2-.7-.7V79.6c-.2-7.9 0-15.7-.1-23.6l-.1-17.3c.2-.2.4-.2.7-.1l.4.3.1.8c-.1 7.3.2 14.6.1 21.9v7.7c.2 6.6 0 13.2.2 19.8l.1 9.6c0 .4.1.8-.4 1.1l-.3.1zM63.4 21.4l.1-.2c.7.1 1.4-.4 2.1-.2.7.2 1.4.1 2-.3.3-.2.6-.3.1-.6-.2-.1-.2-.2.1-.3l6.1 2.3c.2.2.2.4.2.7v2.3c-.2.3-.4.3-.7.4-.3.1-.3.2-.2.5.2.3-.2.6 0 1 .1.5-.1.8-.6.8l-2.5.2c-1.1-.2-2.1-.8-3.1-1.2l-8.9-3.9c-.2-.1-.6-.2-.6-.5.9.1 1.7.4 2.5.8.5.2 1.2.1 1.5.7.1.1.3 0 .3-.1.3-.9.6-.4 1 .1 0-.6-.3-.9-.6-1-.5-.1-.6-.5-.8-.7-.2-.3 0-.5.4-.5 0 .4.2.5.5.6 2 .3 4.1.5 6.1 0 .2 0 .4 0 .6-.3-1-.4-2-.4-2.9-.5h-2l-.7-.1z" class="st17"/><path d="M43.5 34.3v-9.1c.3-.2.7-.1 1 0 1.6.4 1.6.4 1.6-1.2v-1.7c0-.3-.1-.9.3-.9.5 0 .3.6.3.9l.1 2.1c.3.1-.4.1 0 .3a183.5 183.5 0 0 1 8.1 4.2c-.2.3-.6.4-.9.5-2.3.4-4.4 1.3-6.4 2.3-1.2.6-2.2 1.5-3.2 2.2-.2.2-.5.6-.9.4z" class="st18"/><path fill="#ceced0" d="M5 30.6c-.2.8-.7 1.2-1.4.9-.4-.2-1 .1-1.3-.4l-.3-.9c0-.3.1-.6-.1-.8-.3.2-.1.5-.4.7-.4-.3-.3-1-.8-1.3l-.1.7-.1-.4-.1-5.8-.1-1.1c-.1-.2 0-.4.3-.5.2 0 .3.1.3.2 1 1.6 2.6 2.6 4 3.8l8.2 6.8c.2.2.5.3.5.6l-.2.2c-.7-.3-1.2-.9-1.8-1.3-.4-.3-.7-.6-1.4-.3-1.1.4-2.3.4-3.5 0l-.6-.2C5 30.8 4.2 29.8 3.2 29l-1.1-1 2.6 2.3c.2-.1.4 0 .3.3z"/><path fill="#1a1a1a" d="M79.6 4.2l1.7 13.4c0 .3.2.8-.4.9l-2.7.3c-1.1.1-2.1.4-3.2.3-.7 0-.8-.1-.6-.8.1-.5-.1-1-.1-1.5l-1-8.6-.4-3.2c0-.2-.1-.5.2-.6.9-.2 1.8-.3 2.8-.3l2.8-.1c.3-.1.6-.1.9.2z"/><path d="M13.7 33l-8.9-7.5c-1.2-1-2.5-1.9-3.5-3.1l-.7-.9-.1-.4-.1-.5c0-.4.2-.4.5-.3l1.2.4c1.3.7 2.3 1.6 3.4 2.5l.9.8a75 75 0 0 0 4.4 3.5l4.5 3.5c.3.2.6.5 1 .6l.8.9c-.3.3-.3.7-.4 1.1 0 .5.1 1.1-.2 1.5l-.3.1c-.9-.6-1.8-1.3-2.5-2.2z" class="st21"/><path fill="#2c2c2f" d="M90.5 34.2h-.3c-1.7.2-3.3-.1-5-.2-2.2-.1-4.3-.4-6.5-.6l-1.1-.2c-.5-.2-1.1-.2-1.6-.3l-1.3-.2h-.2l-1-.3-1.8-.5-1.1-.3c-.3-.2-.6-.2-.7-.6l.3-2.1c.1-.3.1-.6.5-.6l3.6 1.4a77.7 77.7 0 0 0 17.6 2.9l1.7-.2c.3.9.1 1.3-.8 1.6h-.3c-.5.1-1.3-.1-2 .2z"/><path d="M73.8 89.2c-.2-1.2-.1-2.3-.1-3.5l.1-.8v-4.6c.1-2.1-.5-4-1.1-5.9a9.4 9.4 0 0 1-.7-3.7l.1-2.9c.2-1 0-2.1.8-3l.3-.3c.2-.1.6.2.7-.1l.2-1.5-.2-3c0-1.1.3-2.1.3-3.2 0-.4-.4-.9.1-1.3-.7-.1-1.1.3-1.3.9-.1.3-.1.8-.6.9-.5.2-.3.9-.6 1.2-.1.1-.2.4-.4.4-.4-.7 0-1.3-.1-2l.1-.4V56l.1-.3c.3-.3.1-.8.3-1.1.2-.2.4-.4.7-.1.3.3.5.1.6-.1.2-.3.5-.6.5-1 0-.3.4-.5.4-.8.2-.6-.1-1.2 0-1.8v-.4c.4-.2.6-.5.4-1-.1-.2-.1-.5.1-.8l.3-.9c0-.4.5-.5.9-.2.1.4.2.8.1 1.2-.3 2.1-.1 4.2-.3 6.3l-.6 9c-.1 1.3-.3 2.6-1.3 3.6-.6.3-.6.9-.6 1.5.1 2.2.3 4.5 1 6.6.3.9.5 1.9.5 2.9v6.1l-.1 3.9c0 .2.1.6-.3.6h-.3z" class="st23"/><path fill="#919194" d="M74 89.2l.1-.4c.1-3.6.2-7.1.1-10.7 0-.8-.2-1.5-.4-2.3-.8-2.2-1-4.5-1.1-6.8 0-.6 0-1.3.6-1.8.9-.9 1-2.1 1.2-3.2l.3-4.8.3-5.1c.2-1.3 0-2.5.1-3.8 0-1 .2-2.1.1-3.1l-.1-.2.1-1.6v-.2-.7c.2-.7.1-1.5.1-2.2 0-.2-.1-.5.4-.4.4.6.1 1.2.1 1.8v4.6c0 1.7.1 3.4-.1 5.1l-.2 3.8-.3 4.8c0 1.6-.3 3.2-.6 4.8-.3 1.4-.7 2.8-.7 4.2 0 1.3.2 2.6.5 3.9.5 1.8.6 3.7.5 5.6v.5c0 2.9.1 5.7-.1 8.6l-.9-.4z"/><path fill="#adadad" d="M90.3 91.6l.3-7.9.3-6 .4-9.3.3-5.9.4-9.6.3-5.9.4-9.8.1-.3c.2.2.2.5.2.7l-.2 5.9-.1 3.5c-.1 2.7-.3 5.4-.3 8.2 0 1.5-.2 3.1 0 4.2l.5-11.7c.2-4 .2-8 .7-12 .2.3.2.6.1.8v1.7l-.1 1.6-.3 7-.2 4.9-.2 4.2-.1 1.4v1.3l-.1 1.8-.5 11.8-.3 7.6-.5 10.8c-.2.8-.6 1-1.1 1z"/><path fill="#d6d6d6" d="M46.8 24.6c-.3-.3-.3-.6-.3-1l-.1-2.1c-.3.2-.2.5-.2.8v3.2c0 .2.1.4-.3.3l-2.5-.5v-6.1l.1-.6c.1-.1.3 0 .4.1.8.6 1.7 1 2.6 1.5l4 1.9c.2.1.5.1.6.4l.1.2c1.4.5 2.8 1.3 4.2 1.9l.6.4c.2.4.2.7-.2.9-.2.1-.1.2-.1.4 0 .3 0 .5-.4.6-.3-.7-1-1-1.7-1.3l-5.8-2.7c-.2-.1-.6-.4-.8-.1-.2.4.2.6.5.7l4 1.9c.2.1.5.2.6.5-.1.2-.4.3-.6.2-1.3-.4-2.7-.3-3.9-.9l-.4-.1c-.1-.3-.3-.2-.4-.5z"/><path d="M22.3 37.6c.2 0 .4 0 .4.3l.1 1.6.3 7.2.3 6.2.3 8.4.3 6.6c0 1.7 0 3.5.2 5.2l.1 4.1.3 9 .3 8.2c.1 1.3-.1 2.6.2 3.8-.3 0-.6-.2-1-.4.3-.4.2-.8.1-1.2-.2-1.6 0-3.3-.1-4.9L23.8 81l-.1-4.3c-.2-3.3-.2-6.6-.3-10 0-1.5.1-3-.1-4.4-.2-1.5 0-3.1-.2-4.6v-1.4l-.2-5.8-.3-6.9-.3-6z" class="st27"/><path d="M38.7 99.9c.2-.2.1-.5.1-.8v-8.4c-.2-6.4 0-12.8-.1-19.2-.2-6.5 0-13-.1-19.4l-.1-13.2c.5.1.4.6.4.9v6.7c.2 4.5 0 9 .2 13.5l.1 3.1-.1-2.8c0-.3-.1-.7.2-1 .4.2.3.5.3.9v5.3c0 4.6-.2 9.2 0 13.9.3 6.4 0 12.7.2 19.1v1l-1.1.4z" class="st6"/><path fill="#c3c9fc" d="M43.5 34.3c1-.7 2-1.2 2.8-2.1.2-.2.5-.2.7-.3 1.9-1 3.9-1.8 6-2.4.6-.2 1.3-.1 1.9-.5.2-.2.4 0 .6.1l2.5 1.3c.2.1.5.2.4.6-.5.2-1.1.2-1.6.3-3.3.2-6.4 1.4-9.2 3.1-1.2.6-2.4 1.6-3.5 2.6-.2.2-.3.4-.6.3v-3z"/><path d="M93.7 32.4c-.3.3-.8.4-1.2.4-2.6 0-5.2-.3-7.9-.6-2.9-.4-5.8-1-8.6-1.8l-.4-.2-.1-.4c.1-.2.2-.2.4-.2l.5.1c3.9 1.2 8 1.7 12.1 2l2.7.2c-.1-.3-.3-.4-.4-.5l-4.4-2.8c-1.2-.9-2.4-.9-3.8-.8a42 42 0 0 1-5 .3H77c-.4 0-.6-.2-.6-.6 0-.3 0-.7.4-.8a3 3 0 0 1 1-.2c.3.1.5.3.8.2l5.8-.5c.3 0 .6-.1.8 0a70.1 70.1 0 0 1 8.3 5.8l.2.4z" class="st29"/><path fill="#b6b8d1" d="M59.1 61c-.4.8-1.5 1.3-2.5 1-1.2-.3-1.9-1.2-2.5-2.2-1.5-2.7-3-5.4-4.9-7.9-.7-1-1.4-2-2.3-2.9l-.3-.5c-.2-.3 0-.9-.7-.8-.2 0-.5-.5-.7-.8-.2-.4-.6-.6-.8-.9a.8.8 0 0 0-.8-.2v-3.3h.2c.9.8 1.9 1.6 2.6 2.7 0 .9.8 1.3 1.2 1.9 1.8 2.4 3.3 5 4.7 7.6l2.8 5.5c.8 1.4 2.1 1.8 3.5 1 0-.2.2-.4.5-.2z"/><path d="M9.3 13l-2.2.1c-.2 0-.4.1-.6-.1a.6.6 0 0 1 0-.6c.4-.3.5-.7.5-1.2 0-3 .3-5.9.4-8.9 0-.7.3-.9 1.1-.9l.9 1.3c.2.3 0 .6-.1 1 .5-.4.8-.4 1 .3.1.4.5.7.3 1.1-1.2-.3-1.5.5-1.8 1.2-.1.3-.6.6-.2 1.1l.2.3c0 .2.2.3.3.5l.3.7.2 3.1c0 .4.1.8-.3 1z" class="st31"/><path d="M85.2 26.4c-1 .3-2 .3-3 .4l-3.5.3c-.3 0-.9.3-.9-.4-.1 0 0-.4-.3-.2-.3-.2-.1-.5 0-.7-.1-.3-.4-.3-.7-.4-.7-.3-1.4 0-2.1-.2-.4-.4-.7-1.8-.4-2.3.1-.2.3-.3.4-.2.6.3 1.4 0 1.8.7 0 0 0-.2.2-.1 3 .9 5.8 2 8.5 3.1z" class="st17"/><path fill="#939394" d="M39.7 99.3c-.2-.2-.1-.5-.1-.8 0-6 .2-11.9-.1-17.8-.3-7 0-13.9-.2-20.9 0-.2.1-.4-.1-.6-.2-.2-.2-.6-.2-.9V41.4c0-.3-.1-.7.3-.9.6.6.4 1.4.3 2l-.1 2.9v6.5c0 .2-.1.4.1.6.2 8.8.1 17.5.2 26.3l.1 19.6c0 .4.1.7-.2.9z"/><path d="M93.6 36.7V36c-.2.8-.1 1.6-.2 2.3l-.2 4.1c-.1 3.2-.4 6.4-.4 9.5l-.3 5.4-.1 2.7c0 .2 0 .4-.2.4s-.1-.2-.1-.4c-.3-2.3 0-4.7 0-7l.3-6.1.3-6.3.1-3.8v-2.9h.3l.1.1c.9-.2.8.4.7.9-.2.7-.1 1.3-.3 1.8z" class="st33"/><path fill="#8a8a8b" d="M76.9 23.2c-.2.2.1.5-.2.7-.2-.2.1-.7-.3-.8l-.8-.1h-.1c-.9-.3-.9-.3-1 .8 0 .5-.1.9.4 1.2-.2.2-.5.3-.8.2a.2.2 0 0 1-.2-.2c.2-.6 0-1.2 0-1.8v-1.3h.1l.1.2.1-.2v-2.2c0-.3-.1-.6.2-.8.8 0 1.6-.3 2.4-.1l-.1 3.6c0 .4 0 .6.2.8z"/><path fill="#929293" d="M8.6 1.5c-.9 0-1 0-1 1-.1 3.1-.4 6.2-.4 9.3 0 .5-.3.6-.6.7-.3-.4-.2-.8-.2-1.2l.1-3.8c.2-1.9.1-3.9.3-5.8 0-.2 0-.4.2-.5l.6-.4 5.3-.2c.5 0 .6.3.4 1.1l-.1-.1c.1-.5-.2-.1-.2-.1h-2.2c-.7.2-1.5.4-2.2 0z"/><path d="M59.5 17.2c-.4.2-.7.3-1.1.3l-8.6.5c-.6 0-1.2-.1-1.7.1-.2.2-.4.2-.6.2l-3.3-.5-.6-.3c.3-.3.7-.2 1.1-.3 4.8-.2 9.6-.2 14.4-.1l.4.1z" class="st27"/><path d="M17.1 19.9c-.7 0-1.5.4-2.2-.1-.6.6-1.3-.2-1.9.2-.4.2-.8-.2-1.2.2.3.1.6 0 .8.2.2.2.2.5 0 .7-.2.2-.5.2-.7 0-.4-.5-.7-.3-1.1 0-.6.5-1.3.3-1.5-.4.1-.3.5-.2.6-.5-.1-.1-.3-.2-.3-.4.3-2 .2-4 .2-6.1l-.1-4.2.1-.9c.6-.2.6.2.6.5v10.1c0 .4.2.5.5.5l.7-.1c-.4-.5-.6-1.1-.4-1.7.3-.2.4 0 .4.2.1.3.3.7.3 1.1 0 .4.2.5.6.5a26.8 26.8 0 0 1 4.6.2z" class="st36"/><path fill="#464647" d="M76.8 19l-2.4.1c-.2.1-.3 0-.3-.2 0-2.2-.5-4.4-.7-6.6l-.9-7.4c0-.2-.1-.4.1-.6.1-.3.3-.4.5-.5.2.2.2.5 0 .7 0 1.5.3 3 .5 4.5l.6 5 .5 3.7c0 .3.2.6-.1 1-.2.3.1.3.4.3 2 0 4-.5 6-.5-.8.5-1.7.3-2.6.4a8 8 0 0 0-1.6.1z"/><path fill="#cccffa" d="M39.6 38.2l.1-.5 1 .9c.9.9 1 2 .3 3.1-.3.5-.7.9-1.2 1.2-.2.1-.3 0-.3-.2 0-1.4-.2-2.7-.1-4.1l.2-.4z"/><path fill="#c5c5c6" d="M72.5 4.3l1.1 8.5a668.2 668.2 0 0 1 .6 6.2c-.1.1.1.1.2.2 0 1.3.1 2.5-.2 3.9-.2-.4-.1-.7-.2-1 .2-3.1-.4-6.2-.8-9.3l-.9-7.5c0-.3-.2-.7.2-1z"/><path fill="#a2a3ba" d="M11.9 19.1l-.6-1.3c-.3-.4-.2-.9-.2-1.3l-.3-4.2V9c-.1-.5.3-.7.8-.6.3.3.2.6.2 1v2.2c0 .4.2.8-.1 1.2-.2.5-.1.9 0 1.4l.2 4.9z"/><path d="M9.8 8.7c.2.5.1 1.1.1 1.7l.1 7.1c0 .8-.4 1.6-.3 2.5-.1.1-.3 0-.4 0-.4-.3-.9 0-1.3-.4l.6-.1c.9 0 1 .2.9-1-.2-1.9 0-3.7-.2-5.6.2-.6.1-1.1.1-1.7l-.1-2.6c-.1-.1 0-.1 0-.2.2 0 .4.1.5.3z" class="st41"/><path d="M43.5 17.5l4.5.7.5.4-.4.1c-.9-.2-.9-.2-1 .8-.1.4-.2.7-.7.8l-2.8-1.7c-.2-.4-.1-.8-.1-1.1z" class="st42"/><path fill="#c0c1c1" d="M73.1 4.5v-.7l.3-.1 5.5-.2c.5 0 .8.3.7.8l-5.7.2c-.3-.1-.5.3-.8 0z"/><path d="M8 19.6c.4.1.9-.1 1.4.1-.3.4-.8.5-1.3.5L4.4 20c-.3 0-.6 0-.7.4-.4.6-.9.6-1.5.4l-.9-.2c-.8-.3-.8-.3-.8.5-.4-1-.2-1.3.9-1.3l6.6-.2z" class="st36"/><path fill="#c9c9c9" d="M7 1.1l-.4 9.4-.1 1.9v.5c-.4-.6-.4-1.3-.3-2l.2-3.2.3-7 .1-.4c.2 0 .1.2.2.3-.1.3-.2.4 0 .5z"/><path fill="#686975" d="M13 1.5l.4-.3.1.6-.5 8.4c0 .7 0 1.5-.2 2.2-.4-.2-.5-.4-.5-.8.1-.6-.1-1.2.1-1.8a45.9 45.9 0 0 0 .3-4.7l.2-2.9a.6.6 0 0 1 .1-.7z"/><path fill="#52e7fc" d="M43.5 37.4a21.3 21.3 0 0 1 15.2-6.5c-.2.4-.6.2-.9.4h-.3c-2.5.1-4.8.7-7.1 1.7a23.7 23.7 0 0 0-6.5 4.5l-.5.6c-.8.7-1.1 1.6-.9 2.6l-.1.4c-.6-.9-.5-1.8.2-2.7l.9-1z"/><path fill="#c4cdfc" d="M42.4 41.1c-.3-1.2-.1-2.3.9-3.1.4-.2.4.1.5.4v1.2c-.2.8 0 1.7 0 2.5v.2h-.3l-1.1-1.2z"/><path fill="#a8e9fc" d="M43.5 42.3h.3c.3 0 .6.3.8.5l3.1 3.2c1.6 1.7 3 3.6 4.4 5.5l1.9 2.7.3.6-.2.2c-.4-.1-.6-.5-.8-.9a64 64 0 0 0-5.9-7.6c-.4-.5-.9-.8-1.1-1.4l-2.6-2.7-.2-.1z"/><path fill="#8a8a8a" d="M70.7 85.1v2.7l-1.3-.8c.3-.6.1-1.2.2-1.8.1-.6.2-.6.7-.3l.4.2z"/><path fill="#838cf0" d="M39.6 38.2v4c0 .2-.1.5.2.6-.2.3-.2.6-.2.9v8.9c-.2-.2-.1-.4-.1-.6V41.6l-.1-1c-.4-.7-.2-1.5 0-2.2l.2-.2z"/><path fill="#313342" d="M12.4 10v1.9c0 .2.3.3.3.5-.2.5-.7.1-1 .3.1-.4-.2-.7 0-1.1V9.9c0-.3.1-.5.3-.4.3.1.6.2.4.5z"/><path d="M6.9.7L6.7.4c.1-.2.4-.2.6-.2l5.2-.2c.2 0 .5-.1.6.3l-2.4.1-3.3.1c-.2.1-.4 0-.5.2z" class="st42"/><path d="M2.1 62.8c.3.7.1 1.4.1 2.1-.2-.6-.1-1.4-.1-2.1z" class="st1"/><path d="M46 66.2l.3-.6c.1.4.2.6 0 .9l-.3-.3z" class="st6"/><path d="M92.6 60.6c0-.6-.1-1.2.1-1.8 0 .6.1 1.2-.1 1.8zM93.5 40.1c0-.5-.1-1.1.1-1.6 0 .5.1 1-.1 1.6zM92.7 57.5c0-.5-.1-.9.1-1.4 0 .5.1 1-.1 1.4z" class="st33"/><path fill="#bdbdbd" d="M37.4 38.8c.1 2-.4 3.9-.6 5.8l-.4 3.6c-.1 1.6-.4 3.1-.7 4.7l-.4 2.3-.6 2.2-.4 1.3c-.1.7-.2 1.5-.5 2-.4.8-.2 1.8-.9 2.5-.2.1-.2.4-.2.6 0 .2 0 .4-.2.5-.7.2-.7.9-.9 1.4-.1.3-.2.5-.5.4-.3-.2-.9.5-1-.4l-.1-.2c-.5-.2-.7-.4 0-.6l.1-.2c0-.1-.1-.2-.3-.2-.6 0-.8-.3-1-.9-.1-.4-.1-1-.6-1.3l-.1-.2c-.1-1.4-.8-2.7-1.1-4.1-.5-2.5-1.3-5-1.6-7.5l-.6-4.5-.6-5.7-.2-2.6c.4-.3.9-.1 1.3 0 2.2.3 4.5.5 6.7.6l4.7.1c.2.3.5.2.7.4z"/><path fill="#2c2c2c" d="M39.5 38.2v.1c-.4.4-.8.4-1.3.4h-.6H34a73 73 0 0 1-9.3-.8l-1-.1h-.3c-.1-.4-.4-.2-.7-.3l-3.5-.9-1.2-.3-.2-.4c.3-.5.2-1 .2-1.5 0-.7.2-.8.9-.6 2.6 1.2 5.2 1.9 8 2.5 2.1.4 4.3.7 6.4.9l3.9.3c.7 0 1.5 0 2.2-.4l.1 1.1z"/><path fill="#e0e0e0" d="M37 38.7h.4v.1l-6.6-.1c-2.2-.2-4.4-.4-6.6-.8h-.3l-.3-.1c1.4-.1 2.8.3 4.2.4 2 .2 4 .4 6 .4 1.1.1 2.2-.1 3.2.1z"/><path fill="#f6f6f6" d="M5 30.6l-2.5-2.3-.7-.6.1-.2 4.2 3.7c.8.3 1.4 1 2 1.6l6.2 5.6a36 36 0 0 1 2.1 1.9l1.4 1c.1.1.2.2.1.3h-.3c-.7-.4-1.4-.8-2-1.5l-8.7-7.8c-.5-.5-1.1-1.3-1.9-1.7z"/><path d="M70 48.7a2 2 0 0 1-.2-1.8c0-.1 0-.3-.2-.3-.1-.2-.2-.4-.1-.7.1-.1.1-.3-.1-.3-.2-.1-.2.1-.3.2-.1.4-.4.8-.8 1l-.2.2c0 .9-.8 1.3-1.4 1.8a5 5 0 0 0-.8 1.2c-.4.7-.8 1.2-1.5 1.6-.2-.3-.1-.5.1-.7.3-.2.4-.6.6-.9l.7-1c.4-.3.6-.7.6-1.3 0-.3.1-.8.5-.9.3-.1.2-.3.1-.6 0-.2-.1-.5 0-.8.1-.6-.2-.9-.8-.9-.4 0-.8.1-.9-.4-.3.4-.7.7-.7 1.2l-.2.3c-.9.7-1.3 1.9-1.8 2.9v.2c-.4.8-.7 1.6-1.2 2.3l-.6 1c-.1.2-.2.4-.5.2 0-.8.3-1.5.6-2.1.9-1.9 1.9-3.8 2.6-5.8.2-.6.7-1 .6-1.7 0-.3-.1-.5-.4-.6-.6-.3-1.1-.3-1.7.1-.3.2-.7.1-1 .2-.9.1-1 .2-1.1 1.1l-.1 2.5v.1c0 .2 0 .6-.3.6s-.3-.3-.3-.6v-.9l.1-2.7.1-.5c0 .5-.3.9-.8 1.1-.3.1-.4.4-.5.7-.1.2-.1.5-.4.1v-5.6-2.9-2.2c0-.3.3-.4.5-.6.5-.3 1.2-.5 1.4-1.2l.4-.1c2.9 1.3 5.7 2.8 8.5 4.2.2.1.4.2.4.4.1.3-.1.5-.2.7a3 3 0 0 0-.3 1.3c0 .3-.1.5-.4.7.6 0 .8.3.9.8.1.4.1.7.6.8l.2.3c.4 1.3.3 2.6.5 4 .1.7-.1 1.5.3 2.2v1.3c-.2.3-.2.6-.5.8z" class="st56"/><path fill="#acb1f9" d="M60.3 52.2c.5-.9 1.2-1.5 1.4-2.6.1-.4.7-.5.6-1 .3-.1.3-.6.6-.5.6.3 1.5.2 1.8 1 .1.1 0 .3-.1.4-.4.9-1.1 1.8-1.2 2.8 0 .2-.2.3-.3.4-1 1-1.6 2.3-2.5 3.3l-.5.5c0 .2-.1.4-.3.5l-.3.6c-.3.4-.6.9-.6 1.5 0 1.1-.6 1.7-1.4 1.9-1 .2-1.8-.3-2.3-1.2-1.2-2.2-2-4.6-3.4-6.7a62.5 62.5 0 0 0-4.4-6.1c-.3-.3-.3-.4-.1-.7a61 61 0 0 1 5.1 6.3l1.6 2.2c.6.4.8 1 1.1 1.5l1.7 2.9.4.5.1-.1.4-.6c.1 0 0-.1 0 0-.1.3-.3.2-.4 0v-2c.9-.2 1-1 1.4-1.7.5-1 .9-2.1 1.6-3.1z"/><path fill="#adaedb" d="M60 56.6c.5-.7 1.2-1.3 1.5-2.1.4-.8 1-1.4 1.5-2.1.3-.4.3-.8.4-1.1.2-.7.8-1.3 1-2 0-.1.3-.2 0-.3-.3-.1-.2-.8-.8-.7l-.2.1c-.4-.3-.8-.3-1.2 0-.1-.6.4-1 .6-1.5l.8-1.4.1-.2c.9-.2.7-1.4 1.5-1.7.1.5.5.6 1.1.5.4-.1.7.5 1.2.5-.4.5-.5 1-.1 1.5.2.3.3.6-.2.7-.5.1-.5.7-.4.8.2.7-.3 1-.7 1.4l-.6.8c-.2.4-.2.9-.7 1-.2.1-.1.4-.1.6a4 4 0 0 0-.9 1c-.9 1.4-2.4 2.3-3.1 3.8-.3.4-.5.3-.7.4z"/><path fill="#b0b2d6" d="M47.4 46.4c-.2.2 0 .4.1.5 1.3 1.4 2.4 3 3.5 4.5s2 3.1 2.7 4.8a19.1 19.1 0 0 0 2.3 4.2c.6.6 1.3.5 2 .3.7-.3.9-1 .9-1.6 0-.7.2-1.3.8-1.8l.2-.3c-.1.6-.2 1.2 0 1.9.2.8-.3 1.4-.7 2-.7.3-1.2.9-2.1.8-.9-.1-1.6-.5-2-1.2l-1.9-3.7a68.6 68.6 0 0 0-6.1-10.2c-.4-.5-.8-.8-.8-1.5l1.1 1.3z"/><path fill="#393939" d="M68.6 73.6c.3.4.3.8.2 1.3-1-.6-1.8-1.5-2.8-2.1-1.1-1.1-2.3-1.9-3.5-2.9l-1.8-1.5c-.2-.1-.3-.2-.4-.5-.1-.2-.2-.5 0-.7.2-.2.4.1.5.3l7.8 6.1z"/><path fill="#414141" d="M54.2 62.8s.1.1-.1.2c-.1.1-.2 0-.3-.1L47.7 58a.5.5 0 0 1-.3-.5l.1-.4c.1-.1.3 0 .4.1l5.9 4.7c.2.2.4.5.4.9z"/><path fill="#f3f4f8" d="M65.5 75.3h-.1l-2.2-1.9c-.1-.1-.2-.3 0-.4.1-.2.3-.2.5-.1.5.4 1.1.7 1.4 1.3.2.4.7.7.4 1.1z"/><path fill="#f3f4f6" d="M51.6 63.8c-.7-.3-1.2-.8-1.7-1.2-.2-.1-.3-.3-.1-.6.2-.2.4-.1.6 0l1 .8c.3.3 0 .7.2 1z"/><path fill="#eaebee" d="M50 63.6c.4.2.7.5 1 .9l.1.2c.2.1.6 0 .3.4.1.1.3.2.1.4-.2.2-.3-.1-.4-.2l-1.4-1.1c-.1-.1-.2-.2-.1-.4l.4-.2z"/><path fill="#3e3e3e" d="M57.7 65.5c0 .2.1.4-.1.5-.2.1-.3-.2-.5-.3-.5-.4-.4-.9-.3-1.4 0-.3.2-.1.3-.1.4.4.7.8.6 1.3z"/><path fill="#fafafa" d="M64.7 78.7l-1.4-1.2c-.2-.1-.5-.3-.2-.6.2-.3.5-.1.7.1l.2.2c.2.4.6.5.8.8.3.3.4.6-.1.7z"/><path d="M64.4 76.5l-1-.9c-.2-.2-.6-.2-.3-.6.2-.4.5-.2.7 0l.2.2c.2.4.5.6.8.8.2.1.4.3.2.6s-.4.1-.6-.1zM51.4 67.3l-.1-.1c-.6-.3-1-.8-1.5-1.2-.2-.1-.2-.3 0-.5.1-.1.3-.2.4-.1.7.4.9 1.2 1.4 1.7 0 0 0 .2-.2.2z" class="st67"/><path fill="#cacbda" d="M64.4 76.5c.2 0 .4.3.5 0 .2-.3-.2-.4-.3-.5-.2-.3-.7-.4-.6-.8l1.6 1.3c-.1.3.2.6-.2.8-.2.1-.3-.1-.5-.2-.1-.2-.4-.3-.5-.6z"/><path fill="#cccdd7" d="M64.7 78.7c.5-.3.1-.5-.1-.7-.3-.2-.6-.4-.6-.8l.8.5c.2.3.5.5.6.8.1.2.3.5 0 .7-.4.2-.4-.2-.6-.3l-.1-.2z"/><path d="M53.5 70.3l2.7 2.3.5.6c-.9-.5-1.5-1.2-2.3-1.9-.6-.5-1.3-.9-1.7-1.6.4.1.5.5.8.6zM51.7 69c-.6-.3-.9-.8-1.4-1.1-.2-.3-.6-.3-.7-.8.8.5 1.5 1.2 2.2 1.9h-.1z" class="st70"/><path fill="#f0f0f0" d="M47.6 65.4c-.5-.2-.8-.7-1.1-1 .5.1.8.6 1.1 1z"/><path d="M48.7 66.3c-.4-.3-.9-.5-1.1-.9l1 .8c.1 0 .2 0 .1.1z" class="st72"/><path d="M48.7 66.3v-.2c.4.2.7.6 1 .9-.4-.1-.9-.2-1-.7zM51.7 69h.2l.8.8c-.4-.1-.7-.5-1-.8z" class="st72"/><path d="M81 71c-.1 0-.2.3-.3 0-.2-.5-.3-1-.1-1.4.4-.9-.1-1.6-.1-2.4-.1-1.4-.6-2.7-.8-4.2-.3-1.9-.4-3.8-.5-5.7l-.4-5.9-.3-2.1-.1-.2c-.7-.4-.5-1.1-.5-1.7-.2-2.4-.2-4.9-.3-7.3l-.1-3.8-.1-3c.6-.1.8 0 .8.6l.3 2.3c0 .2 0 .5.2.6.5.2.6.7.7 1.1l.5 3.1c.1 1.1.6 2.2 1.2 3.2.2.4.6.5 1.1.6.3 0 .8-.1.7.6 0 .2.1.1.2.1l.5-.4c.2-.3.5-.6.9-.7l.3-.2c.4-.7 1.1-1.2 1.4-1.9.9-2.1 1.7-4.3 2-6.7l.2-.8c.3-.6.5-.7 1.2-.5.4.6.1 1.3 0 1.9l-.8 6.6-1 6-.3 1.9c-.1 1-.5 2-.7 3-.2.5-.1 1 .5 1.1l.1.2c-.3.3-.8.1-1.1.3-.9.3-1.8.4-2.7.9a4 4 0 0 0-2.1 3.3v2.7l-.1 1.1c-.2.9-.1 1.8-.1 2.8l-.1 1.2c-.2.8-.1 1.6-.1 2.4 0 .5.2.9-.1 1.3z" class="st41"/><path fill="#c5c5c5" d="M89.5 34.3c-.7 0-1 .3-1.1 1-.1 1.4-.5 2.7-.9 4-.3 1-.8 1.9-1 2.9l-.2.3c-.3.6-.8 1.1-1.2 1.6-.5.6-1.3 1-2 1.5-.2.1-.5.1-.6-.1-.2-.3.3-.3.3-.5l-.7-.2c-.6.2-1.1-.3-1.3-.8-.5-1.1-1-2.1-1.1-3.4-.1-1.1-.3-2.3-.6-3.4L79 37c-1-.2-.6-1.1-.8-1.7l-.2-1.5c0-.4-.2-.7-.7-.6H77c.1-.4.4-.1.6-.2 4.2.6 8.4.7 12.6 1.1l-.1.1h-.4c0 .2-.1.2-.2.1z"/><path d="M81.1 67.4v-1.2c.2-.9 0-1.9.1-2.8v-1c.2-.9-.1-1.9.1-2.8.1-2.2 1.5-3.2 3.3-3.9l1.5-.4h1.3v.1c.2.4.1.8 0 1.2-.2.7.1 1.5-.2 2.1 0 .4-.3.9 0 1.3-.2.6 0 1.3-.1 1.9v.9c-.2.8 0 1.6-.1 2.4v1l-.1 1.5c-.6 3-3.7 3.7-5.7 3.5-.2 0-.2-.1-.2-.2v-1.2c.1-.8-.1-1.6.1-2.4z" class="st74"/><path d="M89.5 34.3h.3c.3.7 0 1.4-.1 2.1 0 1.2-.2 2.3-.4 3.5l-.6 5-.3 3c-.2 2-.4 3.9-.8 5.9-.1.4.1.9-.2 1.3-.1.1-.1.1-.1 0l-.4-.1c-.4-.1-.6-.3-.5-.9.5-1.6.8-3.3 1.1-4.9l.9-5.7.6-4.8c.1-1.2.4-2.3.4-3.5l.1-.9zM87.5 56.5v-1.2c.1.1.3.2.2.3-.2 1 0 2-.2 2.9v-2z" class="st75"/><path d="M87.1 65.2c0-.8-.1-1.6.1-2.4 0 .8.1 1.6-.1 2.4zM87.5 56.5v2l-.1.1a5 5 0 0 1 .1-2.1zM87.2 61.9c0-.6-.1-1.3.1-1.9 0 .6.2 1.3-.1 1.9z" class="st14"/><path d="M77.7 33.1c-.2.1-.4 0-.6.2l-.4-.1-.5-.1c-.1 0-.2 0-.2-.2l1.7.2z" class="st41"/><path d="M87 67.8l.1-1.5c0 .5.1 1-.1 1.5zM87.3 55.1h.1v.2h-1.3c.4-.3.9-.2 1.2-.2z" class="st14"/><path d="M18.5 51.6c.2 2 0 4 .2 6 .2 2.2 0 4.4.1 6.6l.1 4.8c.2 1.7 0 3.3.1 5 .2 2.2 0 4.4.1 6.6l.1 5.2c.2 1.8 0 3.5.1 5.3l.1.7c.1.2.2.5-.2.6-.7-.8-1.6-1.5-2-2.5 0-.1-.2-.2-.1-.3.2 0 .3.2.4.4.1.1.2.3.4.2.2 0 .1-.3.2-.4.1-.4-.1-.7-.1-1v-6.5c.3-6.6.1-13.1.1-19.7 0-1.4-.2-2.8-.1-4.2v-3.8c0-.8.3-1.6 0-2.4 0-.2 0-.5.5-.6z" class="st15"/><path d="M17.1 89.6c.5.9 1.1 1.7 1.9 2.4.1.1.3.2.2.4l-.2-.1c-2-2-3.2-4.5-4.9-6.8l-2.4-3.6c0-.1 0-.2.2-.1l3.5 5.3 1.7 2.5z" class="st76"/><path d="M18 41.6l-.1-.3c-.1-1.4.2-2.7 0-4.1l.1-.7c.1-.2.3-.4.5 0 0 2.3.1 4.5-.1 6.8-.3-.3-.1-.7-.1-1-.2-.2 0-.5-.3-.7z" class="st15"/><path d="M11.9 81.7l-.2.1-3.3-4.9.2-.1 3.3 4.9z" class="st1"/><path fill="#ececed" d="M8.6 76.8l-.2.1-3.8-5.7c0-.1.1-.2.2-.1l3.8 5.7z"/><path d="M4.9 71.1l-.2.1a4 4 0 0 1-1-1.9l1.2 1.8z" class="st1"/><path d="M18.3 47.5c.3.6.1 1.2.1 1.9-.3-.6-.5-1.3-.1-1.9z" class="st15"/><path d="M9.4 70.2c.2 0 .2.1.3.2 0 .2-.1.3-.3.3-.2 0-.2-.1-.2-.3-.1-.2 0-.2.2-.2z" class="st1"/><path d="M18.5 49.6v1.1c-.6-.4-.3-.7 0-1.1z" class="st15"/><path d="M71.5 56.3l-.1 2.5-.2 9.2c0 1.8 0 3.5-.2 5.3V75l-.2 9.5c0 .2.1.4-.1.6 0-.6-.5-.6-.9-.8-.3-.2-.5-.4-.4-.8l.1-2.6c.1-3.5.3-7 .1-10.5l-.4-4.6.2-3.2v-2.5c-.1-1.8-.4-3.7-.1-5.6.2-1 .2-2.1.3-3.1 0-.2-.1-.5.1-.6h.3c.3 1 .2 2 .2 2.9 0 1.1 0 2.3.3 3.4l.5-.8h.5z" class="st78"/><path fill="#8894f9" d="M71.2 56.3c.1.4-.3.6-.3 1l-.2.2-.2-.3c-.3-1.7-.3-3.5-.3-5.2v-1.2l-.1-1.6c-.2-.1 0-.3 0-.4v-1.3c-.1-.3.1-.6.1-.8-.3-1.2-.2-2.5-.2-3.7l-.1-2.6.2-1.2c.5-.1.4.3.5.5l.2 2.2c.1.3.4.6.3 1 .1.8.1 1.6.4 2.4.2.4.2.8.3 1.3.1 1.6-.1 3.2-.1 4.8v3.1l-.1.5c-.3.3-.1.8-.4 1.3z"/><path d="M56.7 73.2c.8.4 1.4 1.1 2.1 1.7l5.8 5 .2.2c0 .1-.1.1-.2 0l-6.5-5.6c-.5-.4-1.1-.7-1.4-1.3z" class="st70"/><path fill="#ebebeb" d="M65.8 81l2.9 2.5-.1.1-2.9-2.6h.1z"/><path d="M70 49.1c.3.5.2 1.1.1 1.6h-.3c.3-.5-.1-1.1.2-1.6z" class="st56"/><path d="M65.8 81l-.1.1-1.1-.9h.2c.4.1.6.5 1 .8z" class="st76"/><path fill="#707070" d="M16.3 31.6c-.4.3-.6-.1-.9-.3l-6.7-5.2C8 25.4 7 24.9 6.3 24c.6 0 1.1.1 1.6-.3.7-.4.9-.8.7-1.6-.1-.2-.2-.5.1-.7 1 0 1.1.1 1.3 1 .2.9-.1 1.8-.4 2.7-.2.5-.1.9.3 1.3l2.5 2c0-.8-.1-1.4-.3-2.1l-.5-3.1.1-1.4c.1-.6.6-.8 1.2-.4v.1c-.4.5-.9.9-.4 1.6.3.5.3 1.2.9 1.6l.1.2c-.4.5-.4.5.2.7.2.1.5 0 .7.3.2 1.3.7 2.4 1.4 3.5.3.4.4.9.5 1.4.2.9.8.9 1.4.9-.4.1-.9-.1-1.4-.1z"/><path d="M13 21.4c-.8-.2-.9-.1-1.1.8-.2 1.3.1 2.4.4 3.6l.4 2.4-.1.4c-.1.1-.2 0-.3-.1l-2.8-2.3c-.3-.3-.2-.5-.1-.8.3-1 .6-1.9.4-3-.1-.5-.2-.8-.8-.8l-.3-.1c-.5-.4-.4-.7.2-1.1l.3.1c0 .4.4.6.7.6.4.1.5-.1.7-.4.2-.4 1.1-.3 1.2.1.1.3.3.2.5.1.3-.1.2-.4.1-.6.1-.2.3-.3.5-.2l.1 1.3z" class="st21"/><path fill="#a6b6a5" d="M14.4 25.8c-.3 0-.7 0-1-.2-.2-.1-.6-.1-.6-.4 0-.3.3-.3.6-.4 1.7-.5 3.5-.4 5.2-.4.7 0 1.4.2 2.1.4.1 0 .3.1.3.3 0 .2-.2.2-.3.3-1 .4-2 .5-3 .5s-2.1.1-3.3-.1z"/><path fill="#dfdfdf" d="M13 20.3l-.5.2h-.4c-.2-.1-.6.2-.5-.2 0-.3.4-.5.6-.4l.8.2v.2z"/><path d="M2.4 39.1c-.2-.3-.2-.5-.1-.7.2.2.1.4.1.7z" class="st1"/><path fill="#404040" d="M19 33.8c-.6-.1-.7.2-.7.7 0 .5.3 1.2-.4 1.6-.6.1-1.2-.3-1.5-.8.3-.7.1-1.3.1-2 0-.4.1-.7.5-.6l2 1.1z"/><path d="M18.5 36.6c-.4-.2-.4 0-.4.3 0 .7.2 1.4.1 2.2 0 .3.1.7-.2.9-.1.1 0 .3.1.4.2.4.2.7-.2 1l-1.5-.9c.6-1.1.5-2.3.6-3.4 0-.3-.1-.7.1-1 .4-.2.7.3 1 .2l1.1.4c-.2.2-.5-.2-.7-.1z" class="st1"/><path fill="#7278c8" d="M76 32.8l.2.2c-.3.5.1 1.1-.1 1.6-.1 1 0 2.1-.3 3.1-.1.4.2.8.1 1.2-.1.1.2.3 0 .4-.1 1.7-.6 3.3-.6 5l-.1.5-.3.6c-.1.3-.3.3-.5.2-.3-.5-.3-1.1-.3-1.7 0-.2.5-.4.2-.7l.1-1.7c0-.7.1-1.5.4-2.2l.1-1c.2-1.2.2-2.5.3-3.7v-.3c.3-.9.3-.9-.5-1.4l-.1-.2c.5-.2 1 0 1.4.1z"/><path d="M75.2 44.3c-.4-.3-.2-.7-.1-1 .1-.7 0-1.5.3-2 .4-.7-.1-1.5.5-2.1.3.5-.2 1 0 1.5v1.2c-.4 0-.2.3-.2.5 0 .7.1 1.5-.2 2.2-.2 0-.2-.2-.3-.3zM75.9 38.8c-.3-.5-.3-1-.2-1.7.2-.7.3-1.6.1-2.4l.1-.2.1.3-.1 3.8c.1.1 0 .2 0 .2z" class="st86"/><path fill="#4a4a4a" d="M46.4 20.2c.3-.2.5-.5.5-.9 0-.9.3-1.1 1.1-.8l.4.1L54 21c1.1.4 2.1 1 3.2 1.3 1 .6 2.1 1 3.2 1.5l6.3 2.7 3 1.3c.3.3.8.1.9.7-.3 0-.4.1-.4.4-.1.5-.2.9-.1 1.4 0 .3-.1.6-.3.8-.2.2-.4 0-.6 0l-7.5-3.5a130 130 0 0 1-5.4-2.5l-4.9-2.3c-.2-.1-.4-.1-.5-.4l-4.5-2.2z"/><path fill="#a2b0a2" d="M63.4 21.4h2.5c1.1 0 2.2.1 3.3.6-.2.4-.5.4-.8.5a14 14 0 0 1-5.4.1c-.4-.1-.9 0-1.4-.2-.5-.3-.3-.4 0-.6a4 4 0 0 1 1.8-.4z"/><path fill="#b7b7b8" d="M38.2 38.7l1.3-.4c-.2.7-.1 1.5-.1 2.3-.2.2-.1.5-.1.7v22.4c-.4-.4-.3-.9-.4-1.4-.2-4.3-.1-8.6-.2-12.9l-.1-9.8c0-.2.1-.5-.1-.7l-.3-.2z"/><path d="M70.8 28.5c-.3-.3-.7-.3-.9-.7l2.5-.3c.8-.1.8-.1.6-.8l1.8.1c.2 0 .5 0 .5.3.1.3-.2.4-.4.4-.4.1-.5.4-.6.8l-.8.4 1.1.5c.3.1.6.2.5.6-.1.4-.4.4-.7.2-1.3-.6-2.5-.9-3.6-1.5z" class="st29"/><path fill="#464646" d="M74.2 28.3c0-.5 0-1 .8-.9.1 0 .3-.1.2-.2l-.3-.1H74c-.5.2-.8 0-1.1-.3-.1-.3.4-.5.1-.8.2-.2.5-.1.7 0 .6.9 1.1 1 2 .3.2-.1.4-.2.5 0 .3.4.8.3 1.2.3l.2-.1.1.4-.6.2c-.5.1-.7.3-.6.8.1.6.5.3.7.4h.3c0 .3-.3.3-.4.3l-2.6.1-.3-.4z"/><path fill="#ececec" d="M73.8 26l-.7-.1c-.1-.1-.4-.1-.3-.4 0-.2.2-.2.4-.2l.7-.2.1.1c.4.1.7.3.5.7-.2.4-.5.3-.7.1z"/><path d="M65.9 21.4h-2c.7-.2 1.3-.2 2 0z" class="st16"/><path fill="#f3f5f7" d="M58.7 30.9h-.2c-1.1-.8-2.4-1.3-3.6-1.8-1.1-.7-2.2-1.2-3.3-1.7L46.8 25c-.1 0-.3 0-.2-.2h.2l.4.2 2 .8 6.7 3.3 3 1.5.5.3c.1.1.2.1.1.3l-.3.1-.5-.4z"/><path fill="#8589b6" d="M51 28.9c-.2 0-.3 0-.3-.3 0-.4.4-.3.6-.5.1-.1.2.1.2.2 0 .3-.2.5-.5.6z"/><path fill="#c2c2c2" d="M17.3 36c.1 1.3-.1 2.5-.3 3.8 0 .4-.3.4-.5.6l-3.8-3.3-6.5-5.9c.2-.2.4 0 .5 0a6 6 0 0 0 3.5.1l.2-.1c.4-.9.8-.1 1 .1l2 1.7c.4 0 .6.4.9.6.9.8 1.8 1.6 2.8 2.2l.2.2z"/><path fill="#e9e9e9" d="M17.3 36c-1.4-.8-2.5-2-3.7-2.9l.1-.1 2.8 2.3c.4.4.9.6 1.5.8l.3.2c-.5.2-.7-.3-1-.3z"/><path d="M79.2 7.4l.5 4.1v.7c-.1.3-.2.6-.1.9l.1.6-.2.3c-.2 0-.3-.1-.3-.3 0-.2-.1-.3-.3-.3l-1.1.1c.5.2.9-.1 1.3.1.3.2.2.6.1.9-.1.4-.4.2-.6 0-.1.8-.5 1-1.3.8-.5-.1-.5-.4-.5-.7 0-.3-.2-.3-.4-.3-.3-.1-.7.2-1-.2-.2-.3-.1-.6-.1-1 0-.2-.1-.4-.3-.5-.3-1.7-.6-3.4-.7-5.2.7-.1 1 .1 1.1.8.1.6-.1 1.2-.2 1.7 0 .1 0 .2.1.1.3.2.2.5.2.8.1.5.1 1.1.7 1.3h.2c.4 0 .7-.1 1 .2.2.2.9-.3 1.1-.7.3-.5.3-1.1.3-1.7.1-.3-.1-.5-.2-.7-.3-.4-.4-.9-.5-1.4-.1-.4.1-.5.4-.7.3-.1.6-.1.7.3z" class="st96"/><path fill="#080c45" d="M79.2 7.4c-.3-.4-.6-.1-.9.1-.3.1 0 .4 0 .6 0 .6.3 1 .6 1.5.1.2.2.3 0 .5-.3 0-.4-.2-.5-.3l-.7-.5c-1-.6-1.5-.4-2.1.6l-.3.4c-.2.1-.1.4-.2.5-.4-.7 0-1.3.1-2 0-.8-.2-1.1-1-1.2-.1-.8-.1-1.1 1.1-1 .9 0 1.8-.2 2.7-.1.2 0 .4-.1.6.1 0 .2.3.1.4.3.1-.1.2.2.2.5z"/><path fill="#070c39" d="M79.3 13.6c0 .1.1.4.2.1.1-.2.1-.5-.1-.8-.3-.4-.1-.6.3-.8l.4 3.1c0 .4-.1.5-.5.5-1.2 0-2.4.2-3.6.1-.4 0-.7-.2-.7-.6l-.3-2.8c.7-.1.5.5.5.8 0 .5 0 .7.6.7.8-.1.9 0 1 1 .1.2.4-.6.5.1 0 .1.5.2.5 0 .2-.6.3-.1.4.1 0-.3.2-.5.1-.7-.1-.1-.2-.3 0-.4.2-.1.2.1.3.2.1.1.1.2.3.2-.2-.3 0-.6 0-.9l.1.1z"/><path fill="#8f8081" d="M78 17.3c-.4.1-.6.1-.6-.3 0-.3.3-.2.5-.3.2-.1.5 0 .5.3 0 .5-.3.3-.4.3z"/><path fill="#696767" d="M78.2 18c.2 0 .6-.2.6.2 0 .3-.3.2-.5.2-.3 0-.9.2-.9-.1-.1-.4.5-.2.8-.3z"/><path fill="#484e50" d="M75.4 5c.1.3-.1.6.2.7.3.1.2-.3.4-.5.2.2.2.4-.1.6-.2.2-.5.2-.6 0-.2-.3-.3-.5.1-.8z"/><path fill="#757786" d="M79.1 6.6h-.4c-.1 0-.2-.1-.1-.2l.2-.1c.1 0 .3-.1.3.3z"/><path fill="#868686" d="M9 20.5c-.4.2-.8.5-.3 1l.1.6c.3.8 0 1.5-.8 1.8l-.2.1c-.5.5-1 .4-1.5.1l-4.1-3.2c.5 0 1.1 0 1.5-.4l.5-.2c1.4 0 2.8-.2 4.3 0 .2 0 .4-.1.5.2z"/><path fill="#323232" d="M74.2 28.3c1.1-.2 2.3 0 3.5-.2l5.7-.4c1.1-.1 2 .1 2.9.8a83.8 83.8 0 0 0 5.4 3.5c-.1.2-.3.2-.5.2-4.3-.4-8.7-.7-12.9-1.8l-1.9-.5c-.2-.1-.5-.3-.7 0-.2.3.2.4.4.6-.6-.1-1.2-.2-1.7-.5.3 0 .6.1.6-.3 0-.3-.3-.3-.5-.3l-1.2-.4a.2.2 0 0 1-.2-.2c0-.2.2-.2.3-.2.2-.2.5-.3.8-.3z"/><path fill="#7786fb" d="M74.4 43.1l.2.4s.1.1 0 .2c-.3.7-.3.7-.3 1.6v.3c.3 1.3-.4 2.6-.5 3.9 0 .9-.6 1.5-.9 2.2l-.3.1-.4-.2c.1-1-.1-2-.2-3 0-.6.3-1.3 0-1.7-.4-.6-.4-1.3-.3-2 .2-2.5 0-5 .2-7.5v-2.8l.1-2.1c0-.4.2-.6.6-.5l1 .2 1 .3c-.2.2-.4.2-.7.1-.4-.1-.6.1-.6.6v1.3c0 1.8.1 3.7.3 5.5.1.7.2 1.3.6 1.9.3.3.2.8.2 1.2z"/><path fill="#5c70fc" d="M74.4 43.1c-.1-1.1-.9-1.8-1-2.9l-.2-3.2-.1-3.6c0-.9 0-1 1-.8h.6l.2.1c.2.1.8.2.7.3-.2.4.2.8-.2 1.2l-.1.3c-.1 1.1 0 2.2-.2 3.2l-.1 1c0 .2.3.7-.3.8l-.1.1c.4.6-.3 1.2-.1 1.8.2.5-.2 1 0 1.4.2.2 0 .3-.1.3z"/><path d="M73.6 32.3c-.5.2-1.1-.6-1.4.1-.2.4-.1 1-.2 1.6v1.2a219 219 0 0 0-.2 8.1l-.1 2.8c0 .2-.3.7.3.4.1 0 .2.1.1.2-.2.4.2.8.1 1.1-.2.8.1 1.5.2 2.2.1.5.3 1.1-.1 1.6h-.2L72 51c-.2.7-.1 1.3-.2 1.8 0 .2-.1.4-.3.5-.2 0-.2-.2-.3-.3-.1-2.1.2-4.2.1-6.2 0-.5-.2-1-.4-1.5-.2-.7-.3-1.4-.3-2.2l.2-.1h.1c.4-.5.3-1.1.3-1.7.1-1.4 0-2.8.2-4.2.1-.4 0-.7-.1-1.1-.2-1.1.1-2.1 0-3.2-.2-.2-.3.2-.5.1-.3-.6-.2-.8.7-.9.9-.1 1.5.1 2.1.3z" class="st107"/><path fill="#ebebed" d="M51.1 22.4l4.6 2.1 13.9 6.4.4.1c.2.2.5.1.7.4-.3.2-.5.1-.8 0l-12.3-5.6c-.6-.3-1.3-.4-1.7-1l-4.2-1.9-.7-.4c-.2-.1.1 0 .1-.1z"/><path fill="#94a2f9" d="M69.9 31.4l.8.1c.4-.1.7.2 1 .3-.3.3-1 .2-.7.9.2.3.3.6-.1.9-.5-.2-1-.2-1.4-.7.2-.5.1-1.1.4-1.5z"/><path d="M73.8 49.4c.2-.7.1-1.6.5-2.2.2-.3.1-.7 0-.9-.2-.4.1-.5.1-.8.2 0 .4 0 .4-.2-.1-.3.3-.4.3-.6.5-.1.4.3.4.5v.1c-.3.3-.2.7-.2 1 0 .2.2.4.1.7v.1c-.5 0-.6.4-.7.8-.2.6-.5 1.1-.1 1.8.2.4-.4.4-.6.6l-.1-.1c-.2-.2-.1-.6-.1-.8zM73.9 50.3c.1.4.3.7.1 1.1 0 .1-.2.4.1.4.4.1 0 .2 0 .3 0 .4-.3.6-.4.9-.1.3-.3.6.2.8-.3 0-.6-.3-.6.3 0 .4-.6.6-.9.3-.2-.3-.4 0-.6.1-.4-.7.1-1.3.3-2h.3l.5.5c0-.4.5-.5.4-.9.1-.6 0-1.3.6-1.8z" class="st86"/><path d="M73.4 52.2c.2.1.1.1.1.3-.1.3-.6.3-.3.8 0 0-.3.1-.4-.1l-.4-.6c-.4.6-.5 1.3-.5 2-.2.3.2.8-.3 1.1-.3-.4.1-.8-.1-1.2v-1.6c.1.1.3.4.4 0l.1-2.2c.6 0 .3.6.5.8.1.2.3.1.4.1.1.2.2.4.5.6zM71.2 56.3c0-.5-.1-1 .1-1.5.2.3 0 .7.1 1.1v.4h-.2z" class="st110"/><path d="M73.6 54.2c.4.1.6.1.6.4l-.1.1c-.2 0-.3-.2-.5-.5z" class="st5"/><path d="M71.5 55.9c-.3-.3-.1-.7-.1-1.1v-.4c.2.4.1.8.1 1.2v.3z" class="st78"/><path d="M75.4 47.1c-.3-.4.1-.9-.4-1.2l.5-.5c-.1.5.1 1.1-.1 1.7zM75.5 45.2c-.2-.2-.1-.5-.4-.5l.1-.4.3.3c.2.2.2.4 0 .6z" class="st23"/><path d="M69.9 31.4c0 .5.1 1-.3 1.5-.3.2-.5 0-.7-.1L61 29.1c-.2-.1-.5-.4-.7-.1-.2.3.1.5.4.7.2.2.6.2.6.6-.9.2-1.9.5-2.7-.4-.5-.5-1.2-.6-1.9-.7h-.9l-4.2-2.1-4.4-2.2.3-.1c.9.6 2 .6 3 .7l.9.3c.2 0 .5.1.7-.1.6-.1 1 .3 1.4.5.5.2 1 .6 1.6.5.2-.2.3-.5.3-.8 0-.1-.1-.2.1-.3.6-.1.4-.5.3-.8L69 30.9l.9.5z" class="st18"/><path fill="#494949" d="M55.2 26.7c-.1.3-.3.3-.6.1l-2.5-1.2-4.9-2.4c-.2-.1-.4-.3-.4-.5l.1-.6c.1-.2.4 0 .5.1l7.2 3.4c.5.4.6.7.6 1.1z"/><path d="M12.4 10c-.1-.2-.2-.4-.5-.3-.4.1-.2.3-.2.5l-.1 1.4c-.2-.9-.1-1.8-.1-2.6 0-.2.1-.4-.1-.6-.5-.3-1 0-1.5-.1-.2-.1-.6.1-.9-.1a.8.8 0 0 1-.4-.4c.2-.2.5-.2.7-.2h.7c.3 0 .7.1.7-.3 0-.3-.4-.5-.7-.5-.6 0-1.2 0-1.6.7-.6-.6.3-1 .3-1.5 0-.3.3-.6.5-.9.3-.5.8-.4 1.3-.1h.1l.2.3c.1.2.1-.1.1-.1.5-.6.8-.6 1.3-.2.2.2.4-.1.6.1l-.1.9-.1 3.8-.2.2z" class="st112"/><path d="M8.6 1.5l2.3-.1c.3 0 .6.3.9 0h.2v.3c-.1.2-.2.3-.4.3l-.2.2c.6.3.1.9.3 1.4.3.8.2.8-.5 1.2l-.3.3c-.1-.1-.2-.2-.4-.1-.2-.4-.5-.8-.5-1.3l-.3-.3c-.2 0-.2.2-.3.3 0 .1 0 .4-.2.3-.3-.2-.3-.5-.2-.6.5-.6.1-.9-.4-1.2-.3-.2-.1-.4 0-.7z" class="st112"/><path d="M8.5 7.5c0-.8.7-.8 1.1-.8.5-.1 1.1-.1 1.3.5.1.3.2.4-.2.5l-2.1.1-.1-.3zM9 8.2c.3.1.6-.2 1 0-.2.3-.6.2-.7.4v.1L9 8.2z" class="st113"/><path fill="#8e8e90" d="M73.8 26c.2-.1.6.2.6-.2.1-.3-.2-.5-.4-.6l.8-.1c.7-.1 1.3-.1 2 .1 0 .3.2.3.3.3.2 0 .4.1.5.3-.2.2-.2.4-.1.7-.4.2-.8.5-1.2-.1-.1-.2-.3-.3-.5 0-.3.4-1.6.5-1.9.2-.2-.1.1-.4-.1-.6z"/><path fill="#d7d7d7" d="M77.6 25.8c-.2-.2-.5-.2-.8-.1-.1 0-.3 0-.3-.2s.1-.2.2-.3l.7.3c.3 0 .4.1.2.3z"/><path fill="#4f5490" d="M10.8 5l.4-.2c.7-.2.6-.6.4-1.1-.1-.3-.3-.7.1-.9-.2-.2-.6-.1-.6-.4 0-.3.2-.4.5-.5.2 0 .2-.2.3-.4-.4-.1-.4.4-.7.3-.1-.2.2-.2.2-.3-.2-.1-.5.2-.6-.2.7 0 1.4-.2 2.1.1L12.7 5c-.3.1-.6.4-.8-.2-.1-.3-.8 0-1 .4-.1.1-.2 0-.1-.2z"/><path fill="#7c7d7d" d="M9.3 8.6c0-.4.4-.3.7-.4l.9-.1c.3-.1.6 0 .7.3-.6.1-.8.5-.6 1 .2.5 0 1 0 1.4 0 1.6.1 3.1.3 4.7v2.3c-.1.5 0 .9.2 1.3.1.2.4.5.2.6-.2.2-.6.3-.9.3-.5 0-.8-.1-.6-.8.2-.9.1-1.9.1-2.9v-4.5-2.7c0-.3-.2-.4-.4-.4-.3-.1-.4-.2-.6-.1z"/><path fill="#dcdcdc" d="M9 20.5c-.7-.3-1.5-.3-2.2-.2l-3.2.1c-.2-.3-.4-.5.2-.5l4.3.2 1.2-.3.3.1.4.2c-.2.4-.5.5-.9.5l-.1-.1z"/><path fill="#a9b2fc" d="M43.8 42.2c-.2-.7-.4-1.5-.2-2.3l.1-1.6c0-.2-.1-.3-.3-.3.7-1.1 1.8-1.8 2.7-2.6 2.8-2.2 6-3.6 9.6-4.2.6-.1 1.2-.3 1.8-.1.3.3.2.7.1 1.1-.2.6-.7.7-1.3.8-4.1.8-7.6 2.6-10.7 5.4a5 5 0 0 0-1.8 3.4c.1.1.1.3 0 .4z"/><path fill="#bcc5f3" d="M55.9 29.1a3 3 0 0 1 2.9.6c.4.4.8.7 1.4.5h1.2c.4-.2.7.1 1 .3l2.6 1.2c.2.1.5.2.6.5-.1.4-.4.2-.6.2-1.3-.1-2.6-.2-3.9-.5-.5 0-.8-.5-1.4-.5h-.1c-.3.9-1.2 1.1-1.9 1.5a2 2 0 0 1 0-1.7c.3-.2.7 0 .9-.3l.8.2V31l-3.5-1.9z"/><path fill="#4c53be" d="M57.8 31.1v1.7c0 3.7-.2 7.4-.1 11 .2.2.2.4.2.6 0 1.2.1 2.4-.1 3.6l-.1 3.7c0 1.3.1 2.6-.1 3.9-.1.2-.1.4-.4.5l-.2-.2-.1-.4.1-5.8v-7c0-2.9.2-5.8.1-8.7-.1-.6 0-1.2.2-1.8V31l.5.1z"/><path fill="#a9acd7" d="M57.5 32.3c.2.5-.2 1.1 0 1.6l-.3.3c-.7-.1-1.2.3-1.9.3-1.2.1-2.3.5-3.4 1-1.8.7-3.4 1.7-5 2.8-.9.7-1.5 1.5-1.9 2.4-.3.6-.2 1.3.3 1.8l.1.2c.7 1.6 2.2 2.4 3.5 3.4a56.2 56.2 0 0 1 6.2 7c.7.9 1.6 1.7 2.1 2.7v.3c-.2.6-.5.2-.6 0L54.7 54l-4.8-5.5-2.3-2.4-2.5-2.6-1.2-1.1v-.1c-.1-2.1 1.2-3.4 2.7-4.7 2.1-1.8 4.6-3 7.2-4 .9-.3 1.8-.6 2.7-.7.3-.1.7-.2 1-.6z"/><path fill="#9da3ec" d="M47.5 46c.6.1 1 .6 1.3 1 1.5 1.7 3.1 3.3 4.5 5.2l2.4 2.6c.3.3.7.6.9 1 .1.2.3.5.5.1v.1c.2.2.2.4.2.6v2.6c-.2.5-.4.2-.6-.1L55 56.3c-.3-.5-.8-1-.9-1.6-1.9-3-4.1-5.8-6.4-8.4l-.2-.3z"/><path d="M54.2 54.8a53.8 53.8 0 0 1 3.4 5.3c-.1.1-.1 0-.2 0-.3-.2-.5-.6-.6-.9L54.2 55c-.1-.1-.1-.1 0-.2z" class="st124"/><path d="M37 38.7c-1 0-2.1.1-3.1-.1 1 0 2.1-.1 3.1.1z" class="st17"/><path fill="#a0a1b1" d="M57.5 55.9v-3.2l.1-8.8c.1-.6.3-1.1 1.1-1.3.4-.1.2-.7.6-1 .2 1.6-.2 3.2-.1 4.7.2 0 .2-.1.2-.2l.1-2.9c.1-.9.1-1.1 1-1.2.6-.1 1.3 0 1.8-.5.2-.2.6-.1.8 0 .3.2.5.4.9.2.1 0 .3 0 .2.1-.3.4.1.9-.2 1.3-.6.9-.8 1.9-1.3 2.8-.7 1.3-1.2 2.8-2 4.2-.3.6-.4 1.3-.6 2-.1.7-.5 1.2-.8 1.8l-1.2 2.7c-.2.4-.4.6-.9.3l.3-1z"/><path fill="#9da4ef" d="M70.2 39.1c-.3 1.7-.1 3.3-.1 5l.1 2.5c-.4-.2-.3-.6-.3-.9l-.2-3.9c0-.4-.3-.7-.3-1.1 0-.4-.4-.4-.5-.6l-.3-1c-.1-.5-.7-.2-.9-.5.3-.2.6-.3.5-.9-.1-.7.3-1.3.6-1.9.7 0 1.3.4 1.9.7.2.5-.1.9-.1 1.3-.3.5 0 1-.4 1.3z"/><path fill="#ebedf3" d="M70.6 36.7l-1.9-.8-6.3-3.2-2.7-1.3c.6-.3.9.3 1.4.4l.9.3 7 3.5 1.6.8c.4.3 1 .1 1.1.7-.5.1-.8-.1-1.1-.4z"/><path fill="#e7e7eb" d="M65.4 35c.2 0 .3 0 .3.3s-.3.3-.5.4c-.2 0-.4-.1-.3-.3 0-.4.3-.3.5-.4z"/><path fill="#5d6ef7" d="M57.5 55.9v3.4c.2.3-.1.4-.1.7-.2-.1-.1-.3-.2-.4v-3.3l.3-.4z"/><path d="M57.4 59.9l.1-.7.4-.6c0 .5-.1 1-.5 1.3z" class="st124"/><path d="M81.4 59.5l-.1 2.8c0-.9-.2-1.9.1-2.8zM81.2 63.4l-.1 2.8c0-1-.1-1.9.1-2.8zM81.1 67.4l-.1 2.4c0-.8-.2-1.6.1-2.4z" class="st3"/><path fill="#13ca10" d="M84.6 62.2c-.8 0-1.4-.2-1.8-.6-.7-.7-.6-1.6.4-2 .8-.3 1.6-.2 2.3.2.5.3.8.6.8 1.2-.1.6-.5 1-1 1.2h-.7z"/><path fill="#ac1015" d="M84.6 66.5l1 .9c.1.1.4.2.2.4-.2.1-.3.2-.5 0l-.8-.7c-.3-.3-.5-.3-.8-.1l-.8.5c-.3.2-.4 0-.6-.2-.2-.2.1-.3.2-.4.3-.2.9-.3.9-.7 0-.3-.5-.5-.8-.8-.1-.1-.4-.2-.2-.5.2-.2.4-.2.6 0l.1.1c1 .8 1 .8 2.1.2.4-.2.6-.2.8.2l-.7.4c-.2.4-.5.5-.7.7z"/><path fill="#7d7d7d" d="M71.1 58.7c.2 5.3-.3 10.5-.2 15.8-.4-.2-.3-.4-.3-.7.1-1.5 0-3.1-.2-4.6-.2-1.9-.4-3.9-.4-5.8 0-1.3.2-2.6.3-3.8 0-.4.3-.7.8-.9z"/><path d="M70.2 39.1c.3-.4-.2-.9.3-1.2.5.2.4.7.4 1.1l.3 2.7c0 .4.3.9-.2 1.2-.6-1-.5-2.2-.6-3.3 0-.3-.1-.4-.2-.5z" class="st107"/><path d="M16.7 25.6c.6-.4 1.3 0 1.7-.5.1-.1.3.1.4.3-.7.2-1.3.3-2.1.2zM17 24.9l-.2.3c-.2.2-.3.5-.7.4-.1 0-.2-.1-.1-.2.2-.2.4-.5.8-.5 0-.1.1-.1.2 0z" class="st133"/><path fill="#cecfd9" d="M64.8 28.3l-.2-.3c-.1-.4-.1-.8.2-1.1.1-.1.3-.2.4-.1.2.3.4.7.2 1.1-.3-.1-.2.5-.6.4z"/><path fill="#c1c2c8" d="M50.8 20.4c.3.1.3.4.4.7.1.4-.2.6-.5.7-.3.1-.3-.3-.3-.5-.1-.4-.1-.7.4-.9z"/><path fill="#8b8c97" d="M64.8 28.3c.2-.1.2-.6.7-.4-.1.4-.2.7-.7.4z"/><path fill="#dedbe0" d="M64.9 21.7c-.3-.2-.8.7-1.5 0h1.5z"/><path fill="#082777" d="M75.4 10c0-.6.4-1 .8-1.3.6-.5 1.2 0 1.7.2s.8.6 1.1 1c.1.6 0 1.1-.2 1.6-.2.6-.8.9-1.4 1h-.2c-.1-.5-.3-.3-.6-.2-.1.1-.3 0-.3-.2.1-.2-.1-.2-.1-.4 0 .2.2.2.1.4-.5.1-.7-.3-.8-.6-.2-.4-.1-1-.1-1.5z"/><path d="M79.3 13.6l-.3.1h-1.2c-.2 0-.4 0-.4-.2 0-.3.2-.3.4-.3l1-.1c.5 0 .6.2.5.5zM77.3 13.4c-.4.4-.9.4-1.4.3-.1 0-.2 0-.2-.2l.1-.2c.5.1 1-.4 1.5.1z" class="st139"/><path fill="#444668" d="M76 7.8l.6-.1c-.3-.1-.5-.2-.5-.5.1-.3.3-.2.4-.1.2.1.3-.2.5-.1s.5-.1.5.3c0 .3-.2.6-.5.6h-1.2l.2-.1z"/><path fill="#a7a4a5" d="M85.5 30.7c-.6.1-1.1.1-1.5-.5 1 .1 1.9 0 2.9-.2.5-.1.8.2 1.1.5-.4.2-.9.2-1.3.2h-1.2z"/><path fill="#605354" d="M85.5 30.7c.1-.1.1-.4.3-.3.7.3 1.5 0 2.2.1-.1.4.3.4.4.7-.7.1-1.3.1-1.9-.4-.2-.2-.7.3-1-.1z"/><path d="M73.4 52.2c-.3 0-.6-.1-.5-.5.3-.8.8-1.4.9-2.3.3.3.1.6.1.9a6 6 0 0 0-.5 1.9z" class="st107"/><path fill="#888aa8" d="M71 42.8c.2-.4 0-.8 0-1.2-.1-.3-.2-.7-.1-1 0 0 .1-.1 0-.1-.5-.8-.1-1.8-.5-2.6-.2-.4.1-.8.2-1.2l1.1.3c0 .8-.2 1.6-.1 2.4.1.5-.3.8-.2 1.3.1.6-.1 1.3-.1 1.9.1.3 0 .4-.3.2z"/><path fill="#8b8da9" d="M71.8 37c-.1 0-.1 0 0 0l-1.3-.6c-.2-.3 0-.6 0-.9 0-.4 0-.7-.2-1 .4-.2.5-.5.6-.9.4-.2.2-.5.2-.8l.2-.3.3-.2.2.3c-.2.7 0 1.4-.1 2-.1.7.1 1.4.1 2.1v.3z"/><path fill="#3d3d3d" d="M70.9 33.5c.2.8.1.9-.5.9-.3.1-.5-.1-.7-.2l-3.4-1.7c-.2-.1-.5-.2-.6-.4-1.3-.8-2.7-1.4-4.1-2l-.8-.4c-.3-.1-.4-.4-.4-.7 0-.5.1-.6.6-.4a184 184 0 0 1 8.8 4.2c.2.4.7.3 1.1.7z"/><path fill="#474851" d="M58.1 28c-.1.2.2.7-.3.6-.5-.1-.9-.4-.8-1 0-.2-.2-.6.3-.7.5-.1.8.4.8 1.1z"/><path d="M10.8 5l.2.4-.4.5c.2-.4.1-.7-.1-.9.1-.2.2-.2.3 0z" class="st31"/><path fill="#afb0c0" d="M65.5 32.2l4.1 2c.1.7-.2 1.1-.7 1.5L62 32.3l-.9-.5c.2-.2.5-.2.7-.1.9.4 1.8.3 2.7.3.4 0 .6.4 1 .2z"/><path fill="#a4a5b7" d="M57.2 55.8c-1-.9-1.7-1.9-2.5-2.9a53.3 53.3 0 0 0-5.4-6.2c-.8-.7-1.5-1.5-2.5-1.9-.3-.2-.6-.4-.8-.8-.2-.5-.5-.9-.9-1.3-.6-.6-.6-1.3-.3-2a6.1 6.1 0 0 1 2.6-2.9l3.3-1.9c1.4-.7 2.8-1.1 4.3-1.4l2.4-.5-.2 16.4v5.4z"/><path d="M59.4 47v2.3h-.1V47h.1zM59.4 49.7c.3.6-.1 1.2-.1 1.8-.1-.6-.1-1.2.1-1.8z" class="st56"/><path fill="#9ba7f7" d="M69 35.7c.2-.5.6-1 .7-1.5l.7.3c.9.3.1.9.3 1.3.1.2-.1.4-.2.6-.6-.2-1.1-.4-1.5-.7z"/><path d="M84.5 61.7c-.7 0-1.2-.2-1.5-.7-.2-.3-.1-.5.1-.7.4-.4.9-.4 1.4-.3.5.1 1 .4.9 1 0 .6-.5.6-.9.7z" class="st74"/><path fill="#126ab2" d="M76.3 10.7l.4-.3c.1-.2 0-.6.4-.5.4.1.5.5.5.8 0 .3-.1.5.2.7.2.1.1.2-.1.3-.3.2-.5.2-.9.1-.4-.2-.1-.3-.1-.6.2-.5-.2-.5-.4-.5z"/><path d="M78.4 11.7c-.1.3-.3.4-.6.5-.1 0-.3.1-.3-.1l.2-.3c.2.1.4.1.7-.1zM76.3 12.2c-.1-.3-.5-.4-.5-.9.3.3.7.4.5.9z" class="st96"/></svg>