<svg xmlns="http://www.w3.org/2000/svg" id="图层_1" viewBox="0 0 64.9 100"><style>.st0{fill:#c3c5bb}.st7{fill:#2b2e28}.st8{fill:#4f524c}.st10{fill:#4f5851}.st11{fill:#62665c}.st13{fill:#e9ebde}.st17{fill:#f3f5f1}.st21{fill:#d7d8d2}.st22{fill:#30332c}.st24{fill:#20231c}.st26{fill:#161a14}.st33{fill:#6b6f68}.st34{fill:#070707}.st50{fill:#5d6147}.st51{fill:#585a44}.st52{fill:#c3c5bd}.st54{fill:#498ba9}</style><path d="M63.3 8.3V5.5c0-1.8-1.3-5-4.8-5L7.8.2C4 .2 2 3.5 2 9.9c.1 6.4-2 80.3-2 82.6 0 2.3.9 7.2 8.1 7.4 7.2.1 42.7-.3 50.5-.3s6-8.8 6.1-14.4-1.4-76.9-1.4-76.9z" class="st0"/><path fill="#c7c8c5" d="M62.8 8.1V11l.1 3.7.1 5.4.1 4.8.1 4.7c.1.5 0 1 0 1.6l-.1-.1v-1.3 1.1c0 .1.1.3-.1.3l-.2-7-.2-9.3-.1-3.9-.1-2.5V8c-.3-.3-.2-.7 0-1 .4 0 .7.3.5.6l-.1.5z"/><path fill="#acafa8" d="M62.9 31.1l.2-.4c1.1 3.3.7 7.5.7 10.9v12.6l.6 24.6c.1 3.2.3 11.4.2 12.1l-.3.8c-.1.2-.3.4-.5.4h-.4l-3.2-.6c.4-.2.8-.3 1.2-.1l-.9-.2c.2-.4 1.3-.3 1.8-.3.5.1 1 .2 1.5.1 1.3-.4.3-9.8.3-11.3l-.1-.5-.1-3.7-.5-23.4-.2-11.6c0-2.2-1.4-7-.3-9.4z"/><path fill="#f4f5f0" d="M64.9 89.4v-9l-.1-3.5-.3-7.3-.4-14.7-.3-14.7-.2-14.7-.2-10.8v-.1l-.1-5.9c0-.3-.1-.8-.4-.8-.2 1-.1 2-.1 3-.1 4.8.2 9.5.4 14.3l.4 14.6.7 28.8.4 22.2c.3-.3.3-.8.3-1.2l-.1-.2z"/><path fill="#9da098" d="M1.4 69.3h-.2c-.2-.2-.1-.4-.1-.6l1.5-53c0-.2.2-2.2.4-2.3.1 1-1.5 55.3-1.6 55.9z"/><path fill="#e8eae1" d="M2.8 42.4c-.3 0-.3-.2-.3-.3l.1-2.2v-1.7l.2-4-.1-.6c.2-1.9.1-3.9.2-5.8l.1-2.1v-6.2c0-.2 0-.5.2-.7l.1-.3v-5.6-2.7c-.1-1.3.1-2.4.1-3.6a5 5 0 0 1 1-3.1c.2.2 0 .5-.1.7-.2.6-.5 1.1-.4 1.7.2.3.2.6.1.9v.8l-.1 4v2l-.2 5.5-.1 2.7c-.1 1.1.1 2.3-.1 3.4-.2.5-.1 1.1-.1 1.6l-.1 2.6-.1 5.3L3 39v2.8c0 .2 0 .4-.2.6z"/><path fill="#3f4134" d="M4 5.9c.2-1.2.7-2.2 1.6-3.1C6.8 1.7 8.4 1.5 10 1.5l6.2.1 12.4.1 24.9.2h1c1.2 0 2.4 0 3.5.3.2.1.6.3.2.4-.2.1-.8-.2-1-.3-.9-.2-1.8-.2-2.7-.2L41.6 2l-24.5-.3-7.3-.1c-1.1 0-1.9 0-2.8.7-.4.3-1 .7-1.2 1.2l-.1.5c-.6.9-1 1.9-1.2 2.9l-.2 1.6c0 .1 0 1.4-.3 1.3l-.1-.3c0-1.2-.1-2.5.1-3.6z"/><path d="M61.8 21.2l.2 8.1.4 17 .1 7.4c.2 1.2.1 2.4.1 3.5v2.6l-.1.7.1 10.3c0 .2.1.5-.1.7-.2 0-.2-.2-.2-.3v-.4l-.1-7.4-.2-10.3v-3.2l.1-.7c.2-.4.2-.8.2-1.2l-.1-7.2-.1-.5.1.5.1 7-.1.5c-.2 0-.2-.2-.2-.3v-.4l-.1-7.1-.1-5.3c0-.3-.1-.6.1-.9.2-.1.2.1.2.2l.1 2.3V38l-.1-3.3c-.2-2.2-.1-4.4-.2-6.7l-.2-6.3.1-.6c-.1.1 0 .1 0 .1z" class="st7"/><path d="M62.6 59.9v-5.6-.6h.1v.5c.2.4.1.8.1 1.2l.2 16.3.2 13.9c0 .2 0 .5-.2.6l-.4.1-3.9.1c-.4 0-.7-.2-.2-.3l1.4-.1h1.7c.4 0 1.3.2 1.3-.4v-3.7l-.2-16.3-.1-5.7z" class="st8"/><path fill="#8b8d82" d="M2.9 16.3l-.1.2c-.2-.4-.2-.5-.2-1.2l.3-8.9.4-1.7.2-.1c-.4 2.2-.5 10.8-.6 11.7z"/><path d="M61.8 21.2c-.2-.1-.2-.3-.2-.4l-.2-6.5v-1.9l-.2-5.5c0-1.1-.5-2.2-1.3-3l-.8-.8-.2-.3v-.1c.7.4 1.2 1 1.7 1.6.9 1.1 1 2.5 1.1 3.9l.1 7.7.1 4.9-.1.4z" class="st10"/><path d="M4 5.9v3.8c.2.2.1.4.1.6L4 13.2c0 .2.1.4-.2.5-.1-1.4.1-2.8.1-4.2-.1-1.2 0-2.4.1-3.6z" class="st11"/><path fill="#cdcfc8" d="M40.1 1.5l-.9.1c.3-.3.6-.3.9-.1z"/><path d="M63.5 33.2v.2c-.2-.5-.1-1.1-.1-1.6v-.6-1.6l.1.5v3.1zM62.8 11c-.2-.6-.1-1.2-.1-1.8 0-.3-.1-.7.1-1V11z" class="st13"/><path fill="#898b86" d="M3.2 98.6c.2 0 .6.1.8 0 .1-.1.3 0 .3-.2l-.2-.2c-.2-.2-.5-.2-.6-.6l.9.4c.8.4 1.6.5 2.4.5l6.4.1 37.8.2c1.6 0 7-.1 8.5-.3.2 0 1.3-.1 1 .6-.2.5-4.9.7-4.9.7l-10.3.1h-4.6l-14.9.1-14.7.1c-1.6 0-3.1.1-4.7-.1-.6-.2-2.6-.9-3.2-1.4z"/><path fill="#80817c" d="M55.6 99.7s-.1 0 0 0c.1-.2.2-.2.3-.2h2.6l.2.1c-.5.2-1 .1-1.6.1h-1.5z"/><path fill="#95958e" d="M49.3 94.2L48 95.6c-.9.6-2 .4-3 .4h-3.7l-7.3.1H21.9c-1.1 0-2.3.2-3.4 0l-.6-.1c-1.7-.5-2.5-1.9-3.5-3.2-.3-.3-.6-.7-1-.8-.4-.2-1-.2-1.4-.2l-5.3-.1c-1.7 0-3.4.1-5.1-.1l-.3-.2.3-.1 11.4-.1c.8 0 1.3.2 1.8.8l1.4 1.5c.4.4 1 1.1 1.6 1.3.3.1.6-.2.8 0l.3.3.2-.1h14.5c4.7.1 9.4 0 14.1-.3l.2-.1c.2-.1.3-.6.4-.8l.7-.7c.5-.5 1-.9 1.3-1.4l.6-.7.6-.1c3.8-.1 7.6.2 11.3.4l-10.8.2-.6.1-.5.4-1.6 2.2z"/><path d="M0 92.5c.1 0 .1-.1 0 0 .4-.2.6-.1.6.2.2 1.3.7 2.5 1.4 3.6.1.2.1.4-.1.5-.2.1-.3-.1-.4-.2A5.5 5.5 0 0 1 0 92.5z" class="st17"/><path fill="#f5f8f1" d="M14.2 92.6l3 3.1c.2.2.3.3.1.5-.2.2-.5.1-.6-.1l-3-3.3v-.3c.3-.2.5.1.5.1z"/><path fill="#eaece7" d="M1.3 92.5c.2 0 .3.1.3.3 0 1.2.4 2.2 1 3.3l.2.2c.1.1.3.2.1.3-.1.1-.2-.1-.3-.1-.6-.5-.9-1.2-1.2-1.9-.2-.7-.4-1.4-.3-2.1 0-.1.1-.1.2 0z"/><path fill="#edefe8" d="M1.6 76.2c-.1.6 0 1.1 0 1.6v.5c-.2.4 0 .7-.1 1.1v1.2 5.1 4.5c0 .3-.2.5-.3.7-.2-.5-.1-1.1-.1-1.6l.1-4.8v-2.7-2.3-.9-1.1l.1-2.8v-.5-1c.3.1.2.3.2.4V75.4c.3.2.3.5.1.8z"/><path d="M1.4 74.1c0 1.1.1 2.1-.1 3.2l-.1.2.1-3.2.1-.2zM1.3 78.6v2.8l-.1.3v-2.8l.1-.3z" class="st21"/><path d="M1.1 75.9c0-.6-.1-1.1.1-1.7-.1.6.1 1.2-.1 1.7z" class="st0"/><path d="M2.3 86.4c-.3-.1-.3-.3-.3-.5l.1-8.2v-4.4l.2-6.2.2-9 .1-4.8.1-3.3.1-1.4.1-3.1c0-.1-.1-.3.1-.3s.2.2.2.3v.3l-.1 3.9-.1 5.1-.1 3.3-.2 6.6-.1 3.3-.2 7.6v3l-.1 7c0 .2.1.3.3.3l.4.2c-.2.4-.5.2-.7.3z" class="st22"/><path fill="#464a3f" d="M3 45.8l-.1-.5-.1.2-.1 3.5-.1 1.1.1-3.3.1-3.8v-.5-.6-.3a208.3 208.3 0 0 1 .4-13.8l.1-2.4.1-3.8.3-7.9.1-.2.1-3.7h.2l.1.4-.2 6-.1 5.5-.1 3.3-.1 4.1-.1 4.5-.1 4.3-.1 5.2v2.4c-.1 0-.1.2-.4.3z"/><path d="M3.4 25.3c.1 1.2-.1 2.4-.1 3.6l-.2 6.6-.2 5.9v.4c-.1-1.7 0-3.4.1-5l.1-2.1.1-3.1.1-4.7c-.1-.5-.2-1.1.1-1.6z" class="st21"/><path d="M62.1 59.2c-.6-16.2-.7-32.5-1-48.7-.1-3.1-.2-5.7-1.3-6.9C58 1.5 54.9 2.1 52.4 2l-6.2-.1-12.4-.1c-5.4.1-10.7-.1-16.1-.2l-8.2-.1C7.6 1.6 6 2.3 4.8 4c-.1.1-.2.2 0 .3.3-.4.5-.9 1.2-1.1a10.3 10.3 0 0 0-1.8 5.9c-.4 16.3-1.3 32.8-1.3 49.1L2.7 69c-.1 5.3-.5 10.8-.2 16.1 0 .8.3 1.2.7 1.2 6.9.1 58.3-.2 58.9-.3.6-.1.7-.1.7-.4l-.7-26.4z" class="st24"/><path d="M4.5 5.9l-.1 1.7-.2 8.4-.1 4.6-.2 7.2c0 .8.1 1.5-.1 2.3-.2-.2-.1-.4-.1-.6 0-.2.1-.4-.1-.5-.1-1.3.1-2.5.1-3.8V23c-.1-.5.2-.9.1-1.4v-.4l.1-4v-3.8l.2-3.3v-.4l.2-3.6.2-.9v.7z" class="st11"/><path fill="#8e908b" d="M62.2 73.3L62 62.4l-.2-9.2-.2-8.4-.3-15.3-.2-9.8v-1.1l.1-.2.2.1.1.4.2 8.6.1 1.3.1 5.1-.1.5.1 5.9.1 5.5.1 2.6c.2.3.1.6 0 .9l.1 6.6.3 15.3v.5c.2.1.1.3.1.4l.1 13.3c-.1.2 0 .6-.3.5-.3 0-.1-.4-.1-.6l-.1-11.5v-.5z"/><path d="M61.8 34.4l-.1-5.6-.1-.4v-4.1l-.2-5.6-.3-7.8-.1-2.7c0-.7.1-1.3-.1-2a5 5 0 0 0-1-1.9c-.1-.1-.3-.3-.3-.5l.2-.2c.6.5.9 1.1 1.2 1.8.4 1 .3 2 .4 3l.2 8.6.1 4 .2 9.7v3.1l.1 4.1c0 .2.1.3-.1.5l-.1-.4-.1-3.3c.2 0 .2-.1.1-.3z" class="st26"/><path fill="#191c17" d="M62.7 85.4l-.2-13.7v-5.1l-.1-6.1c0-.2-.1-.4.1-.5l.1 10.6.1 2.5v.7l.1 12c0 .3-.1.4-.3.3l-.1-.2c.3-.1.3-.3.3-.5z"/><path d="M62.1 49.3v-.9l-.1-7.6v-.6l.2.7.1 7.8c0 .3.1.6-.2.6z" class="st26"/><path fill="#21251e" d="M4.2 86.3h-.3c-.1-.1-.2-.2 0-.3l.6-.1h35.7l.6.1 5.6-.1h7.8l.6.1 6.5-.1h1.3v.2c-1.2-.1-2.3.2-3.5.1l-1 .1-15.6.1H22.3l-6.1.1H8.1c-1.2-.2-2.6-.1-3.9-.2z"/><path d="M62.8 73.8l-.1-1v-2.2l.1 1.1v2.1z" class="st7"/><path d="M63.5 82.9v.5c-.2-.1-.5-.3 0-.5zM.6 75.4c0-.5-.1-.9.1-1.4 0 .4.1.9-.1 1.4zM.8 77.9c0 .5.1 1-.1 1.4l.1-1.4zM1 72.8c0 .5.1.9-.1 1.4 0-.4-.1-.9.1-1.4zM.9 75.7c0 .4.1.8-.1 1.2.1-.3-.1-.8.1-1.2zM.7 73.5c0-.4-.1-.7.1-1.1-.1.4.1.8-.1 1.1z" class="st0"/><path fill="#5c5d59" d="M58.6 99.2c.5 0 1 .3.1.4l-51.3.2-1.5-.2c.3-.2.6-.1.9-.1.7 0 1.3.1 2-.1H10c.7 0 47.5-.3 48.6-.2z"/><path fill="#bfbeb7" d="M43.5 96.3l-14.2.1h-1.5c-.1 0-.3.1-.3-.1s.1-.3.3-.2h1.6l2-.1H40l1.3.1.3.1c2.1-.2 4.1-.1 6.2-.2.1.1.1.3 0 .4l-.9.1h-1.7l-1.7-.2z"/><path fill="#7c7a74" d="M18.7 94.9l4.1-.1a691.5 691.5 0 0 1 18.3-.1l5.4.1.2.2-.4.1-12.5.1c-2.1.2-4.2 0-6.3 0h-6c-1 0-1.9.1-2.9-.1-.1 0-.3-.1-.2-.2h.3z"/><path d="M1.6 76.2v-.8l.3-.3v11.5c-.2-.2-.2-.3-.2-.5v-5.4-4.1l-.1-.4zM1.4 82.7v-1.8l.1-.4v1.8l-.1.4z" class="st21"/><path d="M1.5 78.2v-1.5l.1-.4v1.5c0 .1.1.3-.1.4z" class="st21"/><path fill="#8d8f87" d="M3.6 28.9c.2-.1.2 0 .2.1v1.1c-.1.5 0 1.1 0 1.6v.5l-.2 8.7-.2 9.9-.1 5.1-.4 10.5-.2 8.5-.1 3.9v1.8a36.9 36.9 0 0 0 .1 5.2c.1.1.3 0 .3.2s-.2.1-.3.1l-.3-.2v-1.3l.1-8.3.2-8.4v-3l.2-6 .2-8.4.1-4.6.1-1.1.1-5.6.1-5.1.1-5.2z"/><path d="M2.3 85.9l.3.1h.3c.1-.1-.2-.1-.2-.2h12.7c.3-.3.8-.1 1.1-.1H38.7c.4 0 .8 0 1.2.2.1.1.1.1 0 .2h-36c-.2.2-.4.1-.6.1l-.5-.1c-.4 0-.5 0-.5-.2z" class="st33"/><path d="M5.3 83.7l.8-39.8c0-1.4 1.2-2.6 2.6-2.5l46.4.4c1.4 0 2.5 1.1 2.6 2.5l.7 39.1c0 1.4-1.1 2.6-2.6 2.6l-47.9.4a2.7 2.7 0 0 1-2.6-2.7z" class="st34"/><path fill="#bcbfae" d="M32.9 30.6a6.6 6.6 0 0 1-6.8-6.5 6.5 6.5 0 0 1 6.6-6.5 6.7 6.7 0 0 1 6.8 6.4c0 3.6-2.9 6.6-6.6 6.6z"/><path fill="#4e90a9" d="M50.6 72.2c-.4-.1-.6.1-.7.5l-.1.8c0 .2-.2.2-.4.2s-.2-.2-.2-.3l.2-.8c0-.2 0-.4-.3-.4-.7 0-.7 0-.8.7l-.1.6c-.1.2-.2.3-.4.3s-.2-.2-.2-.4l.1-.6c0-.2.2-.5-.3-.6-.2 0-.2-.2-.1-.3 0-.2.1-.2.2-.3.2 0 .4.1.4-.2l.2-1c0-.2-.3-.1-.4-.1-.2 0-.5 0-.4-.3 0-.4.3-.3.5-.3.5.1.6-.1.7-.5l.2-.8c0-.2.2-.2.3-.2.2 0 .2.2.2.3l-.1.8c0 .2-.1.5.2.5.3 0 .7.2.8-.3l.2-.9c.1-.2.2-.4.5-.4.3.1.1.3.1.5l-.1.6c-.1.3-.1.5.3.5.2 0 .2.2.2.3 0 .2-.1.3-.2.2-.5-.1-.5.2-.6.5l-.1.3c-.1.3 0 .5.4.4h.3c.2 0 .3 0 .3.2s-.1.3-.3.3l-.5.2z"/><path fill="#4190af" d="M48.6 47.7v-.3c-.1-.6.1-.7.7-.6.2 0 .2.2.2.3l-.1.8c0 .3.1.3.3.2l.8-.3c.3-.1.4.1.5.3.1.2.2.5-.2.6-.2.3-.5.3-.7.3-.3 0-.3.2-.2.4l.5.6c.2.2.2.3-.1.5-.2.1-.4.5-.7.1l-.5-.7c-.2-.3-.3-.2-.5 0l-.3.5c-.1.2-.2.3-.4.3s-.4-.2-.5-.4c-.1-.2.1-.3.2-.4l.5-.5c.1-.2.1-.3-.1-.3l-.7-.2c-.4-.1-.5-.3-.4-.7.1-.4.4-.4.7-.2l.3.1c.7.3.8.3.7-.4z"/><path fill="#5d95af" d="M50.8 60c0 .5 0 1.1-.3 1.7-.3.6-.8.8-1.4.8-.6 0-1-.4-1.3-.9-.2-.4-.2-.8-.3-1.3a4 4 0 0 1 .1-1.9c.3-.9.8-1.3 1.6-1.2.7.1 1.3.6 1.4 1.5.2.4.2.8.2 1.3z"/><path fill="#5b93aa" d="M27.3 49.7l-.2.2c-.1.2-.5.3-.4.5.1.3.4.1.7.2.5.1 1-.1 1.4.1 0 .6 0 .6-.6.6H26c-.4 0-.6-.1-.5-.5v-.2l1-1.2c.2-.1.2-.4.5-.3.5-.3.9-.7 1.1-1.2.2-.5-.1-1-.6-1.1-.6-.2-1.2.1-1.3.6-.1.4-.3.4-.5.3-.3-.1-.1-.3-.1-.5.3-.6.8-.9 1.5-.9s1.3.1 1.6.9c.2.5.1 1-.2 1.5l-1.2 1z"/><path fill="#5b95ac" d="M37.7 51.4l-.9-.5a.8.8 0 0 1-.2-.4c-.1-.2-.2-.4.1-.5.3-.1.4 0 .5.3a1 1 0 0 0 1.6.3c.3-.3.3-.7.2-1.1-.1-.4-.5-.6-.9-.6-.2 0-.4.1-.4-.2 0-.3.2-.3.4-.4.3-.1.7-.2.7-.6.1-.3 0-.6-.3-.8-.4-.3-1.1-.1-1.3.4-.1.3-.2.3-.5.2-.2-.1-.2-.1-.2-.3.1-.7.9-1.2 1.7-1 .8.1 1.3.7 1.3 1.4 0 .3-.2.5-.4.7-.1.1-.2.2 0 .3.8.7.9 1.4.2 2.2l-.1.2-.2.2a2 2 0 0 1-1.3.2z"/><path fill="#72776d" d="M61.1 8.1l.2 6 .3 14v.8c-.2-.1-.1-.3-.1-.5l-.1-4.4-.1-5.1-.1-.3-.1 1.2-.1-.5-.1-6.1-.1-5.8c0-.8-.4-1.6-.7-2.3v-.3l.3.1c.4.6.6 1.2.7 2v1.2z"/><path fill="#b9bcae" d="M20.8 33.6c-.7-.1-1.3.1-1.9-.1-.9-.3-1.4-.9-1.4-1.9l.1-2.7c0-.1 0-.3.2-.3s.2.2.2.3v2.5c0 1 .5 1.6 1.6 1.6h2.5c.2 0 .4 0 .4.2 0 .3-.2.2-.4.2-.5.2-1 .2-1.3.2z"/><path fill="#b5b8ad" d="M20.9 14.5h1.5c.2 0 .4 0 .4.3s-.2.2-.4.2h-2.5c-.9 0-1.7.7-1.7 1.7V19c0 .2 0 .4-.2.4s-.3-.2-.3-.3l.1-2.9c.1-.8.9-1.5 1.7-1.5.4-.2.9-.2 1.4-.2z"/><path fill="#b7b9b2" d="M47.9 30.8V32c.1 1-.9 1.8-1.7 1.9h-3c-.1 0-.4 0-.3-.2 0-.2.2-.3.3-.3h2.2l1.2-.1c.5-.2.8-.6.8-1.1v-2.5-.4c0-.2.1-.2.3-.2.2 0 .2.1.2.2v1.5z"/><path fill="#5b97ae" d="M17 48.1v2.7c0 .2 0 .4-.3.4s-.3-.2-.3-.4v-3c0-.1.1-.3-.1-.4-.1-.1-.2.1-.4.1l-.4.2c-.1 0-.3.2-.3 0-.1-.2-.1-.4.1-.5l1.4-1.1.3-.1.1.3V48l-.1.1z"/><path fill="#bdc1b4" d="M47.8 17.9v1.4c0 .2 0 .4-.2.4s-.2-.2-.2-.4v-2.2c0-.9-.6-1.7-1.6-1.7l-2.5-.1c-.1 0-.3 0-.3-.2s.1-.3.3-.3c1.1 0 2.1-.1 3.2.1.7.1 1.4.8 1.4 1.6l-.1 1.4z"/><path fill="#787c76" d="M39.8 85.9h.8l7.2-.1h.5l5.9-.1h.5l5.4-.1h.4l.2.1-.2.1H46.2l-5.3.1H40c-.2.1-.2 0-.2 0z"/><path fill="#b2b559" d="M30.5 15.5c-.2.3-.4.5-.8.6-.3.1-.7.1-1-.1a.5.5 0 0 1-.3-.5v-.7c.1-.6.2-.7.8-.7.4 0 .8 0 1.1.3.4.4.3.7.2 1.1z"/><path fill="#b8bc5b" d="M36.9 15.8s-.1 0 0 0c-.6.6-1.4.6-1.9 0l-.1-.1c-.1-.3 0-.6 0-.8 0-.3.3-.5.5-.5h1.2c.3 0 .5.2.4.5l-.1.9z"/><path d="M54.2 86.1l6.2-.1c-.1-.2-.3-.2-.5-.2h-5.4l-.5-.1 6.2-.1 1.6.1c.4 0 .5-.1.5-.5l-.1-7.1-.1-4.9.1.6.2 11.9v.1c.2-.1.1-.4.2-.5.1.2.1.4-.1.6l-1.2.1-6.8.1h-.3z" class="st8"/><path d="M61.1 8.1c-.2-.3-.1-.7-.1-1 0-.7-.3-1.4-.6-2 0-.1-.1-.2-.3-.2v.2c-.5-.6-1-1.3-1.8-1.7-.1-.1-.3-.2-.2-.3.1-.2.3-.1.4-.1.5.2.8.5 1.2.8.7.7 1.2 1.5 1.4 2.5v1.8z" class="st10"/><path d="M17.4 46.2l.1.9v3.4l.1.5c.1.2 0 .2-.2.3a39.3 39.3 0 0 1 0-5.1c-.1 0-.1 0 0 0z" class="st34"/><path d="M36.9 15.8l.1-.8c0-.3-.1-.5-.4-.5h-1.1c-.5 0-.6.2-.6.6v.6c-.2-.5-.1-1.2.1-1.4.5-.3 1.5-.4 1.9-.1.2.3.3 1.1 0 1.6z" class="st50"/><path d="M30.5 14.4c-.5-.2-1-.2-1.5-.1-.1 0-.3 0-.3.2-.1.5-.3 1.1.1 1.6-.4-.2-.5-.5-.3-1.1.1-.4-.1-1 .7-1 .4 0 .8-.1 1.1.2l.2.2z" class="st51"/><path d="M27.1 49l-.4.4-1.1 1.1-.1.2c-.2.1-.1.5-.3.4-.3-.1.1-.3.1-.5.1-.5.5-.6.8-1l.8-.8c.1-.1.3-.2.4-.1l-.2.3z" class="st34"/><path d="M48.2 85.9l-7.8.1-.3-.1 7.3-.1.8.1c0-.1 0 0 0 0zM2.6 85.8l-.1-.3c-.1-2.1.1-4.3 0-6.4l.1-.2V85.8z" class="st33"/><path d="M35 15.7c.8.5 1.2.6 1.9.1 0 .3-.3.3-.5.4-.6.2-1.2 0-1.4-.5z" class="st50"/><path d="M3.7 32.3c0-.7-.1-1.4.1-2.1l-.1 2.1z" class="st11"/><path d="M30.5 15.5c0-.4.1-.7-.1-1.1.4.3.3.7.1 1.1zM28.8 16l1 .1c-.4.2-.7.2-1-.1z" class="st51"/><path d="M35.5 86.6l-9 .1-.6-.1-5.9.1c.1-.3.3-.2.4-.2h16.3c.2 0 .3-.1.5.2l-1.7-.1z" class="st52"/><path d="M4.2 86.3h18.5l1 .1H8.3l-4.1-.1z" class="st22"/><path d="M19.3 86.7h-1.9l.1-.2 1.8.1c-.1 0 0 .1 0 .1z" class="st52"/><path fill="#c4c7c0" d="M6 89.8l-.1.2a.2.2 0 0 1-.2-.2l.1-.1c.1-.1.1 0 .2.1z"/><path d="M3.2 86.2c.2-.2.4-.1.6-.1l.1.2c-.3 0-.5.1-.7-.1z" class="st22"/><path d="M40.2 86.1l5.9-.1.3.1h-6-.2z" class="st33"/><path d="M26.9 68.2c1.1 0 1.9.9 1.4 1.7-.3.6-.3.9.1 1.4.5.7.1 1.7-.7 2.1-.7.3-1.5.2-2.1-.4-.4-.4-.5-1.1-.3-1.7.1-.3.3-.5.5-.6.2-.1.2-.2 0-.3-.4-.4-.5-.9-.2-1.5.3-.5.8-.7 1.3-.7z" class="st54"/><path fill="#4b8ba7" d="M39.8 70.7c0 .8-.1 1.5-.5 2.2-.6.9-1.9 1-2.5.2l-.2-.3c-.1-.2-.3-.4 0-.6.3-.1.4 0 .6.3.3.6 1 .7 1.5.2.3-.3.3-.6.4-.9 0-.1.1-.3 0-.4-.1-.1-.2 0-.4.1-.7.4-1.4.2-1.9-.3s-.5-1.7-.2-2.2c.3-.6 1-.9 1.7-.8.7.1 1.3.6 1.5 1.4v1.1z"/><path fill="#4f8dab" d="M39.8 60.6c0 1-.5 1.7-1.3 1.8-.9.1-1.7-.4-1.9-1.2-.2-1.1-.3-2.3.3-3.3s2-1 2.7 0c.1.2.3.5 0 .6-.3.2-.5.1-.6-.3-.1-.3-.4-.5-.8-.5s-.7.3-.9.6l-.1.2c-.1.3-.3.6-.1.7.2.2.4-.1.6-.2.9-.3 1.9.3 2 1.2l.1.4z"/><path fill="#4989a5" d="M27.5 57.7h-.3c-.8 0-.8 0-.9.8-.1.4.1.4.4.3.7-.2 1.3 0 1.7.5.4.6.5 1.3.2 1.9-.3.7-.9 1.1-1.7 1-.7 0-1.2-.4-1.5-1-.1-.2-.1-.4.1-.5.2 0 .4-.1.5.2.3.7.9 1 1.4.7.6-.3.8-1.2.4-1.8-.3-.5-1.1-.6-1.7-.2l-.4.2c-.2 0-.4-.1-.3-.4l.4-2c.1-.3.2-.5.5-.4h1.8c.3 0 .3.1.3.3 0 .2-.1.3-.3.3l-.6.1z"/><path d="M17.1 58.4l-.1 1.4c0 .3 0 .5.4.5.2 0 .3.1.3.3 0 .2 0 .4-.2.3-.6 0-.5.4-.5.8 0 .2 0 .4-.3.5-.3 0-.4 0-.4-.3-.1-.9-.1-.8-.9-.9h-.8c-.2 0-.4.1-.4-.1-.1-.2-.1-.4.1-.6l.9-1.3 1.2-1.6.3-.3c.3-.2.5 0 .5.3l-.1 1z" class="st54"/><path fill="#4786a3" d="M15.9 68.2h1.2c.5 0 .6.2.3.6l-.7 1c-.6 1-1 2-1.2 3.2 0 .3-.2.4-.5.4s-.3-.3-.3-.5c.2-1.2.6-2.3 1.3-3.3.1-.2.4-.4.3-.6-.1-.3-.4-.1-.7-.1h-1.2c-.2 0-.4 0-.4-.3s.2-.4.4-.4h1.5z"/><path d="M28.8 50.7l-2-.1c-.1 0-.3.1-.3-.1-.1-.2.1-.2.2-.3l.4-.3c0 .2-.4.3-.2.5.1.3.4.1.6.1h1c.1 0 .3 0 .3.2z" class="st24"/><path fill="#4f4349" d="M27.9 67.5c.2 0 .3.1.3.2 0 .2-.1.3-.3.3-.2 0-.3-.1-.3-.2 0-.2.1-.3.3-.3z"/><path d="M37.7 51.4c.5.1.9 0 1.4-.2-.5.3-.9.3-1.4.2z" class="st24"/><path fill="#1c1d17" d="M38.5 24.1c.1 3.1-2.4 5.5-5.6 5.6A5.8 5.8 0 0 1 27 24c0-2.9 2.6-5.5 5.6-5.5 3.2 0 5.8 2.5 5.9 5.6z"/><path fill="#0f1d2f" d="M49.1 71.7c-.5 0-.6 0-.4-.5l.1-.3c.1-.4.6-.7 1-.5l.1.1-.2 1c-.2.2-.4.2-.6.2z"/><path fill="#1b1d1b" d="M48.1 59.8l.1-1.4c.1-.4.4-.7.9-.7s.7.3.8.7c.3.9.3 1.9 0 2.8-.1.5-.5.8-.9.8s-.8-.4-.9-.8v-1.4z"/><path d="M25.6 50.5c.2-.6.6-.9 1.1-1.1l-1.1 1.1z" class="st24"/><path fill="#060909" d="M27.9 72c0 .6-.4 1-1 1s-1.1-.4-1.1-1 .4-1 1-1c.7 0 1.1.4 1.1 1z"/><path fill="#070d12" d="M27 70.3c-.5 0-.8-.3-.8-.8s.3-.8.9-.8c.4 0 .8.4.8.8-.1.5-.5.8-.9.8z"/><path fill="#030809" d="M37.1 70c0-.6.5-1.2 1-1.2.6 0 1 .5 1 1.3 0 .6-.4 1.1-.9 1.1-.7 0-1.1-.5-1.1-1.2z"/><path fill="#040b0d" d="M37.2 60.6c0-.6.4-1.1 1-1.1s1 .5 1 1.2c0 .6-.4 1.1-1 1.1-.6.1-1.1-.5-1-1.2z"/><path fill="#081623" d="M16.4 58.3V60c0 .3-.1.4-.4.3h-.7c-.3 0-.4-.1-.2-.4.3-.4 1-1.4 1.3-1.6z"/><path fill="#3e413a" d="M32.7 21.8c1.2 0 2.2.6 2.5 1.7.2.6.2 1.2-.2 1.9-.5.9-1.3 1-2.2 1.2-1 .2-1.5-.4-2.1-1-.6-.6-.7-1.2-.5-2 .1-.7.6-1.2 1.2-1.5.3-.2.8-.3 1.3-.3z"/><path fill="#777a73" d="M31 24.6l.1-.4c.1-.2.2-.3.4-.2.2.1.5.1.4.5-.1.3 0 .6.1.9.1.2 0 .3 0 .4-.2.3-.3.3-.5.1-.3-.5-.5-.9-.5-1.3z"/><path d="M63.8 93c0-.7.8-.8.7.3-.2 2.1-.7 2.7-1.2 3.4-.7.8-1.8 1.7-2.1 1-.3-.5.9-.5 1.7-1.5.7-.9.9-1.6.9-3.2z" class="st17"/></svg>