<svg xmlns="http://www.w3.org/2000/svg" id="图层_1" viewBox="0 0 38.9 100"><style>.st0{fill:#060a2c}.st3{fill:#b3b3b3}.st4{fill:#272727}.st8{fill:#484848}.st17{fill:#d8d8d8}.st27{fill:#080d47}.st32{fill:#0e165b}.st34{fill:#3a3a3a}.st35{fill:#04082b}.st50{fill:#090d53}.st51{fill:#040a4e}.st54{fill:#050b5c}.st62{fill:#0b0e3b}.st63{fill:#0f1657}.st66{fill:#12216c}.st70{fill:#c0c1c7}.st90{fill:#7c5556}.st125{fill:#072383}</style><path d="M9.2 3.9l-7.4 53 28.3.4 6.3-54.6z" class="st0"/><path fill="#fdfdfd" d="M15.9 94.4l2.4-.3 11.7.6 4.4.9-.8 3-3.1 1-4.8.3-4.8-.2h-1.3l-.8-.1-4.2-.6-.5-3.2z"/><path fill="#171717" d="M37.4.3c.2.1.3.3.4.6V1c-.3 1-.3 2-.4 3l-.7 5.9-.6 5.6-.7 5.8-.6 5.7-.6 5.4-.6 5-.6 5.4-.8 6.8-.7 5.9-.5 4.6c-.1.7-.1 1.5-.9 1.9-.6.2-1.3.2-2 .2-2.1-.2-4.3 0-6.4-.1-1.7-.1-3.4-.2-5-.1-3.6.1-7.1-.2-10.7-.1h-.3c-.6-.2-1.3-.1-1.9-.1H1.4l-.2-.1c-.2-.5 0-.6.5-.7l2.2-.1h.2c1.6-.3 1.4-.1 1.8-1.7.2-.8.3-1.6.6-2.3l1.4-4.5.4-1c.3-.5.2-.7-.4-.9l-.7-.2c-.1-.1-.2-.2 0-.3l1-.1h4c.3.1.5.1.8 0h13.9c.7 0 .9-.1 1-.8l.2-1.5.3-3 1.2-9.6v-.2l.6-5.4.1-1 .1-.7c.2-.3.1-.7.1-1v-.2l.2-1.7.2-2.1c.3-1.7.3-3.5.6-5.2l.2-1.7.1-1.4.2-2.7v-.2c.1-.6-.1-.7-.7-.7l-2.5.1-7.2.3a4 4 0 0 1-1.9-.1c-.2-.1-.2-.3-.1-.4.2-.4.2-.7-.1-1a.8.8 0 0 1-.2-.8l.4-.7c.2-.4.3-.8.2-1.3 0-.5-.5-.7-.8-1.1 0-.4.3-.4.6-.4.4 0 .8-.2 1.1-.4.3-.2.5-.4.6-.8 0-.4.3-.6.6-.8 1.2-.3 2.5-.2 3.7-.3l8.9-.5c.5 0 1.1.1 1.6 0 .7-.1.8-.4.8-.7 0-.5.1-1-.1-1.5.2-.2.3-.2.5-.1z"/><path d="M18.5 96.5l-2.7-.4c-.1-.2.1-.4.3-.5.6-.3 1.1-.7 1.8-.8.5-.1.2-.5.4-.8V64.7c0-.2 0-.5-.3-.6.2-.2.4-.1.6-.1h2.5c2.3-.1 4.6.1 6.9.1l.5.1.2.2.1.8v29.3l-.1.2c-.7-.5-1.4-.3-2.2-.3h-7.4l-.4.1c-.1.2 0 .3.2.3.8.4.5 1.1.4 1.7-.3.1-.5.1-.8 0z" class="st3"/><path d="M22.2 3.5l-.4 1c-.3.7-1 .9-1.7 1-.3 0-.6 0-.7.3l-.4.1c-1-.1-1.7.3-2.2 1.1-.4.8-.4 1.4.1 1.8.4.5 1.2.6 1.9.3.3-.1.5-.4.9-.3l.1.7c.5.7.5.9 0 1.6-.2.3-.5.3-.8.3l-6.7.2h-.1c-1.3 0-1.4.2-1.5 1.4l-.2 1.6-.7 4.9-1.2 8.6-.1.5-.6 4.5-.1.5-.3 2.3-.6 3.8L6 46l-.2 1.4-.1.4-.2 1.3c-.1.9-.1.9.8.9l.5.1h.3l1.2.4c.5.2.5.5.3.8-.6.7-.6 1.6-.9 2.4v.1c-.6.8-.4 2-1 2.8l-.1.2c.1.9-.4 1.7-.5 2.5l-.3 1.2c0 .2-.3.2-.5.3-1.1.3-2.3.4-3.5.3-.3 0-.6 0-.7.5 0 .1-.1.1-.1 0-.8-.4-1-.9-.9-1.8l1.1-7.6L3 39.8l1.8-12.6 1.8-12.5L8.3 3c.1-.3.1-.7.4-.9l.2.1c.1.4-.1.8-.1 1.3-.1.3 0 .5.4.4h.6l8.1-.4c1-.1 2.1 0 3.1-.2.4 0 .8-.1 1.2.2z" class="st4"/><path fill="#6d6d6d" d="M37.8.9s.1.1 0 0c1.3 1.5.9 3.1.7 4.8l-.6 5.1-.1 1.8-.3 3.5-1.2 10.2-2.1 18.6-1.8 16.2-.2.9c-.1.2-.1.4-.3.5-.5-.5-1.2-.8-1.1-1.6l.7-5.8.6-5.5.8-6.9.7-5.7.5-4.7.5-4.7.6-5.6.5-4.8.5-4.7.4-3.5.4-3.7c.4-1.6.5-3 .8-4.4z"/><path fill="#ededed" d="M32.2 62l1.9-17.1 1.8-16.3c.1-.8.1-1.6.3-2.3.3-.2.4 0 .5.2l.5.4-.4 4.3-.4 3.7-.6 4.8-.4 3.6-.6 5.1-.5 4.7-.6 4.9-.4 3.7c-.1.6 0 1.2-.3 1.8l-.8-.7c0-.4-.1-.6 0-.8z"/><path fill="#ebebeb" d="M30.1 64.4c-.2.4-.1.8-.1 1.2v4.5l.1 2.8V85c-.2 3-.1 5.9-.1 8.8-.2.3-.5.3-.8.4-.3 0-.5-.1-.5-.5v-.5-28c0-.3-.1-.6.1-.8a1 1 0 0 1 1.3 0z"/><path d="M.9 61.7h.2l2.7.1h1.7l11.1.1 2.8.1c1 0 1.1.3.6 1.2-.6.3-1.2.1-1.8.1-4.1 0-8.1-.2-12.2-.1l-3-.1-.7-.2c-.4-.5-.9-.8-1.4-1.2z" class="st8"/><path fill="#909090" d="M2.4 62.8l10.8.1 5.1.1h1.2c.3 0 .4.1.4.4 0 .4.2.5.6.5.2 0 .5-.1.6.3-1 0-2.1.1-3.1-.1l-12-.2H4.7c-1 .1-1.7-.3-2.3-1.1z"/><path fill="#e1e1e1" d="M37.3 26.8c-.3.2-.4 0-.6-.2-.1-.2-.2-.4-.5-.4l.5-4.8 1-9.2.2-1.5c.7 0-.1 10-.1 11a335.5 335.5 0 0 0-.5 5.1z"/><path fill="#a0a0a0" d="M19.3 96.4c0-.2-.2-.5-.1-.7.1-.3 0-.6-.4-.7-.3-.1-.4-.3-.4-.6 0-.2.1-.3.3-.3 1 .2 2 0 3 .1 1.8.2 3.6-.1 5.4.1l.6-.1c.5-.2.7 0 .7.5.2.2.1.4 0 .4-.4.2-.5.6-.6 1.1l-.2.3h-.8v-.6c.1-.6.1-.6-.5-.6h-2.8c-1 0-2 .1-3-.1-.4-.1-.6.2-.5.5l.1.6c-.1.2-.3.2-.5.2 0 .2-.2.2-.3-.1z"/><path fill="#a1a1a1" d="M22 99.9h-.8c-.5 0-.7-.3-.6-.7.1-.9-.1-1.7.1-2.6.2-.1.4-.2.6-.1l3 .1.4.1c.3 1 .1 1.9.1 2.9 0 .2-.2.4-.4.3H22z"/><path fill="#424242" d="M8.9 2.2l-.1-.1c.3-.5.8-.6 1.4-.6l9.7-.5 16.4-1c.4 0 .8 0 1.1.3-.2 0-.3-.1-.5.1l-.3.1-5.8.3-7.3.4-5.2.3-5.6.3h-.2c-1.3 0-2.5 0-3.6.4z"/><path fill="#d3d3d3" d="M18.3 94.1c.3 1-.7.9-1.1 1.2-.4.3-1 .4-1.4.8-1.1 0-1.1 0-1.1 1.1v1.2c0 .8-.1.8-.8.5l.1-2.4c0-.2 0-.5-.2-.5-.3 0-.2.3-.2.5v1.4c0 .2 0 .5-.2.7-.2-1-.1-1.9-.1-2.9 0-.3.4-.4.7-.5l1.7-.7h.6l.8.2c.9.2.9.2 1.2-.6z"/><path fill="#d4d4d4" d="M27.7 96.5l.1-1c0-.2.1-.4.4-.4.3 0 .3-.2.3-.5v-.7-28.8-.7l.2-.1v29.2c0 .4 0 .7.6.5l.6-.1c.2.9.1 1.1-.8 1.2-.4 0-.4.3-.4.6.1 1 .1 1-1 1 .1-.1.1-.1 0-.2z"/><path fill="#8b8b8b" d="M24.5 96.7l-3.9-.1h-.3l-.2-.4c-.1-.3-.2-.7 0-.9.2-.2.5-.1.8 0 .9.2 1.9 0 2.9.1 0 1.1 0 1.1 1.1 1.1.4 0 .9-.1 1.3.1.1 0 .1.1 0 .2H26c-.5.1-1 .2-1.5-.1z"/><path d="M24.5 96.7H26c-.2.3 0 .6 0 .9v1.9c0 .3-.2.5-.4.5-1.2 0-2.4.2-3.6-.1h1.8c.6 0 .8-.1.7-.7v-2.5z" class="st17"/><path fill="#939393" d="M33.1 99.2l-1.4.3c-.2-.2-.2-.4-.2-.6v-1.8c0-.3.1-.7.4-.8l1.1-.2c.4.6.2 1.3.3 1.9-.1.4 0 .8-.2 1.2z"/><path fill="#929292" d="M28.8 64.4h-.1-.1v-.1c.2-.3.5-.2.7-.2.4 0 .6-.1.7-.5 0-.5.5-.4.8-.5l.5-.2.3-.3c.1-.1.3-.2.4-.1.3.4.8.6.9 1.2-.3.5-.8.7-1.3.7h-2.8z"/><path fill="#b5b5b5" d="M20.2 96.6h.3c.2.8.1 1.7.1 2.6 0 .4.1.6.5.7-.5.1-1-.1-1.5-.1a5 5 0 0 1 .1-3.2h.5z"/><path fill="#e2e2e2" d="M33.3 96c0-.1 0-.1 0 0 1.3-.3 1.3-.7 1.3.8v1.1c0 1 0 1-1 1.2-.4-.5-.3-1-.2-1.6l-.1-1.5z"/><path fill="#d6d6d6" d="M19.7 96.6l-.1 3.2h-.1c-.9 0-.9 0-.9-.9 0-.8.1-1.6-.1-2.4h.7l.5.1z"/><path fill="#d7d7d7" d="M31.1 99.5c-.7.2-.7.2-.7-.5v-1.9c0-.8 0-.8.8-.8l.2.5-.1 2.2-.2.5z"/><path fill="#919191" d="M13.5 98.4v-2.5c0-.1-.1-.4.1-.4s.5.1.5.3v2.9l-.2.1-.4-.4z"/><path d="M33.3 96c.4.2.4.6.3.9v2.2c-.2 0-.4.2-.6.1l-.1-3.1c.1-.2.3-.1.4-.1z" class="st3"/><path fill="#b4b4b4" d="M31.1 99.5l.1-3.2c.2 0 .5-.2.7-.1-.3.3-.2.7-.2 1.1v2.1l-.6.1z"/><path fill="#b9b9b9" d="M32.9 63.6c-.2-.4-.8-.6-.9-1.2v-.1l.2-.4c0 .3.2.4.3.6.2.2.6.4.6.7 0 .2 0 .4-.2.4z"/><path d="M26.2 96.7c0-.1 0-.1 0 0 .3-.3.5-.3.7-.1h.6c-.4.2-.9.1-1.3.1z" class="st17"/><path d="M10.4 14.6l.4-2.7c0-.2.2-.3.5-.4 1.1-.2 2.2-.1 3.3-.2l4.6-.2.7-.1c2.7 0 5.4-.2 8-.3 1.3 0 2.5 0 3.8-.2.8-.1.9.1.7.9l-.4-.2-.4.1v.3c.1.1.2.1.4 0 .1-.1.2-.2.3-.1l-.2 2.7c-.3.1-.4-.1-.5-.3-.2-.1-.3.1-.5.1-.7 0-1.3 0-1.9.2h-.5c-.4-.3-.7-.2-1.1 0l-1.5.5h-.3c-.4-.3-.7 0-1.1.1h-.4c-.2 0-.5.1-.5-.2 0-.3.2-.4.5-.4-.2-.1-.4.1-.6.2l-.6.1c-.4-.4-.9-.3-1.3 0-.5 0-1-.1-1.5.1-.5-.3-.9-.3-1.3.1-.4-.1-.8.3-1.2-.2l-.7.1-1.3-.1h-.7c-.5 0-.9.2-1.4 0-.2-.1-.3 0-.4.1-.2.2-.4.3-.7.1-.3-.2-.4.1-.5.3-.2.4-.4.5-.8.2-.3.1-.7-.2-.9-.6z" class="st27"/><path fill="#04093d" d="M26.7 50.1h-.4l-.7-1.1-.5-.9c-.2-.2-.3-.4-.5-.1l-.4.2c-.8-.3-1.6.4-2.4 0-.4-.2-.9.2-1.3.4-.4-.6-.2-1.2-.4-1.9v-.3l.2-.1c.6-.1 1-.3.8-1 0-.2.2-.3.4-.4l.3-.2c0-.2-.2-.4-.3-.3-.9.1-.9-.5-1.1-1.1-.1-.3 0-.5.3-.5.4 0 .7-.3.9-.5 1.6-.1 3.1.1 4.7-.1l.2-.1c-.1.2-.3.2-.6.2h-5.8l-.6-.1c-.2-.6 0-.8.7-.8h5.4c.3 0 .7 0 1-.2.5-.4.9-1.5.7-2.1-.1-.2-.2-.2-.4-.2l-.9-.1c-.2-.3 0-.5.2-.7.4-.2.7 0 1.1-.1h-.6c-.2-.2-.1-.3 0-.4l3.2-2.6-.4 3.3-.7 5.4-.5 4.1c-.3.1-.5-.2-.7-.4l-1.2-1.5c0 .3.1.5-.1.7-.2.2-.4.2-.6.2.3 0 .5.1.7.3.1.2.2.5-.2.6-.5.1-.4.3-.3.7l.7 1.4c.1-.1.3.1.1.3z"/><path fill="#d0d0d0" d="M22.2 3.5l-8.4.4-4.1.2c-.2-1 .1-1.5 1.1-1.7l2.6-.1 5.7-.3 7.5-.4 5.2-.3c1.1 0 2.1-.2 3.2-.1.8 0 1 .1 1.1.9 0 .2.1.3.3.4l.4.2-5.3.3-9.3.5z"/><path fill="#0b1968" d="M31.2 14.1c.2 0 .3-.5.6-.2l-.5 1c-.1.3-.1.6.3.7l.4.4c-.2.5 0 1-.2 1.4-.2 1.9-.3 3.8-.7 5.7l-.2 1.7c-.2.3-.3.6-.2 1v.7c-.3.3.1.7-.1 1.1l-.1.6c-.3.2-.5 0-.8-.2l-1.3-1.7v-.2l.4-.1c.5 0 .7-.4.5-.8l-.2-.9c0-.4-.4-.5-.6-.8l-.3-.6c-.2-.5-1-.6-.7-1.4.2-.5.1-1.1.4-1.5l-.1.2c-.1.2-.1.6-.4.5-.3-.1-.3-.4-.3-.7a1 1 0 0 0-.1-.9c-.1-.2 0-.3.1-.4.2-.2.4-.5.5-.9.1-.3.4-.7-.3-.6-.2 0-.2-.3-.2-.4.1-.6.2-1.2-.3-1.7v-.3h.3l.1.1c.2.4.7.6.8 1.2 0 .2.3.4.4.5h.5l.2-.3c-.1-.2-.3-.1-.4-.1h-.1c-.2 0-.4 0-.6-.2v-.2c.2-.2.4-.1.6-.1-.1-.1-.3-.1-.3-.4.1-.2.3-.1.5-.1.4 0 .7.1 1 .4-.4-.5-.8-.9-.4-1.6.3.2.2.6.5.8.2-.1.1-.5.4-.4.2 0 .1.3.2.4.3 0 .2-.5.7-.7z"/><path fill="#e5e5e5" d="M36.7 2.7h-.4c-.5.1-.7-.1-.5-.7.1-.4-.1-.6-.5-.6l-4.6.2-2.4.1-3.7.2-6.9.4-4.3.2c-1 .1-1.9 0-2.9.2-.5 0-.7.3-.7.9l-.1.5c-1.2.1-1.2.1-1-1l.2-.8c.3-.4.7-.5 1.2-.5l24-1.3c1-.1 1.9-.3 2.9 0 .3.3.3 1.9.1 2.2h-.4z"/><path d="M28.5 26.4c.6.4.7 1.1 1.3 1.5.2.2.4.4.7.4 0 1.3-.3 2.6-.4 3.9l-.3 2.6c-.3.6-.9.9-1.4 1.3l-1.9 1.6c-.1.2-.3.1-.5.1-.3-.3 0-.5.2-.7a10 10 0 0 0 2.4-2.2l.7-.9c.2-.3.3-.6.1-.9-.2-.3-.6-.4-1-.4-.2 0-.4.2-.5-.1-.1-.2.1-.4.2-.5l.8-.7-1.2 1c-.2.2-.4.3-.6-.1-.2-.4-.6-.5-.9-.1-.4.7-1 1.2-1.6 1.6-.1.1-.2.2-.1.3.3.3.1.5 0 .8l-.3.9c0 .3-.2.5.2.8.2.2.2.6.1.9-.1 0-.2.1-.2 0l-.7-.5c-.7-.2-.9-.7-.8-1.4-.7.4-1.1 1.2-1.7 1.7h-.6c0-.5 0-1.1.4-1.5l.3-.6.6-.3c.8.3 1.9-.4 2-1.3.1-.3.3-.4.5-.6a8.5 8.5 0 0 0 2.6-4.6c.1-.3.2-.6.6-.7.2-.1.3-.3.3-.5l.1-.6c.2 0 .4 0 .6-.2z" class="st32"/><path fill="#303030" d="M31.6 62.7l-.3.2c-.6 0-1-.5-1.3-.9.5-.4.6-1.1.7-1.7l.9-7.7.8-6.6.7-6.9.7-5.5.5-4.7.7-5.7.5-4.6.7-5.7.4-3.5.6-4.8.3-2.6c0-.3 0-.7.3-.9.2 1.2-.2 2.4-.3 3.6L37 9.4l-.7 5.8-.5 4.7-.6 5.5-.5 4.8L34 36l-.5 4.6-.7 5.8-.5 4.6-.7 5.9-.4 3.5-.1.6c-.1.4.1.7.3 1 .1.2.3.4.2.7z"/><path d="M7.1 50.1H7c.1-.7.7-1.2 1.1-1.7L9.3 47c.3-.3.7-.5 1.2-.2l1.9.8c.5.3.7.6.6 1.1-.2.5-.2.9-.6 1.3l-5.3.1z" class="st0"/><path d="M30.1 62c.4.3.8.8 1.3.9-.1.2-.3.2-.4.3-2.1.3-4.3.2-6.4.1-1.2-.2-2.4-.1-3.6-.1-.3 0-.6.1-.9-.2.2-1.1.2-1-.9-1.1-.8 0-1.7.1-2.5-.1l10.5.1c.9.1 1.9.2 2.9.1z" class="st34"/><path d="M20.5 48.6c.1-.4 1-.8 1.4-.5.5.2 1 .3 1.4-.2.1-.1.2-.1.4 0 .4.3.7.3.9-.2.1-.2.3-.3.4 0 .5.7.9 1.6 1.3 2.4h-5.7c-.2-.5-.4-1-.1-1.5z" class="st35"/><path fill="#040b5b" d="M18.1 50.1h-.2c-.2-.3-.2-.6-.2-1v-.8c0-.8-.1-.8-.8-.8H16c-.2-.2-.1-.4-.1-.5l.9-4.1c0-.2.1-.5.3-.7.4-.1.7-.2 1.1.1.2.6.1 1.2.1 1.8l-.1 3.2.1.4a4 4 0 0 1-.2 2.4z"/><path fill="#040c5d" d="M20.5 48.6l.1 1.5h-.5c-.3-.5-.3-1.1-.4-1.7-.1-.9-.2-1-1.1-.9-.2 0-.5.2-.6-.1-.1-1.7.1-3.4.2-5 .3-.2.6-.2.9-.1.4.3.3.6.4 1 .1 1.2.2 2.3.5 3.4.1.3.1 0 .2 0 .2.4.1.9.2 1.4l.1.5z"/><path d="M26.7 50.1l-1-2c-.2-.4-.1-.6.2-.8.1-.1.3.2.4-.1 0-.2-.1-.3-.3-.5-.2-.1-.7.2-.6-.2 0-.4.4.1.7-.1.2-.1.4-.3.3-.5 0-.1-.2-.3 0-.5.7.7 1.1 1.6 1.9 2.2a15 15 0 0 0-.2 2c0 .3-.2.4-.5.4l-.9.1z" class="st35"/><path fill="#040936" d="M15.8 47.5l1.5-.1c.4 0 .5.1.5.5v2.2h-2.5c-.2-.2-.1-.4-.1-.7l.4-1.7.2-.2z"/><path fill="#413625" d="M32.9 8c-.5.1-.7 0-.5-.6l.2-1.6c0-.1 0-.3.2-.3.5.1 1.1-.2 1.6 0 .7.2.9.9.6 1.5-.5.9-1.3.9-2.1 1z"/><path fill="#040931" d="M18.2 47.5c.4-.4.9-.1 1.4-.1l.2.2.4 2.5h-2.1c.1-.8.2-1.7.1-2.5v-.1z"/><path fill="#dfdede" d="M17.6 54.3c.1.5 0 1-.1 1.5-.1.1.1.4-.2.4h-2.1c-.1-.4.1-.6.4-.7.2.1.4.3.5 0 .1-.2-.1-.3-.3-.2l-.3.1c-.4-.2-.5.2-.6.5-.1.2-.2.5-.6.4H14c-.4-.1-.6.1-.3.6-.4-.3-.3-1.8.1-2.7.1-.1.2 0 .3.1 0 .2 0 .3.2.3 1 0 2.1.2 3.1-.1 0-.2.1-.2.2-.2z"/><path fill="#040831" d="M15 50.1h-2a.3.3 0 0 1 0-.4l.9-2.1c.6-.4 1.2-.2 1.7.1v.6c-.2.6-.2 1.2-.6 1.8z"/><path fill="#3a2f20" d="M30.1 8c-1 0-1.4-.7-1-1.5.3-.6.8-.9 1.6-.9.4 0 .5.2.5.5l-.3 1.5c-.2.4-.6.4-.8.4z"/><path fill="#4c5457" d="M16.8 6.9c.7-1 1.6-1.4 2.7-1.1.4.2.8.5.8 1 0 1.1-.4 1.9-1.4 2.4-1 .4-2.1-.1-2.3-1.1-.1-.4.1-.8.2-1.2z"/><path fill="#464e51" d="M24.1 6.2c.6-.7 1.5-1.1 2.2-.8.3.3.7.3.9.7.4.8.1 1.9-.8 2.4-.3.2-.7.4-1.1.4-1.3 0-2-1-1.5-2.2.2-.2.3-.3.3-.5z"/><path fill="#aeaeae" d="M11.5 60.2c0-.9.1-1.1.7-1 .2 0 .3 0 .4.2l.2.2c.4-.7 1.1 0 1.6-.2h1.1c.3 0 .5.2.3.5-.2.2 0 .4 0 .6-.1.1-.2.1-.2 0-.2-.1-.3-.7-.6 0 0 0-.7.3-1 .1-.2-.2-.4-.1-.6 0-.1 0-.2.1-.2 0-.4-.3-.8 0-1.1 0-.2-.3.2-.5.1-.8-.3-.2-.3.1-.4.3l-.3.1z"/><path fill="#979797" d="M15.6 60.3h.2l.2-.1c0-.9.5-1 1.2-.9.2.2 0 .4.2.6.1 0 .1-.2.3-.1l.1.1v-.1c-.1-.2-.2 0-.3-.1-.2-.1-.1-.2 0-.3.3-.2.7-.1 1 0 .3.1.1.3-.1.3-.1.1-.1.1-.2 0-.1.8-.6.8-1.2.7-.4 0-.9.2-1.4-.1z"/><path fill="#717d7d" d="M24.1 6.2c.2.2 0 .3-.1.4-.3.5-.3 1.1 0 1.6.4.5.9.6 1.5.6 1.2-.1 2.1-1.4 1.7-2.5-.2-.5-.6-.7-1.1-.8l-.1-.1h.2c.9.3 1.3.8 1.2 1.7-.1 1.2-1.6 2.3-2.8 1.9-1-.4-1.3-1.6-.5-2.8z"/><path fill="#828f92" d="M16.8 6.9v.3c-.3.6-.2 1.2.3 1.7.4.4 1.3.5 1.8.2.8-.4 1.2-1 1.3-1.9l.1-.4c.2.8-.1 1.4-.6 2-.4.3-.9.6-1.5.7-.6 0-1.2-.1-1.5-.7-.4-.7-.3-1.3.1-1.9z"/><path d="M31.9 15.9c-.1 0-.1-.1 0 0-.2-.4-.9 0-.8-.6 0-.6.1-1.1.7-1.4 0 .3.1.4.4.5 0 .5-.2.9-.1 1.4l-.2.1z" class="st50"/><path d="M13.8 47.6c-.1.7-.5 1.3-.7 2l-.1.5c-.2.1-.4.2-.6 0l.5-1.3c.2-.5.2-1.1.6-1.5.2-.1.2.1.3.3z" class="st51"/><path fill="#c2141b" d="M15.4 55.3l.3-.2c.3.3 0 .3-.1.4-.2.2-.4.4-.4.7-.2.3-.2.8-.8.7-.1 0-.3.1-.4-.1-.1-.2.1-.3.2-.4l.1-.2.5-.5c.1-.2.3-.4.6-.4z"/><path fill="#828282" d="M13.9 54.2l-.2-.1.2-.1h3.2c.2 0 .4.1.4.4l-.1.1-3-.1c-.1 0-.3 0-.5-.2z"/><path d="M15 50.1l.5-2.4.1-.2.3.1c-.1.8-.5 1.5-.5 2.4l-.4.1z" class="st54"/><path fill="#c2c3c7" d="M32.3 11.6c-.2.2-.4.6-.8.3-.2-.1-.2-.4-.1-.6.1-.2.3-.2.5-.2.3 0 .4.1.4.4.1.1.1.1 0 .1z"/><path fill="#a4a4a4" d="M17.2 56.2c.2-.1.1-.3.2-.4 0 .8-.3 1.1-1.1 1.1l-1.2-.1c.5-.3.9-.1 1.4-.1.4 0 .6-.1.7-.5z"/><path fill="#a7292b" d="M12.4 59.5c.2.4-.3.6-.3.9-.2 0-.6.3-.6-.3l.3-.3c.2-.1.3-.4.6-.3z"/><path d="M5.6 61.8H1.7l-.4-.1h3.8c.1-.1.3-.1.5.1z" class="st4"/><path fill="#4c4c4c" d="M17.5 59.4c-.1.6.4-.1.4.2l-.1.7c-.3-.2 0-.4-.1-.5-.3.1-.1.5-.5.5v-1l.3.1z"/><path d="M30.7 26.5c0-.4 0-.7-.2-1-.3-.5.4-.3.4-.6-.1.5 0 1.1-.2 1.6z" class="st32"/><path d="M31.9 15.9l.1-.1c-.1.5 0 1.1-.2 1.7 0-.6-.1-1.1.1-1.6z" class="st27"/><path d="M30.6 27.7l-.1-.6c-.2-.3 0-.3.2-.5 0 .4.1.7-.1 1.1z" class="st32"/><path fill="#959595" d="M18.2 59.8h.2l.1.8c-.4-.3-.3-.6-.3-.8z"/><path fill="#747474" d="M24.4 63.2h6.5l-.4.1c-.3 0-.4.1-.4.4.1.4-.2.5-.5.5s-.7-.1-1 .1h-3.5l-3.9-.1c-.3-.2-.7-.1-1-.1-.3 0-.4-.1-.3-.4.2-.4-.1-.5-.5-.5-.3 0-.7.1-1-.1H21l2.7.1h.7z"/><path fill="#f8f8f8" d="M28.6 64.4h.1v29.8l-.1.4V80.9 64.4z"/><path d="M5.9 46l.6-4.2.8-5c.1-.3-.1-.7.2-1 .2.1.2.2.2.4.1.4.3.6.7.6.5 0 .8.5 1.1.8.1.3-.3.4-.5.6.2 0 .3-.6.7-.3.1.2 0 .4-.2.6-.7.4-.9 1.1-1 1.9 0 .6 0 .6.5.6h3.5c.6 0 1.2 0 1.7.3l.9.1c.2 0 .5 0 .6.2.1.3-.1.4-.3.6-.6.1-1.2.1-1.9-.2-.5-.2-1-.1-1.6-.1H9h3.1c.3.1.2.3 0 .4-.2.3-1.4.6-1.8.5-.1 0 0 .1 0 0h.1c.3.1.7 0 .8.3.1.3-.2.6-.4.8-.5.4-.7 1-.9 1.6-.2.5-.5 1-1 1.3l-.1-.1.2-.7c0-.2.1-.4-.2-.4-.2-.1-.3.1-.4.2-.3.4-.6.7-1.1.9-.4.1-.7.6-1 .8-.2.1-.4.3-.6.1l.1-.2.2-.4c.6-.6.6-.6-.1-1z" class="st62"/><path d="M7.8 33.1l.5-3.8.1-.7c.2 0 .2.1.3.3.1.1.2.2.5.1l.8-.1c.3 0 .4-.2.4-.4l.2-1 .2-.3c.3-.3.1-.6 0-.9-.4-1.1.1-2 .6-2.8.3-.5.8-.8.7-1.5l.1-.3c.8-.5.5-1.5 1-2.1-.2-.4.1-.9-.1-1.3-.2-.3 0-.7.3-.7.4-.1.4-.3.4-.6 0-.7.3-1.3 1-1.6.3.1.7.1 1-.1.1-.1.3-.1.4.1.1.2.1.3 0 .4l-.7.8c-.2.2-.4.3-.1.6.2.2 0 .5-.2.7-.4.4-.6.9-.3 1.5.1.3 0 .6-.4.7-.3.1-.5.3-.3.7.1.2 0 .4-.1.5-.6.4-.6 1-.9 1.6-.1.2-.1.4-.3.5-1.1.7-1.5 2.4-1 3.5-.1.8-.4 1.6-.4 2.5 0 .6 0 1.2.2 1.7.1.2.2.5-.1.7-.4.3-.3.6-.1 1v.3c-.3.3-.7.3-.9.7l-.2.1c-.6-.3-.7.2-.8.6-.2.4-.5.5-.7.1-.4-.6-1-.9-1.1-1.5z" class="st63"/><path fill="#0f1861" d="M14.8 15.5c-.6.5-.9 1.1-.8 1.8 0 .2.1.5-.4.3-.1-.1-.3.1-.4.2-.1.2 0 .4.1.5.2.2.3.3 0 .4l-.1.2c.5.9-.4 1.5-.4 2.3l-.3.2c-.2.1-.4.3-.3.4.2.6-.3.8-.5 1.2l-.8 1.3c-.4.8 0 1.5.1 2.2 0 .2 0 .4-.2.5-.3-.1-.4.2-.5.2l-.1.1h.3l-.2 1.1c-.1.3-.2.8-.7.4h-.2c-.9.2-.9.2-1.1-.6l.1-.4c.8-.1 1.2-.8 1.7-1.3.1-.1.1-.2 0-.2-.3-.4-.1-.9-.3-1.4-.1-.3 0-.5.2-.7.5-.4.8-.9.3-1.5v-.3h.3c.4.4 0-.3.2-.1 0-.4-.3-.6-.6-.8-.5-.4-.6-.9-.5-1.5.1-.2 0-.4-.1-.6l-.2-.3.3-2 .4-2.8c.3.4.9.5 1.2.9.1.2.4.1.5-.3.1-.5.3-.6.6-.4-.1.2-.3.4-.3.7 0 .1-.1.3 0 .4.1.1.3 0 .4 0l.1-.1c.2-.1.4-.5.6-.2.2.2-.1.4-.2.6.4-.1.6-.4.9-.6.5.2.7-.2.9.2z"/><path fill="#1b2a72" d="M7.8 33.1l1.1 1.2c.3.3.4.3.6-.1.1-.3.3-.5.2-.8l.5.2c.2.1.4.1.5-.1.2-.4.5-.4.9-.5.3 0 .4.3.5.5.3.4.6 1 1.3.9.2.5.1.6-.6.5.2.4.2.9.2 1.3s0 .8.3 1.1v.3H13c-.2-.2-.3-.5-.7-.6-.2.1 0 .5-.2.6-.1.1-.3.1-.4 0a6.6 6.6 0 0 0-1.9-1.5l-.9-.2c-.2 0-.3 0-.4-.2-.1-.2 0-.3.2-.4.4-.2.2-.4 0-.7-.3-.4-.8-.7-1-1.2l.1-.3z"/><path d="M11.1 22.6c-.2.3.2.3.2.5-.3 0-.3-.4-.7-.4 0 .4.5.4.4.9-.1.4-.3.7-.6.9l-.3.3c.2.5 0 1.1.3 1.5.2.3.2.4-.1.6-.2.2-.5.3-.5.7 0 .3-1 .6-1.2.4 0-1.1.3-2.1.4-3.2a90.8 90.8 0 0 1 1-5.4c.1.3.2.5.1.9-.2.5.1.9.4 1.3.2.4.5.6.6 1z" class="st66"/><path d="M5.7 47.6c.6-.1.8-.5 1.2-.9.2-.2.4-.4.8-.4s.4-.5.6-.7c.2-.1.2-.5.6-.3.3.1.4.2.3.5l-.1 1c-.4.8-1.1 1.5-1.6 2.2-.3.4-.5.8-1 1-1.1 0-1.1 0-1-1l.2-1.4z" class="st0"/><path d="M7.7 33.5l1.4 1.4c.2.3.2.4-.2.5-.2 0-.4.1-.3.3 0 .2.3.1.4.1.5-.1.8.2 1.1.4.6.4 1.2.7 1.5 1.4a3 3 0 0 1-2.1 0c-.5-.2-.8-.8-1.5-.7a.4.4 0 0 1-.4-.4l-.1-.6.2-2.4z" class="st63"/><path d="M6.5 50.1l2.6-3.2c.3 0 .4-.3.6-.5l.4-.5.7-.7c.2-.2.4-.3.6-.2.3.1.3.3.3.6-.1.5.2.6.6.6.6.1 1.1.3 1.2.9v.1c-.4.4-.3 1.1-.7 1.5 0-.7-.3-1.1-1-1.3l-1.5-.6c-.5-.2-.7-.1-1 .2l-2.4 2.9c-.1.2-.2.2-.4.2z" class="st62"/><path fill="#473e2f" d="M14 6.4c.9 0 1.3.2 1.3.9.1.7-.5 1.4-1.3 1.5-1.2.2-1.3 0-1.1-1.1l.1-.4c.1-.9.1-.9 1-.9z"/><path fill="#42382d" d="M11.1 6.6c.4-.1.6.2.5.7l-.3 1.1A1 1 0 0 1 10 9c-.5-.4-.8-1.1-.5-1.6.4-.5.8-.8 1.6-.8z"/><path d="M5.9 46c.3.3.4-.1.6-.2.2.8-.2 1.2-.7 1.6l.1-1.4z" class="st0"/><path d="M31.6 62.7l-.5-.8c-.3-.3-.4-.6-.1-1 0 .4.3.5.5.7.2.2.5.4.5.7v.1l-.4.3z" class="st34"/><path fill="#757575" d="M26.9 96.5h-2.5c-.3 0-.7.2-.8-.2-.2-.4-.1-.8.2-1.1H27c.3 0 .5.1.3.4l-.4.9z"/><path d="M14.8 15.5c-.3-.2-.3.1-.5.2l-1.1.9c-.2-.5.3-.6.4-1-.2-.1-.3.1-.4.2-.3.3-.7.5-1 .2-.2-.3 0-.8.3-1.1l.2-.1.3.1c.8-.7 1.7-.2 2.6-.4.5-.1 1.2.2 1.8.2.6.2.4.8.4 1.2.2-.5 0-1 .3-1.5.1.3.2.6.6.3.1-.1.3.1.4.1.2.2 0 .4 0 .6 0 .3-.1.6.3.7.4.1.6-.1.8-.5.1-.3 0-.7.2-1 .5-.4 1-.2 1.6-.1.1.2.2 0 .3-.1.2-.2.5-.2.7.1.2.2.1.5-.1.7l-.5.4c-.1.1-.4.2-.3.4.1.2.3.1.4.1h.1c-.3 0-.6-.1-.2-.5.4-.3.8-.6 1-1.1l.6-.1.1.4.2.2c.4-.1.7 0 .7.5 0 .4-.4.6-.9.5.6.1.9-.2.9-.8v-.3c.3-.2.6-.8 1-.2h.2c.7-.4 1.4-.4 2.1-.7.2-.1.3-.2.5 0 .3.3.6.4.9 0 .1-.1.2-.2.3-.1.3.4.6.2.9 0 .2-.2.4.2.6.1-.2.2-.2.6-.2.9 0 .2 0 .5-.2.5-.3 0-.1-.3-.1-.5v-.2c-.3.2-.1.5-.2.7-.4-.2-.6-.5-.6-1-.2.5-.1.8.3 1.2.2.2.4.3.2.7-.3-.7-.9-.8-1.6-.8 0 .3.3.2.6.4l-1.1.1c.3.3.6.2.8.2.2 0 .4-.1.5.2 0 .2 0 .3-.2.4-.2.1-.3.4-.6.2s-.4-.5-.6-.8c-.1-.1.1-.3 0-.4-.2-.2-.2.1-.3.1l-.1-.2c0-.4-.4-.5-.7-.8.7.7.4 1.5.3 2.3.2-.1.3-.4.5-.1l.2.5c-.2.5-.3 1.2-.9 1.5.6.3.4.7.3 1.1-.1.2 0 .5.1.5.3.1.3-.2.3-.4s0-.3.2-.4l.3-.1v.3c-.5.5-.1 1.3-.6 1.9l.3.5c.4.3.5.7.7 1.2.4.4.5.9.2 1.4-.2.4-.1.8-.4 1.1v.1c.1.4-.1.5-.5.4-.3-.1-.2-.3-.3-.5l-.3-1.3c-.1-.4-.2-.7-.7-.6-.2 0-.4-.2-.5-.4-1.3-2.1-3.2-3-5.6-3.2-.2 0-.4 0-.5-.2-.2-.5-.6-.4-1-.3-1 .1-1.9.5-2.7.9-.2.1-.4.2-.4.4 0 .4-.2.6-.5.8a10.7 10.7 0 0 0-3.5 4.1l-.3.4c-.6-.7-.3-1.4-.1-2.1.1-.4.5-.7.5-1.2l.1-.2c.9-.2.7-1.1 1-1.6.3-.5.8-.8.6-1.5-.1-.1.2-.2.4-.3.4-.1.5-.3.3-.7-.3-.5-.2-.9.2-1.2l.4-.6c.1-.1.1-.2-.1-.2-.4-.1-.3-.3-.1-.5l.9-.9c.1-.1.2-.2.1-.3H16c-.6.3-.9.3-1.2 0z" class="st50"/><path d="M20.3 14.7c0 .4 0 .8-.2 1.2-.2.3-.5.5-.9.4-.4-.1-.5-.5-.4-.8l.2-.7c.5-.6.8-.6 1.3-.1zM24.8 14.9c.3.7-.1 1.3-.8 1.3l-.5-.2v-.3c.1-.1.2 0 .3.1.3.3.5.2.7-.1v-.5c-.1-.2-.3-.1-.5-.1s-.3.3-.5.1v-.5-.3c.3-.5.8-.2 1.3-.3-.1.4-.4.2-.5.3-.2 0-.5-.1-.5.3s.3 0 .4.1l.6.1z" class="st70"/><path fill="#bfc1c8" d="M23.1 14.6c0 .3-.1.6-.4.8l-.7.5c.3.1.6-.1 1 .2a2 2 0 0 1-1.3.1c-.2 0-.1-.3 0-.4l.8-.7c.2-.1.3-.3.3-.5l-.2-.2c-.2 0-.4 0-.5.2-.1.1-.1.3-.3.3-.2-.1 0-.3 0-.4.6-.4.9-.4 1.3.1z"/><path fill="#bdbfc6" d="M18 14.5l-.2 1.7c0 .1 0 .3-.2.2-.2 0-.1-.2-.1-.3l.1-.5c0-.3.2-.7-.3-.7v-.2c.3 0 .4-.3.7-.2z"/><path fill="#d2d3d5" d="M30.9 11.6c-.1.3-.3.5-.6.5s-.4-.2-.4-.4c0-.3.3-.5.6-.5s.4.2.4.4z"/><path fill="#b5b8bf" d="M11.7 12.4c0 .2.3.3.1.5l-.7.1-.1-.1c0-.2.2-.3.3-.3.2-.2.3-.4.4-.2z"/><path fill="#c3c5c9" d="M11.7 12.4l-.3.1c-.1-.2-.1-.4.2-.5.2 0 .3.2.1.4z"/><path fill="#303564" d="M15.6 42.2c.3-.6.3-.6-.3-.6-.5 0-1 .1-1.4-.3l-.5-.1H8.9c-.5 0-.6-.2-.5-.6l.1-.4c0-.8.3-1.5 1.1-1.8.8-.3 1.7-.3 2.5-.3h8.8l4.4.2c.2 0 .4 0 .5.2h1.3c.3 0 .4.1.3.4l-.1.9c-.1 1-.7 1.6-1.7 1.6H20c-.4 0-.7.1-.6.6-.2.2-.4.2-.6.2h-2a.2.2 0 0 1-.2-.2c0-.2.1-.4-.1-.4s-.3.1-.4.3l-.3.3c0 .1-.1.1-.2 0z"/><path fill="#090f4b" d="M25.9 38.5c-1.2 0-2.5.2-3.7 0-3.1-.5-6.2-.1-9.3-.2-1.1-.1-2.2.2-3.3.1l.1-.6c.4-.2.8-.1 1.1-.1l2.1-.1c2.2-.2 4.3.1 6.5-.1.9-.1 1.7-.1 2.6.3h3.1c.3 0 .6 0 .9.2l-.1.5z"/><path fill="#040b5f" d="M21.5 42.3c.2.5-.3.6-.5.5-.6-.1-.6.1-.3.5v.3c0 .3.1.6.6.4.3-.1.5.1.7.4.2.3.1.6-.2.6-.5 0-.5.3-.4.6.2.5 0 .7-.5.7l-.6.1a.5.5 0 0 1-.3-.5l-.5-3.3c0-.2-.1-.3.1-.4.6 0 1.3-.1 1.9.1z"/><path fill="#287f79" d="M21.5 42.3H17l-.3.1h-2.6c-.5-.3-1.1-.1-1.6-.4H8.2c.3-.3.5-.2.7-.2h4.5c.2 0 .4 0 .7.2.5.3 1.1.1 1.6.1h.4c.3-.2.5-.2.8 0 .9 0 1.8.1 2.7-.1h6.5c.5 0 .6-.6 1.1-.7-.2.5-.7.9-1.2.9l-4.5.1z"/><path fill="#267075" d="M26.1 37.9h-3.7c-.3 0-.5 0-.7-.2-.1-.2-.4-.1-.5-.1l-9.9.1-1.6.1-1 .7c.2-.5.6-.6.8-.9h2.6c.3-.2.5-.2.8 0h.4c.7-.3 1.4-.2 2.1-.3H20c.2 0 .5 0 .7.2h.7l.3-.1c.8.3 1.6.1 2.4.2l.4.1h.2c.4-.2.9-.2 1.3 0H27.7v.2c-.6.1-1.1 0-1.6 0z"/><path fill="#194f85" d="M19.2 42.3h.3l.6 3.7.1.4v.2c0 .2.1.4-.1.8-.6-1.7-.6-3.4-.9-5.1z"/><path fill="#0c2970" d="M25 47.2c-.7-.9-1-1.7-1.5-2.5l-.6-1.2c-.1-.2-.3-.4 0-.5.2-.1.4.1.4.3.2.9 1 1.5 1.1 2.4 0 .5.5.9.6 1.5z"/><path d="M28.5 26.3c-.1-.4 0-.9.2-1.1.4-.6.2-1 0-1.5.3.3.8.5.5 1.1l.2.4c.4.5.1.8-.3 1.1-.2.3-.4-.2-.6 0z" class="st32"/><path fill="#146fac" d="M28.8 22c.3-.5.8-.9 1.3-1.2.6-.4.2-1.1.6-1.6 0 1.2-.3 1.7-1.9 2.8z"/><path fill="#0f5d99" d="M28.2 17.9c.1.7.1.8-.2 1.3 0-.4-.1-.8.2-1.3z"/><path fill="#192167" d="M25.9 37.7h-1.3l-.1-.5v-.3c-.3-.5-.3-1-.1-1.6l.3-.5c.1-.1.1-.3 0-.4-.7-.4 0-.4.2-.6.4-.5 1.1-.7 1.3-1.3.2-.6.6-.5 1-.5.2 0 .2.2.2.3 0 .5.2.3.4.1l1.7-1.5c-.1.5-.4.7-.7.9-.2.3-.6.4-.8.8.2.1.3 0 .4-.1.2-.1.4-.3.5.1l.2.1c.5.1.8.6.5 1.1-.8 1.3-1.8 2.4-3.1 3.3-.3.1-.6.2-.6.6z"/><path fill="#0778b0" d="M11.8 26.8c.7-2 2-3.6 3.8-4.7.2-.1.5-.3.2-.6-.1-.2 0-.3.2-.4 1.2-.6 2.4-1 3.7-1.2.2 0 .5-.1.5.3s.3.3.5.3c1.9.1 3.5.7 4.8 2.1l.9 1.2c.1.2.2.4.4.3.4-.3.5 0 .6.3.3.7.3 1.5.5 2.2v.8c0 .3-.1.5-.5.5-.2 0-.3.1-.3.3-.4 2.2-1.5 4-3.2 5.5-.5.7-1.2 1.1-2 1.3l-.6.2c-.8.6-1.7.7-2.6.7-2 .2-3.8-.3-5.4-1.6l-.2-.1c-.2.3-.4.2-.7 0l-1-1.4-.3-.6c-.2-.3-.3-.6.2-.7.3-.1.2-.3.1-.5a9 9 0 0 1 .4-4.2z"/><path d="M13.2 34.5c.2-.2.3 0 .5.1 2.1 1.7 4.4 1.8 6.9 1.2l.8-.2v.1c-.4.6-.6 1.2-.8 1.9l-7.3.1c-.8-.5-.5-1.4-.5-2.1 0-.4-.4-.4-.3-.7.8.1.8.1.7-.4zM24.3 37.7h-2c-.4 0-.7-.4-1.1-.3.3-.7.9-1.2 1.5-1.7.2-.2.4-.1.3.1-.3.9.3 1.2 1 1.5.1.1.3.2.3.4zM22 35.2l2-1.3c0 .8-.8 1-1.2 1.4-.2.3-.6.3-.8-.1z" class="st63"/><path d="M24.4 63.2h-3.1l-.4-.1H24c.2 0 .3-.1.4.1z" class="st8"/><path fill="#164a86" d="M16.8 42.3h.3c-.4 1.7-.7 3.5-1.2 5.2v.2l-.2-.1c-.2-.2 0-.5 0-.7l.9-3.9c-.1-.2 0-.5.2-.7z"/><path fill="#1b4d85" d="M18.1 42.3h.3l-.1 5.2v.1c-.5-.1-.3-.4-.3-.6l.1-4.1v-.6z"/><path fill="#232323" d="M13.9 54.2h3l.6.3c0 .3-.2.2-.4.2h-3c-.1 0-.3.1-.3-.1-.1-.2 0-.3.1-.4z"/><path d="M15.6 55.5c0-.1.3-.2.1-.4.2-.2.4-.2.5.1l-.1.6c-.1-.4-.6.3-.5-.3z" class="st90"/><path fill="#3c3c3c" d="M16.7 55.1c.2 0 .3.1.3.3 0 .3-.2.4-.4.4s-.2-.1-.2-.2c0-.3 0-.5.3-.5z"/><path fill="#5b5c5d" d="M14.6 55.2c-.1.2-.4 0-.4.3s.3 0 .3.2c-.1.2-.3.2-.5.1s-.1-.3 0-.5c.2-.3.4-.3.6-.1z"/><path d="M15.4 55.3l-.7.4.1-.3c.2-.4.4-.4.6-.1z" class="st90"/><path d="M15.7 46.9l-.1.7-.1.1c-.5-.1-1.1-.4-1.6-.1-.1-.5.2-.9.5-1.3.3-.1.6-.2.9-.1.3.1.5.3.4.7z" class="st51"/><path fill="#212225" d="M18.2 8.8c-.5.1-.9-.2-1.1-.7-.2-.5-.1-.9.3-1.3.5-.5.9-.9 1.7-.6.6.2.9.7.8 1.3-.2.6-1 1.5-1.7 1.3z"/><path fill="#15161a" d="M25.3 8.4c-.7 0-1.2-.5-1.1-1.1 0-.9.8-1.6 1.7-1.6.7 0 1.1.5 1.1 1.1 0 .9-.8 1.7-1.7 1.6z"/><path fill="#1e1f1e" d="M13.3 60.2c-.2 0-.3-.1-.3-.3 0-.2.1-.4.3-.4.2 0 .3.1.3.3.1.2 0 .4-.3.4z"/><path fill="#212121" d="M14.7 59.8c0 .2-.1.4-.3.4-.2 0-.3-.1-.3-.3 0-.2.1-.4.3-.4.2 0 .3.1.3.3z"/><path fill="#201c19" d="M12.4 59.5l-.7.4c.1-.5.3-.6.7-.4z"/><path fill="#174c85" d="M14.3 46.4l-.5 1.2c-.2 0-.2-.2-.2-.3.1-1.2.7-2.2 1.1-3.3l.3-.7c0-.2.3-.4.1-.6-.2-.1-.4 0-.6.1l-.6.1c-.2 0-.4 0-.4-.2s.2-.2.4-.2H16c-.1.7-.4 1.3-.7 2l-.6 1.6-.4.3z"/><path d="M14 42.3l-.5.3c.4-.1.8.1 1.1-.2.2-.2.6-.2.8 0 .3.2-.1.4-.1.6l-1.6 4.2c-.2-.5-.6-.8-1.1-.8-.7 0-.8-.1-.8-.8 0-.2 0-.4-.2-.4-.2-.1-.3 0-.5.1-.3.3-.5.6-.9.8-.2-.3.1-.4.2-.5.6-.6 1-1.4 1.4-1.7l-1.2 1.6c-.1.1-.2.4-.5.4.1-.6.2-1.2.8-1.6.3-.2.5-.5.6-.9l-1.1-.4c.9.2 1.6-.2 2.2-.7.4-.2 1-.5 1.4 0z" class="st51"/><path fill="#0f2d70" d="M10.1 45.7l2.1-2.6.1.1-1.3 1.7c-.3.4-.7.7-.8 1.1-.4.2-.5.6-.8.9-.1.1-.2.2-.2 0l.9-1.2z"/><path d="M10.6 27.6l-.5.2.5-.6c.1-.2.3-.1.3.1l-.3.3z" class="st66"/><path fill="#175fa3" d="M11.1 22.6l-.6-.7c-.4-.4-.8-.8-.5-1.5v-.9c.2.3.3.5.2.9-.1.4 0 .8.3 1.1l.9 1c0 .1.1.2 0 .2-.2.1-.2 0-.3-.1z"/><path fill="#12508f" d="M12.6 18.1c.6.6 0 1.1.1 1.7-.1-.3-.1-.5 0-.8l-.1-.9z"/><path d="M12.9 37.6h-.8l-.1-.3c-.1-.2 0-.3.1-.4.1-.1.2.1.3.2.2.1.5.2.5.5z" class="st63"/><path fill="#767892" d="M23.1 17.6c-.1-.1-.4.2-.4-.2s.1-.7.6-.7c.3 0 .3.2.3.4 0 .3 0 .6-.5.5z"/><path fill="#626585" d="M17.5 17.3c-.1.2 0 .5-.4.4-.2 0-.2-.1-.1-.2.2-.2-.2-.6.3-.5.1 0 .2.2.4.1.2-.2.4-.1.4.1.1.2 0 .4-.2.5-.2.2-.3-.1-.4-.4z"/><path fill="#6b6c89" d="M22.6 17.2c.1.3-.1.4-.5.4-.2 0-.4 0-.3-.3.1-.3 0-.7.5-.6.3 0 .3.3.3.5z"/><path fill="#6b6e8b" d="M19.4 17.3c0 .2-.1.4-.3.4-.2 0-.2-.2-.2-.3 0-.2 0-.4.3-.4.2-.1.2.1.2.3z"/><path fill="#666987" d="M20.3 17.2c0 .2 0 .4-.2.3-.1 0-.3 0-.3-.2s.2-.4.4-.4l.1.3z"/><path fill="#5a5b80" d="M18.5 17.7c-.1-.3-.2-.5 0-.7h.1c.1.2.1.4-.1.7z"/><path fill="#595c80" d="M21 17.5c0-.2-.2-.4-.1-.6h.2c.1.3-.1.4-.1.6z"/><path fill="#9495a8" d="M20.9 15.9l.2.2-.2.2a.2.2 0 0 1-.2-.2l.2-.2z"/><path fill="#0c1152" d="M20 15.2c-.1.4 0 .9-.6.9-.4 0-.3-.3-.3-.6 0-.4 0-.9.6-.9.3 0 .3.4.3.6z"/><path fill="#07bed5" d="M26.2 39.3c-.1.5-.4.9-.4 1.4 0 .1-.1.3-.3.3H24c-.2 0-.2-.1-.2-.3.2-.3.2-.7.3-1.1.2-.7 1-.4 1.5-.5l.6.2z"/><path fill="#07bfd6" d="M22.5 41c-.5 0-.7-.3-.5-.8.1-.3.1-.5.3-.7.2-.2 1.4-.3 1.6-.2.3.3.1.7-.1.8l-.3.6c0 .1-.1.3-.2.2-.2-.4-.5.3-.8.1z"/><path fill="#08bdd3" d="M14.5 40.6c-.9 0-.9 0-.7-.9.2-.7.6-1 1.2-1 .3 0 .4.1.5.3.2.5-.1.9-.2 1.4-.1.3-.4.2-.6.2h-.2z"/><path fill="#06c3da" d="M12.6 38.9c.2-.2.4-.1.7-.1.2 0 .4-.1.5.1.1.2-.2.2-.3.3-.1.1-.1.2 0 .2.4.2.1.3-.1.4-.2.1-.2.3-.1.4.2.4.2.4-.2.4-1.4.1-1.5-.1-1.1-1.4.1-.2.1-.5.4-.4.3.4-.1.7-.1 1 .1-.1 0-.4.2-.5.4-.1.4.1.3.4.1-.2.2-.4-.1-.5-.1-.1-.2-.2-.1-.3z"/><path fill="#07bdd2" d="M21.8 39.7c.1.5-.4.3-.6.4 0 .3.4 0 .4.3-.1.2-.3.1-.5.2v.1c.2.1.5-.1.5.2 0 .2-.3.2-.5.2h-1.4c.1-.4.5-.2.7-.3 0-.2-.3 0-.4-.3.1-.3.4 0 .5-.3-.4-.1-.7-.2-.2-.6h.2c.6-.5 1-.3 1.3.1z"/><path fill="#06b9cf" d="M19.2 39.6c0 .2 0 .2.4.2.1 0 .3-.1.3.1.1.2-.1.2-.2.3-.3.2-.8.3-.1.8H18c.5-.2.3-.5.2-.7-.2-.3 0-.4.1-.6.2-.3.5-.3.9-.1z"/><path fill="#08c4db" d="M10.7 39.8c-.4.3-.4 1-1.2.9l1.1-1.7.3-.2c.2.1 0 .2.1.3.2.4.2.8.2 1.1 0 .2.2.4-.1.4-.3 0-.3-.2-.3-.3l-.1-.5z"/><path fill="#04cae1" d="M16.7 39.7c-.2-.1-.8.2-.7-.1 0-.4.5-.1.8-.2h.5c.2 0 .4-.1.4.2 0 .2-.3.2-.4.2l-.6-.1z"/><path fill="#08104a" d="M16.8 42.2H16l.1-.2c.1-.5.5-.5.8-.4.3.1-.1.3-.1.6z"/><path fill="#09114e" d="M17.5 42.1c-.1-.1-.4.2-.4-.2s.3-.4.6-.4c.2 0 .5-.1.5.2-.1.4-.4.4-.7.4z"/><path fill="#07c8df" d="M19.2 39.6c-.3-.1-.6 0-1 .1.1-.7.7-.3 1-.5.2-.1.5.1.8.1-.2.7-.6.3-.8.3z"/><path fill="#0e6a7c" d="M12.6 38.9c.4.5.4.5.2 1.1-.2-.2.2-.5-.1-.6-.3 0-.2.4-.3.5l-.2.5c-.1-.7.3-1.1.2-1.6l.2.1z"/><path fill="#09c2d8" d="M21.8 39.7l-.3-.1c-.3-.3-.5-.3-.7 0-.1.1-.2.1-.3-.1.6-.5 1.1-.5 1.3.2z"/><path d="M14.3 46.4c.6-1.4 1-2.8 1.7-4.1h.8l-1 4.6c-.1-.5-.4-.7-1-.5h-.5z" class="st54"/><path fill="#164da8" d="M25.3 34.2c.6-.4 1.5-.4 2.1-.1-.7.2-1.3.2-2.1.1z"/><path d="M15.4 35.3a6.2 6.2 0 0 1-3.8-4.8c-.1-1.3 0-2.6.5-3.8l.3-.7c.3-.2.5-.5.9-.6h.6c.2.3 0 .5-.1.7l-.7 1.5c-.1.2-.2.4 0 .6.2-.1.2-.3.2-.5a7 7 0 0 1 1.1-2.3l.4-.4c.3 0 .5-.1.8-.3.4-.4.8-.7 1.3-.9 1.1-.3 2.2-.6 3.3-.5.6 0 1.2.2 1.7.3 1.2.3 1.9 1.1 2.4 2.2.5 1.2.5 2.5-.1 3.6-.4.8-1 1.6-1.7 2.2a4 4 0 0 0 1-1.2l.2-.3c.1-.1.3-.3.5-.2.1.1 0 .3 0 .4-.5 1-1.3 1.8-2.2 2.5-.3.2-.6.5-1 .6-.1 0-.3.1-.4-.1 0 0 .2-.2-.1-.1-1.9.8-4.8.6-6.1-1.7a5 5 0 0 1-.5-2.4c-.1-1 0-2 .6-2.8-.4.5-.6 1-.8 1.5-.4.9-.4 2 0 2.9.9 1.6 2.2 2.8 4.2 2.9h1.3c.1.3.4.6.1 1-.4.5-.7.4-1.1 0l-.4-.2c-.9 0-1.7-.3-2.5-.6h-.2c-.1.2.1.3.1.5.3.3.4.7.2 1z" class="st125"/><path fill="#061172" d="M13.9 25.4c-.4 0-.8.1-1.1.5l-.4.1a9 9 0 0 1 4.8-4.6c2-.8 4.1-1 6.1-.1 1.8.8 3 2.1 3.5 4-.9-.1-1.9-.3-2.3-1.2.1.1.2.3.1.5-.1.3-.4.3-.7.2-.3-.2-.6-.4-.6-.9 0-.2-.2-.3-.4-.4-1.7-1.1-3.5-1-5.3-.2-.3.1-.4.5-.7.5-.5.3-1 .6-1.4 1.1-.2.2-.4.4-.6.1.1-.6.6-.8 1-1.2l.7-.6c-.6.2-.9.5-1.3.8-.5.6-.9 1.1-1.4 1.4z"/><path fill="#081870" d="M18.4 34.5c.3 0 .5 0 .5.4.5-.3.7-.8.6-1.3.2-.2.6-.3.8-.3.8.2 1.3-.3 1.8-.6l.4-.4c.2-.2.4-.2.7-.1.2.1.4-.1.5-.2.5-.5.9-1.1 1.2-1.7l.4-.5c.5 0 .9.2.9.8-.9 2-2.4 3.4-4.3 4.3a7 7 0 0 1-3.1.9h-1.1c-.3-.4-.2-.7 0-1.1l.7-.2z"/><path d="M26.2 30.6c-.2-.3-.5-.6-.9-.7-.2-.3.1-.5.1-.8l.1-.7c-.4.2-.1.8-.6.9-.2-.1-.4-.3-.3-.5.3-1.3.1-2.6-.5-3.7v-.2c.7-.1.7-.1.3-.9.5 1 1.6 1.1 2.5 1.5a7 7 0 0 1-.7 5.1z" class="st125"/><path fill="#071265" d="M17.8 34.8c-.2.3-.1.7-.1 1.1-.1.1-.2.1-.4 0-.7 0-1.4-.2-2-.5v-1.3c.9.1 1.8.2 2.5.7z"/><path d="M17.4 35.8h1.5c-.6.2-1.1.2-1.5 0z" class="st125"/><path fill="#747674" d="M18.5 7.2c.2 0 .2.1.2.2l-.2.2c-.1 0-.2 0-.2-.2-.1-.1 0-.2.2-.2z"/><path fill="#6b6f6c" d="M25.9 7c0 .2-.2.3-.3.3-.2 0-.3-.1-.2-.3 0-.2.2-.2.3-.2l.2.2z"/><path fill="#14374a" d="M14.1 40.2c.4-.3.7-.2 1.1-.2-.4.4-.7.3-1.1.2z"/><path fill="#105a6e" d="M14.6 39.3c.4-.4.4-.4.6 0h-.6z"/><path fill="#1071c5" d="M20.8 28.7l-.4.8c-.2.2.1.9.3 1l1.2.5c.2.1.4.2.1.5-1.8 1.5-4.2 2-6.3.4-.6-.5-.6-.5.1-.8l1.1-.5c.7-.3.9-1.3.4-2l.1-.1h3l.4.2z"/><path fill="#0e73c6" d="M17.4 28c.4-.8.4-1.8 1.1-2.4.5-.5 1.1-.6 1.8-.4.6.2.9.8.9 1.4.1 1.7 0 1.5 1.7 1.6h1c-.9.2-1.8.2-2.7.2h-.1l-.2-.3h-3.1c-.2 0-.3.1-.4-.1z"/><path fill="#0b4390" d="M24 24.8c.5.8.7 1.6.8 2.5.1.4-.1.8-.1 1.2-.1.4 0 .5.3.7.2.4-.1.7-.2 1.1-.4.8-.9 1.4-1.5 2-.2-.2-.4-.2-.5 0l-.4.4-.1-.1c.9-.8 1.8-1.6 2.2-2.7-.8.6-1.2 1.6-2.1 2.1l1.6-1.9c.6-.6.7-1.3.8-2.1.1-1.5-.3-2.9-1.6-3.8-.6-.4-1.5-.7-2.3-.7l-2.3.2c-.5.1-.9.3-1.4.3 1.1-1.1 2.5-1.3 4-1.1.7.1 1.4.3 2 .7.3.2.8.3.7.9-.5 0-.1.2.1.3z"/><path fill="#0a5395" d="M22.1 32.6l.1.1-.4.2c-.5.3-.9.7-1.6.5-.2-.1-.5.1-.7.2-1.1.1-2.3.1-3.3-.5a3 3 0 0 1-1.6-1.5c-.3-.5-.9-.7-.9-1.3 0-.8-.3-1.8.1-2.5.3-.6.6-1.4 1.2-1.9-.1.5-.4.8-.6 1.3-.1.4-.3.8-.1 1.3v1.1c0 .6.4 1.2.3 1.8 0 .4.4.7.7 1 1.5 1.5 4.5 1.4 5.9.4.1.3-.3.3-.4.6l1.3-.8z"/><path fill="#0c9bbf" d="M13.9 25.4a8 8 0 0 1 2.3-2.2c.1-.1.3-.3.5 0s-.1.3-.2.4c-.6.4-1.2.8-1.6 1.4-.8.9-1.3 1.9-1.5 3 0 .2-.1.5-.4.4-.4-.1-.2-.3-.1-.5.1-.9.6-1.6 1-2.5z"/><path fill="#219ed0" d="M17.4 28c1.2-.2 2.3-.2 3.5-.1.2 0 .3.1.3.2-.7.3-1.3.1-2 .2h-1.5c-.1 0 0 .1 0 .1l3.1-.1.3.1h.1l-.4.3h-3.3a1 1 0 0 0-.7-.3l-2.2-.1c.2-.2.5-.1.8-.2.7.1 1.3.3 2-.1z"/><path fill="#089dbe" d="M17.8 34.8c-.8-.2-1.7-.3-2.5-.7-.1-.2-.4-.1-.2-.4.2-.2.3-.2.5-.1.7.4 1.5.6 2.4.6.3 0 .4.1.4.3-.1.3-.3.2-.6.3z"/><path fill="#09a1c3" d="M23.2 32.4c-.1-.3.2-.4.3-.5.7-.7 1.2-1.5 1.5-2.5l.2-.7c.1-.3.2-.5.4-.4.3.1.1.3.1.5l-.3 1.2c-.4.9-.9 1.7-1.6 2.4-.3.1-.4.2-.6 0z"/><path fill="#77dce2" d="M21.1 28.4c-1.3 0-2.5.3-3.9 0 1.4-.3 2.7-.1 4-.2l-.1.2z"/><path d="M22.8 23.8a6.9 6.9 0 0 0-4.9-.3c1-.9 3.8-.7 4.9.3zM13.9 27.9c.3.9 0 1.8.4 2.7 0 .1.1.2 0 .2-.2.1-.3-.1-.3-.2-.2-.7-.3-1.4-.2-2.1l.1-.6z" class="st125"/></svg>