<svg xmlns="http://www.w3.org/2000/svg" id="图层_1" viewBox="0 0 91.4 100"><style>.st0{fill:#e6e6e6}.st1{fill:#ededed}.st2{fill:#ddd}.st4{fill:#d2d2d2}.st5{fill:#e2e2e2}.st7{fill:#dcdcdc}.st9{fill:#d6d6d6}.st10{fill:#adadad}.st11{fill:#c5c5c5}.st12{fill:#cdcdcd}.st15{fill:#b6b6b6}.st16{fill:#a8a8a8}.st17{fill:#d7d7d7}.st19{fill:#9e9e9e}.st20{fill:#a0a0a0}.st24{fill:#a9a9a9}.st26{fill:#747474}.st28{fill:#dfdfdf}.st29{fill:#909090}.st31{fill:gray}.st33{fill:#acacac}.st34{fill:#8f8f8f}.st35{fill:#959595}.st36{fill:#8d8d8d}.st39{fill:#858585}.st40{fill:#bababa}.st41{fill:#6f6f6f}.st42{fill:#b2b2b2}.st43{fill:#696969}.st44{fill:#969696}.st45{fill:#8a8a8a}.st49{fill:#787878}.st51{fill:#616161}.st52{fill:#5f5f5f}.st56{fill:#676767}.st58{fill:#d0d0d0}.st59{fill:#979797}.st60{fill:#cbcbcb}.st62{fill:#7a7a7a}.st64{fill:#646464}.st65{fill:#7b7b7b}.st66{fill:#6b6b6b}.st67{fill:#6a6a6a}.st79{fill:#a5a5a5}.st82{fill:#828282}.st90{fill:#434343}</style><path d="M.2 26.8v-1c.3-1.7 2.9-3.8 4.3-4.6 1.9-1.1 4.3-1.5 6.5-1.6.6 0 1.2 0 1.8-.3a94.5 94.5 0 0 0 9-8.8c2.9-3.5 5.6-7.7 9.9-9.4 3.4-1.4 7.3-.8 10.8.2 4.3 1.3 8.5 3.1 12.9 4.2 5.7 1.5 11.4 3.5 17 5.3 1 .3 5.6 1.2 5.7 2.3.1.4-.2.9-.4 1.2l-8.6 13.3a14 14 0 0 1-5.2 4.1c-1.6.8-4.3 2.3-6.1 2.3.1-1 .9-1.9 1.6-2.7L69 19.6c-11.5-4-23.1-7.8-34.7-11.3-.4-.1-.8-.2-1.3-.1-.4.1-.7.4-1 .8L21.4 20.6 31.9 9.1c.5-.5 1.4-1.1 1.9-.6L21.9 21.4c7.2 5.1 16.3 6.6 24.5 9.9.8.3 4 .7 4.4 1.5.3.8.8 2.8 1 4.2 0 .4-.6 3.4-1 3.5 0 0-1.5 3.6-4.8 2.9-10-2.2-29.6-10.7-30-10.5-.6.3-1.4 0-2-.3-1.5-.8-3.2-1.2-4.8-1.8-.5-.2-1.2-.3-1.5.1l-.1.7v5.3c0 .8-.1 1.7-.8 2.1 0-3.3-.2-6.6-.6-9.9-.1-.5-.2-1-.6-1.3-.5-.3-1.1.2-1.6.5-1.4.8-3.4.1-3.8-1.5z" class="st0"/><path d="M54 62.4c-.2 4.2 0 8.5-.2 12.7-.2 3.8 0 7.6-.2 11.3l-.2 6.7a6 6 0 0 1-2.9 5c-3 2-6.3 2.2-9.8 1.3 0-.8-.6-1.2-1.1-1.7-.6-.4-.8-1-.8-1.7a29 29 0 0 1 .1-5.1c.1-1.1.1-2.2-.1-3.3-.1-.6-.2-1.2-.5-1.8-.4-.9-.4-1.9 0-2.9.2-.5.2-.9 0-1.4-.4-.9-.4-1.9 0-2.9l.3-1.5c-.1-2.4.2-4.8.2-7.2l.1-.9c.8-1.4.6-2.9.6-4.3v-2.1c0-.5.1-1 .5-1.4.4-.4.5-.9.7-1.4.4-1 .9-1.2 2-1.1 2.7.3 5.1 1.4 7.6 2.2l2.5.8c.5.1.9.3 1.2.7z" class="st1"/><path d="M60.9 44.4c-1.1 1.5-3 1.9-4.8 2.2-2.6.3-37-12.6-37.2-13.2-.3-.7-.7-.7-1.3-.4-.3.1-.6.2-.9 0-.2-.6-.1-1.3-.9-1.6-.2-.1-.2-.4.1-.6.3-.1.7-.5 1-.1.2.3.3.5.7.3.3-.2.5-.5.4-.9l-.2-.7c-.1-.3.1-.4.4-.3.9.3 1.8.3 2.5 1.1.5.6 1.3.5 2 .9l1.9.7 4.2 1.4c.4.1 10.8 2.5 10.7 3-.1.3 3.6 1.5 3.8 1.6.9.3 2.8-.2 3.1.5.1.4 1.1.3.9-.1-.2-.3-.2-.7.1-1.1.5-.5-.1-.6-.3-.7-.3-.1-.5-.2-.4-.5.1-.3.3-.3.5-.2.2.1.4 0 .5-.2.1-.3-.1-.4-.3-.6-.3-.2-.6-.2-.9-.2-.3 0-.5 0-.6-.4-.1-.2.1-.4.2-.6.2-.2.4 0 .6.1.6.3 1.3.2 1.9-.1.2-.1.3-.2.2-.4 0-.2-.2-.2-.3-.2l-.4-.1c.3-1.3-.9-.9-1.4-1.2-1.4-.7-2.9-1.4-4.4-1.9l-13.4-4.6-3.7-1.3c-1.2 0-1.2-.2-.7-.9.6-.3 1.2.2 1.8.2 1.8.6 3.5 1.3 5.4 1.8l4.7 1.6 6 2.1 5.6 1.9 8.8 3.1c.5.3.8.1 1.1-.3 1.5-1.6 2.7-3.5 4.2-5.1.3-.1.5-.5.9-.4-.6 1.3-1.7 2.4-2.6 3.6-.9 1.2-.6 1.3-.3.9.2-.3.6-.9.8.1.1.3.3.3.6.3.7-.3 1.5-.4 1.9-1.2.2-.3.4-.5.7-.1.2.3 2.9-2 2.9-2.2 0-.2-.1-.4.1-.6.2-.2.4-.1.6 0 .2.2 3.3-4.1 3.6-4.7.3-.5-.1-2.1-.5-3.1-.1-.2-.2-.4 0-.6.1-.2.4-.2.6-.1.6.2.9.1 1-.6 0-.2.2-.4.4-.4.4.1 5.2-6 5.3-6.1 1 .4 1.9 1.1 2.4 1.8s.6 1.6.5 2.5c-1.3 1.3-18.9 25.3-20.1 26.9z" class="st2"/><path fill="#dadada" d="M65.8 52.8c-.1-.2-.4-.3-.3-.4.6-.6.3-1.4.8-2 .3-.3.4-.7 1-.7.5 0 .9-.5 1.1-.9a48 48 0 0 1 4.7-6.2c.7-.9 1.1-1.8 1.3-2.8.1-.6.3-1.3 1.2-1l6.8 2.9c.3.9-.3.6-.7.5-1.5-.4-2.9-.9-4.3-1.5.8 1.3 2 2.1 3.5 2.5 2.4.6 4.8 1.6 7.2 2 .4.6.3.9-.3 1.1-.4.2-.8.1-1.2 0h-2c-.5.1-.9.3-1 .9 0 .7-.5.9-1.1.9l-1.2.3c.6.3.5.6.1 1-.3.3-.5.6-.1 1 .7.6 1.5.5 2.4.3.4 0 .6-.3.9-.4.4-.2.6 0 .5.4 0 .5-.2 1-.7 1.3-.8.4-1 .9-1 1.7 0 1.3-.7 2.1-1.8 2.6a1 1 0 0 1-1.2-.1c-.6.2-1.1 0-1.7-.2l-7.5-3.2-.3-.1c-.5-.2-.8-.1-.6.5.1.3.2.6.1.9 0 .3-.1.6-.5.4-1.3-.2-2.4-.7-3.6-1.1 0-.5-.3-.6-.5-.6z"/><path d="M34.4 55.6c-.5.1-.7.5-1 .8-1 1.6-2 3.3-3.3 4.7-.8-.5-1.6-.4-2.5-.2a3 3 0 0 1-1 .2c-.5 0-.8-.3-.7-.9.2-1.8-.6-3.1-1.8-4.3-1.3-1.1-2.6-2.2-4.3-2.5-.7-.2-.9-.7-.4-1.3.3-.4.7-.8 1.3-.7.9.1 1.8-.1 2.7.2 1.6.5 3.4.5 4.7 1.7.2.1.4.4.6.1.4-.6.8-.2 1.2 0 1 .5 1 .5 1.7-.4 1.1-1.3 1.2-2.2.3-3.7l-.8-1.4c-.1-.3-.1-.5.2-.7.2-.1.5-.1.6.1.6 1 1.6 1.6 2.5 2.2l.2.3c.2.6.8.9.9 1.5.1.4.1.8-.1 1.2.1-.1.2-.4.4-.3.2.1.2.3.1.5-.1.5-.4.8-.7 1.2-.3.4-.6.7-.7 1.2l-.1.5z" class="st0"/><path d="M9.5 30.8c-2.6.8 6.2 11.6 7.6 13.2.3.4 2 4.9 1.4 5.2-.5.3-1.1.4-1.9.2-2.2-.4-5.2-2-6.3-2.6a6.3 6.3 0 0 1-2.8-3 9.4 9.4 0 0 1-.4-4.1c0-1 0-9.4.8-9.4.5-.2 1.2 0 1.6.5z" class="st1"/><path d="M16.5 49.5a15 15 0 0 1 2-2.9l.3-.2c.2-.1.4.1.6.1 1.6.8 4.8-.4 6.4-1.1.9-.4.7-1.5 1.7-1.7.6-.1 1.7.3 2 .8-1.2.6-1.4 2.4-2.5 3.1-1.1.7-2.8.2-3.6 1.1l2.8 1.9.6.5c.1.2.1.6-.1.8-.2.2-.5.1-.8 0-3.1-.8-6.5-1.2-9.3.4l-1.5.9s1-3 1.4-3.7z" class="st4"/><path d="M34.4 55.6v-.2c.8-.2 1.3.4 2 .6l2.3.8c.3.1.7.1.7.6-.8 0-1.6 0-2.4-.3-.9-.3-1.3 0-1.2.9.1 1.1-.5 2-.4 3.1l.3 2.6c0 1.1.3 2.3.1 3.4V82.3L36 94l.2 1.2c.2.4.1.7-.1 1-1-.8-1.2-2.1-1.2-3.2 0-5.6-.3-11.2-.2-16.8v-9c-.2-3.7-.1-7.3-.1-11-.1-.1 0-.4-.2-.6z" class="st5"/><path fill="#ececec" d="M70.1 54c.8-.3 0-.9.1-1.3.1-.2-.4-.5-.1-.8.3-.2.6 0 .9.1l7.9 3.4c.6.3 1.1.4 1.7 0 0 .7.4.8 1 .6l2.3-.5c.8-.1 1.6-.4 2.3-.6.9-.3 1.6-.9 2-1.7l1.9-3.6c.5-.9.5-1.8-.2-2.6-.3-.4-.9-.9-.5-1.7.9 1.2 1.9 2.3 1.8 3.9 0 .7-.2 1.2-.6 1.7-.7 1.1-1.4 2.3-2.2 3.3-.5.7-1.2 1.4-2.1 1.7-2.1.5-4 1.3-6.2 1.2-1.2-.1-2.3-.6-3.4-.9-2.1-.6-4.4-1.2-6.6-2.2z"/><path d="M.2 27c.9.3 1.3 1.4 2.2 1.6 1 .2 1.7-.9 2.5-1.1.4-.1 1-.1 1.3.3.2.2.2.6.3.9.3 2 .7 4.6.2 6.6-.2-.4-.1-.8-.1-1.3.1-.5 0-1.1-.4-1.4-.2-.2-.5-.2-.7-.3-1.5-.4-3.8-1-4.5-2.6-.4-.8-1-1.9-.8-2.7z" class="st1"/><path d="M89.6 45.5c-.1.6.2 1.1.6 1.4 1.2 1.2.7 2.4 0 3.6l-1.1 2c-.7 1.6-1.7 2.7-3.5 3l-1.5.3c0-.4.3-.5.6-.5l1.1-.4c1-.6 1.1-1 .5-1.9-.6-1-.5-1.2.4-1.9.9-.6 1.5-1.3 1.2-2.4-.2-.7.1-1.3.4-1.9.3-.6.5-1.2.4-1.9l.1-.1c.2.1.6.3.8.7z" class="st0"/><path d="M88.2 45.1c-1.2.1-2.2-.3-3.2-.6l-5.3-1.6c-.6-.2-1.1-.6-1.6-1.1-.4-.5-.8-1.1-1.3-1.5.9 0 1.7.5 2.5.8.9.4 1.9.5 2.8.9.4.2.3-.2.3-.4 1.8.7 3.7 1.3 5.4 2.3.4.2.8.5.9 1l-.5.2z" class="st0"/><path d="M15.3 53.2l1.2-.9c2.1-1.9 6.7-1.5 9.2-.6.3.1.5.2.8.1.3-.1.5-.3.4-.6.2.2.5.4.6.7.1.2.2.4.1.6-.1.3-.6.2-1 .1-1.7-.8-3.8-1.2-5.6-1.1-.9.1-1.9.2-2.6.9-.4.3-.5.8-.9 1.1-.7.6-1.4 2.3-2.1 2.8-.3-1.3-.1-3.1-.1-3.1z" class="st7"/><path d="M31.5 47.5l.2.2c.7.9 1.5 2 2.6 2.1h.2a9 9 0 0 0-4.3-5.1c-.3-.1-.5-.3-.8-.2-1.1.2-2.1 2.3-3.2 2.9-.9.5-2 .5-2.8 1.2l-.1.2.2.3c1.1.7 2.2 1.4 3.2 2.3.5.4.8 1.2-.2.8a16 16 0 0 0-5.7-1c-.9 0-2 .2-2.5.9l-.5.9c-.7 1-2.4.9-2.4 2.5 0 .6.2 1.2.5 1.7a9.2 9.2 0 0 0 2.3 2.9l.5.2V60.6l.2.3c2.3 2 5.7 2.7 8.6 1.6.2-.1.5-.3.4-.5l.8-.3c-.1.1.7 0 1.1-.3l-.1-.2c.1-.1.3.1.4 0-.7-.7-1.6-.5-2.4-.3-.4.1-.8.2-1.1 0-.6-.3-.6-.9-.6-1.4-.1-1.5-.9-2.9-2-3.9s-2.5-1.7-3.9-2.1c-.2-.1-.5-.1-.6-.3a.7.7 0 0 1 .2-.9c.3-.2.6-.3 1-.3 2.9-.3 7.2 2.6 7.6 2.6.5-.1.9-1 1.2-.9.8.1 1.1 1.1 1.9.3.6-.7 1.3-1.4 1.4-2.3.1-1.5-1.4-2.3-1.5-3.6-.2-.4 0-.6.2-.6zM21 54.6c2.1 1 3.5 3.2 3.6 5.6l-.1.2c-.4.6-1.1.8-1.8.8-2-.1-3.2-1.6-4.6-2.8l-.4-.9c-.3-.8-.5-1.7 0-2.4.6-1.1 2.2-1 3.3-.5zm7.6 7.1c-.1.1.7 0 1.1-.3" class="st7"/><path d="M15.6 56.4c0-.2 0-.4.2-.4s.2.2.2.3c.1.3 0 .4-.3.5l-.1-.4z" class="st7"/><path fill="#eaeaea" d="M30.8 11.7l.7-.7c.5-1.1 1.5-1.8 2.4-2.5l6.6 2 10.1 3.2 1.1.5c.2.1.4.3.2.5-.1.2-.4.2-.6.1-1.8-.8-3.7-1.2-5.5-1.8l-9.9-3.2 13.8 4.4 1.3.5c.4.4 1 .7.9 1.4-.1.3-.2.4-.5.3l-.2-.1c-.5-.1-.9-.2-1.3-.6l-.2-.1-.4-.1-1 .3c-.3 0-.5-.1-.6-.4-.2-.7-.8-.4-1.2-.6-.6.3-.6.5-.3.7l.3-.1c.5-.2 1.2-.8.9.5l.3.2c.8.7.8.8-.1 1-.4.1-.6.4-.9.6-.5.2-1-.1-1.4-.3l-.5-.1c-.4 0-.8.3-1.1-.1-.1-.2-.4.1-.5.1l-.2-.1-.1-.3c-.1-.2-.3-.3-.5-.2-.2 0-.4.1-.4.3-.1.3.4.3.4.5 0 .9 0 .9-1.2.8-.4-.1-.7 0-1 .2-.9.7-2 .5-3 .7-.2 0-.4 0-.6-.2-.4-.4-.9-.5-1.5-.5-.5.1-.8.7-1.4.7-.3-.1-.3-.4-.3-.7 0-.2.2-.4-.2-.4-.4.2-1 .4-.3.9-.1.7-.5 1.1-1.1.8-.8-.4-1.4-.3-2.1.1-.4.3-.9.3-1.4.3-.5 0-.9-.3-.8-.9.1-.3.3-.7-.2-.8-.6-.7-1.1-1.4-.4-2.3 1.7-2.1 3.6-4 5.5-5.9-2.3 2.4-4.6 4.8-6.7 7.3a56.6 56.6 0 0 0-4 4.4c-.3.2-.5.2-.7-.1.3-.8 1-1.3 1.5-2l1.2-1.2c1.4-1.5 2.6-3.2 4.2-4.4l.7-.7c.9-1 1.6-1.4 2.2-1.9z"/><path d="M51.1 14.7c-5.8-1.8-11.5-3.8-17.4-5.5.2-.4.4-.2.7-.1l13.2 4.2 4.3 1.3c-.3-.6-.8-.6-1.3-.8L41.9 11l-8.2-2.5c-.1-.1 0-.2.1-.3h.1l10.4 3.2c4.8 1.5 9.7 3.1 14.5 4.8l9.1 3c.4.1 1 .3 1.2.6.3.5-.4.6-.6 1-.4.7-1 1.2-1.5 1.8l-1.6 2-.4.5c-.4.2-.5.6-.7.9-.7.5-1 1.4-1.6 2a3 3 0 0 1-.7.5c-.2-.9.6-1.2 1-1.7.2-.3.6-.6.1-.9.3-.8 1-1.3 1.4-2l1.6-1.9 1.3-1.6-1.3 1.6-1.6 1.9-7.1 9.1c-.3.3-.5.7-1 .9-.7-.2-1.4-.2-1.9-.8.4-.4.8 0 1.3 0 .3 0 .5-.2.7-.4l7.1-8.9.1-.2.8-1 1.7-1.9c.1-.2.5-.4.1-.7-1.4-.5-2.7-1.1-4.1-1.4l-.2-.1-4.9-1.7h-.7c-1.9-.7-3.7-1.1-5.3-2.1z" class="st9"/><path d="M21.7 21.7c.2.2.4.3.6 0l.4-.2 1 .2 6.8 2.3c.3.1.7.2.9.6-.1.5-.4.3-.7.3l-1.3-.4c-1-.2-1.9-.8-3-.9l-1.8-.4c-1-.5-2.2-.6-3.2-1.2 0-.2.1-.4.3-.3z" class="st10"/><path d="M27.7 13.3l4.7-5.1c.5-.5 1-.1 1.5.1l-.5.2c-.5 0-.9.1-1.3.5l-3.4 3.8-.8.9-.2-.4z" class="st9"/><path d="M24.2 17.6l-4.4 5-.2-.2 4.6-5v.2z" class="st11"/><path d="M24.2 17.6v-.2c.7-1.2 1.8-2 2.7-3.1l.9-1 .2.4a138 138 0 0 0-3.8 3.9z" class="st12"/><path fill="#9c9c9c" d="M28.5 14.2l-4.2 4.5v-.3c1.2-1.5 2.5-2.8 3.8-4.2.2-.1.3-.2.4 0z"/><path fill="#919191" d="M24.3 18.4v.3l-2.7 3-.3.2c.4-.9 1.2-1.4 1.7-2.2l1.3-1.3z"/><path d="M33.5 8.5c.1-.2.3-.2.5-.2l-.2.3a13 13 0 0 0-2.3 2.4c-.4-.4.1-.5.2-.7l1.8-1.8z" class="st15"/><path d="M65.5 24.6c.4-.8.8-1.5 1.6-2-.5.7-.9 1.5-1.6 2z" class="st2"/><path d="M30.8 11.7l-1.6 1.8h-.1c0-.6 1.2-1.7 1.7-1.8z" class="st16"/><path d="M64.4 26c0-.5.1-.9.7-.9-.2.3-.3.7-.7.9z" class="st2"/><path d="M23.8 41c.9-1.6 1.7-1.9 3.5-1.4 1.6.5 3.3.8 4.9 1.2.5.5.1 1-.2 1.4-.3.5-.7.9-1.4.8-.9-.1-1.7-.5-2.6-.8l-3.6-.8c-.2.1-.8.2-.6-.4z" class="st11"/><path d="M23.8 41c.6.5 1.3.4 2 .5 1.3.3 2.6.6 3.8 1.1 1.6.7 3-1.7 3.1-3.2.1 0 1.5.7 2.2 1.8.4.6.5 2.3.3 2.4-.2.1-2.6.6-2.6 1.2-.7-.7-1.2-1.4-2.2-1.7-.7-.2-1.5 0-2.3-.3-1-.4-2.1-.4-3.2-.7-.8-.2-1.5.1-1.7.7-.3.8-.7.6-1.2.5h-.4c.5-1.5 2.1-2.2 2.2-2.3z" class="st17"/><path d="M34.9 41a10 10 0 0 1 3.4 3.4c-.1.1-.1.2-.3.2-.6-.4-1-1.2-1.6-1.7a6.8 6.8 0 0 0-2.9-1.8l-.8-.5c-2.1-.6-4-1.6-6.2-2.2-1-.3-2.1-.4-3.1 0-.1-.1-.3 0-.4-.2 1.6-.6 3-.4 4.6.2l4 1.3c.4.2.9.2 1.3.5h.2c.5 0 .9.2 1.3.4l.5.4z" class="st0"/><path d="M32.7 40.6c2.4.5 4 2 5.3 3.9l.1.3c-.2.4-.4.1-.5 0-.9-1.1-2.1-1.7-3.2-2.7l-1.8-1.3c.1.1.1 0 .1-.2z" class="st1"/><path d="M73.5 26.5a8.7 8.7 0 0 1 2.5-3.2c-.6 1.2-1.6 2.2-2.5 3.2zM69.9 31.2a8.6 8.6 0 0 1 2.1-2.9c-.4 1.1-1.2 2-2.1 2.9z" class="st0"/><path d="M19.2 45.8v.3l-.4.2-.2-.1c-.3-.1-.4-.3-.3-.5l.2-.3c.4-.1.5.2.7.4z" class="st1"/><path d="M72.2 28.1c.3-.6.5-1.3 1.3-1.6a4 4 0 0 1-1.3 1.6z" class="st0"/><path d="M34.4 40.6c-.5 0-.8-.2-1.3-.4.5-.2.9 0 1.3.4zM32.9 40.3c-.4-.1-.9-.2-1.3-.5.6-.1 1 0 1.3.5z" class="st1"/><path d="M63.2 25.8c.8 0 .7.4.3.8-.5.6-1.1 1.1-1.4 1.9a60.9 60.9 0 0 0-3.1 4l-1.5 1.7c-.3.4-.5-.1-.7-.2l-.1-.2 4.5-5.8c.6-.7 1.1-1.6 2-2.2z" class="st12"/><path fill="#999" d="M56.7 33.9v.2c-1.8-.4-3.4-1.1-5.1-1.7L47.8 31c-.1-.1 0-.2 0-.2.8-.2 1.4.3 2 .4l1 .3.2.1c.8.3 1.6.7 2.4.8.4.1.9 0 1 .5.6.5 1.3.6 2 .7.2.1.3.1.3.3z"/><path d="M26.3 23.5c.3-.4.6-.2.9 0l1.9.7 1.9.7c.3 0 .5.1.7.3v.1c-1.9-.4-3.7-1.1-5.4-1.8z" class="st16"/><path d="M47.8 30.8v.2l-5.5-2c-.1-.1-.1-.2 0-.2l.5-.1.6.2c.4.3.9.4 1.4.6l2.6.9c.2 0 .4.1.4.4z" class="st19"/><path d="M42.2 28.8v.2c-2-.7-4-1.2-5.9-2.1l.2-.2c.9 0 1.7.5 2.6.7l.3.1 2.2.8c.2.1.6.1.6.5z" class="st20"/><path d="M36.5 26.9h-.2a25 25 0 0 1-4.6-1.6c.2-.2.4-.2.7-.1l3.8 1.3c.1 0 .3.1.3.4z" class="st16"/><path fill="#e0e0e0" d="M88.2 45.1c.1-.2.3-.4.5-.4.5 1-.3 1.8-.5 2.7-.1.4-.2.7-.1 1.1.3 1.4 0 2.1-1.4 2.8-.7.3-.7.7-.3 1.3.9 1.4.7 1.9-.8 2.6-.5.2-1.1.2-1.4.6l-2.5.5c-.7.1-1.1-.1-.9-.9.4.6 1.3.5 1.9-.3.5-.7 1-1.4.8-2.4-.1-.6.2-1 .7-1.2.7-.2.9-.8 1-1.6-.5.2-.7.8-1.3.6-.2-.9-.8-1.1-1.8-.8l-.8.5c-.7-.6-.7-.6.4-1.7h-.4c-.2 0-.4.1-.4-.2 0-.2.2-.3.3-.4.5-.2 1.1-.4 1.6-.3.4 0 .7-.1.6-.5-.1-1 .6-1.2 1.3-1.3.8-.1 1.5 0 2.3.1 1 .2 1.4-.1 1.2-.8z"/><path fill="#fcfcfc" d="M81.4 50.3c.5-.9 2-1.1 2.6-.3.3.3-.1.5-.1.7-.9.2-1.8.3-2.5-.4z"/><path fill="#d8d8d8" d="M39.4 57.4c-.9-.6-2.1-.7-3-1.3l.1-.1c1.8-.8 1.9-1 2-3.1.1-1.3-.4-4.2-.1-5.5.1-.2 1.4 1.5 1.6 1.8 1.3 1.6 2 3.4 1.8 5.5-.1 1.1-.1 1.1.9 1.6.4.1.7.3.9.7 0 .3-.2.3-.4.3l-.9-.2c-.7-.3-1.3-.5-1.7.4l-.3.1c-.4 0-.7 0-.9-.2z"/><path d="M44.3 55.6c-.1 0-6.4.6-7.1.5-1.1-.3-1.6.9-1.6 2.1l-.2 1.3a6 6 0 0 0-.1 3.5c.3 1.3.3 2.6.3 3.8v9.6c-.1 3.4.2 6.9.1 10.3l.1 5.4c0 1.4 0 2.8.5 4.1 1 1.8 2.7 2.7 4.7 3.2.5-.2.3-.6.1-.9L40 97.4c-.5-.3-.6-.7-.6-1.2v-5.3c0-.6.6-1.1.3-1.6-.4-.7-.3-1.5-.4-2.3-.2-1.1-1-2-.6-3.1a5 5 0 0 0 0-3.4c-.3-.9.4-1.7.5-2.6.1-2.3 0-4.6.2-6.9.1-1.1 0-2.3.8-3.2l.1-.4c-.3-1.2-.1-2.4-.1-3.6 0-1-.2-2.1.7-3 .3-.2.3-.6.4-1 .2-.6.5-1.1 1.3-1l1.8.2 9.9 3.3c0-.3.6-.8 1-.8-.3-.2-9.7-5.8-11-5.9z" class="st5"/><path d="M80.7 17.6v-.2l-10.4 13-6.5 8.4c-2.2 2.9-4.3 6.3-8.2 6.8-2.3.3-4.7-.7-6.9-1.4l-7.3-2.5-29.5-10.6c-1.1-.4-2.6-.7-3.3.2-.4.4-.5 1.1-.5 1.6-.1 1.9.1 3.8.8 5.6.6 1.7 1.7 1.6 3.3 1.8 1.9.3 3.3 2 4.4 3.6.2.3.4.6.3.9-.1.4.5 3.8 2.9 2.2 1.5-1.1 2.2-3.8 3.3-5.2 1-1.2 2.4-2.1 4.1-1.9 1.7.2 3.2 1.5 5 1.1.4-.1.9-.5.8-.9 5 4 12 9.1 11.3 16.4 0 .3.2.4.4.6.3.2 4.9 3.1 6.1 3.5 3.4 1.2 6.1 1.8 9.1-.9 2.5-2.2 4.2-5.3 6.4-7.8 3.8-4.5 6.7-9.4 10.1-14.2 1.1-1.5 2.2-2.9 3-4.6 2-4.7 1.7-10.2 1.3-15.5z" class="st1"/><path d="M44.7 48.3c.4 0 .6.2.6.6 0 .2-.1.5-.3.4-.4-.1-.6-.3-.7-.7-.1-.3.2-.3.4-.3z" class="st1"/><path d="M38.5 49c.1-.1.1-.3 0-.4a.3.3 0 0 0-.4 0c-.4 1-.9 1.8-1.7 2.6.2-.7-.2-1.2-.5-1.8l-2-3c-.2-.3-1.5-2.7-3.2-3.2s-2.4-.5-3.6-.8l-2-.4c-1.7-.1-3.5 1.5-4.7 2.6-.5.5-2.2 2.1-.6 2.4.3.1.7 0 1-.1l4.2-1.1c.9-.2 2-.6 2.1-1.5v-.2h.1c.8 0 1.5 0 2.1.5.3.2.7.3 1 .6 1.8 1.2 3.4 2.7 3.8 5 .1.6.6.9.9 1.4v1.2c.2.2.3-.4.5-.1-.2.6-.6 1.1-.9 1.5-.3.4-.8.7-.5 1.3.6.3 1.3.6 2 .7 1.2 0 1.8-.3 2.1-1.2l.3-1.5c.2-1.5-.1-3 0-4.5z" class="st24"/><path fill="#252525" d="M23.6 56.3c-1-.9-2.4-2.1-4.1-2.2s-1.7.5-1.8 1.2c-.1.6 0 1.6.3 2.1.6 1.1 2.1 3.3 4.3 3.7 2.2.4 2.6-.7 2.7-1.2 0-.3.1-1.1-.2-1.9-.4-.9-1-1.5-1.2-1.7z"/><path d="M20.8 59.5c.1.1.3.3.3.5s0 .4-.2.5l-.4-.1a6.2 6.2 0 0 1-3.2-4.2c0-.3-.2-.6.1-.8 0-.2.2-.4.4-.6-.2 1.8 2.9 4.6 3 4.7z" class="st26"/><path d="M17.4 55.3c.1 2.1 1.3 3.6 2.8 4.8 1 .4 1.9.9 2.9.8.2 0 .5 0 .6.2-1.8.6-3.1-.2-4.4-1.3-.6-.5-1.4-1.3-1.7-1.8s-.6-1.2-.7-1.9c.1-.2.1-.6.5-.8z" class="st24"/><path fill="#929292" d="M23.8 61.2c-1.3.1-2.5-.2-3.5-1 .1 0 .1-.6.6-.5.5.1 1.4.9 1.9.9 1.1 0 2-.4 2.1-.5-.2.6-.5 1-1.1 1.1z"/><path d="M31.1 24.6c-1.8-.8-3.8-1.3-5.7-2-.9-.3-1.9-.7-2.9-.9-.1-.4.1-.6.4-.8 1.1-1 2-2.3 3.1-3.3.4-.5.7-1.2 1.5-1.4.3.5-.3.6-.4 1 .3 0 .6 0 .5.5-.1.3 0 .5.3.7 0 .3-.2.3-.4.2-.2-.1-.4-.1-.5.2 0 .3.2.3.4.4.3.1.6-.1.8.1 0 .6.2.7.8.7.6-.1 1.1-.3 1.6-.6s1-.3 1.6.1c.6.4.9.2 1-.5-.4-.6.3-.8.4-1.3.5-.1.8.1.5.6-.1.3-.2.5.1.7l1 .2c.2 0 .5.1.6-.2.1-.3-.2-.3-.3-.4l-.1-.3c.6 0 1.2-.1 1.6.5.1.2.2.2.4.2.9-.3 2 0 2.8-.6h.1c.3.4.7.4 1.1.3.3.1.5.2.6.4l.2.2c1.4.3 2.6.8 3.9 1.4.2.2.4.3.7.2.3-.1.5-.1.8.1l.4.4c.4.2.7.5 1.2.4l.6.2c.2.3 0 .5-.3.6l-2.5.8c-.8.1-1.6.1-2.1-.7l-.1-.2V22c-.3-.2-.5-.2-.7.1-.2.2-.1.3.1.4.2.1.5.1.7.3.3.2.7.3.6.7-.1.4-.5.4-.8.4h-.8l-.4-.1c-.2-.2-.4-.4-.7-.2-.5.3-.9.3-1.3-.2l-.5-.3h-.9l-.2-.1c-.1-.1-.1-.4-.2-.2-.2.4-.6.4-.9.4.1.2.4.2.6.4.2.7-.1 1-.8.8h-.4l-.7-.2-.8-.2c-.4-.3-.4-.3-.8.1-.2.2-.2.3 0 .5.6 1.1.6 1.2 0 1.9-1 .1-1.8-.5-2.7-.7-.4-.1-.7-.3-1.1-.3l-.6-.2-.4-.7z" class="st5"/><path d="M42.1 19a2 2 0 0 1-.6-.4c-.2-.2-.2-.4 0-.7.4 0 1.2.5 1.1-.5.2-.3.4-.3.7-.2.2.1.4-.2.6 0 .5.6.9.1 1.2-.2l.4.2c.2.3.2.6 0 .9.6-.4 1 .4 1.6.3.2.6.7.3 1.1.4.3.2.5.4.9 0-.3-.3-.6.1-.9 0-.2.1 0-.7-.4-.2-.3.4-.5.1-.7-.1l-.2-.9c.3-.6.8-.8 1.5-.7-.2-.3-.3-.6-.7-.8-.5-.4-.4-.5.2-.8 0 .4.3.3.6.3.2-.2.1.6.4.1l.6-.5.4.2c0 .4-.4.6-.6.9.6 0 .5-.6.7-.9.3.4.8.5 1.3.7.2.3-.1.4-.3.6-.1.1-.3.2-.1.4.3.2.6.2.9.2l.4.1c.2-.3 1.2-.5.1-.9l-.2-.1-.2-.3c.3-.7-.7-.9-.7-1.4l5.2 1.8c.5-.2.8.2 1.2.3l3.6 1.3c.3.3.2.5-.1.6-.4.2-.7.3-1.1.3l-.9-.1c-.4.1-.8.2-1.1-.1-.3-.4-.7-.7-1.1-.2-.2.2-.5.3-.8 0-.2-.2-.3.1-.4.1l.3.1c.2.1.3.2.4.5-.4 1.8-.7 2-2 2.2-.8.1-.8 0-.7-.8l.2-.3c-.1.4-.7.2-.8.6 0 .3.2.6-.1.9-.4.3-.6.7-1.1.9-.6.1-1.2 0-1.6-.5.3-.7-.4-.8-.6-1.3-.1-.2-.1-.7-.6-.3h-.9l-.2-.1c-.4-.3-.8-.4-1.3-.2l-.2-.1c-1-.7-2.3-.8-3.4-1.3-.3-.2-.7.4-1 0z" class="st28"/><path d="M27.6 16.1l-1.4 1.4v-.3c1.6-2 3.4-3.8 5.2-5.6l2.2-2-6 6.5z" class="st29"/><path fill="#b5b5b5" d="M38.1 16.9c-.5.5-1 1.1-1.8.7-.1-.1-.4.1-.4-.2 0-.2 0-.4.2-.5.5-.2.9-.8 1.5-.2.1.2.3-.1.5.2z"/><path d="M46.8 17.6c.4.2.4.5.2.9-.4.1-.9.5-1.1-.3-.1-.2-.2.1-.3.1-.3 0-.6 0-.8-.4.9.4.5-.3.6-.6.6-.1.9.5 1.4.3z" class="st31"/><path fill="#b9b9b9" d="M39.8 13.7c-.2-.3.4-.7 0-.9-.5-.2-.5.6-1 .6-.2-.3.4-.4.2-.8-.1-.2.5-.6.8-.5.4.3 1.3.1 1.1.8-.1.4-.7.6-1.1.8z"/><path d="M30.6 17c-.7-.1-.4 1-1.2.5l-.2-.1c-.3-.1-.7.4-.8-.2-.1-.3.2-.5.4-.7.3-.3.7-.3 1-.1l.8.6z" class="st33"/><path d="M28.3 19.2c-.5.5-1 .2-1.4-.1-.4-.3 0-.6.1-.8.1-.1.3-.4.5 0 .1.3.3.1.5 0 .9 0 .5.5.3.9z" class="st34"/><path d="M35.4 18.3l.2.2c.2.1.7 0 .5.5-.2.4-.5.6-.9.4-.4-.1-.8-.1-1.1-.5.5-.2.8-.6 1.3-.6z" class="st35"/><path d="M47.9 15.3c-.3.2-.6.4-.2.8-.2.1-.3.2-.5 0-.3-.4.1-.6.2-.9-.3.5-.8.3-1.2.6-.3 0-.3-.2-.2-.4l.4-.8c.6-.1 1 .5 1.6.4.2 0 0 .2-.1.3z" class="st36"/><path fill="#aeaeae" d="M31.8 14.9c-.4.3-.3 1.4-1.2.9-1-.6-.3-1 .3-1.1.2-.2.5.1.9.2z"/><path fill="#757575" d="M26.1 17.3v.3l-3 3.3c-.2.2-.5.4-.5.8h-.4c1.2-1.6 2.6-3 3.9-4.4z"/><path d="M43.3 17.2l-.7.2c-.3-.1-.8.1-.8-.3 0-.3.4-.5.6-.7.3-.3.6-.1.9 0 .4.3-.1.6 0 .8z" class="st39"/><path d="M33.5 13.4c-.3.5-.6 1-1.3.7-.4-.2-.2-.8-.2-.8.5-.7 1 .2 1.5.1z" class="st10"/><path d="M39.4 15.2l-.4.6c-.2.2-.4.4-.7.2.2-.4-.4-.5-.2-.8.1-.2.3-.6.5-.3.2.7.5.1.8.3z" class="st40"/><path d="M31.9 17.2l-.7.9c.6.1.5-.6 1-.6-.3.3-.2.9-.8.9-.3 0-.5-.2-.5-.5 0-.5.3-.8 1-.7z" class="st35"/><path d="M45.1 17c0 .4-.4.8-.6.8-.4-.1-.9-.2-1.2-.6.5-.4.5-.4.9 0 .3.2.6-.3.9-.2z" class="st41"/><path d="M51.9 16.2l.2.2c.2.3.1.5-.1.6-.3.2 0 .3 0 .5-.4.3-.8.1-1.1-.2-.1-.6.6-.6.7-1 0-.2.2 0 .3-.1z" class="st42"/><path d="M36.8 12.2c.5-.2 1-.3 1.6-.3-.1.4-.7.6-.5 1.2l-1.1-.9z" class="st19"/><path d="M41.5 18v.7c-.5.2-1 .7-1.1-.3.3-.5.6-.5 1.1-.4z" class="st43"/><path d="M50.1 15.5c0 .3 0 .5.3.6-.2.4-.9 0-.9.7h-.3c-.2-.2-.1-.4 0-.5l.8-.7.1-.1z" class="st29"/><path d="M33.6 17.7c.3.5-.6.8-.4 1.3-.3 0-.5-.1-.5-.5 0-.3.1-.3.3-.4.3-.1.5-.2.6-.4z" class="st44"/><path d="M42.4 13.6c.1-.2.2-.4.5-.4.1.4-.7.8-.1 1.2l-.1.2h-.2c-.3-.2-.3-.5-.2-.8l.1-.2z" class="st45"/><path fill="#c9c9c9" d="M46.5 14.6c.1.5-.5.8-.2 1.3-.4.2-.4-.2-.6-.4.3-.3.3-.9.8-.9z"/><path fill="#7f7f7f" d="M49.5 15.3c-.3.5-.6.9-1.2 1.2-.1-.4.3-.6.2-.9l1-.3z"/><path fill="#b3b3b3" d="M42.4 13.6l-.1.2c-.2-.1-.4-.1-.5.1-.2.4-.5.3-.9 0 .5-.2.9-.7 1.5-.3z"/><path d="M51.5 16.2c0 .5-.6.6-.7 1-.5-.1-.1-.4 0-.6.1-.2.5-.2.6-.5l.1.1z" class="st49"/><path d="M36.9 12.2l-.5.3c.2-.6.6-.7.9-1.1 0 .5-.4.6-.4.8-.1 0 0 0 0 0z" class="st20"/><path fill="#d9d9d9" d="M53.7 20.7c.2.2 0 .4-.1.7l1.4-.2c.4-.1.9-.3.7-1-.1-.4.5-.5.5-.9.4-.3.6-.1.8.2l-.2.5c.2-.1.2-.2.3-.4v-.4c0-.9.1-.9.9-.5.4.2.8.2 1.1 0 .3.6-.3.6-.7.9.5.2.9.3 1.4.1.4-.2-.1-.6.1-.8.4-.3 1.1.1 1.3-.7.3-.2.6.1.9.2l4.5 1.6c-.1 1-1.1 1.4-1.5 2.2-.1.2-.4.4-.4.7l-.7.7c-.9 1.1-1.7 2.4-2.9 3.4-.7-.3-.5-.8-.3-1.3.1-.4.3-.7-.3-.8l-.8-.2c-.4-.2-.7 0-1 .3-.2.2-.7.4-.7 0 .1-1.1-.7-.9-1.3-1a2 2 0 0 0-1-.6c-.6-.2-1.2-.1-1.6.4l-.4-.2c.2-.6.1-1.2-.7-1.3-.1 0-.2-.1-.2-.3.3-.3-.1-.6 0-.9.2-.4.5-.5.9-.4z"/><path d="M56.7 33.9l-.2-.2 7.2-8.9.8-.9.1.1-1.5 1.9-6.4 8z" class="st51"/><path d="M61 26.7c1-1 1.8-2.3 2.9-3.3.1.4-.2.5-.4.8l-6.8 8.6c-.2.3-.3.7-.8.6-.1-.2 0-.3.1-.5l4.5-5.7c.1-.3.3-.4.5-.5z" class="st52"/><path d="M62.1 18.3l-.9-.2-4.8-1.6c.5-.5.9.1 1.4.2l4 1.3.3.3z" class="st40"/><path fill="#8c8c8c" d="M56 33l-.2.3-1.3-.4c-.3-.2-.6-.3-1-.3l-2.6-.9c-.1-.1-.5-.1-.4-.4l.2-.2c1.8.4 3.6 1.1 5.3 1.9z"/><path fill="#b4b4b4" d="M66.5 19.9c-1.5-.6-3-.8-4.4-1.6 1.6.2 3 1 4.5 1.5l-.1.1z"/><path fill="#6c6c6c" d="M66.5 19.9l.1-.2c.2.1.3.2.1.5-.7.8-1.3 1.8-2.1 2.5.1-.7.7-1 1.1-1.6l.8-1.2z"/><path d="M66 21.9c.6-.7 1.1-1.5 2-2l-1.8 2.2-.2-.2z" class="st41"/><path d="M66 21.9l.1.2-1.5 1.8-.1-.1c.4-.7 1-1.3 1.5-1.9z" class="st56"/><path fill="#d4d4d4" d="M31.1 24.6l.2.2c0 .2 0 .3-.2.2-.7-.2-1.4-.2-2-.8.7 0 1.3.6 2 .4z"/><path d="M44.2 56.2c.7-4-3.8-14.1-10.9-14.5-.9 0-.8 2.6-.7 3 .2.9.9 1.6 1.5 2.4 1.1 1.3.8 4.3 2.3 4.5s2.9-2.7 3.2-2.4a7 7 0 0 1 1.8 4.8c0 .5-.1 1.1.1 1.6.5 1.2 2.8 1.2 2.7.6z" class="st0"/><path d="M50.6 31.4l.4.3c-1.1-.1-2.1-.8-3.2-.9l-.4-.3s-.1-.1 0-.1v-.1c.6-.1 1.1.3 1.7.4l.2.1c.4.2 1 .2 1.3.6zM51 31.7a8 8 0 0 1 2.6.9c-1-.1-1.8-.4-2.6-.9z" class="st11"/><path d="M31.1 24.9l.2-.2.5.2c.7.1 1.3.4 1.9.6 1.4.5 3 .7 4.4 1.3.4.2.9.2 1 .7-1 0-1.7-.6-2.7-.7-1.6-.6-3.2-1.2-4.8-1.6l-.5-.3z" class="st58"/><path d="M39.2 27.6c-1.5-.8-3.3-1.2-4.9-1.8l-2.5-.9c1-.1 1.8.5 2.6.7l1.3.4.8.1 6.5 2.2c.2.1.5.2.6.4 0 .2 0 .3-.2.4-.1.1-.2 0-.2-.1-.1-.2-.3-.1-.5-.1l-3.5-1.3z" class="st59"/><path d="M39.2 27.6c1.3.3 2.5.7 3.6 1.3h-.6c-.7-.4-1.5-.5-2.2-.8-.3-.2-.6-.2-.8-.5zM47.4 30.3v.1l-2.7-.9.2-.2c.9.2 1.8.3 2.5 1z" class="st60"/><path fill="#ccc" d="M44.9 29.5h-.2c-.5-.1-1-.2-1.4-.6h.2c.6-.1 1.1 0 1.4.6z"/><path d="M43.7 28.8l-7-2.5c-.3-.1-.6-.1-.9-.4.6-.7.1-1.2-.2-1.8.2-.3.4-.7.9-.5.3 1 .7.2 1.1 0 .2.2.4.2.7.2l-.2.5.4-.5c.6.3.7-.1.8-.5.1-.4.2-.8.7-.5.3.7.4.7 1-.2l.4.3c0 .3-.1.6.3.8.6.2.7-.3.9-.6.3-.1.8-.3.7.4.1.3-.4.3-.4.6 0 .1.3.2.4.1.3-.1.1-.5.3-.7v-.1c.3-.2.6-.1.9 0 .2.1.5 0 .6-.2.1-.3-.2-.3-.4-.4l-1-.4c.2-.3.6-.3.9-.2 1.1 1.2 2.4.8 3.6.3.4-.2 1.2.1 1.3-.7l.1-.2c.3 0 .3.2.4.4.4.6 1 .5 1.6.5.3.1.5.4.5.7l-.3.2c-.3.1-.8 0-.9.5 0 .4-.5.8-.1 1.3.3.2.2.5.2.8l-.2.2c-.3.1-.5 0-.7-.2l-.3-.6c-.3.1-.4.4-.6.5-.5.4-.6.8.2 1.1l.5.3c.2.2.6.3.4.7-.2.3-.5.1-.7 0l-.7-.2c-.4.1-.6.2-.6.6 0 .2-.2.3-.4.6 1.1-.6 1.6-.6 2.1-.1.4.4.4.8-.1.9-.6.2-.9.6-1.4.9l-4.8-1.9z" class="st17"/><path d="M42.1 19h.2c.9-.3.9-.1 2.2.2.5.1 1 .5 1.6.4.4-.1.5.3.4.7-.1.2-.2.3-.4.3-.7.1-1.3-.3-1.8-.5-.4-.2-1.3.2-1.3-.8l-.2.2c-.4 0-.8.2-.7-.5z" class="st62"/><path fill="#656565" d="M42.8 23.1c.3.5-.2.7-.5.9-.1.1-.7 0-.8-.2-.2-.5-.4.2-.5-.1 0-.3.4-.4.5-.7h.3c.2.8.6.2 1 .1z"/><path d="M50.3 22c-.2.1-.2-.6-.5-.2l-.6-.2c-.4-.5-.3-.7.5-1 .2.5.6.6 1 .4.1.6-.3.7-.4 1z" class="st64"/><path d="M32.8 22.6l-.2.1c-.4.4-.9.2-1.1-.2-.1-.2.3-.7.5-.7.3 0 1-.2.9.6.1.2 0 .2-.1.2z" class="st65"/><path d="M43.8 23.5c.3.4 0 .8-.1 1.2-.4-.1-.6-.7-1.3-.2.3-.6.8-.6 1-.9l.4-.1z" class="st66"/><path d="M40.1 22.8c-.4-.1-.5.4-.7.5-.6.1-.7-.5-1-.8.3-.2.3.1.5.1.3.1.3.1.5-.3l.3-.1c.3 0 .5.2.4.6z" class="st67"/><path d="M49.7 20.8c-.3.3-.8.4-.5 1-.6.4-.9-.3-1.3-.4 0-.3.2-.4.5-.4s.5-.1.6-.4c.3-.3.6-.3.7.2z" class="st17"/><path d="M41.1 22.6c.2.4-.1.7-.4.9H40c-.3-.2-.1-.5 0-.7.4-.3.7-.3 1.1-.2z" class="st67"/><path fill="#686868" d="M49 20.5c.4.5.1.7-.3.7-.3 0-.6-.2-.7.2-.2 0-.3-.1-.3-.3 0-.3.3-.4.5-.6.2-.3.5 0 .8 0z"/><path fill="#5c5c5c" d="M37.6 23.7c0 .3-.2.5-.4.6-.2.1-.5.2-.7 0-.3-.2 0-.5 0-.7l.1-.1c.4-.1.7-.2 1 .2z"/><path d="M43.1 20.8c.3.2.8.1.7.5 0 .5-.4.6-.8.6-.3 0-.7 0-.7-.4 0-.2.4-.5.8-.7z" class="st64"/><path fill="#717171" d="M36.7 23.6l-.1.1c-.5-.1-.4.6-.9.5-.1-.2-.5 0-.4-.3 0-.2.3-.2.4-.2.2-.1.5-.1.2-.4.3-.3.6-.2.8.3z"/><path d="M38.7 20.5c.1-.4.9-.1.7-.8l.5.1c.1.1.2.3 0 .4-.3.3-.6 1-1.2.3z" class="st49"/><path d="M38.5 21.6c-.6 1.2-.6 1.2-1.4.6.4-.4.8-.4 1.4-.6z" class="st67"/><path d="M44.9 22.2c-.2.3-.6.1-.9.2-.3-.3-.4-.6 0-.9.4-.2 1-.4 1.2.3-.2.2-.6 0-.8.1l.5.3z" class="st56"/><path d="M41.5 20.4c.4.2.1.5.2.7l.8-.4c-.3.4-.6.9-1.1.7-.3-.1-.1-.7.1-1z" class="st67"/><path d="M48.1 20.4l-.5.6c-.3-.4-.6-.1-.9 0-.5.2-.6 0-.6-.5.1-.1.2-.3.4-.3.4.4.9-.1 1.4.1l.2.1z" class="st17"/><path d="M41.1 20.3c-.5 1-.5 1.1-1.2.4.4-.3.8-.5 1.2-.4z" class="st56"/><path d="M44.9 22.2c-.2-.1-.8.1-.7-.3.2-.6.7 0 1.1 0l-.4.3z" class="st17"/><path fill="#848484" d="M32.8 22.6l.2-.2.5-.3c-.2.6-.4.9-1 1.1l.3-.6z"/><path fill="#4b4b4b" d="M38.6 23.9c0 .5-.4.7-.9 1.1.2-.5.2-.9.6-1.1h.3z"/><path d="M33.2 21.2c.1-.4.4-.8.8-.9-.1.4-.4.7-.8.9z" class="st36"/><path fill="#8b8b8b" d="M25.7 21c.3-.6.6-.9 1-1.1a2 2 0 0 1-1 1.1z"/><path d="M28.1 20.4c-.1.5-.4.8-1 .9l1-.9z" class="st44"/><path d="M26 20c-.1.3-.3.6-.8.8.1-.5.5-.7.8-.8z" class="st59"/><path fill="#636363" d="M52.2 23.3c0-.3-.5-.3-.4-.7l.9-.9.5.2c1.2.4 1.2.4.4 1.4-.2.3-.5.2-.9.2-.2 0-.4 0-.5-.2z"/><path fill="#939393" d="M55.6 17.4c.2 1-1.3.2-1 1.2-.2.1-.4-.2-.6-.2-.8-.1-.3-.8-.6-1.1.4-.3 1.2-.4 1.4-.1.3.5.6.2.8.2z"/><path d="M59.9 18.8c-.1.4.7 0 .5.4-.2.4-.5.9-.8.9-.5-.1-1.1 0-1.5-.5-.2-.3 0-.5.3-.5.4 0 .7-.1.7-.5l.8.2z" class="st45"/><path d="M57.9 18.6l-.3.1c-.2.1 0-.5-.4-.2-.2.2.1.3.1.5l-.1.5h-.3a1 1 0 0 0-.7-.3l-.7-.5.5-.6c.1-.1.2-.2.3 0 .1.1-.5.4.1.4.2 0 .4-.1.4-.3 0-.3.1-.5.4-.3.3.3.8.1.7.7z" class="st35"/><path d="M48.1 18.8l.3-.2c.3-.2.7-.3.9 0 .2.3-.1.6-.4.7-.4.1-.8.1-.8-.5z" class="st43"/><path fill="#5e5e5e" d="M47.9 20.4c-.4.4-.9.1-1.4.3-.2.1.1-.3 0-.4.6-.5 1-.5 1.4.1z"/><path d="M52.2 16.3l.3.1c.3.1.7.1.7.3.1.3-.2.5-.5.6-.2.1-.3.3-.3.5h-.1l-.1-.1c-.2-.4-.2-.9 0-1.4z" class="st42"/><path d="M52.1 20.5c-.3-.1-.8 0-.8-.5 0-.4.4-.5.7-.5.4 0 .8 0 .8.5.1.4-.3.5-.7.5z" class="st43"/><path d="M53.7 20.7c-.2.4-.6.3-.9.2v-.3c.1-.3.8.1.6-.6 0-.1.4-.1.6.1.2.3-.1.4-.3.6z" class="st26"/><path d="M48.1 18.8c-.5.2-1 .5-1.1-.4.2 0 .4.4.5.1.1-.2-.1-.7.4-.5.6.2.2.6.2.8z" class="st31"/><path fill="#737373" d="M51 20c-.5.1-.8 0-1.1-.3-.1-.2.1-.4.3-.5.4-.2.8-.2 1.3.2-.5.1-1-.5-1.1.1-.2.4.4.1.6.5z"/><path d="M52.2 16.3v1.4l-.3-.3c-.3-.1-.6-.3-.1-.6.2-.1.3-.3.3-.5h.1z" class="st41"/><path d="M48.8 27.4c.6-.1.9.5 1.4.5.1-.4-.3-.3-.4-.5.3-.5.6-.9 1.1-1.3L52 26c.4.2.3.4 0 .6a1 1 0 0 1-.7.3c.4 1 1.5.6 2.1 1h.4c.3.2.6.1.9.1.4 0 .7.1.9.4.2.3 0 .8.6.7.7-.1.2-.9.6-1.1.3-.2 1 0 .9-.7v-.2c.2-.4.8-.3 1-.7.3-.2.1-.6.1-.8 0-.1.1-.2.3-.2.8.2 1.1-.3 1.2-1 .7.1.9.4.5 1.1-.2.4-.5.9 0 1.2l-5 6.3c-1.2-.2-2.2-.7-3.3-1l-2.1-.7c-.5 0-1-.2-1.4-.4-.2-.1-.5-.1-.5-.4.2-.6.5-.9 1.1-.9.2 0 .4-.1.4-.3 0-.2-.1-.3-.3-.4-.5-.3-.9-.6-1.4 0-.2.3-.6.5-.8.2-.3-.3.1-.5.4-.6.2-.1.2-.2.2-.4.5-.2.7-.4.7-.7z" class="st58"/><path d="M60.4 24.4c.3.7-.1 1.3-.8 1.2-.2 0-.4-.2-.6 0-.3.3.2.6 0 .9-.1.7-.9.2-1.1.8-.5-.5-.5-1.1-.6-1.7.3-.2.4-.5.2-.9v-.1l-.1.3c-.2.4 0 1-.8.9 0-.6.1-1.2-.3-1.7 0-.2.1-.3.3-.2.5-.3.9-.2 1.3.1.3.3.3.7 0 1.2.8-1.6 1.7-1.1 2.5-.8z" class="st67"/><path fill="#727272" d="M56.8 23.6c-.2.1-.2.2-.3.4.2.2.1.3 0 .4-.2.1-.4 0-.6-.1-.3-.1-.1-.5-.3-.7-.3.4.2.5.3.8l-.2.2c-.3.1-.5.4-.8.2 0-.6-.6-.3-.9-.4l-.4-.3c0-.4 0-.7.4-.7.3-.2.1-.8.6-.7.9.1 1.7 0 2.2.9z"/><path d="M54 23.5c-.3.2-.4.4-.4.7-.3.2-.6.3-1 .1-.3-.3-.2-.6.1-.9h.8c.2-.1.4-.1.5.1z" class="st79"/><path d="M56.9 19.5h.3l-.2.4c-.2.2-.2.8-.6.5-.4-.3.2-.5.3-.8l.2-.1z" class="st28"/><path fill="#878787" d="M49.2 30.8c.5 0 1 .3 1.4.4v.2c-.5-.1-1-.2-1.4-.6z"/><path d="M48.7 30.4l.5.4c-.6 0-1.2-.3-1.8-.5l-2.5-.8c-.4-.3-.9-.5-1.4-.6l.2-.2c1.6.7 3.3 1.2 5 1.7z" class="st34"/><path fill="#515151" d="M51 26.2c-.1.6-.5 1-1.1 1.3-.2 0-.3-.2-.5-.3-1-.5-1-.5-.2-1.4.4-.2.8-.2 1.1.2l.7.2z"/><path d="M39.7 24.6c.1.1.3.1.4 0 .3-.1.5-.1.7.1.3.3-.1.5-.2.8-.5.3-.9 0-1.2-.4-.1-.3-.1-.5.3-.5z" class="st66"/><path d="M50.9 23.8c.2-.4.5-.6 1-.5.7.4.8.8.4 1.2-.4.1-.8-.2-1.1-.4l-.3-.3z" class="st33"/><path d="M39.7 24.6l-.3.5c-.3.2-.7.2-.8-.1-.1-.3.1-.7.5-.7.2-.2.6-.3.6.3z" class="st82"/><path fill="#535353" d="M52 26.1c-.3.4-.7.3-1.1 0-.1-.3.2-.7-.2-.9-.2-.5.1-.4.4-.4l.2.1c.1.2.1.5.4.7l.2.1c.2.2.2.3.1.4z"/><path d="M51.3 24.9c-.1.2-.6-.1-.5.4-.1 0-.4.1-.3-.1.2-.4.1-1 .5-1.4l.2.2.4.6c0 .1-.1.3-.3.3z" class="st82"/><path d="M40.6 25.5c.3-.1.9.6.7-.4 0-.2.3-.1.4-.1.2.1.4.2.2.4s-.3.5-.6.6c-.4 0-.6-.2-.7-.5 0-.1 0 0 0 0z" class="st56"/><path d="M52.2 24.4c.3 0 .4-.2.2-.4a3 3 0 0 1-.5-.7H52.8c0 .3-.2.6 0 .9.2.5.2.5-.6.7l-.3-.2c0-.3.2-.2.3-.3z" class="st66"/><path d="M50.3 26l-1.1-.2c.3-.2.4-.7.8-.9l.3 1.1z" class="st62"/><path fill="#4f4f4f" d="M48.8 27.4c.2.5.1.8-.5.7-.2-.6.5-.4.5-.7z"/><path d="M42.7 21.6c.1-.3.2-.5.6-.4.1 0 .2.2.1.3-.1.3-.4.3-.7.1z" class="st4"/><path d="M53 22c-.2.4-.1.7-.4.9l-.3-.1c0-.4.2-.6.7-.8z" class="st79"/><path d="M52.2 19.7c.2 0 .4.1.3.3 0 .2-.2.2-.4.2s-.4 0-.3-.3l.4-.2z" class="st9"/><path fill="#3a3a3a" d="M56.7 25.5c.8 0 .4-.6.5-.9.5.3.5.4.2.8l.5 1.8c.1.2-.1.4-.3.4-.4 0-.5.2-.6.6-.1.1-.2.2-.1.5.3.6.1.9-.6.7-.3-.3-.5-.6-.4-1 0-.1.1-.2-.1-.3l.1.2c0 .2 0 .3-.3.3-.3-.5-.8-.3-1.2-.3-.3 0-.5.2-.6-.3-.3-.7.1-1 .6-1.4h.4l.4.5c.1-.2-.2-.3-.1-.5l.2-.3c.7-.1 1.1-.5 1-1.2h.2l.2.4z"/><path d="M52 26.1l-.1-.4c.2-.2.5-.1.7-.4.1-.2.3-.5.6-.4.3.1.1.5.1.7v.3c-.1.4.1.7.2 1-.2.3-.2.7-.1 1 .1.2.1.5-.2.2-.2-.1-.1-.5-.4-.4-.7.2-1.2 0-1.5-.6-.1-.2-.5-.1-.3-.4.1-.2.3-.2.5-.2.3.2.6 0 .5-.4z" class="st52"/><path fill="#a2a2a2" d="M53.4 28.1c-.4-.4-.6-.8.1-1 .1-.4.2-.7.6-.8.4.1.4.3.2.6-.3.4-.5.8-.6 1.3l-.3-.1z"/><path d="M57.1 28.2c.2-.6-.4-.1-.5-.4.4-.3 1-.1 1.4-.5.4.6.2.8-.9.9z" class="st51"/><path d="M56.1 30c-.3.2-.2.8-.8.7l-.3-.3c.3-.3.5-.7 1.1-.4z" class="st39"/><path fill="#5d5d5d" d="M56 28.3c0 .4.4.6.4 1-.5.1-.9 0-.7-.7.2-.1.2-.2.2-.4l.1.1z"/><path d="M51.1 29.1c-.2-.2-.5-.3-.5-.5-.1-.2.2-.4.4-.4s.5.1.5.4l-.4.5z" class="st66"/><path d="M53.6 29.3c-.1.2-.1.5-.5.5-.2 0-.4-.1-.3-.3.1-.3.3-.4.6-.5.1 0 .3.1.2.3z" class="st43"/><path fill="#272727" d="M59 26.5c0-.2-.1-.2-.2-.3-.6-.5-.1-.5.2-.5.2.2.8.5 0 .8z"/><path d="M56.7 25.5l-.1-.1c-.1-.4-.7-.4-.8-.9-.2-.2-.6-.2-.5-.7.1-.4.3-.5.5-.5.3 0 .3.3.2.5-.2.4.1.4.3.5.4.2.3-.1.3-.3.6.4.5.9.1 1.5z" class="st10"/><path d="M57.5 25.4c.3-.4.1-.6-.2-.8 0-.3.3-.4.6-.5-.9.3 1.1 1.2-.4 1.3z" class="st15"/><path fill="#ababab" d="M59.7 24.6c.2.1.5-.1.4.2 0 .2-.2.5-.5.5-.4 0-.2-.4-.3-.6l.4-.1z"/><path d="M59.7 24.6l-.4.2-.6.3c.3-.8.3-.8 1-.5z" class="st20"/><path d="M54.4 26.9c0-.2 0-.5-.4-.5-.4.2-.6 0-.9-.2-.2-.4.1-.7.1-1.1-.5.1-.5 1.2-1.3.7-.2-.2-.2-.7-.6-.8l.2-.3h.3l.2.1c.7.3 1.3-.5 2-.4.4 0 1-.3.9.5l-.6.3c-.2.1-.3.2-.3.6.3-.8.9-.4 1.3-.7l.2-.1c.3 0 .7-.1.8.4l-.1.2c.6.7.1.9-.4 1l-.7.2c-.1.2-.3.2-.4.1h-.3z" class="st60"/><path d="M54 24.4c-.6.4-1.2.7-2 .4.3-.2.9.1.7-.6.3.1.6-.3.9 0 .2 0 .4 0 .4.2z" class="st90"/><path d="M56.3 25.4c-.2-.2-.6-.2-.8-.3-.2-.2 0-.4.1-.5h.2c.3.3 1 .1.8.9l-.3-.1z" class="st66"/><path d="M55.6 24.6l-.1.5v.2c-.4-.1-.9.1-1.2-.3.2-.2.5-.1.7-.1.2 0 .3-.4.6-.3z" class="st10"/><path d="M50 27c-.5.1-.7-.1-1.1-.3.1-.3.3-.5.8-.9-.4.7-.4 1.1.3 1.2z" class="st20"/><path d="M51.8 24.6h-.3c-.3-.1-.3-.3-.4-.6.4 0 .6.5 1.1.4l-.4.2z" class="st90"/><path d="M51.3 24.9c.7-.1.8.2.6.8-.9.3-.4-.4-.6-.8z" class="st52"/><path d="M56 28.3h-.2c-.2-.1-.5 0-.4-.4.2-.3.5-.2.7-.1.4.3.1.4-.1.5z" class="st44"/><path d="M54.7 26.9l.4-.1.2.7c-.1.3-.3.3-.5.2-.3-.1 0-.2.1-.3.2-.2-.2-.3-.2-.5z" class="st65"/><path fill="#aaa" d="M56.2 26.9c.2.1.3.2.2.3-.1.1-.1.4-.3.4-.2 0-.3-.1-.2-.3 0-.2.1-.4.3-.4z"/><path d="M53.1 26.2l.9.2c.1.4-.4.5-.5.7-.4-.2-.5-.5-.4-.9z" class="st52"/><path fill="#424242" d="M54.2 25.1c.4 0 .9 0 1.2.3-.2.2-.5.1-.7.1-.6 0-.7.2-.2.7-.4.1-.7-.1-.8-.4-.1-.4.2-.6.5-.7z"/></svg>