<?xml version="1.0" encoding="utf-8"?>
<!-- Generator: Adobe Illustrator 22.0.0, SVG Export Plug-In . SVG Version: 6.00 Build 0)  -->
<svg version="1.1" id="图层_1" xmlns="http://www.w3.org/2000/svg" xmlns:xlink="http://www.w3.org/1999/xlink" x="0px" y="0px"
	 viewBox="0 0 100 44" style="enable-background:new 0 0 100 44;" xml:space="preserve">
<style type="text/css">
	.st0{fill:#939393;}
	.st1{fill:#D3D3D3;}
	.st2{fill:#C5C5C5;}
	.st3{fill:#080910;}
	.st4{fill:#BFBFBF;}
	.st5{fill:#1A1B21;}
	.st6{fill:#0D0D10;}
	.st7{fill:#303244;}
	.st8{fill:#E5E6E6;}
	.st9{fill:#2C2E3B;}
	.st10{fill:#39415D;}
	.st11{fill:#4D5360;}
	.st12{fill:#BBBBBB;}
	.st13{fill:#2B2C33;}
	.st14{fill:#2F3038;}
	.st15{fill:#A8A8A8;}
	.st16{fill:#C8C8C8;}
	.st17{fill:#2C323C;}
	.st18{fill:#474B50;}
	.st19{fill:#494F5D;}
	.st20{fill:#4F5664;}
	.st21{fill:#373D4E;}
	.st22{fill:#3E4558;}
	.st23{fill:#525A6D;}
	.st24{fill:#FCFCFC;}
	.st25{fill:#15151A;}
	.st26{fill:#3F4354;}
	.st27{fill:#343743;}
	.st28{fill:#353742;}
	.st29{fill:#424752;}
	.st30{fill:#424651;}
	.st31{fill:#3D4149;}
	.st32{fill:#717C8F;}
	.st33{fill:#6A7487;}
	.st34{fill:#161721;}
	.st35{fill:#161C27;}
	.st36{fill:#787F90;}
	.st37{fill:#141924;}
	.st38{fill:#5B6070;}
	.st39{fill:#B3B3B3;}
	.st40{fill:#DFDFDF;}
	.st41{fill:#D1D3D7;}
	.st42{fill:#ECEBF0;}
	.st43{fill:#D0D3D9;}
	.st44{fill:#1E1F27;}
	.st45{fill:#FAF9FB;}
	.st46{fill:#EAEBEC;}
	.st47{fill:#9899A0;}
	.st48{fill:#8F9095;}
	.st49{fill:#6A6971;}
	.st50{fill:#F1F0F4;}
	.st51{fill:#6C6C70;}
	.st52{fill:#DDDDE1;}
	.st53{fill:#8A898F;}
	.st54{fill:#95949A;}
	.st55{fill:#535666;}
	.st56{fill:#0D0E16;}
	.st57{fill:#888B92;}
	.st58{fill:#0A0B10;}
	.st59{fill:#FAFCFC;}
	.st60{fill:#F9FCFA;}
	.st61{fill:#07080D;}
	.st62{fill:#06080C;}
	.st63{fill:#080A0F;}
	.st64{fill:#0B0C11;}
	.st65{fill:#4C4D56;}
	.st66{fill:#EDECF1;}
	.st67{fill:#09090E;}
	.st68{fill:#AAAAAD;}
	.st69{fill:#65666F;}
	.st70{fill:#7C7F8B;}
	.st71{fill:#D4D5CE;}
	.st72{fill:#A4A5B1;}
	.st73{fill:#BEBDC1;}
	.st74{fill:#95949C;}
	.st75{fill:#0C0B11;}
	.st76{fill:#0A0C11;}
	.st77{fill:#0A0A0F;}
	.st78{fill:#0B0D12;}
	.st79{fill:#0B0E11;}
	.st80{fill:#0B0B11;}
	.st81{fill:#05060A;}
	.st82{fill:#090B10;}
	.st83{fill:#070A0E;}
	.st84{fill:#0A0B11;}
	.st85{fill:#0F1114;}
	.st86{fill:#575757;}
	.st87{fill:#525252;}
	.st88{fill:#434343;}
	.st89{fill:#8C8C8C;}
	.st90{fill:#78A7F6;}
	.st91{fill:#D3E1EC;}
	.st92{fill:#D6E6F0;}
	.st93{fill:#DDEBF2;}
	.st94{fill:#111117;}
	.st95{fill:#343741;}
	.st96{fill:#181C26;}
	.st97{fill:#81B0EE;}
	.st98{fill:#0B0B14;}
	.st99{fill:#0A0A12;}
	.st100{fill:#949BAB;}
	.st101{fill:#101117;}
	.st102{fill:#161923;}
	.st103{fill:#343842;}
	.st104{fill:#94C1ED;}
	.st105{fill:#0A0B16;}
	.st106{fill:#8D95A3;}
	.st107{fill:#101219;}
	.st108{fill:#0A0B13;}
	.st109{fill:#63708A;}
	.st110{fill:#494F62;}
	.st111{fill:#E6E8EB;}
	.st112{fill:#98989B;}
	.st113{fill:#A1A3AF;}
	.st114{fill:#101015;}
	.st115{fill:#2D2D37;}
	.st116{fill:#181D27;}
	.st117{fill:#0E0E16;}
	.st118{fill:#5B647C;}
	.st119{fill:#757B8C;}
	.st120{fill:#82B2F8;}
	.st121{fill:#0B0A13;}
	.st122{fill:#696B78;}
	.st123{fill:#8E94A5;}
	.st124{fill:#80B4F7;}
	.st125{fill:#0B0B13;}
	.st126{fill:#05050F;}
	.st127{fill:#050611;}
	.st128{fill:#464C59;}
	.st129{fill:#4A505E;}
	.st130{fill:#AFBED7;}
	.st131{fill:#3B4255;}
	.st132{fill:#4D505F;}
	.st133{fill:#32323B;}
	.st134{fill:#080B10;}
	.st135{fill:#666976;}
	.st136{fill:#6D6F7B;}
	.st137{fill:#5E6169;}
	.st138{fill:#0B0C12;}
	.st139{fill:#0C0E14;}
	.st140{fill:#0D0E14;}
	.st141{fill:#9698AB;}
	.st142{fill:#5A5A60;}
</style>
<g>
	<polygon class="st0" points="99.5,4.4 83.6,35.6 82.7,42.9 99.4,10.3 	"/>
	<polygon class="st1" points="5.6,27.7 40.4,-0.1 99.5,4.5 83.8,35.8 	"/>
	<path class="st1" d="M6.5,27.2c1.8-1.4,3.5-2.8,5.3-4.2c0.3,0,0.5-0.2,0.7-0.4c0.1-0.2,0.3-0.3,0.6-0.2c0.2,0.1,0.2,0.3,0.2,0.5
		c0,0.2,0,0.3,0.1,0.5c0.1,0.2,0.3,0.4,0.5,0.2c0.1,0,0.1-0.1,0.2-0.1c0.1,0,0.2,0,0.3,0.1c0.1,0.1,0,0.2-0.1,0.3
		c-0.3,0.2-0.6,0.5-0.9,0.7c-0.5,0.4-1,0.7-1.5,1.2c0.9-0.8,1.8-1.4,2.7-2.2c0.1-0.1,0.4-0.4,0.5-0.2c0.2,0.2-0.1,0.4-0.3,0.5
		c-0.2,0.2-0.4,0.3-0.5,0.5c-0.1,0.2-0.1,0.3,0.2,0.3c0.5,0,0.9,0.3,1,0.8c0.1,0.2,0.3,0.3,0.5,0.3c0.2,0,0.4,0,0.5,0.3
		c0,0.3-0.3,0.3-0.5,0.3c-0.5,0-1-0.1-1.5-0.1c-0.1,0-0.3,0-0.4,0c1.2,0.2,2.4,0.2,3.5,0.4c1,0.2,2.1-0.1,3.1,0.2
		c0.3,0.1,0.6,0.2,0.9,0.1c0-0.1,0-0.1,0-0.1c-0.1-0.1-0.3-0.2-0.2-0.4c0.1-0.2,0.4-0.3,0.6-0.2c0.3,0.1,0.4,0,0.7-0.2
		c0.7-0.5,1.3-1.1,1.9-1.7c0.1-0.1,0.2-0.2,0.3-0.3c0.1-0.1,0.3-0.3,0.5-0.2c0.3,0.1,0,0.3,0,0.6c0.4-0.3,0.9-0.5,1.1-1
		c0.1-0.3,0.4-0.2,0.6,0c0.1,0.1,0.2,0.3,0.4,0.2c0.2-0.1,0.2-0.3,0.2-0.5c0-0.2,0-0.4,0-0.5c0-0.3,0.1-0.6,0.4-0.8
		c0.2-0.1,0.3-0.2,0.3-0.4c-0.2-0.6,0.1-0.9,0.7-1c-0.2-0.2-0.7-0.3-0.5-0.7c0.2-0.4,0.7-0.4,1.1-0.4c-1.4,0-2.7-0.4-4-0.5
		c-0.9-0.1-1.8-0.2-2.7-0.2c-1-0.1-1.9-0.1-2.9-0.2c-0.1,0-0.3,0-0.3-0.1c0-0.2,0.1-0.2,0.2-0.3c0.2-0.1,0.4-0.1,0.6-0.1
		c1.8,0.3,3.6,0.3,5.3,0.5c0.5,0,1,0,1.5,0c0.4,0,0.8-0.2,0.9-0.6c0.1-0.3,0.3-0.4,0.5-0.4c0.4-0.1,0.6-0.3,0.7-0.7
		c0.1-0.5,0.2-0.9,0.6-1.3c0.2-0.2,0.1-0.4,0-0.6c-0.1-0.4,0-0.6,0.3-0.9c0.4-0.3,0.8-0.7,0.9-1.3c0.1-0.4,0.3-0.7,0.4-1.1
		c0.1-0.3,0.1-0.4-0.2-0.6c-0.3-0.2-0.6-0.4-1-0.4c-0.1,0-0.3-0.1-0.2-0.2c0.2-0.1-0.3-0.5,0.2-0.5c0.7,0.3,1.4,0.4,2.1,0.5
		c1.6,0.2,3.2,0.3,4.8,0.3c0.7,0,1.3-0.1,1.8-0.6c0.3-0.3,0.3-0.4-0.1-0.5c-0.3-0.1-0.6-0.1-0.9-0.1c-1.4-0.1-2.8-0.2-4.1-0.3
		c-0.7-0.1-1.3-0.1-2,0c-0.6,0-1.1,0.3-1.5,0.7c-0.3,0.2-0.5,0.1-0.5-0.3c-0.1-0.5-0.2-0.9,0.2-1.2c0.8-0.8,1.6-1.4,2.5-2
		C34.5,5,36,3.9,37.3,2.7C38.2,2,39,1.3,39.9,0.7c0.2-0.1,0.5-0.2,0.7-0.3c0.1,0,0.5,0.1,0.2-0.3C40.8,0,40.9,0,41,0
		c1.7,0.3,3.5,0.2,5.3,0.4c1,0.1,2,0.1,3.1,0.2c1.6,0.1,3.2,0.2,4.8,0.4c1,0.1,2,0.1,3.1,0.2c1.5,0.1,3,0.3,4.6,0.4
		c0.5,0,1.1,0.1,1.6,0.1C65,1.9,66.7,2,68.4,2.1c1,0.1,2,0.1,3,0.2c1.6,0.1,3.2,0.2,4.8,0.4c1,0.1,2,0.1,3,0.2
		c1.7,0.1,3.4,0.3,5.1,0.4c1.1,0.1,2.1,0.1,3.2,0.2c1.6,0.1,3.1,0.3,4.7,0.4c1,0.1,1.9,0.1,2.9,0.2c1.5,0.1,3,0.2,4.4,0.3
		c0.4,0,0.4,0.3,0.2,0.9c-0.1-0.1-0.1-0.2-0.1-0.3c-0.1,0.1-0.1,0.3-0.2,0.5c-0.1,0.7-0.6,1.2-0.8,1.9c-0.1,0.2-0.2,0.4-0.3,0.7
		c-0.5,0.9-1,1.9-1.5,2.8c-0.6,0.6-0.9,1.4-1.2,2.2c-0.1,0.3-0.3,0.6-0.4,0.8c-1.1,2-2.1,4-3.2,6c-0.7,1.3-1.4,2.7-2.1,4
		c-0.2,0.3-0.4,0.7-0.6,1C89.2,25,89.2,25,89.1,25c-0.6-0.4-1.2-0.5-1.9-0.5c-1.4,0-2.8-0.2-4.2-0.3c-1.9-0.2-3.8-0.4-5.7-0.6
		c-0.7-0.1-1.3-0.2-2-0.2c-1.3,0-2.6-0.3-3.9-0.4c-2.2-0.2-4.3-0.4-6.5-0.6c-1.7-0.1-3.3-0.4-5-0.5c-1.7-0.1-3.4-0.3-5-0.4
		c-0.4,0-0.9-0.1-1.3-0.1c0.2,0.2,0.2,0.3-0.1,0.5c-0.2,0.1-1,0.1-1.2,0c-0.7-0.6-0.7-0.6-1.2-0.6c-0.5-0.1-1.1-0.2-1.6-0.1
		c-0.3,0-0.5,0-0.8-0.1c-0.6-0.2-1.1,0-1.6,0.2c-0.3,0.1-0.3,0.4-0.1,0.6c0.1,0.1,0.3,0.2,0.2,0.4c-0.1,0.2-0.3,0.1-0.4,0.1
		c-0.8-0.1-1.4,0.5-1.4,1.2c0,0.4-0.2,0.6-0.5,0.6c-0.4,0-0.5,0.3-0.5,0.6c0,0.5,0,1.1,0,1.6c0,0.2-0.1,0.4-0.3,0.5
		c-0.2,0.1-0.4,0-0.5,0.3c-0.1,0.3-0.1,0.6,0,0.8c0.2,0.5,0.5,1,0.8,1.5c0.2,0.4,0.8,0.4,1.2,0.5c0.3,0.1,0.7,0,1,0.2
		c0.1,0.2,0.1,0.4,0.1,0.6c-0.1,0.5,0,0.6,0.5,0.6c0.5,0.1,1,0,1.5,0.1c0.7,0.1,1.4,0.2,2.2,0.3c0.6,0.1,1.3,0.1,1.9,0.2
		c0.7,0,1.3,0.2,2,0.2c1.2,0.1,2.4,0.3,3.6,0.4c0.4,0,0.8,0,1.2,0.1c0.1,0,0.3,0,0.4-0.1c0.1-0.1,0.3-0.2,0.4-0.1
		c0.2,0.3,0.5,0.4,0.8,0.5c0.2,0.1,0.5,0.1,0.2,0.4c-1.1,0-2.1-0.2-3.2-0.2c-0.8-0.1-1.5-0.2-2.3-0.3c-1.5-0.2-2.9-0.3-4.4-0.5
		c-1.4-0.1-2.7-0.3-4.1-0.4c-0.7-0.1-1.5-0.1-2.2-0.3c-0.1-0.2,0.1-0.1,0.2-0.2c-1,0.1-1.9-0.2-2.8-0.2c-1-0.1-2-0.2-3-0.3
		c-1.4-0.1-2.8-0.3-4.3-0.6c-0.5-0.1-1-0.1-1.5-0.1c-0.5,0-0.7-0.2-0.9-0.5c-0.2-0.3-0.4-0.5-0.8-0.4c0,0,0,0,0.1,0
		c0.3,0,0.6-0.1,0.6,0.3c0,0.4-0.3,0.4-0.6,0.4c-0.1,0-0.3,0-0.4,0c-0.1,0-0.3-0.1-0.3-0.2c-0.2-0.6-0.3-0.7-1.1-0.7
		c0.2,0.1,0.1,0.4,0.3,0.2c0,0,0.1,0,0.1,0c0.2,0,0.6,0,0.6,0.3c0.1,0.2-0.3,0.3-0.5,0.4c-0.2,0.1-0.4,0.1-0.5,0.1
		c-0.6-0.1-1.2-0.1-1.8-0.3c-0.6-0.2-1.2-0.1-1.8-0.1c-0.7,0-1.5-0.1-2.2-0.2c-1.4-0.2-2.8-0.2-4.2-0.3c-0.1,0-0.2,0.1-0.3,0.1
		c-0.2,0-0.5,0.1-0.7-0.1c0.1-0.2,0.3-0.1,0.4-0.1c-0.6,0-1.3-0.2-2-0.2c-0.1,0-0.2,0-0.3,0c-1.2-0.2-2.5-0.3-3.7-0.4
		c-1.1-0.1-2.3-0.3-3.4-0.6c-0.2,0-0.4,0-0.5-0.2c0-0.2,0.3-0.1,0.4-0.3c-0.5-0.2-1.1-0.1-1.6-0.2c-0.2,0-0.5,0-0.7-0.1
		c-0.3-0.1-0.5,0-0.8,0.2C6.7,27.4,6.7,27.4,6.5,27.2z"/>
	<path class="st2" d="M30.7,10c0,0.3,0,0.5,0.4,0.5c0.4,0,0.7,0.4,1,0.5c0.2,0.1,0.2,0.3,0.1,0.4c-0.3,0.5-0.4,1.1-0.6,1.6
		c-0.2,0.4-0.5,0.9-0.9,1.1c-0.2,0.1-0.3,0.3-0.2,0.5c0.1,0.4,0.3,0.8-0.2,1.1c-0.2,0.2-0.3,0.6-0.4,1c-0.1,0.5-0.3,0.7-0.8,0.8
		c-0.2,0-0.4,0.1-0.4,0.3c-0.1,0.6-0.5,0.7-0.9,0.8c-1.1,0.1-2.1-0.1-3.2-0.1c-0.9-0.1-1.8-0.1-2.7-0.2c-0.3,0-0.7-0.1-1-0.1
		c-0.3,0-0.6,0-0.8,0.3c0.9,0,1.7,0.1,2.6,0.2c0.5,0,1.1,0,1.6,0.2c0.8,0.2,1.7,0.1,2.5,0.3c0.7,0.2,1.4,0.1,2.1,0.4
		c0.2,0.1,0.5,0.1,0.7,0c0.1,0,0.3-0.1,0.4,0c0.2,0,0.3,0.1,0.3,0.3c0,0.2-0.2,0.1-0.3,0.1c-0.3-0.1-0.5,0-0.7,0.1
		c-0.1,0-0.3,0.1-0.3,0.3c0,0.2,0.2,0.2,0.3,0.3c0.2,0,0.4,0,0.4,0.3c0,0.2-0.3,0.2-0.4,0.2c-0.4,0.1-0.5,0.2-0.4,0.6
		c0.1,0.3,0.1,0.7-0.4,0.7c-0.2,0-0.3,0.2-0.3,0.5c0,0.3,0,0.7-0.1,1c-0.1,0.3-0.2,0.3-0.4,0.3c-0.2,0-0.3-0.1-0.4-0.3
		c-0.1-0.1-0.1-0.3-0.3-0.3c-0.2,0-0.2,0.2-0.2,0.3c-0.2,0.6-0.9,0.6-1.2,1c0,0.1-0.2,0-0.2-0.1c-0.1-0.1,0-0.3,0.1-0.4
		c0.1-0.1,0.2-0.1,0.1-0.3c-0.1-0.1-0.2,0-0.3,0.1c-0.5,0.4-1,0.8-1.4,1.2c-0.4,0.4-0.9,0.6-1.2,1.1c-0.1,0.1-0.2,0.1-0.3,0
		c-0.1-0.2-0.3-0.2-0.5-0.1c-0.1,0-0.2,0-0.2,0.1c0,0.1,0.1,0.2,0.2,0.2c0.2,0,0.3,0.1,0.2,0.3c-0.1,0.2-0.2,0.2-0.4,0.1
		c-0.6-0.1-1.3-0.2-1.9-0.3c0,0-0.1,0-0.1,0c-1.2,0.4-2.3-0.2-3.5-0.2c-0.8,0-1.6-0.2-2.3-0.3c0.3-0.2,0.6-0.1,0.8-0.1
		c0.3,0.1,0.7,0,1,0.2c0.1,0.1,0.2,0,0.3,0c0.2,0,0.5,0,0.5-0.3c0-0.2-0.3-0.2-0.5-0.1c-0.2,0-0.4-0.1-0.4-0.3
		c-0.1-0.5-0.4-0.8-1-0.8c-0.4,0-0.5-0.1-0.3-0.4c0.1-0.3,0.3-0.5,0.6-0.7c0.2-0.1,0.3-0.2,0.4-0.5c-1.3,1-2.4,1.9-3.6,2.8
		c0,0-0.1-0.1-0.1-0.1c0.8-0.9,1.9-1.5,2.7-2.3c-0.1-0.1-0.2-0.1-0.2,0c-0.2,0.1-0.3,0.4-0.5,0.3c-0.2-0.1-0.4-0.4-0.4-0.6
		c-0.1-0.2,0.2-0.6-0.2-0.7c-0.3,0-0.4,0.3-0.6,0.4C12.2,23,12,23.2,11.7,23c2-1.6,4-3.1,6-4.7c1.9-1.5,3.9-3,5.8-4.5
		c2.2-1.7,4.3-3.4,6.5-5.1c0.2-0.2,0.4-0.4,0.6-0.4c0.1,0.1,0.1,0.1,0,0.2c-0.2,0.2-0.4,0.4-0.1,0.7c0.1,0.1,0,0.2,0,0.4
		c-0.1,0.3,0.1,0.3,0.3,0.2C30.9,9.8,30.8,9.9,30.7,10z"/>
	<path class="st3" d="M43.3,38.7c-0.2,0.1-0.3,0.1-0.5,0c0.2-0.5,0.4-0.9,0.1-1.4c0-0.1,0-0.2,0-0.2c0.3-0.8,0-1.6,0.1-2.4
		c0-0.3-0.1-0.5-0.5-0.5c-2-0.2-3.9-0.4-5.9-0.6c-0.6-0.1-1.2-0.1-1.9-0.2c-1.4-0.2-2.8-0.3-4.2-0.4c-1.8-0.2-3.6-0.4-5.4-0.6
		c-0.1,0-0.2,0-0.4,0.1c0.6,0.2,1.3,0.2,1.9,0.4c0.2,0.2,0.1,0.3-0.1,0.3c-0.1,0-0.3,0-0.4,0c-0.4,0.1-0.7-0.1-1.1-0.1
		c-0.3,0-0.4,0-0.4,0.3c0,0.4,0,0.8,0,1.2c0,0.3,0.2,0.4,0.4,0.6c-0.5,0.3-0.2,1-0.6,1.4c-0.1,0.1-0.1,0.1-0.2,0.1
		c-0.1,0-0.1,0-0.1-0.1c-0.1-0.1-0.1-0.3-0.2-0.4c0-0.4-0.2-0.9,0-1.3c0.2-0.4,0.1-0.9,0.1-1.4c0-0.1,0-0.2,0-0.2
		c-0.1-0.9-0.1-0.9-0.9-1c-3.2-0.3-6.4-0.6-9.6-1c-2.3-0.2-4.5-0.4-6.8-0.7c-0.1,0-0.3,0-0.5,0.1c0.6,0.1,1.1,0.2,1.6,0.2
		c3,0.3,6,0.6,8.9,0.9c0.6,0.1,1.2,0.1,1.8,0.2c0.3,0,0.7,0,1,0.2c0.1,0.2,0,0.3-0.2,0.3c-1.6-0.2-3.2-0.2-4.8-0.3c-0.5,0-1,0-1.5,0
		c-2.1-0.2-4.3-0.4-6.4-0.8c-0.2,0-0.3-0.1-0.4,0.1c0,0.7-0.1,1.3,0,2c0.1,0.4,0.1,0.9,0,1.3c-0.2,0.3-0.4,0.4-0.8,0.4
		c-0.1,0-0.1-0.1-0.1-0.1c0.3-0.4,0.2-0.8,0.1-1.2c-0.1-0.8-0.1-1.5-0.1-2.3c0-0.5,0-0.9-0.2-1.4c-0.1-0.3-0.1-0.6,0-0.9
		c0-0.3,0.1-0.5,0-0.8C4.8,28.1,5,28,5.2,28c0,0,0.1,0,0.1,0c0.2,0.1,0.1,0.3,0.2,0.5c0,0.4,0,0.7,0,1.1c0,0.3,0.2,0.5,0.5,0.5
		c2.1,0.1,4.2,0.3,6.3,0.5c1.3,0.1,2.5,0.3,3.8,0.4c1.9,0.2,3.9,0.4,5.8,0.6c0.9,0.1,1.8,0.1,2.7,0.3c0.5,0.1,1,0,1.4,0.1
		c1.7,0.1,3.4,0.3,5,0.5c0.7,0.1,0.8,0,0.7-0.7c0-0.3-0.1-0.7,0-1c0-0.1,0-0.3,0.1-0.4c0,0,0.1-0.1,0.1-0.1c0.1,0,0.2,0.1,0.2,0.2
		c0,0.1-0.1,0.2-0.1,0.4c0.1,0.4,0.1,0.9,0.1,1.3c0,0.3,0.1,0.4,0.4,0.5c3.4,0.3,6.7,0.7,10.1,1.1c1.8,0.2,3.6,0.3,5.4,0.4
		c0.7,0.1,1.5,0.2,2.2,0.3c0.6,0.1,0.7,0,0.7-0.6c0-0.3-0.1-0.6,0.2-0.8c0.3,0.3,0.2,0.7,0.2,1c0,0.4,0.2,0.6,0.7,0.6
		c3.1,0.4,6.2,0.7,9.4,1.1c0.6,0.1,1.2,0,1.8,0.2c0.1,0.1,0.1,0.1,0.1,0.2c0,0.3,0.1,0.5,0.5,0.5c0.5,0.1,1.1,0.1,1.6,0.2
		c0.2,0,0.3,0,0.5,0.1c-0.1,0.4-0.5,0.2-0.7,0.3c-0.5,0.1-0.9-0.1-1.4-0.2c-0.3-0.1-0.5,0-0.5,0.4c0,0.4,0,0.8,0,1.2
		c0,0.2,0.1,0.4,0.2,0.6c-0.2,0.4-0.4,0.8-0.4,1.3c-0.4,0.4-0.6,0.3-0.7-0.2c0-0.4,0-0.7-0.3-1c0.3-0.3,0.5-0.7,0.4-1.2
		c0-0.4,0-0.9,0-1.3c0-0.5-0.1-0.6-0.6-0.7c-3.4-0.2-6.7-0.7-10.1-1c-2.5-0.2-5-0.5-7.4-0.8c-0.2,0-0.4-0.1-0.7,0
		c0.2,0.2,0.4,0.2,0.5,0.2c0.7,0.1,1.4,0.1,2.1,0.3c0.2,0,0.4,0,0.5,0.2c-0.2,0.4-0.5,0.2-0.8,0.2c-0.4-0.1-0.8-0.1-1.2-0.1
		c-0.3,0-0.6-0.1-0.9-0.1c-0.2,0-0.4-0.1-0.4,0.2c0,0.6-0.2,1.2,0.1,1.8c-0.1,0.4-0.2,0.7-0.2,1.1C43.8,38.6,43.5,38.7,43.3,38.7z"
		/>
	<path class="st4" d="M98.6,12.3c-0.4,0.6-0.7,1.1-0.9,1.8c0,0,0,0,0,0.1c0,0.2-0.2,0.3-0.3,0.3c-0.3,0.5-0.6,1.1-0.8,1.6
		c-0.2,0.5-0.6,0.9-0.8,1.4c-0.2,0.4-0.4,0.8-1,0.8c-0.2,0-0.3,0.2-0.4,0.3c-0.1,0.1-0.2,0.2-0.3,0.1c-0.2,0-0.2-0.2-0.2-0.3
		c0-0.2,0-0.4-0.1-0.6c0.3-0.9,0.8-1.7,1.2-2.6c0.2-0.5,0.6-1,0.8-1.5c0.1-0.2,0.1-0.3,0.1-0.5c0.1-0.4,0.3-0.8,0.5-1.2
		c-0.2,0.5-0.5,1-0.9,1.5c-0.1,0.2-0.2,0.4-0.6,0.3c0.4-0.9,0.8-1.9,1.4-2.7c0.1-0.1,0.2-0.2,0.3-0.3c0.2,0,0.4,0.1,0.5-0.1
		c0.5-1,1.2-1.9,1.6-3c-0.2,0.1-0.3,0.4-0.6,0.2c0.4-0.8,0.9-1.6,1.2-2.5c0.2,0.1,0.2,0.3,0.3,0.4c0,0.2,0.1,0.4-0.1,0.6
		c-0.1,0-0.2-0.2-0.2,0c-0.1,0.1-0.1,0.3-0.2,0.5c0.1,0,0.2-0.2,0.4-0.1c0,1.1-0.1,2.3-0.2,3.4c0,0.5-0.4,0.9-0.6,1.4
		C98.7,11.9,98.6,12.1,98.6,12.3z"/>
	<path class="st5" d="M5.2,28c-0.1,0.1-0.3,0.1-0.1,0.4c0.1,0.2,0,0.5,0,0.7c0,0.4-0.2,0.8,0.2,1.2c0.1,0.1,0.1,0.4,0.1,0.7
		c0,1.2,0,2.5,0.2,3.7c0,0.3-0.3,0.2-0.2,0.4c-0.2,0.3-0.4,0-0.7,0.1c-0.1-0.2-0.1-0.3,0.1-0.3c0.3-0.1,0.3-0.3,0.3-0.5
		c-0.1-0.3-0.1-0.5-0.1-0.8c0-0.6-0.6-0.6-0.9-0.8c-0.3-0.2-0.6-0.1-0.8,0.2c-0.4,0.4-0.9,0.6-1.4,0.8c-0.2,0.1-0.4,0-0.5,0
		c-0.4-0.1-0.7-0.4-0.9-0.7c-0.4-0.8-0.1-1.4,0.7-1.6c0.3-0.3,0.3-0.7,0.8-0.7c0.4,0.2,0.7,0,1-0.1c0.3-0.1,0.7-0.2,0.5-0.7
		c0-0.1,0.1-0.2,0.2-0.2c0.4,0.1,0.7-0.2,1.2-0.2c-0.1-0.3,0-0.6,0-0.9c0-0.2,0.1-0.3,0.3-0.3C4.9,28,5.1,28,5.2,28z"/>
	<path class="st6" d="M87,36.3c0.1,0,0.2,0,0.3,0c0.3,0,0.5,0.1,0.8,0.1c0.4,0,0.6,0.2,0.6,0.6c-0.1,2-0.2,4.1-0.4,6.1
		c-0.4,0.1-0.3-0.2-0.3-0.4c0-0.3,0.1-0.7,0-1c0-0.2-0.1-0.3-0.2-0.5c-0.2-0.1,0-0.4-0.2-0.5c0-0.1-0.1,0,0,0
		c0.1,0.1,0.1,0.3,0.1,0.4c0.1,0.5-0.2,0.9-0.5,1.3c-0.4,0.3-0.9,0.4-1.4,0.2c-0.9-0.5-1.2-1-0.9-1.9c0.1-0.2,0.2-0.3,0.4-0.4
		c0,0-0.1,0-0.2,0c-0.3-0.3,0-0.4,0.2-0.6c0.2-0.1,0.4-0.1,0.6-0.3c0.2-0.1,0.3-0.3,0.6-0.4c0.3-0.1,0.6-0.1,0.8,0.1
		c0.1,0.1,0.3,0.2,0.4,0.3c-0.1-0.1-0.2-0.2-0.4-0.3c-0.1-0.1-0.2-0.1-0.2-0.2c0-0.3,0.2-0.2,0.3-0.2c0.2,0.1,0.4,0.2,0.6,0.4
		c0.2,0.1,0.3,0.1,0.3-0.1c0-0.6,0.1-1.3,0.1-1.9c0-0.1,0-0.2-0.1-0.3c-0.1,0.1,0,0.3,0,0.4c0,0.5-0.6,0.9-1.1,0.8
		c-0.2,0-0.4-0.1-0.5-0.1c-0.2,0-0.4-0.1-0.3-0.4c0.3-0.1,0.5,0,0.8,0c0.2,0,0.4,0,0.5-0.3c0.1-0.3-0.1-0.5-0.3-0.6
		c-0.2-0.1-0.3-0.1-0.5-0.1c-0.8,0-0.8,0-0.9,0.8c-0.3,0.1-0.4-0.1-0.4-0.4c0-0.4,0.4-0.9,0.8-0.9c0.2,0,0.3,0,0.5,0
		C86.8,36.2,86.9,36.2,87,36.3z"/>
	<path class="st7" d="M87.7,41.2c0.3,0,0.4,0.1,0.4,0.4c0,0.4,0.2,0.8,0,1.3c0,0.1-0.1,0.3,0.2,0.3c0.1,0.2,0,0.5-0.1,0.7
		c-0.3,0-0.6,0-0.9,0C87.2,44,87,44,86.9,44c-0.5-0.1-1.1-0.1-1.6-0.3c-0.5-0.2-1.1-0.1-1.6-0.2c-0.3,0.1-0.4-0.1-0.4-0.3
		c-0.1-0.2-0.1-0.4-0.1-0.7c0.1-0.8,0.1-1.5,0.1-2.3c0-0.2,0-0.4-0.1-0.6c-0.1-0.5,0-1,0.1-1.5c0-0.1,0.1-0.1,0.1-0.1
		c0.3,0.1,0.1,0.5,0.3,0.7c0.1,1.3-0.1,2.7-0.1,3.9c0-0.2,0.1-0.6,0.1-1c0-1,0.1-2,0.1-3c0-0.1,0-0.2,0.1-0.2
		c0.3-0.1,0.3,0.1,0.3,0.2c0,0.3,0.1,0.6,0,0.8c0.4,0,0.8,0,1,0.3c0,0.2-0.4,0.2-0.2,0.5c0.1,0.2-0.2,0.2-0.1,0.4
		c-0.2,1-0.1,1.3,0.8,1.9c-0.1,0.5,0,0.6,0.5,0.7c0.2,0,0.3,0.1,0.5,0.1c0.2,0,0.4,0,0.5-0.1c0.1-0.2,0-0.4-0.1-0.5
		c-0.1-0.1-0.1-0.2-0.1-0.3c0.3-0.4,0.6-0.8,0.5-1.3C87.6,41,87.6,41.2,87.7,41.2z"/>
	<path class="st8" d="M6.5,27.2c0.2,0.2,0.4,0,0.6-0.1c0.3-0.2,0.6-0.3,1-0.1c0.3,0.1,0.7,0.1,1.1,0.1c0.4,0,0.7,0.1,1,0.1
		c0.1,0,0.3,0,0.3,0.2c0,0.2-0.2,0.2-0.3,0.2c-0.1,0-0.2,0-0.3,0c0.4,0.2,0.8,0.2,1.1,0.3c0.3,0,0.5,0,0.8,0.2
		c0.4,0.2,0.8,0,1.3,0.1c1.5,0.3,3,0.4,4.5,0.6c0.8,0.1,1.6,0.1,2.4,0.3c-0.3,0-0.5,0-0.7,0c-0.3,0.2-0.6,0.1-0.9,0.1
		c-0.1,0-0.1,0-0.2,0c-1.8-0.2-3.5-0.4-5.3-0.5c-1.9-0.2-3.8-0.4-5.8-0.6c-0.4,0-0.8,0-1.1-0.1c-0.2,0-0.4,0-0.5-0.2
		C5.8,27.4,6,27,6.5,27.2z"/>
	<path class="st9" d="M4.8,28.1c-0.2,0.4-0.3,0.7-0.1,1.1c0,0.1,0.1,0.1,0,0.2c-0.1,0.1-0.2,0-0.2,0c-0.3-0.2-0.4,0.1-0.6,0.1
		c-0.4,0-0.6,0.1-0.6,0.6c0,0.4-0.4,0.2-0.6,0.3c-0.3,0-0.6,0.2-0.9,0.1c-0.3,0-0.4,0.2-0.5,0.4c-0.1,0.2-0.2,0.3-0.4,0.3
		c0.1-0.9,0-1.9-0.1-2.8c0-0.6,0.1-0.8,0.7-0.7C2.6,27.8,3.7,27.9,4.8,28.1z"/>
	<path class="st10" d="M1.1,33.6c0.7-0.1,1.3-0.4,1.8-0.9c0.3-0.3,0.6-0.4,1-0.2c0.1,0.1,0.2,0.1,0.4,0.2c0.4,0.2,0.7,0.4,0.6,0.9
		c0,0.2,0.1,0.5,0.1,0.7C5.1,34.7,5.2,35,4.6,35c-0.1,0-0.1,0.1-0.1,0.1c-0.3,0.3-0.6-0.1-0.9,0c-0.5,0-1-0.1-1.4-0.1
		C2,35,1.8,35,1.6,34.9c-0.2,0-0.4-0.1-0.4-0.3C1.1,34.3,1.1,34,1.1,33.6z"/>
	<path class="st11" d="M5.6,27.7c1,0.2,2,0.2,3,0.3c2.5,0.3,5.1,0.5,7.6,0.7c0.7,0.1,1.4,0.1,2.1,0.3c0.1,0.1,0,0.3-0.1,0.3
		c-0.1,0-0.2,0-0.3,0c-0.4-0.3-0.9-0.5-1.4-0.1c-0.2,0.4-0.2,0.4-0.4,0.3c-0.2-0.6-0.7-0.8-1.5-0.5c-0.6,0.1-1.2,0-1.7-0.1
		c-2.3-0.2-4.5-0.4-6.8-0.6c-0.3,0-0.6,0.1-0.8,0c0-0.1,0.1-0.3,0-0.4C5.3,27.8,5.4,27.8,5.6,27.7z"/>
	<path class="st12" d="M99.6,6.9c-0.2,0-0.3,0.5-0.5,0.3c-0.2-0.1,0.1-0.4,0.2-0.6c0,0,0-0.1,0.1-0.1c0-0.1,0-0.3,0.2-0.3
		c0.2,0,0.1,0.2,0.1,0.4C99.6,6.7,99.6,6.8,99.6,6.9z"/>
	<path class="st12" d="M99.7,5.9c-0.2,0-0.3-0.2-0.3-0.4c-0.1-0.3,0.2-0.4,0.3-0.6c0,0.1,0,0.3,0,0.4C99.7,5.5,99.7,5.7,99.7,5.9z"
		/>
	<path class="st4" d="M46.6,30.4c-0.4,0-0.8-0.1-1.2-0.1c-0.9-0.2-1.2-0.5-1.6-1.4c-0.2-0.5-0.5-0.9-0.4-1.5c0.1-0.3,0-0.5,0.4-0.4
		c0.3,0.1,0.4-0.1,0.4-0.4c0-0.6,0-1.3,0-1.9c0-0.3,0.1-0.5,0.5-0.5c0.5,0,0.6-0.1,0.5-0.7c-0.1-0.4,0.2-0.8,0.6-0.9
		c0.1,0,0.3-0.1,0.4-0.2c0.2-0.2,0.4-0.3,0.7-0.1c0.1,0.1,0.3,0.1,0.3-0.1C47.2,22,47,22,46.9,22c-0.4-0.1-0.2-0.4-0.2-0.7
		c0-0.3,0.2-0.2,0.4-0.3c1.4-0.4,2.7,0,4.1,0.1c0.2,0,0.4-0.1,0.5,0c0.3,0.3,0.6,0.2,0.9,0.3c-0.1,0.3-0.3,0.1-0.5,0.4
		c0.4-0.3,0.7,0.2,1,0c0.1-0.1,0.3,0,0.3-0.2c0.1-0.2-0.2-0.2-0.3-0.3c1.1,0,2.1,0.1,3.1,0.2c0.9,0.1,1.8,0.1,2.6,0.3
		c1.5,0.2,3.1,0.2,4.7,0.5c0.7,0.1,1.5,0.1,2.2,0.2c0.7,0.1,1.5,0.1,2.3,0.2c0.8,0.1,1.6,0.2,2.4,0.3c0.8,0.1,1.5,0.1,2.3,0.2
		c0.5,0,1.1,0.2,1.6,0.2c0.6,0,1.2,0.1,1.8,0.1c1.2,0.1,2.4,0.2,3.6,0.4c0.8,0.1,1.7,0.1,2.5,0.2c1.2,0.1,2.4,0.3,3.5,0.4
		c0.5,0,1.1,0,1.6,0c0.6,0,1.2,0.1,1.7,0.6c0.2,0.2,0,0.4-0.1,0.6c-0.5,1-1,1.9-1.5,2.9c-0.3,0.4-0.5,0.8-0.7,1.3
		c-0.1,0.1-0.1,0.3-0.2,0.4c-0.6,1.2-1.2,2.3-1.8,3.5c-0.2,0.4-0.4,0.8-0.5,1.2c-0.2,0.2-0.2,0.6-0.5,0.7c-0.2-0.1-0.3-0.2-0.1-0.3
		c0.2-0.3-0.1-0.5,0.1-0.8c0.1-0.1-0.1-0.1-0.2-0.1c-0.1,0-0.3,0-0.4,0c-1.4-0.1-2.7-0.3-4.1-0.4c-1.2-0.1-2.4-0.3-3.5-0.4
		c-1.5-0.2-3.1-0.3-4.6-0.5c-1.1-0.1-2.2-0.3-3.3-0.3c-1-0.1-2-0.2-3-0.3c-1-0.1-1.9-0.1-2.9-0.3c-1.4-0.2-2.8-0.3-4.3-0.5
		c-1.2-0.1-2.4-0.3-3.6-0.4c-1.2-0.1-2.5-0.2-3.7-0.4c-0.8-0.1-1.7-0.1-2.5-0.3C47.3,30.4,46.9,30.6,46.6,30.4z"/>
	<path class="st13" d="M83.5,38.1C83.5,38.1,83.4,38.1,83.5,38.1c-0.6,0.3-1.1,0-1.5,0c-1.2-0.1-2.5-0.3-3.7-0.4
		c-0.9,0-1.8-0.2-2.7-0.3c-0.7-0.1-1.5-0.1-2.2-0.2c-0.3,0-0.5,0-0.7-0.3c-0.1-0.2,0-0.4,0.2-0.5c0.2,0,0.4,0.1,0.7,0.2
		c0.1,0.1,0.2,0.1,0.3-0.1c0-0.1,0-0.2,0.2-0.3c0.2,0.3,0.4,0.4,0.8,0.4c0.2,0,0.4,0.1,0.6,0.1c0.2,0,0.4,0.1,0.5,0
		c0.4,0,0.7,0,1.1,0.1c0.5,0.2,1,0.1,1.6,0.2c0.2,0,0.3-0.1,0.3-0.3c0-0.3,0-0.6,0-0.9c0-0.4-0.4-0.4-0.7-0.4
		c-0.9,0-1.7-0.2-2.6-0.3c-0.8-0.1-1.6-0.1-2.4-0.2c-0.9-0.1-1.8-0.2-2.7-0.3c-0.3,0-0.6-0.1-0.5,0.4c0,0.1,0,0.2,0,0.3
		c-0.2,0.4-0.1,0.6,0.3,0.7c0,0.1,0,0.2-0.1,0.2c-0.4,0.2-0.9,0.1-1.4,0.1c-0.7,0-1.4-0.1-2.1-0.2c-0.2,0-0.4-0.1-0.4-0.3
		c0-0.3,0.3-0.2,0.4-0.2c0.7,0.1,1.4,0.2,2.1,0.2c0.1,0,0.3,0.1,0.3-0.1c-0.1-0.2-0.3-0.2-0.4-0.3c-0.1-0.2,0-0.3,0.1-0.4
		c0.1-0.1,0.4-0.1,0.4-0.4c-0.2-0.2-0.5-0.1-0.7-0.2c-1.6-0.2-3.1-0.3-4.7-0.5c-0.5-0.1-1,0-1.5-0.1c0,0.2,0.1,0.4,0.1,0.6
		c0,0.2-0.2,0.5,0,0.7c0.1,0.1,0.4,0.1,0.7,0.2c0.8,0.3,1.7,0.3,2.5,0.4c0.3,0,0.4-0.2,0.7-0.2c0.1,0,0.1,0.1,0.2,0.2
		c0,0.3-0.2,0.5-0.5,0.5c-0.7-0.1-1.5-0.1-2.2-0.2c-0.1,0-0.1-0.1-0.2-0.1c-1.9-0.2-3.8-0.3-5.7-0.6c-1.1-0.1-2.2-0.2-3.3-0.3
		c-0.9-0.1-1.7-0.2-2.6-0.3c-0.2,0-0.3-0.1-0.3-0.4c0-0.4-0.1-0.8-0.2-1.3c0,0.4,0,0.7,0,1.1c0,0.3-0.1,0.4-0.4,0.4
		c-0.7-0.1-1.4-0.1-2.2-0.2c-1-0.1-1.9-0.2-2.9-0.3c-1.7-0.2-3.4-0.3-5.2-0.5c-1.4-0.2-2.9-0.3-4.3-0.4c-1.3-0.1-2.6-0.3-3.9-0.4
		c-0.2,0-0.4,0-0.3-0.3c0-0.6,0-1.2-0.1-1.8c0.1,0,0.2,0.1,0.2,0c0.3-0.5,0.7-0.2,1-0.2c0.7,0,1.5,0.1,2.2,0.2c0.1,0,0.3,0,0.4,0.2
		c0,0-0.1,0.1,0,0c0.3-0.3,0.6-0.1,0.9-0.1c0.1,0,0.2,0.1,0.1,0.2c0,0.1-0.1,0-0.1,0c0.8-0.3,1.7-0.1,2.6,0.1
		c0.3,0.1,0.6,0.1,0.9,0.1c1.3,0,2.5,0.3,3.8,0.3c0.9,0,1.8,0.3,2.7,0.3c1.2,0.1,2.4,0.3,3.6,0.5c0.4,0.1,0.9-0.2,1.2,0.2
		c0,0-0.1,0-0.1-0.1c0-0.1,0-0.1,0.1-0.1c0.1,0,0.2,0,0.3,0c0.6,0.1,1.1,0.1,1.7,0.2c0.1,0,0.2,0,0.2,0.1c0,0.1,0,0.1,0.2,0.1
		c0.7-0.2,1.5,0,2.2,0.1c0.2,0,0.2,0.2,0.3,0.3c0.2,0.4,0.6,0.4,1,0.4c0.4,0,0.2-0.3,0.4-0.5c0.2,0,0.3,0.2,0.5,0.2
		c0.2,0.5,0.6,0.4,0.9,0.4c0.1,0,0.2-0.1,0.2-0.2c0-0.1-0.2-0.1-0.2-0.1c-0.3-0.1-0.6-0.1-0.9-0.2c-0.1-0.1-0.3-0.1-0.3-0.3
		c1.1,0.1,2.2,0.2,3.3,0.3c0.5-0.3,1.1,0,1.6,0c1.1,0.1,2.2,0.2,3.4,0.3c1.5,0.2,3,0.3,4.5,0.5c1.1,0.1,2.2,0.2,3.2,0.3
		c1.5,0.2,2.9,0.3,4.4,0.5c1.4,0.1,2.9,0.3,4.3,0.4c0.3,0,0.5,0.1,0.8,0.2C83.7,36.4,83.8,37.3,83.5,38.1z"/>
	<path class="st14" d="M5.3,28.4c0.2-0.2,0.5-0.2,0.8-0.2c1.9,0.2,3.9,0.4,5.8,0.6c0.9,0.1,1.9,0.3,2.8,0.2c0.2,0.4,0.5,0.5,0.9,0.5
		c0.2,0,0.4,0,0.6,0.1c0.2,0,0-0.3,0.2-0.4c0.4,0.6,1,0.6,1.5,0.2c0.1,0,0.2,0,0.3,0c0.2,0.4,0.5,0.5,1,0.5c0.1,0,0.2,0,0.3-0.2
		c0-0.1-0.1-0.2-0.2-0.2c-0.1,0-0.3,0-0.4-0.1c-0.1,0-0.3,0-0.4-0.2c0.3,0,0.6,0,0.9,0c0.2,0.1,0.5,0.1,0.7,0.1c0.8,0,1.6,0,2.4,0.2
		c0.1,0.1,0,0.2-0.1,0.2c-0.4,0-0.5,0.3-0.5,0.6c0.2,0,0.5,0,0.8,0c0.2,0,0.4,0.1,0.5-0.1c0.1-0.2-0.1-0.3-0.3-0.3
		c-0.1,0-0.4,0-0.2-0.3c0.4-0.1,0.7-0.1,1.1,0.1c0,0,0.1,0.1,0.1,0.1c0,0.6,0.1,0.8,0.8,0.7c0.1,0,0.3,0,0.3-0.2
		c0-0.2-0.1-0.2-0.3-0.2c-0.2,0-0.4-0.1-0.6-0.1c-0.1-0.1-0.2-0.1-0.1-0.2c0.6-0.1,1.3,0.1,1.9,0.1c0.3,0,0.6,0,0.8,0.1
		c0,0.1,0,0.1,0,0.2c-0.1,0.1-0.2,0-0.3,0.1c-0.2,0.1-0.7-0.2-0.7,0.2c0,0.3,0.5,0.3,0.8,0.4c-0.2-0.1-0.4,0-0.4-0.2
		c0-0.2,0.2-0.3,0.3-0.3c0.3,0,0.4-0.1,0.5-0.3c0.7-0.1,1.4,0,2,0.1c0.2,0.1,0.2,0.3,0.1,0.5c0,0.2,0,0.4,0.2,0.5
		c0.1,0.1,0.3,0.1,0.2,0.4c-0.1,0.1-0.3,0.1-0.4,0.2c-0.1,0.1-0.1,0.3,0.1,0.4c0.3,0.2,0.6,0.1,0.9,0.1c0.1,0,0.1-0.2,0.1-0.3
		c0-0.1-0.1-0.1-0.2-0.2c-0.1,0-0.3,0-0.2-0.2c0.2-0.2,0.7-0.2,0.7-0.7c0-0.1,0.1-0.1,0.2-0.1c0.5,0,1,0,1.4,0.2
		c0,0.5,0.1,1.1,0.1,1.6c0,0.3-0.1,0.4-0.4,0.4c-0.9-0.1-1.8-0.2-2.7-0.3c-0.8-0.1-1.6-0.2-2.3-0.2c-1.4,0-2.8-0.2-4.2-0.4
		c-0.8-0.1-1.6-0.1-2.5-0.2c-1.5-0.2-3-0.3-4.6-0.5c-1.1-0.1-2.2-0.2-3.3-0.3c-1.4-0.1-2.7-0.3-4.1-0.4c-0.6-0.1-1.3-0.1-1.9-0.1
		c-0.4,0-0.6-0.2-0.6-0.6C5.3,29.3,5.3,28.8,5.3,28.4z"/>
	<path class="st15" d="M87.5,28.5c0.4-1.1,1.1-2,1.5-3c0.1-0.1,0.1-0.3,0.2-0.5c0-0.2,0.1-0.3,0.2-0.5c0.5-0.9,1-1.8,1.5-2.7
		c0.3-0.6,0.6-1.3,1-1.9c0.6-0.2,0.8-0.6,1-1.1c0.1-0.3,0.3-0.5,0.4-0.7c0.1-0.1,0.2-0.3,0.4,0c-0.2,0.8-0.7,1.5-1,2.2
		c-0.8,1.7-1.7,3.3-2.6,5c-0.2,0.5-0.5,1.1-0.8,1.6c0.3-0.5,0.6-1,0.8-1.5c0.4-0.7,0.7-1.4,1-2c0.1-0.1,0.1-0.3,0.2-0.3
		c0.2,0,0.3,0.3,0.4,0.4c0.3,0.3,0.5,0.4,0.7,0c0.3-0.5,0.9-0.8,1.1-1.4c0.1-0.2,0.2-0.3,0.4,0c0,0.2-0.1,0.4-0.2,0.6
		c-0.9,2-2,4-2.9,6c-0.2,0.5-0.4,1.1-0.9,1.6c-0.2,0.1-0.1-0.2-0.3-0.2c0,0,0-0.1-0.1-0.1c0-0.3,0.2-0.6,0.2-0.9
		c-0.1-0.3,0-0.6,0-0.8c-0.1,0.3-0.3,0.7-0.5,1c-0.1,0.3-0.2,0.5,0,0.8c0.1,0.2-0.1,0.4-0.2,0.5c-0.1,0.1-0.3,0.1-0.4,0
		c-0.2-0.2-0.6-0.1-0.8-0.3c-0.1,0.4-0.6,0.7-0.3,1.2c0,0.1-0.1,0.2-0.2,0.2c-0.3-0.1-0.3,0.2-0.4,0.4c-0.4,0.6-0.6,1.2-1,1.8
		c-0.1,0.1-0.2,0.4-0.4,0.3c-0.2-0.1-0.1-0.3,0-0.4c0.3-0.6,0.6-1.2,0.9-1.8c0,0,0-0.1,0.1-0.1c0.5-0.9,0.9-1.9,1.4-2.7
		c0.1,0,0-0.1,0,0C87.6,29,87.5,28.7,87.5,28.5z"/>
	<path class="st16" d="M46.6,30.4c0.3,0,0.7-0.1,1,0.1c0.5,0.3,1,0.2,1.6,0.3c1.4,0.2,2.9,0.3,4.3,0.5c0.4,0.1,0.8,0.1,1.2,0.1
		c1.5,0.1,2.9,0.4,4.4,0.4c0.3,0,0.6,0.1,0.9,0.1c0.1,0.3,0.3,0.4,0.5,0.6c0,0,0,0,0,0.1c-0.5,0.4-1,0.3-1.6,0.3
		c-0.5,0-1.1-0.1-1.7-0.1c-1-0.1-2-0.2-3-0.3c-1.3-0.2-2.5-0.3-3.8-0.4c-1.1-0.1-2.1-0.3-3.2-0.3c-0.2,0-0.4-0.1-0.6-0.2
		c-0.2-0.1-0.3-0.2-0.1-0.4C46.7,30.8,46.5,30.6,46.6,30.4z"/>
	<path class="st17" d="M30.7,10c0-0.1,0-0.2,0.1-0.3c0.8-0.8,1.8-0.9,2.8-0.8C35.4,9,37.2,9.2,39,9.3c0.4,0,0.9,0,1,0.4
		c0.1,0.3-0.4,0.5-0.7,0.7c-0.4,0.4-1,0.4-1.6,0.4c-1.6,0-3.2-0.2-4.8-0.3c-0.4,0-0.9-0.1-1.3-0.1C31.3,10.4,31,10.2,30.7,10z"/>
	<path class="st16" d="M83.6,35.6c-2-0.3-4-0.4-6-0.6c-1.9-0.2-3.8-0.4-5.7-0.6c-1.7-0.2-3.5-0.4-5.2-0.6c-1.5-0.2-3-0.3-4.4-0.4
		c-0.3,0-0.6-0.1-0.9-0.1c-0.2-0.3-0.5-0.2-0.8-0.4c-0.2-0.1-0.3-0.2-0.2-0.4c0,0,0,0,0,0c0.1-0.1,0.2-0.1,0.4,0
		c0.2,0.1,0.5,0.1,0.7,0c0.3-0.1,0.6-0.1,0.9,0.3c0.3,0.3,0.7,0.2,1.1,0.3c0.9,0.1,1.9,0.2,2.8,0.2c0.6,0,1.2,0.1,1.8,0.3
		c0.4,0.1,0.8,0.1,1.1,0.1c1.4,0.1,2.7,0.3,4.1,0.5c1.7,0.2,3.5,0.4,5.2,0.5c0.8,0.1,1.6,0.3,2.5,0.2c0.5-0.1,1.1,0,1.6-0.2
		c0.2-0.1,0.3,0,0.5,0c0.2,0,0.2-0.2,0.2-0.3c0,0,0,0,0-0.1c0.2-0.1,0.4,0,0.5,0c0.1,0,0.2,0.1,0.2,0.2c0,0.1-0.1,0.1-0.2,0.1
		c0,0-0.1,0-0.1,0c0.5,0.3-0.3,0.7,0,1C83.8,35.7,83.7,35.7,83.6,35.6z"/>
	<path class="st18" d="M31.9,30.3c0.7-0.1,1.4,0.1,2.1,0.1c1.2,0.1,2.4,0.2,3.6,0.4c1.5,0.2,3,0.3,4.4,0.5c1,0.1,2,0.2,3,0.2
		c1,0.1,2.1,0.3,3.1,0.4c2.2,0.2,4.5,0.5,6.7,0.7c0.9,0.1,1.9,0.2,2.8,0.3c0.1,0,0.2,0.1,0.3,0.1c0.1,0.1,0.2,0.1,0.3,0.2
		c0,0.1,0.1,0.1,0,0.2c-0.3,0.1-0.4-0.1-0.5-0.3c-0.2,0.2-0.4,0.1-0.6,0c-0.3,0-0.6-0.1-0.8,0C56.3,33.3,56.2,33,56,33
		c-0.8-0.1-1.6-0.3-2.4-0.1c-0.1-0.2,0.2-0.1,0.1-0.2c-0.7,0-1.4-0.3-2.1-0.2c0,0.2,0.2,0,0.3,0.2c-0.2-0.2-0.5,0.2-0.7-0.2
		c0,0-0.2,0.1-0.4,0.1c-0.6,0.1-1.2-0.1-1.7-0.3c-1-0.3-1.9-0.2-2.9-0.3c-1-0.2-1.9-0.3-2.9-0.3c-0.7,0-1.4-0.2-2.1-0.2
		c-1,0-2.1-0.2-3.1-0.4c-0.4,0-0.8-0.1-1.3,0c-0.2,0-0.4,0-0.6,0c0.2-0.2,0.4,0,0.5-0.1c-0.5-0.1-0.9,0-1.4,0.1
		c0.1-0.2,0.2,0,0.3-0.2c-1.1-0.1-2.2-0.2-3.4-0.3c0,0.2,0.1,0.1,0.2,0.2c-0.2-0.2-0.3,0.5-0.6,0C31.7,30.6,32.2,30.5,31.9,30.3z"/>
	<path class="st12" d="M93.5,18c-0.4,0.1-0.4,0.5-0.6,0.8c-0.1,0.1-0.1,0.2-0.2,0.4c-0.1,0.4-0.4,0.7-0.9,0.7c0.3-0.6,0.7-1.2,1-1.9
		c0.3-0.6,0.6-1.2,0.9-1.8c0.4-0.8,0.8-1.6,1.3-2.4c0.6-0.3,0.8-0.8,1.1-1.3c0.2-0.3,0.3-0.6,0.6-0.7c-0.2,0.5-0.5,1-0.7,1.5
		c0,0.3-0.2,0.6-0.3,0.8c-0.7,1.2-1.3,2.5-1.9,3.7C93.7,17.9,93.7,18.1,93.5,18z"/>
	<path class="st12" d="M98.2,8c0.2,0,0.3-0.1,0.5-0.3c0.1-0.1,0.2-0.2,0.3-0.1c0.1,0.1,0,0.2-0.1,0.3c-0.5,1.1-1.2,2-1.7,3
		c-0.2,0.4-0.4,0.1-0.5-0.1C97.2,9.9,97.7,9,98.2,8z"/>
	<path class="st2" d="M23.9,25.8c0.4-0.7,0.9-0.9,1.3-0.7c0.1,0.1,0.3,0.2,0.2,0.3c0,0.2-0.1,0.2-0.3,0.2
		C24.7,25.7,24.3,25.7,23.9,25.8z"/>
	<path class="st2" d="M12.4,26c0.4-0.1,0.7,0,1.2,0.1C13.1,26.2,12.7,26.2,12.4,26z"/>
	<path class="st1" d="M27,22.8c-1-0.1-2-0.2-3-0.2c0-0.1,0-0.1,0-0.2c1-0.1,2,0.1,3.1,0.2C27,22.7,27,22.8,27,22.8z"/>
	<path class="st19" d="M34.8,33.4c1.4,0.1,2.8,0.2,4.2,0.4c1.2,0.1,2.4,0.2,3.5,0.3c0.6,0,0.8,0.3,0.7,0.8c-0.1,0.5-0.1,0.9,0.1,1.4
		c0.1,0.1,0,0.2-0.1,0.3c-0.1,0.4-0.2,0.7,0,1.1c0.1,0.2-0.1,0.6,0,0.9c0,0.2-0.3,0.1-0.4,0.2c-1.5-0.1-3-0.3-4.5-0.4
		c-2.5-0.2-5-0.5-7.4-0.8c-2.1-0.2-4.2-0.5-6.3-0.7c-0.1-0.1-0.2-0.1-0.3-0.2c0.2-0.2,0.3-0.4,0.2-0.6c-0.1-0.4,0-0.7,0.5-0.7
		c0.1-0.1,0.2-0.1,0.4-0.1c0.6,0.1,1.1,0.2,1.7,0.3c0.4,0,0.7,0.2,1.1,0c0.4-0.2,0.9,0,1.2,0.1c-0.3-0.1-0.6-0.1-0.9-0.1
		c-0.3,0-0.5-0.2-0.5-0.5c0.2-0.1,0.4-0.1,0.5-0.4c0.1-0.3,0.4-0.2,0.4,0c0.1,0.4,0.3,0.4,0.6,0.4c0.2,0,0.5,0.1,0.7,0.1
		c0.3,0.2,0.6,0,0.8,0.1c0,0,0.1,0,0.1,0.1c0.3,0.1,0.2,0.6,0.5,0.8c0.1,0.1,0,0.2-0.2,0.2c-0.2,0-0.3,0-0.5,0c-0.1,0-0.3,0-0.4,0
		c-0.4-0.1-0.9,0-1.4-0.1c-0.2,0-0.3,0.1-0.3,0.3c0.1,0.3,0.4,0.3,0.6,0.3c2.2,0.2,4.5,0.4,6.7,0.6c1.8,0.2,3.6,0.4,5.4,0.6
		c0.2,0,0.4,0.1,0.6,0c0-0.2-0.2-0.2-0.3-0.3c-0.4-0.1-0.8-0.4-1.2-0.4c-0.7,0.1-1.3-0.3-1.9-0.4c-0.5-0.1-1.1-0.2-1.6-0.3
		c-0.2,0-0.4-0.1-0.5-0.2c-0.2-0.2-0.2-0.4-0.1-0.6c0.1-0.2,0.3-0.2,0.5-0.2c0.1,0,0.2,0,0.3,0c0.4-0.1,0.4-0.2,0.2-0.7
		c0-0.1-0.1-0.1-0.1-0.2c0-0.2,0.4-0.3,0-0.5c-0.2-0.1-0.1-0.2,0.1-0.3c0.1,0,0.2,0,0.3,0c0.1,0,0.3,0,0.4,0.1c0,0.6,0,1.2,0.1,1.8
		c0-0.3-0.2-0.6,0.1-0.9c0.3,0.2,0.2,0.5,0.2,0.7c0,0.3,0.1,0.5,0.5,0.6c0.3,0,0.6,0.1,1,0.2c0.3,0.1,0.5,0,0.5-0.4
		c0-0.6,0-1.2,0-1.7c0.2-0.3,0.3-0.1,0.4,0.1c0,0.5,0.1,0.9,0,1.4c-0.1,0.4,0.1,0.6,0.4,0.7c0.3,0.1,0.6,0.3,1,0.3
		c-0.2-0.3-0.6-0.3-0.9-0.5c-0.2-0.1-0.6-0.1-0.5-0.4c0.1-0.3,0.4-0.1,0.6,0c0.3,0.1,0.5,0.1,0.8,0.1c-0.1-0.3-0.6-0.3-0.5-0.7
		c0.1-0.2,0.3-0.1,0.4-0.1c-0.1-0.2-0.2-0.2-0.3-0.3c-0.1-0.1-0.3-0.3-0.2-0.4c0.1-0.2,0.3-0.1,0.5-0.1c-0.8,0-1.7-0.4-2.5-0.2
		c-0.4,0-0.9-0.1-1.3-0.1c-0.3-0.2-0.5-0.2-0.8-0.2c-0.3,0-0.6,0-0.9-0.1c-0.3-0.2-0.7-0.3-1-0.3c-0.3,0-0.6-0.1-0.9-0.1
		c-0.1,0-0.3,0-0.2-0.2C34.5,33.3,34.7,33.4,34.8,33.4z"/>
	<path class="st20" d="M62.7,40.9c0,0-0.1,0-0.1,0c-0.9,0-1.7-0.1-2.6-0.3c0.1-0.1,0.2-0.1,0.3-0.1c-2.4-0.2-4.7-0.5-7.1-0.7
		c-2.3-0.3-4.7-0.4-7.1-0.8c0.4-0.4,0.7-0.2,1-0.2c0.2,0,0.5,0.1,0.5-0.3c0-0.3,0-0.5-0.4-0.6c-0.4-0.1-0.9,0-1.3-0.3
		c-0.1-0.1-0.1-0.1-0.2-0.2c-0.1-0.1-0.2-0.1-0.1-0.3c0.1-0.1,0.2-0.1,0.3-0.1c0.3,0,0.7,0,1,0.2c0.6,0.2,1.3,0.1,1.9,0.3
		c-0.5-0.1-0.9-0.1-1.4-0.2c-0.1,0-0.3-0.1-0.3-0.1c0.1-0.2-0.1-0.2-0.1-0.3c0.2-0.2,0.4-0.1,0.6-0.1c0.4,0.1,0.8,0.1,1.2,0.2
		c0.3,0,0.6,0.2,0.7-0.3c0-0.2,0.3-0.2,0.4,0c0.1,0.1,0,0.3,0.2,0.4c0.1,0.1,0.2,0.1,0.2,0.2c0.1,0.1,0.3,0.2,0.3,0.4
		c0,0.2-0.3,0.2-0.4,0.2c-0.3,0.1-0.6,0.3-0.9,0.3c-0.4,0-0.8,0-1.2-0.2c0,0.1,0,0.1,0,0.2c-0.1,0.4,0.1,0.5,0.5,0.5
		c1.6,0.2,3.2,0.3,4.8,0.5c2.7,0.3,5.3,0.6,8,0.9c0.1,0,0.2,0,0.3-0.1c-0.1-0.2-0.3-0.2-0.4-0.2c-0.4-0.1-0.7-0.3-1.1-0.3
		c-0.8,0.1-1.4-0.4-2.1-0.5c-0.5-0.1-0.9-0.1-1.3-0.3c-0.2-0.3-0.5-0.4-0.9-0.6c0.3-0.3,0.6-0.1,0.9-0.2c0.2,0.1,0.2-0.3,0.5-0.3
		c0.1,0.3,0.3-0.1,0.4,0.1c0.1,0.1,0.1,0.3,0.1,0.4c0,0,0,0,0,0c0.1-0.2-0.2-0.5,0.2-0.7c0.2,0.2,0.2,0.5,0.2,0.7
		c0,0.3,0.1,0.5,0.4,0.5c0.4,0.1,0.7,0.1,1.1,0.2c0.3,0.1,0.5-0.1,0.5-0.4c0-0.5-0.1-1,0.1-1.6c0.3,0,0.2,0.2,0.3,0.3
		c0,0.4,0,0.8,0,1.2c0,0.3,0.1,0.5,0.4,0.6c0.4,0.2,0.8,0.3,1.3,0.5c0.1,0,0.1,0.1,0.1,0.1c0.4,0,0.7,0,0.4,0.5
		c-0.1,0.2,0.1,0.4,0.1,0.7c0.1,0,0.2-0.2,0.4-0.1c0.3,0.1,0.1,0.2,0,0.3C62.9,40.9,62.8,40.9,62.7,40.9z"/>
	<path class="st21" d="M5.9,34.8c0-1.2-0.2-2.4-0.1-3.6c0.4,0,0.7,0,1,0.4c0.1,0.1,0.3,0.1,0.4,0.2c0.2,0.1,0.4,0,0.4,0.3
		c-0.1,0.2-0.3,0.1-0.5,0.1c-0.5-0.1-0.5,0-0.5,0.5c0,0.1,0,0.2,0,0.3c-0.2,0.3-0.2,0.4,0.2,0.5c0.8,0.1,1.6,0.3,2.4,0.4
		c0.3,0.1,0.7-0.1,0.9,0.2c0,0.1-0.1,0.2-0.1,0.2c-0.3,0.2-0.2,0.4-0.1,0.6c0,0.2,0.3,0.2,0.5,0.2c1.5,0.2,3,0.3,4.5,0.5
		c1.8,0.2,3.6,0.4,5.4,0.6c1.1,0.1,2.3,0.2,3.4,0.4c0.1,0,0.3,0.1,0.4,0.1l0,0c-0.1,0.3-0.3,0.1-0.4,0.1c-1.8-0.2-3.6-0.4-5.5-0.5
		c-2.7-0.3-5.5-0.6-8.2-0.9c-1.2-0.1-2.5-0.2-3.7-0.4C6,35.1,5.9,35,5.9,34.8z"/>
	<path class="st22" d="M45.9,37.6c0.5,0.1,1.1,0.2,1.6,0.3c0.3,0,0.3,0.1,0.3,0.4c0,0.1-0.1,0.2-0.1,0.2c0.1,0.7-0.4,0.5-0.7,0.4
		c-0.2,0-0.4-0.1-0.7,0c4.7,0.4,9.3,1,14,1.6c-0.1,0-0.2,0-0.3,0c-1.6-0.1-3.3-0.3-4.9-0.5c-1.1-0.1-2.3-0.2-3.4-0.3
		c-1.6-0.2-3.1-0.4-4.7-0.5c-1.1-0.1-2.1-0.2-3.2-0.3c-0.2,0-0.3,0-0.4-0.2c0.4-0.3,0.3-0.7,0.3-1.1c0-0.3,0.1-0.3,0.3-0.4
		c0,0,0.1-0.1,0.1-0.1C44.6,37.2,45.3,37.3,45.9,37.6z"/>
	<path class="st23" d="M23.6,36.8c0.1,0,0.3,0.1,0.4-0.1c0.1,0,0.1,0,0.2,0c0.2-0.1,0.4-0.1,0.3,0.2C24.2,36.8,23.9,37,23.6,36.8z"
		/>
	<path class="st24" d="M89,31.9c0,0.3,0,0.5-0.1,0.7c-0.6,1.1-1.1,2.3-1.6,3.4c-0.1,0.1-0.1,0.2-0.2,0.3c-0.1,0-0.1,0-0.2,0
		c0,0-0.1-0.1-0.1-0.1c0.3-0.9,0.8-1.7,1.2-2.6c0.2-0.4,0.4-0.9,0.7-1.3C88.7,32.1,88.7,31.9,89,31.9z"/>
	<path class="st25" d="M83.4,43.2c-0.2-0.2-0.4-0.4-0.7-0.3c-0.3-0.2-0.4-0.6-0.6-0.8c-0.1-0.2,0.2-0.1,0.3-0.2
		c0-0.2-0.3-0.1-0.3-0.4c0.1-0.2,0.1-0.5,0.5-0.3c-0.1-0.1-0.2-0.2-0.3-0.2c-0.2-0.1-0.3-0.3,0-0.4c0.1-0.1,0.2-0.2,0.2-0.3
		c0-0.4,0.1-0.9,0.1-1.3c0-0.4-0.1-0.6-0.5-0.6c-1.2-0.1-2.4-0.2-3.6-0.4c-1.5-0.1-3-0.3-4.4-0.5c-2.2-0.2-4.4-0.4-6.6-0.7
		c-1.3-0.1-2.6-0.3-3.9-0.4c-0.2,0-0.3-0.1-0.4-0.2c0-0.1,0-0.1,0-0.2c0.8,0.1,1.6,0.1,2.4,0.2c0.3,0,0.4-0.2,0.5-0.4
		c-0.1-0.3,0.1-0.6,0.2-0.9c-0.4,0.2-0.7,0-0.9-0.2c-0.5-0.1-1-0.2-1.5-0.2c0.5,0.1,1,0.1,1.5,0.2c0.4,0.1,0.2,0.4,0.2,0.7
		c0.1-0.1,0.1-0.2,0.3-0.1c0.1,0.1,0.2,0.2,0.1,0.3c-0.2,0.4-0.6,0.4-0.9,0.3c-0.8-0.2-1.7-0.1-2.5-0.4c-0.2-0.1-0.5,0-0.8-0.1
		c0.3-0.5,0.4-1.1,0-1.6c1.1,0.3,2.2,0.2,3.3,0.3c1.3,0.2,2.6,0.3,3.8,0.4c0.1,0,0.3,0,0.3,0.2c0,0-0.1,0.1-0.2,0.1
		c-0.5,0.3-1,0-1.5,0c0.3,0.1,0.5,0.1,0.7,0.1c0.2,0,0.4,0,0.4,0.2c-0.1,0.1-0.1,0.2-0.1,0.4c-0.5,0.2-1-0.1-1.4,0
		c0.6,0.1,1.2,0.1,1.9,0.2c0.2,0.5,0,0.5-0.5,0.4c-0.7-0.1-1.5-0.1-2.2-0.3c-0.1,0-0.2-0.1-0.2,0.1c0,0.1,0.1,0.2,0.2,0.2
		c0.7,0.1,1.4,0.2,2.1,0.2c0.5,0,1,0,1.5,0c0.1-0.1,0.3-0.1,0.3-0.2c-0.2-0.2-0.3,0.1-0.4,0c-0.2,0.1-0.3-0.1-0.6,0
		c0.2-0.5,0.4-0.9,0.2-1.4c-0.1-0.1,0-0.2,0.1-0.2c0.8,0.1,1.7,0.1,2.5,0.3c0.6,0.1,1.1,0.1,1.7,0.1c0.8,0.1,1.7,0.2,2.5,0.2
		c0.5,0,1,0.2,1.5,0.1c0.6-0.1,0.9,0.2,0.8,0.8c-0.1,0.3,0.1,0.5,0.1,0.7c0,0.3,0,0.3-0.4,0.3c-0.9,0-1.8-0.4-2.7-0.4
		c-0.1-0.1,0.2-0.3,0-0.4c-0.1,0,0.2-0.2-0.1-0.1c0,0-0.1,0-0.1,0c0.1,0,0.2,0.1,0.2,0.1c0.1,0.5-0.4,0.2-0.5,0.4
		c-0.2-0.1-0.5-0.2-0.7-0.2c-0.4,0.1-0.6-0.1-0.7-0.5c-0.2,0-0.4,0.2-0.5,0.4c-0.2-0.1-0.4,0-0.5-0.2c-0.2-0.2-0.5-0.2-0.7,0
		c-0.2,0-0.3,0-0.5,0c-0.1,0-0.1-0.1-0.2-0.2c0-0.1-0.1-0.1-0.2-0.1c-0.1,0.1-0.1,0.2,0,0.2c0.3,0.1,0.7,0.3,1.1,0.2
		c0,0,0.1,0,0.1,0.1c0.2,0.2,0.5,0.2,0.8,0.3c1.5,0.2,3.1,0.4,4.6,0.5c1.2,0.1,2.3,0.3,3.5,0.3c0.6,0,1.3,0.1,1.9,0.2
		c0,0.5-0.2,1-0.1,1.5c0.1,0.7,0,1.5,0,2.2c0,0.2-0.1,0.5,0,0.7C83.3,42.8,83.4,43,83.4,43.2z"/>
	<path class="st26" d="M82.2,41.6c0.2,0,0.5,0,0.5,0.3c0,0.3-0.3,0-0.5,0.1c0.3,0.2,0.4,0.5,0.5,0.8c-0.3,0.2-0.6,0.1-0.8,0.1
		c-0.8-0.2-1.6-0.2-2.4-0.3c-0.7-0.1-1.5-0.1-2.3-0.2c-1.7-0.2-3.3-0.4-5-0.6c-2.8-0.3-5.6-0.6-8.4-0.9c-0.3,0-0.6,0-0.8-0.1
		c0-0.1,0.2-0.2,0-0.3c0-0.2,0-0.5,0-0.7c0-0.3,0.1-0.5,0.5-0.5c0.4-0.2,0.7,0,1.1,0.1c0.7,0.2,1.5,0.2,2.2,0.4c0.2,0,0.3,0,0.4-0.1
		c0.2-0.2,0.4-0.1,0.6,0c0,0,0.1,0.1,0,0c0,0,0,0,0-0.1c-0.4-0.1-0.8-0.1-1.2-0.2c-0.1,0-0.2,0-0.3-0.1c-0.1-0.1-0.3-0.3,0-0.3
		c0.2,0,0.1-0.2,0.2-0.2c0.3,0,0.6,0,0.8-0.4c0.1-0.2,0.3-0.1,0.4,0.1c0,0.4,0.2,0.5,0.6,0.5c0.3,0,0.5,0,0.8,0.1
		c0,0,0.1,0.1,0.1,0.1c0.6-0.2,0.8,0.4,1.3,0.4c0.5,0,1,0.3,1.5,0.4c0.2,0,0.4,0.1,0.4,0.3c0,0.2-0.2,0.2-0.4,0.2
		c-1.2,0-2.5-0.1-3.7-0.2c-0.1,0-0.1,0-0.2,0c-0.2,0-0.4,0-0.4,0.2c0,0.3,0.2,0.3,0.3,0.3c0.5,0,1,0.1,1.6,0.2
		c2.5,0.2,4.9,0.5,7.4,0.7c1.4,0.1,2.8,0.3,4.2,0.5c0.2,0,0.5,0.2,0.4-0.2c0-0.2,0.1-0.3,0.2-0.4C82.1,41.5,82.2,41.5,82.2,41.6z"/>
	<path class="st27" d="M12.7,32c1.8,0,3.6,0.1,5.3,0.3c0.4,0,0.8-0.1,1.2,0.1c0.1,0,0.1-0.1,0.1-0.2c0.3-0.3,1.8-0.2,2.1,0.1
		c0,0,0,0,0,0c0,0.1-0.1,0.2-0.2,0.2c-0.4,0-0.8,0-1.2-0.1c-0.3-0.1-0.5,0-0.6,0.3c-0.2,0.2,0,0.4,0,0.7c0,0.3,0,0.6,0,1
		c0,0,0,0,0,0c0,0,0,0,0.1,0c0.7,0.1,1.4,0.2,2,0.5c0,0.1,0,0.2,0,0.2c-0.3,0.3-0.5,0.5-0.8,0c-0.1-0.1-0.2-0.1-0.3-0.1
		c-1.2-0.3-2.3-0.5-3.5-0.4c-1.3,0.1-2.6-0.3-3.9-0.2c-0.1,0-0.1,0-0.2-0.1c-0.2-0.2-0.3-0.4-0.1-0.6c-0.2,0-0.4-0.2-0.6-0.3
		c-0.1-0.1-0.2-0.1-0.1-0.3c0.1-0.1,0.3-0.1,0.4-0.1c0.3,0.1,0.6,0,0.7-0.3c0.1-0.2,0.4-0.2,0.5,0c0.1,0.3,0.4,0.3,0.6,0.4
		c0.7,0.2,1.4,0,2.2,0.1c0.2,0,0.3-0.1,0.3-0.3c0.1-0.2,0.4-0.3,0.5-0.1c0.2,0.6,0.7,0.4,1.1,0.5c0,0,0.1,0,0.1,0
		c0.1,0,0.1,0.1,0.2,0.2c0,0,0.1,0.1,0.1,0c0,0,0-0.1,0-0.1c-0.1-0.1-0.1,0.1-0.2,0c0,0-0.1,0-0.1-0.1c-0.1-0.4-0.3-0.4-0.7-0.5
		c-1.2-0.2-2.4,0-3.6-0.2c-1-0.1-2-0.1-3-0.2c-0.2,0-0.4,0-0.5-0.2c0.3-0.5,0.8-0.5,1.3-0.4C12.2,32.1,12.5,32.1,12.7,32z"/>
	<path class="st28" d="M82.2,41.6c-0.1,0-0.2,0-0.2,0c-0.1,0-0.1-0.1-0.1-0.1c0-0.2-0.1-0.3-0.3-0.4c-0.4-0.1-0.8-0.4-1.3-0.2
		c0,0,0,0-0.1-0.1c-0.1-0.2,0-0.4-0.1-0.6c0-0.5-0.1-1,0.1-1.4c0.1-0.3,0.2-0.1,0.3,0.1c0.1,0.3,0.1,0.5,0,0.8
		c0,0.4,0.1,0.6,0.5,0.7c0.3,0,0.5,0.1,0.8,0.1c-0.2-0.3-0.6-0.3-0.5-0.7c0.1-0.2,0.3,0,0.5-0.2c-0.2-0.2-0.5-0.3-0.7-0.5
		c-0.1-0.1-0.2-0.1-0.1-0.2c0.1-0.1,0.2-0.1,0.3-0.1c0.3,0,0.6,0.1,0.8,0.3c-0.6-0.4-1.3-0.4-2-0.4c-0.5,0.1-0.9-0.1-1.4-0.1
		c-0.4-0.1-0.8-0.2-0.9,0.3c0,0.1-0.1,0.1-0.2,0c-0.1-0.4-0.3-0.5-0.7-0.6c-2.6-0.4-5.2-0.5-7.8-0.8c-1-0.1-1.9-0.1-2.9-0.3
		c-0.2,0-0.4,0-0.5-0.2c-0.8-0.1-1.5-0.1-2.3-0.2c-0.3,0-0.6-0.2-0.3-0.6c0.5,0.2,1.1,0.1,1.6,0.2c1.5,0.2,2.9,0.3,4.4,0.5
		c1.1,0.1,2.3,0.2,3.4,0.3c1.5,0.1,2.9,0.3,4.4,0.5c1.1,0.1,2.2,0.2,3.3,0.3c0.7,0.1,1.5,0.1,2.2,0.2c0.3,0,0.4,0.2,0.3,0.4
		c-0.2,0.4,0.2,0.9-0.2,1.3c0,0,0.1,0.1,0.1,0.2c0.1,0.4,0.1,0.7-0.5,0.6c0.5,0,0.5,0.3,0.5,0.6c-0.2-0.2-0.2-0.2-0.3,0.1
		C82.4,41.5,82.3,41.5,82.2,41.6z"/>
	<path class="st29" d="M62.2,39.5c0,0-0.1,0-0.1,0c-0.3-0.4-0.8-0.6-1.3-0.8c-0.2-0.1-0.4-0.1-0.4-0.3c0.1-0.3,0.3-0.2,0.5-0.2
		c0.3,0,0.5,0.1,0.9,0.2c-0.2-0.3-0.6-0.4-0.4-0.7c0.2-0.3,0.5,0,0.7,0.1c0.1,0,0.1-0.1,0,0c0,0,0,0,0,0c-0.2-0.3-0.5-0.4-0.7-0.6
		c-0.1-0.1-0.2-0.2-0.1-0.4c0.1-0.1,0.2-0.1,0.4-0.1c0.1,0,0.1,0.1,0.2,0c-0.7,0-1.4-0.3-2.2-0.1c-0.5,0-1,0-1.5-0.2
		c-0.5-0.2-1.1-0.1-1.6-0.1c-2.3-0.3-4.5-0.5-6.8-0.8c-0.6-0.1-1.2-0.1-1.8-0.2c-0.3,0-0.6,0-0.9-0.2c-1-0.1-2-0.2-3-0.4
		c-0.2,0-0.4-0.1-0.3-0.4c0.1-0.3,0.3-0.1,0.4-0.1c1.6,0.2,3.2,0.4,4.9,0.5c2,0.2,4,0.4,6,0.7c1.4,0.2,2.9,0.3,4.3,0.4
		c1,0.1,2,0.2,3,0.2c0.5,0,0.7,0.3,0.6,0.8c-0.1,0.5-0.1,1-0.1,1.4C62.8,38.8,62.7,39.3,62.2,39.5z"/>
	<path class="st30" d="M21.4,32.4c-0.2-0.2-0.4-0.3-0.7-0.2c-0.3,0.1-0.6,0.1-0.8,0c-0.2-0.1-0.4,0-0.6,0.1c-1.5-0.2-3-0.3-4.6-0.5
		c-1.1-0.1-2.3-0.2-3.4-0.3c-1.1-0.1-2.2-0.2-3.2-0.3c-0.6,0-1.2-0.2-1.9-0.2c-0.2,0-0.4,0-0.4-0.3c0-0.3,0.3-0.2,0.4-0.2
		c1.1,0.1,2.2,0.2,3.2,0.3c1.2,0.1,2.3,0.2,3.5,0.4c1.6,0.2,3.1,0.3,4.7,0.5c1.5,0.1,3,0.3,4.5,0.4c0.4,0,0.9,0.1,1.3,0.1
		c0.5,0,0.7,0.4,0.6,0.7c-0.1,0.7,0.1,1.4,0,2c0,0.1,0,0.2-0.1,0.3c0,0.1-0.4,0.3,0,0.4c0.1,0,0.1,0.3,0,0.3
		c-0.3,0.1-0.1,0.3-0.1,0.5c-0.2,0.2-0.4,0.1-0.7,0c-0.1-0.2,0-0.3,0-0.5c0-0.1,0-0.3,0-0.4c0-0.2-0.1-0.4-0.3-0.5
		c-0.1-0.1-0.3-0.1-0.3-0.3c0.1-0.2,0.2-0.2,0.4-0.3c0.3-0.1,0.1-0.1,0-0.2c-0.3-0.3-0.3-0.4,0.1-0.6c-0.1-0.2-0.3-0.2-0.4-0.3
		c-0.1-0.1-0.2-0.3-0.1-0.4c0.1-0.2,0.3-0.1,0.5-0.1C22.5,32.6,21.9,32.7,21.4,32.4z"/>
	<path class="st31" d="M34.8,33.4c-0.1,0-0.1,0-0.2,0c0,0,0,0,0,0.1c0.3,0,0.7,0.1,1,0.1c0.3,0,0.6,0.3,0.9,0.2
		c0.1,0,0.1,0.2,0.1,0.3c-0.5,0.3-1,0-1.4,0c-0.9-0.1-1.9-0.2-2.8-0.3c-1.1-0.1-2.2-0.2-3.3-0.3c-0.7-0.1-1.3,0-2-0.2
		c-0.2,0-0.4-0.1-0.6-0.2c-0.7,0.1-1.3-0.2-2-0.2c-0.2,0-0.2-0.1-0.2-0.3c0-0.2,0.2-0.2,0.3-0.2c0.7,0.1,1.4,0.2,2.1,0.2
		c1.2,0.1,2.3,0.3,3.5,0.4c1.4,0.1,2.9,0.3,4.3,0.4C34.7,33.3,34.7,33.4,34.8,33.4z"/>
	<path class="st23" d="M23.2,36.2c0.2,0.2,0.5,0.1,0.7,0.1c0.2,0.1,0.1,0.3,0.1,0.4c-1.1-0.2-2.2-0.2-3.3-0.4
		c-0.8-0.1-1.6-0.1-2.4-0.2c-1.4-0.2-2.8-0.2-4.2-0.5c-0.6-0.1-1.3-0.2-1.9-0.2c-0.7,0-1.4-0.1-2.1-0.2c-0.6-0.1-0.2-0.6-0.3-0.8
		c-0.1-0.2,0.1-0.2,0.3-0.1c0.1,0.5,0.4,0.6,0.9,0.7c2.3,0.2,4.7,0.4,7,0.6c1.4,0.1,2.9,0.3,4.3,0.5C22.6,36,23,36,23.2,36.2z"/>
	<path class="st32" d="M45.9,37.6c-0.7-0.1-1.3-0.3-2-0.4c-0.2,0-0.3-0.2-0.3-0.4c0-0.6,0-1.1,0-1.7c0-0.3,0.1-0.3,0.3-0.2
		c0.4,0.1,0.7,0.1,1.1,0.2c1,0.1,1.9,0.2,2.9,0.4c0.3,0,0.6,0,0.8,0.2c0,0.3-0.2,0.2-0.3,0.3c-0.2,0-0.4,0-0.6,0
		c-0.5-0.1-0.9-0.1-1.4,0.1c-0.5,0.1-1-0.1-1.5-0.2c-0.4-0.1-0.5,0.1-0.5,0.4c0,0.3,0.1,0.2,0.3,0.2c0.8-0.1,1.6-0.1,2.3,0.4
		c0.5,0.8,1.4,0.3,2,0.7c-1.1,0-2.2-0.2-3.4-0.4C45.8,37.3,45.9,37.4,45.9,37.6z"/>
	<path class="st33" d="M27.9,34.9c0.3,0.7,1.1,0.3,1.6,0.7c-0.3,0.1-0.6,0-0.9,0c-0.2,0-0.5-0.2-0.6,0.2c0,0-0.2,0-0.3,0
		c-0.9-0.2-1.8-0.3-2.8-0.5c-0.4,0-0.5-0.2-0.5-0.5c0-0.5,0-1,0-1.5c0-0.3,0-0.4,0.3-0.3c0.4,0.1,0.8,0.2,1.3,0.2
		c1.1,0.1,2.2,0.2,3.3,0.5c0.1,0.1,0,0.2-0.1,0.2C29,34,28.9,34,28.7,34c-0.5-0.1-1-0.2-1.5,0.1c-0.1,0.1-0.3,0-0.5,0
		c-0.3-0.1-0.6-0.1-0.9-0.2c-0.4-0.1-0.5,0-0.5,0.4c0,0.1,0,0.3,0.1,0.4c0.2,0.2,0.4,0.3,0.6,0.3c0.4,0.1,0.7,0.1,0.9,0.2
		c-0.2,0-0.6-0.1-0.9-0.2c-0.2,0-0.4-0.2-0.5-0.4c0.4-0.4,0.8-0.1,1.2-0.1c0.1,0,0.1,0,0.2,0C27.2,34.8,27.6,34.6,27.9,34.9z"/>
	<path class="st34" d="M65.8,37c0.8,0,1.6,0.2,2.4,0.2c0.8,0,1.7,0.2,2.5,0.3c1.5,0.2,3,0.2,4.6,0.5c0.6,0.1,1.2,0.2,1.8,0.2
		c0.6,0,0.8,0.2,0.7,0.7c0.2,0.6,0.2,1.2,0,1.7c-0.3,0.2-0.3,0-0.4-0.2c-0.1-0.2,0-0.5,0-0.7c0-0.4,0.1-0.8,0-1.2
		c-0.4-0.2-0.9-0.1-1.4-0.2c-1.4-0.1-2.8-0.3-4.2-0.3c-0.7,0-1.3-0.1-2-0.1c-0.9-0.1-1.7-0.2-2.6-0.3c-0.6-0.1-1.1-0.2-1.7-0.3
		c-0.2,0-0.4,0-0.5-0.3C65.3,37,65.6,37.2,65.8,37z"/>
	<path class="st35" d="M48.7,35.7c-1.2-0.1-2.5-0.3-3.7-0.6c0.5,0,1,0,1.4,0.1c0.2,0,0.4,0.1,0.6-0.1c1.2,0.1,2.4,0.2,3.5,0.3
		c1.1,0.2,2.2,0.2,3.3,0.3c1,0.1,2,0.2,3,0.4c0.5,0.1,0.9,0,1.4,0.1c0,0,0.1,0,0.1,0c0,0.1-0.1,0.1-0.2,0.1c-0.3,0.3,0,0.7-0.3,1.1
		c0,0.4,0,0.8-0.1,1.2c0,0-0.1,0-0.1,0c0-0.3,0-0.6,0-0.9c-0.2-0.2-0.1-0.5-0.1-0.8c0-0.3-0.1-0.5-0.5-0.5c-1.9-0.2-3.9-0.2-5.8-0.5
		c-0.1,0-0.3,0-0.4,0C50.1,36,49.3,36.1,48.7,35.7z"/>
	<path class="st36" d="M65.1,37.2c0.7,0.2,1.5,0.3,2.2,0.4c-0.1,0.3-0.3,0.2-0.5,0.2c-0.4-0.1-0.8,0-1.2,0.2c-0.4,0-0.7-0.1-1.1-0.2
		c-0.2,0-0.3-0.1-0.4,0.1c-0.1,0.2-0.1,0.4,0,0.6c0.1,0.2,0.3,0,0.4,0.1c0,0,0.1,0,0.1,0c0.2,0.3,0.5,0.4,0.8,0.4
		c0.4,0,0.8,0.1,1.1,0.3c0.1,0,0.2,0,0.3,0c-0.1,0.3-0.4,0.2-0.6,0.2c-0.2,0-0.5-0.1-0.7,0.1c-0.1,0.1-0.2,0.1-0.3,0
		c-0.2-0.3-0.4-0.1-0.6-0.1c-0.4-0.1-0.7-0.1-1.1-0.2c-0.3,0-0.4,0-0.4-0.4c0-0.6,0-1.2,0-1.8c0-0.3,0.1-0.3,0.3-0.3
		C64,37,64.6,37.2,65.1,37.2z"/>
	<path class="st37" d="M29.3,33.7c-1.1-0.1-2.2-0.3-3.3-0.5c0.1-0.1,0.2-0.1,0.4-0.1c0.1,0.1,0.2,0,0.2-0.1c1.1,0.1,2.2,0.2,3.3,0.3
		c0.8,0.1,1.6,0.2,2.4,0.3c1.3,0.1,2.6,0.2,3.9,0.4c0.1,0,0.3,0,0.4,0c0.6,0.2,1.2,0,1.7,0.3c0.2,0.3,0.2,0.6,0,1
		c-0.1,0.4,0.1,0.9-0.1,1.3c-0.1-0.6-0.1-1.2-0.1-1.8c0-0.1,0-0.2,0-0.3c-0.1-0.2-0.3-0.1-0.4-0.1c-0.7,0.1-1.4,0-2.1,0
		c-0.9-0.1-1.8-0.2-2.8-0.2c-0.8,0-1.6-0.1-2.5-0.3c0,0-0.1,0.1-0.1,0.1C30,34,29.6,34,29.3,33.7z"/>
	<path class="st38" d="M12.7,32c-0.5,0.2-0.9,0.1-1.4,0.1c-0.1,0-0.3-0.1-0.3,0.2c0,0.3-0.3,0.1-0.4,0.2c-0.3,0.2-0.6,0.1-0.9,0
		c-0.7-0.1-1.5,0-2.2-0.4c-0.2-0.1-0.4-0.1-0.6-0.2c-0.1,0-0.2,0-0.2-0.1c-0.1-0.4-0.4-0.5-0.8-0.4c0,0-0.1-0.1-0.1-0.1
		c0.2-0.2,0.4-0.1,0.6,0C8.5,31.6,10.6,31.9,12.7,32z"/>
	<path class="st18" d="M29,30.1c1,0,1.9,0.1,2.9,0.3c0,0.1-0.1,0.2-0.1,0.3c-0.5,0-1-0.2-1.5-0.1c0.1,0.6-0.4,0.6-0.7,0.7
		c-0.1,0.1-0.2,0.1-0.3,0c0-0.2-0.2-0.2-0.3-0.3c0.2-0.2,0.4-0.1,0.6-0.1c0.2,0,0.4,0,0.4-0.2c0-0.3-0.2-0.2-0.4-0.3
		C29.3,30.3,29.1,30.3,29,30.1z"/>
	<path class="st39" d="M96.1,17c-0.1,0.2-0.1,0.3-0.2,0.5c-0.1,0.5-1.1,2.4-1.3,2.8l0,0c-0.2,0.5-0.5,1-0.7,1.5
		c0,0.1-1.4,1.3-1.7,1.9c-0.1,0.2-0.4,0.1-0.6-0.1c-0.2-0.2-0.2-0.5-0.4-0.7c-0.1-0.2,0.1-0.3,0.1-0.5c0.7-1.5,1.5-2.9,2.2-4.4
		c0-0.1,0.1-0.2,0.2-0.3c0.3,0.1,0.1,0.4,0.2,0.6c0,0.1,0,0.3,0.1,0.3c0.1,0,0.2-0.1,0.2-0.2c0-0.2,0.1-0.3,0.3-0.3
		c0.8-0.1,0.9-0.7,1.2-1.3c0.2-0.4,0.6-0.8,0.7-1.3c0.1-0.5,0.5-0.8,0.7-1.3c0,0,0,0,0,0c0,0,0,0,0,0c0.1,0.5-0.3,0.8-0.5,1.2
		C96.7,16.1,96.5,16.6,96.1,17z"/>
	<path class="st40" d="M93.9,17.8C93,19.6,92,21.2,91.2,23c-0.3,0.6-0.7,1.3-1,1.9c-0.1,0.1-0.1,0.3-0.3,0.4l0,0
		c0.6-1.2,1.1-2.4,1.7-3.6c0.6-1.2,1.3-2.5,1.9-3.7c0.6-0.9,1-2,1.5-2.9c0.3-0.6,0.6-1.2,1-1.8c0.2,0.4-0.1,0.6-0.2,0.9
		C95.1,15.3,94.5,16.6,93.9,17.8z"/>
	<path class="st41" d="M1.3,33.2c-0.4,0-1-0.5-0.8-0.6c0.3-0.3-0.1-0.6,0.2-0.8c0.1-0.1,0.2-0.2,0.4-0.2c0.4,0,1,0.6,0.9,0.9
		C1.9,32.8,1.8,33.2,1.3,33.2z"/>
	<path class="st42" d="M1.7,30.6c0.3-0.2,0.6-0.3,0.9-0.1C2.5,30.7,1.9,30.8,1.7,30.6z"/>
	<path class="st43" d="M3.1,32.3c0.1-0.3,0.3-0.5,0.4-0.7C3.6,32,3.4,32.2,3.1,32.3z"/>
	<path class="st44" d="M86.8,36.2C86.8,36.2,86.8,36.3,86.8,36.2c-0.4,0.1-0.8,0-1.1,0.4c-0.2,0.3-0.2,0.6,0.1,0.8
		c0.2,0,0.3,0.1,0.4,0.2c0,0,0,0,0,0.1c0,0,0,0,0,0c0.2,0.2,1.1,0.5,1.2,0.3c0.3-0.2,0.7-0.5,0.4-1c-0.1-0.1-0.1-0.2,0.1-0.3
		c0.2-0.1,0.3,0.1,0.3,0.2c0.1,0.3,0,0.7,0,1c0,0.4-0.1,0.7-0.1,1.1c0,0.1,0,0.3-0.1,0.4c-0.1,0.1-0.3,0-0.4-0.1
		c-0.2-0.2-0.4-0.3-0.6-0.4c-0.1-0.1-0.2,0-0.2,0.1c-0.2,0.1-0.4,0-0.5,0c-0.2,0.1-0.6,0-0.6,0.5c-0.2,0.2-0.4,0.1-0.6,0.2
		c-0.2-0.2-0.5,0.1-0.7-0.2c0,0-0.1,0-0.1,0c-0.1,0.1-0.2,0.3-0.3,0.1c-0.1-0.1,0-0.3,0-0.4C84,39,84.1,38.7,84,38.4
		c-0.2-0.3-0.1-0.6-0.1-1c0-0.4,0.1-0.8,0-1.2c-0.1-0.4,0.1-0.7,0.3-1c0.1-0.1,0.1-0.2,0.3-0.2c0.1,0,0.2,0.2,0.2,0.3
		c-0.1,0.5,0,0.3,0.4,0.4c0.3,0.1,0.8-0.3,1,0.3c0,0.1,0.2,0,0.3,0C86.5,36.1,86.7,35.9,86.8,36.2z"/>
	<path class="st45" d="M87,42.4c0.1,0.1,0.2,0.2,0.3,0.3c0.1,0.2,0.1,0.4,0,0.6c-0.1,0.2-0.3,0.2-0.4,0.2c-0.3,0-0.6-0.1-1-0.1
		c-0.2,0-0.4-0.2-0.4-0.4c0-0.1-0.1-0.4,0.2-0.4C86.2,42.7,86.6,42.6,87,42.4z"/>
	<path class="st46" d="M86.7,36.5c0.7,0,1,0.3,1,0.9c0,0.2-0.1,0.4-0.2,0.4c-0.4,0-0.8,0.2-1.2-0.1l0,0C86,37.1,86.4,36.8,86.7,36.5
		z"/>
	<path class="st47" d="M86.9,41.4c0,0.2,0,0.5-0.2,0.5c-0.3,0.1-0.2-0.2-0.4-0.4c-0.2-0.2-0.1-0.6-0.4-0.8c-0.1-0.1,0-0.3,0.2-0.3
		C86.5,40.5,86.9,41,86.9,41.4z"/>
	<path class="st48" d="M85.2,41.2c0-0.1,0-0.3,0.2-0.4c0.2-0.1,0.3,0.1,0.3,0.1c0.1,0.1,0.3,0.2,0.1,0.4c-0.2,0.2,0,0.1,0.1,0.2
		c0.3,0.1,0.3,0.3,0.2,0.5c-0.1,0.3-0.3,0.1-0.5,0C85.4,41.8,85.2,41.5,85.2,41.2z"/>
	<path class="st49" d="M86.7,36.5c-0.2,0.4-0.4,0.7-0.5,1.2c-0.2,0-0.3-0.2-0.4-0.3C85.6,36.7,85.8,36.4,86.7,36.5z"/>
	<path class="st50" d="M85.8,39.6c-0.1,0-0.2,0.1-0.3,0c-0.1-0.1,0-0.2,0.1-0.2c0.2-0.2,0.4-0.3,0.7-0.3c0.1,0.1,0.1,0.1,0,0.2
		C86.1,39.3,86,39.5,85.8,39.6z"/>
	<path class="st51" d="M87.7,41.2c-0.1,0.1-0.1-0.1-0.2-0.1c0-0.2-0.1-0.4-0.1-0.6C87.8,40.6,87.8,40.6,87.7,41.2z"/>
	<path class="st52" d="M84.9,40.7c-0.1-0.2,0.1-0.3,0.1-0.4c0.1-0.1,0.2-0.2,0.5-0.3C85.3,40.3,85,40.4,84.9,40.7z"/>
	<path class="st53" d="M87.1,39.3c0.4,0,0.5,0.4,0.5,0.7C87.4,39.8,87.3,39.5,87.1,39.3L87.1,39.3z"/>
	<path class="st54" d="M86.3,39.2c0-0.1,0-0.1,0-0.2c0.2-0.1,0.4,0.1,0.6,0.1c0.1,0.1,0.2,0.1,0.2,0.2c0,0,0,0,0,0
		C86.8,39.3,86.6,39.2,86.3,39.2z"/>
	<path class="st55" d="M84.5,35.4c0-0.1,0-0.2,0-0.3c-0.2,0.3-0.5,0.6-0.4,1.1c0,0.7,0,1.5-0.1,2.2c-0.2,0.3-0.1,0.6-0.1,0.9
		c0,1.2-0.1,2.4-0.1,3.6c0,0.1,0,0.2-0.2,0.3c0-1.5,0.1-3,0.1-4.5c-0.1-0.1-0.1-0.2-0.1-0.3c0.1-0.6,0.1-1.2,0.1-1.9
		c0-0.7,0.4-1.2,0.7-1.7C84.8,35,84.8,35.2,84.5,35.4z"/>
	<path class="st56" d="M84.4,34.8c-0.5,0.7-0.6,1.5-0.6,2.3c0,0.5-0.1,1-0.1,1.6c-0.1,0-0.2,0.1-0.2-0.1c0-0.2,0-0.3,0-0.5
		c0-0.8-0.1-1.6,0.1-2.4c0.1,0,0.2,0,0.2-0.1c0.1-0.2,0.3-0.5,0.4-0.7C84.3,34.8,84.3,34.8,84.4,34.8z"/>
	<path class="st57" d="M83.3,42.6c-0.2-0.1-0.1-0.3-0.1-0.4c0-0.8,0.1-1.7,0.1-2.5c0.2,0.7,0.1,1.4,0,2.2
		C83.4,42,83.3,42.3,83.3,42.6z"/>
	<path class="st58" d="M18.4,29.1c0.3,0.1,0.6,0.2,0.8,0.2c0.3,0,0.3,0.1,0.4,0.4c0,0.3-0.1,0.3-0.4,0.3c-0.3,0-0.6,0-0.9-0.1
		c-0.3-0.1-0.1-0.4-0.2-0.5C18.2,29.3,18.2,29.2,18.4,29.1C18.3,29.1,18.3,29.1,18.4,29.1z"/>
	<path class="st1" d="M8,27.6c-0.1,0-0.3-0.1-0.3-0.2c-0.1-0.2,0.1-0.1,0.2-0.1c0,0,0.1,0.1,0.1,0.1c0,0,0.1,0,0.1,0
		c0.1,0,0.3-0.2,0.3,0.1C8.4,27.6,8.2,27.6,8,27.6z"/>
	<path class="st59" d="M3.2,29.3c-0.5,0-1.1,0.1-1.4-0.5C1.5,28.3,1.7,28,2.3,28C2.5,28,2.8,28,3,28c0.4,0,0.5,0.4,0.5,0.7
		C3.6,28.9,3.5,29.2,3.2,29.3z"/>
	<path class="st5" d="M3.2,29.3C3.6,28.7,3.5,28.5,3,28c0.6-0.2,0.5,0.4,0.7,0.6c0.1,0.2-0.1,0.5-0.3,0.7c-0.2,0.1-0.3,0.3-0.6,0.1
		C2.9,29.3,3.1,29.4,3.2,29.3z"/>
	<path class="st60" d="M2.6,33.5c0.3,0,0.6,0,0.8,0.3c0.2,0.2,0.3,0.5,0.1,0.7c-0.1,0.3-0.3,0.3-0.6,0.2c-0.2-0.1-0.4,0-0.6-0.1
		c-0.3-0.1-0.6-0.4-0.5-0.8C1.9,33.5,2.2,33.5,2.6,33.5z"/>
	<path class="st61" d="M17.9,29.4c0,0.3-0.1,0.4-0.4,0.4c-0.2,0-0.4,0-0.5,0c-0.5,0.1-0.6-0.2-0.6-0.6C16.8,28.8,17.8,29,17.9,29.4z
		"/>
	<path class="st62" d="M16.2,29.5c-0.4,0.2-0.9,0-1.3,0c-0.2,0-0.2-0.3-0.2-0.5c0-0.2,0.1-0.2,0.3-0.2c0.2,0,0.4,0.1,0.5,0.1
		C16.1,28.8,16.2,29.1,16.2,29.5z"/>
	<path class="st0" d="M84.4,34.8c-0.1,0-0.1,0-0.2,0c0.3-1,0.9-1.8,1.3-2.8c0.3-0.7,0.7-1.3,1.1-1.9c0-0.1,0.4-0.1,0.2-0.4
		c0.2-0.5,0.4-0.9,0.7-1.3c0.2,0.2,0.3,0.5,0.7,0.2c-0.5,1-0.9,2.1-1.6,3c0,0-0.1,0-0.1,0c0,0,0,0,0,0c0,0,0.1,0,0.1,0
		c-0.1,0.6-0.6,1.1-0.8,1.7c-0.1,0.2-0.2,0.3-0.1,0.6c0.2-0.3,0.3-0.6,0.4-0.9c0.3-0.6,0.6-1.1,0.8-1.7c0,0,0,0,0,0
		c0-0.4,0.6,0.2,0.4-0.2c-0.2-0.3,0-0.4,0.1-0.6c0.1-0.2,0.2-0.5,0.3-0.7c0.4,0.1,0.8,0.2,1.2,0.4c0.1,0.1,0.1,0.2,0.1,0.3
		c0.2-0.2,0.1-0.6,0.5-0.7c0,0,0.1,0,0.1,0.1c0.1,0.3-0.1,0.4-0.1,0.6c-0.2,0.4-0.5,0.8-0.5,1.3c0,0,0,0.1,0,0.1
		c-0.7,1.4-1.4,2.8-2.1,4.2c0,0.1-0.1,0.1-0.1,0.2c-0.2-0.1-0.3,0-0.5,0c-0.1,0-0.4,0.2-0.4-0.2c0-0.1-0.2,0-0.3-0.1
		c-0.1,0-0.3,0.3-0.4-0.1c0,0-0.2,0-0.2,0c-0.1,0.5-0.4,0-0.5,0.1c-0.1-0.2-0.1-0.4,0-0.5C84.6,35.2,84.7,35,84.4,34.8z"/>
	<path class="st1" d="M60,32c-0.3-0.2-0.7-0.2-1.1-0.2c-1,0-2.1-0.3-3.1-0.3c-1-0.1-1.9-0.2-2.9-0.3c-1.4-0.2-2.9-0.3-4.3-0.5
		c-0.5,0-0.9,0-1.4-0.2c0.1-0.1,0.2-0.1,0.3-0.1c1.7,0.2,3.4,0.4,5.1,0.6c0.8,0.1,1.7,0.1,2.6,0.2c1,0.1,2.1,0.2,3.1,0.3
		c0.8,0.1,1.7,0.2,2.5,0.3c1.5,0.2,3,0.3,4.5,0.5c0.8,0.1,1.5,0.1,2.3,0.2c1.1,0.1,2.2,0.2,3.3,0.3c0.9,0.1,1.8,0.1,2.7,0.3
		c1,0.1,2,0.1,3,0.3c0.4,0.1,0.8,0.1,1.3,0.2c1.8,0,3.5,0.4,5.2,0.5c0.1,0,0.1,0.1,0.2,0.1c0,0,0,0,0,0c-0.1,0.1-0.2,0.3-0.3,0.2
		c-0.6-0.1-1.3,0.1-1.9-0.1c-0.6-0.2-1.2-0.2-1.9-0.3c-1.5-0.1-3.1-0.3-4.6-0.4c-1.9-0.2-3.8-0.4-5.8-0.6c-0.6,0-1.3-0.1-1.9-0.2
		c-2.1-0.3-4.2-0.5-6.3-0.6C60.5,32.3,60.2,32.2,60,32z"/>
	<path class="st15" d="M86.8,29.8c0.1,0.1,0.3-0.1,0.4,0.1c0,0.2-0.2,0.1-0.3,0.2c-0.1,0.1-0.2,0.1-0.3,0.1
		C86.6,30,86.7,29.9,86.8,29.8z"/>
	<path class="st63" d="M56.5,33.2c0-0.2,0-0.3,0.3-0.3c0.4,0.1,0.7,0.1,1.1,0.2c-0.1,0.2,0.2,0.6-0.2,0.6
		C57,33.9,56.5,33.6,56.5,33.2z"/>
	<path class="st64" d="M57.5,34.9c-0.3,0-0.5-0.1-0.7-0.1c-0.3,0-0.3-0.2-0.3-0.4c0-0.2,0.2-0.3,0.3-0.2c0.2,0,0.5,0.1,0.7,0.1
		c0.2,0.1,0.4,0.2,0.3,0.5C57.9,35,57.6,34.9,57.5,34.9z"/>
	<path class="st65" d="M65.5,34.6c0.2,0,0.3,0.6,0.6,0.1c0.1,0.1,0.3,0.1,0.4,0.2c0.1,0.1,0,0.2-0.1,0.2c-0.2,0.2-0.1,0.5-0.3,0.7
		c0,0-0.1-0.1-0.1-0.1c0-0.1-0.1-0.2-0.2-0.3c0,0.1,0,0.2-0.1,0.2c0,0.1-0.1,0.2-0.2,0.2c-0.1-0.1-0.1-0.2,0-0.2
		c0-0.2,0.1-0.5-0.1-0.7C65.4,34.8,65.5,34.7,65.5,34.6z"/>
	<path class="st66" d="M68.7,35.3c-0.4-0.1-0.8-0.1-1.2-0.2c-0.1,0-0.3,0-0.3-0.2c0-0.2,0.2-0.1,0.3-0.1c0.5,0,1,0.1,1.6,0.1
		c0.1,0.1,0.2,0.1,0.1,0.3C69.1,35.4,68.9,35.3,68.7,35.3z"/>
	<path class="st67" d="M58.4,33.4c0-0.1-0.1-0.1,0-0.2c0.3,0.1,0.7-0.2,1,0.2c0.2,0.1,0.1,0.3,0,0.5c-0.3,0-0.5,0-0.8,0
		C58.3,33.9,58.4,33.6,58.4,33.4z"/>
	<path class="st68" d="M69.1,35.9c-0.7,0-1.4-0.1-2-0.2c0.5-0.2,1,0.1,1.5,0C68.8,35.8,69,35.7,69.1,35.9z"/>
	<path class="st69" d="M73.4,36.7c0-0.3,0.1-0.7,0.5-0.4c0,0.2,0.1,0.4-0.1,0.6C73.6,37,73.5,36.9,73.4,36.7z"/>
	<path class="st70" d="M72.2,36.5c0-0.2,0.1-0.4,0.3-0.4c0.2,0,0.3,0.2,0.4,0.4c-0.1,0.1-0.2,0.2-0.3,0.3c0,0,0,0,0,0l0,0
		C72.3,36.8,72.3,36.6,72.2,36.5z"/>
	<path class="st71" d="M59.7,34.8c0,0,0.1,0.2-0.2,0.2c-0.2,0-0.3-0.1-0.2-0.3c0.1-0.1-0.1-0.4,0.2-0.3
		C59.8,34.4,59.8,34.6,59.7,34.8z"/>
	<path class="st72" d="M70,36.3c0.1-0.2,0.1-0.4,0.3-0.4c0.1,0,0.2,0.2,0.2,0.3c0.1,0.6-0.4,0.1-0.5,0.2C70,36.4,70,36.4,70,36.3z"
		/>
	<path class="st73" d="M59.4,33.9c0-0.2,0-0.3,0-0.5c0.1-0.2,0.2-0.1,0.3-0.1c0.1,0.1,0.1,0.2,0,0.3C59.6,33.8,59.5,33.8,59.4,33.9z
		"/>
	<path class="st74" d="M75.3,37c0-0.1,0-0.3,0.1-0.2c0.3,0.2,0.3,0,0.3-0.2l0,0c0.2,0.1,0,0.3,0,0.4C75.6,37.1,75.4,37,75.3,37z"/>
	<path class="st75" d="M29,30.1c0.2,0.2,0.5,0.1,0.8,0.1c0.3,0,0.3,0.2,0.3,0.5c0,0.3-0.2,0.3-0.4,0.3c-0.3,0-0.5,0-0.8,0
		c-0.5-0.2-0.2-0.6-0.2-0.9C28.8,30.1,28.9,30.1,29,30.1z"/>
	<path class="st64" d="M25.7,31c0.2,0,0.5,0,0.7,0.1c0.3,0,0.3,0.3,0.3,0.5c0,0.2-0.2,0.2-0.3,0.2c-0.2,0-0.4,0-0.6,0
		c-0.3,0-0.6-0.1-0.5-0.6C25.2,30.7,25.5,31,25.7,31z"/>
	<path class="st76" d="M22.4,29.4c0.1,0.1,0.2,0.1,0.4,0.1c0.4,0,0.4,0.3,0.4,0.6c0,0.3-0.2,0.2-0.4,0.2c-0.3,0-0.7,0-1-0.1
		C21.5,29.7,21.8,29.4,22.4,29.4C22.4,29.4,22.4,29.4,22.4,29.4z"/>
	<path class="st64" d="M18.9,31c-0.3,0-0.8,0.2-0.8-0.5c0-0.2,0.1-0.3,0.3-0.3c0.3,0,0.6,0.1,1,0.1c0.2,0,0.2,0.1,0.2,0.3
		c0,0.2,0,0.4-0.3,0.4C19.2,31.1,19.1,31,18.9,31z"/>
	<path class="st61" d="M16.9,30.1c0.3,0,0.5,0,0.8,0.1c0.3,0.1,0.2,0.4,0.2,0.5c0,0.2-0.1,0.2-0.3,0.2c-0.2,0-0.5-0.1-0.7-0.1
		c-0.3,0-0.4-0.1-0.4-0.4C16.5,30.1,16.7,30,16.9,30.1z"/>
	<path class="st77" d="M22.1,30.6c0.2,0.1,0.5,0,0.8,0.1c0.3,0.1,0.4,0.3,0.3,0.5c-0.1,0.3-0.3,0.2-0.5,0.2
		c-0.2-0.1-0.5-0.1-0.7-0.1c-0.4,0-0.3-0.2-0.3-0.5C21.7,30.6,21.8,30.5,22.1,30.6z"/>
	<path class="st78" d="M29.2,31.2c0.1,0,0.2,0,0.3,0c0.2,0.1,0.7,0,0.6,0.5c0,0.1,0,0.1,0,0.2c0,0.1-1.1,0.1-1.2,0
		c-0.2-0.1-0.2-0.4-0.2-0.6C28.7,31.1,29,31.3,29.2,31.2z"/>
	<path class="st79" d="M23.5,29.6C23.6,29.6,23.6,29.6,23.5,29.6c0.4,0.1,0.7,0.2,1,0.2c0.3,0,0.3,0.2,0.3,0.4c0,0.2,0,0.4-0.3,0.3
		c-0.2,0-0.3,0-0.5,0C23.3,30.4,23.2,30.2,23.5,29.6z"/>
	<path class="st80" d="M24.8,31.2c0,0.3-0.1,0.5-0.4,0.4c-0.2-0.1-0.4,0-0.6,0c-0.2,0-0.4-0.1-0.4-0.4c0.1-0.3,0.2-0.4,0.5-0.3
		c0.2,0.1,0.4,0.1,0.6,0.1C24.8,30.8,24.9,31,24.8,31.2z"/>
	<path class="st81" d="M15.7,30.7c-0.2,0-0.4-0.1-0.7-0.1c-0.3,0-0.2-0.3-0.2-0.5c0-0.2,0.1-0.3,0.3-0.3c0.2,0,0.5,0.1,0.7,0
		c0.4-0.1,0.4,0.2,0.4,0.4C16.2,30.7,16,30.8,15.7,30.7z"/>
	<path class="st63" d="M21.4,29.8c0,0.1,0,0.2-0.1,0.3c-0.1,0.1-1.2,0-1.3-0.2c-0.1-0.2-0.1-0.3,0-0.5c0.1-0.2,0.2-0.1,0.4-0.1
		c0.2,0,0.5,0.1,0.7,0.1C21.3,29.4,21.4,29.6,21.4,29.8z"/>
	<path class="st82" d="M27.6,31.1c0.1,0,0.2,0,0.2,0c0.1,0,0.3-0.2,0.4,0c0.1,0.2,0,0.4,0,0.6c0,0,0,0,0,0c-0.4,0.1-0.7-0.1-1.1,0
		c-0.1,0-0.2-0.1-0.3-0.2c-0.1-0.3,0-0.5,0.4-0.5C27.4,31.1,27.5,31.1,27.6,31.1C27.6,31.1,27.6,31.1,27.6,31.1z"/>
	<path class="st83" d="M28.3,30.5c0,0.3-0.1,0.4-0.4,0.3c-0.2,0-0.5-0.1-0.7-0.1c-0.4,0-0.3-0.3-0.4-0.5c0-0.3,0.2-0.3,0.4-0.2
		c0.2,0,0.4,0,0.6,0C28.2,30,28.3,30.2,28.3,30.5z"/>
	<path class="st84" d="M20.5,30.4c0.7,0,0.9,0.1,0.8,0.5c0,0.1,0,0.1-0.1,0.2c-0.1,0.2-1.3,0-1.3-0.2C19.8,30.5,19.9,30.4,20.5,30.4
		z"/>
	<path class="st85" d="M26.4,29.8C26.5,29.8,26.5,29.8,26.4,29.8c0.1,0.3,0.2,0.5-0.3,0.4c-0.2-0.1-0.3,0.1-0.4,0.2
		c0.2,0.1,0.3,0,0.5,0c0.1,0,0.2-0.1,0.2,0.1c0,0.1-0.1,0.2-0.2,0.2c-0.4,0-0.7-0.1-1.1-0.1c-0.2,0-0.1-0.3-0.1-0.4
		c0-0.1,0-0.3,0.3-0.3C25.8,29.9,26.1,29.8,26.4,29.8z"/>
	<path class="st86" d="M89.2,29.8c-0.1,0-0.2,0.1-0.2-0.1c0-0.2,0-0.4,0.1-0.6c0.3-0.5,0.5-0.9,0.8-1.5c0,0.4,0.1,0.7-0.1,0.9
		c-0.1,0.2,0.1,0.2,0.1,0.3c0,0-0.1,0.1-0.1,0.1C89.5,29.1,89.4,29.4,89.2,29.8C89.2,29.7,89.2,29.7,89.2,29.8z"/>
	<path class="st87" d="M89.7,28.8C89.7,28.8,89.7,28.8,89.7,28.8c0.1,0.4,0,0.8-0.2,1.1c-0.2,0.3-0.3,0.7-0.6,1.1c0-0.3,0-0.5,0-0.6
		c0-0.2,0.2-0.3,0.2-0.5c0,0,0,0,0,0C89.3,29.4,89.4,29.1,89.7,28.8z"/>
	<path class="st88" d="M89,31.8c-0.2-0.2,0-0.4,0-0.6c0.2-0.4,0.5-0.8,0.6-1.3c0,0,0.1-0.1,0.1-0.1c0,0.1,0,0.2,0,0.2
		C89.5,30.6,89.2,31.2,89,31.8z"/>
	<path class="st40" d="M90,25.3c-0.1,0.6-0.5,1.2-0.8,1.8c0,0-0.1,0-0.1-0.1C89.4,26.4,89.7,25.8,90,25.3C90,25.3,90,25.3,90,25.3z"
		/>
	<path class="st4" d="M60,32c1.6,0.2,3.3,0.3,4.9,0.5c1.6,0.1,3.1,0.4,4.7,0.4c1.3,0.1,2.6,0.3,3.9,0.5c0.6,0.1,1.1,0,1.7,0.1
		c1,0.1,2.1,0.2,3.1,0.3c0.9,0.1,1.9,0,2.7,0.3c0.7,0.2,1.4,0,2.1,0.2c0.1,0,0.2-0.1,0.3-0.1c-0.1,0.2,0.3,0.2,0.2,0.3
		c-0.1,0.1-0.3,0.3-0.6,0.2c-0.2-0.1-0.3-0.1-0.4,0.1c-0.1,0.2-0.3,0.1-0.5,0c-0.1-0.1-0.3-0.2-0.4-0.2c-0.1,0.1,0.1,0.2,0,0.3
		c-1.5,0.1-2.9-0.3-4.4-0.3c-0.7,0-1.4-0.1-2.1-0.2c-0.9-0.1-1.7-0.2-2.6-0.3c-0.4-0.1-0.9-0.2-1.4-0.1c-0.3,0.1-0.7-0.1-1-0.2
		c-0.6-0.1-1.3,0-1.9-0.2c-0.6-0.2-1.1-0.1-1.7-0.3c-0.5-0.2-1-0.1-1.5-0.1c-0.9-0.1-1.7-0.1-2.6-0.2c-0.1,0-0.3-0.1-0.3-0.2
		c-0.2-0.6-0.6-0.4-0.9-0.3c-0.4,0.1-0.6-0.2-1-0.1c-0.1-0.1-0.3-0.2-0.4-0.2C59.7,32.2,59.8,32.1,60,32z"/>
	<path class="st89" d="M57.6,32.3c0.2,0,0.4-0.1,0.5,0c0,0,0,0.1,0,0.1C57.9,32.5,57.8,32.5,57.6,32.3z"/>
	<path class="st90" d="M33.9,10.3c0.1-0.5,0.4-0.7,0.9-0.8c0.5-0.1,1,0,1.5,0l0,0c0,0,0.1,0.1,0.1,0.1c0.2,0.1,0.5,0.1,0.5,0.5
		c-1,0.6-2,0.4-3.1,0.3C33.8,10.3,33.8,10.3,33.9,10.3z"/>
	<path class="st91" d="M36.3,9.5c-0.2-0.2-0.4,0-0.6-0.2c0.9-0.2,1.8,0,2,0.5C37.2,9.6,36.7,9.4,36.3,9.5
		C36.3,9.5,36.3,9.5,36.3,9.5z"/>
	<path class="st92" d="M36.8,10.1c-0.1-0.2-0.3-0.4-0.5-0.5c0.4,0,0.7,0.2,1.1,0.6C37.2,10,37,10.3,36.8,10.1z"/>
	<path class="st93" d="M33.9,10.3c0,0-0.1,0.1-0.1,0.1c-0.1,0-0.3,0-0.3-0.2c0-0.1,0-0.2,0.1-0.2C33.7,10,33.7,10.3,33.9,10.3z"/>
	<path class="st94" d="M36.7,36.5c0.9,0.2,1.8,0.4,2.7,0.4c0.4,0,0.5,0.6,0.6,0.4c0.3-0.4,0.5-0.2,0.7-0.1c0.4,0.1,0.9,0.3,1.3,0.4
		c0.4,0.1,0.4,0.1,0.4,0.6c-1.6-0.2-3.2-0.4-4.8-0.5c-1.2-0.1-2.4-0.2-3.6-0.3c-1.7-0.2-3.4-0.3-5.1-0.5c-0.3,0-0.3-0.2-0.3-0.4
		c0-0.1,0.1-0.2,0.2-0.2c0.5,0,1-0.2,1.6-0.1c0.2,0,0.3,0,0.5,0c0.3,0.1,0.6-0.1,1,0c1,0,1.9,0.1,2.9,0.2c0.4,0.1,0.8-0.1,1.3,0
		C36.3,36.4,36.5,36.4,36.7,36.5z"/>
	<path class="st95" d="M36.7,36.5c-0.4,0-0.7,0.1-1.1-0.1c0,0-0.1,0-0.1,0c-0.4,0.5-0.8-0.1-1.2,0c-0.5,0-1,0-1.5-0.1
		c-0.5,0-1,0-1.5,0c-0.1,0-0.1-0.1-0.2-0.1c0.2,0,0.4,0,0.6-0.1c-0.1-0.2-0.4,0-0.5-0.2c0.3-0.2,0.3-0.2,0-0.6
		c0.2-0.2,0.4-0.2,0.6-0.1c0.5,0.2,1.1,0.1,1.7,0.1c0.2,0,0.3,0,0.5,0c0.5,0.1,1,0,1.5,0c0.2,0,0.2-0.1,0.3-0.3
		c0.1-0.3,0.4-0.4,0.5-0.1c0.2,0.5,0.5,0.4,0.9,0.5c0.1,0,0.3,0,0.4,0.1c0.1,0.1,0.2,0.3,0.1,0.4c-0.1,0-0.3,0-0.4,0
		C36.5,35.9,36.5,36,36.7,36.5z"/>
	<path class="st96" d="M33.4,35.4c-0.8,0.1-1.5-0.1-2.3-0.1c0,0-0.1,0-0.1,0c-0.3-0.1-0.5-0.1-0.6-0.4c-0.2,0.1,0,0.3-0.2,0.4
		c-0.3,0-0.7-0.1-1-0.1c-0.2,0-0.5,0-0.4-0.4c0-0.1,0-0.2-0.2-0.2c-0.1,0-0.1,0.1-0.1,0.2c0,0.6-0.4,0.1-0.6,0.2
		c-0.4-0.1-0.7-0.2-1.1-0.2c0,0,0.1-0.1,0.1-0.1c-0.1,0-0.1,0.1-0.1,0.1c-0.3,0-0.5-0.1-0.8-0.1c-0.2,0-0.4-0.1-0.5,0.1
		c0,0.1-0.1,0.1-0.2,0.1c-0.2-0.2-0.3-0.9-0.2-1.1c0.1-0.1,0.2,0,0.3,0c0.4,0.1,0.8,0.1,1.2,0.2c0.7,0.2,1.3,0,2,0.1
		c0.2,0,0.4,0,0.6,0.1c0.7,0.2,1.4,0.2,2.1,0.2c1.3,0,2.6,0.2,3.8,0.2c0.1,0,0.2,0,0.3,0.1c0.2,0.4-0.1,0.3-0.3,0.3
		c-0.3,0-0.6,0-0.8,0.1c-0.2,0-0.3-0.1-0.5-0.1c-0.5-0.1-0.9-0.1-1.4-0.1c-0.1,0-0.3,0-0.3,0.1c0,0.2,0.2,0.1,0.3,0.2
		C32.8,35.3,33.2,35,33.4,35.4z"/>
	<path class="st97" d="M38.4,35.3c0-0.3,0-0.6,0-1c0.5-0.1,0.9,0.2,1.4,0.1c0.3,0,0.6,0,0.9,0.1c0,0.7,0,1.3,0,2
		c0,0.3-0.1,0.5-0.5,0.4c-0.5-0.1-0.9-0.2-1.4-0.3c-0.3,0-0.4-0.1-0.4-0.4C38.4,35.9,38.5,35.6,38.4,35.3z"/>
	<path class="st95" d="M35.5,34.8c-0.5-0.2-1-0.1-1.5-0.2c-1,0-2-0.1-3-0.1c-0.6,0-1.2,0.1-1.8-0.2c0.5-0.2,1.1-0.1,1.6-0.4
		c0.1,0,0-0.1,0,0c0,0,0,0,0,0c-0.1,0-0.3,0-0.3-0.1c0.3,0,0.6-0.1,0.9-0.1c0.4,0,0.8,0.2,1.3,0.1c0.5-0.1,1.1,0.1,1.6,0.1
		c1,0.1,2.1,0.1,3.1,0.2c0.1,0,0.3,0,0.4,0.1c-0.1,0-0.2,0-0.4,0.1c0.2,0.1,0.4,0.1,0.4,0.3c0.1,0.3-0.3,0.2-0.3,0.4
		c-0.2,0.1-0.5,0-0.7,0C36.3,35,35.9,34.8,35.5,34.8z"/>
	<path class="st98" d="M40.6,34.6c-0.3-0.1-0.6,0-0.9-0.1c0.3-0.2,0.5-0.1,0.8,0c0.5,0.1,0.9,0.1,1.4,0.1c0.3,0,0.5,0.1,0.5,0.4
		c-0.2-0.1-0.4-0.1-0.6-0.2c0,0.5,0.7,0.4,0.6,0.9c0,0-0.1,0-0.1,0c-0.2,0-0.4-0.2-0.5-0.1C41.7,36,42,36,42.2,36.1
		c0.3,0.1,0.2,0.3,0.3,0.6c-0.4-0.3-0.9-0.1-1.3-0.4c-0.1-0.1-0.2,0-0.2,0c-0.1,0.1,0,0.2,0.1,0.2c0.4,0.1,0.8,0.3,1.2,0.4
		c0.2,0.1,0.4,0.2,0.2,0.4c-0.1,0.1-0.3,0.1-0.4,0c-0.1-0.1-0.2-0.1-0.4-0.2c-0.9-0.3-0.9-0.3-0.9-1.3C40.7,35.4,40.8,35,40.6,34.6z
		"/>
	<path class="st99" d="M35.5,34.8c0.7-0.1,1.3,0.1,2,0.2c0,0,0.1,0.1,0.1,0.1c0,0.2,0.1,0.4-0.2,0.5c-0.3,0-0.6-0.1-0.9-0.1
		c-0.3,0-0.4-0.1-0.4-0.4c0-0.1,0-0.2-0.2-0.2c-0.2,0-0.2,0.1-0.2,0.3c0.1,0.3-0.1,0.3-0.3,0.3c-0.4,0-0.8-0.1-1.2,0
		c-0.1,0-0.2,0-0.3-0.1c0,0,0,0,0-0.1c0.1-0.1,0.2-0.2,0.4-0.3c0.1-0.3,0.3-0.2,0.5-0.2C35,34.8,35.2,34.9,35.5,34.8z"/>
	<path class="st95" d="M30.5,36.2c-0.6,0.1-1.2,0.2-1.8,0.3c0-0.2,0-0.5,0.3-0.5C29.5,36.1,30,36,30.5,36.2z"/>
	<path class="st95" d="M30.2,35.2c0.1-0.1,0-0.2,0-0.2c0-0.1-0.1-0.3,0.2-0.4c0.2,0,0.2,0.1,0.2,0.3c-0.1,0.3,0.3,0.2,0.4,0.4
		C30.7,35.2,30.4,35.6,30.2,35.2z"/>
	<path class="st100" d="M37.3,35.6c0.2-0.1,0.1-0.3,0.2-0.5c0.4,0.2,0.1,0.5,0.2,0.8c0,0.2-0.2,0.2-0.3,0.1
		C37.4,35.9,37.4,35.7,37.3,35.6z"/>
	<path class="st95" d="M38.1,34.4c0.2,0.5,0,1.1,0.1,1.6c0,0.2,0,0.4,0,0.6c-0.3-0.3-0.1-0.7-0.2-1.1C38.1,35.2,38,34.8,38.1,34.4z"
		/>
	<path class="st101" d="M56.7,38.6c0.7,0.2,1.4,0.3,2.2,0.5c0.3,0.1,0.5,0.5,0.9,0.1c0.7,0.2,1.4,0.5,2.1,0.7c0.1,0,0.1,0.1,0.1,0.2
		c0,0.2-0.1,0.2-0.3,0.2c-0.4,0-0.9-0.1-1.3-0.1c-2.2-0.3-4.3-0.5-6.5-0.7c-1.9-0.2-3.8-0.4-5.6-0.6c-0.3,0-0.3-0.2-0.3-0.4
		c0-0.2,0.2-0.3-0.1-0.6c0.6,0.1,1,0.2,1.5,0.1c0.4,0.1,0.8,0,1.2,0c0.9,0,1.7,0.1,2.6,0.1c0.4,0,0.8,0,1.1,0.2c0.1,0.1,0.3,0,0.4,0
		C55.4,38.3,56.1,38.3,56.7,38.6z"/>
	<path class="st102" d="M47.1,36.9c-0.2-0.2-0.7,0.1-0.8-0.4c-0.5,0.4-1.1-0.3-1.6,0.1c-0.2,0.2-0.3,0.1-0.3-0.2c0,0,0-0.1,0-0.1
		c-0.1-0.8-0.1-0.8,0.7-0.7c0.4,0.1,0.8,0.2,1.3,0.2c0.9,0,1.8,0.2,2.7,0.3c0.4,0.1,0.8,0.1,1.3,0.1c1.2,0,2.4,0.1,3.6,0.2
		c0.2,0,0.4,0,0.5,0.2c0,0.2-0.2,0.2-0.3,0.2c-0.1,0-0.3,0-0.3,0.2c0,0.2,0.2,0.1,0.3,0.1c0.2,0,0.4,0,0.5,0.1
		c0.1,0,0.1,0.1,0.1,0.2c-0.6,0.1-1.3,0.4-1.9,0.1c-0.3-0.1-0.7,0-1-0.1c-0.2,0-0.5,0.1-0.4-0.3c0,0,0,0,0,0
		c-0.1,0.4-0.4,0.2-0.6,0.2c-0.3,0-0.5-0.1-0.8-0.2c-0.1,0-0.3,0-0.2-0.2c0-0.1,0.1-0.4-0.2-0.4c-0.2,0-0.2,0.2-0.1,0.4
		c0,0,0,0.1,0.1,0.1C48.7,37.1,47.9,36.9,47.1,36.9z"/>
	<path class="st103" d="M50,37.2c0.3-0.1,0.6,0.1,0.9,0.1c0.2,0,0.4,0,0.4-0.3c0-0.1,0-0.2,0.1-0.2c0.1,0,0.2,0.1,0.2,0.2
		c0,0.1-0.1,0.2-0.1,0.4c0.6,0,1.3-0.1,1.8,0.3c0.2,0.1,0.3-0.2,0.6-0.2c0.3,0,0.6,0,0.8,0c0.2-0.2,0.4,0.1,0.6-0.1c0,0,0.1,0,0.1,0
		c0.4,0.1,0.8,0,1.2,0.1c0.1,0.1,0.2,0.2,0.1,0.3c-0.2,0.3-0.5,0-0.8,0.2c0.3,0.1,0.7,0.1,0.7,0.5c-0.6,0-1.1-0.2-1.7-0.1
		c-0.2,0-0.4-0.1-0.6,0.1c-0.1,0.1-0.2,0.1-0.3,0c-0.3-0.4-0.7-0.2-1-0.3c-1.2-0.1-2.4-0.1-3.6-0.2c-0.1,0-0.1-0.1-0.2-0.1
		c0.5,0.1,0.8-0.5,1.3-0.4C50.4,37.5,50.2,37.4,50,37.2z"/>
	<path class="st104" d="M57.8,37.4c0-0.3,0-0.5,0-0.8c0-0.2,0.1-0.3,0.3-0.2c0.5,0.1,1.1,0.2,1.6,0.2c0.3,0,0.6-0.2,0.5,0.3
		c0,0.6,0,1.2,0,1.9c0,0.3-0.1,0.4-0.3,0.3c-0.6-0.1-1.2-0.2-1.8-0.3c-0.2,0-0.1-0.2-0.2-0.3C57.8,38,57.9,37.7,57.8,37.4z"/>
	<path class="st103" d="M54.4,36.8c-0.6-0.1-1.2-0.2-1.8-0.2c-0.9,0-1.9-0.1-2.8-0.2c-0.3,0-0.6,0.1-0.8-0.1
		c0.5-0.3,1.1-0.2,1.7-0.3c0.1,0,0.2,0,0.2-0.1c0.1-0.1,0.2-0.1,0.4-0.1c1.6,0.3,3.2,0.3,4.8,0.4c0.3,0,0.5,0.1,0.8,0.1
		c0.8,0,0.9,0.1,0.8,0.9c0,0.2,0,0.3,0,0.5c-0.2,0-0.2,0.2-0.4,0.2c0-0.1,0-0.2,0-0.3c-0.1-0.1-0.2-0.4-0.4-0.4
		c-0.6-0.3-1.2-0.4-1.9-0.3C54.8,36.9,54.6,37,54.4,36.8z"/>
	<path class="st105" d="M60.2,36.8c0-0.4-0.3-0.3-0.5-0.3c0.5-0.3,1,0.1,1.4,0c0.2,0,0.4,0.1,0.6,0.1c0.2,0,0.3,0,0.3,0.2
		c0,0.2-0.2,0.1-0.3,0.1c-0.2,0-0.3-0.1-0.6-0.1c0.4,0.5,0.8,0.8,1.2,1.1c-0.2,0.1-0.4,0-0.7-0.1c-0.1,0-0.3-0.1-0.3,0
		c-0.1,0.2,0.1,0.3,0.2,0.3c0,0,0.1,0,0.1,0.1c0.1,0.1,0.2,0.1,0.2,0.3c-0.1,0.2-0.2,0.1-0.3,0.1c-0.4-0.1-0.8-0.3-1.3-0.2
		c0.4,0.3,0.8,0.4,1.1,0.5c0.3,0.1,0.6,0.2,0.7,0.7c-0.6-0.1-1-0.4-1.6-0.5c-0.2-0.1-0.2-0.3-0.2-0.5C60.2,37.9,60.4,37.4,60.2,36.8
		z"/>
	<path class="st106" d="M56.9,37.2c0.3-0.1,0.3-0.1,0.3,0.4c-0.1,0.1-0.1,0.2-0.1,0.3c0,0.1,0,0.2-0.1,0.2c-0.1,0-0.1-0.1-0.2-0.2
		c0-0.1,0-0.2-0.1-0.3C56.8,37.5,56.8,37.3,56.9,37.2z"/>
	<path class="st107" d="M23.2,36.2c-1.8-0.2-3.7-0.4-5.5-0.6c-1.5-0.2-3.1-0.3-4.6-0.4c-0.8-0.1-1.6-0.1-2.5-0.2
		c-0.7-0.1-0.7-0.1-0.6-0.8c0,0,0.1-0.1,0.1-0.1c0.1-0.1,0.2-0.1,0.3-0.1c0.8,0.1,1.6,0.1,2.3,0.3c0.1,0.1,0.3,0.1,0.4,0.1
		c0.8,0,1.7-0.1,2.5,0.1c0.8,0.2,1.5-0.1,2.3,0.1c0.9,0.1,1.8,0.3,2.7,0.4c0.3,0.1,0.1,0.5,0.4,0.5c0.2,0,0.1-0.5,0.4-0.3
		c0.7,0,1.3,0.2,1.9,0.6C23.3,36,23.5,36.1,23.2,36.2z"/>
	<path class="st108" d="M7.6,32c1,0.1,2.1,0.3,3.1,0.4c0.5,0.2,1,0.1,1.4,0.2c0.9,0.1,1.7,0.2,2.6,0.2c0.7,0,1.5,0.1,2.2,0.1
		c0.4,0,0.9,0,1.3,0.1c0.4,0.1,0.3,0.4,0.3,0.7l0,0l0,0c-0.3,0.1-0.7-0.1-1,0c-0.2,0-0.2-0.2-0.2-0.3c0-0.1,0-0.2-0.2-0.2
		c-0.2,0-0.2,0.1-0.2,0.2c0,0.3-0.2,0.3-0.4,0.3c-0.8,0-1.7,0-2.5-0.1c-0.3,0-0.5-0.1-0.4-0.4c0-0.1,0-0.2-0.1-0.2
		c-0.1,0-0.2,0.1-0.2,0.2c0,0.4-0.2,0.4-0.5,0.3c-0.2-0.1-0.5,0-0.7,0c-0.1,0-0.2,0-0.2,0c-0.1-0.2-0.2-0.2-0.3,0
		c-0.1,0.2-0.3,0.1-0.5,0.1c-0.2,0-0.4,0-0.6,0c-0.2,0-0.4-0.1-0.5-0.4c-0.1,0.3-0.4,0.2-0.6,0.2c-0.3,0-0.6,0-0.9-0.2
		c-0.1-0.3-0.2-0.2-0.4-0.1c-0.5,0-1,0-1.4,0c-0.2-1-0.2-1,0.9-0.9C7.5,32.1,7.5,32,7.6,32z"/>
	<path class="st109" d="M6.6,32.9c0.5-0.3,1-0.2,1.5-0.1c0.1,0,0.2-0.1,0.3,0c0.3,0,0.7,0.1,1,0.1c0.2,0,0.4,0.1,0.4-0.3
		c0-0.1,0-0.2,0.1-0.2c0.1,0,0.2,0.1,0.1,0.2c-0.1,0.3,0.1,0.4,0.3,0.4c0,0.3,0.2,0.2,0.4,0.2c0.1,0,0.3,0,0.3,0.2
		c0,0.1-0.2,0.1-0.3,0.2c-0.5,0-1-0.1-1.4,0.1c-0.9,0-1.8-0.3-2.7-0.4c-0.1,0-0.3-0.1-0.3-0.2C6.2,33.1,6.5,33.1,6.6,32.9z"/>
	<path class="st110" d="M9.2,33.9c0.1-0.1,0.5,0.1,0.3-0.3c0.4,0.1,0.9,0.1,1.3,0c-0.2,0-0.3-0.1-0.5-0.1c-0.4,0-0.1-0.2-0.1-0.3
		c0.2,0,0.4,0,0.6,0c0.3,0.1,0.6,0.1,0.5-0.3c0-0.1,0-0.2,0.1-0.2c0.1,0,0.1,0.1,0.1,0.2c0,0.2-0.1,0.4,0.2,0.4
		c0.3,0.2,0.6,0.3,0.9,0.5c-0.2,0.1-0.4,0.2-0.1,0.5c-0.9,0-1.7-0.1-2.6-0.2C9.9,33.9,9.5,34.2,9.2,33.9z"/>
	<path class="st111" d="M65.5,34.6c0.1,0.1,0,0.2-0.1,0.3c-0.6-0.1-1.1-0.1-1.7-0.2c-0.1,0-0.2,0-0.2-0.2c0-0.2,0.2-0.1,0.3-0.1
		C64.4,34.5,64.9,34.5,65.5,34.6z"/>
	<path class="st13" d="M72.2,36.5c0.2,0,0.2,0.2,0.3,0.3c-0.5,0.3-0.8,0-1.2-0.2c0.1-0.2,0.3-0.1,0.4-0.1
		C71.9,36.5,72.1,36.5,72.2,36.5z"/>
	<path class="st112" d="M65.5,35.5c-0.8,0.1-1.4-0.2-2.1-0.2C63.8,35.2,64.9,35.3,65.5,35.5z"/>
	<path class="st113" d="M71.7,36.5c-0.1,0.2-0.3,0.1-0.4,0.1c-0.1,0-0.3,0-0.2-0.2c0.1-0.1,0.1-0.3,0.3-0.4c0.1-0.1,0.2,0.1,0.2,0.2
		C71.7,36.3,71.7,36.4,71.7,36.5z"/>
	<path class="st74" d="M75.8,36.6c-0.2,0-0.3-0.1-0.5-0.1c0.2-0.1,0.5-0.3,0.7-0.4C76.1,36.4,75.8,36.4,75.8,36.6
		C75.8,36.6,75.8,36.6,75.8,36.6z"/>
	<path class="st114" d="M81.8,41.9c0.1,0.1,0.1,0.3,0.2,0.5c-0.9-0.1-1.8-0.2-2.7-0.3c-1.4-0.1-2.7-0.3-4.1-0.5
		c-1.2-0.1-2.4-0.2-3.5-0.4c-1.2-0.1-2.4-0.2-3.6-0.3c-0.2,0-0.6,0.1-0.5-0.3c0-0.2,0-0.7,0.6-0.6c1.3,0.2,2.7,0.3,4,0.3
		c0.1,0.1,0.3,0,0.4,0c0.2,0,0.4-0.1,0.6,0c0.7,0.2,1.4-0.1,2.1,0.1c1.1,0,2.2,0.3,3.3,0.5c0.2,0,0.3,0.1,0.4,0.2
		c0.1,0.1,0.2,0.1,0.3,0c0.3-0.1,0.6,0,0.9,0.1C80.7,41.4,81.4,41.4,81.8,41.9z"/>
	<path class="st115" d="M75.4,40.6c-0.3,0-0.6,0-0.9-0.1c-0.1,0-0.2,0-0.2,0c-0.7,0.3-1.3-0.2-2-0.1c0,0,0,0-0.1-0.1
		c0,0,0.1,0,0.1,0c0.1-0.1,0-0.1-0.1-0.1c-0.5-0.2-1.1-0.3-1.6-0.5c-0.3-0.1-0.6,0-0.7-0.4c-0.1-0.2-0.2-0.1-0.4,0
		c-0.1,0,0,0.3-0.2,0.2c-0.1-0.1-0.1-0.2-0.1-0.4c0,0,0-0.1,0-0.1c0.1,0,0.3,0,0.4,0c0.3,0,0.6,0.1,0.8,0.1c0.3,0,0.5-0.1,0.5-0.4
		c-0.9,0-1.7-0.3-2.6-0.2c-0.2,0-0.4,0-0.6-0.2c-0.1-0.1-0.3-0.1-0.2-0.3c0.1-0.1,0.2-0.1,0.2-0.1c0.7,0.2,1.3-0.2,2-0.2
		c1.7,0,3.5,0.1,5.2,0.3c0.7,0,1.3,0.1,2,0.1c0.2,0,0.4-0.1,0.5,0.1c-0.2,0.3-0.3,0.7-0.8,0.8c-0.4-0.2-0.9-0.1-1.4-0.2
		c0,0.4,0.2,0.5,0.5,0.5c0.3,0,0.5,0,0.7,0.2c0.1,0.1,0.1,0.2,0.1,0.3c-0.1,0.3-0.3,0.4-0.6,0.4C75.9,40.3,75.6,40.4,75.4,40.6z"/>
	<path class="st116" d="M67.6,38.2c0.1,0.1,0.1,0.1,0.2,0.2c0,0,0,0.1,0,0.1c0,0,0,0,0,0c-0.1-0.1-0.3-0.1-0.3,0.1
		c0,0.6-0.4,0.4-0.7,0.3c0,0-0.1,0-0.1,0c-0.7,0.1-1.4,0-2.1-0.3c-0.7,0.3-0.7,0.3-0.7-0.5c0-0.4,0.1-0.5,0.5-0.4
		c0.4,0.1,0.8,0.1,1.1,0.2c0.6-0.1,1.1,0.1,1.7,0.2C67.4,38.1,67.5,38.1,67.6,38.2z"/>
	<path class="st117" d="M67.8,38.5c0,0,0-0.1,0-0.1c0.7,0.2,1.5,0,2.3,0.3c0.4,0.1,0.8,0,1.3,0c0,0.1-0.1,0.1-0.1,0.1
		c-0.3,0.8-0.9,0.5-1.4,0.4c-0.1,0-0.2,0-0.2,0c-0.1-0.1-0.2-0.4-0.4-0.1c0,0,0,0.1,0,0.1c-0.3,0-0.6-0.1-0.9-0.1
		C67.8,39.1,67.7,38.9,67.8,38.5z"/>
	<path class="st118" d="M64.6,39.5c0-0.4,0.3-0.4,0.5-0.3c0.4,0.1,1.2,0.2,1.6,0.1c0.5,0,0.9,0.2,1.4,0.2c-0.3,0-0.2,0.4-0.5,0.5
		c-0.1-0.2,0.1-0.2,0.1-0.4c-0.5,0.2-0.9,0.4-1.4,0.2C65.8,39.6,65.2,39.7,64.6,39.5z"/>
	<path class="st119" d="M81.8,41.9c-0.8-0.3-1.6-0.6-2.5-0.7c-0.1-0.1,0-0.2,0.1-0.3c0.3,0,0.6-0.1,0.6-0.5c0-0.1,0.1-0.1,0.1-0.1
		c0,0.2,0,0.4,0,0.6c0.6,0.2,1.2,0.2,1.7,0.6c0,0,0.1,0.1,0.1,0.1C81.9,41.7,81.9,41.8,81.8,41.9z"/>
	<path class="st118" d="M64.5,38.6c0.7,0.1,1.4,0.2,2.1,0.3c0,0.1,0.2,0.3-0.2,0.2c-0.1,0,0,0.1,0,0.2c-0.5-0.1-1-0.2-1.5-0.3
		C64.7,39,64.6,38.8,64.5,38.6z"/>
	<path class="st120" d="M21.5,35c-0.7-0.2-1.4-0.2-2.1-0.5c-0.1-0.6-0.1-1.1,0-1.7c0-0.5,0.1-0.6,0.6-0.5c0.4,0.1,0.8,0.1,1.2,0.2
		c0.2-0.1,0.4,0,0.5,0.2c0.1,0.7,0.1,1.4,0,2.1C21.6,34.9,21.6,35,21.5,35z"/>
	<path class="st121" d="M21.5,32.7c-0.1-0.1-0.2-0.1-0.4-0.1c0.1,0,0.1-0.1,0.2-0.1c0.5,0.1,1.1,0.1,1.6,0.2c0.2,0,0.4,0,0.3,0.3
		c-0.1,0.2-0.3,0-0.4,0c-0.1,0-0.1,0-0.2,0c0,0.5,0.7,0.4,0.6,0.9c-0.1,0.1-0.2,0-0.3,0c-0.1,0-0.2,0-0.2,0.1c0,0.1,0,0.2,0.1,0.2
		c0.1,0,0.2,0.1,0.3,0.1c0.1,0.1,0.2,0.3,0.1,0.3c-0.1,0.1-0.2-0.1-0.3,0c-0.4,0-0.7,0-1-0.1c-0.3-0.1-0.4-0.3-0.4-0.6
		C21.6,33.4,21.7,33,21.5,32.7z"/>
	<path class="st122" d="M21.5,35c0-0.1,0.1-0.1,0.1-0.2c0,0,0.1,0,0.1,0c0.6,0.2,1.2,0.2,1.6,0.6c0,0.1,0.1,0.3,0,0.4
		c-0.6-0.2-1.2-0.5-1.9-0.6C21.5,35.1,21.5,35.1,21.5,35z"/>
	<path class="st123" d="M18.4,33.6C18.4,33.6,18.5,33.6,18.4,33.6c0.3-0.1,0.1-0.4,0.3-0.5c0,0.2,0.1,0.4,0,0.5
		c0,0.2,0.1,0.4-0.2,0.4C18.4,34.1,18.4,33.9,18.4,33.6z"/>
	<path class="st3" d="M19.4,32.8c0,0.6,0,1.1,0,1.7c-0.1,0.1-0.1-0.1-0.1-0.1c0-0.4,0-0.9-0.1-1.3C19.2,33,19.2,32.9,19.4,32.8z"/>
	<path class="st124" d="M80.2,40.3C80.2,40.3,80.2,40.4,80.2,40.3c0,0.7-0.2,0.8-0.8,0.7c-0.6,0.1-1.1-0.1-1.7-0.3
		c0-0.6,0-1.2,0-1.8c0.1-0.7,0.1-0.7,0.9-0.5c0.5,0.1,1,0.2,1.5,0.2c0,0,0.1,0,0,0.1C80.2,39.2,80.2,39.8,80.2,40.3z"/>
	<path class="st125" d="M80.3,38.7C80.2,38.7,80.2,38.6,80.3,38.7c0.2-0.3,0.5-0.2,0.7-0.2c0.1,0,0.3,0.1,0.4,0.1
		c0.3,0,0.7-0.1,0.9,0.4c0,0,0.1,0,0.2,0.1c-0.5,0.1-0.8-0.3-1.3-0.2c0.3,0.1,0.4,0.5,0.7,0.5c0.2,0,0.3,0.1,0.2,0.3
		c-0.1,0.3-0.2,0-0.4,0c-0.1,0-0.2,0-0.2-0.1c-0.1,0.3,0.1,0.4,0.3,0.5c0.2,0.1,0.3,0.1,0.3,0.3c-0.1,0.3-0.2,0.1-0.4,0
		c-0.4-0.1-0.9-0.1-1.2-0.4c-0.3-0.3-0.1-0.8-0.1-1.2C80.3,38.9,80.4,38.8,80.3,38.7z"/>
	<path class="st126" d="M81.9,41.5c-0.6-0.2-1.2-0.2-1.7-0.6c0.1-0.2,0.2-0.4,0.5-0.2c0.3,0.2,0.7,0.2,1.1,0.4
		C82,41.1,82.1,41.3,81.9,41.5z"/>
	<path class="st127" d="M23.3,35.4c-0.6-0.2-1.1-0.4-1.7-0.6c-0.1-0.3,0-0.5,0.4-0.4c0.2,0,0.5,0.1,0.6,0.3
		C23.3,35,23.3,35,23.3,35.4z"/>
	<path class="st27" d="M22.7,34.7c-0.2-0.1-0.4-0.1-0.6-0.2c-0.3-0.1-0.4,0-0.4,0.3c0,0,0,0-0.1,0c0-0.7,0-1.4-0.1-2.2
		c0.2,0.2,0.1,0.5,0.1,0.7c0,0.9,0.1,1,1,1.1c0.1,0,0.3,0,0.4,0.1C22.9,34.5,22.8,34.6,22.7,34.7z"/>
	<path class="st128" d="M50.8,35.9c-0.2,0.3-0.6,0.2-0.8,0.3c-0.3,0.1-0.7,0.1-1,0.1c-0.9-0.1-1.8-0.1-2.7-0.4
		c0.5-0.4,1.1-0.2,1.7-0.1c0.2,0,0.5,0.1,0.7-0.1C49.4,35.8,50.1,35.9,50.8,35.9z"/>
	<path class="st129" d="M30.4,33.8c0.1,0,0.3,0.1,0.4,0.1c-0.5,0.4-1.1,0.4-1.7,0.4c-0.5-0.1-1-0.1-1.5-0.2c-0.3,0-0.7-0.1-1-0.2
		c0.6,0,1.2-0.4,1.8-0.1c0.3,0.1,0.6,0.1,0.8,0C29.7,33.7,30,33.9,30.4,33.8z"/>
	<path class="st130" d="M25.3,34.8c0.1,0,0.1-0.1,0.2-0.1c0.5,0.4,1.2,0.4,1.9,0.6c-0.8,0-1.4-0.2-2-0.3
		C25.2,35,25.3,34.9,25.3,34.8z"/>
	<path class="st131" d="M77.8,40.7c0.6,0,1.1,0.2,1.7,0.3c0,0.1-0.1,0.1-0.1,0.2c0,0.1,0.1,0.4-0.2,0.4c-0.2,0-0.2-0.1-0.2-0.3
		c0-0.2-0.2-0.2-0.4-0.2c-1.1-0.2-2.1-0.4-3.2-0.5c0.1-0.4,0.5-0.4,0.7-0.4c0.4,0.1,0.5-0.1,0.7-0.3c0.4-0.2,0.4-0.3,0.2-0.7
		c0,0,0,0,0-0.1c0,0,0,0,0,0c0.2-0.2,0.5-0.3,0.5-0.7c0,0,0.1,0,0.2,0c0.2,0.4,0.1,0.9,0,1.3C77.6,40,77.3,40.4,77.8,40.7z"/>
	<path class="st132" d="M67.6,38.2c-0.7,0-1.4-0.1-2.1-0.3c0.4-0.3,0.8-0.4,1.3-0.2c0.1,0,0.4,0.1,0.5-0.1c0.7,0.1,1.3,0.1,2,0.2
		c0.2,0,0.4,0.1,0.6,0.1C69.2,38.1,68.4,38.4,67.6,38.2z"/>
	<path class="st133" d="M1.2,32c0,0.1,0.1,0.1,0.1,0.1c-0.1,0.2,0.1,0.4-0.1,0.6c-0.1,0-0.1,0-0.1-0.1C0.9,32.4,1,32.2,1.2,32z"/>
	<path class="st15" d="M86.6,31.6c-0.1,0-0.2,0.3-0.4,0c0,0,0-0.1,0-0.1C86.3,31.4,86.5,31.5,86.6,31.6
		C86.6,31.6,86.6,31.6,86.6,31.6z"/>
	<path class="st15" d="M89.7,28.8c-0.1,0.4-0.3,0.7-0.5,1C89.2,29.4,89.3,29,89.7,28.8z"/>
	<path class="st134" d="M32.4,34.8c0.5-0.2,1,0,1.5,0c0.1,0.2,0.1,0.4,0,0.6c0,0,0,0,0,0c-0.2,0-0.3,0-0.5,0c-0.3-0.3-0.7,0.1-1-0.2
		C32.3,35.1,32.3,34.9,32.4,34.8z"/>
	<path class="st95" d="M32.4,34.8c0,0.1,0,0.3,0,0.4c-0.1,0-0.2,0.2-0.3,0c-0.1-0.1-0.1-0.3,0-0.4C32.1,34.7,32.3,34.7,32.4,34.8z"
		/>
	<path class="st95" d="M33.9,35.4c0-0.2,0-0.4,0-0.6c0.2,0,0.3,0.1,0.4,0.2C34.2,35.3,34.2,35.5,33.9,35.4z"/>
	<path class="st135" d="M26.8,34.7c0,0,0-0.1,0-0.1c0-0.1-0.1-0.3,0.1-0.3c0.1,0,0.1,0.1,0.1,0.2C27.1,34.7,27.1,34.8,26.8,34.7
		C26.8,34.7,26.8,34.7,26.8,34.7z"/>
	<path class="st84" d="M56.9,37.2c0,0.2,0,0.3-0.2,0.4c-0.4,0-0.9,0-1.3-0.1c-0.1,0-0.1-0.1-0.1-0.2c0,0.1,0.1,0.1,0.1,0.1
		c-0.2,0.4-0.4,0-0.6,0c-0.2-0.2-0.5-0.1-0.8-0.1c-0.2,0-0.4,0-0.4-0.2c0-0.3,0.2-0.4,0.4-0.4c0.1,0,0.3,0,0.4,0c0.5,0,1,0,1.5,0
		C56.3,36.8,56.6,36.9,56.9,37.2z"/>
	<path class="st103" d="M53.4,37.4c-0.2-0.1-0.1-0.2-0.1-0.3c0-0.1,0-0.2,0.1-0.2c0.2,0,0.2,0.2,0.1,0.3
		C53.5,37.3,53.5,37.4,53.4,37.4z"/>
	<path class="st136" d="M48,36.7c0,0.1,0,0.2-0.1,0.2c-0.1,0-0.1-0.1-0.1-0.2c0-0.1,0-0.2,0.1-0.2C48,36.4,48,36.6,48,36.7z"/>
	<path class="st27" d="M15.2,32.9c0.2,0,0.2,0.1,0.2,0.3c0,0.1,0,0.3-0.2,0.3c-0.1,0-0.2-0.1-0.2-0.2C15,33.1,15,33,15.2,32.9z"/>
	<path class="st136" d="M8.4,32.9c-0.1,0-0.2,0-0.3,0c0-0.2,0.1-0.3,0.1-0.5C8.4,32.5,8.4,32.7,8.4,32.9z"/>
	<path class="st137" d="M7.8,32.7c-0.1-0.2-0.1-0.3-0.1-0.4c0,0,0.1,0,0.1,0C7.9,32.4,7.9,32.5,7.8,32.7z"/>
	<path class="st138" d="M73.3,38.7C73.2,38.9,73,39,73,39.3c0,0.2-0.1,0.2-0.3,0.2c-0.3,0-0.6,0.1-0.9-0.1c-0.1-0.1-0.4,0.1-0.3-0.2
		c0-0.2,0-0.5,0.4-0.5C72.4,38.7,72.9,38.8,73.3,38.7z"/>
	<path class="st139" d="M76.8,39.1C76.9,39.1,76.9,39.2,76.8,39.1c0.2,0.3,0.2,0.5-0.2,0.6c-0.3-0.1-0.7-0.1-1-0.1
		c-0.2,0-0.4,0-0.3-0.3c0.1-0.2-0.2-0.2-0.2-0.5C75.7,39.1,76.3,38.7,76.8,39.1z"/>
	<path class="st140" d="M74.1,39.5c-0.1,0-0.2,0-0.3,0c-0.2,0-0.4,0-0.3-0.2c0-0.2,0-0.5,0.4-0.5c0.3,0,0.5,0,0.8,0
		c0.2,0,0.4,0.1,0.4,0.3c0,0.2-0.1,0.4-0.3,0.4C74.4,39.5,74.3,39.5,74.1,39.5z"/>
	<path class="st141" d="M76.7,39.7c0.2-0.1,0.2-0.3,0.2-0.5c0.1,0,0.3-0.1,0.3,0.1c0,0.1,0,0.3,0,0.4c0,0.4-0.2,0.4-0.4,0.2
		C76.7,39.8,76.7,39.8,76.7,39.7z"/>
	<path class="st26" d="M69.2,39.1c0-0.1,0-0.1,0-0.2c0-0.1,0-0.3,0.2-0.3c0.2,0,0.1,0.2,0.1,0.3c0,0.1,0,0.2,0,0.2
		C69.5,39.2,69.3,39.2,69.2,39.1z"/>
	<path class="st142" d="M55.4,37.5c-0.1,0-0.3,0-0.3-0.1c0-0.1-0.1-0.3,0.1-0.3c0.2-0.1,0.2,0.1,0.2,0.2
		C55.4,37.3,55.4,37.4,55.4,37.5C55.4,37.5,55.4,37.5,55.4,37.5z"/>
</g>
</svg>
