<svg xmlns="http://www.w3.org/2000/svg" viewBox="0 0 97.1 100"><path fill="#e86803" d="M26.9 51.6c-.4-2.9 0-3.5 2.5-3.2 7.7.8 15.3 2 23 2.7a6 6 0 0 1 1.9.6c.9.6 1 1.5 1.1 2.5.5 4.8 3.6 29.6 3.1 32.3-.9.9-1.5.2-2.2-.4a34.3 34.3 0 0 0-19.8-7.5c-2.4-.3-4.7-.6-6.6-2.3a149 149 0 0 1-3-24.7z"/><path fill="#050507" d="M.1 24.3L26 1.7C27.2.6 28.7.3 30.3.2L94.5 0c.8 0 1.9-.3 2.3.7.4.9-.6 1.5-1.1 2.1A474 474 0 0 1 87.1 14c-2.2 4.2-5.6 7.5-8.5 11.2-1.6 2-2.7 4.4-5.2 5.5-2.1.8-4.4.3-6.5.5A805 805 0 0 0 45 29.7c-7.8-.5-15.6-1.4-23.4-1.9L4 26.5c-1.7 0-4.2.1-3.9-2.2z"/><path fill="#3759b0" d="M5.6 23.5l66.2 4.6L91.7 2.9l-62.1-.2z"/><path fill="#eb9a60" d="M54.2 52c-8.2-.8-16.4-1.6-24.5-3-2.3-.4-2.8.7-2.8 2.6-1-1.7-.1-3.5 0-5.3.2-2.6.6-5.2 1.5-7.7 5.3.7 10.6 1.9 15.8 2.9 3.2.6 6.3 1.7 9.4 2.4.7.1 1.3.4 1.8.9.6 2.7.7 5.1-1.2 7.2z"/><path fill="#e15c04" d="M55.2 44.9c-5.1-1.2-10.2-2.5-15.4-3.4-3.4-.7-6.8-2.5-10.5-1.5-1.2.3-.7-.9-1-1.4.4-1.9.7-3.8 1.6-5.6 8.5.6 16.9 1.4 25.4 1.5 1 0 1.9 0 2.6.9.7 3.1-.6 6-1.5 8.8-.1.5-.6.8-1.2.7z"/><path fill="#f5a020" d="M63.9 47.9c-.9 3-.6 6.1-.7 9.1-.4 8-.1 16 .4 24 .1 1 .4 1.9.6 2.9v1.7c0 .7 0 1.4-.3 2.1-.1.3-.3.5-.6.5-1.2-.7-1-1.9-1-2.9 0-2.2-.2-4.3-.9-6.4-.3-2.3.4-4.8-1.1-6.9-.3-6.7-.4-13.3.1-20 .4-5.4.5-10.9 1.2-16.3.1-.9.1-1.9.7-2.7 1.7-.8 2.5-.3 2.5 1.6 0 1 .1 2-.1 3-.3 3.4-1 6.8-.8 10.3z"/><path fill="#d1d0ce" d="M.1 24.3c-.1 1.8 1.4 1.2 2.2 1.3a3229.8 3229.8 0 0 0 42.6 3.3c0 1.3-8.5 2.1-8.9 2.1-2 .1-4 .2-6 .5-.9-1.8-2.8-1.4-4.2-1.5-7.5-.3-14.9-1.7-22.4-1.7-2.1.1-3.7-2.1-3.3-4z"/><path fill="#d34d06" d="M30 31.5c.6-1.4 1.9-1.1 3-1.1l3 .1c6-.8 12 .8 18 .8 1.4 0 2.9.2 4.2.9 1 1.3.7 2.4-.5 3.3-2.1-.8-4.3-.4-6.5-.5-6.7-.1-13.4-1-20.1-1.3-.8 0-1.1-.1-1.2-.9l.1-1.3z"/><path fill="#c8c6c1" d="M58.3 32.6l-19.6-1.7c-.9-.1-3.9-.5-3.7-1.7 3.2-.5 6-.7 9.8-.4l22.1 1.6c2.6-.4 4.3 1.4 6.3 2.6-1.7.9-3.6.4-5.3.3-2.3-.1-3.4.5-3.1 2.9l-.3 1.2v-2.7c.2-1.6-.6-2.1-2-1.8-.6.5-1.2.7-1.9.6-.9 0-1.6-.3-2.3-.9z"/><path fill="#b0b1ab" d="M73.7 30c.5 1 .6 2 .4 3l-.8.2c-1-.2-2.2.3-2.7-1.4-.5-1.6-2.6-.1-3.6-1.2 2.3-.2 4.6.4 6.7-.6z"/><path fill="#e15302" d="M32 85c.5-2.2-.8-4.1-1.2-6.2-.1-.8-.4-1.6-.4-2.5 3.7 2 8 1.2 11.9 2.4 5.5 1.6 11 2.9 15 7.5.2.2.6.2.9.3 1.6 1.3 1.9 2.9 1.2 4.7-.6.5-1.3.4-1.9.3-8.1-1.8-16.3-3.7-24.3-5.7l-.9-.5-.3-.3z"/><path fill="#fb9618" d="M58.3 32.6c.7-.2 1.4.1 2 .4 1 1.8.1 3.5-.3 5.2-1.3 5.9-2.9 11.8-2.5 17.9.4 6.7.9 13.4 2.1 20.5.9-1.5.1-3.1 1.3-4 2.1 1.6.6 3.8 1 5.7-1.3 2.1-3.2 1.5-5.1 1-.7-7.3-1.3-14.6-2.1-21.8-.2-1.8.5-3.8-.5-5.5.7-2.3 1-4.7 1.1-7.1 1.6-1 1-2.7 1.4-4.1.6-1.6.7-3.4 1.1-5.2l.5-3z"/><path fill="#f8970c" d="M56.8 79.4c1.7-.2 3.6.1 5.1-1 .9 2.1 1.1 4.4 1.1 6.7 0 1-.4 2.2.5 3.1 1.4 1.6 3.5.6 5.2 1.3.7.6.7 1.3.1 2-1.3.9-2.8 1.1-4.2 1.8-1.9.6-3.7 1.5-5.7 1.9-.6-.1-.8-.5-.9-1 0-.9.5-1.6.9-2.3l.5-.5c.1-1.6-.5-3.1-1-4.6l-1.6-7.4z"/><path fill="#d42104" d="M60.9 72.7l-.1 4.1c0 .7-.3 1.4-1.1 1.5-1 0-.8-.9-.9-1.5a89.5 89.5 0 0 1 1.4-42.4l.1-1.3h2.1c-1 13.1-1.9 26.3-1.5 39.6z"/><path fill="#c35d12" d="M64 86.7c1.4 2.1 3.1 1.6 4.7 2.4.1.2.1.3-.1.5-.7 0-1.4-.1-2 .2-1.8.9-2.6-.2-3.1-1.6l.5-1.5z"/><path fill="#ed7539" d="M31.7 86.1c.2-.4.1-.7.3-1l27.3 6.2v.6c-.7.6-1.6.6-2.5.6l-24.4-5.8-.7-.6z"/><path fill="#d24504" d="M56.7 91.7l2.5.1c.1.9-.7 1.3-1 1.9-2.4 1.9-4.5 4.1-7.5 5.1-3.5-.6-6.9-1.8-10.4-2.5-.7-.2-1.8-.3-1.7-1.5 1.2-1.6 2.9-1.8 4.6-1.8 4.2-.1 8.3-.8 12.5-.7.5-.1.8-.3 1-.6z"/><path fill="#e7881e" d="M51.1 98.4c2.4-1.6 4.3-3.8 7.2-4.7.1.5.2.9.7 1.2-.5 1.9-5.9 4.3-6.8 4.6-1.1.3-1.5 0-1.1-1.1z"/><path fill="#da983a" d="M68.6 89.6l.1-.5c.6 0 1.3-.1 1.4.7.1 1-.6 1.3-1.5 1.4.3-.5.3-1.1 0-1.6z"/><path fill="#9aa0cf" d="M45.9 11c-1.3-.7-1.3-.7.5-2.2l2.2.5c-.5 1.2-1.4 1.7-2.7 1.7z"/><path fill="#9cb9c6" d="M49.9 5.3l1.2-1c.6.2 1.4-.3 1.8.5.1.1-.1.5-.3.6-.9.6-1.8.7-2.7-.1z"/><path fill="#b1bfd4" d="M46.5 7.3l-.2.1c-.7.6-1.5 1.1-2.5.7-.2-.1-.4-.5-.3-.6.5-1.1 1.6-.7 2.5-1l.5.8z"/><path fill="#61648a" d="M45.9 13h-.5l-.3-.1c-.7-.5-1.7-.3-2.3-1 .9-1 2.1-.4 3.1-.5.7.6.7 1.1 0 1.6z"/><path fill="#929cbf" d="M30 16.5c1 .1 2.6-.2 1.1 1.6-.9.3-1.9 1-2.5-.1-.6-1.1.5-1.4 1.4-1.5z"/><path fill="#a3abc8" d="M35.6 19.6c.5.9 1.6-.4 2.1.6l-1 1.1c-.7.6-2 .7-2.4.1-.5-.9.8-1.2 1.3-1.8z"/><path fill="#83a4d6" d="M20.1 20.1c-.5.3-1 .6-1.7.5-.4 0-.9.1-1.1-.4-.1-.6.5-.8.8-1.2.5.7 2.4-1.1 2 1.1z"/><path fill="#60a085" d="M26.9 15c1-.3 2-2.2 3.1 0l-2 .8c-.8.2-1.5.3-1.1-.8z"/><path fill="#a682bf" d="M27.5 9.4l-1.1 1c-.6-.1-1.5.3-1.7-.5-.3-.8.7-1 1.2-1.2.5.2 1.2 0 1.6.7z"/><path fill="#70abe0" d="M27.4 17.1c-.8.9-1.6 1.2-2.6.9-.4-.2-.2-.6 0-.8.7-.8 1.5-.9 2.6-.1z"/><path fill="#a4afd7" d="M32.5 21.2l-.5.2c-.8.1-1.7.4-2.5-.2.6-2 2.6-.5 3.5-1.7.5 1-.4 1.2-.5 1.7z"/><path fill="#c1a2aa" d="M22.2 18c-.6-.3-2.8.9-1.5-1.4.8-.1 1.7-.6 2.3.3.1.1-.5.7-.8 1.1z"/><path fill="#6badbc" d="M32.6 18.1c1-1.3 2-1.6 3 0h-3z"/><path fill="#99b0ee" d="M22.8 11.3c.4.4 2-.7 1.4 1.1-.7 0-1.5.6-2-.2-.3-.4.3-.6.6-.9z"/><path fill="#76c4e9" d="M26.1 20.5c.8-1.1 1.6-1 2.5-.7-.6 1.1-1.4 1.1-2.5.7z"/><path fill="#909fba" d="M44.2 9.1c-.7 1.6-1.7 2-3 1.6-.3-.1-.5-.5-.3-.8.7-1.4 1.9-1.1 3.3-.8z"/><path fill="#895974" d="M40.5 4.6c-.4.9-1.1 1.3-2 1.2-.4 0-1 0-1-.6.1-1.1 1.1-1.2 1.9-1.4.5-.1 1 .1 1.1.8z"/><path fill="#9eacc9" d="M32.3 10.3C33 8.8 34 8.7 35.2 9l.3.6c-.8 1.1-1.9.9-3.2.7z"/><path fill="#95a2c0" d="M44.7 4.5c-.8 1.3-1.9 1.5-3.3 1 .8-1.5 1.9-1.7 3.3-1z"/><path fill="#8fa3c8" d="M32.8 4.3l-.2.5c-.8.7-1.8 1.3-2.7.7-.7-.6.2-1.1.7-1.4.4-.1.7.9 1.2.4.3-.2.5-.6 1-.2z"/><path fill="#b4b4cb" d="M33 11.9c-.5.4-1.1.8-1.7 1-.5.1-1.3.4-1.5-.3-.1-.3.4-.8.6-1.2.8.8 1.9-.4 2.6.5z"/><path fill="#8f9abe" d="M30.7 7.8c1.1-1.4 2-1.7 3.1-1.3.1 0 .2.5.1.6-.7 1.2-1.8.3-3.2.7z"/><path fill="#b8afa0" d="M48 5.8c-.6-.2-1.8.4-1.9-.7-.1-.8.9-.9 1.6-.9 1.9.2.5 1 .3 1.6z"/><path fill="#7b92b4" d="M36.7 4.5C35.9 5.6 35.1 6 34 5.6l-.3-.6c.9-.7 1.8-.7 3-.5z"/><path fill="#709dce" d="M30.5 10.5c-.7-.7-2 .9-2.5-.6.7-.3 1.1-1.3 2.1-.8.8.4.7.8.4 1.4z"/><path fill="#ba6d7d" d="M45.3 12.9c-1 0-2.1.6-3-.4l.5-.5c.9.2 2.2-.8 2.5.9z"/><path fill="#8fb0d3" d="M35.3 7.7c.9-1.1 1.7-1.1 2.6-.7-.6 1.1-1.5.9-2.6.7z"/><path fill="#a7b4c9" d="M39.8 16.2c.5-1.7.5-1.7 3.6-1.6-.7 1.6-2.2 1.5-3.6 1.6z"/><path fill="#72a179" d="M39.7 18.6c-.8 0-1.5.2-2.4-.2.4-1.1 1.4-1.2 2.4-1.3 1.8.5 0 .9 0 1.5z"/><path fill="#9c9ec1" d="M16.2 17.3c.7-1.3 1.8-1.3 3.1-1.1-1.1 1.6-1.1 1.6-3.1 1.1z"/><path fill="#8850b0" d="M13.1 22.3c-.7.6-1.5 1.4-2.3.7-.9-.8.4-1.1.7-1.7.6.2 1.3.3 1.6 1z"/><path fill="#c2adc8" d="M14 23.2l1-1.5 2.4.1c-.6 1.9-2 1.6-3.4 1.4z"/><path fill="#3b4da5" d="M29.5 21.2l2.5.1c-.2.6-2.6 0-.8 1.8-.9-.4-2.4-.1-1.7-1.9z"/><path fill="#6d7ab9" d="M13.1 20c.9-.8 1.5-1.5 2.4-1l.2.6c-.6.9-1.4.7-2.6.4z"/><path fill="#de712d" d="M51.1 98.4c0 .7.4 1 1.1 1l-.6.5c-3.9-.4-7.6-1.5-11.3-2.5l-8.6-2.2-5.4-1.4c-1.1-.3-2.3-.6-2.6-2 .1-.4.4-.7.8-.9 4.9.8 9.7 1.8 14.3 3.8 3.4 1.6 7.2 1.8 10.7 3.1.5.3 1 .4 1.6.6z"/><path fill="#b92803" d="M24.4 91.2l.5-1c.3-.7.9-1 1.4-1.4.7-.4 4.8-2.2 5.4-2.8 5.8.8 11.9 2.7 17.6 3.8 2.5.5 4.9 1.2 7.4 1.9-.2 1.3-1.2.9-2 1l-11.9.8c-1.5.1-2.8.8-4.1 1.3-4.8-.8-9.6-2.2-14.3-3.6z"/><path fill="#8f92ca" d="M39 14.2c-.7 1.5-1.7 2.1-3.2 1.7-.4-.1-.7-.4-.4-.7.8-1.1 2-1.4 3.6-1z"/><path fill="#dbaf8e" d="M28.7 11.5c-.6 1.1-1.4 1.4-2.4 1l-.2-.6c.8-.7 1.6-.6 2.6-.4z"/><path fill="#618477" d="M33.8 14.8c-.1.6-.6.7-1.1.8-.3 0-.8.1-.8-.3 0-.6.6-1 1.2-1 .3-.1.6.1.7.5z"/><path fill="#eeefec" d="M97 1.1v3.1L74 33l-.3-3z"/></svg>