<?xml version="1.0" encoding="utf-8"?>
<!-- Generator: Adobe Illustrator 22.0.0, SVG Export Plug-In . SVG Version: 6.00 Build 0)  -->
<svg version="1.1" id="图层_1" xmlns="http://www.w3.org/2000/svg" xmlns:xlink="http://www.w3.org/1999/xlink" x="0px" y="0px"
	 viewBox="0 0 84.1 100" style="enable-background:new 0 0 84.1 100;" xml:space="preserve">
<style type="text/css">
	.st0{fill:#0CBABD;}
</style>
<path class="st0" d="M41.9,86.1c-6.4,0-12.6-1.4-18.2-3.9l18.2,17.9l18.2-17.9C54.5,84.7,48.4,86.1,41.9,86.1"/>
<path class="st0" d="M41.9,0C18.7,0,0,18.7,0,41.9s18.7,41.9,41.9,41.9s41.9-18.7,41.9-41.9S65.1,0,41.9,0z M41.9,77.8
	C22.2,77.8,6,61.7,6,41.9S22.2,6,41.9,6s35.9,16.2,35.9,35.9C77.8,61.7,61.7,77.8,41.9,77.8L41.9,77.8z"/>
<path class="st0" d="M33.5,48c0-0.5,0-1,0-1.5c0-6.3,0.9-9.8,1.8-11.6v14.3L33.5,48z M32.6,54.1c-0.2,0.3-0.5,0.3-0.8,0.2l-2-1.2
	c-0.1-0.1-0.2-0.2-0.2-0.3c0-0.1,0-0.3,0.1-0.4l0.3-0.5c0.2-0.3,0.5-0.3,0.8-0.2l2,1.2c0.1,0.1,0.2,0.2,0.2,0.3c0,0.1,0,0.3-0.1,0.4
	L32.6,54.1z M43.1,44.8c0,0.4-0.3,0.7-0.7,0.7s-0.7-0.3-0.7-0.7c0-0.4,0.3-0.7,0.7-0.7C42.8,44.1,43.1,44.4,43.1,44.8z M43.1,40.3
	c0,0.4-0.3,0.7-0.7,0.7s-0.7-0.3-0.7-0.7c0-0.4,0.3-0.7,0.7-0.7S43.1,39.9,43.1,40.3z M43.1,35.7c0,0.4-0.3,0.7-0.7,0.7
	s-0.7-0.3-0.7-0.7c0-0.4,0.3-0.7,0.7-0.7S43.1,35.3,43.1,35.7z M35.3,68.3c0,1.8,1.4,3.2,3.2,3.2c0.8,0,1.7-0.3,2.3-0.9
	s0.9-1.4,0.9-2.3v-18H43v18c0,1.8,1.4,3.2,3.2,3.2c0.8,0,1.7-0.3,2.3-0.9s0.9-1.4,0.9-2.3V34.8c0.1,0.3,0.3,0.7,0.5,1.1
	c0.7,2,1.4,5.3,1.4,10.5c0,1.4,0,3-0.1,4.7c0,0.6,0.2,1.1,0.6,1.5c0.4,0.4,0.9,0.7,1.5,0.7c1.1,0,2-0.9,2.1-2c0.1-1.6,0.1-3.3,0.2-5
	c0-7.8-1.3-12.1-3-14.7c-0.8-1.3-1.9-2.1-2.8-2.6c-0.9-0.5-1.7-0.6-2.2-0.6c-0.2,0-0.3,0-0.4,0h-0.9l-0.6,4.6l-2.5-3l1.4-1.6h-4.1
	l1.4,1.6l-2.5,3l-0.6-4.6h-0.9c-0.1,0-0.2,0-0.4,0c-0.5,0-1.3,0.1-2.2,0.6c-0.4,0.2-0.9,0.5-1.3,0.9c-1,0.8-1.9,2.1-2.7,4
	c-0.7,1.7-1.2,3.8-1.5,6.6c-0.2,1.7-0.3,3.6-0.3,5.9c0,1.5,0,3,0.1,4.8l-0.4,0.7L28.4,53c-0.1,0.1-0.1,0.3-0.1,0.4
	c0,0.1,0.1,0.3,0.2,0.3l0.2,0.1L23,63.4c0,0.1-0.1,0.2,0,0.3c0,0.1,0.1,0.2,0.2,0.2c0.2,0.1,0.4,0,0.5-0.1l5.8-9.4l2.3,1.4
	c0.3,0.2,0.6,0.1,0.8-0.2l1.3-2.1l1.6-2.5L35.3,68.3L35.3,68.3z M42.5,16.4c3.1,0,5.6,0.8,5.6,1.8c0,0.1-0.1,0.3-0.2,0.4
	c-0.6-0.8-2.8-1.4-5.4-1.4c-2.6,0-4.8,0.6-5.4,1.4c-0.1-0.1-0.2-0.3-0.2-0.4C36.9,17.2,39.4,16.4,42.5,16.4 M42.5,13.4
	c0.6,0,1.1,0.5,1.1,1.2c0,0.7-0.5,1.2-1.1,1.2s-1.1-0.5-1.1-1.2C41.3,14,41.8,13.4,42.5,13.4 M48.2,21.7c0-0.7-0.1-1.4-0.4-2.1
	c0.1-0.1,0.2-0.3,0.2-0.5c0.7,0,1.2-0.1,1.4-0.5c0.8-1.2-1.2-6.4-7-6.4s-7.8,5.1-7,6.4c0.2,0.4,0.7,0.5,1.4,0.5
	c0,0.2,0.1,0.3,0.2,0.5c-0.2,0.7-0.4,1.4-0.4,2.1c0,3.3,2.6,5.9,5.7,5.9C45.6,27.6,48.2,25,48.2,21.7"/>
</svg>
