<svg xmlns="http://www.w3.org/2000/svg" id="图层_1" viewBox="0 0 100 86.2"><style>.st2{fill:#caccc3}.st5{fill:#232324}.st8{fill:#bbbdb1}.st11{fill:#d2d3cb}.st27{fill:#bdbfb4}.st31{fill:#898983}.st39{fill:#a5a89e}.st40{fill:#a6a99e}.st67{fill:#c2c3bd}</style><path fill="#d7d8d2" d="M26.5 6.9c.8-1.4 2.2-1.7 3.7-2A813 813 0 0 0 57.4.1c2.8-.6 5.2.4 7.7 1 5.2 1.4 10.3 3 15.5 4.5.5.1 1.1.2 1.4.7 0 1.1-.9 1.2-1.7 1.4-2.4.6-4.9 1-7.3 1.5-5.1 1-10.1 2.1-15.1 3.3l-5.1 1c-1.2.2-1.7.8-1.8 1.9-.2 1.8.4 3.5.6 5.3.2 1.1.7 2.2.3 3.4-1 .6-.9-.3-1-.8l-.9-4.6-.5-1.5c-.3.5-.2.9-.3 1.2-.1.3-.1.8-.6.8s-.7-.3-.8-.7c-.1-.3 0-.6-.3-.9-.5.2-.4.7-.6 1.1l-.8 2.4c-.1.3-.2.8-.7.6-.4-.1-.4-.6-.4-.9l.2-1.2c.3-.8.4-1.7.6-2.6.4-1.9.2-2.3-1.6-3.1a95.7 95.7 0 0 0-16.4-6.2c-.5-.1-1.1-.2-1.3-.8z"/><path fill="#babbb3" d="M92.9 54.1a9 9 0 0 1-6.9 5.5c0-.8.6-1 1.1-1.4l1-.7c-6.5 2.1-13.3 3.3-20 5.4-4.8 1-9.6 2.4-14.3 3.5-3.9.9-7.3-.2-10.7-2.1-.3-.1-.4-.4-1-.4a9.9 9.9 0 0 0 6.9 3.8l2.1-.1c.6 0 1.2-.1 1.3.8-.3.4-.7.5-1.2.6-2 .5-3.9 1.1-5.9 1.5-.5.1-.9.3-1.4.1-.4-2.5-2.1-4.3-3.4-6.3-.5-.8-.9-1.5-1-2.4-.1-.4-.1-.7.3-.9.3-.2.7-.1.9.1 1.3 1.4 3.2 1.8 4.8 2.8 2.7 1.7 5.8 2 8.7 1.2l16.6-4.5h.1c.5-.2 1.3-.2 1.3-.9s-.7-.9-1.3-1.1c-1.1-.4-1.2-.6-.4-1.5.6-.6.4-1.1.2-1.7a16 16 0 0 0-2.8-5.5c-.2-.7-.2-1.4 0-2.1.9-.6.6.4.9.6-.1-1.1-.5-2.2.3-3.2 1.3-1.6 1.8-3.8 4.2-4.4.3.1.4.3.5.6-.6 1.5-1.6 2.8-2 4.4l-.3.9c-.2 1.3-.2 2.6 0 3.9l.3.9c.4 2.9 2.8 4.6 6.1 3 3-.9 4.8-3 5.8-5.9.1-.4.2-.8.5-1.1.4-.6 1.2-.8 1.5-1.5.6-.9.7-1.6-.5-2.1-.8 0-1.4-.4-1.7-1.1-.4-.8-1.2-1.3-1.5-2.2-.4-1.4-1.6-1.8-2.8-2.1-.6-.1-1.2 0-1.7-.3.4.5.3.9-.3 1-.4.1-.7-.1-1-.3-.3-.3-.6-.5-1-.4-.3.1-.6.1-.8-.3-.1-.3.1-.6.3-.8.5-.4 1.1-.7 1.7-.4.4.2.7.2 1 0 2.6-.1 5.2-1 7.7-.3 1.9.5 3.2.1 4.4-1.2.4-.4.8-.7 1.3-.9 1.4-.4 2.5-1.4 3.9-1.9 1.2 2.1 2.4 4.1 1.7 6.7l-.2.9c.1 3.3-.7 6.4-1.8 9.5l-.1.8c0 .8-.8 1.7.2 2.4-.2.4-.7.6-1.1.7-.6-.4-.3.3-.5.4z"/><path d="M51.8 24.2c-.1-2.4-.8-4.8-1.2-7.1-.2-1.1.2-2 .3-3 .1-.5.5-.7 1-.8 5-.8 9.9-2.2 14.8-3.2l13.6-2.7c.6-.1 1.3-.3 1.6-1 1.3.7 1.4 2 1.8 3.2l.6 2.1c-.1 1.6.6 3 1 4.5.1.3.4.4.6.5.3.1.8.1.8.6-.1.4-.6.5-1 .5l-2.9.4c-9.3 2.2-18.7 3.9-27.9 6.1-.9.2-1.9.6-2.9.1l-.2-.2z" class="st2"/><path fill="#c4c7c0" d="M4.1 56.8C1.3 56.1.5 55.1.4 52.2 0 46.4.1 40.6.2 34.8c0-1.8-.1-3.7.5-5.5 1.3 0 2.2.7 2.9 1.7.2.5.1 1 .2 1.5v7.7c.3-1.2.1-2.5 1-3.5.3 0 .6.2.8-.2.4-1 1.2-2 1.3-3.2 0-.8.4-1.4 1.4-1.1.5.2.8-.1 1.1-.4 1.9-2.1 4.1-4 6.2-6a3 3 0 0 1 1.8-.8l8.6-1.7c.6-.1 1.5-.4 1.6.6.1.8-.6 1.3-1.4 1.3a13 13 0 0 0-8 2.9c-.4.2-.7.6-1.2.6-.9-.7-1.6-.4-2.4.3-1.8 1.6-3.1 3.8-4.9 5.5-.3.3-.4.8-.4 1.2v6.8c.5-1.5.3-3.1 1.3-4.3 1-.4.9-1.5 1.3-2.2.5-.8.6-2 2-1.3.3.1.5-.2.6-.4 2-2.3 4.3-4.2 6.6-6.2 1-.9 2.3-1.1 3.6-1.3l6.5-1.3.4-.1c.6 0 1.5-.3 1.7.6.1 1-.7 1.3-1.5 1.3a14 14 0 0 0-6.9 2.1c-.7.4-1.2 1.1-1.9 1.4h-.5c-.7-.5-1.3-.4-1.9.1-.4.3-.9.6-1.2 1.1-1.2 1.6-2.3 3.1-3.7 4.5-.6.6-.8 1.4-.8 2.3 0 2.5.1 4.9-.1 7.4.2 1.4.9 1.8 2.7 1.5.1-.1 0-.3-.1-.3-1.7-1.6-1.3-4.1.9-5.1.6-.3.9-.1 1.1.5l.1 1.3c0 1.6-.1 3.3.2 4.9.1.7.1 1.5-.3 2.2-.6 1-.1 2.4-1 3.4-.9-.4-1.6-1.2-2.6-1.3-.6-.6-.7-1.4-.8-2.2.4 3.7-.6 7.4.7 11-1-.1-1.8-.6-2.6-1.1-.5-.7-.7-1.5-.6-2.4 0-1.1-.1-2.1-.3-3.1v-.8c0-1.8 0-1.8-1.7-2.3-.5-.5-.6-1.1-.7-1.8 0-.8-.2-1.5-.4-2.2-.1 2.5-.3 5 0 7.5 0 1.2.4 2.3.3 3.5-.9-.2-1.7-.5-2.4-1-.6-1.7-.1-3.5-.6-5.2v-1.4c0-1.6 0-1.6-1.6-1.7-.7-.3-.7-1-.8-1.6L4 46.1v7.1c-.4.9.2 2.2.1 3.6z"/><path d="M26.5 6.9c2.4 1.2 5.1 1.8 7.6 2.7 3.9 1.3 7.6 2.9 11.3 4.6 1.1.5 1.2 1.3 1 2.2l-1 4.8c0 .2-.1.3.3.5l1.1-3.6c.2-.5.2-1.2.8-1.2.7 0 .5.7.5 1.2 0 .4 0 .9.5.9s.2-.6.3-.9l.4-1.8c.9.7 1 1.7 1.2 2.6.3 1.6.8 3.2.8 4.8 0 .3.2.5.5.5v.1c-1.5.6-1.7 1.9-2 3.2-1.4.4-2.8.4-4.2-.1-6.1-2-12-4.3-18-6.3-2-.7-4-1.2-5.9-2.1l-.1-.2v-2.5c0-.5 0-1 .6-1.2.7-.2.1-.7.2-1.1.1-.1.2-.4.4-.4 1.5.1 1.6-1.1 2-2.1.6-1.5 1-3.1 1.7-4.6z" class="st2"/><path fill="#d5d7cf" d="M16.9 28.5c2.3-1.7 4.6-3.2 7.5-3.6h1.7c.6.1.8-.4 1-.7.1-.2.2-.4 0-.6-.3-.3-.7 0-1 0l-8.7 1.7c-1.8.3-2.8 1.8-4 2.9-1.5 1.4-3.2 2.6-4.3 4.4-.2.4-.5.4-.9.1-.8-.7-1.2-.3-1.1.5.1 1.5-1 2.5-1.5 3.7-.1.2-.3.5-.6.3l-.1-.5c-.4-.4-.2-.8-.1-1.2 1.2-3.6 3.3-6.6 6-9.2 2.9-2.5 6.1-4 10-4.2-.5-.3-1 0-1.5.1-1.3.3-2.7.7-4.1.7-3.6.2-6.1 2.2-8.5 4.5-1.2 1.1-2.2 2.4-3.5 3.4a9.2 9.2 0 0 0-2.7-1.6c.9-1.7 2.5-2.8 3.8-4.1L6 23.9c1.4-1.6 3.5-1.6 5.3-2l9.2-1.9c.7-.1.9-.6 1.2-1.1l.1.1c3 1.2 6.1 2.1 9.1 3.2l14.6 5.2c.5.2 1 .4 1.5.4l.4.1c1.6-.1 3.1.6 4.6 1 .4.1.9.3.8.7 0 .4-.5.4-.9.5-3.1.7-6.2 1.2-9.3 2a2 2 0 0 1-1 .3c-1.4-.1-2.7.7-4.1.6l-1.8-.9c-1.2-.6-1.2-1.1-.2-1.9-2.9.3-4.7 2.3-6.5 4.5-.6.8-1.1 1.7-2.4 1.7-.3-.6.1-1.1.5-1.5l1.2-2.1a13 13 0 0 1 8-3.9c.9-.1.9-.1 1.7-.5-1 0-1.8.3-2.6.4-.7.1-1.3.3-2 .3-3.7.3-6.9 1.8-9.3 4.8-1 1.3-2.6 2.2-3.5 3.6-.5.6-1 .3-1.4-.2-.4-.4-.8-.7-1-1.2a10 10 0 0 1 4.1-5.4c1.5-1 2.9-2.3 4.7-2.9 1.5-.5 3-1 4.6-.9.6.1 1.3-.2 1.2-.9-.1-.7-.9-.4-1.3-.3-2.3.4-4.5 1-6.9 1.3a8.6 8.6 0 0 0-5.2 2.8c-1.8 1.9-4.1 3.2-5.4 5.5-1.2-1.1-1.2-1.1-1.9.4L11 38.1c-.2.3-.4.6-.5 0-.3-.4-.2-.7 0-1.1 1.2-3 2.9-5.6 5-7.9.6-.4.9-.7 1.4-.6z"/><path d="M43.8 70.3c2.9-.5 5.7-1.4 8.5-2.1.4-.5 1-.5 1.6-.7 3.9-.9 7.7-2 11.6-3 .4-.1.9.1 1-.8 0-.5.6-.2 1-.1.4.4.8.2 1.2 0 2.9-.9 5.9-1.5 8.8-2.3 1.5-.4 1.6-.2 1.6 1.3 0 1.4.2 2.7-.1 4.1l-.8.9c-.2.2-.3.4-.6.5-1.5.1-2.3 1-2.6 2.4-.8-.1-1.5-.2-1.9-1.2-.2-.6-.7-.1-1.1.2-.5.5-.3 1.2-.4 1.8-.1.6.1 1.2-.5 1.5-2.4-.3-4.8-.6-7.1-.2-2.5.4-5 .3-7.4 1.1a7 7 0 0 0-2.1 1.1c-.7.5-1.4.8-2.2.2-.4-.3-.8-.3-1.3-.1-2.1.9-4.5 1.1-6.7 1.8-.6.2-1.3.4-1.8.8-.9.6-1.8-.1-2.7 0-.2.8.1 1.6-.3 2.3-.5.3-.6-.2-.6-.5-.3-1.7-1.8-2.2-2.9-2.9-.5-.3-1.4-.3-2.1-.4-1.6-.3-2.1 0-2.9 1.4-.5 1-1.1 1.9-1.9 2.7-.3.1-.5 0-.8-.1-.4-.3-.8-.5-.8-1.1l2.3-5.4c.6-1.4 1.3-1.7 2.7-1.4 1.9.4 3.8.8 5.4 2.1.4.3.8.4 1.2 0 .3-.3.7-.5 1.2-.6.4-.1.5-.3.5-.7 0-.4-.1-.7-.5-.8-.4-.1-.8-.2-.8-.7.2-.6.8-.5 1.2-.7 1 .1 2-.6 3.1-.4z" class="st5"/><path fill="#c8cbc5" d="M28.7 32.8c-.2 1.4-1.5 2.2-1.9 3.5 0 .3-.3.5-.5.8-.9 1.1-.8 1.3.5 1.8 1 .4 2.1.5 2.6 1.7v.4l-.4 4c-.4 6.1-.3 12.2-.3 18.4 0 1.1 0 2.2.2 3.3.1.4.2.9-.2 1.2-1.5.1-2.6-.8-3.8-1.4-.6-.6-.9-1.3-1.1-2.1-.2-1.2-.1-2.4-.1-3.6v-1.2c.2-2.2-.4-4-2.6-5-.4-.5-.3-1.1-.5-1.8-.2.5-.2.8-.2 1.2.1 3.1-.3 6.3.2 9.4.1.4 0 .7-.4.9-.6 0-.9.2-.9.9 0 .6.1 1.2-.3 1.7-.6-.5-.3-1.2-.3-1.8-.1-.6.2-1.3-.2-1.9-1-1.7-.5-3.6-.6-5.5.1-1.1-.4-2.3.4-3.3.1-2.3 1.5-4.4.9-6.8-.4-1.5-.1-3.1-.1-4.6 0-.3.1-.6-.3-.7l-.6.3c-.6.5-1 1.1-1.4 1.7-.7 1.2-.6 1.8.6 2.5.4.2 1 .4.7 1.1-.2.6-.8.5-1.3.4l-1.3-.2c-1-.2-1.4-.9-1-1.9.6-.8.5-1.8.7-2.6.4-2.4 1.4-4.6 2.4-6.7.2-.4.4-.8.9-.8.8.2 1 1.6 2.1 1.3.4.9 0 1.9.1 2.8v6.9c.9-5.3 3-9.9 6.8-13.8.4-.3.7-.7 1.2-.5z"/><path fill="#b4b6ac" d="M94 50.9c-.2-1.4.7-2.6.9-3.9.3-1.6.9-3.1.9-4.7 0-1.2 0-2.5.4-3.7.1-.3.2-.7.1-1-.4-1.7-1.1-3.2-1.8-4.8-.7.1-.9-.4-1.3-.8s-.7-.9-1.2-1.2c-.7-.4-1.2-1-2-1.3a3 3 0 0 1-1-.4c-.8-.8-2-.7-2.9-1-.8-.9-.7-1.5.5-1.7 1.7-.3 3.3-.3 5 .2.5.1 1.1.6 1.4-.1.3-.7-.3-1-.8-1.4l-.7-.6c-.6-.7-.5-1.4.4-1.7 1.1-.3 2.3-.7 3.5-.1.5.9.1 1.9.2 2.7 0-1.1.1-2.3-.2-3.5.1-.3.3-.4.5-.6.8-.4 1.9-.7.4-1.7-.2-.1-.3-.4-.2-.6.4-.4.8-.2 1.3 0 .6.6.9 1.3 1.1 2.1l.1.6c2.3 2.1 1.2 4.9 1.1 7.3l-.3 7.2c-.3 3.6-.4 7.3-.6 11 0 .9-.5 1.4-1.3 1.6-.8.2-.9.5-.7 1.3.4 1.3.1 1.6-2.1 2.5-.2-.4.1-1.3-.7-1.7z"/><path d="M50 27.4c-.5-1.6 0-2.4 1.9-3.1 1 .1 1.9-.1 2.9-.3 4-.9 7.9-1.9 11.9-2.6 6.1-1.1 12-2.7 18.1-3.9.6-.1 1.3.4 1.9-.4-1.7.4-1.9-.7-1.9-1.9 0-.7-.3-1.4-.4-2.1-.1-.5-.3-.9.1-1.4.3 1.4.4 2.8 2.1 3.2-.2.3.2.5 0 .9.2-.2.1-.5.3-.6.4.1.3.4.3.7.5 1 1.4 1.6 2.5 1.8l2.3.8c.4.1.9.3.8.8-.1.5-.7.3-1 .2l-1.9-.5c-1.8-.6-1.9-.5-1.9 1.4.2 1 .4 1.9-.4 2.7-1.7.6-3.5.8-5.3 1.2C73.5 26 64.8 28 56 29.7c-.7.1-1.5.4-2.2.2-.8-.8.2-.8.5-.9l4.7-1 26.9-5.6c-.2-.5-.7-.7-.8-1.2.1-.5.4-.5.6-.5-3.5.9-7.3 1.6-11 2.3l-22.3 4.6c-.5.1-1.1.3-1.7.2l-.7-.4z" class="st8"/><path fill="#2c2c2d" d="M19.1 66.8l-.1-2c-.1-.9.3-1.1 1.1-.9 1.9.3 3.5 1.2 5.1 2.2l3.2 1.6c.4.2 1 .1 1.4.3l1.4.6c2.7 1.1 5.4 2.5 8.4 3 .1.2.2.5.4.4.9-.2 1.2 0 1.2 1-.1.7 0 1.5-1.1 1.1h-.3c-1.1 1.8-2 .5-3-.1-1.5-.9-3.3-1.1-5-1.5-.8-.2-1.3.3-1.7 1l-1.7 4a5 5 0 0 1-.9 1.6c-.7.2-.5-.5-.8-.7-.1-.4-.6-.6-.6-1-.3-1 .6-1.6.7-2.5l.4-1.1c.6-1.8.6-1.8-.9-2.9l-.4-.5c-.7-.5-1.3-1.4-1.9.1 0 .5-.7.5-1.2.6-.4-.3-.4-.8-.4-1.2 0-.5-.3-.9-.8-1.1-.7-.4-1.5-.5-2-1.2l-.5-.8z"/><path fill="#a9aaa4" d="M79 66.9v-4.4c0-.7-.2-.9-.9-.7l-9.6 2.5c-.5.1-.9.2-1.3-.3-.2-.4.1-.6.4-.7.2-.1 1 .4.6-.5l-.2-.3c4.6-1.5 9.3-2.5 14-3.7 2.3-.6 4.6-1.1 6.9-2.1-.6 1.6-2.3 1.7-3 2.9L80.4 61c-.9.2-1.2.6-1.2 1.5.1 1.5.4 3-.2 4.4z"/><path d="M87.3 20.2v-.8c.1-1.3.7-1.5 1.8-1 1 .4 2.1.7 3.3.7l-3.8-1.3c-1-.3-1.6-.9-1.6-1.9l9.1 2.7c.4.1.9.1 1.2.5-.4 0-.8-.2-1.4.4l.7.3c.3.2 1 .2.9.6-.1.4-.4 1-1.1 1.1l-.9.3c-.4-.1-.7-.5-1.1-.3-1.2.1-2.4.4-3.7.4-1.3-.1-2.6-.3-3.4-1.7z" class="st11"/><path fill="#898c80" d="M18.2 57.8c.1 1.8-.1 3.6.3 5.3l-2.9-1.3c-.9-.9-1.1-2-1.1-3.2v-8c0-.4-.2-1 .4-1 .6 0 .4.6.4.9 0 .9.2 1.7.6 2.4l2.3 4.9z"/><path fill="#878a7f" d="M9.5 59.1a6 6 0 0 1-.5-3.5c-.3-1.7-.1-3.5-.1-5.3 0-.4-.2-1 .5-1 .6 0 .4.7.6 1 0 .6.2 1.1.5 1.6l1.9 3.2.6 5.6-3.5-1.6z"/><path fill="#86897e" d="M4.1 56.8c-.5-.9-.7-1.8-.7-2.8v-6.3c.5-.3.8-.2 1 .3 0 .6.2 1.1.5 1.6.9.9 1.2 2.1 1.9 3.2.4 1.8.3 3.6.2 5.4-1-.3-1.9-1.1-2.9-1.4z"/><path fill="#343335" d="M72 72.7c-.4 1.7-.2 3.4-.3 5.1l-.1.7-.6.9c-.6.4-.8 1.4-1.9 1-.8-1.4-.9-3.1-1.2-4.7-.1-.5.1-.9.5-1.3l2.1-1.7c.1-.1.2-.1.4 0 .5-.6.2-1.3.3-2 0-.6.1-1.1.8-1.2.1 1.1.1 2.1 0 3.2z"/><path fill="#4f4d4e" d="M26 70.3l.3.2c2.2 1.1 2.2 1.1 1.2 3.5l-1.4 3.4c-.5-.6-.4-1.3-.4-2l.3-5.1z"/><path fill="#b7b2af" d="M75 70.6c.1-2 .1-2 3.2-2.9 0 3-.1 3.1-3.2 2.9z"/><path fill="#c8c6c0" d="M19.6 67.6c.7.2 1.4.4 2.1.9.6.9.4 1.8 0 2.6-2.4-.3-2.6-.6-2.1-3.5z"/><path fill="#a4a199" d="M21.7 71.1v-2.6c1.8.3.8 1.7 1.1 2.6h-1.1z"/><path fill="#676157" d="M94 50.9c1 0 1.2.5.8 1.8l-.3.3c-.9-.1-1.4-.4-.7-1.4l.2-.7z"/><path fill="#767266" d="M86.7 15.2c0 .1.1.3 0 .4-.1.4.3 1.1-.3 1-.5 0-.4-.7-.1-.9.5-.3-1.3-.7.1-.8l.3.3z"/><path fill="#696359" d="M22.5 14.1c.4.2.4.6.5 1 .1.2-.1.4-.3.5-.3.1-.3-.2-.4-.4 0-.4-.2-.8.2-1.1z"/><path fill="#84837c" d="M92.9 54.1c-.2-.4-.4-.8-.2-1.3.6.1.7.5.7.9l-.5.4z"/><path fill="#b0aea5" d="M43.8 7.2c-.7-.4-2-.3-1.8-1.5.3-1.1 1.5-1.2 2.4-1.1 1.5.1 3 .8 4.6.4 2.4-.5 4.8.5 7.2.4.6 0 1.3.1 1.6.8.3.7.7 0 1.2.2-.7.6-1.3 1-2.1 1-1.5-1.1-3.3-1-4.9-1.2H47.9c-1.3.8-2.7.6-4.1 1z"/><path fill="#cec992" d="M43.8 7.2c0-.4.3-.7.5-.6 1.5.6 2.7-.9 4.2-.7 1.5.2 3 0 4.5.2 1.1.1 2.2.2 3.2.6.4.2.9.2.6.8-1.7.7-3.7.8-5.3.4-1-.3-1.6-1-2.4.1-1.6-.6-3.6 0-5.3-.8z"/><path fill="#1a1a1a" d="M84.3 47.4c-.6 2-1.3 3.8-2.8 5.3-1 1-2.2 1.6-3.5 1.9-1.5.4-2.9 0-4.2-.5-1.2-.5-1.8-1.5-2.2-2.6-.3-.2-.2-.5-.3-.8-.2-1.4-.2-2.8 0-4.3l.3-.8c.2-.2.4-.2.6 0 1.5.8 1.7.7 2.6-.9a9.6 9.6 0 0 1 2.7-3.3c.8-1.2 1.8-2.1 3.4-1.7.6.1 1 .4 1.4.9.7.7 1.3 1.3 1.7 2.2.3.8 1 .5 1.6.7.2.3-.2.5-.3.7l-.3.6c-.5.8 0 1.8-.7 2.6z"/><path d="M77.4 37.3c.2-1.2 1.5-1.1 1.9-.9 1.9.7 3.4-.6 5.1-.8 1.2-.1 2.5-.3 3.8-1-1.7-.4-3.1.4-4.6.7-1.5.3-2.9.7-4.4.3a6.2 6.2 0 0 0-4 .5 4 4 0 0 1-1.5.3c.4-1.8 2.1-2 3.4-2.4l10.5-2.8c1-.3 2-.4 3-.1.6.2 1.2.1 1.7-.5 1.2.2 1.3 1.7 2.4 2.1-.4.7-1 1.1-1.7 1.4-1.7.6-3.1 1.6-4.5 2.8-.7.6-1.3.7-2.2.3-1.3-.5-2.7-.9-4.1-.2-.5.2-.9-.2-1.3-.1-.6.2-1.6-.8-1.6.6 0 .2-.7.3-.7-.1-.4-.8-.9.1-1.2-.1z" class="st27"/><path fill="#abaca6" d="M67.9 63.4c-.3.1-.5.3-.6.6-.2.1-.7-.5-.5 0 .3.8-.2.6-.5.7l-13.9 3.4c-.3-.4-.7-.5-1.2-.4a9.6 9.6 0 0 1-9.3-3.7c-.1-.3-.5-.6-.2-.9.4-.3.7 0 .9.2 1.7 1.6 3.9 2 6 2.7 2.2.7 4.4.1 6.5-.4 4.3-1 8.6-2.3 13-3.1l.1.1c.1.3-.1.6-.3.8z"/><path fill="#2f302e" d="M75 44.7c0 1-1 1.2-1.4 1.9-.2.4-.5 0-.7-.1-.5-.2-.6-1-1.3-1 .3-1.6 1.2-3 2.1-4.2.2-.9.9-1.3 1.6-1.7 1.5-.7 3.1-1.1 4.7-.5.4.1.9.2.9.8-1.1 0-2.3-.3-2.7 1.3 0 .2-.4.2-.7.4-.4 0-.7-.2-.8-.5-1.2.8-1.2 2.3-1.7 3.6z"/><path fill="#a5a69e" d="M80.9 40c-2.3-1.3-4.1-1.2-6.2.5l-1 .9-.3-.6c.7-1 1.6-1.6 2.7-2.1.4.1.8.3 1.1.2.7-.2.1-.4-.2-.6 3.1-.4 5.1.5 5.1 2.3l-1.2-.6z"/><path d="M71.5 51.5c1.4 2.5 3.8 3 6.4 3.2-1 .5-2 .9-3.2.6-2-.7-2.9-1.6-3.2-3.8z" class="st31"/><path fill="#979692" d="M84.3 47.4c.3-1-.3-2 .3-2.9l.8.5c.2.3.2.8.5 1.1-.3.7-1 .9-1.6 1.3z"/><path fill="#6f6b62" d="M85.9 46c-.5-.2-.9-.4-.5-1-.3-.3-.2-.7-.5-1l.5-.6c1.3 1 1.4 1.3.5 2.6z"/><path d="M71.3 46.3v4.3a6.3 6.3 0 0 1 0-4.3z" class="st31"/><path fill="#b0b3a6" d="M18.5 36a20.7 20.7 0 0 0-3.2 9c-.1.6-.1 1.1-.8 1.1v-7.2a4 4 0 0 1 1.2-3.2c1.2-1.2 2.2-2.6 3.1-3.9.6-.8 1.3-1.3 2.2-1.7.7-.4 1.3-.4 1.5.6-1.5 1.6-3 3.2-4 5.3z"/><path fill="#acb0a2" d="M16.9 28.5c-2.8 2.7-5 5.8-6.1 9.6-.8 1.3-.8 2.8-1.1 4.2-.1.4.1 1-.4 1-.6 0-.4-.6-.4-.9v-7c0-.4 0-.8.3-1.1 2-1.7 3.3-4.1 5.2-5.8 1.2-1.1 2-1 2.5 0z"/><path fill="#aeb2a4" d="M11 26.6a21.6 21.6 0 0 0-6.1 10.1 8.4 8.4 0 0 0-.8 3.8c0 .4 0 .8-.4.8-.5 0-.3-.5-.3-.8v-8.1c1.5-2 3-4 4.9-5.7a5 5 0 0 1 1.6-.9c.5 0 1.1-.1 1.1.8z"/><path fill="#c1c5b7" d="M11 26.6c-.4-.8-1-.5-1.6-.3-1.7.9-2.7 2.5-3.9 3.9l-2.2 2.3v-1.6c1.1-1.9 3-3.1 4.4-4.7 2.2-2.4 4.9-3.2 8-3.6 1.7-.2 3.3-.7 4.9-.9.3-.1.9-.3.9.4 0 .4-.3.7-.8.7-3.7-.2-6.8 1.5-9.7 3.8z"/><path fill="#b2b5ad" d="M18.2 57.8a9.5 9.5 0 0 1-2.4-4.8c1.2-.2 2 .2 2.4 1.3v3.5z"/><path d="M10 50.3c-.4-.1-.2-.9-.8-.7-.4.2-.2.7-.2 1.1v5c-.5-.8-.2-1.7-.2-2.6v-5c0-.4-.1-.9.5-.9s.5.4.6.8c-.1.8 0 1.6.1 2.3z" class="st39"/><path d="M6.8 52.7c-1.1-.8-1.4-2-1.9-3.2 1.7-.5 1.9-.4 1.9 1.5v1.7z" class="st40"/><path d="M12.4 55.2c-1-.9-1.7-1.9-1.9-3.2 1.9.1 1.9.1 1.9 2.1v1.1z" class="st39"/><path d="M4.4 48a2 2 0 0 0-1-.3v-2.4c0-.3.1-.5.5-.5.3 0 .5.2.4.5-.4.9.2 1.8.1 2.7z" class="st40"/><path fill="#61645b" d="M50 27.4l.3.1c-.2.8-.8.4-1.3.5h-1.9c-2.3-.4-4.4-1.3-6.5-2.1l-17.4-6.1c-.5-.2-1.1-.2-1.3-.8 1.9.2 3.5 1 5.3 1.6 5.9 2.1 11.9 4.1 17.8 6.3 1.5.6 3.2.7 5 .5z"/><path fill="#949487" d="M47.4 23.4c0 .3-.1.8-.4.7-.5-.2-1.2-.2-1.3-.9 0-.5.5-1 .9-1 .9 0 .6.8.8 1.2z"/><path fill="#827e70" d="M49.7 24.2c-.3-.2-.7-.3-.8-.7.7-.1.1-1.2.9-1.1.5.1 1 .4.9.9 0 .5-.6.6-1 .9z"/><path fill="#dcded8" d="M29.1 40.2c-.7-.7-1.7-.9-2.6-1.2-1.6-.5-1.7-1-.5-2.1l.8-.7c1.6-.7 2.3-2.3 3.4-3.4 1.6-1.7 3.4-3.1 5.9-3v.3c-.3.4-1.1.3-1 .9.1.6.8.7 1.3.9.4.2.9.2 1 .8L34.6 35l-1.4 1.3 1.6-1.4c1.8-2.1 4.4-2.4 6.9-2.9l.8-.3 1.9-.2c.9.9.9 1.4-.3 1.7l-3.3.7.7-.1c.4-.1.7-.1.9.3.2.4-.1.7-.3.9-1.9.9-3.3 2.5-4.8 3.8-.6.6-1.2 1.1-2.1.4-.7-.5-1 0-1.5.4l-.6.6c-1.6 1.9-1.6 1.9-3.5.1.2-.9.2-.9 1.1-1.9-.5.4-.7 1.4-1.6 1.8z"/><path fill="#c9cbc1" d="M44.4 31.7c-.6-.2-1.3.4-1.9 0 2.8-.9 5.6-1.3 8.4-1.9l2.1-.5c-2.2-.5-3.9-1.2-5.8-1.4 3.6-.2 7.1-1.2 10.6-1.9l20.3-4.1 5.4-1.1c.4-.1.8-.1 1.1.2l1.7 1.4-7 1.6-14.4 3-11.4 2.4h-.1v.2c-.1.7-.6.7-1.1.7l-6.4 1.4h-1.5z"/><path fill="#bec1b4" d="M20.4 40.2c0-1-.1-2 .3-2.9.1-.8.7-1.3 1.1-1.7 2.1-1.7 3.8-4 6.1-5.5 1.3-.9 3-.9 4.5-1.3 1.7-.4 3.5-.5 5.2-1 .4-.1 1-.3 1.1.3.1.6-.4 1-1 .9-1.6-.1-3.1.2-4.5.9-1.6.8-3.3 1.5-4.5 2.9l-.8.5c-1.4-.2-2.1.7-2.8 1.7l-3.6 4.6c-.3.3-.5.8-1.1.6z"/><path fill="#4b4c46" d="M84.8 21c-3.8.5-7.6 1.5-11.3 2.2l-22.6 4.7c-1.2.2-2.4.1-3.6.1l-.2-.1c1-.6 2.2.2 3.2-.5l36.9-7.6c-.8 1.1-1.8.7-2.4 1.2z"/><path fill="#b2b4aa" d="M34.5 34.9c.9-.8 1.7-1.8 2.9-2.2 1.4-.2 2.8-.9 4.2-.7-.3.4-.7.3-1.1.4a8.9 8.9 0 0 0-5.8 2.8l-.2-.3z"/><path fill="#1c1c1c" d="M68.9 74.3c-.5.7-.6 1.4-.4 2.2l.9 3.9c0 .2-.1.4-.3.5-.8.5-1.6.9-2.5 1.2-1.6.4-2.7 1.8-4.2 2.4a47.4 47.4 0 0 1-22.7.4c-1.7-.4-3.4-.9-5-1.8L32.3 82c-.7-.2-1.3-.6-2-.9l-.9-.4c-.3-.2-.5-.4-.5-.8l2.1-3.7c.8-1.2 2-.7 3.1-.8 1.9-.1 3.1 1.4 4.6 2.1.4.2.3.5.3.8 0 .4-.1.9.3 1.3.5-.2.8.2 1.2.2 1.1.2 2.3.5 3.2-.4.2-.8 1-1.7-.4-2.2-.4 0-.8.1-1.1-.3 1.8-1.2 3.8-1.4 5.8-1.8.9-.2 1.7-.4 2.5-.8.8-.3 1.4-.6 2.1.2.4.5.9 0 1.3-.2 2.1-1.4 4.3-2.1 6.9-2 .7 0 1.4-.3 2.1-.4 2.6-.3 5.2-.2 7.7.2l.3.2h-.3c-1 .5-2 .6-3.1.6-3.7.2-7.3 1-10.8 2.2l-1.6.7c-.2.1-.3.2-.4.5.8.2 1.7-.1 2.5-.1 3.5-.4 7-.8 10.3-2.3.6.3 1 .1 1.4.4z"/><path fill="#b8b4ae" d="M42.2 77.3h1.3c.4-.2.6-.1.6.4 0 .8.2 1.6-.1 2.3-1.2 1.1-3.2 1.1-4.8 0v-2.9c1.1-.1 2.1.4 3 .2z"/><path fill="#afafaa" d="M35.6 65.5c.5.6.4 1.4.2 2-.4 1.2-.2 1.9 1.1 2.5 1.3.6 2.5 1.1 3.9 1.1l-1.1.5c-1.5.2-2.8-.3-4.1-.8l-4.5-2c.2-.4.5-.7.8-.9.5-.6 1-1.2 2-.8.5.2.8-.8 1.4-.8l.3.2c-.1-.2-.4-.6 0-1z"/><path fill="#aeb2a5" d="M20.4 40.2l4.2-5.3c.6-.8 1.2-1.5 2.1-1.9.5-.2.8-.3 1.1.3-3 3.3-5.2 7.1-6.3 11.4l-.4 2.3c-.1.4 0 1-.4 1-.7 0-.4-.7-.4-1.1l.1-6.7z"/><path fill="#898c81" d="M24.1 60.5v4c.3.7-.2.6-.6.6a4.2 4.2 0 0 1-3.3-3.9v-4.1c0-.9.3-1.4 1.2-1.2.3.1.5.3.6.6.7 1.3 1.6 2.6 2.1 4z"/><path fill="#494947" d="M29.7 68.2c-.5 0-1-.1-1.3-.5.3-.1.3-.2.3-.6-.7-7.8-.3-15.7.1-23.5.1-1 0-2.1.4-3.1.3 0 .4.2.5.5-.3 2.9 0 5.9-.3 8.9-.2 1.8-.1 3.6-.1 5.4v7c0 2 .1 3.9.4 5.9z"/><path fill="#9fa198" d="M21.7 56c-1-.1-1.3.3-1.3 1.3v4.4c0 .6.1 1.1.6 1.4l2.5 1.7c.3.2.6.3.6-.2.3.6.5 1.2 1 1.7L20 64.1c.3-.1.4-.2.3-.5-.7-3.6-.1-7.2-.3-10.8 0-.4 0-.8.5-.8s.5.4.5.8c.1.6-.2 1.2.3 1.8.4.3.8.7.4 1.4z"/><path fill="#b3b7ae" d="M21.7 56l-.3-1.6c2.2.7 2.7 2.4 2.7 4.4v1.7c-1.2-1.3-1.8-2.9-2.4-4.5z"/><path fill="#878782" d="M29.5 40.8l-.3-.3-.1-.3c.7-1 1.5-1.9 2.7-2.8-.7 1.2-1.8 1.7-2.1 2.8.2.3.2.5-.2.6z"/><path d="M89.1 29c-.5-.3-1.1-.3-1.6-.3-2.7.1-5.2.9-7.8 1.3-2.7.4-5.2 1.5-7.9 1.5-.5 0-.7.3-.9.7-.5.6-1 .8-1.7.3a.3.3 0 0 1 0-.4c1-.6 1.7-1.4 1.2-2.7-.1-.2 0-.4.3-.5.3 0 .7.2 1 0 2.9-1.6 6.2-1.8 9.3-2.5 2.6-.6 5.2-1.3 7.9-1.8-2 .1-3.9.6-5.8 1l-3.9.8c-.6.1-1.4.5-1.6-.3-.1-.8.9-.7 1.4-.8l8.3-1.8c.2 0 .3 0 .5-.2-.2-.2-.5-.2-.6-.4.4-.9.3-1.8 0-2.7a5.7 5.7 0 0 0 5.3 1.2c.7-.2 1.5.1 2.2-.3.5.4.6.8.3 1.4-1 .5-2.2.2-3.2.6-.3.1-.8.1-.9.5-.1.4.2.7.5 1 .5.4 1.5.7 1.2 1.4-.4.9-1.2.1-1.9.1-1.8-.1-3.6.3-5.4.8a87 87 0 0 1-11.5 2.9c-.2.1.1.3 0 .1v-.1c3.5-.7 6.9-1.7 10.4-2 .7-.1 1.3.1 1.9.3 1.2-.1 2.4-.3 3 .9z" class="st27"/><path d="M86.2 28c-3.3-.1-6.5.9-9.8 1.4-1.1.2-2.2.1-3.3.2l5.1-1.3c3.4-.8 6.8-1.9 10.2-2.6 1.4-.3 2.7 0 4 .4-.2-1.2-1.2-1.3-1.7-1.9-.2-.3-.6-.4-.5-.9.1-.4.5-.4.9-.4l3.8-.5c.5 0 .4.2.2.5-1.1 0-2.1 0-3.1.3-.4.1-.7.2-.8.6-.1.4.2.6.5.7l1.3.9c.4.4.7.9.3 1.5-.4.7-.9.6-1.5.3a9.1 9.1 0 0 0-5.4-.4c-.9.1-.9.6-.2 1.2z" class="st8"/><path fill="#898c7d" d="M95.2 22.9c0-.2 0-.4-.2-.5 0-.5 0-.9-.2-1.3.6-.1.7.4.8.8.4 1.7.2 3.4 0 5.2-.5-1.5-.2-2.9-.4-4.2z"/><path fill="#918e85" d="M95.5 27.7c.8.5.8 1.3.5 1.8-.4.5-.6 1.7-1.7 1.3-.3-.8-.4-1.6-.5-2.4.8-.6.3.7.8.5.4.3.6.1.8-.3 0-.2-.2-.6.1-.9z"/><path fill="#585243" d="M95.5 27.7c0 .5.4 1 0 1.5-.2.2-.2.6-.5.5-.4-.1-.4-.4-.4-.7.3-.3.6-.6.5-1-.2-.5.2-.2.4-.3z"/><path fill="#545445" d="M93.7 28.5c.2.8.7 1.5.5 2.4-1-.6-.7-1.5-.5-2.4z"/><path d="M87.3 22.9c.6 0 1.3-.1 1.8.6l-11.3 2.4.1.3 3.4-.5 6.7-1.4.4-.1c.6.1 1.5-.4 1.6.4.1.6-.9.4-1.3.5l-15.2 3.3c-.4.1-.8.1-1.1.5-.6.8-1.2.9-1.9.1-.2 0-.3-.1-.4-.3 0-.4.2-.8-.5-.6l-3.2.7c.7 1.1.6 1.4-.5 1.6l-9.1 1.9c-.4.1-.8.2-1.1-.1l-6.3 1.2c-2.4.5-4.8 1.2-7.2 1.5 0-.3.5-.4.3-.8-.2-.3-.5 0-.7 0-.6-.1-1.2.5-2.1 0 1.5-.7 2.9-.7 4.3-1.1.5-.1 1.9-.1.6-1.3l7.2-1.6c.6-.1 1.3-.2 1.9-.5 3.1-.3 6.1-1.1 9.1-1.7L86.5 23l.8-.1z" class="st11"/><path fill="#443f34" d="M67.9 63.4c0-.3 0-.6.2-.8.4 0 .7-.1.9.4.1.3-.2.5-.4.6-.4.4-.6 0-.7-.2z"/><path fill="#0c0c0c" d="M68.9 74.3c-2 .8-3.9 1.7-6 2l-7.3 1c-.5.1-1.3.3-1.4-.3-.2-.6.6-.7 1.1-1 2.3-1.3 4.8-1.8 7.3-2.4 2.7-.6 5.5-.7 8.3-.9-.6.8-1.3 1.2-2 1.6z"/><path fill="#5e5d54" d="M33.7 65.6c-.4-.1-.8 0-1-.4-.1-.3.2-.4.4-.5.8.1 1.8-.1 2.4.8v1.6c-.4-.2-.1-.7-.5-.9-.1-.5-.4-.7-.9-.7-.1.2-.2.2-.4.1z"/><path fill="#68635e" d="M75 44.7c0-1.1.1-2.2.7-3.1.4-.6 1.2-.9 1.8 0-.9 1-1.9 1.9-2.5 3.1z"/><path fill="#dfdfdc" d="M84.9 44c.9 0 .6.6.5 1-.4.1-.7-.1-.8-.5l.3-.5z"/><path d="M66.4 50.1c-.6-.1-.4-.6-.4-1s.2-.9.7-.9c.6 0 .6.5.5.9 0 .5-.2.9-.8 1z" class="st67"/><path fill="#9fa09a" d="M34.5 34.9l.3.3a36 36 0 0 0-2.1 1.9l-.2-.2 2-2z"/><path d="M44.1 79.9v-2c0-.4 0-.7-.5-.7.3-.3.7-.3.7.2 0 .8.4 1.7-.2 2.5z" class="st5"/><path fill="#d4d5ce" d="M69.1 32.2c.7.5 1.3.3 1.6-.5.2-.6.6-.7 1.2-.7 2.1.1 4.1-.8 6.2-1.1l6.7-1.4a5 5 0 0 1 2.7.2c-.1 1.1-1 1.1-1.8 1.3L75 32.4l-18 4.2c-2.8.6-5.1 2.2-7.5 3.5-.7.4-1.3.7-1.9 1.2-.3.2-.8.5-.7 1 .1.5.6.4 1 .4l.5.1c-.1.5-.4.4-.7.4-1.9 0-3.4.8-4.6 2.2-.3.3-.7.6-.9 1-.5.6-1.7 1.1-1.3 1.9.4.7 1.6.3 2.4.2 1.2 0 2.4-.4 3.9-.1-1 .5-1.9.6-2.7.6-1 0-1.9.2-2.9.4-1.6.2-2.6 1.8-2.7 4.3-.1.9.3 1.7.3 2.6 0 .2.3.5-.1.7-.3.1-.5-.1-.7-.2-.3-.3-.6-.5-.6-1 .1-1.3-.1-2.6.2-4 .4-2 .8-4 1.7-5.8 1.7-3.5 3.9-6.7 7.3-8.5 2.6-1.4 5.5-2.3 8.5-2.8 4.4-.7 8.8-1.8 13.2-2.7l.4.2z"/><path fill="#bec0b6" d="M55.6 32.2c3.5-.7 6.9-1.7 10.5-2.1.2 0 .5-.1.5-.3.1-.2-.1-.4-.3-.5l-1.3-.5 6.1-1.3-.8 1.4c-.5.1-.4.5-.6.9a2 2 0 0 1-.4.6c-.3.3-.4.8-.9.8-.5-.2-.3-.6-.5-.9 0 .5.6 1 .2 1.5-5.8 1.5-11.7 2.3-17.5 3.9l-.9.1a.8.8 0 0 1-.7-.5c-.1-.4.4-.4.6-.5 1.7-1.5 4-1.6 6-2.6z"/><path fill="#8f8d82" d="M34.5 41.5c.5-.3-.2-1.4.7-1.2.7.1 1 .9 1 1.5.1 1-.5 1.8-1.3 2.3-.8.4-1.8.2-2.5-.3-.5-.4-.4-1.1-.2-1.6.2-.6.6-.4 1-.2.2.1.7-.2 1.1-.1.2-.1.4.1.3.2-.4.3 0 .6 0 .9-.5.4-.9-.2-1.4-.1 1.3.7 1.4.6 1.7-.4l-.4-1z"/><path fill="#4f503f" d="M67.9 31.6c-.1-.6-.5-1.2-.3-1.9.7.2.3.9.7 1.3l1.2.5c.4.3.3.5-.1.7l-.2.1-.5-.1-.8-.6z"/><path fill="#5e5548" d="M34.5 41.5c.4.2.6.5.6.9.1.5 0 .7-.5.5-.6-.2-.2-.7-.3-1l.2-.4z"/><path fill="#918f81" d="M69.4 32.2c.2-.3.2-.4-.2-.5-.4-.1-.7-.2-.9-.7.5-.1.2-.9.8-.9.2-.3.4.3.6 0 .1-.2-.2-.3-.3-.6.3-.2-.6-1.7.8-.8l.3.3c.7 1.6.3 2.7-1.1 3.2z"/><path fill="#c4c1ba" d="M90.2 29.3a5 5 0 0 1-1.3.4c-2.2.4-4.3 1-6.5 1.5-5.8 1.3-11.5 2.8-17.3 4.2-3.7.9-7.6 1.5-11.1 3.2-.9.4-1.9.9-1.6 2.1.3 1.3 1.3 1.2 2.4 1.1.1 0 .2 0 .1.1l-.4.1c-2 .7-2 .8-1.6 2.8l.1.7c.2 1.3 2 1.7 1 2.2-1 .6-1.2 1.1-.5 2l.5.6h.1c-.6.5-.7 1.1-.6 1.8.2.6.7.3 1.1.3.2 0 .4 0 .4.2 0 .3-.2.5-.4.6-.6.3-1.4.1-1.7.9l-.3.2c-.4 1-1 1.8-2.1 2.2-.6.2-1.6.2-1.4 1 .1.7 1 .4 1.6.6l.2.2c-.2.5-.7.8-.9 1.3a5.4 5.4 0 0 1-7 2c-1-.5-1.9-1.4-2.8-2-1.1-.8-1.6-.6-1.8.7-.2 1.4-.9 2.1-2.3 2.2-1.2.1-2.4.6-3.1 1.8l.1.4c.7.4 1.7.1 2.2 1.1.3.7.1 1.4 0 2.1-.1.8-.1 1.5.7 2 1.4.9 2.9 1.7 4.7 1.2 1.1-.2 2.1-.4 3.2-.8 0-.7.4-1.4-.1-2.2l-2.9-4.3-.8-1.7c-.1-.4-.5-1 0-1.3.4-.2.8.3 1.1.6.8.8 1.7 1.4 2.8 1.6.3 0 .6.2.8.4.7.8 1.7 1.1 2.7 1.4 2.9.9 5.7.9 8.6-.1l2.9-.9 12.8-3.5c.5-.1 1.3-.3 1.2-1-.1-.7-.7-1.1-1.3-1.4H71c-.3 0-.6 0-.7-.3-.1-.3.2-.4.4-.5.9-.3.9-1 .6-1.7-.3-.8-.8-1.6-.9-2.5-.1-1.3-2.1-3.9-1.6-3.9s.5-.4.5-.8 0-.9-.2-1.3c-.2-.5-.1-1.1.2-1.5 1.3-1.7 2-3.8 4.2-4.7 1-.6 2-1.2 2.7-2.1-.1-.7 4.6-1.5 5.6-1.9 1.5-.6 3.1-.8 4.6-1.2l1.4-.4c.3-.1.7-.2.6-.6-.1-.3-.5-.4-.8-.4-.7-.1-1.3.1-2 .2-1.6.4-3.3 1.1-4.9 1-2.1-.2-4.2-.4-6.3.5.4-.7 1-.9 1.5-1.1 3-1.1 6.3-1.5 9.4-2.6 1.8-.6 3.6-1.1 5.6-.7.5.1 1.2 0 1.3-.8-.7-.5-1.2-1.1-2-1.3zM60.8 49.8z"/><path d="M55.2 51.6c-.3-.1-.8.4-.8-.2 0-.6.7-.5 1.2-.7.4-.1.5.1.5.5.1.9-.6.3-.9.4z" class="st67"/><path fill="#c7c8c2" d="M89.1 29c-.4-.6-1-.6-1.6-.4-.5.5-1.1.9-1.8 1.1l-14.6 3.4-14.4 3.3c-3.4.9-6.4 2.8-9.3 4.8-1 .6-1 1.1-.2 1.9-1 .1-2 .2-2.9.9-1.3 1-2.3 2.2-3.5 3.3-.3.3-.6.7-.4 1.2.2.6.8.5 1.2.5a23 23 0 0 0 3.7-.3l-2.9.4c-2.9.4-3.4.8-4 3.7-.2.9-.2 1.8 0 2.6.1.3.3.6 0 1-.5-.5-.5-1.1-.5-1.6.1-3.1.8-6.1 2.1-9 2.6-5.4 6.9-8.7 12.7-10l14.4-3.1c.5-.1 1-.1 1.3-.5 0-.6-.4-.7-.9-.8h-.8c-5.4 1.3-10.9 2.1-16.3 3.6-.3.1-.7.2-1 0 .1-.3.4-.4.6-.5 1.3-.8 2.8-1.1 4.2-1.5.4-.1 1.2-.1 1-1-.6-.3-1.1-.1-1.7 0l-9.8 2.1c-.7.1-1.4.3-2 .7-2.2.6-3.4 2.5-5 3.8-.7.6-1.2.9-1.8.1-.4-.5-.6-.4-.9 0l-1 .8c-.5.6-.8 1.6-1.4 1.8-.8.3-1.1-1.1-2-1.2l-.3.6c-.3 1.5-.2 3.1-.3 4.6-.3 6.6-.5 13.2-.3 19.8 0 1.1 0 2.1.8 3 .4.2.8.5 1.3.6.5 0 4.3-.6 4.6-1.6.3-1.1-.7-1.7-1.2-1.7-.1 0-1.3-.2-1.2-.7a8 8 0 0 1 3.1-1.8c2-.3 2.3-.5 2.5-2.4.1-1.1.3-1.3 1.2-.6 1.1.9 2.2 1.8 3.5 2.4 1.8.8 5.7-.2 6.6-1.8.3-.7.6-1.3 1.3-1.8.2-.1.5-.3.3-.6s-.4-.2-.7-.3c-.5-.1-1.1.2-1.8-.4 1.8-.6 3.7-.9 3.9-3.2l1.7-.7c.4-.1.6-.4.7-.7.1-.5-.4-.6-.7-.6-.7-.1-.8-.5-.6-1.1l.2-.8c.2-.3 0-.5-.2-.7-.8-.7-.8-1.1.3-1.6 1.5-.6 3-1.1 4.5-1.4.4-.1.9-.2 1.1-.7-.9-.3-1.5.3-2.3.4-.8.1-1.7 0-2.5.2-1.4.4-1.6.1-1.7-1.3 0-.4.1-.7-.2-1-1-1-.1-1.3.7-1.6.7-.3 1.5-.2 2-.9-.4-.4-.8-.3-1.3-.2-.8.2-1.6.2-1.8-.8-.2-.8.4-1.3 1.1-1.6 2-.9 4-1.6 6.1-2.1l18.9-4.5c3.6-.8 7.1-1.9 10.7-2.4.5-.1.7-.3.7-.8l-1.2-.3z"/><path fill="#4a4334" d="M69.4 29.6c.1.3.9-.1.6.5-.1.3 0 .8-.5.8s0-.7-.4-.7l.3-.6z"/><path fill="#c2bfb9" d="M34.5 42.9c.4.1.5-.2.5-.5.3 0 .5.2.3.5-.3.4-.7.9-1.3.8-.6-.1-1.2-.4-1.7-.9.9-.6 1.5.1 2.2.1z"/></svg>