<svg xmlns="http://www.w3.org/2000/svg" id="图层_1" viewBox="0 0 66 100"><style>.st0{fill:#212121}.st1{fill:#2c2c2c}.st2{fill:#424242}.st3{fill:#454545}.st5{fill:#141414}.st6{fill:#181818}.st7{fill:#282828}.st9{fill:#1f1f1f}.st10{fill:#545454}.st11{fill:#2f2f2f}.st12{fill:#3b3b3b}.st13{fill:#4d4d4d}.st14{fill:#383838}.st15{fill:#3e3e3e}.st17{fill:#5c5c5c}.st18{fill:#3d3d3d}.st19{fill:#2e2e2e}.st20{fill:#2a2a2a}.st21{fill:#5a5a5a}.st23{fill:#515151}.st24{fill:#3f3f3f}.st25{fill:#4a4a4a}.st26{fill:#272727}.st27{fill:#313131}.st28{fill:#232323}.st29{fill:#373737}.st30{fill:#343434}.st31{fill:#393939}.st32{fill:#222}.st33{fill:#242424}.st35{fill:#4e4e4e}.st36{fill:#5d5d5d}.st39{fill:#6b6b6b}.st40{fill:#2b2b2b}.st41{fill:#353535}.st42{fill:#090909}.st43{fill:#292929}.st44{fill:#111}.st46{fill:#0c0c0c}.st47{fill:#262626}.st48{fill:#303030}.st49{fill:#494949}.st50{fill:#2d2d2d}.st51{fill:#333}.st52{fill:#1a1a1a}.st54{fill:#363636}.st55{fill:#161616}.st57{fill:#171717}.st58{fill:#151515}.st59{fill:#464646}.st60{fill:#c7c7c7}.st61{fill:#818181}.st62{fill:#1c1c1c}.st63{fill:#252525}.st64{fill:#101010}.st66{fill:#131313}.st67{fill:#9e9e9e}.st68{fill:#f8f8f8}.st69{fill:#1b1b1b}.st70{fill:#e3e3e3}.st71{fill:#aaa}.st72{fill:#cacaca}.st76{fill:#e5e5e5}.st81{fill:#fcfcfc}.st82{fill:#aeaeae}.st83{fill:#d7d7d7}.st85{fill:#bdbdbd}.st87{fill:#d4d4d4}.st88{fill:#414141}.st89{fill:#484848}.st92{fill:#626262}.st94{fill:#c2c2c2}.st95{fill:#7a7a7a}.st97{fill:#191919}.st99{fill:#151716}.st103{fill:silver}.st107{fill:#575757}.st109{fill:#6c6c6c}.st110{fill:#6d6d6d}.st111{fill:#939393}.st114{fill:#8c8c8c}.st115{fill:#e6e6e6}.st117{fill:#5f5f5f}.st121{fill:#d8d8d8}.st126{fill:#919191}.st130{fill:#888}.st135{fill:#0b0b0b}.st136{fill:#0f0f0f}.st138{fill:#070707}.st144{fill:#a3a3a3}.st150{fill:#2d2f2e}.st152{fill:#212322}.st154{fill:#606060}.st160{fill:#21201f}.st161{fill:#e8e8e8}.st164{fill:#dcdcdc}.st165{fill:#dfdfdf}.st170{fill:#cecece}.st180{fill:#c4c4c4}.st188{fill:#cdcdcd}.st189{fill:#0b91d2}.st191{fill:#030303}.st197{fill:#f3f3f3}.st203{fill:#f5f5f5}.st207{fill:#d9dbda}.st208{fill:#313332}.st209{fill:#dbdddc}.st211{fill:#3a3c3b}.st214{fill:#c0c2c1}.st219{fill:#d7d9d8}.st231{fill:#7b7d7c}.st233{fill:#e7e9e8}.st237{fill:#e3e5e4}.st238{fill:#8a8c8b}.st239{fill:#5a5c5b}.st240{fill:#a1a3a2}.st241{fill:#2f3130}.st244{fill:#f3f5f4}.st250{fill:#c1c3c2}.st251{fill:#191b1a}.st262{fill:#1c1e1d}.st275{fill:#212424}</style><path d="M.2 7.7l1.3-.5 51.7-.4 12 1.1v83.4l-10.8 3.4-7.8-.3-.3 4.2-4.8 1.1-10.2-.8.3-5.9-4.7-.4-23.4-1.3-2.2-.6-.3-1.4z" class="st0"/><path d="M63.4 92.7l-.2.2c-.7-.3-1.4 0-2 .3-1.2.5-2.6.6-3.8 1.2l-.3.2c-.6.4-1.2.5-1.9.7-.2-.4.1-.6.2-1-.3-4.8-.1-9.6-.2-14.4v-9.6-15.6-5.9c0-.5-.1-.9.2-1.3.6 0 .5.4.5.8v2.9c0 .6-.1 1.3.3 1.9.2.3 0 .6-.1.8-.3.8-.4 1.7 0 2.5l.1.5c-.4 3.5-.2 6.9-.2 10.4l.1 1.1c-.2 1.3-.1 2.7-.1 4 0 .6 0 1.1.2 1.7l.1.6c-.6 2.2-.1 4.5-.3 6.7-.2 1.5.5 3 .3 4.5 0 .2 0 .4.3.4.7-.1.6.3.4.6-.8 1-.5 2.2-.6 3.3 0 .1.1 0 0 0v-.1c0-.6.3-.7.7-.4.6.4 1.2.9 2 .6.2-.1.5 0 .6.3.1.3.1.6-.1.9-.2.2-.4.4-.5.8.4-.4.8-.3 1.2-.4.7-.1 1.5.2 2.2-.3.2-.1.3-.2.3-.4.1-.5.4-.8.9-.9.6.2.4.7.4 1.1 0 .3-.2.6-.1.9-.1.5-.5.2-.6.4z" class="st1"/><path d="M1.3 88.6c0-7.9 0-15.8-.2-23.7-.1-6.2.1-12.4-.1-18.5-.2-6.3 0-12.6-.2-18.9L.7 14.4c-.2-1.5-.1-3-.1-4.5-.1-.5.1-1-.2-1.4-.1-.2-.2-.2-.4-.1v1.2l.3 27.1.3 28.4.3 23.8c0 .3-.1.7.1 1 .4-.3.3-.8.3-1.3z" class="st2"/><path d="M65.8 7.2c.3.3.2.7.2 1v63.2l-.1 19c0 .4.1.8-.2 1.1a.8.8 0 0 1-.2-.4v-.5-43.1-7l.1-.3c.2-1.8.2-3.7.2-5.5V24.1c.1-2.4-.3-4.8-.1-7.2l.1-8.1c-.2-.6-.4-1.1 0-1.6z" class="st3"/><path fill="#444" d="M1 90v-9.7-8.5C.8 65.4 1 59 .9 52.6L.7 31.5C.5 25.8.6 20 .5 14.3c.2-.1.3-.1.4.1v7.2l.3 4.5c.1 1.9.1 3.8-.1 5.7-.1.6.2 1.3.1 2 .2 2.1-.3 4.2 0 6.3.2 1.2.1 2.3 0 3.5-.1 1-.2 1.9.2 2.9v.6c-.2 1.1 0 2.1-.1 3.2v.7c0 .5-.1 1.1.1 1.6v1.8c-.2.7-.2 1.3 0 2 .2.6-.1 1.2 0 1.8V77.5c0 1.5-.1 3.1.1 4.6l.1 1.7v2.1l-.1.4c-.2.5-.1.9 0 1.4a6 6 0 0 1 0 1.9c0 .4 0 .7.2 1.1.3.2.7.3.6.6-.9-.1-1.2-.6-1.3-1.3z"/><path d="M55.6 94.6l-.3.7c-1 .4-2 .1-2.9 0-.2-.4-.2-.7.3-.7h.2l.9.2c.4.1-.1-.2.1-.2l.3-.6c0-3 .1-6-.1-8.9v-1.4l.1-1.2v-6.6c0-.3 0-.7.3-.9.2-.1.3 0 .5.1.3.3.3.6.2 1-.3 1.4-.2 2.8-.1 4.2.1.8 0 1.7.4 2.4.1.3.1.6-.1.8-.3.4-.1.8-.2 1.1-.1-.2-.1-.6.1-1 .4 0 .3.2.2.4v5.3c.1 1.7-.2 3.5.1 5.3z" class="st5"/><path d="M52.7 94.8c-.6-.2-.2.3-.3.5-1.8 0-3.7-.3-5.5-.5-.4.3-.7 0-1.1.1h-1.3c-.9-.2-1.8-.1-2.6-.3h-1.2l-2.9-.3-.9-.1c-.7-.2-1.4 0-2-.2-.6-.2-1.2 0-1.8-.2-.8-.2-1.7 0-2.5-.5l-6.7-.6c-.1-.6.3-.5.6-.5 2.1.1 4.2.2 6.3.5.5.1 1.1-.1 1.6.1 1.7.2 3.3.4 5 .4l.9.2 5.2.4c1.1.1 2.2.2 3.3.1.5.2 1.1.1 1.7.3h1.2c1-.4 1.8.1 2.8.2.1-.1.4 0 .2.4z" class="st6"/><path d="M32.5 92.9c-1.6.1-3.2-.1-4.8-.3-1.1-.2-2.3.1-3.5-.2-.2 0-.3.1-.3.3-1.4.1-2.9-.1-4.3-.2-.4-.3-.2-.5 0-.8.5-.4 1.1-.2 1.6-.1.4.1.8.1 1.1-.1l.5-.1c.3.2.9-.1.8.6-.2.2-.4.1-.9.1l.8-.1c.3-.3.7-.3 1.2-.3.9 0 1.8.2 2.7-.1h2c1.2.2 2.5.3 3.7.3.5 0 1.1 0 1.4.6-.6.6-1.3.5-2 .4z" class="st7"/><path fill="#434343" d="M15.7.6c.5-.3 1-.3 1.6-.4l7.6-.1.1.4c-.1.2-.2.4-.4.4L24 .8c-1 0-1.9.2-2.8.4-.6.1-1.4.3-2-.2-.1-.1-.1-.2-.2-.1-.4.7-1.2.1-1.7.7.3.2.8-.1 1 .3.1.3 0 .5-.1.7-.8.5-1.6 0-2.4.2-.4.1-.1.4-.2.4-1 .5-1 1.4-1 2.3-.1.2-.1.4-.4.2V1.4c0-.4.2-.5.6-.6.2-.1.6 0 .9-.2z"/><path d="M19.5 91.8c0 .2-.2.4 0 .7l-8.1-.4c-1.1-.1-2.2 0-3.3-.2-.3-.3-.8 0-1.1-.4.4-.5.9-.5 1.4-.6l5.1.4h2.4l3 .2.6.3z" class="st9"/><path d="M12.1 6.7h1.7c-.1.5-.5.2-.8.3 1.7-.3 3.3.4 5 .1.7-.1 1.4.1 2.1.1.5 0 .5.4.1.7l-.9.1-6.2.2c-.5 0-1 .1-1.4-.3.1-.3.1-.3-.1-.3H7.5c-.3 0-.6 0-.8-.4.5-.2.9-.1 1.4-.1H7c-.2 0-.4 0-.3-.3 1.2-.3 2.4-.1 3.7-.1.6.2 1.1 0 1.7 0z" class="st10"/><path d="M33.2 99.3l-.5-.1-.1-.1c-1.6-.2-1.6-.2-1.6-1.8v-1.4c.1-.3.4-.2.6-.1.5.4 1.1.5 1.7.6.6 1 .6 1-.6 1.2-.5.1-.9.1-.3.7 1 .4 1.5-.5 2.1-.8.6-.3 1-.4 1.3.2-.1.3-.3.7 0 1 .3.2.4.4 0 .6h-.7c-.5-.3-1.1-.3-1.6-.3.2.1.5 0 .8 0 .2 0 .3.2.1.3-.4 0-.8.2-1.2 0z" class="st11"/><path d="M35.1 6.5H41c.2.2.5.3.8.3 1.5-.1 3-.1 4.5.1 1.6.2 3.3 0 4.9.2.4 0 1-.2.8.7-1.2.4-2.5.1-3.7.2h-1c-.7 0-1.3.1-2-.1-1-.4-2-.3-3-.2l-1.1-.1-.8-.1a2 2 0 0 0-1.1 0h-.5c-.4-.1-.9-.3-1.3-.1-.7.1-1.3-.1-1.9-.2-.3-.3-.6-.4-.5-.7z" class="st12"/><path d="M20.4 7.7c0-.2 0-.5-.2-.4-1 .3-2-.5-3 .2-.3.2-.6-.1-.9-.2-1.2-.2-2.4 0-3.6-.4.4-.2.8.1 1.1-.3h.1l.3-.1c1.9 0 3.8.1 5.6-.1 1.1-.1 2.3.1 3.4.2.4.4.8.4 1.2.5.3 0 1 0 .6.7-.7.2-1.4.1-2.1.1-.5-.1-1.1 0-1.6 0-.3 0-.7.1-.9-.2z" class="st13"/><path d="M26.4.1h3.5c.3 0 .6-.1.6.4v5.7l-.1.1-.1-.1-.1-.3-.3-.9v-.2c.1-.8-.4-1.4-.5-2.2 0-.3-.2-.7 0-1 .3-.6-.1-.7-.6-.8l-1 .2c-.7.1-1.4.4-1.9-.3-.1-.4.3-.4.5-.5V.1z" class="st14"/><path d="M41.1 6.7c-.5-.3-1.1-.1-1.6-.2h-3.2c1.1-.3 2.2-.1 3.3-.1l13.7-.2c.2.1.2.3 0 .4l-.4.1c-2.2.3-4.4 0-6.6.1h-4.7l-.5-.1z" class="st15"/><path fill="#5b5b5b" d="M6.7 6.8c.5.5 1.1 0 1.7.3l-1.5.1c1.8.3 3.7-.2 5.6.3-.3.2-.6 0-.8.2-.1.4-.4.3-.7.3-.5 0-1-.1-1.5.1l-3.6.1H5c-1.1-.1-2.2.1-3.3-.2 0-.4 0-.5.5-.5.8 0 1.6-.1 2.4.1h.1c.1 0 .1 0 0-.1.5-.5 1.1-.2 1.5-.3.2 0 .1-.1.1 0h-.1c-.2 0-.4 0-.3-.3l.8-.1z"/><path d="M65.8 7.2v1.5c-.2 0-.4-.2-.4.1-.4.7-.5 1.4-.5 2.2 0 .4.2.9-.3 1-.5.1-.5-.5-.6-.8v-.3L63.9 7c.5-.5 1.1-.3 1.7-.1l.2.3z" class="st14"/><path d="M58 6.1c2.2-.2 4.3-.1 6.5 0 .2 0 .5 0 .6.2-.5.5-1 .3-1.6.3l-.5-.1c-2.7.4-5.3.4-8 .4l-.3-.1c-.2-.1-.4-.2-.3-.5 1-.2 1.9-.1 2.9-.1h2.5c-.5 0-1.2.1-1.8-.1z" class="st17"/><path d="M35.1 6.5l.3.4c-.9.3-1.9.3-2.8.2-.8-.1-1.5-.2-2.3.1L24.6 7c-.2 0-.6 0-.5-.4l.2-.1 1.3-.1 4.5-.3.3.1.1.1c1.1.3 2.1.1 3.2.1l1.4.1z" class="st18"/><path d="M4.7 7.5h.5v.2H2.5c-.3 0-.6-.1-.9.2-.6.3-1 .8-.9 1.5 0 .2 0 .4-.3.4V8.4C.2 7.8.7 7.5.9 7c1-.4 1.9-.2 2.9-.2-.3.6-.8.2-1.2.3h-.9c-.1 0 0 .2 0 .1l.1-.1h2.3l.6.4z" class="st2"/><path d="M57.2 94.6c.3-.5.6-.8 1.3-.8.8 0 1.5-.4 2.3-.6.6-.2 1.1-.8 1.9-.6.3.1.5.1.6.4-.8.4-1.8.4-2.6.7l-3.5.9z" class="st19"/><path d="M7.1 91.5c.4 0 .7.1 1 .4-2-.2-3.9-.2-5.9-.5l-.5-.5c.1-.4.4-.6.7-.2.8.5 1.7.3 2.5.3.9-.1 1.6.1 2.2.5z" class="st20"/><path d="M4.7 7.5c-1-.4-2.2-.2-3.4-.4.9-.3 1.8.1 2.5-.3h2.1c.1.3.3.2.5.3-.5.6-1.2 0-1.7.4z" class="st21"/><path fill="#535353" d="M31.2 95.8V98c-.1.7.2 1 .9 1 .2 0 .5 0 .6.2-1.7 0-1.7 0-1.7-1.5v-3.5c0-.3 0-.6-.4-.8l2.5.3-.1.2c-.2.2-.3.6-.6.6L32 94h-.2c-.6 0-.4.5-.4.9v.4c-.1 0 0 .3-.2.5z"/><path d="M14.2 6.7H14v-5c0-.8.1-1.3 1.1-1.1h.7c-1.1.1-1.7.5-1.5 1.9.1 1 0 2.1-.1 3.1.2.2.2.5.1.8l-.1.3z" class="st10"/><path d="M58 6.1h2.1v.2h-4.8c-.3 0-.6-.1-.9.2-.2.2-.5.2-.8.1l-.1-.1-.2-.3 4.7-.1z" class="st23"/><path d="M65.7 91.1v.4c-.5.9-1.4 1-2.3 1.2.1-.3.4-.2.5-.4-.1-.1 0-.2.1-.3.4-.2.7-.5 1-.9.2-.3.4-.3.7 0z" class="st14"/><path d="M63.6 6.5l1.6-.2c.3.1.5.2.5.5h-1.6c-.3.1-.4-.1-.5-.3z" class="st3"/><path d="M.8 7c.2.6-.3.9-.4 1.4H.1C0 7.8.2 7.3.8 7z" class="st2"/><path d="M12.1 6.7c-.6.1-1.1.6-1.7 0h1.7z" class="st24"/><path d="M46.8 96l-.1.1c-.3-.4-.3-1-.9-1.2-.1-.1-.1-.1 0-.2l1.1.2-.1 1.1z" class="st25"/><path d="M26.4.1v.1l-.8.2c-.2 0-.5 0-.5-.3h1.3z" class="st26"/><path d="M25.1.1c.1.2.3.1.5.2.1.1.1.3 0 .4-.3.2-.5.1-.7-.2V.2l.2-.1z" class="st14"/><path d="M56 68.3c-.3-.3-.2-.6-.2-.9v-6.8l.1-2.7c.1-.9-.1-1.7-.1-2.6 0-.7-.1-1.4.5-2-.6-.6-.5-1.3-.5-2v-3.1c0-.3.1-.6-.2-.8-.2-.2-.3-.5-.3-.8-.1-1.9.1-3.8-.1-5.7l.1-.5c.7-.8.3-1.9.5-2.8.1-.3 0-.7.7-.9-.7.1-1.1 0-.8-.7.2-.6.2-1.2.1-1.8-.1-.8-.2-1.6 0-2.5.1-.4-.4-.6-.4-1v-7.8V16c.3-1.5.1-3 .2-4.5l.1-1.2c.1-.4.3-.8.9-.8-.8 0-.8-.5-.7-1 .1-.6.5-.7 1-.5l.9.1c.4 0 .6.2.7.5.1.3 0 .6-.3.7-.2.2-.2.3-.1.5.2.6.5 1.2.5 1.8 0 .6-.3 1-.9.8-.7-.2-.7.4-1.1.7-.2-.6-.2-1.2 0-1.8-.2.7-.2 1.4 0 2.1.1.5.3.5.7.5l5.2-.5h1.1l.8.3.2.4v.4l.1 4.2c0 .8.2 1.6-.2 2.3-.8 0-.2.7-.4 1l-.1.2c-.5.1-.5-.3-.5-.6 0-.7-.4-.9-1-.8-1 .1-2-.2-2.8.6-.1.1-.3.1-.4-.1-.4-.7-1-.6-1.7-.6-.5 0-1.2.1-1.1-.8l.2 1.6c-.1.5.2.7.7.7 1.4.2 2.7.2 4-.5 1.2-.6 2.1-.2 2.8.8l.1 4.6v1c-.3.5-.5 1-.2 1.5l-.1.7c.3.8.2 1.7.1 2.5l-.1 2.8c0 .5.1 1-.3 1.5-.2.3 0 .9.1 1.3.3.9.3 1.8.2 2.8-.1 1 0 2.1.1 3.1v.7l-.1.3c-.2.4-.2.8-.1 1.3.3 2.6.2 5.2 0 7.8-.1.9.3 1.7.2 2.6l-.1 4.4c-.2.6 0 1.3-.4 1.8v.3c.8 1.2.5 2.5.5 3.7l-.1 2.5-.3.6c-1-.4-1.7.5-2.6.6 1 .4.1.9.1 1.3-.8.2-1.4.6-2.1 1-.5.2-.9.4-.5 1.1.2.5 0 .7-.5.6l-.9-.1c-.4.1-.4-.2-.6-.5-.9-1.4-.4-3-.4-4.5-.2-.6 0-1-.2-1.5z" class="st27"/><path d="M56 68.3c.3.5.4 1 .2 1.5-.2.9.1 1.9-.2 2.9-.1.2.1.4.3.5.3.2.6.4.4.9-.1.1.1.4.2.3.6-.5 1 .1 1.4.2.2-.1.1-.2.1-.3-.5-.8-.4-1.1.5-1.4.8-.3 1.4-.9 2.3-.9.3-.4.9-.6 1.5-.6.2 1 .2 1.1-.8 1.3l-1.1.2c-.8 0-1.1 1.1-.6 2 .2.3.4.6 0 .9-.1.1-.3.2-.1.4l.8.2c.9-.2 1-.1.7 1 .8-.1 1.7-1 2.3.2l.1.2c0 .4 0 .9-.2 1.3l-.3.2c-.2-.6-.4-.8-1.1-.5-.7.3-1.5.6-2.1.6.7.3 1.6.2 2.5-.1.2-.1.5 0 .7.1 1 1 1 1.6.3 2.7l-.1.1.1-.1c.3.2.3.5.3.8v2.6l-.1.4c-.2.3-.2.7-.1 1v.2c0 .2-.1.4-.3.5-1.2.5-2.3 1.5-3.7 1.5h-.2c-.3.1-.6.5-.9.2-.4-.3-.6-.8-.7-1.2-.2-.7.4-1.3 1.4-1.3 1 .1 1.6-.6 2.4-.9.1 0 .2-.1.2-.3 0-.1-.1-.2-.3-.2-.3-.1-.7 0-1 .1-.5.2-.9.1-1.2-.3-.4-.5-.9-.7-1.5-.8-1.2-.3-1.7-.9-1.7-2.2 0-.3 0-.6-.3-.8V76c0-.4-.1-.9.3-1.3l.1-.5c-1-1.8-.7-3.8-.5-5.9z" class="st27"/><path d="M55.6 40.4c-.3.6 0 1.1 0 1.7v5.4l-.1 5.6c-.1 1 .1 2 .1 3v36.8c0 .6.5 1.2 0 1.8-.6-1.1-.3-2.2-.3-3.3V88l.1-2.7c0-.6.2-1.1-.1-1.7.2-.5.2-.9-.2-1.3-.3-.4-.5-.8-.2-1.2.2-.3-.2-.5-.2-.9v-3.7c0-.3.3-.5.3-.8.1-.4-.3-.5-.5-.7-.3.3-.2.6-.2.9v6.8c0 .3.1.6-.2.9-.3-.7-.1-1.6-.1-2.3l.1-8.1v-.3c.2-.4.1-.8 0-1.2V71v-7.9-7.2-10.8l-.1-2.8.2-4.3v-7-4.5l.1-.9c.3-.3.3 0 .4.2.2.4.1.7.1 1.1v11.3l-.1 8.1c.1 2.8-.1 5.6.1 8.4v4c-.1 1.3.1 2.7.1 4.1v3.4l.1-.6c-.1-.8-.2-1.6.2-2.4.2-.3.1-.8 0-1.1a6.4 6.4 0 0 1 0-4.3v-.9c-.2-.7-.4-1.3 0-2v-.3c-.5-1-.4-2.1-.2-3.1.1-.3 0-.6-.1-.9-.2-.7-.2-1.5 0-2.2.2-.7-.2-1.4-.1-2.2l.1-6.7c0-.5.4-.9.5-1.4.1-.2.1-.5.5-.6.3.2.4.5.3.8-.5.6-.2 1.4-.6 2.1z" class="st6"/><path d="M55.8 81.6c.5 0 .7.2.6.7-.2 1.1.4 1.8 1.6 2.1.7.1 1.4.2 1.7 1.1.1.4.5.3.7.1.5-.2.9-.3 1.4-.1.2.1.4.1.4.4 0 .2-.1.4-.3.5-.7.2-1.3.7-2 .9h-1.3c-.6.2-.6.6-.5.9.1.4.6.6.6 1.1 0 .1.3.1.4 0 .3-.5.9-.4 1.3-.4.3 0 .6-.1.8-.4.3-.4.6-.7 1.2-.5.4.1.4-.7.9-.5 1-.1.7.7.7 1.2a3 3 0 0 1-.4 1.6c-.4.2-.8.3-.7 1 .1.5-1 .6-1.5.7l-2 .1-.2.3c-.1.1-.1.3-.3.2l-.2-.4c.2-.3 0-.8.5-.9.5-.2.4-.6.2-.9-.1-.3-.4-.2-.7 0-.6.4-1-.2-1.4-.4l-.7-.5c-.2.2-.1.4-.1.6 0 .2.2.4-.1.7-.5-1.7-.6-3.2.5-4.7-.6.6-1 .3-.9-.3.3-1.2-.2-2.7-.2-4.2z" class="st19"/><path d="M63.8 90.5l.2-1.7c.2-.1.3-.1.4 0 .2 1.2.5 2.3-.3 3.4l-.2.2c-.4-.1-.3-.4-.1-.6.2-.5.3-.9 0-1.3z" class="st28"/><path d="M.4 9.8c.2-.2.2-.5.2-.7-.1-.8.2-1.2 1-1.2h3.5c.1.4-.3.6-.3 1 0 .1-.5.3.1.4.1 0 .2.2.1.3-.5.6-.5 1.5-1.4 1.9-.6-.6-.6-.6-1.1.4.3.6.1 1-.3 1.4l-.6.7c-.2.1-.3.4-.5.4H.7C.2 12.8.5 11.3.4 9.8z" class="st2"/><path d="M65.7 46.2v44.6c-.8-.1-1.1-.6-1-1.5.1-1 .3-2 .6-2.9l.1-.9c-.3-1.8-.1-3.6-.1-5.4 0-.1.1-.2 0-.2-.4 0-.5-.3-.6-.6-.1-.4.3-.5.5-.7.2-.2 0-.3-.1-.4-.4-.4-.6-.7-.3-1.3.2-.4.1-1.1-.2-1.7a3 3 0 0 1-.3-1.3l.1-.6c.2-.4.4-.7.1-1.1l-.1-.4c.3-.8.1-1.6.3-2.3 0-.1.1-.1 0-.1-.7-.7-.2-1.7-.5-2.5l-.1-12.2V47l.5-.8c.4-.4.8-.5 1.1 0z" class="st14"/><path d="M65.7 46.2c-.7-.5-1 .2-1.4.5-.3-.4-.3-.8-.2-1.2v-1.8c.1-.1 0 0 0-.1.3-.3.3-.4 0-.7v-1.8c.4-.4.1-.8 0-1.2 0-2.4-.2-4.8 0-7.1.7-.6 1.1-1.3.5-2.3-.2-.2 0-.7 0-1-.2.2.4.9-.5.7-.2-1.1 0-2.1 0-3.2l.1-.4c.5 0 .5 0 .6.7-.2-1.8.6-3.5 0-5.3.1-.2.3-.5.1-.7-.3-.6-.5-1.1 0-1.7l.1-.5c-.5-1.5-.4-3.1-.5-4.6v-.3c0-.2 0-.3.2-.4.5-.1.7.3.9.6l.1.4c-.4 2.7-.1 5.4 0 8.2 0 .4-.1.9.1 1.3v6.2l.1 7.5c0 .8-.3 1.6-.1 2.5l-.3.2c-.3-.3-.3-.7-.6-1 .1.1 0 0 0 .1.2.3-.1.9.6.9.2.7.2 1.3.2 2v3.5z" class="st29"/><path d="M64.5 73.9c-.1 1 .8 1.7.6 2.7 0 .3.3.5-.2.7-.3.1.1.5.3.6.6.6.6.7-.1 1-.6.3 0 .5 0 .7.5-.1.3.3.3.6.1 1.7-.2 3.5.2 5.2.2.8-.1 1.7-.6 2.4 0 .1-.1.2 0 .2.5.8-.5 1.7.3 2.5l.5.2v.3c-.3-.2-.4 0-.5.2-.2.4-.5.8-1 .8.3-1.1.1-2.3.2-3.5-.2-.8-.2-1.7-.2-2.5l.1-5.3c0-1.6.1-3.3-.1-5-.1-.6-.1-1.3.1-2-.1.1-.1.1.1.2z" class="st30"/><path d="M65.8 24.1c-.3-.5-.3-1-.3-1.5 0-2.6-.2-5.2.1-7.8v-.3l-.4-.8c-.2-.4 0-.8.1-1.2.1-.7.2-1.5 0-2.2 0-.5-.2-1 .2-1.5.1-.6.2.1.3 0 .1 5.1-.2 10.2 0 15.3z" class="st14"/><path d="M1.2 77.5V58l.3.1c.2.3.1.7.1 1v6.2 10.8l-.1 1.1c0 .2-.1.3-.3.3zM1.1 33.8c0 .2 0 .4.2.5.3.3.2.7.2 1.1V40c0 .8.3 1.6.1 2.4-.3 1-.1 2-.1 3.1 0 .4.1.8-.2 1.1-.6-.9-.4-2-.3-2.9v-4c-.1-1.1-.2-2.2.1-3.3v-1.8c-.2-.4-.3-.6 0-.8z" class="st18"/><path d="M1.2 77.5l.2-.2c.3 0 .4.3.4.5-.1 1.4.1 2.9-.3 4.3l-.1.1c-.3-.6-.1-1.3-.2-2v-2.7z" class="st31"/><path d="M1.2 47.1c-.1 1.1.2 2.2-.2 3.3.1-1.1-.1-2.2.2-3.3zM1.2 54.5v1.9c-.3-.6-.3-1.2 0-1.9zM1.1 51.1c.3.5.1 1 .2 1.6-.4-.6-.2-1.1-.2-1.6z" class="st18"/><path d="M1.4 84.8c.6.4.1.8 0 1.2v-1.2zM1.4 86.3v1.4c-.3-.5-.3-.9 0-1.4z" class="st31"/><path d="M54.3 72.8v12.1c.2 1.3 0 2.6.1 4-.1.4-.2.9-.1 1.3.2.8-.3 1.5-.4 2.3v.1c-.4.4-1 .7-1.1 1.5 0 .4-.9.3-1.2.2-1-.4-2-.2-2.9.1h-.2c-.1-.1-.4-.2-.4-.4.1-.6.5-.7 1-.6 1.1.2 1.7-.4 1.5-1.6l.2-.6c.2-.3.4-.5.4-.8.2-.5.4-.8.9-.8l.1.2c.1.1.1 0 .1 0 .1-.4.4-.5.6-.7.5-.4.8-.8.7-1.4v-7.2l.1-.9c.2-.5.3-.9.2-1.5-.2-1.5.2-3.1 0-4.6-.1-.5 0-.7.4-.7z" class="st32"/><path d="M48.6 94.3c.7-.7 1.6-.4 2.5-.3l1 .2c.6 0 1-.2.5-.9-.3-.4 0-.6.3-.5.7.1.9-.1.7-.8v-.1c.9-.8.2-1.9.7-2.8v5.2l-.3.3c-.3.1-.7-.1-1 .2h-.2l-.1-.2c-.9 0-1.8-.8-2.8-.3-.5.2-.9-.1-1.3 0z" class="st9"/><path d="M54.3 94.3v-5.2V85c.2.2.2.4.2.6v8.1c-.1.2 0 .4-.2.6zM52.9 94.8c.3-.4.6-.5 1-.2 0 .1.5.3 0 .3-.3.1-.7-.1-1-.1zM55.3 83.5v1.2c-.1-.4-.3-.8 0-1.2z" class="st6"/><path d="M51.1 90.3c.1 0 .3 0 .2.2l-.8 1c.1.2.3-.1.5.1-.3.2-.5.5-.6.9-.1.2.3.6-.2.7-.4.1-.8.6-1.3.3s-.8 0-.9.4h-1.4c-1.8.2-3.5-.1-5.2-.3l-2.2-.1c-.4 0-.8.1-1.1-.2-.2-.4.1-.5.3-.5.4-.1.8-.3 1.2-.2 1 .3 2 0 3 .3.4.1.8.1 1.2-.2 1.2-.1 2.4.1 3.6.1.5 0 .9-.3 1.2-.6l2-2 .5.1z" class="st33"/><path d="M43.9 93.1c-.3.5-.6.3-1.1.2-.7-.2-1.6 0-2.2-.1-.7-.2-1.3-.1-2-.1-.2 0-.4.1-.4.3l-.9-.2c0-.3-.2-.2-.4-.2-.6 0-.8-.1-.6-.6.9-.5 1.8 0 2.7 0l4.1.2c.3.1.7 0 .8.5z" class="st7"/><path d="M36.1 92.5c.5.6 1.2.3 1.9.2-.1.5-.5.3-.6.4v.2c-.9.3-1.7 0-2.6 0-.7-.1-1.3-.2-2 0-.2.1-.2-.1-.2-.3.7 0 1.3-.1 1.9-.3l.3-.1c.4 0 .7.2.9.6-.3-.7-.1-.8.4-.7z" class="st33"/><path fill="#4f4f4f" d="M33.1 93.5c.6.1 1.2-.1 1.7.2l-.1.1-.3.2-.2.2-.2.1c-.3-.2-.3 0-.4.2-.2.4-.5.4-.7 0-.1-.3-.1-.6.2-1-.1.1-.1.1 0 0z"/><path d="M37.7 94l3 .3c0 .1.1.1 0 .2l-.6.3c-.4-.2-.7-.4-1.2-.3a2 2 0 0 1-1.1-.3l-.1-.2z" class="st35"/><path d="M41.8 94.3c.8.3 1.8 0 2.6.3v.1l-.2.2c-.7.1-1.4-.2-2.1-.1a.8.8 0 0 1-.4-.2l.1-.3z" class="st36"/><path fill="#505050" d="M34.7 93.7c.7.1 1.4-.1 2.1.1-.1.2-.2.4-.4.4-.5-.2-1.1-.1-1.6-.3l-.1-.2z"/><path d="M46.7 93.9h1.4l.3.3c-.5-.2-1.2.1-1.7-.3z" class="st9"/><path d="M41.8 94.3v.3c-.2.2-.5.1-.7.1a.5.5 0 0 1-.5-.3v-.2l1.2.1z" class="st36"/><path fill="#737373" d="M36.5 94.3c0-.2.2-.4.4-.4l.8.1v.1l-.2.1-.9.3c-.1 0-.2-.1-.1-.2z"/><path d="M44.4 94.7v-.1h1.4v.1c-.5.4-.9.4-1.4 0z" class="st39"/><path d="M34.7 92.5h-.3c-.5-.3-1.1-.3-1.6-.4-1.1 0-2.3 0-3.4-.3l-.1-.3.2-.2c.7-.2 1.4.1 2.1.1l5.9.4.5.1c.4.2.9.2 1.3.1.5-.1.9-.1 1.4.1a38.8 38.8 0 0 1 6 .4c.3.2 1-.1.9.7l-3.8-.2c-1-.4-2-.2-3-.3-1.1-.2-2.3 0-3.5-.3-.4-.1-.8.1-1.3.1-.3-.2-.8.1-1.3 0z" class="st29"/><path d="M19.5 91.8l-4.9-.3-3-.2c-1.1-.1-2.3-.3-3.4-.2v-.3c.7-.4 1.5-.4 2.1-.2 2.1.5 4.1.3 6.1.2 1.7-.1 3.3.2 5 .3.3 0 .6.1.7.4-.2.6-.8.3-1.1.3-.4-.1-.9-.3-1.5 0z" class="st40"/><path d="M22.3 91.5c-1.8-.3-3.6-.3-5.5-.4l-.2.1c-.3-.2-.6-.1-.9-.1-.2 0-.4 0-.3-.3.4-.3 1-.1 1.4-.3 1.9-.2 3.8.1 5.7.3h1.3c.5 0 1-.1 1.3.5-.2.4-.6.3-1 .3l-1.3-.1h-.5z" class="st12"/><path d="M24.2 91.5c.2-.3.6-.1.9-.2.4-.4.8-.4 1.3-.3.5.3 1.1.4 1.6.1.3 0 .6-.1.9.1l.4.5v.2h-2.2c-.9-.2-1.9 0-2.9-.4z" class="st15"/><path d="M24.2 91.5c1 0 2 .1 2.9.3-.2.1-.4.3-.8.2-.4-.2-.8-.4-1.1.1-.1.1-.1.1-.2 0-.5-.3-1-.3-1.6-.1.2-.7-.6-.1-.7-.5h1.5z" class="st40"/><path d="M23.6 92c-.3.4-.6.2-.9.3v-.2c.2-.2.5-.1.9-.1z" class="st40"/><path d="M24.9.4l.7.2h.3c.5.6 1.2.4 1.8.2l1.1-.2c1.1 0 1.1.1.7 1.1-.3.7.2 1.3.4 1.9.1.5.4.8.2 1.3-.2.2.1.6-.4.6-.3 0-.4-.3-.6-.4-.8-.5-1-1.4-1.4-2.1-.1-.2-.3-.5-.6-.4-.4.1-.2.4-.1.6.1.3-.1.5-.4.7-.3.1-.4-.1-.5-.3-.2-.3-.4-.4-.6-.1.5-.3.7-.1.6.4-.1.4-.2.8-.5 1.1-.3.3-.2.6-.2.9-.2.3.2.5.2.7h-1.4l-2.5.1c-.6 0-1-.7-.7-1.1.3-.5.5 0 .8 0l.8.4.4.2-.1-.4c.3-.2.6 0 .9-.2l.3-.3c.2-.3.2-.5.2-.9l.2-.5.4.1.2.4c0-.8-.2-1.7.1-2.5.2-.6-.5-.7-.6-1.1l.3-.4z" class="st27"/><path d="M18.3 1.8c-.5-.2-1.1.3-1.5-.4l1.5-.6c.9-.4 1.5.4 2.3.1.1 0 .3.1.4 0 .9-.6 2-.4 3-.5.2.3.1.5-.2.7l-.8.1c-.2 0-.5 0-.5.3-.1.5.3.4.5.5l.3.1c.6.4.3.7-.2.7-.7.1-1.1.5-1.3 1.2l-.2.3c-.2 0-.3-.1-.4-.3-.2-.6-.2-1.4-1.2-1.3-.2 0-.3-.3-.3-.5.3-.5.1-.7-.4-.7-.3 0-.5.1-.8.3h-.2z" class="st15"/><path d="M15.6 3c0-.1-.5-.3 0-.4.5-.1 1.1-.5 1.6-.1.4.3.7-.4 1 0h.1c.3-.5.8-.5 1.1-.2.4.3-.3.5-.3.8-.4.3-.8.5-1 .9-.3.4-.2 1-.6 1.4-.2.3-.5.6-.8.1.3-.7.3-1.4-.5-1.7l-.5-.3c-.1-.2-.2-.3-.1-.5z" class="st18"/><path d="M15.6 3l.2.4.1.8c-.1.2-.3.2-.5.3-.4.6-.4.8.3 1.4.2.1.6.1.5.3-.1.4-.5.3-.8.3-.8-.1-1-.6-1.1-1.2 0-1.7.2-1.9 1.3-2.3z" class="st26"/><path d="M19 3c.1-.2 0-.5.5-.6-.5-.2-.9-.1-1.3.1l.2-.7c.5 0 1 .1 1.4.3.1.2.1.5.3.4 1.2-.4 1.1.7 1.4 1.3-.1.2-.2.2-.3.2a.3.3 0 0 0-.4 0l-.2.1c-.2 0-.3-.1-.5-.3l-.5-.4c0-.2-.4-.1-.6-.4z" class="st12"/><path d="M23.7 1.1c.3 0 .3-.2.3-.5l.5.2c.8.1 1 .6.8 1.3l-.1 1.6c0 .3 0 .6-.2.9-.2-.1-.1-.4-.1-.5-.2-.3-.2-.7-.2-1v-.2c-.2-.3.5-1.2-.6-.9h-.2c-.2-.4-.3-.6-.2-.9z" class="st14"/><path d="M15.7 1.3c.4-.2.7-.1.8.3.1.4-.3.5-.5.6l-.7.2c-.3 0-.5 0-.6-.3-.1-.2-.1-.5.1-.6.2-.3.5-.5.8-.2 0 .2-.3.3-.2.5l.3.1c.2-.2-.2-.4 0-.6z" class="st9"/><path d="M14.4 5.3c.3.4.3 1 1 1 .2.3 0 .4-.3.4s-.7 0-.9-.3v-.9c.1.1.2-.1.2-.2z" class="st41"/><path d="M15.7 1.3c0 .3.5.5 0 .7-.2.1-.6.3-.7-.2-.1-.4.2-.5.6-.6l.1.1z" class="st42"/><path d="M8.3 91v.2l-1.2.3c-1.4-.6-2.8-.2-4.2-.5-.3 0-.6 0-.6-.4H4.1c.3.3.7.2 1 0h.2l2 .1c.3.1.7 0 1 .3z" class="st28"/><path d="M1.4 14.1l-.2-.4c.4-.1.5-.5.8-.7.5-.3.3-.8.1-1.3.6.4.9-.4 1.4-.3.7-.5.7-1.4 1.3-1.9-.1-.2-.3-.2-.4-.2-.2 0-.4.3-.5 0-.1-.5.3-.2.4-.3L5 7.9h.9c.4.3.8.3 1.2.4.9.2 1.7-.2 2.6-.4.7-.3 1.4.2 2.1-.2.5.3 1 .2 1.5.2l7.1-.2 2.1-.1c.2 0 .2.1.3.2.2.2.4.3.4.5-.3.4-.6.2-.8 0l-.7-.4c-.1-.1-.1.2 0 .1h.1c.4.1.4.3.1.5l-.5.1c-1.7 0-3.5.3-5.2-.1-.6-.2-1 .3-1.6.2-.6-.1-1.2 0-1.9.1l-.2.3-.1.2-.2.1c-.5-.4-1.1.1-1.6-.1-.1-.2-.2-.3-.4-.3H6.9l-.3.2c-.6 0-1 .5-1.3.9l-3 3.6c-.3.2-.4.6-.9.4z" class="st24"/><path d="M34.7 93.7v.2c.6.2.4.7.4 1.1.1 1 .4 1.5 1.3 1.8-.2-.2-.5-.4-.4-.8.3-.2.4 0 .6.1.1 0 .2.2.3 0-.1-.4-.6-.5-.6-1 .1-.3.4-.1.6-.2h.2l.2.1c.1-.3-.2-.6.1-.8.3-.2.5 0 .6.2.2.6.4 1.3.2 1.9l-.1.9c0 .4.1.7.6.5.4-.1.4.2.5.4 0 .6.3.8.8.9l.3.3c0 .2 0 .3-.2.3-1.9-.2-3.7-.5-5.6-.6-.3-.4-.9 0-1.3-.3.9-.3 1.8.2 2.7.1l-.4-.3c.3-.3.8-.1 1.1-.5-.1 0-.6 0-.8-.3-.4-.5-.7-.4-1.3-.1-.6.4-1.2 1.4-2.2.8.1-.3.5-.3.7-.5.1-.3-.5-.2-.3-.6h.9l-.2-.9c-.1-.2 0-.3.1-.4l.4-.2.1-.1h.1l.2-.1c.2-.7 0-1.3-.1-1.9h.5z" class="st43"/><path d="M33.6 96.1l-.2.4c-.6 0-1.3.2-1.7-.5-.4-.3-.4-.6-.5-1v-.3c.1-.5.2-1 .8-1h.2c.2.6 0 1.2.5 1.7l.4.4c.1 0 .4 0 .5.3z" class="st44"/><path fill="#0d0d0d" d="M35.8 97.7l.4.1c.3.2.9 0 .9.5s-.6.5-1 .5h-.4c-.3-.4-.4-.8.1-1.1z"/><path d="M32.7 97.4l.2.1c.2.1.6 0 .6.4s-.4.3-.6.4l-.5.2c-.4 0-.6-.3-.5-.6 0-.6.4-.5.8-.5z" class="st46"/><path d="M31.2 94.9l.5 1-.5-.2v-.8z" class="st47"/><path d="M47.2 7.5H52l.4-.2.5.1c.2.2.2.4.2.6-.1.6.1 1 .6 1.2.5.3.6.6.3 1.2a7.6 7.6 0 0 0 0 4.7l.1 1.4.1 2.1.1 1.4c.1.4-.2.7-.2 1 .2 1.3-.2 2.6.1 4l-.1.7L54 27c.1 1.6-.1 3.1.1 4.7v.3a8.7 8.7 0 0 0-.1 3.2l-.1 4.7c0 .5.2.9 0 1.4-.1.2-.1.6-.5.2-.2-1.6-.1-3.2-.1-4.7.2-.8.1-1.5.1-2.3v-4.7-14.4 21c-.4-.1-.4-.5-.4-.8v-1.1-18.1c0-1-.1-1.8-.8-2.6-.2-1-1-1.5-1.6-2.2-.1-.2-.3-.3-.3-.6.2-.6.4-1.1.9-1.5-.8.2-1.5-.2-2.3-.1-.4-.1-.5-.8-1.1-.3H37.2c-.2-.1-.5-.2-.5-.4 0-.3.3-.3.5-.3 1 0 2-.2 3-.1.5.1.8-.3 1.2-.5l.2-.1.2.1c.1.4.3.6.8.6C43.9 8 45 8 46.1 8c.4.1.7-.4 1.1-.5z" class="st48"/><path d="M30.3 7c.5-.2.9-.4 1.5-.2 1.2.3 2.5 0 3.7.1l2 .1c.4 0 .8 0 1.2.2h.5c.3-.2.7.1 1 0h.9c.1.1.3.2.1.4-1 .4-2.1.3-3.1.3h-3.3l-2.5-.1c-.4-.4-.9-.3-1.4-.4-.3 0-.6.1-.6-.4z" class="st2"/><path d="M52.4 7.5h-.3c-.1-.5-.5-.3-.8-.3h-3.4c-1 0-1.9-.3-2.8-.3-1.1 0-2.3-.2-3.5 0-.4.1-.4.1-.5-.2 4 0 8.1 0 12.1-.2.2.3.1.5-.1.7-.2.2-.5.2-.7.3z" class="st29"/><path d="M47.2 7.5c-.4.7-1.1.5-1.8.6-1.2.3-2.4-.1-3.7.4.1-.4.2-.7.1-1l.3-.1c.3.2.5 0 .8 0 .7-.2 1.5.1 2.2.1h2.1z" class="st30"/><path d="M42.2 7.5h-.3c0-.3.1-.3.3-.2 1-.1 2-.4 2.9.2-.8.3-1.6-.1-2.4 0-.2.2-.4.2-.5 0z" class="st2"/><path d="M38.7 7.2c-.4-.1-.8.2-1.2-.2.5-.4.8 0 1.2.2zM40.3 7.2c-.3.4-.7-.1-1 0 .3-.3.6-.3 1 0zM42.2 7.4c-.1 0-.3 0-.3.2h-.5l-.2-.3c.3-.1.7-.3 1 .1z" class="st18"/><path d="M32.2 7.7H35c.2.2.6.1.8.1.2.1.5.2.4.5 0 .3-.3.3-.5.3-.5.1-1.1-.2-1.7.2h-.4c-1-.4-2-.1-3-.1-.6 0-1.3-.3-1.9.1h-.4c-.9-.4-1.8-.2-2.8-.2-.8 0-1.6 0-2.4-.5-.2 0-.3-.1-.3-.3.7-.3 1.5-.1 2.2-.2.2-.2.4-.3.7-.3 2 0 4.1-.1 6.1.1l.4.3z" class="st31"/><path d="M14.2 6.5c.4 0 .9.6 1.2-.2h.8l-.6-.3.2-.2c.2-.1.1-.2.1-.3 0-.3-.3-.7.2-1 .5.1.7.4.7.9.9.3.6-.5.8-.8.1-.2.1-.6.4-.7.4.4.1.9.2 1.4.1.2-.1.5.3.7.3.2.1.4-.2.4-.4.1-.7 0-1.1-.1.9.2 1.7.1 2.5-.3.2-.3.6-.5.7-.9.1-.3 0-.7.3-1v-.2h.7c0 .1 0 .3.2.3.3.5.2 1 .2 1.6-.3.2-.3-.4-.6-.2-.2 1.1.3 1.2 1.2 1.1.6 0 1.2-.3 1.8 0H24c-.1.2-.3.4-.5.2h-8.4c-.3 0-.6.1-.9-.2v-.2z" class="st14"/><path d="M23.5 6.8l.5-.2c1 .4 2.1.1 3.1.2s2.1-.1 3.1.2c.5.3 1.1.4 1.7.3.6-.1.3.2.2.4H25c-.2-.5-.7-.5-1.1-.4-.3.1-.6 0-.4-.5z" class="st49"/><path d="M25.2 6c-.4-.8.5-1.2.6-1.9 0-.2.2-.5 0-.5-.3-.2-.1.4-.4.4 0-.3-.2-.6.2-.7.3-.1.6 0 .7.5 0 .2.2.2.3.1.1-.1.5-.3.2-.5-.3-.3-.5-.4 0-.7.4-.3.7-.2 1 .1l.5 1c.1.5.3.7.7.8.1 0 .4.1.3.3-.2.4 0 .4.2.4.5.1.4-.3.6-.4v.2c.1.2.2.3.1.5-.6.3-1.2.2-1.8.1l-.5-.2c-1-.3-1.9-.4-2.7.5z" class="st50"/><path d="M25.2 6c.6-1.1.8-1.3 2.2-.8.9.3 1.7.4 2.6.5.2.1.2.2.3.4v.3c-1.3.2-2.5.5-3.8.2-.3-.1-.7.1-1 .1.1-.3-1-.1-.3-.7z" class="st26"/><path d="M30.4 6c-.2 0-.3-.1-.3-.4v-.5c.4.2.3.5.3.9z" class="st27"/><path d="M25.9.6h-.3V.3h1.1c.1.1 0 .1-.1.1-.3.1-.5 0-.7.2z" class="st3"/><path d="M53.1 7.2l.2-.7h.3l.5.2c.5 1.2.3 2.4.4 3.6v6.9c-.1 1.4.1 2.7-.1 4.1-.1.2-.3.3-.4 0l-.2-.5c0-.3.5-.5.3-.9s.1-.9-.2-1.4c.1-.7-.2-1.4 0-2.1-.1-.5 0-.9-.2-1.4-.2-.9-.4-1.9-.4-2.9 0-.8.2-1.6.6-2.2.1-.1.1-.3-.1-.4-1.1-.4-1.2-1.2-1.1-2.1l.1-.1c.3.1.5.1.3-.1z" class="st43"/><path d="M9.7 7.9c0 .6-.4.5-.7.5-.3 0-.5-.5-.7.2-.2.3-1.9-.2-2.4-.7h3.8z" class="st2"/><path d="M65.5 8.7v1.6c.2.3.1.6.1.9 0 .2.1.6-.4.4 0 .3.4.6.3.9.1.3-.4.7 0 1v.7c-.4 0-.4-.7-.9-.5-.3-.2-.2-.5 0-.8.2-.4-.1-.4-.3-.5-.5 0-.2.6-.6.7-1-.8-2.2-.5-3.4-.5-.5 0-1.2.1-1.2-.6s.7-.6 1.2-.6c.7 0 1.3-.2 2-.8-.6.1-1 .3-1.3-.2-.2-.3-.4-.1-.6 0-.2.1-.4.2-.6 0-.2-.1-.6-1.6-.5-1.9.2-.6.7-.8 1.2-.7.8.2 1.7-.2 2.4.3.2.2.4-.5.8-.4.4 1 .4 2 .3 3l.3.2c0 .4 0 .7.5 1.1a7 7 0 0 1 .1-2.9c.1-.3.2-.6.6-.4z" class="st51"/><path d="M64.3 11c-.2.2-.5.6-.8.2-.2-.3 0-.4.3-.5.3-.1.2-.4.1-.6-.2-.7-.1-1.5-.1-2.2-.3-.5-.6-.9-.6-1.5l.1-.1.3.2.5.4c.3 1.3.2 2.7.2 4.1z" class="st20"/><path d="M54.3 17.2v-7c0-1.2 0-2.4-.3-3.5h1.1c.2.2.1.5.1.7 0 .3.3.3.4.5l.2.5c.1 1.1.1 2.2-.1 3.3-.6.3-.7-.1-.8-.6V8.9l-.1-.4c0-.1.1-.1 0-.2l-.1.1.1 7.9c-.1.4-.1.8-.5.9z" class="st52"/><path d="M54.9 7.4c-.2-.2.1-.5 0-.7l6.9-.2c.5 0 .9-.4 1.4-.2-.1.5-.4.7-.8.8a9 9 0 0 1-4.6-.1l-.1.1c0 .3-.3.3-.5.3-.4.1-.9 0-1.3.2-.3.1-.6-.2-.8-.1l-.2-.1z" class="st15"/><path d="M54.8 6.7h-.9c-.1 0-.3 0-.4-.2h.9l.4.2z" class="st29"/><path d="M34.5 99.3c1.9-.1 3.8.3 5.7.5.5-.4 1.2.1 1.7-.3.3-.2.6-.3 1-.2h.9l1.3-.5c.3-.1.7-.3 1 0-.5.4-1.2.4-1.6.8a20 20 0 0 1-8.1 0l-1.9-.3z" class="st11"/><path fill="#ababab" d="M32.8 95.8l-.3-.4c-.1-.4-.5-.7-.2-1.2.2-.2.1-.7.6-.7l.1 1c.2.6.5 1-.2 1.3z"/><path d="M32 93.6c-.5.2-.4.8-.8 1-.1-.6-.2-1.2.8-1zM32.3 94.3l.2 1.2c-.6-.5-.4-1.2-.4-1.9.3.1.2.4.2.7z" class="st47"/><path d="M46.2 98.8c-.4-.1-.7.2-1.1.1l-.3-.1-.1-.2c0-.3.3-.6.1-.9-.7-.6-.7-.9-.1-1.5.5-.6.6-1-.3-1.2v-.3-.1h1.4c.9 0 .9.6.9 1.3l-.1 2.5c-.1.2-.2.4-.4.4z" class="st43"/><path d="M55.8 7.5c.4-.7 1.2-.1 1.7-.4.1-.2-.3 0-.3-.3.7.1 1.4-.3 2 .3.6-.5 1.4.4 2.1-.2.3-.2.8 0 1.1-.1.4 0 .7-.2.9-.5.1.5.6.9.5 1.5-.6 0-.4.8-.9 1-.1-.7-.4-.9-1.1-.7-.5.1-1-.1-1.5-.1-.7 0-.9.3-.7 1l.1.3c.1 1 .1 1 1 .6.2-.1.5-.3.5.1.2 1.2.7.4 1.1.2.2.8-.2 1.3-1.4 1.4h-1.2c-.2 0-.5 0-.5.4 0 .3.3.3.5.3h2.5c.7-.1 1.1.3 1.6.7.2.2.2.3 0 .5-2.3.1-4.6.3-6.9.7-.4.1-.5-.3-.5-.6v-2.4c0-.2-.1-.4.1-.5l.2.1c.2.2.2.5.1.6-.4.4-.3.9-.2 1.4.1-.8.4-1.1 1.2-.6.4.2.7.1.6-.4-.1-.4.1-.9-.5-1.2-.5-.2.4-.2.3-.5 0-.2-.1-.2-.3-.2-.2 0-.5 0-.6-.3 0-.3.3-.3.5-.4.2-.1.6 0 .5-.5-.1-.4-.4-.5-.7-.4-.2 0-.4.2-.7.1-.8-.3-.9-.2-.9.6v.4c1.1-.5.5.5.9.8-.4.1-.4-.5-.7-.3-.3.2-.3.5-.3.8v4.2c0 .3.1.6-.2.9-.5-.8-.2-1.7-.3-2.5a3 3 0 0 1 .2-1.6V8.3c0-.3 0-.6.2-.8z" class="st41"/><path d="M64.3 43.5v3.3c-.3.7-.1 1.4-.1 2.1l.1 5.7c-.1.1-.2.1-.2 0a1 1 0 0 1 0-1.1c-.3.6-.1 1.2.1 1.9v6c0 .2-.1.3-.3.3l-.1-.1c0-1.9.3-3.9 0-5.8-.3-2.5.2-4.9.1-7.3-.1-.9-.4-1.7-.2-2.6 0-.3-.1-.6.4-.7.1.3 0 .6 0 .8-.1-.2.1-.5 0-.8-.2-2 0-4-.1-5.9 0-.6-.1-1.5-.7-2.1.7-.1.7-.6.7-1.1-.1-1.4.2-2.9.2-4.3 0-.5 0-1-.2-1.4.3-.5 0-1.2.2-1.7v-6.2-.2c.1-.1.2 0 .3.1.3 1.4.2 2.8.1 4.3v4c.4.7.4 1.5 0 2.2v7.6c.2.3.2.6 0 .9v2.1c-.2-.3-.2-.1-.3 0z" class="st43"/><path d="M63.9 22.2v.5a.5.5 0 0 1-.5-.3c-.2-.5-.7-.6-1.1-.5-.6.2-1.3.2-1.9.6-.4.3-.9.4-1.5.3l-1.9-.2c-.4 0-.6-.1-.6-.5-.1-.7.2-1.4-.3-2-.1-.1.3-.5.4-.7.2.1.2.3.1.5-.4.9.3.8.8.8h1.2c.5.1.9.1.8.9.4-.9 1.2-.8 1.9-.9h.9c.4 0 .9-.1 1.3.1.3.2.2.8.3 1.2-.2.1-.1.2.1.2z" class="st30"/><path d="M65 21.9c.6 1.4.3 2.7 0 4.1-.1.4.3.8.1 1.3-.1.2 0 .7-.4.6-.3-.1-.2-.4-.2-.7 0-.2.2-.5-.2-.7-.2-1.2 0-2.4-.1-3.6l-.1-1c-.1-.3-.1-.5.1-.8.2-.9.1-1.8.1-2.7 0-1.3-.3-2.7.1-4 .3.6.2 1.3.3 1.9.1.5.4 1.1 0 1.6-.1.2-.1.4.2.6.3.2.4.7.2.9-.6.6-.3 1.2-.1 1.9.2.2.1.4 0 .6z" class="st14"/><path d="M55.5 11.7c.4.9-.1 1.8.1 2.7V31l.1.2c-.1 1.9.5 3.8-.2 5.7-.5-.3-.3-.7-.3-1.1-.1-1.6-.3-3.2-.2-4.8l.2-1.9c0-.3 0-.6-.2-.9-.3-.5-.2-.9 0-1.4.3-.5.2-1 .2-1.5v-6c0-1.1-.3-2.2-.1-3.3v-.3c-1-1.4-.4-2.9-.5-4.3-.1-.9-.2-1.8.1-2.6.3.1.3.3.2.6l-.1 1.8c.1.4.3.5.7.5z" class="st52"/><path d="M64.1 54.5h.2v12.4c.1 1.4.2 2.8.1 4.3v1l-.1.9c0 .2 0 .4-.3.4s-.4-.1-.5-.4c-.1-.5 0-1-.2-1.4-.1-.2-.2-.4-.1-.7l.2-.3c.2 0 .4.1.3-.2 0-.3.2-.7-.1-1 0-1.8.2-3.7 0-5.5l-.1-.4c-1-.2-.4-.7-.2-1.1.2-.4-.1-.9.2-1.3.3.3.1.7.2 1.1.1-.3-.1-.7.2-1.1v-6.4c.1.1.1-.1.2-.3zM55.5 36.9c.3-.3.2-.6.2-.9v-5c.4 0 .6.4.5.6-.4 1.2.1 2.3 0 3.5 0 .5.1 1-.6 1.5.8-.1 1.4 0 1.3.7-.4.2-.2-.4-.6-.2l-.2 2.6c0 .4-.2.5-.4.7-.1-1 .2-2-.2-2.9-.2-.3-.2-.4 0-.6z" class="st19"/><path d="M63.6 70.9l-.2.2c-.3.2-.4.6-.9.3-.3.5-1 .2-1.4.5-.4-.4.4-.5.2-.9-.1-.2-.3 0-.4.1-.1.1-.3.1-.4-.1-.1-.2.1-.3.2-.3l2.1-.9c.3-.1.5.2.7.4.3.3.3.5.1.7z" class="st51"/><path d="M60.3 20.3l.5-1.4c.1-.3.3-.4.6-.4s.5.2.5.5c0 .4.3.6.7.7.2 0 .5 0 .4.4-.1.3-.3.2-.5.2-.8-.2-1.5-.1-2.2 0z" class="st30"/><path d="M57.3 31c-.4 0-.7.1-.8-.5-.1-.6-.2-1.2.5-1.6.1-.1.4 0 .5.1.4.5.4 1.1.7 1.7.1.3-.6.3-.9.3z" class="st29"/><path d="M58.2 47.7c-1.5.6-2.1.2-2-1 .1-.7.6-.5.9-.5.4-.1.6.1.5.6-.2.5.3.7.6.9z" class="st54"/><path d="M58.1 55.3l-.8.1c0 .3.3.3.5.4.1.1.2.2.1.3-.4.2-.8.2-1.2.2-.3 0-.5-.2-.5-.5 0-.4 0-.7.4-1 .1-.1.2-.2.4-.1.3.3.8.3 1.1.6z" class="st29"/><path d="M56.3 63.8c0-.2 0-.8.6-.7.5.1.6.8.7 1.2.1.5-.6.4-.9.4-.5.1-.4-.3-.4-.9z" class="st54"/><path d="M63 13.9c.3 0 .7 0 .7.4 0 .3-.2.8-.7.7-.2 0-.6 0-.4-.3.1-.3-.5-.9.4-.8z" class="st41"/><path d="M64.3 12.4c.2-.1.4-.3.5.1 0 .2.4.3 0 .5-.3.2-.2.5-.2.8 0 .1 0 .3-.2.3l-.2-.3c-.2-.5-.2-1 .1-1.4z" class="st14"/><path d="M63.6 70.9v-.7l.2-.5c.7.4.4 1 .2 1.5-.2.4-.3-.1-.4-.3z" class="st55"/><path fill="#202020" d="M64.3 12.4v1.4c-.2.1-.4.1-.5-.2v-.5c0-.3-.1-.5 0-.8.2-.4.4-.3.5.1z"/><path d="M64.3 21.2v.7l-.2.2h-.2c-.3-.5-.2-1.1-.1-1.7.5.2.2.6.5.8zM63.9 28.4c.3.5.1 1.1.2 1.6 0 .2-.2.1-.3.1v-.3c-.2-.5-.2-.9.1-1.4z" class="st57"/><path d="M63.9 28.4l-.2 1.4c-.3-.5-.4-1 .2-1.4zM63.5 53.5l-.2.2a.2.2 0 0 1-.2-.2c0-.1 0-.3.2-.2l.2.2z" class="st43"/><path d="M63.6 71.6c.2.4.3.9.2 1.3 0 .2-.1.6.2.5.4 0 .1-.3.1-.5s0-.3.2-.5c.5.1.3.4.2.7v.7h-.2c-.4.9-.3 1.8-.2 2.7 0 .4.1.9-.3 1.1-.5-.5-1-.7-1.7-.2-.2.2-.7.4-.9.1-.2-.3.1-.5.3-.7.1-.1.1-.3 0-.4-.3-.3-.4.3-.7.2-.2-.3-.2-.7-.2-1.1 0-.7 0-1.3-.2-1.9-.2-.5.1-.8.6-.8l.8-.1c.6-.1 1.1 0 1.2-.9-.3-.3.2-.4.6-.2z" class="st51"/><path d="M63.8 77.7c.4-.8-.2-1.6 0-2.4.1-.5-.1-1.1.5-1.4.1 2 .2 4.1.1 6.1l-.1 6.4c0 .8.5 1.5 0 2.3H64c.2-.5-.1-.8-.5-1 .2-.1.2-.3.2-.5.6-.4.2-1 .3-1.5v-2.6l.1-.4c-.1.1-.1.3-.3.2-.3-.6 0-1.1.1-1.6.2-.7-.3-1.3-.7-1.9l.2-.2.2-.2c.6-.3.2-.8.2-1.3z" class="st19"/><path d="M63.6 71.6c-.4.1-.9.1-.9.8 0 .5-.5.5-.9.5l-.7.1c-.6 0-1-.1-.6.9.3.8.1 1.9.1 2.8l-.9-.3v-.7c.2-.1.6 0 .2-.4-.4-.4-.4-.9-.4-1.4-.1-.7.5-1 .9-1.2a6 6 0 0 1 1.2-.2c1 .2.8-.4.8-1 .3 0 .5-.5.9-.3.2.1.2.3.3.4z" class="st27"/><path d="M63.4 79.2l-.2.2-.9.1c-.7.3-1.4.4-2.1 0l-.8-.1c1.3-.5 2.6-.6 3.7-1.2.3-.2.4.1.4.3l-.1.7z" class="st41"/><path d="M63.8 82.9c.2-.1.1-.4.3-.6v3.5h-.3v-2.9z" class="st32"/><path d="M63.8 85.8h.3v1.3c0 .7-.3.3-.5.1V86l.2-.2z" class="st58"/><path d="M63.8 77.7c.4.4.4.9.3 1.3-.1.7-.3.1-.5 0a2 2 0 0 1 .2-1.3z" class="st57"/><path d="M59.8 75.6c.2.2.2.5 0 .7-.6-.2-.1-.5 0-.7z" class="st51"/><path d="M63.6 86v1c-.3-.3-.3-.7 0-1z" class="st19"/><path d="M54.8 8.7V14c0 .4-.1.8.4 1 .3.1.3.5.3.9v9.6c-.5.4-.1.9-.3 1.4 0 .4-.2.8 0 1.2a29 29 0 0 0-.1 5.1c.1 1.5.3 3 .3 4.6v.1c0 .4.1.8-.4 1.1l-.1.2c.5 1-.2 1.9-.1 2.9l.1 3.1c0 .9-.2 1.8.3 2.6.1.2 0 .4-.1.6-.2.2-.3.6-.2.8.5 1.5-.2 3 .1 4.5.2.8.6 1.4-.1 2.1l.1.3c.4.7.5 1.4.1 2.1-.5.8-.4 1.8-.3 2.8.1.7.5 1.3.4 2.1 0 .1.2.3 0 .4-.6.4-.5.9-.3 1.5.3.9-.3 1.6-.2 2.5-.5-.1-.3-.5-.3-.7V48.7 26.3c0-.3.1-.5-.2-.7-.4-1.2-.2-2.3-.2-3.5 0-.2 0-.3.2-.4v-4.3c.3-.3.2-.6.2-.9V8.4v-.2h.1l.2.3.1.2z" class="st5"/><path d="M53.6 41.6c.5-.8.2-1.7.2-2.5 0-1.3.2-2.6.1-3.9 0-1.1-.3-2.2.2-3.3v-.2c-.2-.3-.3-.6.2-.7v24.9c-.3.7 0 1.4-.2 2.1-.1.2 0 .6-.4.4-.2-.5-.3-1-.3-1.6V53c.2-.5.4-.9 0-1.4l-.1-1.5v-6.7c.1-.6-.2-1.2.3-1.8z" class="st47"/><path d="M54.3 72.8c-.2.1-.3.2-.3.5.4 1.8-.3 3.5.1 5.3.1.3-.1.5-.3.6-.3-.3-.2-.7-.2-1.1V71c0-.3.2-.6-.2-.8-.2-.2-.2-.5-.2-.8l.1-4.2c.2-1.3.2-2.7.1-4v-2c0-.3 0-.6.4-.7.5.1.3.5.3.9.1 1.2-.1 2.5.2 3.7v4.1 4.5c-.1.4.2.8 0 1.1z" class="st26"/><path d="M54.3 31c-.3.2-.1.5-.2.7-.5-.1-.3-.5-.3-.7v-4.1c.2-.4-.1-.8.2-1.2V25c.2-.7-.3-1.5 0-2.2.1-.3-.1-.7.4-.9v3.6l-.1 5.5z" class="st7"/><path d="M54.3 63.2c-.4-.4-.3-1-.3-1.6-.1-1 .2-2-.2-2.9v-.1-.1c.5-.7.1-1.5.3-2.1.1-.2 0-.3.2-.4v7.2z" class="st28"/><path d="M54.3 71.1a8.1 8.1 0 0 1 0-3.8v3.8z" class="st32"/><path d="M55.5 36.9v.5c0 .2 0 .4-.2.5-.2-.7-.1-1.4-.1-2.1l.2-.2.1 1.3z" class="st5"/><path d="M54.3 72.8c.1-.3-.3-.7 0-1 .1.3.3.7 0 1z" class="st32"/><path d="M58.1 85.9c-.2.2 0 .7-.4.9-.3.1-.3-.2-.3-.4 0-.3.1-.7.5-.8.1-.1.2.1.2.3z" class="st27"/><path d="M3.5 11.3c-.1.1-.3.1-.3.3-.3.7-.7.4-1.1.1l.9-1.1c.4.1.4.4.5.7z" class="st59"/><path d="M64.5 73.2c0-.2.1-.5-.2-.7V67l.1.1c.2.9-.2 1.9.8 2.6-.4.3-.4-.3-.6-.2v.2c.5.5.5 1 0 1.6-.2.2-.1.6.1 1 .2.2.2.6-.2.9zM65.4 76.2c-.2 0-.2-.1-.2-.2l.1-.3c.2-.1.2.1.2.2l-.1.3z" class="st30"/><path d="M64.3 32.6v-2.2c.4-.5-.1-1.1.4-1.6.2.2.2.4.2.6 0 .7 0 1.5.3 2.2.3.6-.2.9-.9 1zM65.2 38.8c-.9-1.6-.1-3.3-.2-4.9.3 1.6-.1 3.3.2 4.9z" class="st14"/><path d="M64.1 22l.2-.2v5c-.3-.5-.1-1-.2-1.5V22z" class="st27"/><path d="M64.8 39.3c.8 0 .7.5.7 1-.2.1-.3.4-.5.3-.2-.1-.1-.4-.1-.5l-.1-.8zM65 42.6c-.4-.5-.2-1-.1-1.4.3.4.2.9.1 1.4zM64.3 41v-.9c.5.4.5.7 0 .9zM64.3 43.5v-.3l.8.1c-.2.3-.6.1-.8.2zM65 21.9c0-.2 0-.4.2-.5.2.2.1.4-.2.5zM65.5 14.3v-.7c.3.2.1.6.2.9l-.2-.2zM64.5 39.1l.1-.1c.2 0 .1.1.1.2 0 0 .1.2-.1.2l-.1-.3zM65.5 12.5c-.5-.4-.5-.9-.4-1.4.4-.1.1.4.4.4v-1.2c.3.7.3 1.5 0 2.2z" class="st14"/><path d="M53.4 65.2v5c.4.8.2 1.6.2 2.4V87l-.1.6-1.3 1.4-.2.2c-.6.4-.9 1-1.4 1.4L49 92.2c-.4.5-.8.6-1.4.3l-6.9-.5-6.2-.4-3.9-.3c-.6-.4-1.1-.2-1.7.1h-1c-.5-.1-1.1.1-1.6-.2-.5-.1-.9.2-1.4.2-.8-.7-1.7-.2-2.5-.3-1.9-.3-3.8-.5-5.8-.4l-.7.1c-.6-.2-1.2.1-1.7 0-1.2-.2-2.5-.1-3.7-.3-1.1-.1-2.2-.3-3.3-.2l-.3-.1c-.5-.5-1-1-1.3-1.7l-1-1c-.6-.7-1.4-1.2-1.7-2.1v-.5l-.5-.5-.3-.3c-.1-.2-.2-.4-.1-.6l.1-2.8v-6.5-1.4-.3-1.4l-.1-.3c-.1-.6.1-1.3-.2-1.9v-2.7c.2-.9.1-1.8.1-2.6v-5.7c.1-.7-.4-1.4.3-1.9 0 0 .1 0 0-.1-.5-.3-.3-.9-.5-1.4l-.1-.8c-.1-.4.3-.7.1-1.1v-2.3a1 1 0 0 1-.1-.9c.2-2.6 0-5.1.1-7.7v-1-.3c.3-1-.1-2 .3-3l-.2-.2-.1-.5v-.4-1.1l-.1-.9v-2c.1-2.9.1-5.8 0-8.7l-.1-1.9.1-1.7c.4-.3 0-.5 0-.8l-.1-.9v-.7c.2-1.1 0-2.2.1-3.2v-.1-.3c.9-.7 1.5-1.6 2.3-2.4.5-.7 1.1-1.6 1.9-2.4.4-.3.5-.1.7 0 .1-.1.3-.1.4 0 0 .2-.1.5.1.7v.2c0 .2-.1.5.1.7.5.1.6-.4 1-.4h.2c.3.1.6 0 .9.2l.4.3c.2.1.3 0 .4-.2l.2-.5c.1-.2 0-.7.5-.5.2.1.2.1.2-.1.1-.7.5-.5.9-.3.9.3.7 1.1.9 1.8.1.2 0 .3.2.1l.5-.1h.3c.2 0 .5.1.4-.2v-.6c.3-.1.4.1.5.3l.1.1c.1 0 0-.1 0-.1-.2-.4.1-.7.4-1h.2c.5.2 1.3-.1 1.5.7-.2.2-.5.2-.7.3-.1.1-.3.3-.1.4.2 0 .4 0 .6-.2l.2-.1h.2l.3.3c.2.1.4-.1.6.1v.1c0 .2 0 .4.3.4h-.1a.2.2 0 0 1-.2-.2c.1-.2.4-.2.5-.3l.1-.3c-.2-.3-.6-.2-.7-.5-.3-1 .6-.3.9-.6-.2 0-.4-.2-.5-.3.7-.2 1.5-.2 2.2-.1l.2.2c-.2.5-.7.1-1 .2.3.2.8-.2 1.1.2-.2.5-.6.9-1.3.9.4 0 .7-.1 1 .1.2-.2.1.6.4.1l.5-.2.2.1c.1.1.1.3.3.3.2-.2-.1-.2-.1-.4l-.1-.5.1-.2.2-.1c.1-.1.3.3.4-.1.1-.3.5-.6.9-.8h10c1 0 1.9-.2 2.9.1.6-.2.7-.2.8-.1.2.2.2.7.7.3.3-.2.7-.1 1-.1 1 .2 2.1 0 3.1 0h2.2c.3 0 .7-.1.8.3 0 .5-.3.6-.8.6l-.2.1-.2.3-.2.1-.2-.1-.2-.3-.2-.2c-.5.1-.9-.1-1.4-.1-.3.2-.7.1-1 0-.6 0-.6.4-.4.8.2-.1-.1-.2 0-.3 0-.3 0-.5.4-.5h.2c.3.1.2.5.4.7l.3.1.4.1.2.1c.1.1.3.1.4 0l.2-.1.6-.2.3.1H44.2c.3-.1.2-.4.4-.6.4-.2.3-.9.9-.8-.2-.1-.2-.3 0-.4.7-.2 1.5 0 2.2-.1l.3-.1h.1c.6.2.9.9 1.4 1.2l.2.2c.6.9 1.4 1.6 2.2 2.4l.5.7c.9.9 1.1 1.9 1.1 3.1v18.8c0 .3-.1.6.2.9.2.2.1.4.1.6v27.7l-.4.8z" class="st0"/><path d="M5.9 88.4c.4.5 1 .9 1.2 1.6v1c-.6-.2-1.3.1-1.9-.3.3-.3.7.1 1-.2-.2-.5-.7-.1-1.2-.4.5 0 .5-.6 1-.4.3.1.2-.2.1-.3-.3-.3-.2-.7-.2-1zM5 90.6c-.4.5-.9.5-1 0h1zM3.8 90.6c-.5.2-.9.2-1.4 0h1.4z" class="st20"/><path d="M2.1 84.1l.3.3c-.1 0-.2.3-.4.2-.1-.2.1-.4.1-.5zM2.4 84.4c.3 0 .4.3.5.5-.3 0-.3-.3-.5-.5z" class="st1"/><path d="M34.7 92.5c.5-.3.9-.3 1.4 0h-.3c-.2.3-.4.4-1.1 0z" class="st7"/><path d="M34.1 95.9v.1c-.5.2-.6-.2-.7-.6l.1-1c.1-.2-.3-.5.1-.6.4-.1.2.4.5.4l.2.3c0 .5.1.9-.2 1.4z" class="st60"/><path d="M33.5 94.4v1c0 .3.1.6.5.5-.1.2-.3.2-.5.2-.2-.3-.6 0-.7-.3.4-.4.1-.8.2-1.3.3.3.4 0 .5-.1z" class="st61"/><path d="M34.2 93.8c.6.6.4 1.4.3 2.1 0 .2-.2.2-.3 0-.1-.6.1-1.2-.1-1.7l.1-.4z" class="st62"/><path d="M34.1 94.1c.5.5.3 1.1.1 1.7-.2-.5 0-1-.1-1.4v-.1-.2z" class="st43"/><path d="M45.1 97.7c.1.4-.3.7-.4 1.1l.4.1c-.3.3-.7.5-1.2.5H43c-.4-.1-.7.1-1 .2v-.1-.3c0-.2-.3-.2-.4-.3l-.2-.6c-.2.4-.3.8-.6 1.1-.1.1-.3.2-.5.1H40c-.3-.3.2-.5.2-.8-.3-.3-.7 0-1.1-.2-.2-.8-.7 0-1-.2-.2-.4.1-.9-.3-1.3-.2-.2 0-.3.1-.4.3-.5.2-1.8-.2-2.2l-.2.1-.1-.1.1-.2h.2l1.2.2c.3.1.2.4.1.6-.3 1.7 0 2.2 1.8 2.3h.3c-.1-.6.5-1.2.2-1.9-.1-.2-.3-.4-.2-.7.2-.4.5-.1.7-.1h.3c.4.3.4.4.1.9-.1.1 0 .1 0 .1.3.3.1.8.4 1.3.3-.6.3-1.3 1-1.5.3 0 .5 0 .7.2l-.2.5c0 .5.3 1.1-.4 1.5-.1 0 .2.6-.2.8.6-.2.7-1.1 1.6-.7z" class="st63"/><path d="M41 97.4c-.8 0-1.6.2-2-.7-.3-.6-.3-1.3-.1-1.9v-.5c.5 0 1-.1 1.2.5.2 0 .3.1.3.3.1.4.6.6.4 1.1-.4.2-.6-.1-.8-.3-.1 0-.1-.2-.2 0l.1.2.3.5.4.4c.1.1.4.1.4.4z" class="st64"/><path fill="#bbb" d="M40.3 95.1l-.2-.3c0-.3.3-.3.5-.3l.5.2.3.5c.3.2.1.5.1.7 0 .2 0 .4-.2.4s-.3-.1-.3-.2c-.2-.4-.6-.6-.7-1z"/><path d="M45.1 97.7c-.4 0-.7.2-1 .5-.2.3-.4.7-1 .7.2-.5 1.2-.9 0-1.5.9.2.9-.1 1-.7 0-.3-.5-.9.3-.9-.1-.3-.1-.3-.7-.2-.5.2-.6.7-.7 1.2 0 .2 0 .4-.2.5-.3 0-.4-.2-.4-.4a4 4 0 0 0-.5-1.8c.4-.2.3.5.5.2.3-.3-.2-.5-.3-.7.8-.1 1.5.1 2.3.2 0 .2.1.3.3.2.6-.2.4.4.6.6.2.2 0 .4-.2.5-.8.8-.8.9 0 1.6z" class="st63"/><path d="M36.1 96c0 .6.5.7.9.9-1.1.4-2.1-.4-2.1-1.8 0-.4.2-.8-.2-1.2.6.1 1.3-.3 1.7.4l.1.2c.3.1.5.3.4.7-.2.2-.3-.1-.5 0-.4 0 0 .5-.3.8z" class="st66"/><path d="M37 95.1l-.4-.7c.1-.6.6-.3.9-.4v.2c-.2.1-.3.3-.2.5l-.1.3-.2.1z" class="st67"/><path d="M48 92.2c.1.3.1.5-.4.5h-.8l-5-.3h-1c-.5-.2-.9-.2-1.4-.1h-1.2c-1.2-.3-2.4-.2-3.7-.3l-5.1-.4c-.2-.3-.1-.6.3-.6.3 0 .6-.1.9.1l8.8.6 8.6.5z" class="st68"/><path d="M30.6 91h-.8c-.4 0-.4.2-.4.5v.2c-.2 0-.3-.1-.4-.3.4-.8 1-.8 1.6-.4z" class="st7"/><path d="M38.2 92.2h1.2c-.4.2-.8.3-1.2 0z" class="st47"/><path d="M40.8 92.4h1a1 1 0 0 1-1 0z" class="st7"/><path d="M7.1 91c-.7-.3-.2-.7 0-1 .9.5 1.9.2 2.9.3a43.6 43.6 0 0 0 5.5.5c.3.4.9 0 1.2.3l-3 .1c-1 .1-2-.2-3-.4-.7-.1-1.6.1-2.3.1l-1.3.1z" class="st50"/><path d="M15.4 90.8h-.3c-.1-.1 0-.2.1-.2.3 0 .7-.1 1 .1h.7c-.6.3-1.1 0-1.5.1z" class="st49"/><path d="M26.4 91.2c.5.1 1.1-.2 1.6.2-.5.2-1.1.2-1.6-.2z" class="st7"/><path d="M21.8 5.8c-.4-.5-.3-1-.2-1.6v-.3c.5-.9 1-1.2 1.7-1 .2 0 .4.1.4.4-.1.4-.6.4-.8.7l-.2.3-.1.6c.1.2.4.1.6.3.1.3 0 .5-.3.6l.2.5c-.5.1-.9-.2-1.3-.5z" class="st69"/><path d="M24.6 4.1v.5l-.2.1-.6.2h-.2l-.5-.3-.1-.2.2-.3c.2-.2.6-.3.6-.8.4-.1.6.1.8.4v.4z" class="st36"/><path d="M23.6 4.9c.1-.4.4-.4.8-.3l-.1.9-.2.3c-.4.2-.4-.1-.5-.3v-.6z" class="st70"/><path d="M23.7 5.3c0 .2-.1.5.3.5-.3.4-.7.2-1 0l.2-.7c.1 0 .1-.1.2 0l.3.2z" class="st71"/><path d="M24.6 4.1v-.2c-.1-.4-.3-.8.3-.9-.1.3.2.7 0 1l-.3.1z" class="st15"/><path d="M24.2 5.5c-.1-.3-.3-.7.1-.9h.2c0 .3 0 .7-.3.9z" class="st72"/><path d="M24.9 3c-.5.1-.2.6-.3.9-.3 0-.5-.5-.8-.4l-.1-.1v-.1c-.3-.7-.8-.4-1.3-.2-.3.1-.5.5-.8.7.2-.8.6-1.3 1.5-1.3.3 0 .6 0 .3-.4 0-.4.2-.4.5-.3l.1.3c.2.2.5.1.6-.1.3.2 0 .6.2.9l.1.1z" class="st14"/><path d="M23.9 1.8l-.5.3h-.7c-.3 0-.5-.1-.5-.5s.1-.6.5-.6h1l.2.8z" class="st44"/><path d="M19.7 2.2c-.5 0-1 .2-1.4-.3.3-.5 1.2-.8 1.6-.5.5.3.1.6-.2.8z" class="st64"/><path d="M19.9 6.1c0 .1.2.3 0 .4-1 0-1.9.5-3-.1h1.7c-1-.7-.5-1.6-.6-2.4.2-.4.6-.7 1-.9.3.1.7-.2.9.3l-.3.2c-.9.4-1 .7-.7 1.8.2.3.5.3.7.5l.3.2z" class="st11"/><path fill="#d2d2d2" d="M16.8 5.4l-.7-.8-.1-.2c.2-.2-.3-.7.2-.8 1 .4 1.2 1.1.6 1.8z"/><path d="M16.2 3.6c-.4.2.5.7-.2.9-.3 0-.2-.2-.3-.3-.1-.2-.3-.5 0-.7.2 0 .4-.2.5.1z" class="st60"/><path fill="#bfbfbf" d="M15.9 6h-.4c-.8-.3-.8-1-.7-1.7 0-.2.2-.2.4-.1.4.3.5.7.7 1.1V6z"/><path fill="#747474" d="M15.9 5.5l-.6-1.3c.2 0 .4.1.5-.1l.3.3v.2c-.4.3.1.7 0 1-.2.1-.2 0-.2-.1z"/><path d="M20.7 4.1c0 .4.1.8-.1 1.2-.3.2-.5 1-1 .1-.1-.5.2-.8.3-1.2.1-.2.2-.5.5-.5l.3.4z" class="st76"/><path fill="#b4b4b4" d="M20.4 3.7l-.4.5-.4.9c-.1.3-.3.5-.5 0-.1-.7.4-1.2.5-1.8h.3c.2.1.5.1.5.4z"/><path d="M21.3 3.9h-.5c0-.1 0-.3.2-.3s.2.1.3.3zM24.9 2.9c-.3-.2-.1-.5-.2-.7-.2.1 0 .4-.2.6.1-.5-.8-.3-.6-.9.2-.2.5-.5.8-.3.3.1.2.4.2.7v.6z" class="st15"/><path d="M15.4 9.4l-.4 1-.1.1-.5-.4-.4.3c-.3 0-.4.3-.5.5-.1.1-.3-.1-.4.1-.1.2.1.7-.4.6-.1 0-.9-.2-.2-.6-.5 0 .3-1-.6-.8l.5-.3c-1.4-.8-1.4-.8-1.5.2-.2 0-.6-.6-.7 0l-.2.1h-.8l-.3-.1c-.3-.3-.6-.3-1-.5v-.3a1 1 0 0 1 1-.2h1c.3 0 .5-.1.8.1.5-.5 1.1-.5 1.6 0 .9-.4 1.9-.2 2.9-.1.1 0 .2.1.2.3z" class="st9"/><path d="M23.2 8.2l2.2.3c.1.1 0 .2-.1.3-.6.2-1.3 0-1.9.2l-.6.1C20.2 8.9 17.6 9 15 9h-1.6c-.3 0-.6 0-.9-.3.7-.4 1.5-.2 2.3-.3.1 0 .7.5.5-.3.1 0 .3-.1.4 0 1.9.7 3.9.2 5.9.3.1 0 .3 0 .3-.2l-.4-.3c.5 0 .9-.2 1.2.3 0 .2.3.3.5 0z" class="st14"/><path fill="#fbfbfb" d="M10.7 9.2h-.8a1 1 0 0 1-.9.1c-.4 0-.8-.2-1.1.1-.4.1-.7.3-1-.1h-.5c-.1-.4 0-.5.4-.5h3.4c.5-.1.6.1.5.4z"/><path fill="#eaeaea" d="M12.5 8.7h9.7c.3 0 .6-.2.9.2l-.1.3h-.6c-1.5-.1-2.9-.2-4.4-.1-1.7.1-3.4-.1-5.1-.1-.2 0-.3 0-.5-.2-.2 0 0-.1.1-.1z"/><path fill="#c3c3c3" d="M22.5 9.1h.5v.1c-.2.3-.6.2-.9.3h-.4c-.3 0-.7 0-.9-.2h-2.4c-1 .5-2 .1-2.9.1-1-.3-2.1 0-3.1-.2V9h9.2c.3 0 .6-.1.9.1z"/><path d="M22.5 9.1H12.3v-.2h9.3c.3 0 .6-.1.9.2z" class="st81"/><path d="M39.1 98.4l.6-.2c.3 0 .7 0 .8.3.1.3-.3.3-.4.5l-.2.4c-.5-.1-1-.3-.8-1z" class="st46"/><path d="M36.1 96l-.1-.6c-.1-.6.1-.5.5-.3.2.5.8.6.8 1.2-.2.1-.5-.4-.7 0l-.5-.3z" class="st82"/><path d="M37.2 94.8c-.1-.1-.3-.2-.3-.4.1-.3.4-.1.6-.1l.1.2.2.9c0 .2 0 .5-.3.2l-.3-.8z" class="st83"/><path d="M40.3 99.4l.3-.2c.5.1 1 0 1.4.3-.5.6-1.2 0-1.7.2v-.3z" class="st63"/><path fill="#ececec" d="M36.6 96.4c.2-1 .5.1.7 0-.2.2-.4.2-.7 0z"/><path d="M34.1 94.4c.3.5.1 1 .1 1.4l-.1.1v-1.5z" class="st85"/><path fill="#b7b7b7" d="M37.2 94.8c.2.2.4.4.3.7l-.3-.4v-.3z"/><path d="M34.1 8.7c.3-.4.6-.5 1-.3s.7-.3 1 0c-.2-.7-.9-.4-1.2-.8 2.1-.1 4.3.1 6.4-.2h.3a1 1 0 0 1-1.3.8c-1-.1-1.9.1-2.8.2-.1 0-.6-.5-.5.2l-.4.2c-.9 0-1.7.3-2.5-.1z" class="st30"/><path d="M36.7 8.8H47c.3 0 .6-.2.9.2l-.1.2c-1.2.2-2.4.2-3.6.2h-6.3c-.4 0-.7 0-1.1-.2l-.3-.1.2-.3z" class="st81"/><path d="M48.9 9.3c.4-.2.9-.2 1.3 0 .2.1.6.1.9-.1.1-.1.2-.3.4-.1.2.2.1.4-.1.5-.6.3-.6.9-.9 1.4-.5.1-.7-.5-1-.7-.1-.4-.8-.5-.6-1z" class="st30"/><path d="M49.4 10.3c.5 0 .6.5 1 .7.3.7 1.1 1.1 1.5 1.8.1.2.6.3.2.7l-2.3-2.3c-.1-.4-.4-.5-.4-.9z" class="st18"/><path d="M54.3 21.9c-.3.6-.3 1.3-.2 2 .1.4.2.8-.1 1.1-.4-1.4.1-2.8-.2-4.1.5 0 .2.6.5.7v.3z" class="st19"/><path d="M48.9 9.3c.2.3.2.6.6.7.3.1-.1.2-.1.3-.6-.3-.9-.9-1.4-1.4.4-.4.4-.4.9.4z" class="st18"/><path d="M54.1 31.9c-.2 1.1 0 2.2-.2 3.3-.3-1-.1-2.1-.1-3.1l.3-.2z" class="st7"/><path d="M53.8 15.1c.3.4.3.9.2 1.4-.4-.4-.2-.9-.2-1.4zM53.9 18.6c.3.4.1.9.2 1.4-.4-.5-.1-1-.2-1.4zM53.9 25.7c-.1.4.2.8-.2 1.2.1-.4-.1-.9.2-1.2z" class="st19"/><path d="M53.1 7.5h-.7c.2-.2.4-.3.7-.3v.3zM42.2 7.5h.5c-.2.3-.4.6-.5 0z" class="st12"/><path d="M36.7 8.8l-.1.2H24.1c-.2 0-.4.1-.6-.1.6-.3 1.3-.1 1.9-.2 1-.3 2-.3 2.9 0h.3c.6-.4 1.3-.1 2-.1 1 0 2-.2 3 .1h.3l2.8.1z" class="st15"/><path d="M33.7 8.7h-5c0-.2.2-.3.4-.3l4.4.1.2.2zM28.3 8.7h-2.9v-.2c1-.1 2-.4 2.9.2z" class="st41"/><path d="M19.7 5.5c.4.5.6-.1.9-.2 0 .5-.5.6-.7.8h-.3c-.3-.3-.3-.5.1-.6z" class="st87"/><path d="M15.9 5.5l.2.1c.1.2.2.4-.2.4 0-.2-.3-.3 0-.5z" class="st70"/><path d="M53.1 7.5v-.3l.6.1c-.2.3-.4.2-.6.2z" class="st29"/><path d="M65.2 9.3c.1.4.1.6 0 .8-.1-.2-.1-.4 0-.8z" class="st14"/><path d="M55.8 7.5c-.2.2.4.8-.4.7l-.2-.3c-.1-.2-.3-.3-.2-.5.5-.4.6 0 .8.1z" class="st25"/><path d="M54.8 8.4l-.2-.3c.2 0 .4-.1.4.1.1.2-.1.2-.2.2z" class="st52"/><path d="M55.1 7.4l.2.5c-.2-.1-.5-.1-.4-.5h.2z" class="st41"/><path d="M43 99.4h.9c-.3.3-.6.3-.9 0z" class="st43"/><path d="M64.1 61.4c-.1.6.1 1.2-.3 1.7v-1.7h.3z" class="st57"/><path d="M64.1 54.5v.5c-.4-.4-.5-.9 0-1.7v1.2z" class="st55"/><path d="M63.9 45c.3.5.2 1.1 0 1.6-.2-.5-.2-1 0-1.6zM64.1 38.7c-.4-.7-.3-1.2 0-1.6v1.6z" class="st58"/><path d="M55.5 35.7c-.4.7-.1 1.5-.2 2.2-.2-.1-.2-.3-.2-.5l-.2-2.7-.1-3.1v-2.5c0-.4.1-.8.4-1.1.4.2.4.6.3 1a22.2 22.2 0 0 0 0 6.7zM55.1 26.9c-.1-.5-.7-1.1.3-1.4-.1.4.4 1.1-.3 1.4z" class="st57"/><path d="M64 13.4v-1h.1l-.1 1z" class="st44"/><path d="M46 35.3v17.5c0 .6 0 1.1.2 1.7v20l-.3-.1c-.2-.4-.1-.8-.1-1.3V58.5l-.1-1.2-.1-.3v-4.6c0-.9 0-1.7-.2-2.6v-2.4-1.1c.1-1-.1-1.9.1-2.9.2-.8.1-1.6.1-2.4v-4.8c0-.3-.2-.7.4-.9z" class="st88"/><path d="M8.6 39.2l-.1-.2v-1-.2c-.2-.3-.1-.6-.1-.9v-8.4c0-.3-.1-.6.1-.8v-6.9l.3.1c.3.8.1 1.6.1 2.5 0 .8-.1 1.5.1 2.3l.1 2.8c0 1.9.1 3.9-.1 5.8-.2 1.1 0 2.4-.1 3.7 0 .4.1.8-.3 1.2z" class="st59"/><path d="M15.1 90.6v.2l-5.7-.3H8.2c-.5 0-.8-.1-1-.6 2-.1 3.9.3 5.8.4.5 0 1-.2 1.4.1.2.3.5 0 .7.2z" class="st12"/><path d="M15.4 9.4c1-.3 2-.1 2.9-.1.2.2.5.1.7.2-.1.5-1.2-.4-.8.7l.1.2c.1.3.1.5-.1.8.1.3.5.1.6.4-.4-.1-1.1.4-.8-.6l-.6-.4H17l-.1-.1c-.1-.2-.1-.3 0-.4-.4-.1-.6-.9-1.3-.3l-.2-.4z" class="st62"/><path d="M46 35.3c-.3.3-.1.6-.1.9v6.3c0 .3.1.6-.2.9-.3-.3-.3-.6-.3-1v-2.8-10.7c0-.4-.1-.8.1-1.2l.3-.1c.2 1.6.2 3.1.1 4.7V35l.1.3z" class="st13"/><path d="M8.6 52.6v-.2c-.2-1.3 0-2.6-.1-3.9.2-.8 0-1.6.3-2.4.4.2.4.5.4.8v7.2c-.3.5 0 1.2-.4 1.7-.3-.3-.1-.7-.2-1.1v-2.1z" class="st89"/><path d="M8.8 46.2c-.1.8.2 1.5-.1 2.3-.2-.5-.1-.9 0-1.4v-7.9V35c0-.3-.1-.6.2-.8.3.3.3.7.3 1.1v9.8c-.1.4 0 .8-.4 1.1z" class="st35"/><path d="M23.5 8.9h13.1v.2s.1.1 0 .1v.1c-.3-.2-.6-.2-.9-.2H22.9l.1-.2h.5z" class="st66"/><path fill="#474948" d="M9 73.9c-.3-.3-.1-.6-.2-.9-.2-1.4 0-2.8-.1-4.3V66c.1-.2 0-.6.3-.7.3.2.3.5.3.7 0 1.6.1 3.3-.1 4.9-.2.6-.1 1.2-.1 1.8.1.5.2.9-.1 1.2z"/><path fill="#626363" d="M29.5 81c-2.6 0-5.1-.3-7.7-.4.3-.7.9-.3 1.4-.4a69 69 0 0 1 7.3.5c-.1.4-.1.4-1 .3z"/><path d="M39.6 81.6c-2.4-.2-4.8-.2-7.1-.5l.7-.4c1.6-.1 3.2.1 4.8.2.7.1 1.5-.1 2.2.3 0 .6-.5.2-.6.4z" class="st92"/><path d="M46 74.6h.2v5.7c0 .2.1.5-.2.7l-.4-.5c-.2-1.2 0-2.5-.1-3.7l.1-1.7c.1-.3.2-.4.4-.5z" class="st23"/><path fill="#535554" d="M9 65.4c0 .2 0 .4-.2.5-.2-.7-.1-1.4 0-2.1v-7.9c.1-.5-.2-1.1.2-1.6.4.4.3.8.3 1.3v8.8c0 .4 0 .7-.3 1z"/><path d="M36.7 9.3v-.2h11.2c-.8.4-1.7 0-2.6.2-.4.3-.9.1-1.4.1H40.3c-.7.2-1.4-.1-2.1 0h-.8l-.4-.1h-.3z" class="st94"/><path d="M44.4 19.4l.5.4c0 .2-.2.2-.4.2-1.1-.3-2.3-.1-3.4-.2h-5.2c-.4 0-.7.1-1.1-.2v-.3c.8-.3 1.6 0 2.4 0h5c.3-.1.6-.1.8 0h.2l1.2.1z" class="st95"/><path fill="#7b7b7b" d="M12.8 19.3H23.7v.2l-.2.2c-1 .2-2.1 0-3.2.1H14c-.4 0-.8 0-1.2-.2v-.3z"/><path d="M46 35.2c-.3-.3-.2-.6-.2-.9v-6.5a4.7 4.7 0 0 1 0-3.3c.2.1.2.3.2.5.1 1 .3 2 0 2.9V35.2z" class="st88"/><path d="M8.5 27.6v10.2c-.2-.2-.2-.4-.2-.6v-8.9c0-.3 0-.5.2-.7z" class="st6"/><path d="M38.2 9.3H41.5l.2.2-.1.2c-.5.1-1.1-.2-1.5.3-.1.1-.3 0-.4-.1-.8-.2-1.6-.6-2.3.2-.1.2-.3 0-.4 0-.3-.2-.1-.4 0-.7h.4l.8-.1z" class="st69"/><path d="M41.7 9.6v-.2c.7-.2 1.5 0 2.2-.1h1.4l.3.2c-.5.1-.6.7-1.1 1l-.5.1h-.2l-.1-.1-.5-.3h1c.2 0 .3-.1.4-.3 0-.3-.2-.2-.4-.2l-2.5-.1z" class="st97"/><path fill="#616161" d="M14.7 80.1c-1.4.1-2.8-.1-4.2-.2-.3 0-.5-.1-.6-.4 0-.2.2-.2.3-.3 1.5.2 3 .1 4.4.4.3 0 .6 0 .8.3-.2.4-.5.3-.7.2z"/><path d="M8.8 63.9v9.2c-.2-.1-.2-.4-.2-.6v-8.1l.2-.5z" class="st99"/><path fill="#0e0e0e" d="M1.8 49.5v-7.9c0-.1.1-.2.2-.1v7.1c-.1.4 0 .7-.2.9z"/><path fill="#555756" d="M9 73.9c.1-.9-.2-1.9.2-2.8.3.3.3.8.3 1.2v6c0 .2-.1.3-.3.4-.4-.4-.2-.9-.2-1.3v-3.5z"/><path d="M45.8 24.5v3.3h-.2c-.3-.2-.2-.6-.3-.9V21l.2-.4c.4.6.1 1.2.2 1.8l.1 2.1z" class="st89"/><path d="M21.8 10.6h-.2l-.2-.2c-.4-.1-.4.3-.6.4-.5-.1-1-.2-1.5 0l1.7-1 .6-.3c.3-.1.5 0 .4.4v.1l-.2.6z" class="st9"/><path d="M23.7 19.3c.2-.2.5-.1.7-.1h5.4c.2 0 .5-.1.7.2l-.1.1c-1.3.3-2.7.1-4 .1-.9-.2-1.8.1-2.7-.3z" class="st55"/><path fill="#3c3c3c" d="M37.2 19.4h-2.4c-1.3.4-2.7.2-4 .1l-.1-.3h5.6c.2.1.5 0 .9.2z"/><path d="M8.6 47.1v5.4c-.3-.4-.2-.9-.1-1.3 0-1.4-.2-2.8.1-4.1z" class="st55"/><path d="M6.9 10.1V10c.2-.2.4-.2.6-.1.2 0 .3.1.5.3l.2.3c-.4.2-.5 1-1.2.5l-.1-.9z" class="st103"/><path d="M22 9.9c-.1-.2-.2-.6-.5-.2-.2.2-.3.3-.5 0-.4-.3-.9 0-1.5-.3h1.3c.4.1.7 0 1-.1h.4c.4.2.3.4 0 .6H22z" class="st57"/><path fill="#6f6f6f" d="M12.8 19.3v.2c-1 .5-2 .2-3 .2-.2-.1-.3-.1-.3-.3 1.1-.5 2.2 0 3.3-.1z"/><path d="M1.7 37.4c.3-.1.1-.4.6-.4-.6 1.2-.1 2.4-.5 3.6-.2-.3-.1-.7-.1-1.1v-2.1zM41.3 10.1c.5-.3 1.2.1 1.7-.2v.7c-.2.1-.4 0-.7-.1l-.6.2-.5-.5.1-.1z" class="st69"/><path d="M46 27.9V25c.1 1 .7 1.9 0 2.9z" class="st62"/><path d="M7.6 10H7c-.3-.2-.5-.4 0-.7.3.3.7-.2 1 .1l.1.2c-.1.1-.4.1-.5.4z" class="st97"/><path d="M22.1 9.9c.2-.2.2-.4 0-.6.3-.1.7.1.9-.2h.3c-.2.5-.4 1.1-1.2.8z" class="st9"/><path d="M43 81.8c-.6 0-1.2.1-1.8-.1l.6-.4c.7 0 1.4-.3 2 .2-.1.4-.5.1-.8.3z" class="st36"/><path fill="#757575" d="M41.6 10.8c.2-.1.2-.8.7-.4.3.2.2.5 0 .7v.1c-.3.2-.5.1-.7-.1v-.3c0 .1 0 0 0 0z"/><path fill="#666" d="M45.8 80.6l.2.3c-.5.4-.7 1.2-1.6.9l.2-.3c.4-.2.7-.7 1.2-.9z"/><path d="M1.4 16.9v-2.4c.3 1.1.3 2.3 0 3.4v-1z" class="st55"/><path d="M23.2 80.4c-.5.1-1-.1-1.4.2-.5 0-1 .1-1.4-.1.2-.3.6-.2.9-.3l.6-.1c.4 0 .9-.1 1.3.1v.2zM18.9 80.4c-.4 0-.9.1-1.3-.1.2-.3.5-.3.7-.4l.9-.1c.4 0 .8-.1 1.1.2l.1.3c-.5.2-1-.1-1.5.1z" class="st107"/><path d="M36.1 19.3h-3.3c1.1-.3 2.2-.3 3.3 0z" class="st97"/><path fill="#969696" d="M43.9 10.5c.2-.1.4-.2.6 0-.3.1.4 1-.5.7-.1-.1-.3-.2-.3-.4l.2-.3z"/><path d="M46 32.6v-2.9c.3.9.2 1.9 0 2.9z" class="st62"/><path d="M46.1 58.7v-2.8c.3.9.3 1.8 0 2.8z" class="st52"/><path d="M29.5 81c.4-.1.7.1 1.1-.2.5-.4.9-.4 1.4 0-.2.5-.7 0-1 .3-.5 0-1 .1-1.5-.1z" class="st17"/><path d="M41.8 81.5c-.1.2-.4.1-.5.2h-1.7c.1-.2.3-.1.5-.2.6-.6 1.2-.3 1.7 0z" class="st109"/><path d="M1.7 37.4v2.1c0 .1-.1.1-.1 0 .1-.9-.2-1.7.2-2.6l-.1.5z" class="st24"/><path d="M9.5 19.3l.2.2c-.1.7-.5.9-1 1.2h-.2c.1-.6.6-1 1-1.4z" class="st92"/><path d="M18.9 80.4c.5-.3 1-.1 1.6-.2.3-.2.6-.2.8 0-.3.3-.6.1-.9.2h-1.5z" class="st110"/><path d="M30.6 89.9c-.3.1-.5-.1-.5-.4l.1-.4c.3-.1.5 0 .6.3v.1l-.1.3-.1.1z" class="st111"/><path fill="#878787" d="M41.3 10.3c.2.1.4.2.3.5l-.5.3h-.3c-.2-.1-.2-.3-.1-.5s.2-.5.6-.3z"/><path fill="#7c7c7c" d="M40.2 10.3c-.4 0-.3.3-.3.5.1.2.1.4-.2.4-.1-.5-.5-1.2.6-1.1l-.1.2c.1 0 .1 0 0 0z"/><path d="M20.8 10.8c.1-.5.1-1.1.8-.5l-.5.5-.1.3c-.2 0-.2-.2-.2-.3z" class="st114"/><path d="M10.2 10.6c.1.7-.3.6-.7.3l-.1-.4.2-.1c.2.1.5-.1.6.2z" class="st115"/><path d="M8.6 52.6v2.2c-.2-.7-.2-1.4 0-2.2z" class="st55"/><path fill="#8b8b8b" d="M34.8 89.5c.1 0 .2.1.2 0 .4-.3.4.1.6.3.1.1 0 .3-.1.3-.4.2-.3-.3-.5-.4-.3.1-.3 0-.2-.2z"/><path d="M17.5 10.5c.3 0 .5.2.5.5-.2.1-.5.2-.7.1-.1-.2-.3-.5.2-.6z" class="st17"/><path d="M18.3 80.1c-.2.2-.5.1-.7.2l-1.5-.1.1-.2c.5-.2 1.1-.1 1.6-.1.2 0 .4 0 .5.2z" class="st110"/><path d="M42.4 11.2c0-.2.2-.5 0-.7l.7.2v.3l-.7.2z" class="st10"/><path d="M14.4 10.7c.1.1.3.3.1.4-.2.2-.5.2-.7-.1-.1-.2-.1-.3 0-.4.3-.1.5 0 .6.1z" class="st61"/><path d="M31 81.1c.3-.3.7-.1 1-.2.3-.3.7-.3 1 0-.1.2-.4.1-.5.2H31z" class="st109"/><path d="M16.1 80.1v.1c-.5 0-1 .1-1.4-.1.2 0 .5.1.7-.2.2-.2.4-.2.6-.1l.1.3z" class="st117"/><path fill="#767676" d="M14 10.6l-.2.4h-.3c-.1-.1-.1-.1 0-.2 0-.3-.1-.8.5-.5v.3z"/><path fill="#5e5e5e" d="M31.7 89.7c-.2-.1-.4-.1-.4-.3 0-.2.1-.3.3-.3.1 0 .3 0 .2.2l-.1.4z"/><path d="M17 10.6c0 .1 0 .1 0 0-.2.5-.5.5-.8.2l-.1-.3c.3-.4.6-.4.9.1z" class="st31"/><path d="M1.6 39.5h.1v1.2l.1.6c-.1.1-.1.1-.2 0v-1.8z" class="st13"/><path fill="#636363" d="M45.6 20.5v.3c-.7-.2-.8-.3-.8-.9l.1-.1c.4.1.4.6.7.7z"/><path d="M9.2 78.7l.2-.2c.4.1.7.3.7.9l-.1.2-.8-.9z" class="st39"/><ellipse cx="46.8" cy="9.5" class="st57" rx="1" ry=".1"/><path d="M40.2 10.3v-.2c.3.1.7-.2 1 0v.2c-.3-.1-.3.2-.5.3-.2 0-.2-.2-.3-.3h-.2z" class="st24"/><path d="M15.1 90.6c-.2 0-.5.1-.7-.2.6.1 1.2-.2 1.7.2h-1z" class="st12"/><path d="M6.9 10.1c.3.3.3.6 0 .9-.3-.3-.3-.6 0-.9z" class="st121"/><path fill="#656565" d="M22 10.5c.2.1.4-.1.5.2 0 .2-.1.4-.3.5-.4-.2-.4-.5-.2-.7z"/><path fill="#676767" d="M39.7 11.2c.2-.1.2-.2.2-.4.4 0 .5.2.2.5-.1.3-.3.2-.4-.1z"/><path fill="#898989" d="M34.8 89.5l.2.3c-.4.4-.6.1-.7-.2l-.1-.1v-.1l.6.1z"/><path fill="#6e6e6e" d="M44.6 81.7l-.2.2h-1.3c.2-.3.6-.1.9-.2.1-.3.4-.2.6 0z"/><path d="M14 10.6v-.4c.1-.2.3-.2.4-.2v.5c-.1.2-.3.4-.4.1z" class="st126"/><path d="M34.2 89.4v.2c-.2.1-.1.4-.2.5-.2-.2-.4-.4-.2-.7.1-.2.3 0 .4 0z" class="st111"/><path d="M40.4 10.3l.3.3v.5c-.5 0-.2-.5-.3-.8z" class="st117"/><path fill="#828282" d="M17 10.6c-.2-.4-.5-.5-.7 0-.3 0-.3-.2-.2-.4.3-.2.5-.3.8-.2l.1.6z"/><path fill="#b3b3b3" d="M22 10.5l.1.7c-.6.2-.2-.4-.4-.5.1-.2 0-.4.2-.6.4.1 0 .2.1.4z"/><path d="M41.1 11.1c0-.4.1-.6.5-.3v.4l-.5-.1z" class="st14"/><path fill="#999" d="M18.2 11.1v-.8c.1-.1.1-.1.2 0l.3.4.2.2c-.1.4-.5.2-.7.2z"/><path d="M17.5 10.5c-.3.1-.2.4-.2.6-.3-.1-.2-.3-.2-.5.1-.2 0-.4.2-.5.2 0 .2.2.2.4z" class="st130"/><path d="M21.8 9.3c-.3.2-.7.4-1 .1v-.1h1z" class="st9"/><path d="M44.4 19.4h-1.2c.4-.2.8-.2 1.2 0z" class="st57"/><path d="M1.7 36.6c-.3-.4-.3-.8 0-1.2v1.2z" class="st20"/><path d="M21.1 10.8c.1-.2.2-.4.5-.5v.3l-.5.2z" class="st82"/><path d="M46 29.5v-1.2c.2.4.2.8 0 1.2z" class="st62"/><path fill="#a1a1a1" d="M9.3 10.7c-.3-.1-.8.2-1-.2l.3-.2c.3 0 .5-.1.8 0l-.1.4z"/><path d="M46.4 28.2c.1-.3.1-.5.4-.6 0 .3-.2.4-.4.6z" class="st62"/><path fill="#1e1e1e" d="M18.9 10.9l-.4.1c-.1-.2-.1-.4.1-.6.2-.1.3.1.4.2l-.1.3z"/><path fill="#848484" d="M19 10.6l-.3-.2-.3-.1h-.1-.1v-.2c.4 0 .8-.1.8.5z"/><path d="M16.2 10.8c.3.2.5.2.7-.1-.1.8-.5.4-.9.2l.2-.1z" class="st130"/><path fill="#d0d0d0" d="M10.2 10.6l-.5-.2c0-.4.3-.3.5-.3h.2c.1.2-.1.4-.2.5z"/><path d="M22.3 19.3h-1.2c.4-.3.8-.3 1.2 0z" class="st55"/><path d="M14.9 10.5l.1-.1c.2 0 .4 0 .3.3l-.2.2-.2-.4z" class="st126"/><path d="M36.3 89.8s.2 0 .2.2-.1.1-.2.1L36 90c0-.2.1-.2.3-.2z" class="st95"/><path d="M46.1 55.6v-1c.3.3.3.6 0 1z" class="st52"/><path d="M8.5 37.9v1c-.3-.3-.3-.6 0-1z" class="st6"/><path d="M39.4 91.4c.3-.1.5-.1.8 0-.3.1-.6.1-.8 0z" class="st135"/><path d="M16.2 10.8l-.1.2c-.3-.2-.2-.3 0-.7 0 .1 0 .3.2.4l-.1.1z" class="st42"/><path d="M23.5 19.3h-1c.3-.3.7-.3 1 0z" class="st55"/><path d="M41.6 11.2l.7.1c-.2.2-.5.5-.7-.1z" class="st136"/><path fill="#565656" d="M8.7 10.4h-.4-.1-.1l-.2-.1c.2-.3.4-.6.8-.1v.2z"/><path d="M13.5 10.8v.2c-.2.3-.2 0-.4 0 0-.4.1-.4.4-.2z" class="st71"/><path d="M43 19.4h-.8c.3-.2.5-.2.8 0z" class="st57"/><path d="M1.7 41.4v-.7c.3.3.2.6.2.9h-.2v-.2z" class="st69"/><path d="M9.3 10.7v-.4-.1h.2v.8l-.2-.3z" class="st103"/><path d="M43 11v-.3-.2l.2.1c.1.2.2.4 0 .6L43 11z" class="st23"/><path d="M43.6 11.2h-.2c-.1-.2-.2-.4.1-.5h.1l.2.2-.2.3z" class="st138"/><path fill="#949494" d="M43.4 10.6l-.1.5h-.1-.1v-.6l.3.1z"/><path fill="#474747" d="M43.9 10.8l.2.3h-.3l-.1-.3.1-.1.1.1z"/><path fill="#adadad" d="M43.6 10.8l-.1-.2.2-.2c.1.1.1.2 0 .4h-.1c.1 0 0 0 0 0z"/><path fill="#7e7e7e" d="M43.6 10.8h.1v.4h-.2l.1-.4z"/><path d="M1.6 25.5h-.1v-1.6h.2l-.1 1.6z" class="st10"/><path d="M6.1 90.1c-.1-.1-.3 0-.4-.2.7 0 .8-.3.5-.9l-.2-.7c-.3-.5-.7-.8-1.1-1.2h-.1c-.4-.7-1-1.2-1.5-1.8l-.2-.4-.5-.5c.4-1-.6-4.9-.5-5.9v-3.4V70.9c-.1-.6.2-1.3-.2-1.9-.2-.9-.1-1.9 0-2.8v-2.6-3.7c-.1-.6-.2-1.1 0-1.7v-.7l-.1-.1.1-.1v-2.5l-.1-.9c-.2-.3.2-.1.2-.2v-.9l.1-.2v-2.1l-.2-.2h-.1c.2-.8.2-1.6.2-2.4v-8.4-2.6-1.6l-.2-.7v-2.1c.2-.2.2-.4.2-.6v-7.7l-.1-.6v-1.9-1.9c0-.5.2-1-.2-1.4v-.7-.6-.4l.1-.1v-2.2l.1-.4c0-.2-.1-.3-.3-.4l-.3.5c-.4 1-.1 2-.1 3 0 3.3-.1 6.5.3 9.8.1.7-.2 1.4-.1 2.1.3 1.6-.1 3.1.1 4.7 0 .2-.3.5.2.5 0 2.7-.1 5.4.2 8.1-.3.2-.2.5-.2.8v3.8c-.2.3-.1.6-.1.9-.1.8.1 1.6-.1 2.4v.7c.2.5-.1 1.1.2 1.6v1.9a6 6 0 0 0 0 1.9c.2.5-.3 1 0 1.6h.2v26.8c.3.4.1.8 0 1.2v.3 1.4l-.1 2.1c0 .4-.1.8.4 1.1-.2.2-.3-.6.1-.2l.2.1 1.4.1h1.3l.8-.1c.2-.1.3-.1.3-.3.1-.2-.1-.2-.2-.3z" class="st1"/><path d="M42 99.6c-.5-.1-1.1.3-1.4-.3.4-.4.3-1 .8-1.5l.2 1.1.3.3c.3.2.1.3.1.4z" class="st43"/><path d="M40.3 95.1l.4.4c.2.2.3.7.6.6.4-.2.1-.6.1-.9.4.2.2.5.2.8.1.4-.6.8-.1 1.2-.2.2-.3.6-.6.3l-.5-.4c.3-.2.4-.5.3-.8.2-.6-.5-.7-.4-1.2z" class="st63"/><path d="M39.2 97.6c.4-.2.7.1 1.2.2-.7.3-.7.3-1.2-.2zM43.7 95.6c.2-.3.5-.2.8-.1.4.1.1.3-.1.3-.2-.2-.4-.1-.7-.2z" class="st43"/><path d="M44.9 98.7c-.4.2-.5.4-.7.3v-.1c.1-.4.4-.1.7-.2zM42 99.3c-.2 0-.3-.1-.3-.3l.4-.1-.1.4z" class="st63"/><path fill="#bebebe" d="M40.8 96.2c.5.5.4.8-.3.8l-.4-.3-.3-.7c-.1-.3-.1-.5.3-.4.2.3.3.5.7.6z"/><path d="M40.1 95.7c-.2 0-.3.2-.3.4-.1-.2-.2-.4 0-.6.1-.2.2-.1.3.2z" class="st144"/><path d="M39.7 96c.3.2.4.4.3.7-.1-.2-.3-.4-.3-.7z" class="st144"/><path fill="#858585" d="M23.7 3.4v.1c.4.7-.4.6-.6.8-.2-.1-.5-.2-.3-.5.1-.4.5-.3.9-.4z"/><path d="M23.3 5.1h-.1c-.2-.2-.6.4-.7-.2.2-.1.3-.3.5-.3s.4 0 .5.3l-.2.2z" class="st27"/><path fill="#686868" d="M23 4.6c-.1.2-.3.4-.5.3 0-.3-.1-.6.1-.9l.4.6z"/><path fill="#9b9b9b" d="M23 4.6c-.3-.1-.3-.3-.3-.5l.2-.2c.1.2.4.2.3.5l-.2.2z"/><path d="M23.3 5.1l.2-.2h.1c.2.1.1.2.1.4-.2.1-.4.1-.4-.2z" class="st72"/><path d="M19.5 3.4c.2.3.3.6-.1.9-.3.2-.2.6-.3.8-.2.2 0 .6-.5.5-.4-1.1-.1-2 .9-2.2z" class="st94"/><path fill="#909090" d="M18.7 5.6l.5-.5c0 .2.2.3.3.1.1-.3.2-.7.5-.9l-.3 1.2c-.2.2-.1.4-.1.6l-.9-.5z"/><path d="M8.6 10.3c-.2-.4-.5 0-.7 0-.2 0-.3-.2-.4-.3 0-.5.3-.4.6-.4.4-.1.8 0 1 .3.1.5-.2.4-.5.4z" class="st0"/><path fill="#fafafa" d="M9.5 10.5v-.3c.2-.2.4-.3.7 0l-.5.3h-.2z"/><path d="M8.6 10.3l.6-.3.2.2v.1c-.2.1-.4.2-.7.1l-.1-.1z" class="st135"/><path d="M9 9.3h.9c-.3.2-.6.2-.9 0z" class="st0"/><path d="M9 55.6c1.4.3 2.9.2 4.3.3l6.2.2 6.1.2c3.5.1 6.9.4 10.4.4 2.8.1 5.6.4 8.4.3.5 0 .9 0 1.4.2v1.5 8.4c0 2.8.1 5.6-.1 8.3 0 .4-.1.9.1 1.3v4c-.4.4-.6.9-1.2 1h-.7c-.7-.3-1.4-.1-2.1-.2-.6.1-1.1-.2-1.7 0-.8-.3-1.7-.2-2.6-.3-1.5-.2-3-.2-4.5-.2h-1c-.4-.3-.9-.1-1.4-.1l-7.4-.4v-.1c.3-.2.6 0 .8-.1.2 0 0-.2.1-.1-.7.2-1.5-.1-2.2.1h-1.3v-.2l.3-.1c-.4.1-1-.1-1.5.1H18l-.2-.1h-1.5H15.5c-1.8-.2-3.6 0-5.4-.5l-.7-.9c-.2-.3-.2-.7-.2-1.1v-6.3-5c0-.2.1-.5-.2-.7v-9.9z" class="st150"/><path fill="#525252" d="M45.8 58.5v-1.2c.3.3.2.6.2.9v16.4c0 .1 0 .3-.2.3l-.1-.6V59l.1-.5z"/><path d="M45.6 46.4c-.3-.5-.2-1-.2-1.5v-5.2c0-.1.1-.1.1 0v3.8l.1 2.9zM45.6 49.9c-.3-.8-.3-1.6 0-2.4v2.4z" class="st6"/><path d="M8.8 25.5v-1c.1 1.3.4 2.5 0 3.8v-2.8z" class="st69"/><path d="M45.6 39.7h-.1V27.8c0-.3-.1-.6.1-.9v12.8z" class="st136"/><path d="M45.8 58.5V76.6c-.3-.2-.2-.5-.2-.8V59.3c0-.3-.1-.6.2-.8z" class="st152"/><path d="M43.9 9.3c-.7.3-1.5.1-2.2.1l-.2-.1h2.4zM41.3 9.3a1 1 0 0 1-1 0h1zM38.2 9.3c-.3.2-.6.2-.9 0h.9z" class="st0"/><path fill="#727272" d="M34.7 19.6h-4.1s-.1-.1 0-.1v-.1h4.1v.2z"/><path d="M30.6 19.4v.2h-9.7l-.5-.1h3.3c.9-.2 1.8.1 2.8-.1h4.2c-.1-.1-.1 0-.1 0z" class="st154"/><path d="M26.4 19.3c-.9.3-1.8.1-2.8.1v-.1h2.8z" class="st110"/><path d="M43.7 10.8v-.4h.2v.3l-.2.1z" class="st0"/><path fill="#262727" d="M21.8 80.2c.8-.3 1.6-.1 2.4 0h-2.4z"/><path d="M19.2 80.1c.6-.4 1.3 0 2-.2-.3.3-.6.2-.8.2h-1.2z" class="st47"/><path d="M17.8 79.9v.2h-1.7v-.2c.6-.1 1.1-.2 1.7 0z" class="st49"/><path d="M18.4 10.3l.3.1c-.2.1-.2.3-.2.5-.3-.1-.1-.4-.1-.6z" class="st29"/><path fill="#01a1e9" d="M30.6 34.5c-.3-1.6-.1-3.1-.2-4.7 0-.4.3-.4.5-.4l10.3.2c.5 0 .5.3.5.7v3.6c0 .7-.2.8-.8.8l-9.1-.2h-1.2z"/><path fill="#02a1e8" d="M15 34.5c-.6.3-.8-.3-1.1-.5-.6-.4-.8-1.7-.9-2.6-.2-1.4.8-2.5 2.4-2.8h.3l.3.6c.1.9-.1 1.7-.2 2.6l-.2 1.2-.2.5c-.2.3-.1.7-.4 1z"/><path fill="#03a1e7" d="M17.4 34.1l-.4.2c-1.1.6-1.1.6-1.1-.7-.1-.1-.2-.3-.1-.5l.2-.5.4-1.9.2-.1c.4 0 .9-.1 1.3.1.4 0 .4.3.4.6v.9c.1.7-.5 1.3-.9 1.9z"/><path fill="#f4f4f4" d="M34.1 39.9c-.2-.1-.2-.3 0-.4.1-.2.9 0 .2-.5-.3-.2.4-.5.4-.8h.3c.3.6.6.7.9.1.1-.2.4-.1.4 0-.2.5.5.4.4.6-.1.5-.5.1-.8.2l-.2.2c0 .1.1.2.3.2h.5c.2 0 .4 0 .4.2 0 .3-.3.1-.4.2-.2.1-.5-.2-.5.2l.3.3.5.2c.1.1.3.2.1.4h-.5c-.5-.5-1-.6-1.6 0-.1.1-.5.2-.6-.1-.2-.3.2-.3.4-.4l.5-.4c-.4-.4-.8 0-1-.2z"/><path d="M15.9 33.2v.4c-.2.1-.1.3-.2.5 0 .3-.2.5-.5.3-.1-.1 0-.2 0-.4 0-.4.2-.8.3-1.1 0-.4-.1-.7.1-1.1l.3-2.7c.2-.2 0-.5.1-.8l.1-.1c.3.2.4-.5.7-.1.1.2.3.4 0 .7.3.5.2.9-.2 1.3v.4c.1 0 .1.1 0 .1h-.1c-.2.5-.1 1.1-.3 1.6-.2.3-.2.7-.3 1z" class="st160"/><path d="M17.3 37.9c.5-.2.7-.1.9.4.1.3.1.7.4 1l.4-1.1c.1-.3.2-.4.5-.4s.3.2.3.5v1.5c0 .2 0 .4-.2.4-.3 0-.2-.2-.3-.4v-1.1c-.2.3-.3.5-.3.8.1.2 0 .4-.2.5-.1.2-.3.4-.5.2-.4-.2-.4-.5-.5-.9-.1.3.2.9-.5.8l-.1-.2.1-2z" class="st161"/><path d="M41.6 20.9c-.3-.3-1-.2-.4-.9-1.2-.3-.7.7-.9 1.2l-.2-.1c-.3-.3.1-.9-.3-1.1-.5-.3-1.2 0-1.7 0h-2.5c-.9 0-1.8-.1-2.8.1-.6.1-1.3-.1-1.9-.3h9.9c.7 0 1 .3.8 1.1z" class="st9"/><path d="M33.5 39.7c-.3.2 0 .5-.1.8-.1.2-.1.5-.4.5l-.5-.1c-.2-.2.1-.4.1-.6l.1-.4-.1-.7-.2-.4-.4-.2-.6.1c-.2.1 0 .3 0 .4v.6l.1.3-.5.7c-.5-.1-.4-.5-.4-.8-.1-.7 0-1.3.2-2 .7-.2 1.4 0 2.1-.1.3 0 .4.1.4.5.2.6.1 1 .2 1.4z" class="st115"/><path fill="#dadada" d="M25.8 38.7c.7.1.9.5.8 1.2-.1.6-.5.8-1.1.6l-.3.1c-.3-.5-.1-1-.1-1.5 0-.3.1-.6-.1-.9V38c.3-.2.6-.2.6.3-.1.2-.2.4.2.4z"/><path fill="#e9e9e9" d="M31.6 40.2l-.2-.2c-.1-.3-.1-.5 0-.8 0-.1-.2-.3 0-.4.2-.2.5-.2.7-.2.2 0 .3.2.5.3l.2.4c.2.3-.1.6.2.8-.1.2.2.5-.3.4-.4-.1-.8.2-1.1-.3z"/><path d="M30.9 38.1c.1.9-.2 1.9.2 2.8-.3.3-.3 0-.4-.2-.2-.3-.5.2-.7 0-.2-.1-.5 0-.5-.3 0-.4.5 0 .6-.3-.2-.3-.9-.4-.6-1 .2-.4.6-.3 1-.2.3.2-.3.4 0 .7.2-.3.1-.7.2-1.1.1-.1-.3-.3 0-.4.1-.1.2-.1.2 0z" class="st164"/><path d="M27.9 40c.8.1.3-.5.4-.8.1-.1-.1-.4.2-.4.3-.1.3.2.4.4.2.4.2.9 0 1.3h-.7c-.4.1-.7 0-.7-.4-.1-.4-.2-.9.1-1.4h.3c.2.5 0 .9 0 1.3z" class="st165"/><path fill="#2d1e14" d="M30.6 34.7c3.3-.1 6.7.2 10 .2-2.9.3-5.7-.2-8.6-.1-.5 0-1 .4-1.4-.1z"/><path fill="#eee" d="M22.2 39.5c0 .5-.3.8-.8.9-.7 0-.8-.4-.8-.9s.3-.9.8-.9.8.4.8.9z"/><path fill="#e7e7e7" d="M23.9 40.4c-.3-.1-.8.2-1-.3-.1-.5-.2-.9.2-1.3h.6c0 .3-.3.4-.2.7.2-.1 0-.4.2-.5l.2-.4c-.2-.1-.2-.3-.2-.5.2-.2.5-.6.5.1v1.9c.1.3-.1.4-.3.3z"/><path fill="#0a9bdb" d="M16.4 30.1l.2-1.3c.6.2 1.3.7 1.2 1.2-.1.4-.9.1-1.4.1z"/><path d="M16.6 43.7c-.3.3-.6.3-1 .5-.2-.4-.1-.8 0-1.2.3-.3.4-.1.5.2.2.6.2-.1.4-.1.2.1.3.3.1.6z" class="st94"/><path d="M34.6 38.1s0 .1 0 0c.3.6-.5.4-.4.7.2.4.7 0 .9.3.2.2.1.3-.2.3H34c-.2-.6.2-.9.6-1.3z" class="st28"/><path d="M9.1 21.3c0 .8-.2 1.7.4 2.4.1.1-.1.2-.3.2-.2.1-.3 0-.3-.2v-2.4h.2z" class="st69"/><path d="M23.9 40.4c.2 0 .4 0 .4-.3l-.1-2c-.1-.5-.3-.1-.4 0 .2-.5.6-.5.6 0v2.2c-.1.2-.3.3-.5.1z" class="st11"/><path d="M33 44.4l-.2.2c-.2-.4-.5.2-.7 0H32c-.3-.5-.3-.9.1-1.4l.8.8c.2.1.2.2.1.4z" class="st170"/><path d="M30.9 38.1h-.2c.8-.3 1.6-.1 2.3-.1.3 0 .4.2.4.5v1.3c-.2-.5.2-1.3-.2-1.5-.6-.4-1.5-.3-2.3-.2z" class="st28"/><path d="M37.8 44.3l-.2.2c-.3.2-.5.1-.7-.2-.2-.3 0-.5.2-.7.3-.3.5 0 .7.2.2.2.2.4 0 .5z" class="st50"/><path d="M26.5 44l-.4.2c-.3-.3-.2-.7 0-1 0-.1-.3-.2-.1-.3l.3.1.2.4c.2.3.5.1.7.3 0 .1.1.1 0 .2l-.4.2-.3-.1z" class="st62"/><path fill="#ddd" d="M23 44.3v-.5c.1-.3-.2-.6.2-.8.1-.1.3 0 .3.2.1.4.1.7-.3.9l-.2.2z"/><path d="M18.5 43.3c.4.1.2-.4.6-.4.3.4.3.9 0 1.3-.2 0-.4.1-.6-.1-.2-.3-.2-.5 0-.8zM28.6 43.8l-.3.7c-.2-.5-.4-1 0-1.2.3-.2.3.3.5.5 0 .1-.1.1-.2 0z" class="st170"/><path d="M22.3 43.9c.1.3 0 .4-.3.4-.1 0-.3 0-.2-.2.1-.2-.1-.7.3-.8.4 0-.1.5.2.6z" class="st85"/><path d="M27.5 32.4s.1.1.1 0l.1.1h-1.4v-1.4c.3.2.1.5.1.7 0 .3.1.4.4.4h.3l.4.2z" class="st33"/><path d="M30.7 38.5v1.4l-.7-.5c0-.4.7.1.6-.5l.1-.4z" class="st40"/><path fill="#c5c5c5" d="M31.3 43.7l.5-.5c.4.4.3.9.1 1.4-.2.2-.3.1-.4-.1-.2-.3-.3-.6-.2-.8z"/><path d="M31.8 44.5l-.1-1.4h.5l-.1 1.4h-.3z" class="st19"/><path d="M18 39l.4 1.2c-.2.1-.3.4-.5.1-.1-.4-.4-.9.1-1.3z" class="st69"/><path d="M9.1 39.6v2.1H9l.1-2.1c0-.1 0-.1 0 0z" class="st97"/><path fill="#b6b6b6" d="M30.6 44.5c-.2.3-.4.1-.6 0-.3-.3-.3-.5 0-.8l.5.1c-.1.3 0 .5.1.7z"/><path fill="#c9c9c9" d="M26.5 44h.3c.3 0 .6-.2.9 0-.5.5-.9.5-1.2 0z"/><path d="M37.8 44.3v-.5l.1-.2c.2-.1.3-.1.4.1.1.3-.1.4-.2.6 0 .1 0 .3-.2.3-.1.1 0-.2-.1-.3z" class="st67"/><path d="M24.9 38.1c.3.8-.1 1.6.2 2.4-.5-.7-.1-1.6-.2-2.4z" class="st30"/><path fill="#cfcfcf" d="M20.9 44l.3-.6c.2.9.2.9-.6.8l.3-.2z"/><path fill="#9a9a9a" d="M18 39c-.3.4 0 .9-.2 1.3-.2 0-.4.1-.5-.1.4 0 .3-.3.3-.5v-1c.3 0 .4.1.4.3z"/><path d="M20 43.3c.4.2.4.5.2.7-.2.4-.6.2-.9.1l.1-.1.1-.1.2-.2.1-.3.2-.1z" class="st71"/><path fill="#22222e" d="M11.5 31.2c0 .5.2.9.3 1.3-.4-.3-.4-.3-.3-1.3z"/><path d="M31.3 43.7l.2.6c-.1.2-.1.3-.4.2-.3-.3-.4-.7.2-.8z" class="st60"/><path fill="#d9d9d9" d="M36.1 43.6l.3-.1c0 .2.1.4-.1.5-.1.2.1.5-.2.7-.2-.3-.1-.6-.1-.9-.1-.1 0-.2.1-.2z"/><path d="M26.1 43.1v1l-.2.1-.2-.1c.2-.3-.3-.8.4-1z" class="st180"/><path d="M38.2 44.3c0-.2.5-.7-.2-.7.2-.3.4-.2.6-.1.3.3.1.5-.1.7 0 .1-.1.1-.2 0l-.1.1z" class="st83"/><path fill="#646464" d="M33 44.4V44c.2 0 .2-.5.5-.2l.1.5c0 .1-.1.2-.3.2l-.3-.1z"/><path fill="#d3d3d3" d="M28.6 43.8h.2c.4.1.1-.4.3-.4.2.1.3.2.2.5l-.4.6c-.3-.1-.2-.4-.3-.7z"/><path d="M17.1 43.5c.2-.1.4.1.5.2l.2.4c-.2.3-.5.1-.7.1-.2-.3-.2-.5 0-.7z" class="st83"/><path d="M30 43.7c-.1.3-.1.5 0 .8h-.4c-.1-.4-.2-.8 0-1.2l.4.4z" class="st49"/><path d="M24.6 43.3v1.1c-.7-.1-.1-.7-.4-1 .1-.2.2-.2.4-.1z" class="st87"/><path d="M34.4 43.8c.2-.1.4-.3.5-.1.1.2-.1.5-.2.7l-.3-.2c-.1-.1-.1-.2 0-.4z" class="st83"/><path fill="#080808" d="M17.3 37.9V40c-.3-.7-.3-1.4 0-2.1z"/><path fill="#a9a9a9" d="M27.1 43.7c-.2-.2-.7.2-.7-.4.3.1.7-.2 1 .2 0 .1-.1.2-.3.2z"/><path d="M25.2 44.2c-.1-.4-.5-.8.2-1.1.2.3.1.6.1.9h-.1l-.2.2z" class="st180"/><path fill="#13251a" d="M30.6 34.7c.4.3.9.1 1.4.2-.4.3-.8.2-1.2.1-.4 0-.4-.3-.1-.5l-.1.2z"/><path d="M29.6 43.3v1.2c-.4-.1-.1-.4-.2-.6l-.2-.5c0-.3.2-.2.4-.1z" class="st164"/><path d="M16.6 43.7c.1-.2-.1-.4-.2-.6.1-.2.2-.3.4-.2.2.4.2.8 0 1.2-.3 0-.2-.2-.2-.4z" class="st165"/><path d="M25.8 38.7c-.4.3-.4-.1-.4-.3 0-.5-.2-.5-.6-.4.1-.2.3-.2.5-.2.2-.1.2 0 .2.2.1.2 0 .5.3.7z" class="st30"/><path fill="#020202" d="M28.8 40.5v-1.3l.1-.2c.1.5.4 1.1-.1 1.5z"/><path d="M26.6 33.1l-.7-.2c0-.1-.2-.2 0-.3h.3c.2.2.5.2.4.5z" class="st33"/><path d="M34.4 43.8v.5l-.4.3c-.2-.2-.2-.5-.2-.8l.1-.2.5.2z" class="st39"/><path d="M17.1 43.5v.7c-.1.1-.1.2-.2 0V43c.5 0 .1.3.2.5z" class="st57"/><path d="M19.9 38.2c.2.3.3.6 0 1v-1z" class="st5"/><path d="M37.2 43.6l-.2.7c.1.2 0 .2-.2.2l-.2-.2c-.1-.2-.2-.3 0-.4.2-.2.3-.4.6-.3z" class="st121"/><path d="M30.6 44.5c-.2-.2-.3-.4-.2-.7.1 0 .3-.2.3 0 .1.3.2.6-.1.7z" class="st71"/><path fill="#f7f7f7" d="M33.9 43.8c.3.2.1.5.1.8-.2-.1-.4.2-.6-.1l.1-.1c.4-.1.2-.5.4-.6z"/><path d="M36.8 44.5l.2-.2c.2.2.4.2.7.2-.3.6-.6.3-.9 0z" class="st188"/><path d="M16.4 30.7v-.1c.5.1 1-.1 1.4.1h-1.4z" class="st189"/><path d="M30.1 40.7c.2.1.5-.7.7 0-.3.1-.5.3-.7 0z" class="st6"/><path d="M36.7 43.9v.4c-.3.2-.1-.3-.3-.3 0-.2-.1-.4.1-.5l.2.4z" class="st5"/><path d="M33.9 43.8c-.1.2.2.6-.3.6v-.6l.3-.1v.1z" class="st27"/><path d="M20 43.3l-.2.1-.1.5-.1.2c-.3-.3-.3-.7 0-1 .1.1.2.3.4.2z" class="st70"/><path d="M34.1 39.9h.8c.2 0 .2.2 0 .3-.2-.3-.6-.1-.8-.3z" class="st28"/><path d="M15.6 43v1.2c-.3-.4-.3-.8 0-1.2z" class="st5"/><path d="M17 42.9v1.2h-.2v-1.2h.2z" class="st154"/><path fill="#9f9f9f" d="M19 44.2v-1.3h.2c.2.4.2.8 0 1.2l-.2.1z"/><path d="M18.9 40l.2-.5c.2.2.2.5.1.7l-.3-.2z" class="st62"/><path d="M19.2 44.2V43h.2c.2.4.1.8.1 1.2h-.3z" class="st191"/><path fill="#b2b2b2" d="M19.4 44.2l-.1-1.2c.2 0 .2.1.2.2v1c0-.1 0 0-.1 0z"/><path d="M27.9 40l-.1-1.2c.4.4.3.8.1 1.2z" class="st138"/><path d="M27.1 43.7l.3-.2c.2 0 .3.1.4.3h-.7v-.1z" class="st7"/><path fill="#d5d5d5" d="M36.1 43.6l-.1.2c-.2-.1-.4-.2-.2-.4 0-.1.3-.1.3.2z"/><path d="M15.6 28.6h-.2c0-.2-.1-.5.2-.6.2-.1.3.1.3.3l-.3.3z" class="st160"/><path d="M24.6 43.3h-.4-.1l-.1-.1c.2-.2.6-.1.8 0l-.2.1z" class="st165"/><path fill="#192009" d="M17.4 34.1c.1.1.4.2.3.4l-.1.1c-.3-.1-.2-.3-.2-.5z"/><path d="M25.6 37.9l-.2-.2c.2-.2.4-.3.5 0 .1.2-.1.2-.3.2z" class="st20"/><path d="M34.2 37.4c0 .5 0 .6-.4.7l.4-.7z" class="st28"/><path fill="#f2f2f2" d="M20.9 44l-.2.2c-.2-.3-.1-.6-.1-.8.3.1.1.4.3.6z"/><path fill="#0895d2" d="M15.2 34.1v.3h-.1c0-.3-.1-.7.2-1 0 .3.1.5-.1.7z"/><path d="M31.1 44.5l.4-.2c0 .2.2.2.3.2-.2.1-.5.5-.7 0z" class="st114"/><path d="M32.2 44.5c.2 0 .5-.3.7 0-.3.2-.5.2-.7 0z" class="st188"/><path d="M25.2 44.2l.2-.2c.1.2.2.2.4.2l.2.1c-.3.1-.6.3-.8-.1z" class="st197"/><path fill="#060606" d="M27.1 43.8h.7l-.2.2h-.9l.4-.2z"/><path d="M24.5 44.3v-.9c.5.4.2.7 0 .9z" class="st191"/><path d="M25.6 32.4c-.1.3-.5.1-.7.4-.2-.1-.1-.3 0-.4h.7z" class="st32"/><path d="M38.4 44.4h.2c.2.2.2.4 0 .4-.3 0-.2-.3-.2-.4z" class="st69"/><path d="M25.4 44l-.1-.9c.4.3.3.6.1.9z" class="st191"/><path d="M23.6 39c-.1-.3-.3-.2-.5-.3.2-.3.5 0 .7-.2.1.3 0 .4-.2.5z" class="st76"/><path fill="#04b4fc" d="M18.3 32.1a.8.8 0 0 1 0-.9v.9z"/><path d="M36.6 40.6l-.5-.2c.3-.2.5-.3.5.2z" class="st64"/><path d="M33.8 41.2l-.2.2c-.1.1-.2-.1-.1-.1l.3-.2c-.1 0-.1.1 0 .1z" class="st28"/><path fill="#ebebeb" d="M18.5 43.3v.7l-.2-.1v-.5l.2-.1z"/><path fill="gray" d="M18.3 43.5v.5l-.2-.2c-.1-.1-.1-.2.1-.3h.1z"/><path fill="#a0a0a0" d="M17.8 44l-.2-.4c0-.2.1-.2.2-.2.2.3.1.4 0 .6z"/><path d="M17.8 44v-.5h.1l.1.3-.2.2z" class="st197"/><path d="M18 43.8l-.1-.3h.2l-.1.3c.1 0 .1 0 0 0z" class="st31"/><path d="M11.8 67.1l10.2.5 12.9.6 6.5.2 3.2.3c.2 0 .5-.1.4.2 0 .4-.3.1-.5.2-1.4.1-2.8 0-4.2-.1-1.7-.2-3.4 0-5-.2-2.2-.3-4.4-.3-6.7-.4l-7.9-.4-6-.3-4.2-.2c-.2 0-.5 0-.5-.3s.3-.3.5-.3c.3.2.7.2 1.3.2z" class="st152"/><path d="M34.1 61.9l-.2-.4c-.3-.7-.1-1.2.5-1.4.6-.2 1 .2 1.1.7.2.6-.1 1-.7 1.2h-.3c-.2.1-.4.1-.4-.1z" class="st203"/><path fill="#f3f4f3" d="M28.1 60.9c-.2.4-.4.9-1 .9-.5 0-.8-.4-.9-.8-.1-.6.2-1 .7-1.2.2-.2.4 0 .6.1.2.1.3.2.3.4.2.1.3.3.3.6z"/><path d="M20.7 60.9c-.7.8-1.4.8-1.7-.1-.2-.5-.1-.9.4-1.2.7-.3 1 .2 1.3.6.2.3.2.5 0 .7z" class="st68"/><path fill="#f4f5f4" d="M31.8 61.1c-.6 1.1-1 1.1-1.7.2-.1-.3-.2-.6 0-.9.8-.7 1.1-.7 1.7.4v.3z"/><path d="M23 61.4l-.1-.3a1 1 0 0 1 .1-1.2c.2-.2.4-.4.8-.2.5.2.7.6.7 1.1v.4c-.8.7-1 .8-1.5.2z" class="st203"/><path d="M23 61.4c.6.5.9-.1 1.4-.2.3.3.1.6-.1.7-.2.1-.4.1-.4.4 0 .3.4.2.5.3.2.1.9.1.2.6l-.2.1h-.7l-.2-.1c-.2-.2-.6-.1-.8-.4-.4-.5 0-.3.2-.3.2-.1.5.1.5-.2 0 0-.2-.7-.5-.1-.1.2-.4-.3-.4-.4-.1-.4.2-.3.5-.4z" class="st150"/><path fill="#3d3f3e" d="M16.3 74.4h-.2c-.1-.2-.4-.1-.6-.3-.3-.3-.3-.7.1-1l.9-.2c.4.2.8.3.5.9l-.7.6z"/><path d="M38.5 75.1c0 .7-.5.5-.9.5-.3-.2-.2-.5-.3-.8 0-.3 0-.5.2-.7.3-.1.6 0 .8 0 .3.3.2.6.2 1z" class="st207"/><path d="M38.5 75.1c-.3-.3.1-.7-.1-1.1l.3.2c.5 0 .5.4.5.8 0 .3 0 .5.4.3v-.1h.1c.1 0 .4-.2.3.2-.1.4-.5.4-.8.5-.4 0-.5-.5-.7-.8z" class="st208"/><path d="M28.3 74.4c-.4-.1-.5.1-.5.5-.4.2-.5-.1-.5-.4l.1-.9c.4.2.8.9 1-.2.3.3.2.5.2.8 0 .2-.1.3-.3.2z" class="st209"/><path fill="#dee0df" d="M26.8 73.8c-.2.5.4.3.4.6.1.1.1.2 0 .4-.2.3-.5.3-.7.2-.4-.2.2-.3.1-.4-.1-.3-.6-.6-.1-1 .2-.2.3-.1.3.2z"/><path d="M30.2 74.9c-.2.6-.6.3-1 .2l.1-.1c.1 0 .2-.1.2 0h.2l-.2-.1c-.1-.2.1-.4-.1-.6-.3-.5.2-.6.4-.8h.2v.4c.2.2.2.5.3.8l-.1.2z" class="st211"/><path fill="#9a9c9b" d="M34.7 63.9h.2c.2-.2.4-.4.7-.1.3.2 0 .3 0 .5-.1.3-.3.4-.6.4-.4-.2-.2-.5-.3-.8.1 0 .1 0 0 0z"/><path fill="#bfc1c0" d="M39.6 75.3l.1.3c-.2.2-.4.1-.6.1-.2 0-.1-.2-.1-.3.2-.4.3-.8-.2-1.1.6-.4.8-.2.8.5-.1.1-.2.3 0 .5z"/><path d="M34.9 75.4c-.4 0-1.1.3-.6-.6v-.5c-.1-.2-.4-.3 0-.4.3-.1.4 0 .4.3-.1.4-.2.8.2 1.2z" class="st214"/><path fill="#888a89" d="M18.4 63.9c.1-.6-.2-1.1.4-1.2.2 0 .4 0 .5.3.1.5-.4.6-.9.9z"/><path fill="#252726" d="M37.5 74.1v.7c-.1.1 0 .4-.2.5h-.6c-.4-.2-.4-.5-.1-.9.2-.2.6-.1.8-.3 0-.2.1-.1.1 0z"/><path fill="#2b2d2c" d="M28 60.2l-.3-.3c-.1-.1-.1-.2 0-.2.4-.1.6-.5.8-.8.3-.3.6-.2.9.2-1-.2-1.1.7-1.4 1.1z"/><path fill="#d5d7d6" d="M17.8 73c.4-.1.6 0 .7.4.1.4.2.8-.2 1-.4.3-.6 0-.7-.4l.1-.1.2-.1c.2-.2 0-.4-.1-.7-.1 0 0 0 0-.1z"/><path d="M33.5 75.1c-.2.4-.6.3-.7 0-.2-.4-.4-.9.2-1.2l.2.1.1.6.1.2.1.3z" class="st219"/><path fill="#cbcccc" d="M20.9 74.4c-.2.4-.5.4-.7.1-.2-.4-.4-.9.2-1.3l.2.1c.2.2-.2.5.1.7.2 0 .1.2.2.4z"/><path fill="#2a2c2b" d="M28.4 63.3a1 1 0 0 1 .1-.9c-.2.6 1.2 1.1.1 1.8-.3-.3-.3-.6-.2-.9z"/><path fill="#d8dad9" d="M19.5 73.2c.3.3.3.7.1 1-.2.5-.5.6-.8 0l.1-.1.1-.2.1-.6c.2-.1.3-.2.4-.1z"/><path fill="#828483" d="M28 64.2c-.5.1-.3-.6-.7-.5v-.1-.1c.2-.3.5-.5.9-.1.2.3 0 .6-.2.8z"/><path fill="#c4c6c5" d="M24.5 74.2c-.1.4.5.3.5.7-.4.1-.7 0-1.1-.1.2-.3.3-.5.6-.6z"/><path fill="#d3d5d4" d="M36.6 74.4c-.2.3-.3.6.2.7 0 .3-.2.2-.3.3-.6-.5-.5-.9 0-1.4h.2l-.1.4z"/><path fill="#626463" d="M30.9 63.7c.1.6-.2.8-.7.7-.1-.1-.4 0-.3-.3h.2c.3-.1 0-.6.3-.7.3.2-.1.5.1.6.1-.3 0-.5.4-.3z"/><path fill="#eaeceb" d="M32.2 75.1c-.1.4-.4.1-.7.2.2-.4.5-.8.1-1.2-.1-.2-.1-.2.4-.3.4.3 0 .8.2 1.3z"/><path fill="#b2b4b3" d="M16.3 74.4c0-.4.3-.5.5-.7.1-.1.2 0 .3.1.1.2.3.3.2.6h-1z"/><path fill="#e2e3e3" d="M15.5 73.1c-.2.3-.1.7-.1 1v.1c-.4-.2-.3-.5-.4-.8-.1-.1-.1-.3.1-.4.1-.1.3-.1.4.1z"/><path fill="#f9fbfa" d="M20.4 73.3l-.1-.1c.2-.3.3 0 .5 0 .3.2.3.5.1.8l-.1.3-.3-.3c-.2-.1.1-.5-.1-.7z"/><path d="M29.9 64l.3.3c-.4.1-.7.1-.7-.4 0-.2-.4-.7.3-.6.2.3.2.5.1.7z" class="st231"/><path fill="#3b3d3c" d="M31.4 64c-.2 0-.2-.2-.2-.3.1-.2 0-.5.3-.5.2 0 .2.2.2.3.1.3 0 .4-.3.5z"/><path d="M17.3 74.4c.1-.3-.5-.2-.4-.6.1-.2.1-.5.3-.6.3-.2.1.1.2.2.2.2.3.4.2.7h-.1l-.2.3z" class="st99"/><path d="M22.5 74.7c-.4-.3-.2-.7-.2-1 0-.2-.1-.5.2-.5.3 0 .3.3.4.5-.4.3-.1.8-.4 1z" class="st233"/><path fill="#acaead" d="M33.2 63.5c.4-.4.6 0 .8.2v.1c-.2.2-.4.2-.7.2l-.1-.5z"/><path d="M17.8 79.9h-1.7c.5-.3 1.1-.1 1.7-.3.2 0 .1.2 0 .3z" class="st26"/><path fill="#c6c8c7" d="M17.3 73.2c0 .2 0 .5-.3.6l-.2-.1c.1-.3.2-.5-.2-.5-.2 0-.1-.2-.1-.3.3-.2.5 0 .7.2l.1.1z"/><path fill="#333534" d="M27.2 74.7v-.4c.3-.2 0-.6.3-.7.2.4-.4 1 .4 1.2-.4.5-.5.1-.7-.1z"/><path d="M23.3 73.5v-.3c.2 0 .3 0 .3.2v1.3c-.4 0-.3-.3-.4-.6.2-.1.1-.4.1-.6z" class="st237"/><path d="M27.3 63.5v.2c-.2 0-.2.5-.5.3l-.4-.5.1-.2c.3-.1.6-.1.8.2z" class="st238"/><path d="M22.5 74.7c.1-.3-.2-.8.4-1l.1.5c.2.1.2.2.1.3l-.6.2z" class="st239"/><path d="M28 64.2l.2-.9.2-.1c.3.3.2.6.1.9l-.5.1z" class="st240"/><path d="M24.5 73.7c-.2 0-.6 0-.4-.3.2-.4.5-.3.8 0l-.4.3z" class="st241"/><path d="M22.6 62.8l.9.3c-.1.1-.1.1-.2 0H23c-.1.1-.3 0-.4 0l-.2-.2c-.1-.1.1-.1.2-.1z" class="st231"/><path d="M21.1 63.2l.2.2c-.2.2-.4.6-.8.3 0-.2-.1-.5.2-.7.2-.1.3 0 .4.2z" class="st211"/><path d="M24.5 73.7c0-.2.1-.4.3-.3.1.4.3.8-.4.8l.1-.5z" class="st209"/><path fill="#a4a6a5" d="M23.3 63.2H23.6c.2.1.3.3.2.5 0 .1-.1.3-.3.2-.3-.2-.1-.5-.2-.7z"/><path fill="#272928" d="M15.5 73.1c-.3-.1-.4 0-.5.3-.3-.3-.1-.5.2-.7l.4-.1-.1.5z"/><path d="M33.5 75.1l-.1-.2c-.2-.2-.2-.5-.1-.8l.1-.2c.4.3.3.7.1 1.2z" class="st244"/><path fill="#babcbb" d="M34 63.9v-.2c.2 0 .5-.2.7.1-.2.2-.4.9-.7.1z"/><path fill="#515352" d="M23.9 63.7l-.2-.5c.2-.3.4 0 .5 0v.5h-.3z"/><path d="M21.1 63.2c-.8-.4-.4.2-.5.5l.1.1-.1.1c-.3-.3-.1-.7-.2-1 .3-.1.6-.2.7.3z" class="st214"/><path d="M26.5 63.3v.2c.1.1 0 .1 0 .2-.3.1-.4 0-.5-.2-.1-.3.1-.4.3-.5.2 0 .2.2.2.3z" class="st238"/><path fill="#cccecd" d="M23 74.5l-.1-.3.4-.7.1.6c-.1.1 0 .4-.3.5l-.1-.1z"/><path d="M17.7 74.1l-.2-.7c.2-.1.1-.4.3-.4v.2c.2.3.2.6-.1.8v.1z" class="st233"/><path d="M36.6 74.1h-.1c0-.1-.1-.3.1-.3s.5-.1.6.3h-.6z" class="st152"/><path fill="#808281" d="M30.9 63.7c-.2 0-.3.2-.4.4-.2-.2 0-.5-.1-.7.3 0 .6-.2.5.3z"/><path fill="#989a99" d="M26.4 63.7v-.2c.3 0 .3.3.3.5-.2.1-.5.4-.8 0l.5-.3z"/><path d="M29.2 75.1c-.2-.5-.2-1.1 0-1.6l.1.1c-.1.5.3 1-.1 1.5z" class="st250"/><path d="M32.1 73.7c.5.4.1.8.1 1.2-.3-.4-.1-.8-.1-1.2z" class="st251"/><path fill="#a8aaa9" d="M26.8 73.8c-.1-.1-.2-.3-.4-.3v-.1c.2-.1.5-.2.7.1 0 .2 0 .4-.3.3z"/><path fill="#1f2120" d="M17.1 73l-.7-.2c0-.2.1-.4.3-.3.3 0 .4.2.4.5z"/><path fill="#f5f7f6" d="M36.5 75.4l.3-.3c.2-.1.3-.1.4.1-.2.5-.4.3-.7.2z"/><path d="M20.9 74l-.1-.8c.5.2.8.5.1.8z" class="st152"/><path fill="#d1d3d2" d="M28.3 74.4l.4-.2c0 .3.1.5 0 .8-.5 0-.3-.4-.4-.6z"/><path d="M23.2 74.5l.3-.5c.1.2-.2.5.2.6-.3.5-.4.1-.5-.1z" class="st241"/><path fill="#303231" d="M36.6 74.1h.7c-.1.5-.4.3-.7.3v-.3z"/><path d="M30.2 74.9v-.2c0-.1 0-.2.2-.2l.4.2.2.1v.1c-.3.7-.5.1-.8 0z" class="st237"/><path fill="#eceeed" d="M15.4 74.2s.1-.1 0 0c.3 0 .6-.3.7.2-.3 0-.6.1-.7-.2z"/><path d="M27.1 73.4l-.7-.1c-.1 0-.3 0-.1-.2.3-.2.6-.1.8.3z" class="st152"/><path fill="#161817" d="M27.7 59.7v.2l-.6-.2-.2-.1c-.1-.1 0-.1.1-.1.2.1.5-.1.7.2z"/><path fill="#b9bbba" d="M20.2 63.1c-.2.1-.1.5-.4.5-.2-.2 0-.4-.1-.6.2-.1.4-.2.5.1z"/><path fill="#838584" d="M32.1 73.7c0 .4-.1.8.1 1.2v.1c-.4-.4-.1-.9-.2-1.3h.1z"/><path fill="#fdfefe" d="M19.1 74.2h-.2c-.1-.3-.2-.6 0-.9.1-.1.2 0 .2 0v.9z"/><path d="M39.7 75.3h-.1v-1.1c.2.4.1.7.1 1.1z" class="st262"/><path d="M30.3 73.9c.2-.2.4-.5.7 0v.1l-.3.3-.3.1c-.2-.3-.3-.4-.1-.5z" class="st207"/><path fill="#545655" d="M26.4 63.7c0 .3-.2.3-.4.3-.2-.1-.1-.3-.1-.5l.5.2z"/><path fill="#bbbdbc" d="M22.6 63.2c.1-.2.3-.1.4 0l-.3.9-.1-.9z"/><path fill="#4c4e4d" d="M30.3 73.9c0 .1-.1.3.1.3.1.1.1.3 0 .4l-.2.1c-.2-.3-.1-.6-.1-.8h.2z"/><path fill="#1e201f" d="M30.1 73.5h-.2c-.2.2-.4.2-.7 0 .3-.4.6-.2.9 0z"/><path fill="#e0e2e1" d="M31 73.8c.2.4.3.7 0 1.1-.3-.3-.3-.7 0-1.1z"/><path d="M20.7 60.9v-.6c.3.2.4.4 0 .6z" class="st52"/><path d="M20.2 63.1l-.5-.1c.2-.3.4-.5.7-.1l-.2.2z" class="st208"/><path d="M20.6 63.9v-.2c.3.1.4-.3.7-.3 0 .4-.3.6-.7.5z" class="st240"/><path fill="#d4d6d5" d="M19.1 73.4h-.2c.1-.4.4-.5.7-.2l-.2.2-.2.1-.1-.1z"/><path d="M33.2 63.5l.2.5-.1.2-.1-.1v-.6z" class="st219"/><path d="M29.9 64v-.7c.4.1.1.5.2.7h-.2z" class="st251"/><path fill="#232524" d="M37.3 75.3c0-.2 0-.4.2-.5l.1.8c-.2 0-.3-.2-.3-.3z"/><path d="M33.4 73.9v.2c-.1 0-.1.1-.2 0l-.1-.1v-.1c0-.3.1-.2.3 0z" class="st244"/><path d="M34.1 61.9l.3.2c-.1.2-.2.2-.3.1-.2-.1-.1-.2 0-.3z" class="st262"/><path d="M31.8 61.1v-.3c.4-.1.1.2.2.4 0 0 0 .2-.1.1l-.1-.2z" class="st44"/><path fill="#323433" d="M30.1 60.4v.9c-.3-.3-.3-.6 0-.9z"/><path fill="#131514" d="M28.1 60.9s0-.1 0 0c0-.1.1-.1 0 0l.1-.2c.3-.1.1.1.1.2-.1.1.1.3-.1.2l-.1-.2z"/><path fill="#393b3a" d="M24.3 63.2h.2c0 .2.1.5-.2.7v-.7z"/><path fill="#101211" d="M24.3 63.2v.7l-.1-.2.1-.5z"/><path fill="#04acf8" d="M41.4 34.4h-1.5v-.1l1.5.1z"/><path d="M15.6 28.6c0-.2.2-.3.3-.3.1.3.4.6-.1.9-.1-.2.1-.6-.2-.6z" class="st0"/><path d="M15.5 31.8v1.3c-.1.1-.1.1-.2 0 .1-.4 0-.9.2-1.3z" class="st275"/><path d="M15.4 33.1h.2c-.3.3 0 .8-.4 1v-.7l.2-.3z" class="st0"/><path d="M16.1 32.2c.2-.5.1-1.1.4-1.6 0 .7 0 1.4-.3 2.1-.2-.1-.2-.3-.1-.5z" class="st189"/><path d="M16.1 32.2v.5l-.2.5c0-.3-.1-.7.2-1z" class="st275"/><path d="M32.3 38.7c-.3-.1-.5.2-.8.1 0-.1-.4-.3 0-.4h.8v.3z" class="st21"/><path d="M33 40c-.5-.2-.1-.5-.2-.8.4.2.2.5.2.8z" class="st20"/><path d="M32.3 38.7v-.2c.3-.1.4.1.4.3-.3.4-.3 0-.4-.1z" class="st89"/><path d="M31.4 39.2v.8c-.3-.3-.3-.6 0-.8z" class="st32"/><path d="M26.1 39.5c0 .3 0 .5-.3.5s-.4-.2-.4-.5c0-.2 0-.4.3-.4.4 0 .4.3.4.4z" class="st135"/><path d="M32.2 39.8c-.2 0-.2-.1-.2-.2l.1-.3c.1-.1.2 0 .2.2l-.1.3z" class="st48"/><path d="M21.7 39.5c-.1.3-.1.5-.4.5-.3 0-.4-.3-.4-.5s.1-.5.4-.5c.4 0 .3.3.4.5z" class="st18"/><path d="M23.6 39l.1.2c.2.3.2.6-.2.8-.1.1-.3 0-.3-.2 0-.3-.2-.8.4-.8 0 0 .1 0 0 0z" class="st54"/><path d="M19.7 44l.1-.5c.1.2.4.4-.1.5z" class="st41"/><path fill="#cfd1d0" d="M29.2 73.6h.7c.1.2-.1.3-.2.4-.3.2-.1.3.1.3.2.2-.6.4-.1.6l.2.1-.1.2c-.2 0-.4.1-.6-.1v-1.5z"/><path d="M29.7 74.9c-.6-.3 0-.4.1-.6.2.1.2.2 0 .3-.3 0-.3.1-.1.3z" class="st250"/><path fill="#404241" d="M17.8 74l.1-.8c.6.1.3.6.2.9 0 .2-.2 0-.3-.1z"/><path fill="#222423" d="M33 74l.2.1c.2.3.1.6 0 .8-.4-.2-.1-.6-.2-.9z"/><path fill="#666867" d="M33.2 74.9v-.8h.2v.8h-.2z"/><path d="M20.4 73.3c.4.1.1.5.2.7-.1.1 0 .5-.2.1-.2-.2 0-.5 0-.8z" class="st262"/><path fill="#0e100f" d="M19.2 73.4h.2c-.1.3.2.6-.2.8-.1-.3-.1-.6 0-.8z"/><path fill="#4b4d4c" d="M19.2 73.4v.8h-.1v-.8h.1z"/><path fill="#1a1c1b" d="M30.4 74.6v-.4l.2-.2c.5.2.3.5.2.8l-.4-.2z"/><path d="M30.8 74.9c0-.3.2-.6-.2-.8l.4-.2V75l-.2-.1z" class="st239"/><circle cx="20.4" cy="31" r="1.7" class="st161"/><circle cx="24.4" cy="31" r="1.7" class="st161"/><circle cx="19.3" cy="33.7" r=".4" class="st161"/><circle cx="20.7" cy="33.7" r=".4" class="st161"/><circle cx="22.2" cy="33.7" r=".4" class="st161"/><circle cx="23.6" cy="33.7" r=".4" class="st161"/><circle cx="25.1" cy="33.7" r=".4" class="st161"/><circle cx="26.6" cy="33.7" r=".4" class="st161"/><circle cx="28" cy="33.7" r=".4" class="st161"/><circle cx="29.5" cy="33.7" r=".4" class="st161"/><circle cx="28.4" cy="31" r="1.7" class="st161"/></svg>