<svg xmlns="http://www.w3.org/2000/svg" id="图层_1" viewBox="0 0 67.6 100"><style>.st0{fill:#2b3032}.st1{fill:#9a9788}.st4{fill:#999584}.st6{fill:#b5b3a8}.st7{fill:#7f7d71}.st8{fill:#c9c6bc}.st11{fill:#b4b3ac}.st13{fill:#b6b8b0}.st21{fill:#b9b3a3}.st23{fill:#dedbcd}.st26{fill:#41453c}.st37{fill:#afac9d}.st44{fill:#9f9f95}.st47{fill:#8b8674}.st59{fill:#6987ae}.st65{fill:#919eae}.st71{fill:#4b4945}.st77{fill:#b4ae9c}.st78{fill:#807e6f}.st79{fill:#494b46}.st80{fill:#bcbaad}.st86{fill:#a5a090}.st87{fill:#bdbab2}.st102{fill:#5e9cd2}.st106{fill:#d3d0c2}.st107{fill:#d3d1bf}.st114{fill:#1e2123}.st117{fill:#b7b5ab}.st120{fill:#6a88b2}.st123{fill:#c8c2b0}.st137{fill:#87857d}.st140{fill:#a2a39f}.st141{fill:#969587}.st151{fill:#bdbcb0}.st153{fill:#e8e5e2}.st155{fill:#d2d0c2}.st158{fill:#dedcd1}.st168{fill:#63635c}.st178{fill:#383939}.st180{fill:#2a4057}.st189{fill:#777d7b}.st200{fill:#316ea4}</style><path d="M27.9 24.8l5.5.2h6.9l7-1 4.8-1.3 2.2-.9 3.2-2.2 2.3-3.3.6-1.9-.4-2.8-2.5-3.7-6.4-4.4-6.8-2.2-9.1-.7-.4 4.2 7.6.7L47 7l3.9 1.7 2.8 2.1 1.2 1.6.8 2.2-1 2.1-2.3 1.6-3.1 1.2-2.3.8-4.7-1 2-.9 7.4-3.2 3.6-1-1.2-2.6-1-.5-11.9 4.4-2.6-.5-2.2-1.1-1.1-2.3-.9-5.8.4-5.2h-7.2l.8 5 .9 1.7 2 7.3-1.6.9-2.1.5-1.2 3 2.5.4-.8.8-1.7.4-3.2-.5-4-1.3-1.6-.8-3-2-.3-1 11.5 3.9 1.7-3.1-12.9-3.4-.4-.7 1.5-1.8L18 8.5l3.2-1.2 3.4-.4 3.7-.4-.2-.6-.2-1.7-.6-3.6-5.4 1L18 2.8 17.2 4l-.8.1-.5-.6-2.6 1.8-1.9 1.5-1.1 1.7-.8.6-1.1 2.2v1.9l1.3 3.3 2.4 2.7 3 1.8 4.6 2 4 1.2z" class="st0"/><path d="M66.1 71.2l-2.9-9.4h-3.4l-.6 3.7-.6 3.6-.1 2-1.9.1L54 70l-5.4-3.9-3-2.3-.7-1.8v-1.9l.7-1 1.4.1 3-.3.6-.8.2-3.3-.2-3.6-1.1-.2v-1.2l-.4-1.5-.9-.5-.7-.5h-1.4l-.4.7-.6 1v1.9l-.9.3H42l-.7-.5-.1-2.5v-1.3l1.3-1.1-3-2.2-2.8.1-4.9-.2-2.8.4-2 .7-.6.7.6 1.2-2.4 2.2-1.3.5-1.1-1.1-1.9.3-.6.7-.1 2.2-.8.7.3 4.2.4 3 4.9-.5.8 1.3.3 1.9-1.4 3.6-4.1 1.9-.9.5-1.9 1.3-1.9.4.2-2.7-2-3.9-5.7-.7L4 66.6 1.5 75l-1 10.1L3.1 96l1.5 1.6h4.6l4-5.2 1.6-4 .9-.4 5.7 2.6 8.2 2.1 6.3.3 5.6-6.3 3.1-6.8 4.2 3.3 4.8 3.4 5.8 2.3 1.1 8 1.4 2 3.3-.3L67 85.5l-.9-14.3zm-42.4 2l-.6.5H22L19.1 72l-.7-2.1 3-2.4 2 .3.5 4.5-.2.9z" class="st1"/><path fill="#d3cec2" d="M41.4 26.3l1 1c.2 1.3 1.2 2.2 1.7 3.4.8 2 1.2 4.1.9 6.4-.3 1.8-.7 3.6-1.4 5.3-.3.7-.6 1.3-1.1 1.8-.7.8-.9.9-2 .4v-.3c.4-1.1 1.1-2.1 1.6-3.2.3-.7.4-1.4.3-2.1.2-1.4.2-2.9.2-4.4 0-2.2-.8-4-2-5.7-.3-.4-.6-.6-1.1-.4-.9.3-1.8-.1-2.6 0h-5c-.3 0-.5-.1-.7-.4-.2-.4-.7-.4-.9-.2-.6.7-1.6.6-2.2 1.3-.4.2-.7.6-.9.9-.5.9-.9 1.9-1.2 2.9-.1.4 0 .7.2 1.1.1.3.2.7-.2 1-.3-.1-.2-.2-.1-.4l-.1.2c-.1.3-.2.7-.6.6-.4-.1-.3-.4-.3-.7 0-1.2.5-2.3 1-3.4l.4-.8c.3-1.4 1.4-2.2 2.1-3.1-.4.2-.6.8-1 1.2-.4.4-.6.5-1 .3.7-1.4 1.8-2.5 2.7-3.8.7-.3.9-.9 1.1-1.6l.2-.9c.3-.4.8-.4 1.3-.6-.1-.1.1-.1.3-.1 1.3 0 2.6.1 3.9-.1h.4c.9.1 1.1.5.6 1.2-.4.6-.4 1.1-.3 1.5v.2c0-.8.2-1.1 1-.6 1 .6 2 1.3 3.1 1.7l.7.4z"/><path fill="#9f9d93" d="M67.1 94.4s-.2 2.5-.7 3.2c-1.1-.1-1.9-.3-2.8-.2-1.1.1-1.5-.2-1.6-1.2 0-.8-.3-1.7 0-2.5l-.1-.5c-.7-.8-.6-1.8-.8-2.8-.1-.5-.3-.9-.9-.9-.4 0-.7-.3-.9-.6a2.1 2.1 0 0 0-2.4-1c-.9.2-1.7-.1-2.4-.4-1-.4-2-.5-3-.6-.6.1-1.1-.2-1.5-.5-.4-.3-.8-.8-1.3 0l-.4.1-.1-.3c.2-.5.6-1.1-.3-1.4-1.1-.6-2-1.5-2.8-2.5-.1-.1.5-.2 0-.3l-.3-.3c-.3-.4-.7-.6-1 0l-.3.2c-1.5.3-1.6 1.6-2 2.7-1.2 3-3 5.4-6 7l-2.8 1.3-.8.2c-1.2-.1-2.3.2-3.5.3-1 .1-1.8-.4-2.8-.5-2-.2-3.9-.9-5.6-2.1a19 19 0 0 0-6.5-4.3c-1-.4-1.6-1.2-1.6-2.1.2-.1.4 0 .5.1 1.2 1.1 2.6 1.7 4 2.3.8.4 1.4 1 2.1 1.5.5.4 1 .7 1.6.9.3.1.6.2.8.5 1.3 1.3 3 1.9 4.8 2.1 1.7.2 3.4-.1 5-.2a10 10 0 0 0 7.1-3.7c1.1-1.3 2-2.6 2.4-4.2.4-1.5-.2-2.1-1.8-2.1h-.8c-2 .3-4 .1-6 .1l-.3-.1-.9-.1c-.2 0-.4-.1-.4-.4 0-.2.1-.4.3-.5l1-.1c1.4.1 2.9-.1 4.3-.2.3 0 .5 0 .7-.2l.9-.1h.6c1 .1 2-.2 2.8-.6 1.3-.6 2.4.1 3.5.6.7.3 1.2 1 1.8 1.6a15 15 0 0 0 4.5 3.3c1.2.5 2.4.7 3.6 1.1a3 3 0 0 0 2.1-.2c1.3-.7 2.4-.4 3.1 1 .4.7.8 1.1 1.7 1.2 1.1 0 1.6.7 1.7 1.9.1 1-.2 1.9 0 2.9.2 1.2.2 1.3 1.5 1.3h1.6c1.3-.2 1.4.3 1.4.3z"/><path d="M12.2 84.3c.2 1 .9 1.6 1.8 1.9 2.4.8 4.4 2.4 6.2 4.1l.1.1c-.8.1-1.4-.5-1.8-.9a10 10 0 0 0-3.1-1.9c-.7-.6-1.8-.7-2.5-1.4-.6-.6-1.2-1.1-1.4-1.9-.1-.3-.2-.7-.6-.6-.4 0-.4.4-.5.7-.1.4-.3.8-.6 1.1-.4.4-.7.9-1.3.3-.3-.3-.4.1-.4.3-.2.6-.5.9-1.2 1.1-.6.1-1 .5-.9 1.3v.8c0 .6 0 1.1.2 1.7-.8 1.6 0 3 .4 4.5.3 1.1.2 1.3-1 1.2-.9-.1-1.7-.5-2.6-.1-.3-.2-.4-.4-.5-.7-.2-1-.1-1.2.9-1.1l1.3.1c1 .2 1 .1.6-.7-.2-.6-.5-1.2-.4-1.9.1-1.1-.2-2.1-.3-3.1-.2-1.7-.1-3.3.7-4.9l.4-1.2c.2-.8.5-1.5 1.4-1.8.9-.3.6-1 .3-1.4a6 6 0 0 1-.6-1.9l.1-2.3c0-.3.1-.7-.3-.7s-.3.4-.3.7c.1.8-.2 1.5-.5 2.2-.3-.1-.4-.5-.4-.7L5 74.3c.2-1.6.6-3.3 1.1-4.8.3-.5.4-1.1.6-1.7.2-.4.3-.8.7-.8.3.3.1.6.1 1-.1.8.1 1 .9 1 .6 0 .9.2 1.1.8.4.8.6 1.7 1.6 2.1.3.1.3.4.4.7.2 1.3.2 1.3 1.3.5a7 7 0 0 1 4-1c.9 0 1.6.6 2.2 1.2.6.6 1.4 1 2.2 1.4.6.3 1.1-.2 1.7 0v.5c-.9 1.1-2.4 1.3-3.3.3a3 3 0 0 0-1.5-1 8 8 0 0 1-1.6-.8c-.8-.5-1.7-.5-2.5 0a5 5 0 0 0-2 2.1c-.1.2-.2.5-.5.5s-.5-.3-.6-.6l-.3-.8c-.1-.3-.2-.8-.7-.7-.4.1-.5.5-.6.9l-.4 2.5c-.3 1.6-.3 3.2-.2 4.8l.2 1.1c.4-.1.6-.4.8-.8l.2-.5c.3-.5.6-1.1 1.3-1 .7.1.8.7.9 1.2-.2.8.2 1.3.1 1.9z" class="st4"/><path fill="#d9d4c2" d="M65 64.8c.7 1.6.8 3.4 1.1 5.1.6 3.3.9 6.6 1.2 10V81c0 .8-.3 1.3-1 1.8-.6.4-1.1.9-1.9.8-.4-.1-.6.2-.9.5-.2.3-.5.6-.8.2-.2-1-.3-2.1-.3-3.2-.1-2.1-.2-4.2-.5-6.3-.2-.9-.1-1.9-.3-2.8l-.5-3.3v-1.4c.3-.8.9-1.3 1.6-1.7.7-.5 1.5-.9 2.3-.8z"/><path d="M67 95.1c-.3-.5-.3-1.1-1.2-1h-2.2c-.5 0-.8-.2-.9-.7-.1-.8-.4-1.6-.1-2.5.1-.5.1-1.1 0-1.6-.1-.7-1-1.5-1.6-1.4-1 .3-1.3-.4-1.6-1-.7-1.5-1.7-1.9-3.1-1-.8.4-1.6.3-2.4.1-.5-.2-1.1-.4-1.7-.3-.7.1-1.1-.5-1.7-.7-1.2-.5-2.3-1.3-3.3-2.2-1.1-.9-1.9-2.2-3.1-2.8a4.7 4.7 0 0 0-4.3 0c-.5.2-1.1.3-1.7.2 0-.4.4-.4.6-.5.9-.4 2-.4 2.8-1.3.2-.3.6-.2.9 0 1.1.9 2.5 1.1 3.5 2.1l.5.4c.7 1.1 2 1.5 3 2.4.6.5 1.4.5 2.1.6h3.3c.5 0 .9-.1 1.1-.7.2-.5 0-1-.3-1.4-.3-.3-.6-.2-.8 0-.3.2-.7.4-1.1.3-.7 0-.8-.3-.4-.9h.5c.8-.1.9-.3.9-1.1-.1-.4-.2-.8-.5-1.2-.1-.3-.5-.6 0-.8 1 .2 1.3 1 1.4 1.8 0 .6.2.7.8.6 1.5-.3 2.1.1 2.8 1.4.4 1 .3 2 .8 3l.3.6c.2.1.3.3.5.2.2-.1.2-.3.2-.4l.1-.5c.2-.8.6-1 1.3-.6l.8.4c.3 1.4.3 2.8.3 4.2l.1 1.3c.2.4.4.6.8.3.6-.4 1.3-.5 1.9-.8.7-.3 1.3 0 1.3.7-.2.5-.3 3.8-.6 4.8z" class="st6"/><path d="M15.5 87.6c1.1.4 2.1.8 2.9 1.7.5.5 1.3.8 1.9 1.2 1.1.6 2.1 1.3 3.2 1.6 2.3.4 4.7 1.4 7.1.7l.2-.1c2.9.2 5.1-1.5 7.1-3.2 1.7-1.4 2.9-3.4 3.6-5.6.3-.9.4-2.3 1.9-2.2l.3-.2c.2-.2.1-.7.5-.7.4.1.6.4.9.8-.4.5-1.2.4-1.7.9-.1.2-.4.2-.5.5-.3 1.1-.4 1.4-.5 2.7 0 0 0 .5.2.5.3.8-.4 1.3-.7 1.9l-1.5 1.8c-.2.3-.5.5-.9.4-.2-.3.1-.5.1-.9a18 18 0 0 1-2.5 2.3c-.2.2-.1.3 0 .5.4.4.4 1 .3 1.5l-.7.3c-.3.2-.5-.1-.5-.3-.1-.6-.5-.5-.9-.3-.8.2-1.5.7-2.4.5l-6-.3c-3-.3-5.7-1.3-8.1-3.1l-1.1-.8c-.6-.7-1.5-.9-2.2-1.4-.2-.2-.6-.2-.6-.6.4-.2.5-.2.6-.1z" class="st7"/><path d="M67.3 91.9l-.1-1.4c0-.7-.7-1.1-1.2-.6-.4.3-.6.7-1.2.4l-.4.3c-.5.9-.8.3-1.1-.1-.2-.2-.2-.5-.2-.7l-.2-5c-.1-.1-.1-.2 0-.4.2 0 .4 0 .4-.2.2-.8.7-.9 1.5-.7.4.1.6-.2.9-.4.4-.3.7-.7 1.2-.9.5-.2.1-.8.5-1.1.4 3.4.1 10.6-.1 10.8z" class="st8"/><path fill="#ccc6b9" d="M1.3 93c-.7-1.5-.8-3.1-1-4.7C.2 87.2 0 86.1.2 85c1-.9 2-1.5 3.4-1.2.4.1.3-.4.6-.5.1-.4-.1-.8.2-1.2.4.4.3.9.3 1.3 0 2.3-.1 4.6.2 6.8l.3 1.7c-.1.9-.3 1-1.1.8l-.8-.2c-1.3-.4-1.3-.4-2 .5z"/><path fill="#3c73a8" d="M54.1 4.8c1.1.8 2.3 1.4 3.3 2.4l.1.5c0 .2 0 .4-.2.4l-.4-.2-.2-.4c-.3-.4-.5-.4-.6.1-.3.8-.6 1-1.1.7-.6-.3-.8-1-.5-1.5.2-.4.6-.4 1-.6-1.2-1-2.4-1.4-3.8-.6-.3.2-.4.2-.3.6.1.4-.1.5-.4.6-.6-.1-1.1-.1-1.6-.5-.2-.2-.5-.5-.3-.8.1-.2.1-.5-.1-.8-.4.5 0 1.3-.8 1.5-.6 0-1.1-.3-1.6-.6-.1-.4-.6-.4-.7-.8 0-.5-.5-.8-.5-1.4 0-.3-.7-.1-1-.2-1.1-.3-2.3-.3-3.5-.6-.4-.1-.9-.1-1.3-.4-.3-.2-.5-.4-.4-.8.1-.3.4-.4.8-.5h1.7c1.9.2 3.7.5 5.5 1.1.3.4.6.7 1.3.3.4-.2.9.2 1.3.3l2.9 1.3c.4.4.9.6 1.4.9z"/><path d="M39.7 90.2l.3-.1c1-1.2 2.3-2.3 2.7-3.9-.3-.4-.3-.7.1-1.1.4.2.3.6.3 1 0 .5.3.7.8.8 1.2.2 2.3-.2 3.4-.4l1.1-.2.3-.2c.3-1 .8-.6 1.3-.2.4.4.9.7 1.5.7 1 .3 1.9.6 2.6 1.4-1.6.4-3.2.6-4.8.8l-8.8 1.3-1.1.1h.3z" class="st11"/><path fill="#797769" d="M6.9 62.4c.7-.6 1.4-.9 2.3-.9h2.1c1-.1 1.8.3 2.4 1-.3 1.5-.9 2.9-.9 4.4l-.1.8c-.5.8-.4 1.5-.1 2.4.4.9.7 1 1.4.3l.4-.2c.2.2.3.6.6.8.1.3 0 .5-.2.7-.6.6-1.4.9-2.2 1-.6.1-.9-.3-1-.8 0-.2.1-.4-.1-.6-.7-.8-1.4-1.6-1.4-2.7 0-.2-.3-.2-.4-.2-.3-.1-.4-.3-.5-.6 0-.3.1-.6.4-.6.4-.1.7-.3.7-.7 0-.5-.3-.6-.7-.7-.5-.2-.3-.5-.2-.8.4-.8.8-1.7 1.6-2.5-.8 0-1.3.4-1.8.3-.6 0-1.1-.1-1.7.1-.6 0-.6 0-.6-.5z"/><path d="M21.3 65.9c.5-.7 1.3-.9 1.9-1.4.6.2.7.8.9 1.3.2-.3.1-.6.1-.8a1 1 0 0 1 1-.8c.5 0 1.1-.3 1.3.4-.2 1-.2 2-.1 3 .2 1.5 0 3-.1 4.4v1.1c.2.9.2 1.7 0 2.6-.2.7.1 1.5 0 2.2-.1.8-.3 1-1.1.5-.6-.9-1.3-1.5-2.4-1.3l-.3-.2c-.1-.4.1-.6.4-.7 1.2-.6 1.7-1.5 1.5-2.9v-2.5c0-.6-.1-1.2-.5-1.7l-.3-.8c-.1-.3-.3-.2-.5-.1l-1.3-.2c-.1-.1-.2-.1-.2-.3 1-.2 1.1-1.1 1.1-1.9 0-.4-.1-.5-.5-.3-.1.2-.4.6-.9.4z" class="st13"/><path fill="#858474" d="M15.5 87.6h-.4c-1.1.3-1.9-.4-2.6-1-1.1-.9-1.1-1-1.8.3-.4.6-.8 1.1-1.6 1-.8 0-1.3.6-1.1 1.4.3 1.8 0 3.5-.4 5.3a3 3 0 0 0 0 2.1c.1.2.2.5 0 .7-.2.2-.4.1-.6 0a7.4 7.4 0 0 0-3.3-.2c-.3-.1-.5-.3-.5-.6.1-.4.2-.6.7-.5l2.3.4c.5.1.8 0 .5-.6l-.9-3c-.2-.7-.1-1.3.5-1.9l.3-.9c.3-1 .3-1-.7-.9.1-.7-.4-1.5.5-2l.1-.1c1.2-.1 1.6-.9 1.9-2 .8.9 1.5.7 1.9-.4l.3-1.1c.3-.6.7-.6 1 0 .4.8.7 1.7 1.5 2.2.5.3.9.8 1.5.9.3.3.7.5.9.9z"/><path fill="#d6d0be" d="M6.4 69.3l-1.1 4.8c-.2.3 0 .7-.1 1-.1.3 0 .7-.5.8-.8-.2-1.6-.1-2.5-.1-1 .1-1.3-.2-1.1-1.2.4-2.2.8-4.3 1.7-6.4.1-.1.2-.6.5-.2.6.8 1.5.7 2.3.6.6 0 1 0 .8.7z"/><path fill="#727263" d="M3.6 97.2c.7-.7 1.6-.2 2.4-.2l.7.1c.3 0 .5.5.8.2.3-.3-.1-.6-.2-.8-.2-.4-.2-.8-.1-1.2.6-1.4.4-3 .7-4.5.1-.5-.1-1.1-.2-1.6-.1-.7.7-1.7 1.4-1.5.8.2 1.1-.3 1.4-.8l.3-.5c.7-1 .9-1.1 1.7-.1.7.8 1.6 1.2 2.7 1.4l1.9 1.1c.4.2.9.3.9.9l-2.7-1.1c-.5-.3-1.2-.4-1.8-.6l-.2-.2c-.9-1-1.3-.9-2.1.1-.6.7-1.1 1.4-1.2 2.3-.2 1.4-.8 2.7-1 4.1-.1.9.2 1.8-.2 2.7-.1.3.1.5.4.7l.7.4c-1.7.2-3.3.2-5 .1-.6-.2-1-.6-1.3-1z"/><path fill="#b9b7ab" d="M19.3 51l-.1-1.4c-.2-.6.1-1.1.7-1.3l.3-.1c.2-1.8 1.6-.5 2.3-.8h.1c.1.3-.2.5-.3.8.9-.1 1.1.4 1.1 1.1 0 .6.1 1.3-.2 1.9-.4.2-.5.4-.4.9.1.8.4 1.6.2 2.4-.1.4.2.4.4.4h3c.5 0 1-.1 1.4.1l.2.2-.2.2c-.5.2-1.1.1-1.7.1H22l-1.5-.2c-.9 0-1.2-.3-1.2-1.2a7 7 0 0 1 .1-2.5c0-.1.1-.3-.1-.6z"/><path fill="#c1bfb3" d="M24.3 59.8c-1.6 0-3.2 0-4.8-.3.2-.9-.1-1.8-.1-2.7 0-.7.2-1 .9-1l1-.1 9.6-.2c-.2-.2-.5-.1-.6-.4l.1-.2c.5-.2.9-.1 1.4-.1l1.8.3.2.2c-.2.5-.9.2-1.1.7-.3.2-.6.3-1 .2l-.3-.1c-1.2 0-2.4-.1-3.6.1-.9.1-1.8.2-2.5-.1.6.1.7.7.6 1.2-.2.8-.1 1.5-.4 2.3l-.4.2c-.2.1-.5.1-.8 0z"/><path fill="#858276" d="M58.7 62c.2-.5.5-.6 1-.6h3.1c.5 0 .8.3 1 .6 0 .4-.3.2-.4.2-.8-.4-1.7-.2-2.6-.2-.4 0-.6.2-.5.6l.4 1.6.1.2c.1.5.1.9-.4 1.2-.4.2-.3.7-.3 1.1 0 .4 0 .8.6.7.3 0 .3.4.3.6 0 .5.1 1 .4 1.5v.5c-.3.6-.6.8-1.3.8-1.1-.1-1.6.9-2.1 1.6l-.4.7c-.4.4-.8.5-1.2.2-1.3-.6-2.5-1.3-3.4-2.3-.6-.8-1.6-1.2-2.3-2-.6-.7-1.3-1.2-1.7-2l.2-.1c.9.2 1.6.8 2.3 1.2 1 .6 2 1.2 2.8 2.1l1.3 1c1.3.9 1.9.7 2.9-1l.2-.2c.5-.1.4-.4.3-.7a8.7 8.7 0 0 1-.1-3.2l-.1-1.3-.1-2.8z"/><path fill="#87847b" d="M54.2 88.1l-2.6-1.4c0-.1 0-.3.2-.3 1.3.4 2.6.6 3.9 1.1.4.2.8.2 1.3.1 1.1-.2 2.1.1 2.7 1.2.2.3.3.6.7.5.7-.2.9.3 1 .8l.2 1.6c0 .4.1.8.4 1.1.3.2.4.6.3.9-.3.9 0 1.8 0 2.7 0 .8.5 1.1 1.2.9.8-.2 2.8.2 3 .5 0 .4-.1.7-.3 1l-3-.2c-.4 0-.7.1-.9.5-.1.2-.2.5-.5.6l-.4.1c-.2-.1-.2-.2-.1-.4.2-.9-.4-1.8 0-2.8-.1.3-.2.5-.5.5s-.4-.3-.5-.5c-.2-.7 0-1.5 0-2.2.2-.6.4-1.1.1-1.7-.2-.4 0-.9.1-1.3.2-.5.1-.9-.4-1.1-.6-.4-.9-1.1-1.7-1.4-.3-.1 0 .2-.2.2-1.4-.5-2.7-.7-4-1z"/><path d="M40.5 44.5c1.1.4 1.5.4 2.2-.8.7-1.1 1.1-2.3 1.5-3.5a14.3 14.3 0 0 0 .3-7.8 13 13 0 0 0-1.9-3.7c-.3-.4-.2-.9-.2-1.4 1.7 2.3 3 4.7 3.4 7.6.2 1.5.3 3-.3 4.4-.4-.2-.3.2-.3.3-.6 1.9-1.3 3.6-2.5 5.2a11 11 0 0 1-2.9 2.8h-2.4c-.7-.6-.8-.8-.3-1.6.2-.3.1-.6.1-.9 0-.5.2-.8.8-.6.1.1 0-.1 0 0h-.2c-.5-.5-.4-.9.2-1.4l1.5.3c-.1.3.1.3.3.5.2.2.1.5 0 .8.3 0 .4-.4.7-.2z" class="st21"/><path fill="#aca694" d="M4.8 75.9c.3-.5.1-1.2.5-1.7l.5 3.5c.3.4.7.3 1.1.3h.2c-.1.9.7 1.5.8 2.3.1.6.2 1.3-.8 1.2-.4 0-.7.3-.7.6-.4 1.4-1.1 2.6-1.4 4-.4 1.8 0 3.6.2 5.4 0 .3.2.5-.1.8l-.2-.2a20 20 0 0 1-.7-4.9v-5.1-1.2c.1-1-.2-2.1.1-3.1l.3-1.7.2-.2z"/><path d="M26 28.9c1.1 0 1.2-1.2 2-1.6l.3-.4h.3c.2.1.1.3-.1.4-2 1.9-3 4.3-3.7 6.8l-.1.2c0 .3-.2.9.2 1 .5.1.2-.6.6-.8.2.1.1.4.1.6.2.2.1.4.1.6-.2 2.3.3 4.4 1.2 6.5.1.2.3.4.2.6-.5 1 .3 1.5.8 2.1l1.2 1.2c.2-.1.1-.2.2-.3 0-.2.1-.4.4-.4.2 0 .3.2.3.4l.1.6.1.3c0 .8-.3 1-1 .6-.6-.4-1.1-.9-1.6-1.5-1.4-1.7-2.9-3.3-3.3-5.6 0-.2-.1-.2-.3-.1-.6-1.5-.4-3.1-.3-4.6.3-2.3 1-4.6 2.3-6.6z" class="st23"/><path fill="#2a6ba3" d="M50.8 6.7c.6-.1.2-.4.1-.6-.2-.3-.3-.4.3-.5.6-.1 1.2-.5 1.9-.6.4-.1.8-.1 1.1.3.3.4.8.4 1.1.6.2.1.4.2.3.4 0 .4-.4.2-.5.3-.3.1-.7.2-.7.7 0 .4.1.7.4.9.5.3.8.2.9-.4.2-.3 0-.8.5-.8.5-.1.6.4.8.8l.2.3c.3-.3-.2-.7.2-.8 1.2 1 2.1 2.2 2.9 3.5.7 1.1.7 2.3.6 3.6 0 .2-.1.3-.3.3l-.9-1.8c-.5-1.2-1.6-2-2.8-2.6-.5-.2-1-.4-1.4-.8l-.1-.2c-.9-.9-2.1-1.1-3.2-1.6-.4-.4-1.1-.4-1.4-1z"/><path fill="#606257" d="M9.8 97.9c-1.2-.1-1.6-.6-1.1-1.6.4-.8-.1-1.5 0-2.2.2-1.4.9-2.6 1-4 .1-1.1.7-1.9 1.4-2.6.9-1.1 1.5-1.1 2.4.1l-.2.1c-1.2.3-1.1.4-1.3 1.5-.2 1-.1 2.1-.7 3.1-.4.6-.3 1.3-.2 1.9.1.4.1.8-.1 1.2a2 2 0 0 0 0 1.8c-.5.3-.8.6-1.2.7z"/><path d="M10.9 97.3c-.5-.2-.8-.7-.5-1.1.5-.9.3-1.8.3-2.7 0-.6.1-1.2.5-1.6l.2-.3c-.6-1.1.7-2 .3-3-.2-.4.2-.8.7-.9h1v.2c-.9.5-.9.6-.2 1.5l.7.7c.5.5.2 1 0 1.4-.1.3-.4 0-.6 0 0 .4.3.5.5.7-.4 1.9-1.4 3.6-2.9 5.1z" class="st26"/><path fill="#c1bba9" d="M6.4 69.3c0-.4-.1-.5-.6-.4-1 .2-2 .4-2.6-.8-.1-.1-.2.2-.3.2.7-1.7 1.4-3.5 2.7-4.9.2.7.7.9 1.4.6.6-.2 1.3-.3 1.7.5-.4.9-.7 1.8-1.3 2.5-.6.7-.5 1.6-1 2.3z"/><path fill="#4b4e4a" d="M59.8 17.5a9.8 9.8 0 0 1-3.7 3.6 27.6 27.6 0 0 1-8.3 3c-1.3.3-2.7.2-4 .5h-.3c-1-.3-2.1-.7-3.2-.5-.2 0-.3-.1-.3-.4.4-.3.9-.4 1.4-.4.9 0 1.7-.2 2.6-.3 1.6-.1 3.1-.5 4.7-.7a10.9 10.9 0 0 0 4.4-.9c1.9-1.5 4.5-1.8 6-3.8.2-.1.4-.3.7-.1z"/><path fill="#d6d5c8" d="M4.8 76l-.5 4.8c0-.7-.2-1.1-1-.9H1c-.4-.1-.5-.6-.4-.9.2-.9 0-1.9.3-2.8.6-.3 1.2-.2 1.9-.2h2z"/><path fill="#33352f" d="M14.5 70.3l-.3.2c-.9.2-1.6-.5-1.5-1.4l.4-1.1 1.2-3.3c.1-.3.2-.9.8-.5.7 1.2 1 2.5 1.2 3.9 0 .2-.1.5.1.6.3.1.3.2.1.4l-.7.6c-.5.2-.8.6-1.3.6z"/><path fill="#ebeae7" d="M15.7 69.7c.1-.3.8-.3.6-.9 1.8-.7 3.2-2.2 5-3 .5 0 .9-.4 1.3-.6.5-.2.6-.1.6.4s0 1.1-.2 1.6c-.1.6-.7.5-1.2.5-.1.2-.3.3-.4 0V67c-.2.2-.2.5-.2.7-.1.6-.1.9-.9.6-.5-.2-1.3.2-1.8.7-.2.2-.4.5-.7.4.5.3.7-.2 1.1-.3.4-.1.7-.3.7.4-.1.3-.4.5-.7.7l-.2.1c-1.1 1.2-2.7 1-3.2-.3l.2-.3z"/><path fill="#979a90" d="M24.3 59.8c.2-.3.6-.1.9-.2.6.1 1.1-.2 1.7-.1l.8.1c.3.3 0 .5-.2.7-.3.2-.4.4-.4.8.1.6-.1 1.1-.4 1.6-.2.3-.2.5.2.6.5.2.6.7.2 1.1-.2.1-.3.1-.5-.1-.5-.3-1-.2-1.5-.1-.4.1-.7.3-.5.8v.4c-.1.2.1.7-.3.7-.5.1-.2-.4-.3-.6l-.7-1.2c.4-.5.7-1.2 1.2-1.6.3-.2.2-.6.2-.9l-.4-2z"/><path fill="#77746b" d="M60.4 94.3c.1.7-.2 1.5 0 2.2 0 .2 0 .4.2.4.3.1.2-.2.3-.4.1-.2 0-.6.5-.9-.2 1.4.1 2.6 0 3.9.3 0 .4-.4.5-.7.2-.3.3-.6.7-.7 1 0 3.3.3 3.5.4-.5 1.3-.5 1.4-1.9 1.3l-2.4-.1c-.7 0-1.2-.3-1.5-.9-.6-1.3-1.1-2.6-1.3-4 .5.1 1.1.3 1.1-.6l.3.1z"/><path fill="#6e6b5c" d="M58.8 70.1a1.9 1.9 0 0 1-2.6 1.4c-1.3-.5-2.2-1.7-3.4-2.5-1.1-.8-2.4-1.4-3.5-2.1-1.2-.9-2.6-1.5-3.6-2.8-.2-.3-.9-.3-.9-.7.1-1.3-1.1-2.4-.6-3.7l.5-.2.5-.1c.2 0 .5-.1.4.3l-.3.4v2.2a7.3 7.3 0 0 0 2.6 2.9c2 1.5 4.1 3 6.3 4.2.9.5 1.9.9 2.9 1.2.6.2 1.1-.6 1.7-.5z"/><path fill="#65635e" d="M60.4 94.3l-.1.2c-.3 1.2-.3 1.2-1.3.5a32 32 0 0 1-.9-6.2c0-.4-.5-.1-.6-.6.7.1 1.3.3 1.7.8.4.4.6.9 1.3 1.1.4.1.3.6.2 1-.2.7-.5 1.3 0 2 .2.5-.3.8-.3 1.2z"/><path fill="#afaa98" d="M45.7 59.6c-.1-.2-.3-.1-.5-.1.3-.8 1-.3 1.5-.4-.3-.6-.1-1.3-.1-1.9 0-.9-.1-1-1-1-.3 0-.7 0-1-.2v-.3c1.5-.3 3-.1 4.5-.1.6.2.7.7.8 1.2.1.8-.2 1.6 0 2.5-1.3.5-2.8.4-4.2.3z"/><path d="M24.1 40.1l.1-.6c.3-.1.4.1.4.3.4 2.6 2.1 4.5 3.8 6.3l1.1 1c.5.4.8.2.7-.4.7 0 .6.6.7 1l-.1.4c.1 1.4-.8 2-2 2.4-.5-.5-.2-1.2-.2-1.8 0-.5-.1-.8-.6-.9-.3-.1-.6-.1-.7-.4-.1-.3.4-.4.6-.6-.4-.3-.9 0-1.2-.2.3-1.1-.6-1.6-1.1-2.3-.8-1.3-1.3-2.7-1.5-4.2z" class="st37"/><path fill="#3b3d3f" d="M59.8 17.5c-.2 0-.4 0-.5.2a8 8 0 0 1-4.4 2.8c-.5.1-.7.7-1.2.9-1.2.6-2.5.8-3.7 1h-1.2c-.1-.1-.1-.2 0-.2.9-.5 1.9-.7 2.8-1.1 1.3-.5 2.5-1.2 3.7-1.9.8-.5 1.6-1.1 2.5-1.5 1-.5 1.3-1.5 1.6-2.5.1-.4.2-1.6.4-2 .6-.2.7.9.8 1.4 0 .3-.1.6.1.8-.1.9-.4 1.5-.9 2.1z"/><path fill="#afaa9d" d="M5 92.1l.2.2c0 .8.3 1.6.6 2.3.1.2.3.5.1.7-.2.2-.4 0-.6 0l-1.8-.2c-.9-.3-1 .2-1 .9-.6-1-.9-2-1.2-3l.1-.3c-.2-1.2.6-.9 1.1-.7.5.2 1.1.2 1.7.5.3.2.8.2.8-.4z"/><path fill="#82857e" d="M19.1 23a19.9 19.9 0 0 1-8.8-5.3c-.4-.4-.7-.8-.9-1.3l1.4-.2.1.2c0 .4.2.6.5.8 1.2 1 2.5 1.8 3.8 2.7l3.4 2.1.7.5c.3.3.2.5-.2.5z"/><path fill="#7889a3" d="M47.2 2.2c-1.8-.5-3.7-.8-5.5-1-.9-.4-1.8-.4-2.7-.4-2.2 0-4.4-.4-6.6-.2-1.6.1-3.2.1-4.8.5-1 .2-2.1 0-3.1.5-1.4-.1-2.5.8-3.8.9a5 5 0 0 0-2.9 1.1c-.2 0-.5.1-.5-.3a7 7 0 0 1 3.6-1.7A55.3 55.3 0 0 1 43.8.9c.8.5 1.7.5 2.5.7.4 0 .9 0 .9.6z"/><path fill="#c9bfae" d="M65 64.8l-1.8.7c-.5.2-1 .3-1.1.9-.1.4-.8.1-.8.6-.6-.3-.4-1-.5-1.5l-.1-1.3-.1-.2c-.3-1.2-.2-1.3 1-1.3h1.6c.6 0 1.1.1 1.4.6.2.6.4 1 .4 1.5z"/><path fill="#646256" d="M15 64.3c-.6-.1-.6.5-.7.8-.3 1.3-.9 2.4-1.4 3.6-.4 1 0 1.6 1.1 1.8-.2.4-.4.8-.9.7-.5-.1-.7-.4-.8-.9-.1-.6-.4-1.1-.3-1.7v-.2c1-1.1.1-2.8 1-3.9.2-.2.2-.5.1-.8-.1-.4 0-.9.5-1.1a4 4 0 0 1 1.4 1.7z"/><path d="M21.2 55.8l-.2.1c-.4.1-1.2-.1-1.3.1-.2.6 0 1.3 0 1.9.1.5.3 1-.3 1.4-.6.1-.8-.2-.8-.9 0-2.1.1-4.2-.2-6.3-.1-.4 0-.8.6-.9.2 0 .3-.3.3-.5.1.2.3.3.6.3-.7 1.1-.4 2.3-.3 3.5.1.4.4.4.7.3.5 0 1.1 0 1.6.2-.1.5-.6.3-.9.3l-1.5-.1c.6.6 1.2.3 1.7.6z" class="st44"/><path fill="#aab2bd" d="M9.4 8.7c.4-.3.1-1.3 1.1-1l.4-.7c1.4-1.3 2.6-2.7 4.4-3.4a8 8 0 0 1-.5 3.1h-.1c-.5 0-.1-.9-.6-.8-.9.2-1.9.2-2.4 1.3-.1.2-.3.3-.3.6.5-.1.8-.4 1.2-.7.5-.4 1-.6 1.7-.3l.1.2-.5.5c-.4.1-.8.3-1.1.6L11 9.4c-.2 0-.4 0-.5-.3-.1-.5-.3-.1-.4 0-.3.1-.7.3-.7-.4z"/><path fill="#908e81" d="M48.6 47.6l.1.4c-.1.5-.6.4-.9.4-1.3.1-1.3.1-1.3 1.3-.1.4.2.9-.2 1.3-1.1.3-2.3.1-3.4.1h-2c-.2-.3-.1-.5.1-.7.3-.2.7-.3.9.1l.7.1c1.7.3 1.9.1 1.9-1.6 0-.5.1-.8.6-1 .3-.1.4-.3.4-.6 0-.4.3-.6.7-.5.4.7 1 .9 1.8.6.3-.1.5-.1.6.1z"/><path d="M49.7 48.4c.2.6.1 1.1.1 1.7 0 .6.1.9.8.9.6 0 .7.3.7.8v2.7c0 .3 0 .6-.4.7h-1.3l-1.2.2c-.9-.1-1.8.2-2.6-.2l-.1-.3c.3-.3.6-.2 1-.2l2.6-.1c.4-.1.6-.2.6-.6 0-.7-.1-1.4.1-2.1.1-.3-.1-.5-.3-.6-.2-.1-.5-.1-.7-.4v-.3-1.7c0-.4.1-.7.7-.5z" class="st47"/><path fill="#838480" d="M40 23.8c1.3 0 2.5.6 3.8.6l4-.2c-1.8.5-3.6.6-5.4.9l-2 .2 1.1 1.2c-.3 0-.5-.2-.7-.4-1.2-.6-2-2-1.6-3.6.5-.2 1.2.2 1.7.1.2-.1.4.1.5.4.1.2-.1.4-.3.5-.4 0-.8-.1-1.1.3z"/><path fill="#464946" d="M23.7 24.3c-1.2-.2-2.3-.5-3.4-.9 0-.4.3-.2.4-.3-.8-.3-1.3-1-1.8-1.5l.1-.2c.7-.2 1.3.1 1.9.5 1 .6 2.1 1 3.3.8a4 4 0 0 1 2.6.6c0 .4-.4.4-.7.5l-2.4.5z"/><path fill="#878575" d="M40 47.6v-.3c2.8-1.9 4.1-4.7 5-7.8.1-.2 0-.5.3-.5s.1.4.2.5c-.6 3-2.1 5.6-4 8-.2.5-.7.4-1.1.4l-.4-.3z"/><path fill="#cec7b9" d="M46.4 49.6c0-1.6 0-1.6 1.6-1.6.3 0 .6.1.8-.1l.2.1v2.8c-.7.4-1.5.1-2.1-.1-.6-.1-.3-.7-.5-1.1z"/><path fill="#313128" d="M14 92.1c-.4 0-.7-.1-.7-.5 0-.2-.3-.5 0-.7.4-.2.3.4.5.5.3-.6.5-1.1-.3-1.5-.3-.1-.5-.5-.7-.7-.3-.3-.5-.6-.4-1 .2-.5.6-.3 1-.3.6-.1 1.1.3 1.7.4v.3c-.2 1.1-.7 2.3-1.1 3.5z"/><path fill="#9b9483" d="M8.6 64.6c-.3-.5-.8-.6-1.3-.4l-.5.1c-1 .2-1.1.1-1.1-.9a3 3 0 0 1 1.2-1c.1.6.4.1.7.2h1.6c.6 0 .9.4.5.8-.3.4-.4 1.1-1.1 1.2z"/><path fill="#a8a18f" d="M64.6 63.4c-1.2-.7-2.5-.2-3.7-.3-.3 0-.3.2-.2.4l.1.8c-.5-.6-.5-1.4-.7-2.1-.1-.4.2-.5.6-.5 1.1 0 2.2-.2 3.3.3l.6 1.4z"/><path fill="#64675e" d="M19 21.5c.7.4 1.2 1.1 1.9 1.6-.1.2-.5 0-.5.3l-1.2-.4c.5-.4 0-.5-.2-.7l-3.6-2.2c-1.5-.9-2.8-2-4.3-3-.3-.2-.2-.6-.2-.9.3-.1.5.1.7.3 1.3 1.6 3.1 2.6 4.9 3.4.7.3 1.3.7 2 .9l.5.7z"/><path fill="#6d6a5e" d="M23.1 51.2v-1.8c.1-.7-.1-1.1-.9-1-.2 0-.4.1-.6-.2.5-.1.8-.4 1-.8.5-.1.6.2.7.5.2.6.6.8 1.2.6.5 0 .4.4.4.7l.1 1.3c-.1.9-.9 1.2-1.9.7z"/><path fill="#6c685f" d="M58.7 62c.5.6.2 1.4.4 2.1.4 1.3.1 2.6 0 3.9 0 .7.6 1.4.3 2.2l-.6-.2c-.1-.1 0-.2.1-.3l.1-.3-1-4.4a6 6 0 0 1 .7-3z"/><path fill="#b5b09e" d="M40.3 47.6c.4-.1.8.1 1.2-.2.4.4.4.9.4 1.3 0 .6 0 1.2.2 1.8-.4 0-1-.3-1 .5-.3.3-.6.1-.9-.1v-.5-1.9c-.1-.4-.1-.7.1-.9z"/><path d="M14.3 7.2V7l.3-.2c.4-.6.1-1.4.3-2l.4-1.1c.4-.2.7-.9 1.2-.1.1.3-.1.6-.3.8-.4.4-.4.7-.1 1 .1.4.1.8.4 1.2v.2l-.1.3c-.7.1-1.4.5-2.1.1z" class="st59"/><path fill="#5f6362" d="M10.8 16.2c-.4.5-.9.4-1.4.2-.4-.4-.6-1-.8-1.6v-.1c.2-.5 0-1.1.3-1.7.1-.2.2-.5.4-.5.3 0 .3.3.4.5l.6 1.5c0 .7.6 1.1.5 1.7z"/><path fill="#253747" d="M60.7 15.5c-.2-.1-.4-.2-.3-.4.3-.6-.2-.9-.6-1.2-1-1.4-1.9-2.8-3.4-3.7-.4-.2-.8-.4-.7-1 1.6.7 3.2 1.5 4.1 3.1.4.7.8 1.4.9 2.2v1z"/><path d="M50 59.1c-.4-.3-.4-.8-.3-1.3.1-.8.2-1.5-.3-2.2.2-.2.5-.2.7-.3l.6-.3.1.1v3c.2.8-.1 1.1-.8 1z" class="st47"/><path fill="#dfddd5" d="M4.1 83.3v.7c0 .3-.1.4-.4.2-1.1-.7-1.9.1-2.8.5-.2.1-.4.3-.7.3v-1.7h3.9z"/><path fill="#635d52" d="M39.7 90.2l-.2.2c-.9.5-1.5 1.3-1.4 2.4.1.4-.1.8-.5.9-.3-.5.2-1.3-.7-1.5-.3-.1 0-.5.2-.6 1.2-.7 2-1.7 2.9-2.7.2.5.2.5-.3 1.3z"/><path fill="#9e9f98" d="M30.2 22.7c.1.7-.2 1.3-.4 1.9-.1.4-.5.7-1 .5-.3-.1-.7 0-1-.2.1-.2.3-.2.4-.3-.6 0-1.2-.3-1.9 0-.3-.1-1 0-.9-.5 0-.4.6-.3 1-.4h1.3c.4 0 1 .3 1.3-.2.2-.4.4-.6.8-.8.1 0 .2-.1.4 0z"/><path d="M47.2 2.2c-.5-.7-1.3-.5-2-.7-.6-.1-1.1-.3-1.5-.7 2.9.5 5.7 1.4 8.3 2.8.2.1.4.1.5.3-1-.2-1.9-.7-2.8-1.1-.6-.2-1.2-.8-1.9 0-.2.4-.3-.4-.6-.6z" class="st65"/><path fill="#6b6e6a" d="M29.1 23.6c0 .4-.1.6-.6.6-1-.1-2-.4-3.1.1.2.3.6.3.9.4.7-.2 1.3 0 1.9.2-.1.2-.4.1-.5.2a28 28 0 0 1-4-.7c.9-.8 2.1-.5 3.1-.9.8-.2 1.6-.2 2.3.1z"/><path fill="#8da8cc" d="M16 5.5c-.3-.3-.5-.7-.1-1.1l.6-.8c.5.5.5-.2.7-.4.1.2.3.2.5.1.4-.1.8-.6 1.1 0 .4.6.2 1.2 0 1.7 0 .1-.3 0-.4 0-.5-.4-.8 0-1.1.2-.6-.5-.9 0-1.3.3z"/><path fill="#ecedea" d="M4.8 76c-.2.3-.5.4-.8.3l-3.1-.2c0-.6.1-1.1.3-1.6 0 .9.3 1.1 1.2.9l1.9-.1c.3 0 .4.1.5.4v.3z"/><path fill="#5d7495" d="M8.6 14.8c-1-1.8-.5-3.5.4-5.1.2-.4.5-.4.6 0l.2.9c0 .3-.2.5-.4.8-.5.8-.9 1.6-.7 2.6.1.3.1.5-.1.8z"/><path fill="#2e2c23" d="M58.9 69.8l-.1.2v.1c-.5.4-1 .7-1.7.5v-.1-.1c.8-.2.2-.9.5-1.4.3-.7 0-1.5.2-2.3.6 0 .5.6.7.9.2.8.6 1.5.4 2.2z"/><path d="M58.9 69.8c-.3-1-.7-2-1.2-2.9l.2-1.9c.2-.1.3-.1.3.2.1 1.4.6 2.6.9 4 .1.2.5.5-.2.6z" class="st71"/><path fill="#b0aca1" d="M33.1 93.8c.9-.1 1.7-.5 2.5-.8.5-.1.9-.4.9.4 0 .2.1.5.4.5-1.3.5-2.6.3-3.8-.1z"/><path fill="#bcb9ac" d="M48.6 47.6l-.6.2c-1.1.4-1.3.2-1.7-.9l1.9.1c.5 0 .5.3.4.6z"/><path fill="#a3a19c" d="M24.8 50.7c-.3-.4-.1-.9-.2-1.3 0-.3.1-.6-.2-.8l.2-.5c.9-.2 1.2-1 1.5-1.7.1 0 .2.1.2.3.4 1 .4 1-.7 1.4-.6.2-.7.5-.8 1.1.2.5.4 1 0 1.5z"/><path fill="#dee3e6" d="M9.6 10.6c-.2-.3-.2-.6-.2-.9 0-.5-.3-.2-.4-.1 0-.4.3-.6.5-.9.1.6.5.1.7.2.5.5.4 1 .1 1.6-.2.2-.4.3-.7.1z"/><path fill="#6e6f68" d="M26.4 46.6l-.2-.2c.4-.4 0-.7-.2-1l-.6-1.1c.1-.1.1-.5.3-.1l1 1.4c.4.5.4.8-.3 1 .1 0 0 0 0 0z"/><path d="M49 50.8V48c.3 0 .6 0 .7.3-.5 0-.5.3-.5.6-.1.8.2 1.4-.2 1.9z" class="st77"/><path d="M54.1 4.8c-.6-.1-1.1-.4-1.5-.9.6.2 1.1.4 1.5.9z" class="st65"/><path d="M45.3 62.2c-.3-.7-.3-1.5 0-2.2v2.2z" class="st78"/><path d="M57.7 66.9c0 .8.2 1.5-.2 2.3l.2-2.3z" class="st71"/><path d="M32 22.2h-.6l-.1-.1c.1-.4-.1-.6-.4-.7l-1.1-.4-1-1.1c-.2-.3-.5-.6 0-.9a6 6 0 0 1 3.3-1.4c1.6-.4 3.1-.2 4.7 0l2 .5h.1c.9.3 1.6 1.1 2.6.8.2.3 0 .5-.2.6l-.4.4c-.2.8-1 1-1.4 1.5-.3.2-.7 0-.9.4l-.5.4c-.6.2-1-.2-1.5-.5-.3-.5 0-1.2-.3-1.7-.5-.7-1.3-.5-2-.6-.3 0-.8-.3-.8.4l-.1.2-.2 1.9c-.4.4-.8.1-1.2.3z" class="st79"/><path d="M30 46.5c-.3-.3 0-.7-.3-.9l-.2.1c-.1.3.4.8 0 .9-.4.2-.6-.4-.8-.6-.6-.6-1.2-1.1-1.6-1.9-.2-.3-1.1-.7-.1-1.1l-.1-.5c-1-2-1.4-4.1-1.4-6.3l.2-1c.3-.3.1-.7.2-1-.1-.1-.2-.3-.1-.4.6-1.5.9-3.2 2.1-4.4.5-.3.8-1.1 1.6-.8l.3-.3c.2-.7.8-.5 1.3-.5.6-.1.2.5.4.6l.2.1-.1.2c-.4.3-.9.3-1.4.4-1-.1-1.6.5-2 1.2a13.3 13.3 0 0 0-1.9 6.7c0 .7.1 1.4.4 2 .5.9.4 2 .8 2.9l.1.2.2 1.2c.4 1.1.8 1.2 1.6.3l.1-.2c.5-.3 1-.7 1.6-.5.5.1.5-.3.5-.6-.1-1 .6-1.7 1.1-2.5h.3c.3 1.3.3 2.6-.3 3.8-.4.1-.4.4-.4.8V46c0 .6-.1 1-.8 1.1-.7 0-1.1-.3-1.2-1l.7-.4c.7-.3 1-.9.7-1.6-.1-.3-.4-.5-.8-.4-.4.1-.4.4-.4.7 0 .5.7 1.5.4 2l-.9.1z" class="st80"/><path fill="#a2a095" d="M40.5 44.5c-.4.2-.6.7-1.1.8-.2-.4 1.1-1-.2-1.3l.4-.3c1.5-1.4 1-3.2 1.3-4.9l.1-1c.2-.3.3-.1.4.1V37.8c-.1-.3-.2-.6-.1-.9.5-1.4 0-2.6-.4-3.9l.1-.5c.2-.2.3.1.6.1a6.1 6.1 0 0 0-1.9-3.3c-.3-.5-.7-.3-1.2-.3s-1.1-.1-1.6-.3c-.1-.1-.1-.2 0-.2 1-.1 2 .5 3-.3.2-.1.3.1.4.2a10 10 0 0 1 2.5 6.2c0 1.5 0 3-.2 4.5a9.2 9.2 0 0 1-1.4 3.9c-.3.4-.4 1-.7 1.5z"/><path fill="#bfb9ac" d="M32 22.2c.3-.3.8 0 1-.4.9-1.2 2.6-1.3 3.5-.2.4.4 1 .5 1.5.6.5-.1.9.1 1.2.5l.2.3c-.4 1.3.5 2.1 1.2 3-.5.4-.9 0-1.1-.3-.7-.8-1.9-.6-2.5-1.5-.1-.2-.4 0-.4.3s.1.6-.4.8c0-.3.2-.5.1-.8-.3-.6-.1-.7.2-1.2.2-.2.4-.7.2-.9-.2-.4-.8-.3-1.1-.3-1 .2-2.3.1-3.6.1z"/><path fill="#7f7c71" d="M36.9 28.4v.2c.1.3.8.2.7.6-.1.4-.6.3-1 .4l-1.6-.1c-.6 0-1.1.1-1.4.6l-.4.7c0 .3-.2.7-.6.7l-.3-.6v-.3l.4-.7c.4-.9.3-1-.7-1.2a.8.8 0 0 1-.4-.2v-.2l5.3.1z"/><path d="M27.8 29.3a20 20 0 0 0-1.9 4.8c-.3 0-.4-.3-.3-.5.3-.8.2-1.7.8-2.4.4-.5.5-1.2.9-1.7.1-.1.1-.4.5-.2z" class="st23"/><path fill="#efeddb" d="M30.4 24.4c.7 0 .7.5.9.9.2.6-.3.6-.5.8-.2.1-.4.3-.2.5.1.2.1.3-.1.3-.2.1-.3 0-.4-.2-.1-.4-.4-.9-.1-1.2.4-.2.3-.6.4-1.1z"/><path d="M40.5 44.5c.1-.8.3-1.4.7-2.1.7-1 1-2.2 1.3-3.3.2 2.1-1 3.7-2 5.4z" class="st21"/><path d="M30.2 22.7l-.4.2-.4-.1c-.2-.1-.4-.2-.3-.4 0-.2.2-.3.4-.3.6-.1 1.2-.1 1.8.1l.1.1-1.2.4z" class="st79"/><path d="M31.7 81.4c2.1-.1 4.3.2 6.4-.2.6.2 1.2 0 1.7.4.4.3.6.5.6 1a6 6 0 0 1-1.8 4l-.8.9a8 8 0 0 1-3.9 3.1c-2.4 1.2-4.9 1-7.4 1.1-2 0-3.9-.6-5.5-2l-.7-.3c-1-.5-1.8-1.2-2.7-1.9-1.3-1-2.9-1.7-4.2-2.6-.8-.6-1.8-2.4-1.6-3.2.3-.3.6-.2.9.1.9.7 1.8 1.2 2.6 2.2.4.5 1.1.8 1.7 1.1.3.2.7.3.9.6 1.1 1.6 2.9 2 4.4 2.9 2.1 1.3 4.5 1.5 6.9 1.3 1.7-.1 3.4-.3 4.9-1.2l1.3-.9c1.3-1.2 2.4-2.6 3-4.3.3-.8 0-1.2-.9-1.2h-2.8l-.8-.1-1.3-.1c-.4-.2-.8-.2-.9-.7z" class="st6"/><path fill="#bec1ba" d="M31.7 81.4c.3.4.8.3 1.3.4.3 0 .7-.1 1 .2-.2.4-.6.4-1 .4a35 35 0 0 1-3.2-.4c-.9-.1-1.7-.5-2.5-.9-.3-.2-.7-.4-1-.4-.7-.1-.9-.9-1.4-1.3-.2-.2-.5-.4-.4-.7.2-.3.5-.5.9-.3.3.1.4.5.7.3.2-.2 0-.5.1-.7.1-1-.4-2 .2-2.9v-.6c-.4-1.4-.1-2.7 0-4 0-1.1.2-2.2-.1-3.4-.2-.7-.3-1.7.4-2.4h.5c.6-.4 1.2-.3 1.8 0 .3.3.1.5-.2.5h-1a4 4 0 0 0 1 1.9v.3c-.7.2-.9.5-.6 1.2.1.3.1.6 0 .8-.1.3-.1.6.2.9.3.3.7.3 1.1.4.9.5.9.5.4 1.3.2.2.6.1.8.4.1.4-.2.4-.4.4 1.9-.2 3.9.1 5.9-.2.2 0 .6 0 .6.3.1.4-.3.5-.5.5-.8.2-1.7.1-2.6.1h-3.5l-1.1-.1c-.5.3-.6.8-.6 1.3 0 1.1.3 2.1.2 3.2-.1.5.2 1 .9 1.1l.3.1c1.7 1.3 3.7.6 5.6.6 1.1 0 2.2-.1 3.1-.8.3-.2.6-.2.8.2.1.5-.2.7-.6.8-.3.1-.7.2-.9.5H37c-2.4.3-4.8.4-7.2 0-.5-.1-1.1-.3-1.8-.2.9.8 2.3 1.2 3.7 1.2z"/><path d="M11.9 81.7c.4 1.2.8 2.4 2 3.1 2.2 1.3 4.4 2.8 6.4 4.5-.7-.1-1.2-.4-1.6-.9-1.1-1.1-2.6-1.7-3.9-2.4-1-.5-1.8-1-2.6-1.8-.3-.5-.6-1-.6-1.7-.1-.5-.1-1-.7-1-.5-.1-.9.5-.9.8-.2.8-.8 1.2-1.3 1.9-.4-.5-.5-1.1-.5-1.7-.1-2.5.2-5 .8-7.6.1-.5.3-.9.8-1 .5 0 .6.4.8.8.2.5.2 1.3.7 1.5.4.1.5-.8.8-1.1 1-1 1.9-2.1 3.6-1.8.7.1 1.1.6 1.7.9.9.3 1.8.6 2.5 1.5.7.8 2.1.5 2.9-.4.1-.1.2-.1.4 0 .2.8-.3 1.3-.7 1.8-.2.3-.6.3-1 .2-1.1-.4-2.3-.8-3.3-1.6-.7-.5-1.5-.8-2.3-1.1-1.5-.6-2.7.4-3.4 1.7-.5 1-.6 2-.7 3-.4.8-.1 1.6.1 2.4z" class="st86"/><path d="M37.6 80.2c0-.5.4-.5.7-.6.3-.1.7-.1.7-.6.2-.3.9-.1.9-.7l.1-.2.8-1.3c.2-.5 1.1-.4 1.4.2.3.6.8.9 1.3 1.1l.5.3c1.6 1.3 3.3 2.3 5.1 3.4.4.3.8.6 1.4.2.6-.4.7-1 .6-1.6 0-.3-.2-.5 0-.8.1-.2.2-.4.4-.4.3-.1.3.2.4.3.3.2.4-.2.6-.3-.7.2-1-.1-.7-.7.4-.8 0-1.2-.6-1.5-.4-.2-1.1-.5-.8-.9.3-.5.8.1 1.1.3l1.3.8 1 .7.3.3v.2c-.2.3.3.4.2.7v.6l-.6 1.5-.2.2c-.2.1-.4.3-.2.6.1.2.4.1.6.1.4 0 .7-.1.9-.3.5-.6.9-.3 1.2.2.4.6.6 1.3.2 1.9-.3.5-1 .6-1.7.5h-2.4l-2-.2c-.4-.1-.9-.2-1.1-.7l-.2-.2c-1.7-.6-2.5-2.3-3.9-3.1l-.5-.3c-.6-.1-1.1-.3-1.6-.8-.4-.4-.9-.5-1.3.2-.3.5-1.1.4-1.7.7l-1.4.5c-.5-.3-.6-.3-.8-.3z" class="st87"/><path d="M21 89.7a12 12 0 0 0 5.4 1.8c1.9 0 3.9.1 5.7-.5 2-.6 4.1-1.4 5.3-3.4.5-.9 1.4-1.3 1.9-2.3.3-.7.7-1.3.8-2.1.2-1.2-.1-1.8-1.4-1.9-.2 0-.5 0-.6-.2.6 0 1.2-.1 1.9.2.7.3.9.8.9 1.4 0 .6-.1 1.2-.3 1.7a27 27 0 0 1-2.8 4.1 12.4 12.4 0 0 1-5.6 3.1c-.5.2-1.1.2-1.7.1-.7 0-1.5-.1-2.2.3-.5.3-.8-.2-1.3-.2-1.8.2-3.4-.4-5-1.3-.4-.1-.9-.3-1-.8z" class="st86"/><path d="M31.7 81.4c-1.6.4-2.9-.4-4.2-1.1l-.2-.4c0-.2.2-.2.4-.3.6-.1 1.1.1 1.7.2.9.2 1.8.4 2.7.3 1.4-.1 2.8.1 4.2-.1l.5.1c-.1.4-.3.3-.6.3l-4.8.2h-.6c-.1 0-.3.1-.3.3 0 .2.2.2.3.2.3.2.6 0 .9.3z" class="st6"/><path fill="#69665c" d="M45.3 82.1c-1.3 0-1.5.2-1.9 1.4l-.5 1.7c-.3.3-.1.7-.2 1l-.5.5c-.3-1.2.2-2.3.5-3.4.3-1.3 1.4-1.5 2.5-1.7.4.3.4.3.1.5z"/><path d="M48.5 86c.2-.6.3-1.2-.3-1.6.7.3.9.9.3 1.6z" class="st11"/><path fill="#888575" d="M8.6 64.6l.9-1.3c.1-.2.3-.3.1-.5-.1-.2-.3-.2-.5-.2-.5.1-1 .2-1.5-.1.4-.3.9-.2 1.3-.2.6 0 1.1.1 1.6-.4.2-.1.4-.2.6 0 .2.2 0 .4-.1.5-.1.3-.1.6-.4.7-.4.1-.6.4-.5.9 0 .3-.2.5-.4.7-.2.2-.4.3-.3.6.1.2.3.1.5.1.7 0 .5.6.5.9 0 .3.1.9-.6.9-.6 0-.7.2-.5.7 0 .1.1.3.2.2 1.1-.4.8.5.8.9 0 .7.2 1.2.8 1.5.5.2.5.7.5 1.2-.1.5.2.9.7.8.8-.2 1.7-.4 2.3-1.1.2-.2.1-.3 0-.5.3-.3.7-.1 1-.1l1.5.4 1 .4c.3 1 1.3 1.4 1.9 2 .3.4.9.5.9 1.2-.7-.2-1.4-.4-1.8-.9-2-2.5-5-1.7-7-.3-.8.5-1.2.4-1.2-.5 0-.7-.1-1.1-.9-1.5-.7-.3-.8-1.3-1.1-2-.2-.4-.3-.5-.7-.5-1.2 0-1.4-.4-1.2-1.5l.1-.8c.6-.6.9-1.4 1.5-2.2z"/><path d="M21.2 75c-.6-.9-1.5-1.4-2.3-2.1-.3-.3-.8-.4-.5-1v-1.3c0-.3.1-.4.3-.6.6.2.2.8.5 1.1l.2.5c-.1.4.1.6.4.8l1.8 1.4c.3.3.7.3 1.1.1.2-.1.4-.3.6-.1.2.6-.1.8-.6 1-.4.1-.9.7-1.5.2z" class="st7"/><path fill="#969791" d="M22.9 74.8c.2-.3.6-.6.5-1-.2-.2-.9.1-.7-.5.5-.2.6-.8.6-1.3 0-1.3-.1-2.6.1-3.9.1-.4.3-.5.5-.1.2.3.3.6.3 1 .4 1.2.3 2.5.4 3.8v.9c0 .9-.4 1.3-1.3 1.5H23c-.2-.1-.1-.3-.1-.4z"/><path fill="#817e6f" d="M6.9 77.9c-.5.4-1 .6-1.1-.3.1-.5-.1-1 .4-1.4.2-.2-.2-.4-.2-.6 0-.4.1-.7.4-1h.5c.3.3.5.6.3 1-.3.7 0 1.6-.3 2.3z"/><path fill="#676152" d="M5.8 89.3c.2-.1.4-.4.8-.3.2 0 .5 0 .4.3-.2.6-.1 1.4-.8 1.8-.6-.5-.3-1.2-.4-1.8z"/><path fill="#b0ac9c" d="M61.4 70v-.5c-.2-.3-.3-.6 0-.9.3 1.1.4 2.2.5 3.3l-.4.5c-.6.9-.7.9-1.5.2-.4-.3-.5-.1-.8.1-.3.4-.5.9-.6 1.4-.2 1-.6 1.8-1 2.7-.1.3-.3.6-.7.3-.7-.8-1.6-1.1-2.4-1.6-1.6-.8-2.5-2.2-3.4-3.6-.3-.6-.6-1.2-1.3-1.6a89.2 89.2 0 0 1-5-3.5c-.6-.4-1.1-.9-1.8-1l-.3-.1c-.9-1.4-2.3-.8-3.5-1l-1.6-.2c-.2 0-.5-.2-.5-.4 0-.3.3-.4.5-.4l2.1-.3c1-.3 1.1-.5.4-1.2l-.8-.9c-.3-.2-.5-.3-.9-.3l-.7-.1c-.4-.4-.4-.8-.1-1.3.3-.2.7-.1 1-.2h2.1l.3.1c.5.3.8.7.7 1.3 0 .3.1.5.4.7.2.2.4.4.5.8.3.8.1 1.1-.7 1.4-.2.1-.4.1-.5.3.3.2.7.1 1.1.1a2 2 0 0 1 1.9.7c.4.4.9.8 1.5 1 1.1.3 1.7 1.4 2.7 2 1.9 1 2.7 3 3.9 4.5 1.1 1.4 2.7 2.1 4.2 2.8.6.3.8-.3.9-.7l.4-2c.2-.8 1.3-1.3 2-1 .5.2.7 0 .9-.4l.5-1z"/><path d="M62.9 84.3v.4c-.3 0-.6 0-.9-.3-.5-.4-.9-.2-1 .4v.3c0 .4.2.9-.4 1-.6 0-.9-.4-1.2-.9-.4-1-.3-2.1-.8-3.2s-1.3-1.6-2.5-1.3c-1.1.4-1.1.4-1-.8h.1c1.7-.2 1.8-.2 1.1-1.9-.1-.3-1.2-1-.9-1.5.4-.1 1.2.5 1.3.8.3.5.5.4.7 0 .4-1.1 1.1-2 1.2-3.2 0-.3.2-.5.3-.7.2-.3.5-.5.9-.4.4.1.6.3.7.7.1.8.4 1.4 1 1.9.5.4.2 1 .3 1.6.1.5-.2 1.1.4 1.4.1.2.3.5 0 .7-.2.3-.6.7-1.1.7-.3 0-.3-.4-.3-.6l-.2-2.6c0-.4-.1-.9-.7-.9s-.7.5-.7 1c0 1.1-.4 2.3.2 3.4.2.5 0 1.1.2 1.6l.1 1.8c0 .2 0 .5.3.6.3.1.4-.2.5-.4.3-.3.2-.7.3-1.1l.1-1.2c.1-.3.3-.5.6-.2.4.5.6.3.9-.1.1-.2.3-.2.4-.1-.1.9.3 2 .1 3.1z" class="st87"/><path d="M62.8 81l-.3.1c-.6 1-.5 1.7-1.3.6l-.1 1.2c0 .5-.1 1-.5 1.3-.2.1-.3.5-.6.3-.3-.1-.4-.4-.4-.8v-1.9l.5-1.4c.1-.6-.2-.7-.6-.4-.5-.6-.6-1.2-.4-2l.1-1.6c0-.7.3-.9.9-1 .6-.1.8.2.9.8l.3 3.6c.5-.1.7-.6 1.1-.6.3 0 .1-.3 0-.5-.4-.2-.4-.5-.4-.8l-.1-2.3c-.1-.3-.2-.8.4-1 .3 2.2.4 4.3.5 6.4z" class="st8"/><path fill="#b0ada1" d="M62.2 74.6c-.3.3-.2.8-.1 1.1.2 1 .1 2 .1 3-.4 0-.5-.1-.5-.5V77c.1-.7 0-1.3-.7-1.7-.4-.2-.4-.7-.5-1.1-.1-.4 0-.9-.6-1-.6-.1-.8.5-1 .9-.3.9-.3 1.9-1.1 2.6-.2.2-.1.5-.1.7 0 .3-.1.6-.5.6-.3 0-.6-.1-.5-.5 0-.5-.3-.6-.7-.6l-.5.2-.8-.2-.5-.4c-.9-1.3-2-2.4-2.8-3.8l-1.3-2.3v-.5c.6.2.9.8 1.1 1.3a9 9 0 0 0 2.5 3.3c.7.6 1.5.9 2.3 1.4.5.3 1.1.4 1.2 1.1.8-1.3 1.1-2.7 1.5-4l.3-.8c.4-.4.7-1 1.1 0 .2.5.7.7 1-.1.1-.3.3-.5.7-.6.4 1.3.2 2.2.4 3.1z"/><path fill="#9b998d" d="M61.4 68.6v.9c-.5-.3-.5-.8-.5-1.3 0-.9 0-.9-.8-.4-.2-.8-.2-1.5-.1-2.2l.1-.3c.9.1.5-.6.6-1 .4.9.3 1.9.7 2.8v1.5z"/><path fill="#c2bfaf" d="M55.5 77.1h.5c.6.4.6 1.2 1 1.8.1.2.2.9-.1 1.1-.5.3-1.1.5-1.7.1 0-.9-.4-1.4-1.2-1.7v-.2c0-.3.3-.4.3-.8-.5 0-.4.5-.7.6l-1.1-.7v-.2c.2-.4.8.2.8-.4 0-.3-.4-.5-.6-.7l-.2-.2c-.6-.5-1-1.1-1.2-1.8-.3-1.1-1.3-1.6-2.1-2.3l-3.6-3.2c-.7-.6-1.5-1-2.3-1.5-.6-.4-.7.2-.9.5-.6.7-1.1.7-1.8.2-.5-.4-.9-.8-.9-1.5 0-.4-.1-.7-.3-1l-.1-.4.1-.2c.8-.1 1.5.2 2.3 0l.4.1c.4 1.1 1.6 1 2.4 1.6l5.6 4c1.3 2.4 2.9 4.6 4.7 6.7l.3.3c.3.2.3 0 .4-.2z"/><path fill="#99978b" d="M53.3 81.2l.2-.2c.2-.5.8-.9.5-1.6 0-.2 0-.4.2-.5.5.3.5.7.5 1.2-.2.6-.3 1.1-1 1.2-.2.1-.3.1-.4-.1z"/><path d="M53.6 81.4c.5-.3.6-.8 1-1.2.4.4.1.7-.2.9-.1.2-.3.7-.8.3z" class="st87"/><path fill="#4978ad" d="M27.4.8c.5-.3 1.1-.3 1.7-.3 2.1-.1 4.3-.4 6.4-.2 1.7.2 3.5-.1 5.2.3.4.1.8.1 1 .5h-1.6c-.3 0-.6 0-.8.4-.1.5.4.5.5.7-.3.7-.4 1.4.4 2l-.1.2c-.7.1-1.5.1-2.2.4-.4.1-2.6-.4-2.8-.4-2.1-.2-4.2.2-6.4 0-.4-.2-.6-.4-.7-.7-.2-.6-.2-1.3-.8-1.8-.3-.3 0-.8.2-1.1z"/><path fill="#7ca8d4" d="M40.2 4.3c-1-.4-1.2-1.4-.4-2 1.2.2 2.4.5 3.7.5l1 .3c.4.1.9.2.8.7-.2.8.2.9.8 1 .2.3.8.1.7.7-.4.3-.8.1-1.1.1L42 4.9l-.9-.2c-.5-.1-.8-.1-.9-.4z"/><path fill="#1e3e58" d="M41.7 4.6l5 .9 1.5.7h1c.4.4 1 .3 1.5.5 1.4.7 3 1 4.3 1.8.2.2.5.2.5.6-.7.2-1.2.1-1.7-.3-.7-.6-1.7-.7-2.5-1a70.6 70.6 0 0 0-10.1-2.4c-.7-.2-1.4 0-2-.1-.4 0-.8.1-1-.4.7-.3 1.4-.6 2.2-.3.4 0 .9-.2 1.3 0z"/><path fill="#558ec1" d="M46 4.8c-.4.2-.8 0-1.3-.1.5-.7.5-1.2-.3-1.7h.9l.4.1c-.6.8 1 1.1.3 1.7z"/><path d="M49.3 6.2c-.4.3-.7.3-1 0 .6-.5.3-1.3.6-1.9.6.5.6.7.2 1.4-.2.2.2.3.2.5zM50.9 4.9c-.5-.1-1-.5-.8.3.1.2-.1.4-.2.4-.2 0-.2-.2-.2-.4 0-.3 0-.7.3-.8.3-.2.6 0 .9.5z" class="st102"/><path d="M15.9 71.2l-1-.2c-.3-.1-.6-.3-.4-.7.4-.2.7-.6 1.2-.6v.1c-.4.5.4.9.2 1.4z" class="st4"/><path fill="#b1ac9b" d="M22.7 77.1c-.4 1-.5 1-1.7.6-1.3-.4-2.4-1.1-3.6-1.7a4 4 0 0 0-3.5-.3c-.8.3-1.9 1.8-1.9 2.6 0 .4.1.8-.5.8.1-.2.2-.4.1-.6-.2-1.4.5-2.5 1.3-3.5 1-1.3 2.2-1.1 3.6-.5 1 .4 2 1.1 2.9 1.7.7.4 1.5.3 2.1.8.4.3.9-.2 1-.6l.4-1.2c1.6-.6 1.2-2 1.1-3.1l-.1-3.1c.6.4.7 1 .7 1.7v3.1c.2 1.5-.6 2.2-1.7 2.8 0 .1-.2.2-.2.5z"/><path fill="#cfcec8" d="M22.1 67.9c-.6.5-1.3 1-2.1 1.4-.2-.1-.3.3-.6.1 0-.2.1-.6-.4-.3l-1.4.7c.1-.4-.3-.8.1-1.1.1-.1.2-.2.2 0v.4c.4-1.2 1.8-.7 2.4-1.5l.2.4c0 .1-.1.3.1.3l.3-.2c.2-.2-.1-.4 0-.7.1-.4.3-.9.6-.8.4.1 0 .5 0 .8 0 .2-.3.5.2.3l.4.2z"/><path fill="#1f1e1b" d="M21.2 55.8h-1.7c-.2 0-.7.2-.7-.3 0-.4.5-.2.7-.2.8.1 1.6.2 2.4 0h6c.7-.3 1.4-.3 2.1-.2l1.5.3c.3.5-.2.3-.3.3l-9.1.2-.9-.1z"/><path d="M31.5 55.4l-3.6-.1v-.2c.8-.1 1.6-.4 2.4 0 .4.2.9-.2 1.2.3z" class="st44"/><path d="M30.3 55.2h-4c.8-.3 1.6-.1 2.4-.2.5-.3 1-.1 1.6 0v.2z" class="st106"/><path d="M27.9 55.3c-.6.2-1.2.3-1.8 0h1.8z" class="st44"/><path d="M39 59.6h-1l-.9.3c-2.7-.1-5.4.2-8.1.2-.4 0-.9.1-1.2-.3h-.9c-.1-.1 0-.2 0-.2.9-.3 1.8-.1 2.7-.2 2.1-.1 2.1-.1 2-2.3V56l1.1-.2.3-.1h9.7c.8 0 .9.2.5.9-.3.7-.6 1.3-.5 2.1.1.7-.2 1.1-.9 1.2l-.6-.1-.2-.1c.4-1-.1-2-.2-3 0-.3-.2-.3-.5-.3s-.5.1-.8 0c-.5-.1-.6.2-.6.6-.1.8.1 1.6-.1 2.4.2 0 .2.1.2.2z" class="st107"/><path d="M31.7 56c.5 1.1.2 2.2.2 3.3 0 .4-.3.1-.5.1-1.5.5-3 .1-4.6.2h-1.3c0-.7-.1-1.4.2-2.2.2-.4 0-1.1-.8-1.4h2.9c1.4.2 2.6-.1 3.9 0z" class="st107"/><path fill="#6f6d66" d="M33.8 55.2H35c.3-.2.6-.1.9-.1 1.8.1 3.5-.2 5.2-.2.7.3 4.2.3 6.6.4.3 0 .6.1.8-.1.4.1.6-.3.9-.2.2.2.6.2.8.5-.2.3-.6.1-.9.2h-4.8c-.2.2-4.4.1-6.3.1 0-.5-.3-.2-.4-.2h-3.6c-.2 0-.5 0-.6-.3l.2-.1z"/><path fill="#3e3935" d="M33.8 55.3h4.4c.4 0 .6.2.4.4-1.1.2-2.5 0-3.6.1-.7 0-1.4-.1-2.1.1 0-.8.5-.5.9-.6z"/><path d="M31.7 56c-.6.1-1.2-.1-1.8.4-.3.3-.8 0-1.1-.2l-.9-.2c1.3-.2 2.6-.3 3.8 0z" class="st107"/><path d="M25.5 59.6h1.3v.2c-.6 0-1.2.1-1.7-.2h.4z" class="st13"/><path d="M41.4 59.7h.5c.7 0 1.3-.5 1.9-.4.4 0 .8-.1 1 .4h-.5c-.6.6-.7 1.2-.2 1.9.4.7.6 1.4-.2 2.2 1.3-.4 1.8.4 2.3 1.1.6.8 1.5.9 2.2 1.4.3.2.6.3.7.6 1.3 1.3 2.5 2.6 3.9 3.8 1 .8 2 1.7 3.1 2.4.7.5 1.3.2 1.6-.6.4-1.2 1.5-1.9 2.8-1.9.5 0 .5-.5.9-.6l-.1.9c-.2.8-.7.9-1.3.4-.3-.2-.5-.4-.5.1l-.2.3c-1.3-.2-.8.9-1 1.4-.2.6-.1 1.2-.5 1.8-.3.5-.7.6-1.1.3-1.1-.8-2.5-1.1-3.4-2.1-.6-.6-1.2-1.2-1.6-2-1-1.7-2.5-2.7-3.9-4-1.1-1-2.7-1.3-3.6-2.5-.5-.7-1.4-.3-2.1-.4-.3 0-.7.2-.8-.2-.1-.4.4-.5.7-.6.3-.1.8 0 .9-.4 0-.4 0-1-.5-1.3-.5-.3-.8-.7-.5-1.3.1-.3-.5-.4-.5-.7z" class="st1"/><path d="M49.1 66.9l-2.1-1c-.3-.1-.7-.3-.8-.6-.5-.8-1.1-1.6-2.3-1.4-.4.1-.4-.3-.1-.5.6-.4.6-.9.2-1.5-.4-.5-.4-1-.4-1.6 0-.5.2-.7.7-.7-.2 1.3.8 2.2.7 3.5l.1.4 3.9 3.1.3.3h-.2z" class="st78"/><path fill="#a6a192" d="M38.1 40.5v2.8c-.6.8-.5 1 .8 1.3-.3.3-.6.3-.8.2-.6-.2-.7.1-.7.6-.2.1-.4.3-.6.1-.2-.3-.1-.6-.1-.9v-.9c-.1-.3-.1-.6.2-.9.4-.5.3-1 .3-1.6 0-.3-.2-.5-.5-.4l-1.3.1c-.7.1-1.1-.1-1.3-.8l-.1-.2c-.4-.7-.4-.7-1-.1l-.1.1c-.4 1-1.3 1.8-1.1 3 .1.5-.3.5-.7.3l.2-.5c.2-.7 0-1.4.1-2.1.4-.6.3-1.5 1.1-1.9.7-.3 1.3-.5 2 0l.2.2c.2.4.6.4 1 .4l.2.1 1.3.5c.4 0 .8.1.9.6z"/><path d="M40.3 47.6v2.9c-.9.5-1.8.2-2.7.2-.3 0-.5-.3-.5-.6l-.1-2.4.1-.1H40.3z" class="st106"/><path fill="#6f6c66" d="M36.9 45.5l.5-.2c0 .3.7.7-.2 1-.5.2 0 .8 0 1.3-.3.3-.8.5-1 .9h-.6c-.3-.2-.6-.7-1.1-.1-.1.1-.4-.1-.5-.2l-.7-.8c0-.4.3-.4.6-.4a2 2 0 0 0 1.1-.3h.6c.5-.2.9-.4 1-.9l.3-.3z"/><path fill="#d6cfc2" d="M38.8 47.2c-.3-.1-1 .2-.9-.4 0-.5.7-.5 1.1-.5.3 0 .8-.1.8.4-.1.7-.6.5-1 .5z"/><path fill="#5b5850" d="M35.2 46.7c-.2.5-.6.5-1 .5-.3 0-.5-.1-.7.2.2.8.1 1.1-.7 1.6h-.5c-1.2 0-1.3-.2-1.5-1.3-.1-.4-.2-.8-.6-1l-.2-.2c.2-.1-.3-.7.4-.5.1.6.5.8 1 .8.5.1.8-.1.8-.7 0-.8-.1-1.6.1-2.5.1-.3.2-.5.4-.1l.1.2v1.7c0 .4.1.9.6.8.5 0 .8-.3.8-.9 0-.7-.1-1.3.1-2l.1-.2c.6-.4.8-.1.9.4 0 .3.1.5-.1.7-.4.6-.2 1.1.2 1.6l-.2.9z"/><path d="M41.4 5.1c1.8.2 3.5.6 5.3 1L53 8c.5.2 1 .3 1.4.8.3.5.9-.1 1.3.3v.1c.5.9 1.5 1.1 2.1 1.8l1 1c.4.3.2 1.3 1.1 1.2l-.1.7A6.8 6.8 0 0 1 59 17c-.3.5-.6.9-1.1 1.1-1.3.5-2.4 1.5-3.6 2.2a18.4 18.4 0 0 1-6.5 2.3c-.2 0-.4 0-.4-.2-.1-.2.1-.3.2-.4l1.2-.5c.9-.5 1.9-.8 2.7-1.4.7-.4 1.2-1 2-1.3 1.5-.7 2.3-2 2.6-3.6.2-1.7-1-2.8-1.9-4v.1c.1.3.6.5.3.8-.4.4-.6-.1-.9-.4a.8.8 0 0 0-.4-.4l-.4-.6c-.2-.8-.3-.8-1.1-.6-.4-.1-.7-.2-.9-.6 0-.5-.3-.7-.7-.9-1.3-.4-2.6-1.1-3.9-1.6a4 4 0 0 0-2.4-.3c-1.3-.1-2.6-.5-3.9-.9-.3-.7-.2-1 .6-1l.9.3z" class="st114"/><path d="M9.4 95.1c.3.1.4.2.4.4s.1.5-.2.4c-.2 0-.3-.3-.3-.5l.1-.3z" class="st26"/><path fill="#2a3336" d="M49 21.7l-1.5.6c.5.5.9-.1 1.4.1v.2c-1.6.2-3.2.8-4.8.7-.6-.5-.5-.7.1-1l.8-.1.5.1-.9-.1c-1.5.1-2.9-.3-4.3-.2-.3 0-.7.1-.7-.4 0-.4.4-.6.7-.7.4-.2.5-.5.7-.9.3.7.9 1 1.7 1.1.7.1 1.4 0 2 .2l3.6.3c0-.1.4-.2.7.1z"/><path fill="#344958" d="M44.8 22.4l-.6.1c-.6.1-.7.4-.3.8-.5.3-1.1.3-1.6.3l-2.3.2c-.1-.5.2-.5.5-.6.2-.1.7 0 .6-.4-.1-.4-.4-.2-.7 0-.3.2-.8-.2-1.1 0l-1.2-.5c0-.2.1-.4.4-.4.3-.3.7 0 1 0 1.5-.1 3 .3 4.6.2.3-.1.6-.2.7.3z"/><path d="M15.9 71.2c0-.5-1-.8-.2-1.4.5.9 1.2 1.1 2 .8.5-.1.6-.7 1.1-.7l-.2.5-.1.3c0 1-.2 1-1.1.7-.6.3-1-.1-1.5-.2zM19.5 69.5c.2 0 .3-.4.6-.1-.8.5-1 1.2-.9 2-.4-.4.1-1-.4-1.4.1-.3.4-.4.7-.5z" class="st117"/><path fill="#c7c1af" d="M44.8 59.6c-.7-.3-1.3-.1-2 0h-.9c.6-.1.8-.4.7-1-.1-1-6.2-2.8-9.8-2.8 1.1-.2 2.2-.1 3.3-.1h8.5c.3.3.7.1 1 .1 1.3 0 1.2 0 1.3 1.3 0 .7-.4 1.3.1 2-.6.3-1.3-.1-1.8.3-.1.2-.2.2-.4.2z"/><path fill="#97978c" d="M30.7 47.7c.3 1.1 1.1 1.1 2.1 1.1.2.3.4.7.9.7.2 0 .3.2.3.4s-.2.3-.4.3c-.5.1-1 .4-1.4.7-1.7 0-3.3.3-5 .1.5 0 1.1-.1 1.5-.4l.2-.2c1.4-.5 1.8-1.5 1.8-2.7z"/><path d="M41.4 5.1h-.9c-.6 0-.8.3-.5.9-.4.4-.9.3-1.4.2-3.9-.4-7.9-.4-11.8.1a7 7 0 0 0-2.8.9l-.3.1-3.7.4-1.2.3c-1.6 1.1-3.4 2.2-4.6 3.8-1.4 1.8-1.2 3.7.3 5.5.3.3.5.6.9.8 2.4 1.5 4.8 3.1 7.6 3.6l.2.1c.3.1.5.1.8 0h.2c1 .1 1.9.1 2.9-.1.9-.2 1.8-.3 2.6-.7l1.4.4c.6.2.4.5.1.8-.7.3-1.4-.1-2.1.1.1.4.6.3.6.6l-.7.7c-.8 0-1.5.1-2.2-.2-1.1-.2-2.1-.6-3.2-.4-.9.2-1.8-.2-2.6-.7-.7-.4-1.4-.7-2.1-.7-1.1-.5-2.2-.9-3.2-1.5a14 14 0 0 1-4.6-3.5l-.3-.2v-.1c-.3-.5-.8-.9-.7-1.6-.3-.8-.3-1.6.5-2.3.2-.2.3-.4.2-.7-.1-.9.3-1.5 1-2 1.1-.8 2.1-1.9 3.5-2.2.4-.1.8-.4 1.2-.7.5-.7 1.4-.4 2-.6l2.7-1.1 1.2-.4c.6-.1 1.2 0 1.8.1 1 .2 1.9-.1 2.8-.2h1.1c.3 0 .4.4.7.3.1.1.1-.1.1 0h-.1c-.1-.1-.3-.1-.2-.3.4-.3.9-.2 1.4-.1 1.4 1 4.1 1 5.2 0 .6-.2 1.2-.1 1.8.1.1.6-.5.3-.7.5 1-.1 2 .9 3-.1.7 0 1.4-.2 2.1.1z" class="st0"/><path d="M17.3 5.1c.3-.9.4-.9 1.4-.2-.4-.6.1-.8.1-1.3-.1-1-.7 0-1-.3.6-.7 1.4-.9 2.2-1.1.9-.2 1.9-.1 2.7-.8.5-.4 1.2-.1 1.8-.2v.1c-.2.6-.3 1.1-.2 1.7.1.3.1.8-.1 1-.5.2-.4-.5-.7-.6-.6-.5-1.2-.6-1.8 0l-.6.3c-.8-.1-1.3.5-1.8.9-.5.5.3.7.2 1.1-.8.4-1.5.8-2.4.4-.2-.3-.2-.6.2-1zM27.4.8c0 .5-.4 1.1.5 1.3.3.1 0 .4.1.6.2.4.1 1 .5 1.3-.4.3-2.3.6-2.8.7-.5-.7-.3-1.5-.2-2.2.2-.9.3-.9-.6-1.1a.8.8 0 0 1-.4-.2c.8-.1 1.5-.6 2.4-.2l.5-.2z" class="st120"/><path fill="#344555" d="M16.5 6.8c-.3.5-.7.9-1.3 1-1.6.3-2.5 1.5-3.7 2.4-.5.4-.7.9-.5 1.5.1.2.1.5-.1.6-.9.6-.9 1.4-.8 2.3-.3-.6-.7-1.2-.8-2-.3.5-.3.9-.4 1.4 0 .3.2.7-.3.8-.5-1.6-.1-2.9 1-4.1l.5-.2c.4-.3.3-1 .9-1.2.4-.5 1.1-.8 1.6-1.2l1.2-.5c.1-.2.3-.3.5-.3l2.2-.5z"/><path fill="#f2f4f6" d="M14.6 6.8l-.3.2c-.7-.1-1.3 0-1.8.6l-.9.5c-.2.1-.3.3-.5 0v-.5c.7-1.2 1.9-1.6 3.2-1.8.3-.1.4 0 .4.3l-.1.7z"/><path d="M11 9.2c-.4.3-.3 1-.9 1.2.3-.5.2-1 0-1.5 0-.2.1-.5.3-.6.5.2 0 .9.6.9zM13.8 7.5c-.3.5-.8.5-1.2.5.3-.3.7-.5 1.2-.5z" class="st59"/><path d="M42.6 55c-.2-.9-.1-2-.9-2.7-.4-.4-.2-.6.2-.7.3-.1.6-.1.8-.4-.2-.3-.6 0-.7-.3h4.7c.4-.1.8-.2 1 .1.3.3 0 .6-.2.9-.3.6-.2 1.3-.2 1.9 0 .5 0 .9-.4 1.1h-1c-.6.4-1.3.2-2 .2-.5.1-.9 0-1.3-.1z" class="st123"/><path d="M46.7 55c.4-.7.1-1.4.2-2.1 0-.4 0-.8.2-1.1.1-.2.5-.4.4-.7-.2-.4-.6-.2-.9-.2-.2-.4-.2-.8-.2-1.2.3 1.6 1.7.9 2.6 1.2 1.2.2 1.5.8 1.1 1.9V54c.1.8-.3.7-.8.8-.9.2-1.7.2-2.6.2z" class="st77"/><path fill="#191a12" d="M48.6 55.2c0 .2-.1.3-.2.3h-8.5c1.1-.3 2.3 0 3.5-.3.8-.2 1.6-.1 2.4 0h2.8z"/><path d="M45.7 55.1h-2.4l-2.1-.1.1-.2c.2-.1.3-.1.5.1h4l-.1.2z" class="st77"/><path fill="#423b2a" d="M50.3 55.5c-.4 0-.7 0-.8-.5.4 0 .9-.2 1.3.1-.1.2-.2.4-.5.4z"/><path fill="#b6b3aa" d="M36.2 48.4c0-.7.5-.8 1-.9.2.7.2 1.5.2 2.2 0 .6.1.9.8.9.7 0 1.4.1 2.1-.1l-.2.3h-3.8c-.2-.3-.4-.6-.7-.7-.6-.1-.6-.4-.1-.8.3-.3.3-.7.7-.9z"/><path fill="#3c4f5f" d="M17.1 6.2c.9.1 1.7-.1 2.4-.5.5-.6 1.1-.7 1.9-.4a8.6 8.6 0 0 1-4.1 1.3l-.7.2v-.2c0-.2.1-.5.5-.4z"/><path fill="#c9d3e6" d="M17.1 6.2l-.5.5c-.7-.2-.5-.8-.5-1.2 0-.7.5-.7.9-.8.4-.1.3.3.3.5-.1.3 0 .7-.2 1z"/><path fill="#d3d4cf" d="M28.2 24.8a11 11 0 0 0-1.9-.2l.1-.3 2.4.2c-.1.4-.4.2-.6.3z"/><path fill="#999892" d="M41.4 19.1s-.1 0 0 0c-1.2.6-1.8-.3-2.6-.7l-.1-.3c0-.4.3-.4.6-.4.3.1.6 0 .8-.1.5-.2.9-.4 1.2.3.1.2.3.1.5.1a14 14 0 0 0 3.5-1c1.6-.8 3.3-1.2 4.9-1.9l1.8-.8c.7-.5 1.5-.3 2.3-.5.3 0 .4.2.2.5l-.3.2c-.1.1-.3 0 0 .2-.4.4-1.1.4-1.5.6-2.6.9-5.2 2.1-7.7 3.2l-1.8.6c1.3.2 2.7.2 4.1.7l.1.2c-.3.8-1.1.6-1.6.5-1.1-.4-2.3-.5-3.4-.7-.4-.1-.7-.4-1-.7z"/><path fill="#326c9e" d="M38.8 18.3v.2l-1.9-.5c-.2-.3-.6-.3-.5-.7v-.2c-.3-.7-.3-1.4.1-2 .2-.3 0-.7.2-1.1h.6c.6.2 1.2.2 1.7.6.6.5.8 1.2 1.2 1.8 0 .5-.3.7-.7.8-.4.1-.5-.2-.7-.5-.2.5-.1 1 0 1.6z"/><path fill="#22486e" d="M29.8 21c-.7.9-1.7.7-2.6.9-1 .1-3.7.3-4 0-.2-.5.3-1.3.9-1.4.3-.1.7 0 1 .1.6.2 1.3.3 1.7-.5.3-.3.7-.3 1.1-.4.3 0 .7 0 1 .2.4.4.9.6.9 1.1z"/><path fill="#3e6386" d="M41.4 19.1c.1 0 .4-.5.4.1 0 .2.1.2.2.2l4.5.9c.3.1.7.1.9-.3.9-.1 1.7-.7 2.7-.5.2 0 .5 0 .6.2.1.4-.3.4-.5.6-.2.2-.8.1-.5.7.1.1-.3.2-.4.2-.4.2-.9-.2-1.3.2-.3.4-.1-.6-.5-.3a1 1 0 0 1-.9.1c-.3-.1-.3-.7-.8-.4-.3.2-.6.3-.9 0-.8-.6-1.7-.9-2.7-.9-.4 0-.9-.1-1.1-.5 0 0 .3 0 .3-.3z"/><path fill="#6b88a2" d="M31.9 17.9c-1.2.1-2.1.8-3.2 1.3-.1 0-.3 0-.4-.2 0-.4-.5-1.1.6-.9l-.1-.2c-.1-.4.2-.9 0-1.3l.3-.6c-.2-.2-.5-.1-.8-.2-.2-.1-.6 0-.4-.4.6-.2 1.2-.2 1.8-.5.5.1.4.5.4.8 0 .2-.1.5.2.5.3 0 .3-.2.4-.4l.2-.9c.5-.2.4.8.5 1 .2.4.2 1 .6 1.3.3.3 0 .5-.1.7z"/><path fill="#135586" d="M41 19.6c.6.2 1.2.4 1.8.4.7 0 1.4.3 1.9.8.4.4.7.3 1 0 .3.1.6.2.3.6-.6 0-1.2.1-1.8-.1a21 21 0 0 1-2.5-.2c-.8-.1-1.2-.4-1.2-1.2.2-.2.3-.3.5-.3z"/><path fill="#b2b5ae" d="M31.9 17.9c-.4-.3.3-.4.1-.7a.8.8 0 0 1-.2-.5c0-.3.2-.5.5-.4.8.3 1.6 0 2.4.2l1.7.7c0 .2.1.5.4.5.4.1.1.2 0 .2a20 20 0 0 0-4.9 0z"/><path d="M36.6 21.7c-1.2-.9-2.4-.6-3.5.2-.1-.3-.4-.7.1-1v-.3c-.7-.4.1-.4.1-.6.7-.1 1.5-.3 2.2-.2.3 0 .8-.1.9.4-.2.2 0 .2.1.3.2.3.7.5 0 .8l.1.4z" class="st137"/><path fill="#656762" d="M44.8 22.4c-.4-.4-.9-.1-1.4-.1l-5-.4c0-.4 0-.4.8-.3.3.3.7.1 1.1.2 1.7.1 3.5.1 5.2.3.2 0 .6-.1.5.2 0 .3-.4.3-.6.3l-.6-.2z"/><path fill="#b5b2a9" d="M36.4 20.1c-.7-.3-1.5-.2-2.2-.1-.3 0-.6.2-.9-.1.2-.3.5-.5.9-.7.8 0 1.6.1 2.3.5 0 .2.3.4-.1.4z"/><path d="M28.5 19.1l.3.1c-.3.4.4.4.2.7h-1.1c-.1-.5-.5-.2-.7-.3-.2-.1-.7.1-.6-.5.4-.2.8-.1 1.2-.1l.7.1z" class="st140"/><path d="M34.1 19.3c-.2.4-.5.5-.9.7.1-.2-.3-.3-.1-.5.4-.4.7-.3 1-.2z" class="st137"/><path d="M31.9 30.6h-.6c-2.2 0-2.9.6-3 2.8-.3 2.1-.1 4.3-.2 6.4a4 4 0 0 1-.7 2.4l-.2-.2c-1.4-3.7-1.7-7.4.3-11 .3-.6.6-1.2 1.2-1.6.5-.4.9-.5 1.4-.4v.2c-.2.2-.6.1-.5.6.1.4.4.5.8.5.5 0 1.2-.3 1.5.3z" class="st141"/><path fill="#d4d2c4" d="M32.6 43.8v-.2c.5-1.2.3-2.5.3-3.8.4-.2.8 0 1.2 0 .4 1.2.7 2.4.2 3.6-.4.5-.1 1.1-.1 1.6 0 .6-.2.9-.8.9-.5 0-1-.2-1-.8.1-.4 0-.9.2-1.3z"/><path fill="#5e5b53" d="M31.9 30.6c-.5-.3-1.1-.1-1.6-.2-.2 0-.5 0-.7-.2-.6-.9-.7-.8.5-1.3.4-.2.9-.3 1.4-.3h.7c1 0 1.1.2.7 1.1-.2.4 0 1-.7 1l-.3-.1z"/><path fill="#6d6d61" d="M27.4 42.2c0-.5-.1-1 .4-1.3.2-.2.1-.5.1-.8v-4.7c0-.7.1-1.3.3-1.9v7.9c0 1 .3 1.8 1.2 2.3v.1c-.7.6-1.4.4-1.7-.3-.1-.4-.1-.9-.3-1.3z"/><path fill="#d8d3c5" d="M30.3 46c.1-.6-.2-1.1-.2-1.7 0-.5.1-1 .7-.9.5 0 1 .3 1 .9.2 1.4 0 1.7-1.5 1.7z"/><path d="M27.4 42.2l.4.7c.3 1 .7 1.2 1.7.8.1 0 .3.1.1.2-.3.2-.7.1-.9.6-.1.3-.3 0-.5-.1-.6-.5-.8-1.3-.8-2.2z" class="st141"/><path fill="#52504a" d="M39.1 30.2l-1.9.7c-.8-.2-.6-.8-.5-1.4.2-.3.5-.1.7-.3-.1-.4-.5-.2-.7-.3-.3-.2-.1-.2.1-.3l1.7.2.5.1c.5.1.8.3.8.8.1.6-.5.2-.7.5z"/><path fill="#7d7a74" d="M39.1 30.2c0-.4.7 0 .6-.5-.1-.4-.4-.5-.7-.6-.2 0-.3-.2-.4-.3 1.6-.3 2.1.9 2.7 1.9.3.5.7 1.1.6 1.7 0 .2.2.4-.1.5-.3.1-.3-.2-.4-.4l-.2-.2c-.2-.6-.5-1.2-1-1.8-.2-.2-.6-.4-1.1-.3z"/><path fill="#bcb9ae" d="M41.2 37.6v-4.7c.5 1.2 1.1 2.4.5 3.7-.1.3-.2.7 0 1 .4.7 0 1.2-.1 2-.4-.7 0-1.4-.4-2z"/><path fill="#b4af9f" d="M36.7 29.5c.4.4-.1 1.1.5 1.4 0 1.8.1 3.5-.2 5.3 0 .3-.1.6.3.8 1.5.9 1.5 1.1 1 3.2-.5 0-.8-.3-1.1-.6-.4-.3-.8-.5-1.3-.5l-.8-.3c-.2-.2-.7 0-.8-.5.7-.4.9-1.2.6-2-.4-.8 0-1.6 0-2.4 0-.3.3-.3.5-.2.7.3.8-.2.7-.6-.1-.7-.3-1.3-.1-2 .1-.5-.4-.5-.8-.4-.6.2-1.2.2-1.7-.2l-.1-.1c.1-.6.5-.9 1.1-.9.8-.2 1.5-.4 2.2 0z"/><path fill="#a09e92" d="M32.5 33.2v-.5c-.1-.4-.2-.8 0-1.3.3-.2.5-.5.5-.8-.1-.4.2-.4.4-.5h.1c.3 1 0 2-.1 2.9 0 .3-.3.4-.6.4-.2.1-.3 0-.3-.2z"/><path d="M32.6 31.5v1.3c-.3-.6-.1-1.3-.1-1.9.2.1 0 .4.1.6z" class="st151"/><path d="M34.8 81.9c.7.4 1.6.4 2.2 1 .4.4.5.7-.1.9-.7.2-1.1.7-1.4 1.2-.4.6-1 .9-1.6 1.2-.6.3-1.1.7-1.5 1.2-.3.4-.8.6-1.3.5-.6-.1-1.2.2-1.8.4-1.1.3-2.2-.4-3.3-.3l-.3-.2c-.1-.2.1-.3.2-.3.5-.2.8-.7 1.1-1.1.3-.2.2-.5.2-.8 0-.6.1-1.1.5-1.6l.7-1.3c.2-.3 0-.4-.3-.5l-1.5-.8c-.4-.2-.8-.5-.7-1.1.6-.1 1.1.2 1.5.5 1.3.9 2.8.8 4.2 1 .7.1 1.4.4 2.1 0l1.1.1z" class="st8"/><path fill="#cac8b9" d="M19.8 81h-1c-.6-.3-1.3-.5-1.8-.9-.4-.3-.8-.3-1.3-.2-1 .2-2 0-2.8-.7.4-.3 1.2-.4.6-1.2-.2-.3.1-.3.3-.3.8.1 1.5-.2 2.2-.5 1.1-.3 2.1.2 3.2.4.7.2 1.2.7 2 .7.6 0 1.1 0 1.7-.3 1-.6 1-.5 1.6.5l.5.5c-.3.2-.6.4 0 .7.4.2.6.6.7 1 .2.4.2.9-.4 1-.4.1-.6.7-1.2.5-.9-.8-2.1-.7-3-1.3-.3.1-.8-.1-1.3.1z"/><path d="M24.1 82.4c.5-.1.7-1 1.4-.8l.1-.3c-.1-.6-.5-1.1-.9-1.5-.1-.1-.5.3-.5-.1 0-.3.2-.6.6-.6h.2c.6.2.6 1 1.2 1.2.4 1.1 1.5 1.3 2.4 1.7.6.3.5.4.3.8-.5 1.1-1.5 2-1.3 3.3 0 .1-.1.4-.3.2.1-1.5-.4-2.5-1.8-3-.6-.1-1.3-.2-1.4-.9z" class="st153"/><path d="M29.7 67.2c-1.6 0-1.6 0-1.6 1.7v1.3c-.2-.1-.3-.2-.3-.4l-.1-2.3c-.1-.6.6-.4 1-.4.3 0 .7-.2 1 .1z" class="st13"/><path fill="#e5e3d6" d="M9.3 79.6c.4.7.4 1.3-.1 2-.1-.7-.2-1.2.1-2z"/><path d="M52.8 75.7l.7.7c.2.2.4.3.1.6-.2.2-.3.4-.6.1-.1-.1-.3-.1-.4.1l-2.2-1.4c.4.6 1 .9 1.5 1.3.3.2.8.3.1.7l-.1.5c-.1.2-.3.5 0 .7.4.3.4-.3.7-.4 0 .7-.3 1.1-.9 1.4-.3-.3.2-.5-.1-.8-.4.2-.5.5-.4.9.3 1 .2 1.4-.6 2.1-.4.3-.7.3-1.1 0-1.9-1.2-3.9-2.2-5.6-3.7l-1-.5c-.4-.1-.7-.3-.8-.8 0-.5-.5-.5-.8-.6-.4-.1-.3.3-.4.5l-.8 1c-.2-.5-.5-1 0-1.6.1-.1-.1 0-.1 0-.2 0-.3-.1-.3-.3 0-.2.2-.3.3-.4.6-.2 1-.6.6-1.3-.1-.1 0-.2.1-.3 1-.7.6-1.8.9-2.7 0-.5.4-.9.5-1.5l.2-.3c.3-.3 2.2-.2 2.6 0 1 .6 1.7 1.6 2.4 2.5.3.4.7.7 1.1.9 1.1.6 1.7 1.8 2.9 2.2.4.2.8.7 1.4.3l.1.1z" class="st155"/><path d="M41.7 71.5c-.1-.2-.1-.4-.5-.4-.4.1-.5-.2-.5-.5 0-1.5-.5-3-1-4.4-.3-.9-.8-1.1-1.6-.6.1-.3 0-.6-.3-.8l-9-.2c-.6.4-1.3-.3-1.8.2.7.6 1 9.1.9 9.8-.1 1 .4 2 .1 3.1 0 .5.5 1.3 1 1.3.6 0 1 .3 1.4.5.8.4 1.7.5 2.6.3 1-.2 2-.3 3-.2.7.1 1.3 0 1.8-.5l.7-.4c.3-.2.4 0 .5.2.5 0 1.1.1 1-.7V78c.2-.6-.4-1.4.6-1.8-.3-.2-.6.3-.9-.1.5-.3 1.3-.3 1.2-1.1 0-.5-.2-1 .6-1.1 0 0 .1-.1 0-.2-.5-.7.4-1.4.2-2.2zM53.4 79.3l-.1.2c-.1.4-.3.8-.7 1l-.3-.3.7-1.2c.2-.1.4.1.4.3zM53.6 77.9v-.5c.1-.2.2-.5.5-.5l.4.3c.1.2-.1.4-.2.6l-.4.3-.3-.2zM54 79.4c.6.3.3.6.1.9l-.6.7c-.2-.1-.5-.4-.2-.5.6-.1.3-.8.7-1.1z" class="st155"/><path d="M17.4 71.5c1 .3 1-.4 1.2-1 0 .5.2 1-.2 1.4-.3 0-.8.1-1-.4z" class="st4"/><path fill="#5d5e56" d="M19.5 71.7c1.2.4 2.1 1.1 3.3 1.6.1.3.7-.1.7.5-1 .7-1.3.7-2.2-.1l-1.5-1.1c-.3-.2-.9-.4-.3-.9z"/><path d="M39 59.6v-3.3c0-.2.3-.3.4-.2.6.5 1.6-.5 1.9.2.4.9.3 1.9.4 2.9 0 .3-.4.2-.5.4H39z" class="st107"/><path fill="#f4f1f0" d="M59.3 80.2c0-.4.3-.6.6-.6.4.1.3.4.3.7 0 .6-.1 1.2-.7 1.6-.4-.5-.1-1.2-.2-1.7z"/><path d="M55.5 77.1c.1.2.3.5 0 .8-.2-.4-.6-.5-.7-1l.7.2z" class="st87"/><path d="M41.7 71.5l-.1-.1c-1.2.2-1.1-.6-1.1-1.4 0-.7 0-1.4-.3-2-.4-.7-.4-1.6-.8-2.3-.3-.5-.8-.3-1.3-.2 0-.3 0-.6-.2-.9h.2c.5-.1 1-.2 1.4.2.8.2.4 1 .6 1.5.2.6.7.9 1.1 1.2.2.1.9.2 1.2-.3.2-.3.5-.5.9-.3 1.2.6 2.3 1.3 3 2.5.2.3.5.5.8.6.3.2.7.4.6.8-.1.5 0 1 .4 1.4.3.3.4.7.1 1-1.2-.4-1.6-1.6-2.3-2.4-.6-.7-1.7-1.4-2.5-1.2h-.7c-.2 0-.5 0-.5.2.1.8-.5 1.2-.5 1.7z" class="st158"/><path fill="#c0beb2" d="M37.8 81.9h-2.9c.1.5.5.4.8.5.4.1.9.3 1.2.6.2.2.3.4 0 .6-1.4.9-2.2 2.4-3.8 3l-.4.4c-.4.5-.9.7-1.5.7l-.8.1c-1.3.5-2.5.1-3.9-.2.5-.4.9-.8 1.1-1.3.2-1.5-.3-2.4-1.6-3-.5-.2-1.1-.5-1.5-.9l-.2-.1-1-.3c-1.1-.4-2.1-1.1-3.3-1.2l-.9.1c-.3.2-.9.3-.7.7.2.4.6 0 .9 0h.2l-1 1.5c0-.9-.1-1.4-1-1.1-.3.1-.8-.1-1.2-.2-.1 0-.3-.1-.4.1-.8-.1-1.5-.5-2.3-.6-.4 0-.8-.2-1.1-.5-.5-.4-.4-.9.2-1.1.3-.1.6-.1.8-.3.4-.3.9-.5.8-1.1 0-.3.2-.4.4-.4l.8-.1c1.9-.9 3.6-.2 5.3.5.7.3 1.4.4 2.1.1.7-.3 1.3-.5 2 .1l.9-.3c-.6-1.2-1.3-1.5-2.6-1.2-.4.2-.7.8-1.4.5-1-.4-2-.7-2.9-1.3-.7-.5-1.5-.8-2.3-1-2-.5-4.1.8-4.3 3.3 0 .3-.1.4-.3.5-.3.9-.4 1.8.3 2.6.8-.2 1.2.6 1.7.9.7.4 1.2 1.2 1.9 1.7 1.2.8 2.5 1.3 3.4 2.5l.4.3c.8.3 1.6.7 2.3 1.2 2.8 1.8 6 1.8 9.2 1.6 1.6-.1 3.3-.8 4.6-1.9 1.6-1.3 2.7-3 3.4-4.8-.2-.7-.6-1.2-1.4-1.2z"/><path d="M47.6 71l-.1-.3c-1.2-.4-1.7-1.7-2.6-2.5-.6-.5-1.3-.7-1.8-1.1-.3-.2-.4.2-.7.2.4-1.1.4-1.1 1.4-.5 1.9 1.1 3.4 2.5 5 4 .6.5 1.1 1.1 1.8 1.5.6.4 1 1 1.1 1.6.2.8.7 1.2 1.1 1.7-1 .2-1.4-.6-1.7-1.2-.5-1-1.3-1.5-2.1-2.2l-.2-.2a2 2 0 0 0-.9-.9c-.2.1-.3 0-.3-.1z" class="st155"/><path fill="#d0cdc0" d="M39.5 65l-1.4-.2c.4-.3.9-.1 1.4-.2v.4z"/><path fill="#33516e" d="M26.9 4.3l1.5-.2 4.3-.1c1-.1 2.1.3 3.1 0 .2 0 .3 0 .4.2l.4.1h.3c.3.3.6.4 1 .3.7-.3 1.5-.4 2.3-.3.3.2.7.3 1 .1.3-.1.4.1.5.2-1.2 0-2.3 0-3.5.2-.4.3-3.3 0-3.5 0-1.5.1-3.1.2-4.6-.2-.5 0-1.1-.2-1.6.2h-.3l-3 .3c-.5.1-1 .2-1.4-.1-.5-.3-.9.2-1.4 0 .4-.7 1.1-.5 1.7-.5.5.1 1-.3 1.5 0 .4-.3 1 .4 1.3-.2z"/><path fill="#89bce3" d="M36.9 4.3h-.3c.3-.6.3-1.3.4-2 .7.7.6 1.6-.1 2z"/><path fill="#639bd7" d="M36.2 4.1c-.2 0-.3 0-.4-.2-.3-.5.1-1.1-.2-1.6-.1-.1.2-.3.4-.3s.3.2.2.4c-.1.6-.2 1.1 0 1.7z"/><path d="M37.1 4.8h1.2c.3.3.7.1 1 .2-.3.7-1 1-1.9.6l-1.1-.3c-.2 0-.5 0-.4-.3 0-.2.3-.2.5-.2h.7z" class="st114"/><path d="M19.3 81.4c.1.8-.7 1.2-.9 1.8 0 .1-.3 0-.4 0-.2-.1-.3-.2-.3-.5 0-.2-.4-.1-.9-.5-.3-.2-.9-.1-1.3-.1-1.1-.3-2.2-.4-3.2-.9-.5-.2-.8-.5-.7-1.1.1-.5.5-.6 1-.6.1 0 .3 0 .4-.2.2 0 .5-.1.7.1.6.8 1.4.4 2.1.4.8-.1 1.5-.1 2.1.6.2.3 1 0 1.1.6-.4.2-.1.2.3.4zM19.8 81c.3-.8 1-.1 1.2 0l2.7.9c.3.1.4.3.4.6-.4.3-.7.1-1-.1-1.1-.6-2.1-1.2-3.3-1.4zM17.7 83.8c.1-.3.3-.5.5-.3.3.2-.2.3-.2.4-.1.1-.2 0-.3-.1z" class="st153"/><path fill="#84837a" d="M36.2 48.4c-.3.4-.2 1-.8 1.1l-.1.2c.1.2.2.2.4.2.5 0 .9.2.7.9h-4.1l.5-2.1c.6-.3.7-.8.7-1.4.4 0 .6.2.7.6 0 .2.2.3.4.3.3 0 .1-.3.1-.4.1-.3.3-.4.5-.1.3.5.5.8 1 .7z"/><path d="M39.1 55h2.1v.1H35c.7-.4 1.5-.1 2.2-.2l1.9.1z" class="st123"/><path d="M42.3 51.7c.3-.1.6-.3.5-.6-.1-.3-.5-.1-.7-.2l-.2-.1c-.3-.1-.6 0-.9.1-.3.1-.6-.1-.9-.2-.2-.2-.5-.2-.8-.2h-7a27 27 0 0 0-4 .3c.2 0 .3-.1.4-.4v-.9c0-1.6 0-1.6-1.4-2.1.1-.2.2-.2.3-.2.4.1.5-.2.5-.5s-.4-.3-.6-.3c-.4 0-.7-.2-1.1-.1l-.2.3c-.1.1-.2.3-.1.5.5.6.3.7-.4.7-.7.1-1.2.4-1.1 1.3.1.5 0 1.1 0 1.6 0 .2.2.3-.1.4-.5.2-1 .1-1.6.1-.7 0-1-.1-.7.9.3.8.7 1.7.1 2.7-.3.4.2.3.4.3h3.4c.8-.3 1.5.1 2.3 0l.2-.2h3l1.9.2c.4.3.8.2 1.2.2l.9-.1c1 0 2 .1 3-.1l.2-.2c.7.2 1.4.1 2.1 0h.5l.1.1c.3.1.5.1.8-.1.4-1-.1-1.8-.5-2.6.1-.2 0-.4.5-.6z" class="st106"/><path fill="#7a7466" d="M35.8 39c.5-.2.9.1 1.3.3l1.2.9-.2.3c-.6-.6-1.7-.3-2.3-1V39z"/><path fill="#bdb6a5" d="M34.3 43.4c-.1-1.2.1-2.4-.2-3.6.5.9 1 1.1 2.3.8.8-.2 1-.1 1 .8 0 .6.2 1.2-.5 1.6-.2.1-.1.4 0 .5.1.3.2.6 0 1-.2-.1-.2-.4-.4-.6-.2-.3-.5-.3-.9-.2-.3.1-.3.4-.3.6-.1.6-.1 1.2.8 1.2.2 0 .5.1.5.4-.5.4-1 .4-1.6.2-.4-.5-.8-1-.3-1.7.2-.3.2-.8 0-1.2l-.4.2z"/><path fill="#d5d0c1" d="M36.7 45.8l-.5-.1c-1 .1-1.2-.5-1-1.3.1-.4-.4-1 .5-1 .7 0 1.3.1 1.3 1.1v1.2l-.3.1z"/><path d="M34.3 38.3c.2.3.7 0 .9.3l-.5.4c-.8-.6-1.7-.5-2.4.2-.1.1-.2.2-.1.3.3.5-.3.7-.4 1-.1.1-.1.1-.2 0l-.4-.7v-.2c-.1-1.3-.1-1.3 1.3-1.6.6 0 1.2-.2 1.8.3z" class="st168"/><path d="M34.1 39.8c-.4.4-.8 0-1.2 0 0-.5.2-.8.6-.8.5 0 .7.4.6.8z" class="st80"/><path fill="#3c3930" d="M34.6 38.9c0-.4.3-.4.5-.4l.7.4c-.1.2.7.3 0 .5h-.2c-.3-.1-.7 0-1-.5z"/><path d="M31.6 40.5h.2c-.1.8.2 1.6-.2 2.4v-2.4z" class="st80"/><path d="M34.6 38.9c.3.2.8.2 1 .5-.3 0-.9.3-1-.5z" class="st168"/><path fill="#999690" d="M36.7 45.8l.2-.2c-.1.6-1 1.4-1.5 1.4l-.2-.3v-.5c.5-.3 1.1 0 1.5-.4z"/><path fill="#b3b1a5" d="M32.6 43.8V45c0 .6.5.8.9.8.5 0 .7-.3.7-.8 0-.3.1-.7-.1-1-.3-.4.1-.4.3-.6v2.1c0 .8-.5 1-1.1 1.1-.7 0-.7-.6-.7-1-.2-.6-.4-1.2 0-1.8z"/><path fill="#5c605f" d="M44.7 7.2c-2.3-.5-4.6-1-6.9-1-.8 0-1.6-.1-2.4.3-.4.2-.6.4-.4.9.1.5.3.9.2 1.4l-.5-.1c-.5-.1-.4-.7-.9-.7l-.1-.1c-.3-.5 0-1.2-.6-1.4a5 5 0 0 0-2.7 0c.9.8 1.4 1.7 1.3 2.8v1.8c.1.9.4 1.7.4 2.5 0 .3.2 1 0 1.3-.5.1-.6-.7-.7-1-.2-1.6-.7-3.1-.7-4.7 0-.5-.3-.9-.7-1.2 0 .7.3 1.3.2 1.9l-.3.2c-.6-.4-.6-1-.7-1.6-.4-1.5-1-1.9-2.5-1.7l-2 .3c-.3 0-.7.1-1-.2 1.6-1.2 3.5-1 5.2-1.2 2-.3 4-.2 6-.1 1.7 0 3.3.2 5 .3 1.4.1 2.6.7 4 .7.2.3.8.1.8.6z"/><path fill="#557193" d="M38.8 14.6c1.6.9 3.1.4 4.6-.2l8.7-3.1c.2-.1.6-.1.7-.5 0-.1.1-.1.1 0l.4.5c0 .6-.6.9-.6 1.4 0 .2-.3.3-.5.2-.9-.4-1.7.1-2.4.4l-1.2.4c-.3 0-.5.1-.8.3l-.2.1c-.9.2-1.6.6-2.4.9-1 .4-2 .6-3 .8a2 2 0 0 0-1.3.8c-.3.1-.6.1-.8-.2-.8-.4-.7-1.4-1.3-1.8z"/><path fill="#373836" d="M54.1 14.6l-.2-.1c.1-.2.3-.2.5-.3.1-.1.3-.1.2-.2 0-.2-.2-.3-.4-.2-.5.2-1.1.1-1.7.3-.5.2-.9.1-1.2-.4 0-.4.2-.7.5-.7.9 0 1.2-.5 1.5-1.2l.2-.2c.2.2.2-.3-.1-.7 1.3.5 2.7 2.7 2.6 4.1 0 1.6-1.2 3.5-2.8 4.1-.1-.5.4-.7.7-1 .6-.6 1-1.2 1.2-2 .1-.3.2-.7 0-1-.1-.2-.6-.2-1-.5z"/><path fill="#6d7684" d="M55.5 15c.5 1.2-.3 2-.9 2.8-.3.5-.8.9-1.2 1.3l-1.9 1.2c-.2.1-.5.2-.6-.1-.1-.3.1-.4.3-.5 1.1-.7 2.3-1.3 3-2.4-.8 1.1-2 1.7-3.1 2.4-.2.1-.3.3-.5.1-.6-.1-1.2-.2-1.8.1a2 2 0 0 1-1.5.1v-.2c.6-.5 1.4-.7 2.2-.9 2.1-.7 4-1.6 5.4-3.5.2-.2.4-.4.6-.4z"/><path fill="#22517b" d="M53.7 11.7c-.2.8-.4 1.5-1.5 1.5-.3 0-.5.3-.6.6-.3.6-.8.7-1.3.8-1.6.4-3.1 1-4.5 1.6l-1.9.7c-.3.1-.6.2-.8-.2 0-.2.1-.3.3-.4 1.3-.4 2.5-1 3.7-1.5.5-.2.7-.4.8-.9.3-.1.5.1.7.2 0-.2-.2-.3 0-.5 1-.1 1.6-.9 2.6-.9.4 0 .8-.3 1.1.1.1.2.4 0 .4-.1-.2-.7.5-.9.7-1.3.1-.1.2.1.3.3z"/><path fill="#26425e" d="M50.7 19.8a13 13 0 0 0 4-3.1c-.1.7-1.3 2.1-2 2.3-.6.2-.9.6-1.4.8-.5.3-.2.5.2.5-.7.7-1.7.9-2.6 1.4-1.4.1-2.8-.3-4.3-.2a.8.8 0 0 1-.4-.2H46.4c.5 0 1 0 1.2-.7.2.3-.1.7.2.8.4.1.3-.3.4-.5 0-.1.1-.2.3-.2l.2.2c0 .1-.1.5.1.3.3-.2.6.1.8-.2.1-.3-.4-.2-.4-.4.6-.2 1-.5 1.5-.8z"/><path d="M44.7 7.2c-.2-.3-.6-.2-.7-.5.7-.1 1.3 0 2 .2 1.5.5 2.9 1.3 4.4 1.7.3.1 1.2.3.5 1a79 79 0 0 0-6.2-2.4zM52.9 10.8h-.1l-1.1-.7c.3 0 .4-.5.8-.2s.6.5.4.9z" class="st178"/><path d="M40.8 62.2c-.3-.3-.6-.5-.8-.9-.3-.5-.7-.7-1.3-.7H38c-.2-.3 0-.7-.2-1-3.4-.1-6.8.2-10.2.2-.2.5-1.1.4-.9 1.1.2.8-.1 1.5-.6 2.1-.2.3-.2.6.2.6.8 0 .6.5.6.9.6.1 1.3-.1 1.9.2l.4.2c1.2 0 2.4.4 3.6.1h1.5c1.1.2 2.2.1 3.3.1l.3-.1c.4-.2 1 0 1.4-.4v-.2l-1.6-.2c-.2 0-.4-.1-.3-.3 0-.2.2-.2.3-.2.9 0 1.8-.2 2.7-.4.9-.1 1-.6.4-1.1z" class="st13"/><path d="M31.4 50.5c-.2-.3-.8 0-.8-.5 0-.3.5-.6.7-.5.3.1.8.1.8.6 0 .4-.5.3-.7.4z" class="st37"/><path fill="#454c50" d="M23.7 7c-1.5.5-3.1.7-4.6 1.4a11 11 0 0 0-4.5 3.5v.7c-.3.6 0 .9.6 1l.9.3 4 1.4c1.7.5 3.3.9 5 1.6 1 .4 2.1.5 3.2.7.3 0 .6 0 .8.2.1.1.5.1.3.4-.3.5-.5-.1-.7-.2-.3.3.1.7-.1.9-.1.2-.3.2-.5.2-.8-.7-1.9-.8-2.9-.9-.9-.1-1.7-.3-2.6-.7-1.1-.5-2.4-.7-3.5-1.1l-3.8-1.3-.7-.1.5.5c.8.7 1.7 1.3 2.6 1.8.3.2.6.3.7.6.1.4 1.6 1.5 1.4 1.8-.2.3-.9-.2-1.1-.4-1.1-.6-2.7-1.3-3.2-1.1-2.1-1.7-2.7-3.6-1.9-5.7.4-1.1 1.4-1.9 2.3-2.6l2.2-1.6c.7-.6 1.6-.9 2.5-.9l3.1-.4z"/><path d="M15.3 18.2c.1-.5 2.6.1 2.5-.6.4.3.8.4 1.1.5 1.7.7 3.5 1.3 5.2 1.8.9.3 1.8.1 2.7.3-.4.6-1.2.9-1.8.5-.4-.2-1-.2-1.1-.1-.2.4-1 .5-.7 1.1a8 8 0 0 1-4.2-1.5 6 6 0 0 0-1.8-.9c-.7-.1-1.3-.5-1.9-1.1z" class="st180"/><path fill="#a2b8cf" d="M24.1 4.6c-.6 0-1.2.1-1.7.4l-1 .4c-.6 0-1.4.1-2 .4-.8-.2-.9-.6-.2-1.2.5-.4.9-1.4 1.9-.8.5.7 1 .7 2 0l.6-.4c.5 0 .2.5.5.7.1.2.1.3-.1.5z"/><path d="M30.2 4.6h5c0 .4-.2.6-.6.7-1.1.1-2.1.5-3.2-.1-.3-.2-.7-.3-1.2-.1-.2.1-.4.1-.4-.1l.4-.4zM28.3 4.8h1.2c-.4.4-.8.5-1.2 0z" class="st114"/><path fill="#497ab4" d="M24.1 4.6v-.5L24 2.6c-.2-.5.2-.8.5-1.2h.9c.6.1.9.6.5 1a1 1 0 0 0-.2 1.1c.2.5 0 .8-.1 1.1h-1.5z"/><path fill="#9595ab" d="M23.6 3.4c-.4.9-1.3.9-2 1.2-.4.2-.4-.6-.5-.9l.5-.3c.6-.7 1.3-.6 2 0z"/><path fill="#9ebfe2" d="M26.9 4.3c-.1 0-.4.1-.3-.1.2-.8.1-1.7.3-2.6.1.9.3 1.8 0 2.7z"/><path fill="#5a6164" d="M43.1 16.7c.8.2 1.6-.2 2.2-.6 1.6-.7 3.2-1.5 5-1.8l1.2-.6c.8.4 1.6.2 2.4.1.5-.1.9 0 1.3.2-.1.4-.5.2-.7.3.1-.2.1-.4-.2-.3-.9.3-2 .1-2.8.9-.6.5-1.4.6-2.1.8l-5.3 2c-.9.3-1.8.3-2.6.7-.4.2-.4-.1-.4-.3 0-.6-.3-.5-.7-.3-.4.2-.7.4-1.1.2-.1-.2.1-.4.3-.5l3.5-.8z"/><path fill="#5890bb" d="M43.1 16.7c-.9.6-2 .7-3.1.8-.3 0-.6 0-.7.4-.3 0-.5 0-.5.4-.5-1-.4-1.5.2-2.2.2.3-.3.8.2.8.3.1.6-.2.8-.6l.9.2a6 6 0 0 1 1.9-.5c.3 0 .7 0 .7.5l-.4.2z"/><path fill="#455e72" d="M34.6 8.8l.1-.3c.3 0 .1.3.3.4l.4 1.7c.1.8.2 1.5 1.2 1.9.7.3.6 1 .5 1.7l-.5-.2c-.5-.2.3-.8-.3-1-.2.7.2 1.4.3 2.1-.3.7-.3 1.4 0 2.1-.7.1-.9-.4-1-.9v-.7c0-1.9-.7-3.7-.9-5.5-.2-.6-.4-1-.1-1.3z"/><path fill="#6f89a4" d="M36.5 15c-.6-.6-.5-1.5-.6-2.2-.1-.4.3-.3.5-.2.5.4.3.9.2 1.3.1.4.3.7-.1 1.1z"/><path d="M35.7 16.2c.1.5.4.7.8.9v.2c-.6.1-1.1-.3-1.7-.5v-.1c.3-.3.5-.7.9-.5z" class="st189"/><path fill="#5e8cad" d="M46.6 21.3h-.3l-.4-.5c.6-.4.5.2.7.5z"/><path fill="#435f84" d="M29 16.7c-.8-.3-1.7-.1-2.6-.4-.5-.2-1-.4-1.4-.8-.5-.1-1-.2-1.4-.5-.1-.1-.2-.2-.1-.3h.3l4.1.9c.3.3.7.1 1.1.2.2 0 .5-.1.6.2.1.4-.2.4-.4.5-.2-.1-.2 0-.2.2z"/><path fill="#384956" d="M30.7 13.9c-.1-1.3-.6-2.5-.7-3.8l.2-.2c.7.5.7 1.3.8 2 .1 1.1.5 2.1.7 3.1.2.5.3 1.1.3 1.7v.5c-.1 0-.4.4-.4-.1l-.6-1.8c-.5-.4-.1-.9-.3-1.4z"/><path fill="#b1bed0" d="M30.7 13.9l.3 1.4-.1.8c-.1.4-.5.4-.8.4-.4-.1-.2-.4-.1-.6.1-.3.2-.7-.1-1 .2-.4.9-.3.8-1z"/><path d="M32.1 16.7c-.5-1.5-1.1-2.9-1.2-4.5-.1-.7-.4-1.5-.7-2.2l-.5-2.7c.9.8 1.4 1.4 1.5 2.5 0 1.5.4 3 .7 4.5l.3.3c.3.4.4 1.1 1 1.2l1.1.3c.3.1.6.1.7.5v.1c-.8-.1-1.7.1-2.6-.3-.3 0-.3.2-.3.3z" class="st189"/><path fill="#165fa0" d="M29 16.7c-.3-.4-.8-.5-1.1-.4-.6 0-1.2-.2-1.7-.4l-1.1-.4-1.2-.3c-2.3-.8-4.6-1.2-6.9-2-.4-.1-2.2-1-2.5-.7-.5.7-.3 1 .6 1.2.3.2 1.1.7 1.4.7 1.1.1 2 .6 2.9.9 1.6.5 3.2.8 4.7 1.5 1.6.7 3.2 1 4.9 1.1-.1-.4.5-.8 0-1.2z"/><path fill="#bebbb2" d="M36.3 20.7c-.8.4-1.6-.1-2.3.2-.1.1-.3 0-.3-.2s.2-.4.4-.4c.7-.2 1.5-.3 2.2.4z"/><path fill="#858887" d="M24.3 18.6l-8.7-2.8c-.2-.1-1.8-.4-1.7-.8.2-.4.7-.1 1 0l2.5.8c1.5.6 3.1.9 4.5 1.4 1.6.7 3.3.9 5 1.2.4.1.9.3 1 .8h-1.7c0-.4.3-.3.5-.4-.8.1-1.6-.3-2.4-.2z"/><path d="M32.4 38.3c-1 0-1.4.6-1.3 1.5 0-1.3-.6-2.7.3-3.9l.2-.7c-.1-.8.3-1.4.9-1.9l.2.2c.2.5.2 1 .2 1.5 0 .3 0 .6-.3.8-.7.6-.7 1.6-.2 2.5z" class="st151"/><path fill="#d4d1c1" d="M32.4 38.3c-.4 0-.8 0-.6-.7v-1.1c0-.4-.1-.8.6-.9.4 0 .3-.4.4-.6.1-.5-.4-1 0-1.6.3-.2.6-.3.5-.8-.1-.8.1-1.7.2-2.5.6.2 1.3.4 1.9-.1.3-.2 1 .4.9.7-.4.7-.1 1.3 0 2 .1.3.1.5 0 .8-.2.4-.3.7-.8.3-.4-.4-.5-.1-.5.3 0 .6-.3 1.5-.2 1.6.5.5.3 1.1.3 1.7.1.7-.2.9-.9.8l-1.8.1z"/><path fill="#e9e6da" d="M48.8 71.9c.6.4 1.1 1 1.9 1.4.2.1.3.1.3.3.1 1.1.8 1.7 1.8 2.1-.1.4-.2.9-.7.3l-1-.5c-1.2-.4-1.8-1.5-2.8-2.1 0-.4 0-.7-.4-1-.5-.3-.6-.9-.3-1.4h.2c.2.4.6.6 1 .9z"/><path d="M48.8 71.9c-.6 0-.9-.3-1-.9.4.2.9.3 1 .9z" class="st158"/><path fill="#404540" d="M32.9 16c-.6-.2-.9-.7-.9-1.4-.2-1.2-.3-2.5-.6-3.7-.1-.6.1-1.1.1-1.7-.1-1.2-.7-2.1-1.9-2.8 1.4-.4 2.6-.2 3.7-.2.3 0 .3.4.4.6.2.4 0 .9.3 1.2.2.1.3.4.3.6.1 1.2.6 2.3.5 3.5-.1.2-.3.1-.4 0l-1-.7c-.8-.4-1-.3-1 .6-.1.9.1 1.8.2 2.7 0 .6.8.5 1 1-.1.5-.4.4-.7.3z"/><path d="M34.7 12.2L34 8.1c.2-.5.4-.3.5 0 .1.2 0 .5.2.7 0 1.5.5 3 .8 4.4.1.8.3 1.5.3 2.3-.7.1-.5-.5-.7-.8-.2-.9-.7-1.6-.4-2.5z" class="st189"/><path d="M43.4 16.5c-.6-.7-1.3 0-1.9-.1-.2 0-.4.3-.7.1 0-.9.8-.9 1.2-1 1.4-.2 2.7-.5 3.9-1.1a6 6 0 0 1 1.8-.5c.4.5.2.8-.3.9-1.3.5-2.6 1.3-4 1.7zM48.5 13.6c0 .3.5.5.3.7-.4.4-.6-.3-1-.3.1-.4.4-.4.7-.4z" class="st200"/><path fill="#4774a2" d="M24.5 14.7c-.5-.1-1-.1-.7.1.4.3.9.2 1.2.6-.4.3-.8.1-1.1 0L17 13.3c-.3-.1-2.3-.5-2.4-.9 0-.2-.1-.5.1-.7.6.6 1.4.6 2.2.8l7 1.8c.1.3.3.4.6.4z"/><path fill="#525453" d="M35.2 14.6c.3.2-.1.8.5.9v.7l-.8.5c-.6-.5-1.3-.3-1.9-.7.2 0 .5 0 .5-.4.1-.4.5-.4.8-.5.3 0 .6-.2.9-.5z"/><path d="M24.3 18.6c.2-.1.1-.4.3-.3.9.4 1.9.1 2.8.7-.3.4-.8 0-1.1.3-.8-.1-1.4-.4-2-.7z" class="st140"/><path fill="#323536" d="M35.2 14.6c0 .4 0 .7-.6.7-.4 0-.8.2-1.2.4-.9 0-1.3-.5-1.2-1.4.1-.7-.2-1.4-.2-2.1l.2-1c.2-.3.3-.7.8-.2.5.5 1.4.4 1.6 1.2l.6 2.4z"/></svg>