<svg xmlns="http://www.w3.org/2000/svg" id="图层_1" viewBox="0 0 100 100"><style>.st0{fill:#01aafe}.st1{fill:#eeefec}.st2{fill:#e9e9e6}.st3{fill:#e7e8e4}.st9{fill:#eaebe8}.st11{fill:#eeeeea}.st12{fill:#eeeeec}.st13{fill:#eef0ed}.st14{fill:#f0f1ee}.st16{fill:#f0f1ed}.st22{fill:#959490}.st37{fill:#745056}.st38{fill:#ebebe9}.st39{fill:#ebece8}.st41{fill:#a6a49f}.st51{fill:#f6f7f6}.st52{fill:#ecedea}.st53{fill:#c9c9c4}.st56{fill:#cbcbc6}.st65{fill:#706e6a}.st73{fill:#c8c8c3}.st76{fill:#777371}.st77{fill:#c8c8c2}.st85{fill:#eff0ed}.st86{fill:#f3f4f1}.st94{fill:#812830}.st98{fill:#cacac5}.st100{fill:#ebecea}.st101{fill:#edece8}.st102{fill:#e8e9e5}.st104{fill:#63605f}.st122{fill:#c6c7c1}.st131{fill:#3bbffd}.st133{fill:#5dcbfe}.st134{fill:#98dffd}.st137{fill:#46c3fe}.st138{fill:#84d8fd}.st141{fill:#f0f0ee}.st170{fill:#aeaca8}.st174{fill:#01aafd}.st175{fill:#40c1fd}.st176{fill:#1ab4fd}.st178{fill:#0daffe}.st179{fill:#23b6fd}.st180{fill:#231111}.st181{fill:#06adfc}.st182{fill:#241111}.st183{fill:#2ab8fc}.st185{fill:#07adfc}.st189{fill:#7ed6fd}.st191{fill:#04acf5}.st193{fill:#02b1f2}.st195{fill:#04abf4}.st204{fill:#04aff1}.st207{fill:#04aaf5}.st209{fill:#04aaf2}.st210{fill:#04acee}.st213{fill:#05aaf0}.st217{fill:#03aaf5}.st222{fill:#271b1e}.st223{fill:#87d9fd}.st225{fill:#241116}.st227{fill:#231110}.st229{fill:#8bdbfd}.st230{fill:#4cc5fd}.st237{fill:#c5c4bc}.st239{fill:#c8c7c2}.st255{fill:#ececea}.st271{fill:#241112}.st276{fill:#06abe5}.st278{fill:#05b0e5}.st281{fill:#240c0f}.st286{fill:#16b3fd}.st289{fill:#2bbaf9}.st297{fill:#272228}.st300{fill:#31b5e4}.st302{fill:#484d52}.st306{fill:#10b1fd}.st311{fill:#2b2327}.st329{fill:#33b4e5}.st339{fill:#453939}</style><path d="M12 65h76V11l-76-1z" class="st0"/><path d="M99.5 97.2c-.1.9-.7 1.6-1.1 2.4-.3.5-.8.5-1.4.4-.3-.2-.6-.1-.9-.1H81.7c-.6-.1-1.2-.5-1.9-.2l-.5-.8c-.2-.4-.2-.7.3-.8.2 0 .4-.1.4-.4 0-.2-.2-.3-.4-.3-.2-.1-.5-.1-.4-.4.1-.3.3-.3.5-.4h.3c.7.1.6-.3.3-.8-.1.4-.4.7-.8.5-.5-.2-1-.4-1-1.1 0-.4-.1-.9.4-1.1.6-.3 1.2-.5 1.2-1.3 0-.3.5-.4.8-.4.3 0 .6 0 .6.4.1.6.5.6.9.5.7-.1 1.4-.3 2.1-.1.2 0 .3 0 .3-.2l-.1-.4a.3.3 0 0 0-.4 0l-.1.1c-.2.2-.4.5-.7.3-.4-.3-.2-.6-.1-1-.3 1.1-.5 1.3-1.2 1.2-.2 0-.5-.1-.5-.3-.1-.3.1-.5.3-.6.3-.1.5-.4.5-.6 0-.6.4-.8.9-.9.1-.3-.3-.3-.3-.5-.1-.1 0-.6-.3 0-.1.3-.5.1-.6-.2-.2-.2-.1-.5-.2-.8l-.1-.2c-.1-.3-.5-.2-.6-.5 0-.5.1-.9-.1-1.4-.1-.4-.4-.7-.8-.9-.2-.4-.6-.6-1-.8l-1.2-.5c-.3-.2-.6-.1-.9-.1-.3 0-.7 0-.5-.5.1-.3-.1-.2-.2-.2-.2.1-.5 0-.7-.1-.6-.4-1.2-.8-2-.4-.4.2-.8-.2-1-.7-.1-.3-.3-.6.2-.7.2.1.3.3.5 0 .3-.2.4.1.7.3-.3-.4-.5-.5-.8-.2h-.3c0-.7-.4-1.3-1.1-1.6v-.4c0-.5.3-1 .1-1.5a2 2 0 0 0-.5-1l-.7-.7-.6-.4c-1.4-.8-2.9-.7-4.5-.2l-.7.4h-.3c-.2.1-.5.2-.6.4l-.2.1-.6.5-.4.7-.1 1c0 .3 0 .6-.4.6-.3 0-.5-.2-.4-.5 0-.2 0-.4-.2-.3-.5.1-.6-.3-.6-.7 0-.4-.2-.9.5-1h.1c.2.1.2.5.5.4l.1-.1c-.1-.3-.4-.1-.5-.3-.8.2-1.5-.3-2.4-.3-.5 0-.7-.4-.4-.8.4-.6.2-.8-.4-.7l-.7-.2c-.3-.1-.6-.2-.5-.6.1-.3.4-.5.8-.4l1 .1c.5 0 .8.4.9.8.1.7.6.9 1.2.9h.2c.8.2 1.5.1 1.8-.8.1-.4.5-.3.7 0-.5-.4-.5-.4-.9.2-.3.5-1.1.7-1.7.5-.4-.2-.3-.4-.1-.6.4-.5.9-.9 1.4-1.1.7-.3.2-1.1.8-1.4l-.3-.3c-.2-.5-.2-.9.3-1.2.3-.2.7-.4 1 0 .1.2.2.1.3-.1.4-.9.8-.8 1.4-.2.5.4.9 0 1.1-.3.4-.6.7-.4 1.1-.1.4.3.8.5 1.3.6.7.1 1.1-.2 1.3-.9.1-.3.1-.7.5-.7s.6.3.7.6l.3.6c.3.3.6.8-.3.7-.2 0-.2.1-.2.2s-.1.2 0 .2c.4.1.7 0 1-.2.2-.2.2-.4.1-.6-.2-.4-.6-1-.1-1.2.6-.3.8.4 1 .8.1.3.3.5.3.8l.1-.4c.1-.4.3-.8.8-.6.5.2.5.7.3 1.1l-.4.7c-.4 1-1 1.4-2.1 1.1.4.2.4.2 1.1.2.4 0 .7 0 .7.4.1.8.8 1.2 1.1 1.9l.2-.1c0-.3-.6-.6-.2-1 .2-.2 1 .2 1.2.6l.2.6c.1.3.3.4.6.3 0-.3-.4-.2-.4-.5 0-.2.1-.5.3-.5.8.1.7-1.3 1.7-1 .6.2.6.6.1 1.3.3.3.8-.5 1 .1.1.4.2.8 0 1.2-.3.5-.7-.2-1 0 1.2.3 1.9.2 2.7-.5-.5.1-.8-.1-.9-.5-.1-.3 0-.5.2-.7.2-.2.7-.3.3-.7-.3-.3-.8-.6-1.1-.3-.6.5-1.1.1-1.6 0-.4 0-.5-.4-.5-.7 0-.3.2-.5.5-.4l.3-.1c.3-.7 1-.6 1.5-.7l.2.1.1.5.7-.5.4-.1.5.2c.2.1.3.3.3.5-.1.4-.6.2-.9.6.6-.2 1-.2 1.4-.2 1 0 1.1.2.8 1.1l-.4.7-.2.4c-1.1.4-.8 1.4-1.1 2.2-.1.4.2.4.4.4l.3.2c.3.5.6.8 1.2 1 .6.2 1.2.2 1.7-.3.2-.2.5-.4.6-.7l.3-.6v-.9l-.2-.4c-.7-.9-1.5-1.2-2.6-.9h-.2c-.1-.1-.2-.1-.1-.3l.8-1.3c.5-.7 1.1-.9 1.9-.6.5.2.8.2 1.3-.1l2.3-1c.3 0 .5.1.6.4 0 .7-.6.9-1 1-.8.2-1.1.9-1.4 1.4l-.2.4-.1.1.1-.1c.4-.2.6-.6.7-1 .1-.3.3-.6.6-.5.4.1.2.5.1.7-.2.6.1 1.3-.5 1.9.8-.1 1.5.2 2.2-.3h.3c.2.2.2 1.6 0 1.8-.3.3-1.4.3-1.6-.1-.3-.6-.5-.3-.8-.1-.3.3-.8.5-.5 1.2.2.5.5 1.3.1 1.7-.4.4-1.1-.2-1.6 0 .7 0 1.3 0 1.7.7.2.3-.2.5-.3.8.3-.3.7-.5 1-.6.3-.1.7-.1.7-.7 0-.4.4-.4.7-.2.4.1.8.4.6.8-.3.7.1 1.3-.1 1.9-.1.4.3.4.5.4 1.4-.3 2.3.3 3 1.4 0 .1-.1.2 0 .2.3 0 .6.1.5.4-.1.4-.5.6-.9.6-.5 0-.6.2-.5.6h.1c.3-.3.7-.5 1.1-.2.4.3.2.7.1 1-.2.6 0 1 .3 1.5.2.3.5.4.8.3.3-.1.2-.3-.1-.3-.2 0-.5-.2-.4-.4.5-.8-.3-1.4 0-2.2.3-1 1-1.4 2-1l.5.6.2.5c0 1.6.6 3.1.3 4.7 0 .3 0 .6-.2.8-.1.1-.2.3-.1.5.6 1.2 0 2.5.2 3.7z" class="st1"/><path d="M21.8 100H7.7c-.3 0-.5.1-.7-.2 1-.2 2 0 2.9-.1h-5c.5-1.3.8-1.4 1.9-1 1.1.4 1.8.1 2.2-1 .1-.3.3-.6.7-.5.5 0 .4.4.4.7l-.1.9c.4-.5.1-1.1.4-1.3.5-.3.6-.6.5-1.2-.1-.4.5-.6.7-.9l.2-.2c.6 0 .9-.7 1.6-.5.1 0 .1-.6-.1-.9L11.8 92c.2.5 0 .9-.4.7-.7-.3-.9.2-1.3.6-.2.3-.5.6-.6 1-.2.7-.4 1.2-1.2 1.3-.3 0-.4.2-.3.5.1.2.1.5-.1.6-.3.2-.6 0-.8-.1-.3-.2-.4-.6-.7-.9-.4.3-.8.9-1.1 0-1.1-.1-.8-.5-.3-1.1.2-.3-.1-.4-.2-.6-.1-.3-.2-.5.1-.7.2-.2.4-.1.6.1.4.4 1.1.4 1.1 1.1 0 .2.3.4.6.3.3-.1.7-.2.9-.6 0-.2-.4-.2-.5-.3-.8-.6-.7-1 .2-1.4l.7-.5c-.4-.2-.7 0-1 0-.3 0-.5-.1-.6-.4-.1-.3.2-.4.4-.5.6-.4.6-.5 0-.8-.3-.1-.5-.4-.7-.7-.2-.5-.6-.6-.9 0-.4.6-1 .8-1.7.7-.2 0-.5 0-.6-.3 0-.3.3-.3.5-.4l.3-.1c-.2 0-.5.2-.6-.1-.1-.2-.1-.4.2-.5.2-.1.1-.1 0-.2-.5-.3-1.3-.2-1.4-1.1l-.4.1c-.3.2-.3.6-.5.9.5-.3.9-.2 1.4-.2.3.1.6.2.7.6.1.4-.2.5-.4.7-.5.3-.3.8-.3 1.2 0 .2 0 .9.7.7.3-.1.4.2.3.4-.1.5-.3 1.1-.9 1-.5 0-1-.3-1.1-1 0-.1.1-.3-.1-.5 0 .7 0 1.3-.4 1.8-.2.2 0 .7.5.9.4.1.5.4.1.6-.3.1-.3.3-.4.6-.3.6-.6.9-1.1.7v-.5-1.2-.2L.8 92c.1-1 .2-1.9-.3-2.8v-.5a3 3 0 0 0 .1-2.6v-.3c0-1 .1-1.9-.1-2.9v-.4c.7-.3.4-.6 0-1L.4 81c0-.4.5-.8 0-1.2a.6.6 0 0 1 0-.6c.4-.3.5-.6.2-1.2-.2-.4-.2-.9-.2-1.4 0-.7-.1-1.4.1-2.1.4-.5.6-.1.9.1.4.6 1 .3 1.5.4.7 0 1.4-.1 2 .4.1.5.4.8.8.9.2.1.5.2.4.5-.1.3-.3.3-.6.3-.3-.1-.6 0-.7.4-.2.5.3.8.4 1.2.1.3.5.2.7.1.4-.3.9 0 1.4-.5 0 0-.2-.1-.1 0v.1c-.3.2-.5 0-.5-.3 0-.4-.4-.8-.2-1.3s-.6-.4-.4-.9c.5-.1.9 0 1.4.1.7.2 1.3.6 2 .5.3 0 .6.3.5.7-.1.5.2 1.3-.7 1.3.5 0 .9.2 1.3.1.1-.4-.2-.6-.4-.9-.2-.3-.2-.7.2-.8.5-.2.9-.4 1.4 0 .1.1.1.1 0 .2 0 .1-.2 0-.3.2h.3c.6-.6 1.1-.5 1.4.4.3-.3.3-.8.8-.5.3.3.4.7.2 1.1-.3.7-.9.8-1.6.2.5 1.1 0 1.7-1.7 1.8.8.2.5.7.3 1.2.3-.1.7-.1.7-.5 0-.5-.1-1.2.7-.5.8-.5 1.1.5 1.6.6l.1.3c-.3.3.1 1.1-.8 1-.1 0-.1-.1 0 0l.1.1c.8.1.5-.6.7-.9.4-.3.5 0 .6.3l.1.7c0 .3-.2.4-.3.6-.4.4-.8.7-1 1.2l-.4.9c-.4.4-.4.9-.5 1.4-.2.5 0 1 .1 1.5.1 1.3.9 2.3 1.8 3.1.6.5 1.3.9 2.1 1a5 5 0 0 0 3.6-.6l.6-.4c.3-.2.5-.7 1-.6.8.6.8 1 0 1.7a1 1 0 0 0-.2 1.4c.3.3.5.1.7 0 .6-.4.9-.2 1.1.3.1.2.1.4-.1.5-.7.4-.3.7 0 1 .5.4.7.9.3 1.5l-.1.3c.8.5.1 1.1.2 1.6 0 .5-.4.8-.7.6-.7-.4-1.4 0-2.1-.3-.6-.2-1.1-.1-1.7.2.7.4 1.5.1 2.2.4.2-.1.2 0 .2.1z" class="st2"/><path d="M11.9 95.4c0 .3-.2.4-.4.5-.4.2-.6.5-.2.9.3.3.3.6-.2.6-.6 0-.6.4-.6.8 0 .8-.1.8-1 .8.6-.4.1-1 .4-1.4.1-.2 0-.3-.2-.3-.3 0-.5.2-.5.5-.3 1-.7 1.3-1.7 1.3-.3 0-.6-.2-.8-.3-.7-.3-1.1-.3-1.3.5l-.3.3h5.3v.2H3.6l-.2-.2c-.7-.2-1.4-.4-1.8-1a2 2 0 0 1-.7-1.3l-.2-.9.1-.3c.3-.2.8-.2.6-.9-.2-.5.6-.2.8-.5-.5-.2-1.1-.2-1-1-.2-.3-.4-.7.1-.8.3 0 .3-.2.1-.4-.4-.4.1-.7.1-1 0-.2.1-.3.3-.2.2 0 .3.1.2.3-.1.3-.2.7.2 1 .3.2.5.5.8.4.4-.2.5-.7.7-1.2-.4 0-.3.4-.5.5l-.1-.1c-.2-.4-.3-.8-.7-1.1-.2-.1-.1-.3 0-.4.1-.2.5-.3 0-.7-.3-.2.1-.3.4-.4.3 0 .6-.1.6-.5 0-.3-.3-.5-.6-.5-.5.1-1.2-.4-1.3.9-.3-1.3.2-2.2.9-2.3.3 0 .7-.1.3.4-.1.2.1.6.2.5.6-.2.9.6 1.4.6-.1.2-.3.3-.5.3-.2.1-.3.1-.2.3l.3.1c.2-.2.5-.3.7-.1v.3c-.2.3-.5.1-.8.1-.2 0-.3 0-.4.2 1.3.5 1.6.3 2.6-1.2.2.5.9.5.8 1.2 0 .2.4.2.6.2.3 0 .5.3.5.6 0 .2-.1.5-.6.5-.2 0-.5.1-.4.4.1.3.3.3.6.2.5-.2.9-.1 1.4.3-.7 0-1 .6-1.6.7-.4 0-.1.6.2.8.9.7.9.7-.1 1.4-.2.1-.5.5-.6.2-.2-.3-1-.2-.5-.9.1-.1 0-.4-.2-.3-.5.2-.7-.1-.8-.5H5c-.2.1-.2.4-.1.5.8.6.3.9-.1 1.3v.3c.2.2.2-.4.5-.2.2.1 0 .3.1.5.1.1 0 .3.2.3L6 96c.3-.5.5-.5.8 0 .2.3.2.6.7.7.1 0 .3.2.4 0 .1-.1.1-.3 0-.4-.6-.7.1-.8.5-.8.6 0 .9-.3.9-.8 0-.9 1.1-1.3 1.2-2.2 0-.2.3-.1.4 0 .2.2.5.4.8.2.1-.3-.3-.2-.4-.4v-.4c.1-.2.3-.1.4 0 .8.7 1.4 1.5 2 2.3.1.2-.3.7.2 1.1-.5-.2-1-.5-1.4.1h-.6c-.1-.2-.4-.1-.5-.2-.5-.2-.5-.5-.2-.8.5-.9 1 .1 1.6 0-.2-.9-1-.5-1.6-.5 0 .2.2.3.1.5-.2.2-.4.1-.6.2-.3.1-.4.3-.4.7.1.4.4.2.6.2.2-.2.6-.4 1-.1z" class="st3"/><path fill="#f0f1ef" d="M99.6 71h.2v23.7c0 .8-.1 1.7-.3 2.5-.3-.7-.1-1.4-.1-2.1 0-.4.2-.8-.3-1.2-.2-.2-.1-.4 0-.6.6-1.4.6-2.9.1-4.2-.2-.6.2-1-.1-1.5.1-.2-.1-.3-.2-.4-.2-.1-.4-.3-.4-.5-.2-.3-.1-.6.2-.7.4-.2.4-.5.3-.8-.2-1.1-.2-2.2.1-3.3.1-.2.1-.5-.1-.6-.9-.3-.5-.9-.3-1.5v-.6c-.1.4-.2.7-.6.6-.1-.1 0 0-.1 0v.1l.2.9c0 .7-.2.9-.9.6l-.5-.1c-1.2-.1-1.8-1.1-1.3-2.2l.1-.8c0-.5.3-.8.6-1.1-.3 0-.4.3-.5.4-.2.1-.3.3-.5.2-.2-.1-.4-.3-.3-.5.1-.4-.3-1 .3-1.3.2-.1.1-.2 0-.3-.7-.6-.5-.9.3-1l.2-.2c.1-.6.5-.5.9-.5-.3-.1-.5 0-.8 0-.4 0-.6 0-.8.6-.2.6-.7 1.1-.5 1.9.1.2-.1.4-.4.3-.6 0-1.2-.6-1.3-1.1l-.1-.5c-.4-.8-.3-1.1.5-1.5.5-.3 1.1-.4 1.4-1 .2-.4.7-.1 1 0-.2-.4.4-1.2.9-1.5.9.1 1.8 0 2.6.4.4-.2.4-.4.5-.6z"/><path fill="#d5d6d0" d="M81.3 99.8h4.1l.1.1-.1.1H53.1l.1-.3.9-.1h24.4c.9 0 1.8-.2 2.8.2z"/><path fill="#d8d9d4" d="M53 99.8v.2H35.5l.1-.3.9-.2H52c.3.1.7 0 1 .3z"/><path fill="#ddddda" d="M35.5 99.8v.2H21.7v-.2c.2-.3.6-.3.9-.3h10.2c.9.1 1.9-.2 2.7.3z"/><path fill="#d9dad5" d="M85.3 100v-.2h10.8c.3 0 .6-.1.8.2H85.3z"/><path d="M.6 97.5v-1.1c.4 0 .3.3.4.6 0 .6.1 1.1.5 1.5l.1.1-.1.1c-.5-.2-.9-.6-.9-1.2z" class="st9"/><path d="M1.4 98.8v-.2c.5.4 1 .9 1.8.7.2-.1.2.2.2.4-.4.3-.7-.1-1.1 0l-.9-.9z" class="st2"/><path fill="#dcddda" d="M2.3 99.6c.4-.3.7.1 1.1 0v.2c-.4 0-.7 0-1.1-.2z"/><path d="M62.9 99.8h-.2c-.7-.4-1.5-.1-2.2-.1-1.5 0-3-.2-4.5-.1h-4.9c-1.1 0-2.1-.3-3.2 0-1 .3-1.6.1-2-.6 0-.3-.1-.5.1-.8-.6.1-1.1 0-1.6-.2-.6-.2-.6-.8-.6-1.3-.8.5-1.3.4-1.7-.3-.3-.6-.2-.8.5-.7.5 0 .7-.4 1.2-.4-.4-.5-.7-.8-1.3-.8a1 1 0 0 1-.6-.2c-.4-.4-.7-.2-.9.3-.1.2 0 .6-.4.6s-.6-.3-.6-.7l.1-.2-.1.1c-.7-.3-.5-.7-.3-1.2.1-.2.4-.3 0-.5-.2-.1-.4-.2-.4-.4.2-.4-.2-.2-.3-.4-.1-.2 0-.3.1-.4l.2-.1c.4-.2.9-.4 1.3.1.2.2.4.2.4-.1.1-.2.2-.4.4-.3.3.1.4.3.4.6s-.1.5 0 .8c.5 0 .8-.5 1.3-.4.5.1.6.5.5 1.1.5-.1.5-.4.4-.7l-.3-.8c-.2-.4 0-.6.3-.8.4-.1.7 0 .8.3.1.7.4 1.1.9 1.6.5.4 0 .8-.4 1.3.6-.1.6-.4.7-.6l.4-1.2c.3-.7.5-1.4-.3-2.1-.2-.2-.3-.5-.4-.9-.1-.2-.1-.5.1-.6.9-.2.5-.7.5-1.2 0-.3-.2-.7.2-.8.5-.1.7.2.7.7 0 .4 0 .9.4 1.2l.1.4c-.4.6-.1.9.6 1-.2-.4-.4-.7 0-1.1.2-.2.1-.4-.2-.5-.4-.1-.6-.2-.5-.7.1-.4.3-.7.8-.7l.9-.1c.7 0 1.3.1 1.6.9.2.6 2 .7 2.5.2.6-.6 1.9-.7 2.3-.1-.3.4-.3 1.1-1.2.9-.2-.1-.5.6-.6 1 .3-.1.6-.5 1-.1 0 .6-.7.8-.8 1.3-.2.4-.2.8 0 1.2.2.3.3.7.7.9l.2.3c.2.4.6.6 1 .7l.6.2.4.1.3.1h1.1l.8-.1.2-.1.6-.2c.6-.3 1.1-.7 1.4-1.4.2-.4.3-.9.3-1.4.1-1 .7-.4 1.1-.4-.7-.5-.9-1.1-.7-1.6l1-1.3c-.2-.4-.9 0-.9-.6.2-.3.3-.7.2-1.1v-1.5c0-.5.3-.8.8-.8s.7.3.7.8l-.1.9c.3-.7.7-.8 1.4-.6.2.1.5.4.8 0 .2-.3 0-.6-.3-.8l-.5-.5c-.1-.3 0-.6.2-.5.7.3.7-.4 1-.6.7-.2 1.3-.1 2-.1.8 0 1.5-.4 2.2-.8.6-.3.9-1.1 1.6-1.3 0 .1 0 .3.2.2.4-.3.6.1.8.3.3.2.2.4-.1.6v.6c-.6.3-.2.7 0 .9.2.3.6.5.9.2.6-.5.9-.4 1.4.1.3.3.9 1 1.4 0 .2.4.4.7 0 1 .5.2 1-.1 1.4.2-.7.5-1.6.1-2.3.5l-.8.4c-.5.3-1 .7-1.2 1.2l-.1.2c-.5.6-.3 1.2 0 1.9.3.5.7.9 1.3 1.2l.4.2.9.3c.9.1 1.7.1 2.5-.2a4 4 0 0 0 2.1-1.7l.2-.1c.3-.1.7-.2.6.4l-.1.5.1-.5c.3.2.2.5.2.7 0 .2.2.4.4.4l.2-.1c0-.3-.3-.2-.4-.5.4.2.8-.3.8.4l.1.2c.2.2.7 0 .6.5-.1.4-.5.3-.8.3-.2 0-.3 0-.3.3 0 .5 0 1.1-.8 1.1-.2 0-.1.2-.1.3l.2.2c.6.2 1.1-.1 1.1-.7 0-.3-.1-.8.5-.5.2.1.4.2 0 .4-.3.2-.3.6-.1.7.3.2.3-.2.5-.3.2-.3.6-.4.8-.2.2.2.4.7.2 1-.2.4-.4.2-.7.1-.6-.2-1.2 0-1.8.1-.9.2-1 .1-1.2-.7-.1-.2-.3-.3-.4-.2-.2.2-.8 0-.7.3.2 1.1-.6 1.1-1.2 1.4-.3.1-.4.2-.4.5 0 .4 0 .9.5 1.1.3.1.6.4.8.2.2-.2.1-.7.6-.9.2.3 0 .9.5 1.1.3.1 0 .4-.3.4-.5.1-.9-.1-1.5.2.4.3 1.2.1 1.1.8-.1.6-.6.6-1.1.5.2.5.6.9.5 1.4-1.6.2-3.1.1-4.7-.1-.9-.1-1.7.1-2.6.1h-8.7c-.2.2-.5.1-.7.4z" class="st11"/><path d="M66.4 83c-.1.3.3 1.3-.7.6-.1-.1-.3 0-.3.1 0 .3.1.5.4.5.7.1.6.6.6 1.2 0 .5-.4.5-.7.4-1.3-.4-1.3-.4-1.9.8a.8.8 0 0 1-.2-.8l.1-1c0-.3-.2-.5-.5-.5s-.6.1-.6.5c.1.6-.1 1.3.1 1.9.2.5-.1.7-.5.8-.5.1-1.1.2-.8 1 .1.4-.3.3-.6.3-.7 0-1.4-.4-2-.8-.5-.4-.8-.3-1.3 0-.6.4-1.3.3-2 .3l-.1-.2c-.7-.4-1.9-.3-2.2.3-.2.4-.4.5-.8.4-.5-.1-1-.5-1.7-.3-.1 0-.4-.2-.3-.3.1-1.1-.7-.9-1.3-1-.1-.1-.1-.1 0-.2.2-.2.4-.4.4-.7.1-.4.4-.5.7-.4.4.1.3.3.2.6l.1.4c.2.2.4.2.6 0 .2-.1 0-.3-.1-.4-.3-.3-.4-.7.1-1 .6-.4 1.4-.5 1.8-1.2l.6-.8c.5-.5.3-1.2.4-1.8.3-.5.6.1.9 0-.4-.2-.3-.6-.2-.9.1-.7.7-1.3.9-2 .1-.4.5-.2.9-.1-.2-.6-.2-1.1-.6-1.5-.2-.2-.2-.4-.1-.6.2-.4.2-.9.2-1.3s0-.9.6-1c.5-.1.2-.6.4-.8.2-.2.4-.3.7-.3.5.2.4-.4.7-.5l.2-.2c.2-.1.4-.2.6 0 .2.3.1.6 0 .8-.1.3 0 .4.2.5.4.2.1-.2.2-.3.5-.4 1.1-.6 1.7-.5.5.1.7.6.5 1.2l.1-.4c-.1-.7.1-1 .9-.9.3.1.6-.1.9-.2l.2.1c.4-.1.6.1.6.5 0 .6-.3.1-.4.1-.3.1-.2.3-.1.4.3.4 0 .6-.3.7-.7.3-1.3.9-2.1 1.6.9-.2 1.8.3 2-.9.1-.3.4-.5.6 0 .2.3.6.3.6.7-.4.1-.5-.6-1-.3-.2.1-.4.2-.3.5 0 .2.3.5 0 .4-.5-.1-.6.8-1.2.2-.3-.3-1 .2-1.6-.2-.3-.2-.4-.3-.5-.7-.1-.6-.2-1.1-1.1-.8-.2.1-.4 0-.6-.2-.3-.2-.5 0-.6.2-.2.3.2.3.3.4.3.1.5.4.9.2.3-.1.5 0 .7.2.2.3-.1.5-.2.7-.1.2-.4.3-.2.6.2.2.4.2.5-.1l.2-.1c.4.8 1.1.5 1.7.6l.2.2c-.8.3-.2.9-.3 1.4 0 .2.3.1.4 0 .1-.1.3-.2.5-.1s.1.3 0 .5c-.1.1-.2.3-.1.5l.2.1c.3-.1.1-.3.1-.5.1-.4-.1-.8.1-1.1.4.3.2.7.3 1 0 .5.1.9.4 1.3l.5.4.2.2c.2.3.3.5.6.6.6.6 1.3.5 1.6 1z" class="st12"/><path d="M98 79.5c.3 0 .6 0 .4-.4-.1-.3.1-.5.3-.5.4 0 .3.4.2.5-.2.4.2.9-.4 1.2-.2.1-.1.4.1.4.7 0 .7.5.6 1a6.5 6.5 0 0 0-.1 3.4c.1.6.1.9-.6 1-.2 0-.1.3-.2.5-.6-.4-1.2-.1-1.6.3-.3.3-.4 1.4-.3 1.4.8.4.6.8.1 1.2-.1.1 0 .4.1.3.8-.4.6.7 1.1.8-.3.1-.7-.2-1 .1-.1.1-.3.1-.4-.1-.1-.8-1.2-1.4-.4-2.3.1-.2.2-.6-.2-.6-.2 0-.7-.3-.6.4.1.3-.2.2-.3.2-.6-.2-.4-.6-.3-1 .1-.4.2-.5.6-.2.3.2.7-.2.8-.4.1-.3-.2-.3-.5-.2-.2.1-.4.1-.5-.1-.1-.2.2-.1.3-.2l.1-.1c-.6-.2-.5-1.1-1.1-1-.6 0-1.1-.7-1.7-.1-.1.1-.7-.1-1-.3-.3-.2.2-.3.2-.5 0-.3-.2-.6 0-.9-.6-.3-.4-.4 0-.7.2-.1.2-.4 0-.5-.3-.1-.5-.5-.9-.3-.3.2.1.3.2.4.1.2 0 .2-.2.3-.7.2-1.5.3-1.9 1.1-.1.1-.3.2-.4 0a.6.6 0 0 1 0-.6c.1-.2.7-.3.5-.6-.2-.2-.5-.7-1.1-.4-.3.1-.8-.3-1.1-.5.6 0 1.3-.2 1.9.1.4.2.5-.1.3-.4-.4-.6.2-1.4-.5-1.9-.1-.1 1.4-1.3 1.6-1.3l.2.2c-.2 1.1.7.6 1 .6.7 0 .4-.5.3-.8l.1-1.1c-.7 1.3-1.8.3-2.6.8-.1.1-.4-.3-.2-.4.7-.3.6-.9.5-1.4 0-.4.3-.6.3-1-.4-.1-.6.2-.6.4 0 .7-.4.9-.9 1.1 0-.6.5-1.1.7-1.6.1-.3.9-.3 1.3-.6l.6-.5c1.3-.1 2.1-.8 2.6-2 .1-.3.4-.4.7-.4.5 0 1-.1 1.5-.4.3 0 .5 0 .5.4l-.4.2c0 .7 0 .7-.6.7 0 .3.6.2.5.6l-.8-.1c-.4-.2-.6-.3-.6.3s-.7.3-1.1.6l-.7.4c-.1.2-.7.6 0 .8l.2.4c-.3.8.2 1 .7 1.2.1.1.3.3.4.1.2-.1 0-.3 0-.5-.2-.5-.2-.9.4-1.2.2-.1.4-.3.2-.4-.6-.8.4-.4.5-.7.5.3 1-.4 1.4.1.1.1.3.3.1.5-.2.2-.3 0-.4 0-.3-.2-.6-.3-.5.3.1.3-.3.5-.6.3-.2-.1-.4-.1-.4.2 0 .2.1.3.2.3.6 0 .1.7.5.7-.3.2-.8-.1-.7.1.3.5-.2.9.1 1.3.2.2.3 0 .4-.1l.8-.9c0 .4.5.9-.3 1.1-.2 0-.6 2.5-.4 2.6.3.4.7 1 1.4.7.5-.2.7 0 .7.5 1.4-.7.8-1.3.9-1.9z" class="st13"/><path d="M63.8 73h-.2c-.2.1-.3-.1-.3-.2-.1-.4-.3-.7-.7-.4h-.3c-1.3-.7-2.5.3-3.8.2l-.5.1-.7.2c-.5.2-1.1 0-1.4.6l-.3.1c-1.8-.4-3.5.3-5.2.7l-2.4.3c-.6.1-1.1.1-1.6.4a1 1 0 0 1-.8.1c-.5-.1-1-.2-1.4.3l-.3.1c-1.7-.1-3.2.5-4.9.6-.3 0-.6.1-.8-.1v-.3c.6-.5 1.4-.3 2-.7 1.2-.4 2.5-.4 3.6-.8 4-.5 8-1.4 12-2.2 1.5-.3 3.1-.5 4.6-.9.6-.2 1.3-.2 1.9-.3l.3-.1c1.5-.5 3-.6 4.5-.8l6.6-.7h1.8c.4.4.9.5 1.4.1l.2.1c.2.3.6.4.9.6h.6c1.2-.5 2.4-.6 3.6-.1.3.4.4.8.1 1.3-.4.7-.7.7-1.1.1-.2-.3-.5-.3-.8-.4.2.4.1.9-.3 1-1 .3-1.9.7-2.8 1.2-.3.2-.6-.4-1 0l-.2.1c-.2 0-.4 0-.6-.2 0-.3.3-.5.4-.7.2-.2.3-.5 0-.7-.1-.1-.1-.3-.3-.2-.3.1-.3.4-.4.6v.4c0 .2-.1.4-.3.4-.3 0-.4-.2-.3-.4.2-.6-.5-.8-.4-1.3 0-.1-.3-.5-.6-.4-.2.1-.1.5 0 .7.6 1.1.6 1.3-.8 1.4-.3 0-.6.5-.7.1-.1-.2.2-.7.4-.9.3-.4.3.5.7 0-.7-.3-.5-1.2-1.2-1.7-.2.5-.2 1-.5 1.3-.5.6-2 .5-2.6-.2-.4-.5-.4-.5-.7.1-.3.5-1.4.6-1.8.1-.4-.4-.6-.4-.8.1l-.3.6c-.1.2-.3.2-.4 0-.1-.2.1-.7-.4-.5-.3.1-.8.3-.7.9v.3z" class="st14"/><path fill="#c9cac5" d="M64.8 76.9h.1l1-.5c1.4-.4 2.8-.4 4.2.3l.2.2.4.8c1 .7 1 1.6.8 2.6l-.1.9c-.2.5-.6.7-.9 1.1-.2.2-.5.3-.8.3-.7-.8-1.7-.8-2.7-1-.4-.1-.8-.2-.6-.8.3-.2.7-.2 1-.3.4-.1.8.2 1.2.1 0-.7-.4-1.2-.8-1.7l-.2.1-.6.9c-.2.3-.3.6-.6.8-.5.2-.6-.1-.4-.5l.6-1.8c-.1.5-.7.8-.9 1.3l-.1.1c-1 .3-1 .3-.8 1.3l-.1.2c-.4.3-.6-.3-.9-.3l-.3-.3a2 2 0 0 1-.3-1.1c0-.6 0-1.1.3-1.6.1-.3.5-.5.7-.8l.6-.3z"/><path d="M76.3 73.1c.1-.2-.2-.4 0-.6.3-.1.3.2.4.3.1.1.3.3.4.2.4-.5 1-.4 1.4-.7.4-.3.7-.5 1.2-.4.5 0 .6-.6.2-1.3.4-.1.6.5 1 .1.2-.2.2.1.3.3.1.3.1.8.5.7.3-.1.6-.5.6-1l-.2-.6c.2-.2.4-.2.6-.1.4.2.5.6.4 1-.1.3-.3.5.1.8.2.1 0 .3-.2.4l-1.4.3c-.1.3.3.4.2.6-.2-.1-.4.8-.7.1l-.5.4c-.1.4-.2.7-.7.3-.2-.1-.4-.1-.4.2 0 .2.1.7.3.5.4-.2.5 0 .7.2.2.2.3.1.5 0 .5-.7 1.1-.2 1.6 0 .4.2.9.6 0 1-.2.1-.6.3-.4.7.1.2.2.4.4.4.2.1.1-.6.4-.2-.3.1.8.7-.2.6-.6 1.1-1.5.6-2.4.5l-.8.2c.4-.7.8-.9 1.4-.3.3-.5 0-1 0-1.5l-.5.3c-.2.1-.4.5-.6 0-.1-.2-.2-.6.2-.7.2-.1.4-.1.3-.4-.1-.2-.2-.3-.4-.3s-.5 0-.6.3c-.1.3.3 1.2-.6.5-.2-.1-.3.4-.5.5.4.1.8 0 .8.3s-.4.5-.7.4c-.3 0-.7 0-.7-.6.1-.5-.2-.9-.7-1-.1 0-.3-.2-.4-.1-.1.2 0 .3.1.4.2.1.5.1.4.5l-.4.5c-.3.1-.5-.3-.5-.5-.2-.7-1.2-.9-1-1.8.1-.4-.4-.1-.6-.1-.8.3-1.3-.1-1.3-.9 1 .7 1.9.5 2.2-.6h.7c-.4 1.2.2 2.1 1.6 2.3.2 0 .4.1.4-.2 0-.2-.1-.4-.3-.4-.9 0-1-.1-.8-1.1 0-.2-.1-.2-.2-.3-.3.3-.6.3-.6-.1z" class="st13"/><path d="M84.8 76v-.2c.2-.4.6-1.1.4-1.3-.5-.3-1.2-.2-1.7 0-.2.1-.4.3-.6.2a.3.3 0 0 1 0-.4c.3-.1.2-.7.7-.5.2.1.3.1.5-.1l.7-.4c.2-.1.4-.3.3-.6-.1-.2-.2-.4-.4-.4-.3 0-.7.1-.7-.4 0-.3.1-.6.3-.8.4-.2.8-.3 1.2-.1l.5.5c.2.2.3.5.7.5.1.1.1-.1.1 0h-.1c-.2-.1-.3-.4-.1-.5.7-.2.7-.8.8-1.3l.5-.1c.7 0 1.3.4 1.9.1h.1c.6 0 1.3.7 1.5.6.7-.4 1 .2 1.5.4.1.1.1.3.4.3.2-.1.5-.1.5.3.1.3 0 .7-.3.9-.5.3-1.1.7-1.7.2-.5-.4-.4.1-.6.2-.5.9-1.8.4-2.4 1.3-.2.3-.8 0-1.1-.2-.8-.4-1.2-.1-1.6.5-.6.5-.8 1-1.3 1.3z" class="st13"/><path d="M87.1 70.3l.1.4c.4.5.3.8-.4.8-.2 0-.3 0-.5.3l.9.1c-.6.5-1.2.5-1.6-.2-.3-.5-.7-.8-1.3-.5-.3.1-.5.3-.4.7.1.5.3.1.5 0 .6 0 .8.5.9.8.1.4-.5.6-.8.8h-.6l-.4-.4c-.2-.3.3-.3.3-.5-.4-.2-.5.2-.7.4h-.4c-.3.3-.6-.2-.9 0h-.2v-.1c-.1-.3-.7-.2-.6-.6 0-.1.5-.3.9-.3a5 5 0 0 0 1.2-.2c0-.3-.2-.3-.3-.2-.2.1-.4.1-.5-.1-.1-.2.1-.3.3-.4.6-.4.2-.8.1-1.2.5-.7.9.1 1.3.1.3.1.7.6.8-.2.9.1 1.6 0 2.3.5zM91 73.1c-.2-.4 0-.7.3-.8.5-.2.2.3.4.5.5.5.9-.3 1.4-.1.2.1.4-.5.3-.9l-.1-.2c-.8.4-.9-.4-1.3-.6-.5-.3-.8-.3-.8.5-.3-.7-.8-.9-1.4-1-.2 0-.5-.1-.6.2l-.1.1-.3.1c.1-1.2-1.2.3-1.2-.6a.3.3 0 0 1 0-.4c.5-.4 1-.2 1.5-.2l6.7.9.5.2c-.3.7-1.1.7-1.5.6-.5-.1-.5.1-.6.4-.3.7-.8 1.2-1.4 1.6-.4.3-.9.2-1.3.1 0-.4-.3-.4-.5-.4z" class="st14"/><path d="M62.9 99.8c0-.4-.1-.7.5-.4.6.3 1.2.3 1.8.1.5-.2 1.1-.1 1.6.1.7.3 1.3-.2 2 0 .3.1 0-.4.2-.6.3.8 1 .8 1.7.7l3.3-.5c.5-.1 1.2.2 1.8.3.7.1 1.3.3 2 .1.4-.1 1.1.1 1.7.2.6-.6 1.1-.3 1.6.2-6-.2-12.1-.2-18.2-.2z" class="st16"/><path fill="#552332" d="M85.3 80.2c-.7-.1-1-.5-1.2-1.1l-.4-1.6c.2-.7.6-1.1 1.3-1.4h.2c.5.1 1.1-.2 1.6.2-.1.4-.5.3-.7.3l-.9.3c-.3.2-.4.5-.4.9-.2 1.4.8 1.8 1.9 2.2-.6.3-1 .3-1.4.2z"/><path fill="#6e4146" d="M85.3 80.2h1c-.6-.1-1.1-.3-1.5-.8-.3-.5-.7-1-.3-1.7.2.1.2.4.3.6l.4.6.2.5c.2.1.4.2.6.1h.3c.3.1.5-.1.8.2v.2c-.4.5-1.1.7-1.8.3z"/><path fill="#696664" d="M70.3 76.9a6.6 6.6 0 0 0-4.4-.3c-.2.1-.4.1-.4-.2 1.7-.6 3.4-.7 5 .3l-.2.2z"/><path fill="#716f6d" d="M75.8 85.2c.8-.6 1.6-.3 2.5-.4.4.2.9.2 1.3.5l-.4.4-1-.2-.3-.1c-.3-.1-.5-.1-.8 0l-.2.1h-.8l-.3-.3z"/><path d="M84.9 76.1c-.5.4-.9.9-1.1 1.4.1.5.2.9.1 1.4 0 .2-.1.4-.3.2-.1-.2-.5-.3-.4-.4.4-.4.1-.8.3-1.2.3-.7.5-1.3 1.3-1.5l.1.1z" class="st13"/><path fill="#2c2322" d="M86.7 76.5c-.5-.4-1.1.1-1.6-.3 1-.5 2.3 0 2.9 1 0 .2.1.3-.1.5h-.2l-.6-.7-.4-.5z"/><path d="M83.2 73.1c0-.3-.3-.6.2-.7.3-.1.7.1.9.3.1.1 0 .3-.2.4-.2 0-.5-.1-.6.2l-.3-.2z" class="st13"/><path d="M72.2 80.7c-.4.5-.8 1.1-1.4 1.5-.2.1-.2 0-.3-.1.2-.4.7-.6.9-1.1.2-.2 0-.7.5-.7l.3.2c.1 0 .1.1 0 .2z" class="st22"/><path d="M82 73.1c.3-.5.6 0 .9 0-.3.4-.5.8-1.1.9-.1-.3.3-.5.2-.9z" class="st13"/><path d="M62.7 77.8c0 .4.3.8-.2.9-.3.1-.4-.2-.5-.5-.1-.6.5-.2.7-.4z" class="st12"/><path fill="#504d4a" d="M79.1 85.7c0-.3.2-.3.4-.4.4.2.9.3.8.9l-.1.1c-.4 0-.8-.2-1.1-.6z"/><path fill="#514e4d" d="M80.4 86.2c.7-.1.7.4.9.8.1.2.1.4-.2.5-.6-.2-.9-.6-.7-1.3z"/><path fill="#3f1124" d="M83.9 78.9c-.3-.4 0-.9-.1-1.4.4.5.6 1 .3 1.6l-.2-.2z"/><path fill="#605c5d" d="M63.6 78.1c-.1.6-.5 1.1-.4 1.7-.1.1-.1.1-.2 0v-1.2c0-.3.3-.5.4-.7.2 0 .3 0 .2.2z"/><path fill="#767572" d="M71.7 77.7c.4.2.5.6.5 1 0 .2.2.5-.1.6-.5-.4-.6-1-.7-1.6h.3z"/><path d="M74.1 82.9c0-.4-.6-.4-.5-.8h.6c.3.2.1.5-.1.8z" class="st11"/><path fill="#666462" d="M81.1 87.5c.2-.1.2-.3.2-.4.3.5.2 1.1 0 1.6l-.1.2c-.2 0-.3-.1-.3-.2-.1-.5-.1-.9.2-1.2z"/><path d="M93.9 85.5c0 .2-.2.3-.4.3s-.3-.1-.4-.3c0-.2.1-.3.3-.3.3-.1.4.1.5.3zM88.8 78.4l.1-.9c.6.4.6.4-.1.9z" class="st13"/><path fill="#4a3b3d" d="M87.8 77.6c.2-.1.2-.3.2-.4l.2.4v1.1l-.4.5-.1-.1c-.1-.5 0-1 .1-1.5z"/><path fill="#81817d" d="M72.1 79.3c.2-.2.1-.4.2-.6.4.6-.1 1.1 0 1.7l-.2-.2c-.3-.3-.3-.6 0-.9z"/><path d="M86.9 75.1c0 .4 0 .6-.4.7l-.2-.1c0-.5.4-.4.6-.6z" class="st13"/><path fill="#73716f" d="M65.6 76.4l.4.2c-.3.2-.6.4-1 .3 0-.4.3-.5.6-.5z"/><path fill="#444240" d="M63.6 78.1l-.2-.2c.1-.4.5-.3.7-.5 0 .4-.2.5-.5.7z"/><path fill="#555451" d="M70.3 76.9l.2-.2.5.4s.1.1 0 .1v.1c-.3.1-.5 0-.6-.3l-.1-.1z"/><path fill="#5b5957" d="M64.8 76.9c-.1.4-.3.5-.7.5.1-.3.3-.5.7-.5z"/><path d="M87 74.6l.2.2c0 .2-.1.3-.2.3-.2 0-.1-.2-.1-.2-.1-.2-.1-.3.1-.3z" class="st13"/><path fill="#5b474b" d="M87.3 79.9v-.3c0-.4.1-.6.5-.5.1.5-.3.6-.5.8z"/><path fill="#444140" d="M71 77.3v-.2c.3.1.5.4.7.7l-.2.1c-.3-.1-.5-.3-.5-.6z"/><path d="M73.1 82.3h.4c0 .2.1.5-.2.4-.2 0-.1-.2-.2-.4z" class="st11"/><path d="M88.2 78.7v-1.1c.2.3.2.7 0 1.1z" class="st37"/><path d="M87.9 75l-.2-.1.2-.1.1.1-.1.1zM87.9 75.9l.1-.1.3.1c.1.1 0 .2-.1.1-.1.1-.2 0-.3-.1zM88.9 76.5c0 .1 0 .3-.2.2l-.1-.2.2-.2c.2 0 0 .1.1.2zM98.9 87.1h.5c0 .2-.1.3-.3.4l-.2-.4z" class="st13"/><path d="M14.3 81.4c-.2-.6-1.1-.4-1.2-1.1h-.3c-.4 1-.4-.2-.6-.1-.3.1-.2.3-.2.5.3.5.3.8-.4.7-.3 0-.5.4-.8.1-.3-.4.2-.4.3-.7.2-.6-.3-.5-.7-.6.4-.3.6-.6 1.1-.4.4.1.7-.2.9-.5.2-.3.1-.6-.2-.9-.2-.2-.3-.4-.2-.7.2 0 .3.2.4.3.3.2.3.8.8.5.4-.3.8-.6.5-1.2V77l.1-.1c2.8-.1 5.7.2 8.6.3-.7-.2-1.3.3-1.9-.3.1-.3.4-.3.6-.3 1.2-.1 2.3 0 3.5.1l.3.2c-.1.3-.4.3-.6.4 1.6-.3 3.3-.4 5-.3.7.5 1.4.8 2 1.5l.2-.2c.2-.2.3-.6.7-.4.3.1.5.4.6.7.1.4-.1.8-.5.8-.8.2-.7.8-.9 1.4-.1.3.1.6.4.4.3-.2.6-.4.9-.1.3.3.4.8.2 1.2l-1 1.2c-.2.1-.4.2-.6.1-.3-.2-.2-.5.1-.7l.1-.1-.1.1c-.1 0-.4.1-.4 0-.2-.5-.4-.9-1.1-.9-.2 0-.2-.3-.2-.4l-.2-1.1c-.3.5-.4 1.3-1 1.6 1.5-.1 1.5-.1 1.6.7.1-.4.4-.6.7-.4.3.1.2.4.1.7-.1.3-.1.5.2.6.5.2.5.6.2 1-.3.5-.6.3-1 0l-.3-.2c0-.1-.1.1 0 0v.4l-.1.2c-.5.3.1.9-.3 1.1.3-.2.6-.6 1.1-.7.4-.2 1-.1.7-.9-.1-.3.2-.4.5-.3.3.1.4.3.6.5.4.3.8.7 1.1-.1.2-.4.7-.3 1-.5.5-.3.6-.3.1-.8-.3-.3 0-1.8.3-2 .2-.1.5-.1.7.1.2.2.5.4.3.7-.4.6.1.7.4.9-.4-.3-.5-.7-.1-1 .3-.3.7-.3 1 0 .2.1.3.3.5.2.3 0 .6-.1.7.2.1.4-.2.5-.6.6.6-.1.8-.4.5-1-.1-.2-.1-.5.2-.6.2-.1.4-.1.6.1.8.7.7 1.5-.1 2.1-.3.3-.6.8-1.2.5l-.2.2c-.1.5-.5.8-.8 1-.3.2-.5.5-.9.6-.3 0-.6-.1-.9.1h-.6c-.2-.1-.4-.3-.7-.2-.1 0 0 .1 0 0h.2l.2.1c-.1.3-.3.3-.5.3-.7.1-1.3.4-1.9.8l-.4.4-.7.7-.3.9c-.2.5.1.9 0 1.4l-.2.2c-1.3.3-2 .1-2.6-1.1-.1-.2-.1-.2.2-.8-.4.2-.8.4-1.3.4-.3 0-.5.2-.7.5-.5.9-1.5.8-2-.1.2-.4-.3-.5-.3-.8v-.2c.1-.3.3-.4.6-.5.6-.2 1.2-.3 1.7.1.1.1.4.2.4 0l.3-1.2c0-.2-.3-.2-.4-.2l-.6-.2-.2-.1-.3-.2c-.2-.2-.4-.6-.8-.5-.4.5-.8.5-1.1-.1-.1-.4-.5-.7-.4-1.1.2-.2.5-.4.9-.4-.4-.1-.6.2-.9.4-.5-.2-.2-.6-.2-.9 0-.2.1-.3-.3-.4-.7-.2-.3-.9-.4-1.4-.3.8-.5.8-1.7 0-.3.1.1.7-.4.7-1.2-.3-2.4-.6-3.6-.2l-1.4.4-.4-.1c-.2-.1-.3-.2-.2-.5.8-.5.6-.7.2-.8z" class="st38"/><path d="M24.2 89.4c.2.7.7.8 1.3.7l.4-.2c.4-1.7 1.9-.7 2.8-1.4 0 .6-.3.5-.5.6-.2.1-.3.4-.2.4.8.2.8 1.5 1.9 1.1h.6c.5.2.6.8 1.1 1.1a6 6 0 0 0 2.5 1.3c.8 0 1.5.1 2.3-.1.4-.1.9-.2 1.3-.5l.9-.5c.1-.1.3-.2.4-.1.7-.2.3.6.7.7-.3.3-.4.7-.4 1.1-.1.7-.5.9-1.1.5h-.5c.4.5.3.8-.3.8l-.5.1c-.5.1-.4-.4-.7-.6.3.5.1.9-.1 1.3-.3.5-.4.9.1 1.4.6.6.5 1.4-.2 1.9-.7.2-1.5.5-2.2.4l-.9.3H21.8c-.9.1-1.8-.1-2.8-.3.4-.6 1.2-.5 1.5-1 .1-.1.2.1.3.2.5.3.9.6 1.4.1.2-.2.4-.2.5.1.1.4.5.4.8.3.4-.1.4-.3.2-.7-.2-.3.2-.4.3-.6.1-.2.2-.4-.1-.4-1.1 0-.3-.6-.2-.8.5-.6.1-.9-.3-1.2-.3-.2-.6-.5-.6-.9s.5-.2.7-.3c-.4-.9-.6-.9-1.1-.3-.2.3-.3.2-.6.1-.7-.2-.3-.8-.6-1.2-.2-.3-.2-.3.5-.7.6-.4.6-.8 0-1.5l-.1-.2.4-.8.3-.7.2-.8.1-.2.2-.4c.1-.2.1-.6.4-.6.3.1.2.4.2.7l-.1.8-.2.7c.5.1 1-.2 1.1.3z" class="st39"/><path fill="#c9c9c5" d="M23 88.1l-.3.8-.3.8-.6.9c-.1.1-.2.1-.4 0-.2-.2-.3-.4-.1-.7 1.1-1.8.7-3.6-.3-5.3-.9-.8-1.9-1.6-3.2-1.6-1.3.1-2.5.6-3.3 1.5-.8.8-1.2 2.1-1.1 3.3l.1.2c1 .5.2 1.4.3 2.1l-.1.1c-.9-.5-.9-1.4-1.1-2.2l-.1-.7c.1-.7.2-1.5.5-2.1 0-.3.2-.6.4-.8a6.8 6.8 0 0 1 2-1.7l1.2-.4c2.3-.4 4.2.3 5.6 2.2.3.5.6 1.1.7 1.7.2.6.1 1.2.1 1.8v.1z"/><path d="M.7 74.6v-.4c.1-.1.3-.2.5-.1l4.5 1.2c.4.2.8.3 1.3.2l7.2 1.1 2.3.1c1 .1 2 .1 2.9.4v.3c-.8.2-1.7 0-2.5 0l-2.9-.1c-.1 0-.5-.1-.4.2.1.3.1.6-.2.6-.3 0-.6-.1-.6-.5 0-.3-.3-.5-.4-.4-.4.6-1 .2-1.4.6 0-.6.5-.4.7-.6-.5-.4-1 0-1.4.1-.2 0-.1.3 0 .4l.5.6c.1.2.3.5.1.7-.2.3-.4-.1-.6-.1l-.9-.2c-.1 0-.3.4-.4 0 0-.2.1-.4.3-.4 1.1-.1.1-1 .5-1.4 0 0-.2-.4-.5-.3-.6.3-1 0-1.5-.3s-1.1-.2-1.6-.2c-.4 0-1 .2-1.2-.4-.6-.5-1.4-.3-2.1-.4-.4-.3-1-.2-1.4-.5-.3 0-.6 0-.8-.2z" class="st38"/><path d="M5 75.8c.4.3.9 0 1.2.4 0 .5.5.3.8.4-.6.7.1 1.3 0 1.9.4 0 0-.5.4-.5.1.5.1 1-.6.9l-.6.2c-.4.1-1.1.6-1-.5l-.2-.3c-.5-.2-.3-.6-.2-1 .1-.4.4-.6.8-.4.2.2.4.4.5.1.1-.3-.3-.2-.4-.3-.4-.2-1.1-.2-.7-.9zM.6 94.2v-4.9c.4.3.8.6.4 1.2v.6c.3.5.3 1 0 1.4-.5.4 0 1.1-.4 1.7z" class="st9"/><path d="M20.5 91.7c-1.2.8-2.5 1-3.9.7 0-.4.3-.3.5-.4 1.1.1 2.1-.3 3.1-.6l.3.3z" class="st41"/><path d="M12.9 82l-.2.1c-.5.3-1.1.4-1.6.9h-.3v-.3l1.7-1c.1-.1.3-.1.4.3z" class="st38"/><path fill="#aaa9a5" d="M12.8 88c.4.7.3 1.6 1 2.1.4.4.9.6.9 1.2-.1.1-.1.1-.2 0a4.2 4.2 0 0 1-1.9-3.2l.2-.1z"/><path d="M.7 79.5c-.2-.8-.3-1.6 0-2.5l.2.9c0 .4.1.7.7.6-.5.2-.4.9-.9 1zM.6 88.7c.1-.9-.1-1.8.2-2.6 0 .2.1.4.3.5.2.2.5.4 0 .7-.2.1 0 .4 0 .6-.1.3-.1.6-.5.8zM.7 86a5.8 5.8 0 0 1 0-3.2C1 83.9 1 85 .7 86z" class="st9"/><path fill="#b4b3ad" d="M14.5 91.3h.2c.6-.3 1 .3 1.5.4.3.2.9-.1 1 .5-.2 0-.4 0-.5.2-.9-.2-1.6-.5-2.2-1.1z"/><path d="M14.3 81.5c.1.5 0 .9-.4 1.2l-.5-.3c-.3-.3 0-.5.2-.6.3.1-.1.4.1.5.5-.2.3-.7.6-.8z" class="st38"/><path d="M22.2 95.7c.5-.2.9 0 1.2.3.2.2-.2.6-.4.3s-.6-.3-.8-.6z" class="st39"/><path fill="#858480" d="M13.1 85.1c0 .7-.4 1.4-.4 2.2-.5-.1-.2-.5-.2-.7.1-.6 0-1.2.6-1.5z"/><path d="M1.4 74.9c.5 0 1.1 0 1.4.5-.4-.1-1.1.4-1.4-.5zM.7 82.5v-.9c.7 0 .5.4.4.8-.1.5-.2.2-.4.1zM.7 81.1c-.4-.4.1-.8 0-1.2.8.4.2.8 0 1.2z" class="st9"/><path fill="#777570" d="M21.4 90.5h.4c0-.1.1-.1.1 0v.2l-.9.7c-.2.1-.2 0-.3-.2.1-.4.3-.6.7-.7z"/><path fill="#474343" d="M14.7 83.2c-.4.3-.7.8-1.2 1 .1-.6.6-.9 1-1.2.2-.1.2 0 .2.2z"/><path fill="#90918c" d="M12.5 86.5c.1.2-.1.5.2.7v.7l-.2.2c0-.5-.3-1 0-1.6z"/><path fill="#666361" d="M14.7 83.2l-.2-.2.4-.5h.3l.2.2-.7.5z"/><path d="M.6 95.6v-1.2c.2.3.2.8 0 1.2z" class="st9"/><path d="M22.9 97.9c.3.2.4.4.5.6-.3 0-.5-.2-.5-.6z" class="st39"/><path fill="#91918a" d="M20.9 91.1l.2.2-.5.4-.2-.2c0-.2.1-.3.3-.4h.2z"/><path fill="#ebece9" d="M62.4 70.7l.2-.2c.9.1 1.8-.2 2.7-.4 1.9-.4 3.8-.3 5.7-.6 2.2-.3 4.4-.2 6.6-.4l5.3-.1c1.7 0 3.4.2 5.1.4l4.2.5c2.4.2 4.8.7 7.2 1.2h.4c0 .3.2.6-.5.4-.7-.2-1.5-.3-2.3-.3l-.5-.4c-2.2-.1-4.3-.5-6.5-.8-.7-.1-1.4-.2-2.2-.1-.4.3-.9.1-1.3 0-1.3-.1-2.6-.4-4-.2H78c-.3 0-.6 0-.8-.2H77c-.4.1-.7.3-1.1 0-3.5 0-7 .5-10.4 1-.9.2-1.9.1-2.8.6-.3-.1-.5-.2-.3-.4z"/><path d="M55.5 65.7c.2-.3.5-.2.7-.2h6.2c-.1.4-.4.4-.7.3-2.1-.3-4.2 0-6.2-.1zM62.7 65.6h4.2c-.7.4-1.4.1-2.1.2-.6 0-1.4.2-2.1-.2z" class="st51"/><path d="M11.2 94.3c-.1.4-.2.7.4.7.2 0 .3.2.3.3-.6.1-1.2.1-1.7.5-.3-1.6-.2-1.8 1-1.5zM10.6 93.6l1.5-.1c.8-.3.6.7 1.3 1-1.3.1-2.1-.3-2.8-.9zM4.5 91.2c.6-.2 1.1-.2 1.3-.8.2-.5.5 0 .7 0 .2 0 .4.1.3.4-.1.3-.3.3-.6.3-.4.1-.9.5-1.7.1zM10.4 97l-.9.1c.4-.7.4-.7.9-.1zM9 96.5c0 .2-.1.3-.3.3-.2 0-.3-.1-.3-.3 0-.1 0-.3.2-.3s.3.2.4.3zM8.5 98.1c-.1.1-.1.2-.3.2l-.1-.2.2-.2.2.2z" class="st2"/><path d="M93.7 74.2c.4-.2.6 0 .8.3-.5.1-.6-.1-.8-.3zM97.8 79.6c-.2 0-.3 0-.3-.2l.2-.2c.2 0 .3.1.3.2.1.2-.1.1-.2.2zM99.5 86.2v.5c-.3.1-.2-.1-.1-.3l.1-.2zM96.8 79.8l.2.1c0 .2-.1.2-.2.2l-.1-.1.1-.2z" class="st13"/><path d="M45.9 98.9c.3 1 1.3.7 1.8.6.8-.2 1.5 0 2.2-.1.7-.1 1.4.5 2-.1.1-.1.3-.1.4 0 .7.5 1.6-.2 2.3.3.1.1.8.4.7-.4 0-.1.3-.1.4 0 .3.5.8.3 1.2.3l4.1.1c.6 0 1.1-.4 1.6.2H44.2c-.2-.6.1-.7.6-.7.3.1.6.1.7-.2h.4z" class="st16"/><path d="M45.8 98.9c0 .5.1 1-.7.4-.4-.3-.7 0-.7.4H32.9c0-.6.6-.7.8-.6.8.3 1.4-.2 2.2-.3h3.5c.4.2.4.2.2.5 1.1-.7 2.3-.5 3.6-.4.6.1 1.3-.2 1.9-.5.5-.1.6 0 .7.5z" class="st11"/><path d="M31.8 83c-.1.2-.3.4 0 .6.2.1.5-.1.5-.2.2-.6 1.3-.8.8-1.8-.1-.2-.1-.3-.3-.3-.2 0-.3 0-.3.2 0 .3 0 .6-.3.3-.2-.2-.8-.1-.6-.7.1-.4.3-.7.2-1.2-.1-.4.3-.3.6-.3.8-.2 1-.7.5-1.2-.1-.2-.5-.7-.5.1 0 .4-.4.3-.6.3-.3.1-.1-.3-.2-.4l-.1-.2c-.8.2-.9-.7-1.4-.9 0-.5.4-.3.7-.4 2-.2 4-.7 6.1-.8.5 0 1-.4 1.6-.3 1.4 0 2.8-.5 4.2-.6.5 0 .9-.3 1.4 0h.2c.5-1.5 1.8 0 2.6-.7.7-.6 1.9-.4 2.9-.6l4.7-.9c.6-.1 1.1-.3 1.6.2 0-.8.6-.6 1.1-.7l.4-.2c.3.4-.1.7-.2 1.1v.8c0 .1 0 .4-.2.3-.8-.3-.6.3-.7.7-.1.5.3 1-.3 1.5-.1.1 0 .2.1.3.8.3.3 1.2.8 1.6l-.1.3c-.2.2-.3.1-.5 0-.2-.2-.5-.4-.5 0 0 .7-.6 1.2-.8 1.8-.2.5 0 .9.5 1.3-.6.2-.9-.4-1.3-.2-.5-.2-.6-.7-1-1l-.9-.6-1.4-.4c-.6-.3-1.1 0-1.7 0-.6.1-1.1.3-1.7.6l-.6.6-.1.2-.4.6c-.1.2-.1.4-.4.5-.1.5-.3 1.1.4 1.4.3.1.5.3.6.5l.2.3v.4c-.8.9-1.5 1.1-2.4.8l.7.8.2.5c.1-.7.3-1.3 1-1.6.6-.2 1-.2 1.1.5 0 .3.4.3.4.5 0 .1 0 .1.1 0 .2-.2.5-.4.8-.3.3.2.1.5.1.8v.2c-.3-.1-.6.2-.9.1-.5-.1-.5.4-.5.6-.1.5.3.2.5.2.5 0 .4.3.3.6-.1.4-.5.8-.1 1.2.1.1.1.4-.2.7-.2-.4-.3-.7-.8-.7-.6 0-.4-.4-.2-.7.2-.4.4-.6-.1-.9-.3-.2-.1-.5-.1-.7 0-.4.2-1-.6-.9l.3 1.3c0 .4.3.9-.5.6-.3-.1-.3.2-.2.4l.5 1c.8.4.6.9.4 1.5l-.8 2.3c-.1.2-.1.4-.3.4-.3 0-.4-.3-.6-.5-.1-.2 0-.3.2-.4.2-.1.5-.2.4-.5-.1-.2-.2-.6-.6-.6-.5 0-.6-.2-.4-.7.1-.2 0-.5-.1-.7-.2-.3-.4-.1-.6-.1-.3.1-.3.2-.1.5l.5 1c.1.3 0 .5-.2.7-.2.1-.4.3-.6.1-.3-.2-.1-.4 0-.6.1-.2-.1-.4-.2-.5-.3-.3-.5.1-.7.2-1 .5-1 .5-.9-.7 0-.4 0-.5-.4-.6-.3.3.4.6-.1.7-.3.1-.7.2-.9-.3-.3-.6-.7.2-1.1 0-.2-.4.2-.6.2-1 .2-.4.1-.9.2-1.4.5-.8.2-1.7 0-2.5 0-.3-.2-.6-.7-.5-.5.1-1-.3-1.5-.2-.2 0-.3-.1-.2-.4.1-.5 1-.7.6-1.5l.1-.1c.7.5 1-.3 1.5-.4.5-.2.6-.5.3-.9l-.3-.4c-.1-.3-.2-.6-.6-.4-.5.2 0 .4 0 .6 0 .3.1.5-.2.7-.3.2-.7.5-1.1.5a.2.2 0 0 1-.2-.2c-.1-.2.1-.2.3-.3h.5c.2 0 .4-.2.3-.4-.1-.2-.3-.1-.4 0-.3.2-.6.3-.7-.1-.1-.4-.4-.3-.6-.3-.2 0-.3.2-.4.4 0 .3.2.4.5.4.1 0 .3 0 .3.3l-.2.2c-.3-.2-.7.3-.8-.1-.1-.3-.9-.5-.2-1.1.2-.2-.1-.5-.3-.6-.2-.1-.5-.1-.5.2l-.3 1.2.2.4c.3.1.1-.4.4-.3 0 1.3 0 1.3-1.2 1.5-.7.1-.4.8-.7 1.1-.4-.4-1.2-.2-1.4-.9 0-.1-.3-.5-.6-.2-.2.2 0 .4.2.6l.2.4c-1.2-.1-2 .7-2.7 1.4-.2-.2-.2-.3-.1-.4.2-.3.8-.5.2-1-.1-.1.2-.5.6-.5.1.1 0 0 0 0s.1.1 0 0c.1-.3-.4-.6-.1-.8.3-.2.6 0 .7.3.3.4.4.2.6-.1.1-.2.3-.6-.1-.6-.7-.1-1-.4-.3-1 .1-.1.1-.3 0-.4-.1-.2-.3-.1-.5 0l-.3.4c-.2-.5-.3-1.1-1-.6-.1.1-.4.1-.3-.1 0-.1-.3-.7.3-.3.3-.5.7-1 .7-1.6 0-.1-.1-.2.1-.3.4.1.3.5.5.8.2.4-.2 1.4.9 1.2.2 0 .2.3.2.5-.5.7-.3.7 0 .7zM45.8 98.9c-.1-.4-.4-.4-.6-.2-.4.3-.9.2-1.3.4-.6.4-1.1 0-1.7 0-1-.2-1.9.3-2.9.4 0-.3.3-.1.4-.3v-.1h-.2c-.5-.4-.6-.8 0-1.3.3-.2.4-.6.4-.9 0-.3.1-.5-.1-.7-.3-.2-.5-.1-.7.1-.2.2-.5.2-.6 0-.2-.7-.9-.8-1.4-1.1l-.1-.1c.1-.5.7.1.9-.4-.1-.3-.4 0-.6-.2.3-.5.6-.8 1.2-.3.4.3.5.1.6-.3.2-.4-.3-1.2.7-1.2.2 0 .5-.2.6.1.1.3-.2.3-.3.4-.4.4-.5.9.1 1.2 0 .3.2.5.6.7 0-.4 0-.8.4-1 .3-.2.6-.5.8 0 .1.3.4.4.7.3.5-.1.8.1 1.1.5.4.5.4.4-.1.8-.5.3-.8.7-1.5 0 .2.7.3 1.1.8 1.3.3.1.6.2.7-.3 0-.2.2-.3.4-.3.3.1.2.2.1.4-.1.4-.2 1 .2 1.1.5.2 1 .4 1.6.2.2-.1.3-.4.5-.1.2.3.1.4-.2.5-.3.1 0 .4-.2.5l-.3-.1z" class="st52"/><path d="M54.8 93.7l-.2-.2-.7-1.3v-.7c.2-.5.4-1 1-1.3.7-.1 1.3-.4 1.9-.6.8-.3 1.6-.4 2.4 0l.2.2c.2.9.9 1.6 1.1 2.5.1.5.1.9.4 1.3-.1.5-.6.5-.9.8-.2.1-.5.1-.6.3h-.6c-.2 0-.4 0-.4-.2-.1-.3.3-.3.5-.4-.7-.3-1.4-.4-2 0h.5c.3.1.7 0 .7.3s-.4.2-.7.2h-.5l-.7-.2c-.6-.2-1.1-.4-1.4-.7z" class="st53"/><path fill="#ecece8" d="M55.7 88.2c.8-.1 1.7.2 2.3-.6.2-.2.9.2 1.1.3.4.3.8.6 1.3.7.2 0 .4.3.7.2.1 0 .3.2.2-.2-.2-.9 0-1.1 1-.9.2.3.5.2.8.2.3 0 .4.2.4.4 0 .3-.1.4-.4.4-1-.1-.8.4-.3.9-.2.3-.6-.1-.6.3s.2.8.6 1c.2.1.7.1.5.5-.1.3-.5-.1-.7.1-.2.2-.7-.6-.7.2h-.2l-.3-.5c-.1-.3-.3-.4-.5-.6l-.2-.3c-.5-.7-1.3-.8-2-1h-1.8l-1.1.3-.6.3c-.2.1-.3.3-.5.2-.4-.3-.7.6-1 .1-.3-.4.4-.6.5-1 .2-.7.5-.6.8.1.2-.7.3-1 .7-1.1z"/><path fill="#c6c6bf" d="M75.4 90.5l-.3-.2c-.2-.2-.5-.3-.6-.6l.1-.9c0-.5 0-1.1.7-1.3.6-.2 1 .3 1.3.6.3.3.5.7.6 1.1.1.3.1.2.2 0l.3-.1h.3c.3-.1.7-.4.9.1.2.4-.2 1.2-.6 1.3-.5.2-1 .1-1.6.3-.5 0-.9-.4-1.3-.3z"/><path d="M48.7 93.2c0-.4.3-.9-.3-1-.4 0-.6.4-.9.6-.1.1.1.2.2.3.5.6.4.9-.3 1.1-.2 0-.4 0-.3.3 0 .2 0 .5-.3.3-.2-.1-.5-.3-.2-.5.4-.4.4-.8.3-1.3 0-.3.1-.7.5-.8l.4-.2c.1-.6.5-.7.9-.5.6.3.5 1.1 0 1.7z" class="st52"/><path d="M74.7 88.9c-.2.2.1.5-.2.7-.5 0-.6-.5-.8-.8-.3-.7-.3-1.3.1-1.9a3 3 0 0 1 1.3-1.2c.3-.2.5-.3.9-.2.3 0 .6.1.9-.1h.1c.2-.2.5.1.8 0h.3c.3.4.3.7-.3.6l-1.5.1c-1.3-.1-2.3 1.5-1.6 2.8z" class="st56"/><path d="M44.9 94c.5.3.4.8.4 1.2 0 .6.5.6.8 1-.9.4-1.2-.1-1.2-2.2z" class="st52"/><path fill="#a2a29e" d="M70.7 82l.2.2c-.6.5-1.3.8-2.2.8-.4-.2-.9 0-1.4-.1-.2 0-.4.1-.4-.3.9-.4 1.9-.2 2.9-.3.3 0 .5-.1.7-.3.1-.1.1-.1.2 0z"/><path fill="#95938d" d="M67 82.7c.5.4 1.2-.1 1.8.3h-2.3c-.5-.3-1.1-.2-1.5-.7l.2-.2c.6 0 1.2.3 1.8.6z"/><path fill="#aaa9a4" d="M79.2 90.6c-.9.4-1.9.5-2.9.2.2-.2.5-.1.6-.3l2-.2.3.3z"/><path fill="#9f9f9a" d="M79.2 90.6l-.2-.2 2.1-1.8.2.2c-.4 1-1.2 1.5-2.1 1.8z"/><path fill="#565351" d="M54.8 89.9c.2 0 .1-.3.4-.3l.3.3c0 .3-.2.4-.5.4-.5.3-.6.8-.9 1.3a.2.2 0 0 1-.2-.2v-.2c.1-.6.6-.9.9-1.3z"/><path d="M45.1 96.5c0 .4.5.8.1 1.1-.3.2-.6-.1-.8-.4.4-.1.6-.3.7-.7z" class="st52"/><path fill="#797975" d="M73.8 86.8c-.2.7-.3 1.3 0 2 .1.2 0 .2-.2.2-.4-1-.4-1.6.2-2.2z"/><path fill="#979691" d="M59.9 94.3c.3-.3.7-.3.9-.7.1-.3.3-.6.6-.8.2 0 .2.1.3.2-.3.7-.9 1.1-1.6 1.4l-.2-.1z"/><path fill="#82817d" d="M73.7 89l.2-.2c.2.3.3.6.7.7.1.3.5.3.5.7-.7-.1-1.1-.6-1.4-1.2z"/><path d="M66.6 83.3c.7-.1 1.1-.2 1.1.6-.5.1-.6-.4-1.1-.6z" class="st12"/><path d="M58.9 94.5l.5.2c-.2.3-.5.2-.8.2h-1.7c0-.3.2-.2.4-.3l1.6-.1z" class="st65"/><path fill="#5b5958" d="M75.1 85.7l-1.2 1.1c0-.8.7-1 1.2-1.4v.3z"/><path fill="#726f6c" d="M54.8 93.7c.5.1.8.5 1.2.7l-.2.2c-.4-.3-.9-.3-1-.9z"/><path fill="#827f7c" d="M61.6 93.1l-.1-.2c-.2-.3 0-.6 0-.9.1-.2.1-.4.4-.6l.1.1a3 3 0 0 1-.4 1.6z"/><path d="M41.3 92.6c-.1.2-.2.4-.4.4s-.2-.1-.2-.3c0-.2.1-.3.3-.3.1 0 .2 0 .3.2z" class="st52"/><path fill="#95948e" d="M76.8 90.6c-.1.2-.4.1-.6.2-.3 0-.7-.1-.9-.4.5-.3.9.2 1.3.1l.2.1z"/><path fill="#5f5b58" d="M54.1 92.2l.5 1.2c-.6 0-.5-.6-.7-.9v-.1l.2-.2z"/><path fill="#91908c" d="M39.8 90.6l-.4.9h-.1c-.1 0-.2-.1-.2-.3.1-.3.2-.7.5-.8l.2.2z"/><path d="M82 90c-.3-.3-.5-.6-.2-.9l.2-.1v1z" class="st1"/><path fill="#686563" d="M75.1 85.7v-.2c.2-.2.4-.3.7-.3l.1.1c.1 0 .2.1 0 .2l-.8.2z"/><path d="M53.9 91.2l.1.2v1.2c-.4-.5-.4-1-.1-1.4z" class="st73"/><path d="M55.8 94.5l.2-.2.7.2c0 .2-.1.3-.3.2a2 2 0 0 1-.6-.2z" class="st65"/><path fill="#95938e" d="M39.1 91.3l.1.1-.2.4-.3.2-.1-.2.2-.4c.1-.1.2-.2.3-.1z"/><path fill="#8c8985" d="M59.9 94.3l.2.2-.7.2c0-.3.2-.4.5-.4z"/><path d="M57.2 94.9h1.4c-.5.2-1 .2-1.4 0z" class="st76"/><path d="M40.1 94.3c0-.2-.1-.4.1-.6l.2.1c.1.3-.1.4-.3.5z" class="st52"/><path d="M56.5 94.7l.3-.2h.5l.1.1c-.2 0-.3 0-.4.2l-.5-.1z" class="st76"/><path d="M58.5 72.4c.4-.3.9-.3 1.3-.3a2 2 0 0 0 1.3-.4c.2-.1.6-.3.8.2.1.2.4.4.7.2.9-.8.7 0 .9.5l.2.3c-.3.3-.6.4-.9.3-.8-.1-.8.2-.8.7 0 .2.1.6-.3.6-.1 0-.5 0-.2-.2.5-.5-.1-.8-.3-1-.2-.3-.4.2-.6.3h-.3c-.8-.1-.7.3-.6 1-.4-.3-.6-.8-1.2-.5.3-.5.6-.9.5-1.4-.1-.2-.4-.1-.5-.3z" class="st1"/><path d="M48.2 86.7c-.1-.4-.8-.4-.5-1-.2-.1-.4-.2-.6-.1-.4.2-.8.3-1 .8v.5c0 .2 0 .6-.4.6-.3 0-.2-.3-.2-.5-.1-.4-.5-.7-.9-.9-.2-.1-.3-.2-.2-.4.1-.1.3-.2.4-.1 1 .8 1.6-.3 2.4-.6.8 0 1.4.5 2.2.5h1c.4 0 .7-.1 1 .2-.6.7.3.8.4 1.3-.4.3-.9.5-1.3.2-.3-.2-.2-.7 0-1.1-.3 0-.7-.4-.6.4.1.4-.2.7-.6.6-.5-.1-.1-.5-.2-.7-.3 0-.5.5-.9.3z" class="st11"/><path d="M53.7 83.8c0 .4-.2.5-.5.7-1.1 1-2.5 1.2-3.9 1.1-.2 0-.4 0-.5-.3.2-.5.7-.4 1-.6l.9-.2c.8.1 1.1-.6 1.5-1 .5-.5.9-.5 1.5.1.1 0 .1.1 0 .2z" class="st77"/><path d="M58.6 76.6c-.1.3-.2.6-.5.5a2 2 0 0 0-1.1 0c-.1 0-.3-.1-.3-.3.2-.5.9-.3 1.2-.7.2-.1.6.3.7.5z" class="st52"/><path fill="#807d79" d="M49.3 85.3c1.4.2 2.7-.2 4-.9-.3.8-1.2.9-1.8 1.2h-1.1c-.3-.2-.7 0-1-.1-.1 0-.2-.1-.1-.2z"/><path fill="#625e5d" d="M53.7 83.8v-.2c-.1-.1-.1-.1 0-.2 0-.4.1-.9-.1-1.3-.2-.3-.5-.6-.5-1 0-.2 0-.4.3-.3.4.3.6.7.9 1.1 0 .7.1 1.4-.6 1.9z"/><path d="M57.1 73.7c-.3-.4.3-.7.2-1.1l.7-.2c.1.2.6-.1.5.4v.2c-.3 0-.4.4-.7.5l-.7.2zM63.2 74.3c0 .4-.5.5-.8.7-.1.1-.2-.1-.2-.2.1-.5.4-.7.8-.9.2 0 .2.2.2.4z" class="st1"/><path d="M57.5 79.8c-.4.5-1 .5-1.6.5.7-.7.9-.8 1.6-.5zM57.9 77.4c.2 0 .6-.1.5.3-.1.3-.4 0-.7.1-.1.1-.4.2-.4-.1.1-.4.4-.3.6-.3z" class="st52"/><path d="M60.5 75.2a.2.2 0 0 1-.2-.2c0-.3.2-.3.4-.4l.2.2c-.1.2-.1.4-.4.4z" class="st1"/><path fill="#636060" d="M63.1 79.9h.2l.4 1c.1.1.1.2 0 .2-.4-.3-.6-.7-.6-1.2z"/><path d="M57.8 73.5c.1-.3.3-.6.7-.5l-.2.5c-.1.4-.3.3-.5 0z" class="st52"/><path fill="#d5d5cd" d="M63.9 81.1c.4-.2.4.3.7.3.2.1.3.3 0 .4-.2 0-.3-.1-.4-.3l-.2-.2-.1-.2z"/><path d="M58.5 72.8l-.5-.4h.5c.2 0 .4 0 .5.2l-.5.2z" class="st52"/><path fill="#716f6a" d="M64.3 81.6l.3.2c.2.1.6.1.3.5-.3-.1-.7-.2-.6-.7z"/><path fill="#63615d" d="M63.9 81.1l.2.3c-.3.2-.4-.1-.5-.3v-.2l.3.2z"/><path fill="#e4e5e1" d="M19.5 77.2V77c.3-.4.9 0 1.2-.5l.5-.1h1.9c2.4 0 4.7-.3 7.1-.4.4 0 .7-.2 1-.4.4-.2.9-.4 1.4-.2.7.3 1.3.2 2 0l6.7-1.1 1.4-.2c.4.1 1-.2 1.2.4l-3.7.7c-1.1.2-2.3.5-3.4.9l-7.2 1-3.8.2-.4-.1c-1.5-.2-2.9-.4-4.4 0-.6.3-1.1.3-1.5 0z"/><path d="M43.8 74.6c-.4-.3-.8-.1-1.2-.2 0-.4.4-.4.6-.4l2.5-.3 4.7-.8 10.8-2.1.6-.2c.1.3.6.1.5.5-3.8.5-7.6 1.4-11.4 2.1a81 81 0 0 1-7.1 1.4z" class="st3"/><path d="M25.3 77.2h.4l3.9-.4 6.1-.8 1.1-.1c.5 0 .9-.4 1.4-.2v.2c-.9.6-1.9.6-2.8.6l-4.2.6c-.4 0-.9-.1-1.2.2-1.8-.1-3.6.2-5.5.1l.8-.2z" class="st85"/><path d="M77 69.6c1.8 0 3.5-.3 5.3 0 1.4-.2 2.7.2 4.1.2.4.3.8.1 1.2.2v.4h-.5c-.7-.2-1.4-.1-2.1-.2h-.1l-.7.1h-.1c-.2.1-.4.1-.6-.1-.2-.3-.4-.2-.7 0h-.7c-.9-.4-1.9 0-2.9-.1l-.5.2c-.2.1 0 .7-.3.5-.4-.4-1.2-.4-1.4-1.2z" class="st86"/><path d="M76.3 73.1c.3.3.7.3 1.2.2 0 .5-1 .8-.2 1.4.5.4.5-.4.9-.3-.1.4.7.8.2 1.2-.4.4-.9-.1-1.3-.3-.5-.2-1-.3-1.2-.9-.3-.6-.2-.9.2-1.3h.2z" class="st1"/><path d="M38.2 75.8c-.5 0-.9.3-1.4.2 1.1-.4 2.2-.6 3.4-.7-.6.4-1.4.2-2 .5z" class="st52"/><path d="M75.8 69.6h1.1c-.2.3-.5.6-.9.5-.4-.1-.3-.3-.2-.5z" class="st86"/><path d="M70 71c0 .2-.1.2-.3.2-.1 0-.3 0-.3-.2l.2-.2c.3 0 .4.1.4.2z" class="st1"/><path d="M75.2 70.3c-.2 0-.2-.1-.2-.2l.2-.2.2.2-.2.2z" class="st86"/><path fill="#dbdcd7" d="M62.4 71.2c-.1-.2-.6-.1-.5-.5h.5l.2.5h-.2z"/><path fill="#c7c7c1" d="M64.9 82.3c.1-.3-.2-.3-.3-.5.2-.1 0-.2 0-.4l.1-.3c-.7-.6 0-1.1.2-1.6s.6-.4.7.2c.2-.7 1-1 1.1-1.8 0-.1.2-.2.3-.1.1.1.1.2 0 .4l-.8 2c-.2.4-.1.4.2.2v.3c0 .4.3.4.6.5.9.2 2 0 2.7 1-.9.6-1.9.3-2.8.4-.7.2-1.2-.5-2-.3z"/><path fill="#cfcecb" d="M71 77.3l.5.5c.2.5.6.9.6 1.5l-.1.9c-.3.1-.2.6-.5.7-.1.1-.1.1-.2 0l.1-1.5c.1-.6 0-1.2-.6-1.5-.3-.2-.6-.5-.5-.9l.7.3z"/><path fill="#b9b8b4" d="M67 79.9c0-.4.3-.6.5-.9.3-.2.4 0 .6.2.4.5.7 1.1.9 1.8-.5.1-.9-.2-1.4-.2-.5-.3-.7-.5-.6-.9z"/><path fill="#a3a29c" d="M68.9 80.9c-.5-.5-.4-1.2-1-1.7-.1-.1-.2-.3-.4-.3.2-.4.4-.7.7-.1l.8 1.5c.1.3.1.5-.1.6z"/><path fill="#abaaa6" d="M67 79.9l.5.9c-.3.2-.7.2-1.1.2v-.3l.6-.8z"/><path fill="#d3d2cd" d="M71.4 80.9h.2c-.1.5-.5.8-.9 1.1h-.2l.9-1.1z"/><path d="M78.9 73.5c-.1.2-.2.3-.4.3s-.3-.1-.2-.3c.1-.2.1-.4.4-.3 0 0 .2.1.2.3z" class="st14"/><path d="M85 70.1c-.1.3.5.4.2.6-.4.3-.8 0-1-.5.1-.2.4-.2.8-.1zM86.3 71.3c-.5 0-.4-.3-.5-.5-.1-.2 0-.3.2-.3.3.1.6.3.7.5 0 .3-.4.2-.4.3zM93.2 71.1h.5c.1.3-.1.2-.3.1l-.2-.1z" class="st13"/><path d="M86.7 76.5l.4.3-.1.1c-.7.1-1.3 0-2 .2l-.1-.1c.4-.9 1.2-.4 1.8-.5zM84.8 78.4c-.3-.2-.1-.5-.2-.7-.1-.4-.1-.6.3-.7.2.2.1.4.1.6 0 .3 0 .6-.2.8z" class="st94"/><path fill="#9f2a2b" d="M84.8 78.4v-.9c.5-.3.9-.3 1.4 0l.1.3c-.1.3-.4.5-.3.9l-.2.2h-.5l-.5-.5z"/><path d="M87.1 76.8c.4.1.5.3.5.7.3 1.1.1 1.7-1.1 2.1h-.3c-.1-.3 0-.5.2-.6l.6-.7c.4-.4-.3-1 .1-1.5z" class="st94"/><path d="M86.6 79.7c.7-.6 1.3-1.2 1.1-2.1h.2c.4.5 0 1 0 1.6l-.5.5c-.4-.1-.6.3-.8 0z" class="st37"/><path fill="#89381b" d="M86.6 79.1l-.3.5c-.3.2-.5.1-.7-.2 0-.2 0-.4.2-.5l.2-.2.4-.1.2.5z"/><path fill="#995b36" d="M85.7 79c0 .2 0 .4-.2.5-.3-.1-.3-.3-.2-.5.1 0 .3-.2.4 0z"/><path d="M76.8 90.6h-.2c.4-.4 1-.1 1.5-.3.2-.1.7-.9.5-1.1-.1-.2-.3-.1-.4 0-.2.1-.3.6-.5 0-.2-.2-.1-.4 0-.6.3-.3.4-.6.6-1l.2-.5c-.9-.2-1.4-.2-1.8.1l.5 1 .3.7-.1.2.1.5c-.5 0-.5-.3-.6-.6-.2-.5-.5-.9-.9-1.2-.4-.3-.6-.1-.9 0-.5.2-.2.4-.2.7l-.1.4c-.4 0-.6-.3-.5-.7.1-1.2.7-2.5 2.3-2.4H78c.6.1.1-.3.2-.4.4-.1.7.1 1.1.3.4.1.8.5 1.2.5.1.5.6.8.7 1.2v1.2c-.5.9-1.2 1.5-2.1 1.8-.8.3-1.6.2-2.3.2z" class="st98"/><path d="M77.7 85.3c-.2.4-.5 0-.8 0 .3-.1.6-.2.8 0zM75.9 85.5v-.2h1c-.3.3-.7.2-1 .2z" class="st98"/><path d="M47.2 65.1H17c-1.3-.2-2.6 0-3.8-.1-.9 0-1-.1-1-1v-2.3l.1-1.7V47.7l.1-1.4c.2-.5.2-.9.2-1.4V32.7l.1-2.1c.2-.7-.1-1.4.2-2v-1l.1-1V12.2c0-.3-.1-.6.1-.9.2-.4-.1-1 .3-1.3l1.5-.1 16.8.1c1.9.2 3.8 0 5.8.1 3.7.2 7.4-.1 11.1.1 1.3.2 2.5 0 3.8.1.4.1.5.5.7.8l1.4 3 .4.9c.4.9.7 1.8 1.2 2.6l.3.6c.2.7.6 1.3.9 2 .4 1 1 2 1.2 3 0 .8.1 1.6.5 2.4.3.5.3 1 .7 1.5.3.5-.3.5-.7.4-1.3-.5-2.7-.5-4.1-.5-.3 0-.5.2-.7.4a1 1 0 0 1-1.1 0c-.5-.7-1.3-.7-2.1-.6-.6 0-1.3-.1-1.2.8 0 .2-.2.4-.4.4-.7 0-.7.5-.7 1l-.1 1.7c0 .2-.1.5.1.7.8 1.3.5 2.5 0 3.7-.1.4-.1.7.1 1 .5.7.4 1.4-.2 2-.2.2-.1.4 0 .6v.6c-.5.5-.5.5-1-.3l.2 3.3v1.1c-.2.6 0 1.2.1 1.9l-.1.9c-.1.4-.3.7 0 1.1.3.1.7.2.7.6 0 1 .4.8 1 .5.6.2 1.2 0 1.7 0h6.7c1.1 0 1.6-.4 1.9-1.5v-.7l.1-.9c.2-.5.1-.9.1-1.4l.1-.9c.2-.5.1-1 .1-1.5l.1-.7.2-.3c.2-.3.2-.7.1-1.1l-.1-.2c-.1-.3-.4-.3-.5-.6-.1-.6.4-1.1.5-1.7.1-1.7.3-3.3.3-5 0-.6 0-1.2.2-1.7.2-.3.4-.5.7-.3l.5.6.8 1.6 1.2 2.6.6 1.4.9 2.1.4.7.1.2.8 1.8c.1.2.2.5.1.7l-.2.3c-.4.2-.7.5-.8 1l-.1.3v3.6c0 .5.3.9.4 1.4.2.8.9.8 1.5.8s1.2-.4 1.6-.9c.1-.2.2-.4.5-.4l.2.2c.1.4.3.8.6 1.1.2 1 .3 1 1.2.5.1-.1.2-.2.3-.1 1.2.1 2.3-.6 3.5-.8H77c.4.2 1-.2 1-.6.2-.2.5-.2.6 0 .7.9 1.4.2 2.2 0H81.1l.5.2.1.1c.1-.1 0-.2 0-.2l.3-.4.1-.2c.3-1.5 1.3-2.3 2.8-2.5.4-.1.8-.1 1.1-.4.3-.2.7-.2 1-.2.6 0 .8.3 1 .8v19.1c0 .7-.2 1-1 1H75.5l-5.9-.1h-11l-8.4-.1h-3z" class="st0"/><path fill="#eeece6" d="M48.6 10.5l-11.3-.1c-1.9-.1-3.8.1-5.6-.1H18l-3.3-.1h-1.3l-.2-.2h1.4c1.9-.1 3.9.3 5.8.2h.9l4-.1 5.5.1h7.9l4.1.2 2-.2 6.6.2h12.1c.3 0 .5-.1.7.2l-.1.1c-.9.3-1.8.1-2.7.1h-5.8l-7-.3z"/><path d="M12.9 11.5l-.1 13.6c0 .9.1 1.8-.1 2.7V12.2c0-.2 0-.5.2-.7zM12.8 28.8v1.9c-.1.1-.1.1-.2 0 .1-.6-.2-1.3.2-1.9zM12.3 25.6c.1.3.2.5 0 .7l-.3-.1c-.2-.2.3-.3.3-.6z" class="st100"/><path d="M13.3 10.1h1.3-1.3c0 .1 0 0 0 0zM21.2 10.1h-.9v-.2c.3.1.7-.1.9.2z" class="st101"/><path d="M24.2 89.4c-.2-.1-.4-.3-.6-.1-.1.1-.1.5-.4.2-.2-.1-.2-.3-.1-.5.3-.6.3-1.2.4-1.9l-.3.5c-.4-.4-.1-.9-.2-1.3l-.1-.4c-.1-.6-.4-1.1-.7-1.6-.4-.9-1.4-1.2-1.9-2 .4-.2-.7-.5 0-.8.5-.2.6.2.8.4.4.4.8.6 1-.2 0-.2.2-.4.5-.4-.1.4-.4.7-.2 1.1.1.2-.3 1 .5.4.2-.1.3.3.3.5 0 .3-.5.7-.1 1 0 .4.4.6.5 1 .1.5.3.8.6.1h.3l.9.7.2.2c0 .4 0 .7-.5.4-.1-.1-.2-.2-.3 0 0 .4-.4.5-.4.8v.6c-.3 0-.3.2-.5.3l-.1-.3c-.1.1 0 .2.1.3l.5.4.2.2c-.1.3-.2.4-.4.4z" class="st102"/><path fill="#e9e9e7" d="M37.3 85.5c.5.4 1.2.1 1.8.4.5.3 1 .3 1 .8.1.5 0 1 .3 1.5.2.3-.4.5-.4.8-.4.1-.3-.3-.5-.5-.2-.4-.4-.8-.7-1-.7-.6-1.5-1-2.4-1.1-.2-.1-.4-.1-.4-.4.1-.1.3-.1.4 0 .3-.1.4-.6.9-.5z"/><path d="M24.4 88.3l-.2-.7c.4-.2.9 0 1.3-.1-.5 0-.7-.4-1-.7 0-.4.1-.8.5-.2.4.6.4.1.6-.1h.2c.2 0 .2.5.5.2h.7c.3 0 .5.3.2.5-.4.3-.4.8-.4 1.2-.1.6-.5.5-.7.3-.5-.8-1.1-.6-1.7-.4z" class="st39"/><path d="M19.5 77.2h1.4c.5.2 1 0 1.5 0l.9.3a40 40 0 0 1-4.9 0l-3.3-.1c-.4 0-.8 0-1.1-.2.7-.4 1.5-.2 2.2-.1l3.3.1z" class="st85"/><path d="M20.3 82.3a6 6 0 0 1 2 1.9l-.2.2c-1.4-1.8-3.1-2.7-5.4-2.2-.1-.1-.3-.1-.2-.3a7 7 0 0 1 3.8.4z" class="st104"/><path d="M30 79.7c.5-.4.9-.1 1.3-.3-.3.7-.4 1.4-.4 2.2-.7-.5.4-1.7-.9-1.9zM30.1 78.9c0 .2-.1.3-.2.2-.4-.2-.8-.4-1-.8-.1-.2.3-.4.6-.4.4.2.6.5.6 1z" class="st52"/><path fill="#777472" d="M32 87.1a3 3 0 0 1 2-.8c.1.1.3 0 .4.2-.1.3-.5.3-.7.4l-1.4.5-.3-.3z"/><path d="M34.3 86.4l-.4-.2.6-.2H36l.4.2c0 .3-.2.3-.4.4-.6 0-1.2.2-1.7-.2z" class="st104"/><path fill="#8f8d89" d="M31.5 91.9c-.4-.3-.6-.8-.9-1.2v-.2c.1-.1.1-.2.3-.2.4.4.7.9.9 1.5l-.3.1z"/><path d="M23.1 84.5c.2-.9.8-.6 1.3-.5-.3.3-.8.4-1.3.5z" class="st102"/><path d="M28.9 89.4c.4-.2.8-.3 1.3-.1-.5.4-.9.2-1.3.1z" class="st39"/><path fill="#4b4a48" d="M16.5 82l.2.3-1.2.4-.2-.2c.2-.4.8-.2 1.2-.5z"/><path fill="#6c6966" d="M30.6 89c0-.3.1-.7.4-.8l.2.1c.1.3-.1.6-.1.9-.1.2-.1.4-.4.5-.3-.3-.2-.5-.1-.7z"/><path fill="#706d6a" d="M30.6 89c0 .2 0 .4.2.6.2.2.2.5 0 .7l-.2.2c-.2-.5-.3-1 0-1.5z"/><path d="M26.3 86.6c0 .2.3.3.1.6-.4-.1-.4-.5-.6-.8.2 0 .4 0 .5.2z" class="st102"/><path d="M25.5 86.2c-.3-.2-.8-.2-.9-.7.5 0 .7.3.9.7z" class="st39"/><path d="M31.9 82.4c.2 0 .2.1.2.3 0 .2-.2.3-.3.4l-.1-.4c-.1-.2 0-.3.2-.3z" class="st52"/><path fill="#545350" d="M31.1 88.2h-.2c0-.4.4-.6.6-.8l.1.2c.1.3-.1.6-.5.6z"/><path d="M30.1 83.2l-.2.2c-.2 0-.2-.1-.2-.2l.2-.2c.3 0 .1.2.2.2zM36 86.1h-.5c.3-.2.6-.3.9 0-.1-.1-.3 0-.4 0zM34.8 86h-.3l-.6-.1c.5-.1.7-.1.9.1zM31.2 86.3h-.3l-.1-.2.1-.1.3.3z" class="st52"/><path fill="#605f5c" d="M31.6 87.6v-.2l.4-.3.2.2c-.1.2-.2.4-.6.3z"/><path d="M36.2 84.7l-.2.2c-.1 0-.2-.1-.1-.2l.2-.2.1.2zM35.9 98.9c.6-.4.8-1.3.2-1.6-1.1-.6-.3-1.1-.1-1.7.1-.3.5-.5 0-.9v-.5c.1-.2.3-.1.5-.1.3 0 .2.3.2.5-.1.3.1.4.3.4.2.2.1.4 0 .6-.3.4-.2.8.2 1 .2.1.2.3.2.5-.1 1.1-.1 1.1 1 1.4.2 0 .4.1.4.4-1 .1-2 .2-2.9 0z" class="st52"/><path fill="#a09f99" d="M31.5 91.9l.2-.2c.1-.1.1-.1.2 0 .6.4 1.1.8 1.8 1 .2.1.5.1.7.3.1.4-.2.3-.3.4-1-.5-2-.8-2.6-1.5z"/><path fill="#a7a6a2" d="M33.9 93.2l.3-.3c.6-.4 1.3-.1 1.9-.2l.4.3c-.8.5-1.7.3-2.6.2z"/><path fill="#9c9a94" d="M36.6 93.1c-.1 0-.3 0-.4-.2.4-.5.9-.5 1.4-.5l.2.2c-.3.3-.7.5-1.2.5z"/><path fill="#94938d" d="M37.9 92.6h-.3v-.2c.3-.2.5-.7 1.1-.5v.2l-.8.5z"/><path fill="#5e5b59" d="M23 86.2c.2.5.1 1 .2 1.5l-.2.5v-.3c-.1-.7-.2-1.2 0-1.7z"/><path fill="#72706c" d="M21.9 90.4h-.1c0-.4.3-.6.5-.9l.2.2c-.2.3-.3.6-.6.7z"/><path fill="#5e5d59" d="M22.4 89.7l-.2-.2.3-.7.2.2c0 .3-.2.5-.3.7z"/><path fill="#41403c" d="M22.8 89l-.2-.2c0-.3.1-.6.4-.8l-.2 1z"/><path fill="#c5c6c1" d="M16.1 91.9l-1.4-.5c-.2-.5-.8-.6-.9-1.2l-.1-.6c-.2-.4-.4-.8.4-1.1-.8 0-.9-.2-.9-.8-.1-1.3.5-2.2.9-3.2.3-.6 1.1-1 1.8-1.2l1.5-.5c.2-.1.2 0 .3.2.1.5.4 1.1-.4 1.2.1.5 1 .1.9.8l-.3.1c-.6.8-.3 1.7-.1 2.5-.1.3-.3.3-.5.3l-.2-.2c-.2-.8 0-1.6-.1-2.4-.1 0-.2-.3-.2 0v.7c-.1.2-.2.2-.4.3-.7.3-.8.7-.7 1.8.5 1.2 1.2 1.6 2.4 1.5.2 0 .4-.1.6.1l.1.4c-.1.5-.5.4-.8.5-.3.1-.7 0-1 .2-.3.1-1 .2-.5.9l-.4.2z"/><path fill="#c3c4bf" d="M18 84.8c0-.2-.1-.3-.3-.3-.7.2-.9-.3-.9-.8.6 0 .6 0 .5-.6l.3-.3c1.1-.3 2 .3 2.7 1 .2.2.7.1.7.6-.4.2-.9.3-.2.8.3.2.5.5.2.7-.4.4-.1.8-.2 1.2-.1.2-.3.3-.5.2-.6-.3-.4-1.2-1.1-1.4h-.1c-1 .1-1 .1-1.1-1.1z"/><path d="M20.9 87.1c0-.4-1-.8.1-1.2.3-.1 0-.5-.3-.5-.4-.1-.6-.3-.4-.7.2-.4.5-.3.8-.2 1 .9.9 2.1 1 3.2.1 1 0 1.8-.7 2.5l.1.3-.5.7h-.1c-.2.1-.3 0-.2-.2.2-.5.1-1.1.1-1.7 0-.5.1-.9.5-1.2.2-.4.1-.7-.4-1z" class="st122"/><path fill="#595554" d="M22.1 84.5l.2-.2c.4.5.6 1 .7 1.6-.1.1-.1.3-.3.2-.1-.6-.5-1.1-.6-1.6z"/><path fill="#4f4b4a" d="M22.6 86l.3-.2.1.3v1.6c-.4-.4 0-1.1-.4-1.7z"/><path fill="#e2e3de" d="M20.5 76.7c.1.2.1.4-.2.4h-.9c-3.1-.1-6.1-.3-9.2-.8l-3.5-.6c-.4.2-.7-.1-1.1-.2l-3.9-.9c-.2 0-.4-.2-.5-.3.1-.4.4-.4.7-.3 3.5.9 7.1 1.6 10.7 2.2l2.1.2c.3-.3.7-.1 1-.2l1.6.2h1c.7.2 1.4 0 2 .2l.2.1z"/><path d="M5.7 75.4c.4-.1.7.1 1.1.2-.5.4-.8 0-1.1-.2zM6.6 78.1c0 .5-.1.8-.4.7-.5-.1-.6-.6-.8-1-.1-.2 0-.4.2-.3.5 0 .9.3 1 .6z" class="st2"/><path fill="#c3c3bc" d="M20.9 87.1c.2-.1.4-.3.6 0 .2.3.2.8 0 1-.6.5-.6 1.1-.6 1.7 0 .4.1.9-.1 1.4l-.4.3c-1 .5-2 .8-3.2.7-.3-.4-.8 0-1.1-.3l.1-.3c.1-.4-.9-.3-.4-.7.3-.2.8-.5 1.3-.5s1 0 1.5-.3l.1-.1c.8-.6 1.5-1.3 1.4-2.5l.2-.2c.2 0 .4 0 .6-.2z"/><path fill="#71d2fd" d="M88.1 11v.5l-.1 1.4c0 .3.1.8-.3.8-.5 0-.1-.5-.3-.7-.1.2.2.6-.1.9-.3.3-.7.3-1.1.3-.9 0-1.7.4-2.6.4-.1 0-.3 0-.4.2-.5.7-1.1.8-1.9.7l-.4.1c-.4.8-1 .9-1.7.7l-.6.2c-.8.4-1.5.6-2.4.8-1 .2-2 .3-2.9.9-.8.4-1.6.7-2.5.9-1.5.4-2.9.8-4 2.1-.1.2-.3.3-.5.3-.6.1-1.1.3-1.2 1.1 0 .4-.4.5-.7.3-.6-.3-.9 0-1.4.3-.9.5-1.7 1.5-2.9.9-.5-.3-.6.6-1.1.6-.4-.5-.1-1.1 0-1.6.1-.3.3-.5.6-.4.6.1 1-.2 1.4-.6.8-.9 1.8-1.4 2.8-2 .8-.5 1.7-.6 2.2-1.5.3-.4 1.1-.5 1.7-.7 2-.6 3.8-1.6 5.9-1.8.5 0 .8-.3 1.2-.4 1.2-.5 2.4-.8 3.6-1.5 1.2-.7 2.6-.6 3.8-1.2.3-.1.6-.2.8-.5.2-.2.4-.3.7-.3 1 .1 2-.1 2.7-.8-.3-.1-.8.1-1.1-.4.5-.2 1-.1 1.6-.1.4 0 .8-.1 1.2.1z"/><path fill="#54c8fd" d="M88.1 17.3v3.5c-.6-.2-.3-.7-.3-1v-.1.2c-.1.3.1.7-.3 1-.4-.3-.1-.6-.2-.9v.7c0 .2-.3.3-.3.2-.3-.6-.5 0-.7 0-1.2.3-2.3.8-3.5.9l-.5.1c-1.2.9-2.7 1.1-4 1.6l-4.7 1.6c-1.5.5-2.9 1.2-4.5 1.5-.7.2-1.4.3-2 .7-.6.4-1.3.3-2 .4l-1.2.4c-.9.5-1.9.6-2.9.9-.3 0-.5-.3-.5-.5 0-.3.2-.6.1-.9.1-.4-.1-.8.2-1.2.7-1 1.1-1.1 2.2-.6 1.1.5 2.1.1 3.1-.1 1.2-.3 2.2-1 3.3-1.4 1-.4 2.1-.8 3.2-1 .9-.2 1.7-.6 2.5-1l.6-.3c1.3 0 2.4-.7 3.6-1.1l5-1.7c.7-.3 1.5-.6 2.3-.7.5-.1 1-.4 1.2-.9 0-.1.1-.3.3-.3z"/><path fill="#6acffd" d="M59 24.6c.3-.8.7-1.1 1.6-.6h.5c.6-.6 1.7-.6 2.2-1.5.3-.5.7-.2 1 0 .4.3.8.5.7-.3-.1-.7.5-.9.9-.9.5-.1.8-.2 1.1-.7.4-.7 1.3-.7 2-1.1 1-.6 2.1-.7 3.1-1 .7-.2 1.1-.8 1.8-.8 1 0 1.8-.7 2.9-.7.5 0 1.1-.3 1.6-.6.4-.2.8-.7 1.3-.2.3.2.8-.1.7-.3-.1-.9.5-.5.8-.6.6-.1 1.3.2 1.6-.7 0-.2.2-.2.4-.2 1 .1 2-.6 3-.5 1.2.1 1-.6 1-1.4.3.3 0 .8.4 1.1.3-.7 0-1.5.5-2.1v2.3l-.2.5a8.7 8.7 0 0 1-4.8 2.1l-.7.3c-.8.4-1.6.8-2.5.8-.3 0-.6 0-.8.2-1 .7-2.1.9-3.3 1.2a3 3 0 0 0-1.5.7l-.6.3c-1.1 0-2 .7-3.1.7l-.4.1a4 4 0 0 1-2.4 1.2l-.3.3c-.1.4-.4.5-.8.5-.3 0-.5 0-.8.2a7.4 7.4 0 0 1-5.7 1.8c-.4 0-.6.1-.8.4-.2.5-.5.3-.7.1-.1-.1-.2-.3-.1-.5.2-.2.3-.2.4-.1z"/><path fill="#78d4fd" d="M59 24.6h-.2c-.5-.1-.5-.4-.4-.8 0-.2.5.2.3-.2-.3-.6-.7-1-.8-1.7 0-.4-.1-.6.2-.8.3-.2.6-.4.9 0 .6.7 1.2.7 1.8.1l.8-.4c.7-.6 1.3-1.4 2.2-1.7.2-.1.4-.2.5-.5.5-1.1 1.6-1.6 2.7-1.9.9-.2 1.9-.5 2.7-.9 1.2-.6 2.6-.8 3.9-1.2 2.5-.9 5-1.6 7.4-2.8.5-.2.9-.3 1.5-.3-.2-.2-.5-.1-.5-.3 0-.3.3-.2.6-.3.4-.1.9.2 1.3 0h2.8l.1.1-.1.1h-1.2v.2h1.6c-1 .7-1.9 1.7-3.3 1.3-.2-.1-.4-.1-.5.1-1 1-2.4.9-3.6 1.4-1 .4-2 .6-2.9 1.3-.2.2-.4.2-.6.2-.6 0-1 .1-1.4.5-.5.5-1.1.3-1.7.4-.9.2-2 .2-2.7.7-.9.5-1.8.7-2.7 1-.2.1-.5.3-.8.3-.6.1-1.2.2-1.2 1 0 .4-.4.6-.9.5-.6-.2-1 .1-1.2.6l-.2.2c-1.3.1-1.9 1.2-2.7 2l-.4.1c-1.1-.1-1.2 0-1.3 1.1v.6z"/><path d="M88.1 65.2h-.2c-.2-.3-.1-.6-.1-1V48c0-2.3-.3-4.6-.2-6.9V33v-5.1l.1-1.9v-.2.1c-.1.4-.1.5-.6.4l-.1.1c-.8.6-1.7.8-2.5 1.4l-.7.2c-1.2 0-2.2.6-3.2 1l-1.5.5c-.8.1-1.6.2-2.3.7-.7.5-1.8.5-2.6.8-1.1.4-2.3.5-3.3 1.3l-.4.2c-1-.3-1.8.1-2.7.5l-.2.1-.3.1H67l-.6-.1-.2-.1c-.3-.5-.3.2-.5.1l-.5-.1c.1-.6.3-.9.9-1.2 1.4-.7 3-.7 4.3-1.6l.2-.1c2 0 3.5-1.2 5.3-1.8l.9-.2c.7 0 1.3-.3 1.9-.7.7-.5 1.7-.9 2.7-.9.7 0 1.3-.1 1.7-.7l.4-.2c1.2.2 2.2-.7 3.4-.8.4 0 .2-.3.3-.5.1-.4 0-.9.6-1 .2.3 0 .6.1.9v39.7c.2.6.2.9.2 1.3z" class="st131"/><path fill="#59cafe" d="M88.1 17.3c-.3 1.2-1.1 1.4-2.2 1.6-1.1.2-2.1.7-3.1 1.1l-.8.3c-.8-.1-1.4.6-2.1.7-1.4.3-2.7 1.1-4.2 1.3-.8.2-1.7.6-2.4 1-.4.2-.7.4-1.1.3-.7-.1-1.2.4-1.9.6-.8.2-1.6.6-2.3 1-.9.5-1.9.9-3.1 1a5 5 0 0 1-2.7-.4c-.5-.2-.7 0-1.1.5-.4.5-.3 1-.5 1.5-.7-.2-.4-1-.9-1.3-.1-.1-.1-.2 0-.4.7-1.1 1.8-1.2 2.9-.9 1.4.4 2.6.3 3.8-.5 1.8-1.2 3.8-2 5.8-2.5 1.7-.4 3.1-1.6 4.8-1.7 1.3-.1 2.4-.8 3.6-1.2.9-.3 1.7-.7 2.7-.7.3 0 .5-.2.7-.4.3-.3.6-.3 1-.3 1-.1 1.9-.4 2.4-1.3.1-.2.2-.5.6-.4l.1 1.1z"/><path d="M88.1 16.1l-.3.2c-.2 1.3-1.5 1.3-2.2 2-.1.1-.3 0-.4-.1-.2-.2-.5-.2-.7.1-.4.7-1.1.5-1.7.7-1.2.4-2.6.5-3.6 1.5-.3.3-.6.3-.9.3-1.1-.1-3.1.5-4 1.2l-.4.3c-1.7 0-3.1.9-4.6 1.4a11 11 0 0 0-3.2 1.7c-.9.5-1.8.7-2.7.5l-1.2-.3c-.7 0-1.5-.2-2 .7l-.4.2c-.5-.4-.3-.9-.3-1.4 0-.3.3-.2.6-.2 1.2.1 2.4 0 3.6.4.4.1 1 0 1.3-.3.5-.5 1.2-.8 1.8-1a4 4 0 0 0 1.6-1c.4-.5 1.1-.4 1.7-.7l.4-.1c1.8-1.1 3.8-1.2 5.7-2l4.9-1.8c1-.4 2.2-.4 3.1-1 .6-.4 1.5-.3 2.2-.6.8-.4 1.2-.9 1.2-1.7 0-.3 0-.5.2-.7 0-.1 0-.3.2-.3l.1 2z" class="st133"/><path d="M71.4 10.6h10.8c.3 0 .7-.1 1 .1-.2.2-.5.1-.8.1-1.3.2-2.6.2-3.9.2h-7.3c-.5-.1-1.1.1-1.6-.2v-.3l1.8.1z" class="st134"/><path fill="#eff1ee" d="M88.2 43.8v-7.4h.1v6.5c0 .3.1.6-.1.9z"/><path fill="#d1d5cc" d="M71.4 10.6h-1.8c-.3.3-.7.2-1.1.2-1.4 0-2.9.1-4.3-.1l-.1-.3h7.2l.1.2z"/><path d="M88.1 24.4c-.3-.3-.1-.6-.2-.9-.4-.5-.1-1.1-.3-1.7l-.1-.3.2-1.8v-.1l.1-.1c.2.4-.1.9.2 1.2l.1 3.7z" class="st137"/><path d="M86.7 11v-.2c.5 0 1-.2 1.4.2h-1.4zM82.5 10.8h1.4c-.4.3-.9.1-1.4.2-.1 0-.1-.1 0-.2z" class="st138"/><path d="M87.3 10.3h.2l.6.3c-.4.1-.6-.1-.8-.3z" class="st1"/><path d="M86.4 69.8c-1.4.1-2.7-.2-4.1-.2l.4-.2c1.2.2 2.5.1 3.7.4z" class="st14"/><path fill="#01a3fc" d="M88 41.2v24l-.6.1H75.5l-.5-.1H49.2a6 6 0 0 1-1.9 0c1.9-.4 3.8-.5 5.7-.2h2.2c2.7.1 5.5.2 8.2 0 2.7-.2 5.3 0 7.9 0l15.4.1c.8 0 1.1-.2 1-1V45c-.4-.9-.2-1.8-.3-2.7 0-.3 0-.6.2-.9.2-.2.3-.3.4-.2z"/><path d="M74.9 65.2H88c-.1.2-.4.2-.6.2H75.5l-.6-.2z" class="st131"/><path fill="#f4f2ee" d="M58.5 65.6h-2.1c.7-.3 1.4-.3 2.1 0z"/><path d="M49.1 65.1c.5-.2.9-.2 1.4 0h-1.4z" class="st0"/><path d="M38.5 65.7h-1v-.1l1 .1c0-.1 0 0 0 0zM45.9 65.7c.4-.2.7-.1 1 0h-1z" class="st141"/><path d="M35.9 98.9h2.6c-.6-.3-1.4 0-1.6-.7-.1-.3-.5-1 .4-1.2-1-.6-1-.6-.4-2 .6.2 1.5.1 1.5 1.1 0 .2.3.1.4-.1.2-.6.6-.3 1-.2.4.1.3.5.3.8 0 .6-.2 1.1-.7 1.4-.6.3.1.6 0 1-1.2 0-2.4.3-3.5-.1z" class="st39"/><path fill="#cbcbc7" d="M53.2 81.1c.2.3.5.5.6.8v1.6c-.5-.2-.9-.5-1.3.1l-.9.9c-.2.2-.4.4-.7.1.5-.7 1-1.3.8-2.2 0-.4-.2-.6-.5-.9-.6-.5-1.3-.6-2-.2l-.7 1c-.2.3-.1.6 0 .9.1.4.4.7.6 1 .2.2.6.2.8.5-.3.3-.7.2-1.1.4l-.2-.1-1.4-1.9c.2 1.3.2 1.3-.3 1.2l-.6-.5-.1-.2v-.7-.8-.3c.1-.4.3-.6.5-.9.2-.2.3-.4.6-.5a6 6 0 0 1 2.6-.8h.5l1.8.5c.5.3.9.5 1 1z"/><path d="M47 84.4c.5.1.4-.1.3-.5-.1-.3-.7-.7 0-.9.3-.1.5 0 .6.2.1.7.5 1.1 1 1.5.3.2-.1.3-.1.5-.7.3-1.1-.3-1.7-.5l-.1-.3z" class="st77"/><path fill="#73706d" d="M47.1 84.6c.6 0 1 .6 1.7.5h.1l.4.2v.2l.1.1-.1.1c-.8 0-1.4-.4-2.1-.7l-.1-.4z"/><path fill="#7d7b79" d="M50 79.9c-.9.2-1.9.3-2.7.9a.3.3 0 0 1 0-.4c.6-.3 1.1-.6 1.8-.7.3.2.7-.1.9.2z"/><path fill="#7a7874" d="M39.6 88.5l.3.5c0 .5.1 1.1-.2 1.6l-.2-.2c-.3-.6-.2-1.2-.2-1.9h.3z"/><path fill="#807d7a" d="M46.4 82v.2 1.6c-.3.3-.4.1-.5-.1-.1-.4-.2-.8 0-1.2l.3-.6c.2-.1.2 0 .2.1z"/><path fill="#f2f4f0" d="M46 82.4c.1.5-.2 1.1.5 1.3v.3c-.4.2-.6-.1-.6-.4v-1.4h.1c-.1 0-.1.1 0 .2z"/><path fill="#7f7d7b" d="M52.3 80.4l-1.8-.5c.1-.2.4 0 .6-.2.5.2 1 .2 1.5.5l-.3.2z"/><path fill="#5e5c5a" d="M51.1 79.7c-.1.2-.4.1-.6.2H50c-.3-.1-.6.1-.9-.2.7-.1 1.3-.2 2 0z"/><path fill="#797573" d="M52.3 80.4l.2-.2c.3.1.6.3.8.6-.2.1-.2.2-.2.4a3 3 0 0 0-.8-.8z"/><path d="M30 85.1c.2.2.5.1.6.5l-.3.2c-.3-.1-.2-.4-.3-.7z" class="st38"/><path fill="#6b6766" d="M46.4 82l-.2-.2c.1-.3.2-.6.6-.7l-.4.9z"/><path fill="#555150" d="M47.4 80.4v.4l-.5.4c0-.4.2-.7.5-.8z"/><path d="M48.2 86.7c-.1.1-.2.4-.4.3-.2-.1 0-.2.1-.3h.3z" class="st11"/><path d="M61.7 92l-.2.9-.7.7c-.7-.3-.6-.9-.5-1.5 0-.3 0-.5-.2-.5-.7-.1-.7-.7-.6-1.1.1-.5-.1-.8-.5-.8-.8-.1-1.6-.5-2.2.4-.6-.6-1.1.8-1.7.1l.4-.3c.1-.4.5-.3.7-.5l.8-.2 1-.1.2-.1h.4c.9.2 1.8.4 2.5 1.1l.1.1c.3.2.5.5.6.9l-.1.9z" class="st56"/><path fill="#c6c6be" d="M57.3 94.7l-.1-.1.6-.1c-.6-.2-1.2-.1-1.6-.5 1.1-.4 2.1-.4 3.3 0-.2.4-.7.3-1.1.5l.6.1c-.6.2-1.2 0-1.7.1z"/><path fill="#9a9693" d="M57.8 92.4v-.3c0-.4-.3-.7-.4-1.1.7-.4.7.2.7.6-.1.6.2 1 .7 1.2.1.2.3.2.5.2-.1.4-.3.6-.6.3s-.7-.5-.9-.9z"/><path fill="#a2a09b" d="M57.8 92.4c-.1.4-.4.6-.7.9-.1.2-.4.3-.5 0-.1-.2-.1-.4.1-.5l1.1-.4z"/><path fill="#a9a6a4" d="M57.4 91c.4.3.4.7.4 1.1-.1-.4-.7-.6-.4-1.1z"/><path fill="#454341" d="M53.9 92.6v-1.2l.1.2v.7l-.1.3z"/><path fill="#928f89" d="M59.4 92.9c-.3.3-.4 0-.5-.2.1 0 .3 0 .5.2z"/><path fill="#7c7b79" d="M61 90.2c-.9-.4-1.7-.9-2.7-1 .1-.4.4-.2.6-.2.8.2 1.7.2 2.1 1.2z"/><path fill="#7b7a78" d="M56.9 89.4l-.9.2a.2.2 0 0 1-.2-.2 2 2 0 0 1 1.1-.3c.4 0 .8-.3 1.1.2-.4.1-.8-.1-1.1.1z"/><path fill="#878483" d="M57.9 89.2c-.3-.3-.7-.1-1.1-.2a3 3 0 0 1 2.1 0c-.2 0-.4 0-.6.2h-.4z"/><path fill="#5e5d5b" d="M55.8 89.3l.2.2-.7.4-.2-.3c.2-.2.4-.2.7-.3z"/><path fill="#605c59" d="M61.5 91.1l-.5-.9c.4.1.5.4.6.7.2.2.1.3-.1.2z"/><path fill="#777471" d="M61.5 91.1l.2-.2c.2.1.2.3.2.5-.1.2 0 .4-.2.6l-.2-.9z"/><path d="M77.9 88.7c-.2.1-.1.3-.2.5h-.3V89c-.2-.3 0-.5.2-.7.1 0 .1-.1.2 0 .2.1.2.2.1.4z" class="st22"/><path fill="#cececa" d="M39.4 88.5c.1.6.2 1.3.1 1.9l-.5.9-.2.2c-.5-.2-.3-.5-.2-.8.1-.4.3-.8.2-1.2-.1-.4-.1-.7-.6-1-.4-.2-.9-.7-1.3-1.1-.1-.1-.2-.3 0-.4.2-.2.5-.1.7-.1.4.1.8.3 1.1.6.3.3.7.6.7 1z"/><path d="M37.7 87.1c-.2.1-.4-.2-.7 0 .3.5 1.2.4 1.2 1.2 0 0 .6-.2.7.4.2.7.2 1.4-.2 2.1-.1.2-.2.5 0 .7l-.2.3-1 .6c-.4 0-.5-.3-.6-.6 0-.3 0-.6-.3-.8-.2-.7.1-1.4-.1-2-.1-.2-.3-.3-.6-.1l-.3.6-.3.1c-.2-.2-.5-.4-.7-.8-.2-.5-.6-.5-.9-.4-.3.1 0 .2 0 .3l.1 1.3-.1.8c-.1.4 0 .9-.6 1l-.1.2c0 .3.2.1.3.1.2.1.5.2.4.4 0 .2-.1.3-.4.2-.7-.1-1.3-.5-1.8-1-.4-.7-.9-1.3-.8-2.1 0-.9.7-1.4 1.1-2 .2-.4 1-.5 1.4-.9l.8-.3h1.7c.9.1 1.7-.2 2 .7z" class="st73"/><path fill="#514e4c" d="M49.3 85.7v-.2c.4.1.7-.1 1.1.2h-1.1z"/><path d="M51.9 82.3c.1 1-.1 1.8-1.1 2.3l-.9.2c-.3 0-.7-.1-.9-.4-.1-.2 0-.3.2-.4.5-.1 1.1.2 1.6-.2l.5-.6c.3-.3.1-.8.6-.9z" class="st41"/><path d="M53.7 83.4v-1.5c.3.5.3 1 0 1.5z" class="st77"/><path d="M29.5 76.9c-1.3.4-2.6.4-3.9.4 1.3-.4 2.6-.5 3.9-.4z" class="st38"/><path d="M21 76.7c.7-.3 1.4-.3 2.1 0H21z" class="st9"/><path d="M85 70.1c-.3 0-.6 0-.9.2.2-.5.5-.4.9-.2z" class="st14"/><path fill="#982228" d="M87.1 76.9l.2.8c.2.3.1.6-.2.8-.3-.3-.5-.7-.9-.9h-1.4l.2-.5c.6-.5 1.4-.4 2.1-.2z"/><path fill="#a83133" d="M86.2 77.6c.7-.1.9.3.9.9 0 .4-.2.6-.5.7l-.3-.4c-.2-.3-.1-.6 0-.9l-.1-.3z"/><path fill="#9c221b" d="M86.2 77.9c.3.3 0 .6 0 .9h-.4c-.2-.5.1-.7.4-.9z"/><path d="M77.9 88.7c0-.1 0-.3-.2-.3 0-.6-.2-1-.9-.8a.8.8 0 0 1-.4-.2c-.2-.1-.5-.4-.1-.5h2.5v.3c-.3 0-.5.2-.4.5 0 .3-.2.7-.5 1z" class="st170"/><path fill="#b7b5b1" d="M76.5 87.3l.6.1c1.1 0 1.1 0 .6 1-.2.2-.5 0-.7 0-.3-.4-.4-.7-.5-1.1z"/><path d="M77 88.3c.2-.6.5.2.7 0-.1.2-.4.4-.4.7l-.3-.7z" class="st170"/><path fill="#a09e98" d="M78.4 87.6c-.2-.2-.2-.4-.1-.6.1-.2.3-.1.4.1 0 .2-.1.4-.3.5z"/><path fill="#ededeb" d="M55.7 9.9c-.3.3-.6.2-.9 0h.9z"/><path d="M47.4 43.5c.1-.4-.3-.7 0-1.1.1-.1.2-.1.4 0l.1.5c0 .3 0 .6.2.9l-.2-.8-.1-.6v-.9-.8c0-.5.3-.9.4-1.4.2-.1 0-.2 0-.4l-.2-.5c0-.3.2-.4.4-.6a1 1 0 0 0-.1-1.3 1 1 0 0 1-.1-1.4c.5-.6.2-1.2.3-1.7.2-.6.2-1.1-.4-1.6l-.1-.1c-.1-1.2.1-2.4.1-3.5 0-.2.2-.2.4-.2.9.2.8-.3.8-.9 0-.3.1-.7.4-.5.7.4 1.4 0 2.1.1.6 0 .8.2.8.7-.1.5-.5.3-.8.3-.5 0-1.1-.2-1.6.3l.5.7.4.5c.3.5.7.8 1.4.7h5c.6-.1.9-.9 1.7-.8l.1.4c0 .2-.2.4-.3.5-.6.6-.6 1.4-.6 2.2 0 1.1-.2 2.2-.3 3.2 0 .3-.1.7-.3 1-.2.4-.6.4-1 .5H52c-.7 0-1.1-.3-1.1-1.1.1-1.4-.1-2.9.2-4.3.2-1.1-.6-1.8-1.3-2.4-.1-.1-.2 0-.3.1l-.2.5-.1 1.6-.1.7-.1 1.2-.1.8c-.2.4-.1.9-.2 1.3l-.1.2c-.1.3-.2.7 0 1l.1.2.7.8.6.4.9.9.2.1h5.1c.4 0 .8-.1 1.1.3.2.3.1.7 0 1-.1.4-.1.8-.4 1.2-.1.1-.3 0-.3.3s.1.6-.3.7a1 1 0 0 1-.9-.5c-.2-.3-.1-.6.1-.9.2-.2.4-.3.5-.6-1.3-1-2.7-.6-4.1-.8H53c.2 0 .6-.1.5.3 0 .3-.3.3-.6.3h-1.1c-.5 0-.8.2-.9.8-.1.7-.2 1.3-.1 2 0 .7-.1 1.4.9 1.6-.4.5-.9.4-1.2.7-.2.1-.3.4-.6.1-.2-1 .2-2 0-3l.1-.9.1-.9c0-.5.1-.9-.3-1.3-.2-.3-.5-.7-.9-.6-.5.1-.7.5-.9.9l-.1.6-.1 1.5-.1 1.5-.1 1.3c.1.9-.3 1.7.1 2.6l.5.5.2.5-.1.3c-.3.1-.2.7-.8.5-.5-.2-.3-.6-.3-.9 0-.6-.3-.7-.7-.5v-1.2-1.1c1.2-.4.6-1.1.9-1.7z" class="st174"/><path d="M62.4 32.4c-.2-.5-.6-1-.7-1.6v-.1c0-.2 0-.4.3-.5.9-.3 1.8-.3 2.6-.8l.7-.3c1.5-.1 2.8-.7 4.1-1.2 2.5-1 5.2-1.7 7.7-2.7l1.6-.5c.3 0 .6-.1.8-.4.8-.6 1.6-.8 2.6-1 1.3-.2 2.4-.9 3.7-1.2.7-.2 1.3-.7 2.1-.5.3 1.6.1 2-1.4 2.5-1.1.3-2.1.8-3.3.8-.2 0-.1 0-.1.1-.2.9-1.1 1-1.7 1-1.1 0-1.9.6-2.8.9-.7.2-1.3.5-2 .6l-2.1.6c-1.3.5-2.5.9-3.8 1.2l-1.9.7c-1.5.6-3.1.8-4.6 1.4l-.8.5c-.4.5-.6.9-1 .5z" class="st137"/><path d="M62.4 32.4c.1 0 .3.1.4 0 .6-.8 1.6-.9 2.4-1.3.8-.4 1.8-.2 2.6-.7 1.6-.9 3.5-1.2 5.2-1.8l2.9-1 1.6-.4c1-.3 1.9-.7 2.8-1.2.5-.3 1.3.2 1.8-.3.2-.2.3-.1.6-.6l.1-.1c.9.3 1.5-.6 2.4-.6.7 0 1.4-.4 2-.7.8-.4.5-1.2.6-1.9.4.6.1 1.2.2 1.8-.4.5-.3 1.2-.4 1.8-.5-.2-1-.3-1.5.1a1 1 0 0 1-.7.3c-1.4-.1-2.5 1.2-3.9 1.1-.5 0-1.1.1-1.4.5-.2.2-.3.2-.6.1-.2-.1-.7-.1-.6.4.1.3-.2.3-.4.3-1.3.1-2.7.3-3.8.9-.7.4-1.8.1-2.2 1.1l-.3.1c-1.4-.3-2.5.7-3.7 1.1-.4.1-.8-.1-1.1.2a2 2 0 0 1-1.5.6c-.2 0-.3.5-.5.8-.1.1-.1.1-.2 0l-.4-.1c0 .1.1.2 0 .2-.3.3.4.4.1.7-.5.2-1 .3-1 1 0 .2-.2.4-.4.2l-1.1-2.6z" class="st175"/><path d="M66.6 41.9l-.2-.7c.1-.3.3-.5.6-.5.7.2 1.4 0 2.1.3.2.1.3 0 .4-.1.6-.7 1.4-.8 2.3-1 1-.2 1.9-.8 2.8-1.1l1.3-.4c1.9-.4 3.7-1.1 5.4-2 .7-.4 1.4-.3 2.1-.4 1-.2 2.1-.4 2.9-1 .1-.1.3-.2.5-.1.2.2.2.6.3.9.1.4 0 .7-.5.8l-1.2.6c-.7.4-1.2 1-2.2.9a2 2 0 0 0-2.1 1.3c-.6.4-1.3.3-2 .3-.3 0-.5-.1-.8.1-1 .8-2.2 1-3.4 1.2l-.7.1c-1.3.7-2.7 1.3-4.2 1.6-.2.1-.4.4-.7.2-.3-.2.1-.5 0-.7l-.1-.1v.1c0 .3-.1.4-.4.5-.5-.4-1.3-.7-2.2-.8z" class="st176"/><path fill="#91ddfd" d="M64.1 10.6h5.5v.1c-.2.2-.4.1-.5.1.4.1.9-.1 1.4.1 0 .1.1.1 0 .2-.6.5-1.3 1.1-1.9 1-1.1-.1-2 .5-2.9.7-.6.1-1.3.2-1.5.9-.1.3-.4.3-.6.3-.7 0-1.3.2-2 .4-.5.1-.9.3-1.3.7a1 1 0 0 1-.7.3c-1.2 0-2.3.7-3.5.6-.5 0-.3.4-.3.7l.3.8v.3c-.1.1-.1.2-.3.1a11 11 0 0 1-1.2-2.7c0-.3-.1-.6.1-.9.1-.2.2-.4.5-.3 1.2.4 2.2-.2 3.2-.6.6-.3 1.3-.5 1.9-1l.6-.2c1.5 0 2.8-.9 4.2-1.2h-1.8c-.2 0-.6 0-.4-.5l1.2.1z"/><path d="M69.6 48.1v-.2l-.2-.5c-.2-.3-.6-.2-.8-.4-.1-.5-.4-.9-.3-1.4.4-.6 1-.9 1.7-1.1l6.1-2c.3-.1.6-.3.9.1.2.8.1 1.6.1 2.4-.2.6-.7.9-1.3 1.1-.5.1-1 .3-1.4.6-.2.1-.4.3-.6.2-1-.1-1.8.6-2.8.6-.6 0-.8.7-1.4.6z" class="st178"/><path d="M67 40.8c-.3-.1-.2.5-.5.4-.3-.6-.7-1.2-.9-1.9.3-.6.7-1 1.5-.8l.3-.1c.7-.7 1.6-.6 2.4-1 .6-.3 1.2-.6 2-.5.6.1.9-.3.8-1 .2-.5.5-.3.9-.3.6-.2.9.1 1.1.6l-.3.1.2-.1.2-.4h.2c.1-.1.1.5.3.1.4-.7 1.2-.6 1.9-.6.5.1.9-.2 1.4-.3.4.1.6.3.7.7.1.4-.1.6-.4.8-1 .6-2 .8-3.1 1.1-.9.2-1.8.5-2.6 1s-1.6.7-2.4.8a8 8 0 0 0-3.7 1.4z" class="st179"/><path d="M23.1 35.4l.3.9c.3.1.1.4.2.5l.2.9c-.2.6-.6.6-1.1.4l-.8-2c-.3-.9-1.1-.5-1.6-.5-.6 0-.3.6-.4.9v1.3c0 .5-.1.7-.7.7s-.6-.3-.6-.7v-5.6c0-.6.1-.8.7-.8h3c.1-.1.3-.1.4 0a2 2 0 0 1 1.6 1.8c.1.9-.1 1.8-1.1 2.2 0-.2 0-.1-.1 0z" class="st180"/><path d="M69.6 48.1c.6-.7 1.4-.8 2.2-1 1.2-.4 2.4-.6 3.6-1.2l1.4-.8c.5.8.1 1.6.3 2.4l.2.2.7.2.1.1c-.1.3.4.5.3 1-.3-.1-.6-.6-.8 0-.1.3-.4 0-.4 0-.5-.3-1-.3-1.4-.1-1.3.7-2.9.3-4.1 1.3-.2.2-.6.2-.7 0-.6-.7-1.3-1.2-1.4-2.1z" class="st181"/><path d="M43.8 47.9c-.2.6-.7.6-1.1.6h-7.5l-.8-.2c-.3-.2-.4-.4-.1-.7l1.6-1.4.6-.2h5.3c.4 0 .6.2.8.4.2.1.3.2.3.4l.3.3.6.8z" class="st182"/><path d="M45.6 29c.2.5.2 1.1.1 1.6-.1 1.8-.3 3.5-.3 5.3 0 1.1-.5 1.7-1.4 2-.6-.4-1.1-.8-1.2-1.5l.4-4.2c0-1.3.2-2.5 1.6-3.2.3-.1.5-.4.8 0z" class="st180"/><path d="M57.9 36.4l.5-5.4c0-.5.2-1 .8-1.1.5-.1.6-.7 1-1 .3 0 .5 0 .5.4l-.2.4v0c0-.2.1-.3.3-.3a116.9 116.9 0 0 1-.4 6.8c0 .4 0 .8-.2 1.1-.4.3-.5.9-1.2.9l-.5-.4-.6-.8v-.6z" class="st182"/><path d="M62.7 10.7c.8.4 1.7 0 2.7.2a2 2 0 0 1-1.3.7c-1.1.3-2.1.9-3.3.9-.6 0-1.1.6-1.6.9a6 6 0 0 1-2.1.8c-.5.1-1.3.8-1.9.1-.2-.2-.2.1-.2.2-.1.2.1.6-.3.8-.2-.2-.3-.5-.4-.9-.3-1.4 0-1.7 1.5-1.9l1.4-.5c1.4-.7 3-1.1 3.9-1l-4.2.2-.9-.1c-.2-.1-.3-.2 0-.4h2.7c1.2-.1 2.6-.3 4 0z" class="st134"/><path d="M72.6 35.9c.2 0 .5-.1.5.2 0 .3-.3.1-.4.2-.2 1-.9.9-1.5.7-.3-.1-.5.1-.7.2-.6.3-1.2.7-2 .7-.3 0-.5.2-.8.4l-.5.4c-.8-.3-1.3.2-1.8.6l-.4-.7-1-2.1c.4-.4.5-.1.5.2.1-.2-.2-.7.3-.6h1c.8 0 1.4-.5 2.2-.5l.4-.3c.4-.2.4-.8.8-.9.4.1.3.5.4.8l.3.1h.7l.2.1c.8.3 1.4-.1 1.8.5z" class="st183"/><path fill="#241113" d="M35.6 27.8c2.1-.3 4.2-.1 6.2-.1 1 0 2.1-.2 3 .2.5.3.3.6.1.9-.4.4-.8.7-1.3.9-2.4.5-4.8.4-7.1-.2-.3-.1-.5-.2-.6-.5-.2-.1-.3-.2-.3-.4-.3-.3-.6-.5 0-.8z"/><path d="M36 39.6c0 2-.3 4-.5 6 0 .3-1.6 1.8-1.8 1.8-.4 0-.5-.4-.5-.7l.1-1.6c.2.2.1.5.1.8l.3-6c0-.7.6-1 1.1-1.4.8 0 1 .6 1.2 1.1z" class="st182"/><path d="M87.8 42.1v2.8c-.3-.2-.6-.4-1-.4l-.5.1c-.7.8-1.8.6-2.6.9-.2.1-.3.2-.3.4l-.1.4c-1 0-.7 1-1.1 1.5-.5-.6-.2-1.3-.3-2v-1.1l.5-.8c.3-.1.5-.3.6-.6l.2-.7.1-.2c1.1.5 2 .1 2.9-.5l.5-.2c.4.2.7 0 .8-.4.4.1.1.5.3.8z" class="st185"/><path fill="#a1e2fd" d="M55.7 10.6c.3.3.6.2.9.2l5.3.1c-1.5-.3-2.7.7-4 .9-.5.1-.8.4-1.1.6-.6.4-1.3.1-2 .5-.5.3-.7.5-.4 1 .1.2 0 .3-.1.4-.7-1.2-1.2-2.4-1.7-3.7h3.1z"/><path d="M35.5 37.8l.4-.2c1.3-.7 2.6-.5 4-.5h1.5c.2-.1.6-.1.7.1.2.7 1.1.9 1.1 1.7-.1.3-.3.4-.5.3h-5.9c-1.2-.2-1.5-.7-1.3-1.4z" class="st182"/><path d="M80.9 48.1c-.9.7-1.3.7-2.3.1L78 48l-.1-.1c-.4-1-.1-2.1-.2-3.1v-.7c.2-.3.4-.4.7-.5.6-.2 1 .1 1.1.7v.6c-.2.9-.1 1.8.1 2.7.2-1.3.2-2.7.2-4.1.1-.3.5-.3.5-.1.1.4.6.3.6.6l.1 3.4c.2.2.1.5-.1.7z" class="st181"/><path fill="#231011" d="M68.7 47c.3.2.8-.3.9.4-.2.5-.3 1.1-.8 1.3l-1.7.4c-.5 0-.8-.2-1.1-.6-.4-.5-.6-1-.5-1.6.1-1.3-.1-2.6.1-3.8.3 1.2 0 2.5.1 3.2-.1-.7.2-2-.1-3.2 0-.6.4-.8.9-1 .8-.1.9.4.7 1-.5 1.3-.3 2.6-.2 4 0 .6.5.7 1 .5.2-.1.3-.3.5-.3h.2c.1 0 0 .3.2.1.1-.1 0-.1-.1-.1l-.1-.1c-.2-.2-.1-.2 0-.2z"/><path fill="#241010" d="M29.5 32.4c-1.5 0-1.5 0-1.5 1.6v3.3c0 1.1-.1 1.2-1.3.8l.2-.1h.5c-.7.1-.8-.3-.8-.9v-3.8c0-.3.1-.6-.2-.8-.4-.3-.8-.1-1.2-.2-.2 0-.5.1-.6-.2 1.2-1.4 2.8-.7 4.2-.7.3 0 .3.1.6.5H28l1.4.1c.2.2.2.3.1.4z"/><path d="M60.8 21.2c-.7.9-.8.9-1.7.2-.5-.4-.5-.4-1.2 0l.2.1c-.1.9.8 1.4.7 2.2 0 .3-.2-.1-.4-.1-.3.1-.2-.3-.3-.4l-1.2-3c.1-.5-.5-.9-.3-1.5 1.1-.8 2.4-.3 2.6 1 .1.7.5.9 1.2.7.3-.1.6-.4 1-.2.3.8-.2.9-.6 1z" class="st189"/><path fill="#33bbf7" d="M68.8 35.5c-.4.3-1 .2-1.3.7-.4-.5-.7.1-1 .1-.4-.1-.8-.2-.9.4-.3-.1-.3-.6-.7-.6-.2.4.3.7.1 1.1-.5 0-.2-.9-.8-.7l-.5-1.4c.1 0 .3 0 .2-.2-.1-1 .4-1.2 1.2-1.1.4.4.2.9.3 1.4.1.1-.1 0 0 .1v-.1V34c.1-.5.3-.7.8-.5 0 .6.3 1.2.2 1.7 0 .2.2.1.1.1-.2-.6 0-1.1-.1-1.7l-.1-.4c.1-.1.1-.1.2 0h.2c.3.4.2.8.2 1.3 0 .3-.1.7.2.9l.4.1c.2 0 .3-.1.3-.2.1-.4-.2-.9.4-1.1.5.1.7.7.6 1.3z"/><path d="M42.6 39.1l.4-.4c.3-1-.2-1.7-1.3-1.7h-4.6c-.5 0-.8.4-1.2.4 0-.3-.4-.6 0-.9.3-.2.5 0 .8.1.4.2.9.1 1.4.1 1.3-.1 2.7.3 3.9-.6.3-.3.4.5.8.4.1-.1.1-.1.2 0l1.1 1.4c-.5.2-.3 1-1 1.3-.9.3-1.7.3-2.6.2-1.5-.2-3-.1-4.4.1l-1.1-1c-.3.1-.5.5-.9.3 0-.3.9-.7-.1-1 .6 0 1.1.1 1.5-.1-.1.7.5.9.9 1.3l6.2.1z" class="st191"/><path fill="#0aacf9" d="M58.1 23.3l.3.4c0 .3.1.6.4.9l.2.4c.4.6.6 1.3 1.1 1.9.1.6.6 1 .6 1.7l.3.5c.3.3.4.6.5 1l-.1.2h-.5c-.1-.3.1-.6-.2-.9 0-.4-.3-.4-.5-.3-.2.3-.3.6-.7.5v-.4c-.1-.2 0-.3.1-.4.3-.4.1-.6-.3-.7-3 .1-6-.2-9 .1.1-.1-.4-.4.2-.5.5-.1 1.1-.2 1.6-.1.3.1.6.1.8-.1h1.2c1.4-.2 2.9-.1 4.3 0h.7l.4.1v-.4a6.2 6.2 0 0 1-1.4-3.9z"/><path d="M50.7 45.8l.3-.4c1.7.2 3.5.1 5.2.1.5 0 .7-.2.8-.6 0-.3.1-.7.5-.9.4 0 .4.4.3.6-.1 1 .4 1.7 1 2.4.2.1.3.4.5.2l.2-.1h.2c0 .6-.6 1.6-1.2 1.7l-1.7.1c-2.3 0-4.7-.1-7 .1l-.7-.2v-.4c.3-.2.6 0 .8 0 1.5.2 2.9.1 4.4.1h3.1c.3 0 .8.1.7-.6-.3-.6-.7-1.1-1.2-1.5-1.9-.2-3.8-.1-5.7 0-.4.1-.6.5-1 .7-.2 0-.3 0-.4-.2 0-.5.3-.7.6-.9.1-.2.2-.2.3-.2z" class="st193"/><path fill="#250a0b" d="M58.8 47.2a3.1 3.1 0 0 1-1.3-3.2c-.2-.3-.2-.6-.2-.9.1-.9.5-1.8.2-2.7.2-.2.2-.5.2-.8.1-.3.2-.5.6-.5.3.7.2 1.5 0 2.2-.2 1.2-.3 2.3-.2 3.5 0 .6.2 1.1.8 1.5.3-.2.3-.5.3-.8l.4-5-.2-.9c-.1-.3-.2-.5.2-.6.3.1.4.3.5.5.1.5.1.9-.1 1.4v.6c-.2.5 0 1.1-.1 1.7v.8c-.2.5 0 1-.1 1.5v.8c-.2.3 0 .6-.2.9-.3.1-.5.1-.8 0z"/><path d="M24.8 32.2c.2.4.6.1.9.2.3.1.6-.1.9.2.2.2 0 .3-.1.3-.3-.3-.7-.6-.8.2 0 .2-.3.3-.5.3-.1-.3.4-.5.2-.8-1 .3-.9 1.2-1 1.8 0 .3 0 .6-.2.8-.2.3-.4 1-.8.2-.1-.2-.3 0-.4 0-.1-.1 0-.2.1-.3 1.6-1.2 1.4-2.9-.5-3.8l.2-.2.7-.2c.3.3.5.7 1 .4.1-.1.1-.1.2 0l.1.2c.2.2.1.5 0 .7z" class="st195"/><path fill="#240f0e" d="M35.9 37.5c.5-.5 1.1-.6 1.7-.6H42c.9 0 1.2.6 1.5 1.1.2.3-.3.5-.6.7-.1-.6-1-.5-1-1.3 0-.2-.4-.2-.6-.1-1.2.3-2.5-.1-3.8.1-.6.1-1.2.3-1.8.2l.2-.1z"/><path fill="#231317" d="M58.8 54.9l.3.1c.3 0 .3.3.4.5.1.2.3.3.2.5v.4c.2.4-.2.7-.3 1-.4.3-.6.2-.6-.3l-.1-.5-.7-.7c-.3-.2-.9.3-1.1-.4.6-1 .9-1.1 1.9-.6z"/><path fill="#231114" d="M57.4 56.4c.4.5.5 1.1.2 1.7-.5.8-.7.9-1.8.7l-.4-.1c-.3-.1-.6-.3-.5-.6.1-.4.4-.1.7-.2l.4-.1c.5-.5.5-1.1.7-1.7.4-.1.6 0 .7.3z"/><path fill="#231217" d="M55.8 53.5c.9-1 1.5-1.1 2.6-.2v.2c-1.1.2-1.6.9-1.8 2-.9-.3-1.2-1-.8-2z"/><path d="M59 27.4c-.5.4-1 .2-1.5.2-1.1 0-2.3.2-3.4-.2-.3-.5 0-.5.4-.5 1.5 0 3-.1 4.5.5z" class="st174"/><path fill="#05b0e9" d="M43 36.6h-.2v-.2c-.2-.3.1-.5.2-.7 0-1.5.1-3.1.4-4.6 0-.3.1-.6-.2-.9l-.1-.1v-.2l.1-.3c.1-.1.2-.3.4-.2.5-.2.8-.6 1.2-.9.3-.2.2-.4 0-.6.6.1.6.6.7 1.1-.2-.2-.4 0-.6.1-1.1.8-1.7 1.7-1.7 3.2.1 1.4-.1 2.8-.2 4.3z"/><path fill="#eaede9" d="M12.6 30.8h.2L12.7 45c0 .5.1 1.1-.1 1.6-.5-.5 0-1.1 0-1.6-.1-3.1 0-6.2 0-9.3v-4.9z"/><path fill="#382b2d" d="M67 43c.2-.5 0-.8-.6-.9l.2-.2c.9-.3 1.7 0 2.5.6.2.1.3.3.3.5-.1.4-.3.7-.7.8-.4 0-.5-.5-.8-.6l-.6-.1-.3-.1z"/><path d="M48.2 39.2l-.2 1.4c-.2.3-.3.6 0 .9l-.2.9c-.1.1-.1.1-.2 0h-.4l-.1-2.8v-.2c-.1-.2-.5-.5 0-.6.4-.1.5.1.5.5 0 .2 0 .4.2.4l.4-.5z" class="st174"/><path fill="#240f12" d="M34.1 38.9c.3-.1.5-.5.9-.3-1.3.9-1.1 2.3-1.2 3.6v2.4c0 .6-.3 1.2-.4 1.8l-.1-1.1.2-4.9c-.2-.7.1-1.2.6-1.5z"/><path d="M56.7 55.5c-.2-1.1.2-1.7 1.3-1.9.2 0 .4.1.5-.2.7.2.2.4 0 .6-.1.1-.5-.1-.4.2 0 .3.3.3.5.3s.3.2.3.3c-.8-.3-1.4.1-1.9.6l-.3.1z" class="st204"/><path fill="#25090d" d="M26.5 32.9l.1-.3.3-.1c-.2 1.7-.1 3.4-.1 5 0 .6.3.6.8.6-.4.2-.7.1-1 .1-.2-1.4 0-2.8-.1-4.3v-1z"/><path fill="#221311" d="M54.2 56.5c-.2-.5-.8-.9-.4-1.6.2-.1.5-.2.7 0 .1.4.4.7.7.9.5.2.8.4.4 1-.5.5-.9.1-1.4-.3z"/><path d="M54.2 56.5c.5.1.9.5 1.4.2.3-.2.4-.6.9-.6l.2.1c.2.7.1 1.3-.7 1.6.1-.6-.6-.5-.8-.5-.7.2-.9-.2-1-.8z" class="st207"/><path fill="#b3cbd4" d="M55.7 10.6h-3.2c-1.3-.2-2.6.1-3.9-.2h9.9l.1.1-.1.1h-2.8z"/><path d="M68.7 48.6c.5-.2.5-.9.9-1.2v.6c-.8 1.5-1.9 1.8-3.4 1.2-.3-.1-.2-.3-.2-.5l1.1.5c.4-.4 1.1-.3 1.6-.6z" class="st181"/><path d="M42.6 46.5c-.2-.2-.4-.4-.8-.4-2 .1-4-.1-6 .1.3-.7.7-.3 1.2-.3h4.6c.6 0 .9 0 1 .6z" class="st209"/><path d="M56.7 56.2h-.2c-.1-.2-.5 0-.5-.3.2-.3-.1-.5-.2-.7-.3-.5-.6-1.1.1-1.6-.3 1.1 0 1.7.9 1.9h.2c.2.5.8-.1 1 .4-.3.1-.6.1-.5.5-.3-.2-.5-.2-.8-.2z" class="st210"/><path fill="#00b4fd" d="M18.5 31.5v6.1h-.1l.1-6.1z"/><path fill="#02b8fd" d="M43.1 30.2c-.2.3-.5.2-.8.2h-4.7c-.3 0-.6.1-.8-.2l.3-.2 5.4-.1.6.3z"/><path d="M59 38c.5 0 .7-.6 1.2-.7 0 .6-.6 1-.5 1.6l-.1.1c-.3 0-.6-.2-1-.1-.2 0-.3-.1-.3-.3l.1-.2c.2-.3.3-.5.6-.4z" class="st213"/><path fill="#211d2b" d="M64.8 40.8c.5.7.4 1.3-.3 1.7-.6.3-1.2.1-1.5-.7l.2-.1h.2c.9.5 1.1.4 1.2-.6 0-.2.1-.3.2-.3z"/><path fill="#23191f" d="M24.9 31.5v-.2c1-.4 2-.1 3-.2.7 0 1.4-.2 2 .2-.1.3.4.9-.3 1v-.2c.2-.6-.3-.6-.7-.6h-4z"/><path fill="#0c95d6" d="M82.1 47.9c0 .2-.2.2-.3.2h-.7c-.2-1.4 0-2.9-.1-4.3 0-.2-.3-.7.4-.5l.1.3V47.4c.1.3.5.3.6.5z"/><path d="M31.6 10.3c1.9 0 3.8-.1 5.6.1-1.8 0-3.7.1-5.6-.1z" class="st101"/><path d="M36.9 30.2h-.2c-.4.4-.7.5-.7-.2 0-.3-.4-.7-.1-1l.5.4c.2 0 .4.2.5.4l.1.3-.1.1z" class="st217"/><path d="M56 57.8c-.2.3-.6.1-1 .3.1.4.5.5.8.8-.3.4-.5.5-.8 0-.1-.3-.5-.5-.8-.6.6-.6 1.2-.6 1.8-.5z" class="st207"/><path fill="#0397d9" d="M29.9 31.3H24.8v-.2a40 40 0 0 1 5.1.2z"/><path fill="#03b8fb" d="M29.7 31.1h-4.9c.6-.4 1.2-.1 1.9-.2l2.8-.1c.1.1.2.1.2.3z"/><path fill="#03b9f9" d="M23 31.1l-.2.2-.3-.1c-.8-.3-1.7-.1-2.5-.2l-1-.1c1.3.1 2.6-.1 4 .2z"/><path fill="#03bafc" d="M81.1 43.7v4.4h-.2v-4.4c.1-.1.1-.1.2 0z"/><path d="M82.1 47.9c-.3 0-.6.2-.8-.1.3-.3.4-.6.4-1v-2c.1-.2.1-.4.4-.3v3.4c0-.1 0-.1 0 0z" class="st222"/><path d="M56.7 18.9c0 .5.6.9.2 1.4l-.9-1.9.2-.2c.4.1.4.5.5.7z" class="st223"/><path d="M35.6 27.8c-.4.3-.2.5 0 .8h-.1c-.3-.2-1 .3-.9-.3 0-.6.5-.6 1-.5z" class="st217"/><path d="M55.8 58.8c.7.1 1.3-.1 1.8-.7 0 1-.6 1.2-1.8.7z" class="st207"/><path d="M34.1 38.9c-.4.4-.4.9-.5 1.4-.7-.9-.7-.9.5-1.4z" class="st191"/><path fill="#1d344c" d="M64.8 40.8l-.2.2c-.4.2-.8 0-1.2.1a.2.2 0 0 1-.2-.2c.6-.7 1.1-.7 1.6-.1z"/><path d="M56 55.9c.1.2.6-.2.5.3-.3.2-.5.5-.9.5.2-.4-.1-.6-.4-.9l.8.1z" class="st225"/><path d="M47.4 43.5c0 .6.6 1.3 0 1.9-.1-.6-.5-1.3 0-1.9z" class="st174"/><path fill="#290304" d="M22.8 38c.4-.1.8.1 1.1-.4-.2.2.5.5.1.6-.4.1-1 .4-1.2-.2z"/><path d="M54.6 55c-.2 0-.5.2-.7 0 0-.4.2-.6.7-.8v.8z" class="st225"/><path d="M47.4 46.5c.2.4.4.8 0 1.2-.3-.4-.3-.8 0-1.2z" class="st174"/><path d="M58.7 56.6c.2.1.2.3.2.5 0 .6.3.2.5.2l.2.2c-.9.2-.9.2-.9-.9z" class="st210"/><path d="M35.6 28.6c.2.1.3.2.3.4l-.9.1-.1-.1c.1-.3.6-.1.7-.4z" class="st217"/><path d="M81.1 48.1h.7c0 .2.3.5 0 .6-.4.2-.2-.3-.3-.4l-.4-.2z" class="st181"/><path d="M59.9 43.2c0-.6-.2-1.1.1-1.7.1.6.1 1.2-.1 1.7z" class="st227"/><path fill="#201724" d="M63.3 40.9l.2.1c.2.3.1.5-.1.7h-.3c-.2-.3-.1-.6.2-.8z"/><path d="M60.1 39.5l-.4-.4s-.1-.1 0-.1l.1-.1c.4 0 .6.2.5.6h-.2z" class="st213"/><path d="M60.1 39.5h.2c.2.4.2.8 0 1.2l-.1.2-.1-1.4z" class="st227"/><path d="M60.2 40.7v-1.2c.4.3.3.8 0 1.2z" class="st213"/><path d="M23.7 36.8l-.2-.5c.2 0 .4-.3.6-.1 0 .2-.5.3-.4.6z" class="st195"/><path d="M59.5 57.4l-.2-.2.4-.9c.4.5-.1.8-.2 1.1z" class="st204"/><path d="M59.7 45.5c0-.5-.2-1 .1-1.5.1.5.1 1-.1 1.5z" class="st227"/><path d="M56.2 18.2l-.2.2-.2-.5.2-.2c.1-.1.2-.1.2 0v.5z" class="st229"/><path d="M43.8 47.9l-.6-.7c.4.1.6.3.6.7z" class="st209"/><path d="M59.7 56l-.2-.5h.3c.1.2.1.4-.1.5zM59.5 55.5l-.4-.5c.4-.1.8-.1.4.5z" class="st204"/><path d="M23.7 30.9c.2-.2.4-.2.6-.1-.2.5-.4 0-.6.1z" class="st195"/><path d="M61.3 30.2V30c.5 0 .5.3.3.7l-.3-.5z" class="st230"/><path d="M42.9 35.7l-.2.7c-.3-.3-.1-.5.2-.7z" class="st191"/><path d="M59.5 47.2c0-.3-.1-.6.2-.9v.7l-.2.2z" class="st227"/><path d="M42.9 46.9l-.3-.4c.5-.2.5 0 .3.4z" class="st209"/><path fill="#07bcf7" d="M64.4 40.2h-.6.6z"/><path d="M48.1 38.4c.2.1.2.3.2.5-.3-.1-.6-.2-.2-.5z" class="st174"/><path d="M65.2 38.5c.3.1.4.4.4.7-.3-.1-.4-.4-.4-.7z" class="st179"/><path fill="#bfcecf" d="M58.5 10.6v-.2h5.7v.2H58.5z"/><path d="M24.6 86.7c.6 0 .8.9 1.5.6-.6.7-1.2.5-1.9.3-.2 0-.5-.2-.1-.3.3-.1.5-.2.5-.6z" class="st38"/><path d="M23.6 88.6c-.2-.1.2-.3.2-.6.2.2.1.5.1.7l-.3-.1z" class="st39"/><path fill="#7c7a78" d="M37.7 87.1c-.4-.5-1.1-.4-1.7-.7l.4-.2a4 4 0 0 1 2.5 1.2l-.2.2c-.3-.1-.6-.5-1-.5z"/><path fill="#807e7b" d="M38.7 87.6l.2-.2c.4.2.6.6.7 1.1h-.1-.1l-.7-.9z"/><path fill="#cccbc8" d="M33.5 86.7c.1.1.4.1.1.3l-.7.4c-.8-.1-.6 1-1.3 1.1-.4.1 0 .8-.5 1-.2-.1-.2-.4-.2-.6l.3-.8.5-.6.5-.4c.4 0 .8-.4 1.3-.4z"/><path fill="#cecdc9" d="M30.9 89c.2.1.2.3.2.6-.1.8.6 1.4.7 2.1h-.2c-.4-.4-.6-.9-.9-1.4v-.7c.1-.2 0-.4.2-.6z"/><path d="M33.6 92.7c.6-.4.2-.5-.2-.5-.2 0-.5.2-.4-.2 0-.2-.3-.6.4-.4.6.2.1-.5.4-.6l.5.1.2.2c.4.5.9.3 1.4.3.3-.2.7.3.9-.2l.1-.2h.2c.1.1.4-.5.3.1 0 .4-.1.9.4 1.1v.2l-1.4.4h-2c-.4-.1-.6 0-.8-.3z" class="st237"/><path fill="#c3c4be" d="M16.6 86l-.1-.6c-.1-.5-.1-.5.5-.5.2.9-.1 1.9.2 2.8.6.3.7 0 .7-.5 0-.4 0-.8.5-.8.4 0 .5.4.6.8.2.8-.1 1.4-.9 1.9l-.9.4c-.3 0-.5.1-.7-.2 0-.4-.4-.6-.5-1-.1-.8 0-1.6.6-2.3z"/><path d="M17.3 89.4c.7-.4 1.6-.7 1.5-1.8l-.1-.6c-.1-.2-.1-.5-.4-.4-.3.1-.3.3-.2.6.2.4-.1.5-.3.7-.2.2-.5.2-.6-.1.2 0 .4 0 .5-.2-.3-.9-.2-1.8.2-2.6l.2-.2c.5.2 0 .8.3 1 .3.2.6-.7.9 0l.1.1v.1c-.2.4.2.7.2 1.1.3 1.2-.7 2.5-1.9 2.5-.2.1-.4.1-.4-.2z" class="st239"/><path fill="#969490" d="M17.3 89.4c.7.2 1.3-.1 1.7-.7.6-.7.5-1.5 0-2.2-.2-.4-.4-.6.2-.5.8.5.8 1.3.7 2.1-.1.7-.5 1.4-1.4 1.6-1.8.3-2.7-.2-3.2-1.6.3-.3-.2-.8.3-1.1.3.2.3.4.3.7 0 .6.4 1 .7 1.5.2.3.5.2.7.2z"/><path d="M18.6 89.7c1.4-1.2 1.6-2 .7-3.7v-.2c1 0 .7 1 1.1 1.4-.1.5-.4 1.1-.1 1.6 0 .1.1.3-.1.3-.7 0-.9.9-1.6 1v-.4z" class="st122"/><path fill="#c9c8c4" d="M16.6 89.2c-.9-.5-.9-1.3-.9-2.1-.1-.5.1-.7.6-.9l.3-.2c.1.6-.6 1-.4 1.6.1.5 0 1 .5 1.3.3.2.1.3-.1.3z"/><path fill="#908e8b" d="M17.9 85l-.2 2.6c-.3 0-.4-.2-.4-.5v-1.7c0-.3.2-.5.6-.4z"/><path fill="#8a8882" d="M16.3 86.2l-.6.9c-.4.3 0 .8-.3 1.1-.1-.6-.1-1.2.3-1.8.1-.3.3-.5.6-.2z"/><path d="M17.2 87.8c-.4-.9-.3-1.9-.2-2.8.4.9.1 1.9.2 2.8z" class="st239"/><path d="M18.4 76.5c.7.1 1.4-.2 2.1.2-.7-.1-1.4.2-2.1-.2zM15.7 76.3c.5.1 1.1-.2 1.6.2-.5-.1-1.1.2-1.6-.2z" class="st9"/><path fill="#4dc5fe" d="M61.7 30.8c0-.3 0-.6-.3-.7-.2-.3-.4-.6-.4-1 1.1-.6 2.4-.3 3.4-1.3.2-.2.8-.1 1.2-.2 1.2-.1 2.1-.9 3.2-1.1 1.6-.2 2.9-1.2 4.4-1.4 1-.2 2-.6 2.9-1 .4-.2.8-.4 1.2-.2l.2.1c1-1.1 2.5-.7 3.6-1.4.8-.5 1.8-.7 2.6-1 .8-.3 1.6-.2 2.3-.6.4-.2.6-.3.7-.8.3.3 0 .6.3.9.4-.3 0-.8.3-1.2.2.3 0 .7.2 1.1.2-.3-.1-.7.3-.9V22c-1.6.7-3.4.9-5 1.7-.3.1-.6.3-.8.2-.8 0-1.5.1-2.1.7l-.4.1c-.1.1-.3.2-.4.1-1-.3-1.8.3-2.7.6L73 26.5l-.5.1c-.9.7-2.2.8-3.2 1.3-1 .6-2.2.6-3.2 1l-.7.2c-.5.4-1.1.6-1.8.6s-1.4.2-1.8.8c0-.1.1.1-.1.3z"/><path d="M60.6 28.5c-.2-.5-.6-1-.7-1.6.1-.1 0-.3.2-.4.5.3.3 1 .7 1.4.3.3 0 .4-.2.6z" class="st133"/><path fill="#63cdfd" d="M60.1 26.5c0 .1 0 .3-.2.4-.4-.6-.8-1.2-.9-1.9.1-.2.2.7.4 0 .1-.4.4-.6 1-.6 1.1.1 2.3.2 3.4-.6l.2-.1c1 .2 1.4-.6 2-1.1.1-.1.2-.3.4-.3.7.2 1.1.1 1.2-.7 0-.2.3-.2.5-.2.7 0 1.4-.1 1.8-.9l.2-.2c.9 0 1.8-.5 2.7-.6.8-.1 1.4-.3 2-.7.5-.4 1.3-.7 1.9-.7.7-.1 1.3-.3 1.9-.7a3 3 0 0 1 1.6-.5c.6 0 1.2-.2 1.7-.5.9-.7 2.1-.5 3.1-.9.8-.4 1.7-.6 2.4-1.3l.6-.3c-.1.5.1 1.1-.1 1.6-.5 1-1.5 1.2-2.4 1.4-.5.2-1.1.1-1.5.6l-.3.2c-2.1.1-3.9 1.2-5.8 1.8-1.6.5-3 1.4-4.8 1.4-.4 0-.6.3-.8.4a8 8 0 0 1-3.1 1c-.2 0-.3.1-.4.3-.5.8-1.4 1-2.2 1.2a2 2 0 0 0-1 .6c-.7.7-1.4.8-2.3.5-.6-.2-1.3-.4-2-.2-.5.2-.9-.1-1.4-.2-.2.5 0 1 .1 1.5l.1.3z"/><path fill="#7dd6fe" d="M60.8 21.2c.3-.2.7-.4.5-.9l.1-.1c.3-.4 1.1-.4 1.2-1.1.5-.9 1.3-1.6 1.6-2.6 0-.2.3-.2.4-.2 1.1-.2 2-.7 3-1 1.9-.7 3.8-1.5 5.8-1.7.6 0 1-.4 1.5-.6 1.4-.5 2.8-1.1 4.3-1.5-.1-.3-.5-.3-.4-.6h3.9v.2h-.3c-.2.2 0 .1.1.1h.7c0 .3-.2.4-.3.4-2 .2-3.7 1.3-5.6 2l-6.7 2.1c-1 .3-2 1-3.1 1.1-1 .1-1.7.6-2.5 1.2-.4.3-.1.8-.5 1a6.7 6.7 0 0 0-2.8 2.2h-.9z"/><path fill="#36bdfd" d="M70.7 35.3c-.2.6-.3-.2-.4 0l-.1-.2v-1.4c0-.2.1-.4-.3-.4-.4.1-.4.5-.6.8-.1.2-.1.4-.3.4a.4.4 0 0 1-.4-.4c-.1-.4-.4-.8-.7-1.1v-.3c.9-.1 1.6-.9 2.6-.4h.2c.6-.9 1.7-.6 2.4-1.1.6-.3 1.1-.6 1.8-.6.9 0 1.8-.3 2.4-1 .2-.2.4-.1.7-.1 1 0 1.8-.3 2.8-.7 1-.4 2-1.2 3.2-.9h.3c.8-.7 2-.9 2.8-1.7.6-.6.2.4.4.2.4-.1.1-.5.4-.6.2.5.1 1 .1 1.5-.1.5-.3.8-.9 1-1.3.4-2.6 1.1-3.9 1.4-.9.2-1.8.7-2.8.6-.4-.1-.8.4-1.2.6-.6.4-1.3.5-2 .6-.4.1-1.1 0-.7.8l.1.2v.1c-.5.7-1.2.4-1.9.5-.5.1-1.1-.2-1.4.5-.1.1-.3.1-.4 0l-.3-.4-.2-.1a2 2 0 0 0-1.1 0c-.3.1-.1.3-.1.4v1.3l-.5.5z"/><path fill="#31bbfd" d="M76.3 32.5c-.3 0-.6-.1-.6-.4 0-.3.2-.4.5-.5l.8-.3c1 .2 1.9-.4 2.4-.9.8-.8 1.8-.3 2.6-.7 1.4-.6 2.9-.8 4.2-1.6l.3-.2c1.1.1 1.3-.5 1.3-1.4v-.8-.5h.2v2.4c-.2.5 0 1-.1 1.4-.2.5-.6.6-1.1.6-.8.1-1.7 0-2.5.5-1.2.7-2.4 1.1-3.7 1.4-.3.1-.6.2-.7.5-.2.5-.4.6-1 .4-.8-.2-1.7.3-2.4.9-.7-.3-.2-.6-.1-1 0 .3 0 .3-.1.2z"/><path fill="#4f4040" d="M67.8 33c.9-.1.6 1 1.1 1.3.4-.4.1-1.3 1-1.3.2 0 .2.1.2.2l-.1 2.1c0 .2-.2.1-.3.2-.3-.3 0-.8-.2-1.1-.1-.2-.1.1-.2.1-.3.3-.1.9-.6 1l-.6-1.6c-.2-.2-.5-.2-.6-.4l.1-.4.2-.1z"/><path fill="#564234" d="M66.3 33.4c-.6-.1-.7.2-.7.8 0 .4.2.9-.2 1.2-.2-.5 0-1 0-1.6.1-.1.1.1 0 0-.2.5.1 1-.2 1.5-.3-.5 0-1.1-.2-1.6-.1-.4-.7 0-.6-.5 0-.3.3-.2.5-.3.1-.1.2-.1.4 0h1v.5z"/><path d="M88 41.2h-.2c-.5-.6-.2-1.4-.3-2.1v-1.3-1.4-2c0-.4-.1-.8.2-1.2l.3-.1v8.1z" class="st185"/><path fill="#4b5f6c" d="M67.1 35.4c-.4.3-.6.1-.6-.4v-1.9c.2 0 .4 0 .5.2.5.6.5 1.3.1 2.1z"/><path fill="#19b5f9" d="M88 33.1h-.2c-.5-.6-.1-1.3-.3-1.9 0-.6-.1-1.2.3-1.8.1-.5-.2-1.1.2-1.6v5.3z"/><path fill="#32c6fc" d="M67.1 35.4v-2.1h.3c.3.8.4 1.5 0 2.3 0-.1-.1-.2-.3-.2z"/><path fill="#3e9ebe" d="M67.5 35.5v-2.3l.2-.1v.5c.4.5-.1 1.3.3 1.8-.1.2-.3.1-.5.1z"/><path d="M66.2 33.1h-.3l.3-.6.3.6h-.3z" class="st175"/><path d="M78.6 10.8c.2.4 1 .2 1 .6 0 .6-.7.1-1 .4-.5.5-1.2.2-1.6.5-.9.6-2 .6-2.8 1.2-.5.4-1.1.3-1.6.5-1.3.3-2.7.2-3.8 1.3l-.3.2c-1.3-.2-2.2.7-3.2 1l-.7.1c-.2 0-.5 0-.5.3-.2.8-.6 1.5-1.2 2-.2.1-.2.3-.2.5-.4.5-1.1.5-1.4 1.1l-.8.4c-.7.3-1.4 0-1.5-.6-.2-1.3-.8-1.7-2.1-1.3l-.2.1c-.4-.1-.3-.5-.5-.7v-.5c0-.3.1-.2.3-.2.1 0 .2.6.2 0 0-.2.1-.4.3-.3.6.2 1.1 0 1.7-.1.4-.1.7.2.6.6-.1.4 0 .6.3.9.6.5.1 1.1.2 1.7.5-1.3 1.6-1.8 2.7-2.3.5-.2.5-.8.3-1-.6-.8-.1-1.1.4-1.5l.2-.2.3-.1c1 0 1.9-.2 2.7-.9l.6-.2c1.1 0 2-.5 2.9-.8 2-.8 4.1-1.4 6.2-1.9l-1.2.1h-1.8c-.6-.1-1.3.3-1.7-.4 2.5-.5 4.9-.5 7.2-.5z" class="st138"/><path d="M63.8 15.2h-.2l-2.7.6c-.6 0-1.1-.1-1.6.3l-.2.1c-.7.1-1.4.2-1.9.7l-.4.1c-.3-.1-.8.3-1.1-.2-.4-.3.2-.7-.2-1.1 1.2.2 2.2-.1 3.1-.4l.7-.1c.5 0 .8-.2 1.2-.5.7-.7 1.7-.9 2.7-.9.5 0 1.1.1 1-.7 0-.2.2-.4.3-.3.7.1 1.2-.4 1.8-.4.3 0 .5 0 .7-.3.3-.4.8-.2 1.1-.1.5.1.8.2 1-.4.1-.2.3-.4.7-.3.3.1.5 0 .6-.3.2-.2.5 0 .7-.2h.4c.6.4 1.2.1 1.8.2-.6.7-1.3 1.2-2.2 1.3-.5 0-.9 0-1.2.6-.1.2-.3.3-.4.3-.9-.1-1.7.4-2.5.5-.8.1-1.5.7-2.3 1.1-.3 0-.6.2-.9.4z" class="st229"/><path d="M71.2 10.8c-.2.3-.5.2-.7.2h-1.6c.2-.3.5-.1.7-.2h1.6z" class="st138"/><path d="M20.8 76.1l-1.7.2c.5-.3.9-.9 1.7-.2zM27 74.5c-.3-.5-.3-.7-.1-.9h.2c.1.2-.1.5-.1.9zM26 75.4c.2-.3.3-.6.7-.4-.2.3-.4.4-.7.4zM26.7 75.1c.1-.3.1-.5.4-.5 0 .3-.2.4-.4.5z" class="st9"/><path d="M33.1 71.8c.6-.6.6-.7.4-1.7.7.2.8.6.8 1.2-.1.8-.9.2-1.2.5zM35.6 74.3c-.1.2-.2.4-.4.4-.3-.1-.4-.4-.4-.7 0-.2.1-.3.3-.3.2.1.4.3.5.6zM34.1 73.8l-.2.1-.1-.2.1-.1c.2 0 .2.1.2.2z" class="st255"/><path d="M87.8 39.1v3c-.3-.2-.1-.5-.3-.8-.1.3-.1.8-.6.5-.2-.2-.4-.1-.5.1-.4.5-1.1.4-1.5.7-.7.4-1.1.2-1.5-.3l-.4.1c.1 0 .3-.1.4 0 0 .3.1.5-.2.7l-.2.2c-.5.3-1.1.2-1.6 0-.1-.2-.2-.3-.4-.3-.3-.1-.5-.2-.4-.5.2-.2.5 0 .7-.2.1 0 .1-.1.2 0-.1-.1-.2 0-.2 0-.3.1-.6 0-.9.3-.2 0-.5.1-.6-.2-.1-.2.1-.4.3-.5.3-.2.6-.4 1-.4 1.6-.2 2.9-1.1 4.5-1.4.3 0 .5-.2.7-.3.2-.1.5-.4.7-.2.3.2.1.5.1.8.3-.5-.3-1.4.7-1.3z" class="st178"/><path d="M38.7 96.9c0 .2.1.5-.2.6l-.2-.1c-.1-.4.2-.4.4-.5z" class="st52"/><path fill="#b7b6b1" d="M49.1 81.3c.8-.6 1.6-.4 2.3.2l-.3.4-.5.2-.4-.2c-.1-.1-.3-.2-.5-.1l-.3-.1-.3-.4z"/><path fill="#afada9" d="M51.1 81.8c0-.2.1-.3.3-.3.2.3.5.5.5.9-.4.3 0 .8-.3 1.1l-.9-.1c-.3 0-.6-.1-.6-.6.3-.5.7.2 1-.2.2-.3 0-.6 0-.8z"/><path fill="#9c9a95" d="M49.1 81.3c.3 0 .3.1.2.3-.1.4-.2.9-.6 1.1-.2-.1-.1-.3-.2-.4 0-.4.3-.8.6-1z"/><path d="M52.3 80.6c.2.5.7.5.5 1-.1.3-.6.1-.5-.2.1-.2-.1-.4 0-.8z" class="st77"/><path fill="#9d9c96" d="M49.3 84.1l-.2.3c-.3-.3-.6-.6-.7-1.1.1-.1 0-.3.2-.4.4.1.4.5.6.8l.1.4z"/><path d="M52.7 83c-.3-.4-.3-.8 0-.9.3-.1.3.1.2.4-.2.1-.1.3-.2.5z" class="st77"/><path fill="#8e8b85" d="M48.6 83c0 .1 0 .3-.2.4-.1-.4-.3-.7 0-1.1l.2.4v.3z"/><path fill="#c8c7c3" d="M46.5 83.1c-.2-.3-.2-.6 0-1v1z"/><path d="M56.9 89.4c.3-.2.7-.2 1.1-.2-.4.3-.8.1-1.1.2z" class="st53"/><path fill="#a4a19c" d="M33.8 90.1v-1.6c.2-.2.4-.2.6-.1.3.1.4.5.5.7.2.3.2.8.7.9l.2.3c.1.3 0 .6-.2.9-.4.4-.6.1-.9-.1-.3-.4-.2-.9-.4-1.3-.1 0 .1-.2-.1-.1-.1.1-.1.4-.4.4z"/><path fill="#cbcac4" d="M34.5 88.5h-.7c-.1 0-.3-.1-.2-.2.4-.3 1-.4 1.2 0 .2.4.7.7.7 1.3v.5c-.8.2-.6-.5-.7-.8-.1-.3 0-.7-.3-.8z"/><path fill="#a3a29d" d="M35.7 89.4l.2-.7c.8-.3.9.1.9.8l-.1 1.7-.1.2c-.6 0-.5-.4-.5-.8 0-.3.1-.7-.1-1-.2 0-.2-.1-.3-.2z"/><path fill="#b8b7b2" d="M36.6 91.3v-.2c-.1-.5-.1-1 0-1.6 0-.5.1-1-.7-.9.4-.2.7-.4.9.2.2.8.1 1.5 0 2.3v.2c-.1.1-.2.1-.2 0z"/><path fill="#878681" d="M33.8 90.1c.3-.2.1-.6.3-.7.3.6.4 1.2 0 1.8-.2 0-.3 0-.4-.2l.1-.9z"/><path fill="#cfcec9" d="M36.8 91.2v-2.3c.2 0 .3.1.3.3-.2.6 0 1.3-.1 2h-.2z"/><path d="M33.3 90.9c.1.2-.1.3-.2.3-.2 0-.3-.2-.3-.3 0-.2.1-.3.3-.3.2-.1.1.2.2.3z" class="st237"/><path fill="#94918c" d="M35.7 89.4l.2.2c.2.3.1.5-.2.7l-.2-.2v-.5l.2-.2z"/><path d="M50.2 82.5c0 .4.2.5.6.5.3 0 .7-.2.8.3-.1.2-.2.5-.5.5-.1.1-.2-.1-.3-.1-1.1-.2-1.2-.2-1.2-1.3.1-.3-.1-.6.1-.9.3-.3.5-.2.5.2.1.3.2.6 0 .8z" class="st56"/><path fill="#c7c7c0" d="M49.7 82.5c.1.7.1 1.5 1.2 1.1l.2.3c-.5.6-1.2.4-1.8.2l-.2-.2c0-.4-.3-.8-.2-1.3 0-.2.1-.5.4-.5.3 0 .4.1.4.4z"/><path fill="#edeeeb" d="M100 37.7V15.6 4.8c0-.3.1-.6-.2-.8-.1-1.7-1.4-3-3.1-3h-2.9L86.9.9c-6-.2-12 0-18.1-.2C62.9.5 57 .7 51.1.7L48.2.5C42.3.4 36.4.6 30.6.3c-6-.2-12 .1-18-.2C9.7-.1 7 0 4.2 0a2 2 0 0 0-1.5.6c-1.3.5-1.4 1.6-1.4 2.8v.5l-.1 6.3c-.2 4.3 0 8.7-.2 13-.2 3.4 0 6.9 0 10.3 0 1.5-.3 2.9-.3 4.3L.6 53.2c-.2 6.3 0 12.7-.2 19v3.4 21c0 .3-.1.7.2.9.3-.4.2-.7 0-1.1V96v-.5-1.2-.2c.1-.9.3-1.7.2-2.6 0-.8.2-1.6-.2-2.4v-.5c.2-.3.2-.6.2-.9v-1.8-3.2-.4c.3-.3.2-.6 0-.9v-.5c-.1-.4.4-.8 0-1.2-.2-.1-.2-.2 0-.4.2-.3.1-.6.1-.9 0-.5-.2-1-.1-1.5v-2.5L1 74h.3c.3-.1.6 0 .9.1l5.4 1.2c2.3.5 4.6.9 7 1l.2-.2h1c.5.2 1.1-.1 1.6.2h1.1c.7.2 1.4-.1 2.1.2h2.6c2.3.1 4.5-.3 6.8-.4.4 0 .9-.1 1.3-.4.4-.3.9-.4 1.3-.2.7.4 1.3.1 1.9-.1 1.4 0 2.8-.4 4.2-.6l4-.6c.1-.2.4-.2.6-.2l2.3-.4.5.1 7.4-1.3 8.5-1.6.6-.1.2-.2.2.1c.9.1 1.7-.3 2.5-.4 3.6-.5 7.2-.9 10.8-1l1.9-.1c1.7-.2 3.5-.1 5.2 0l3.9.3c2.4.3 4.9.4 7.3.8 1.7.3 3.3.7 5 .9l.3-.2v-9.4c-.1-7.8.2-15.8.1-23.8zM1.6 52s0-.1 0 0c0-.1 0-.1 0 0v-.1.1zm2.7-41.9zm3.4-6.6zm1.4 51.8zm57.7-46zM42.5 4c-.1 0-.1 0 0 0-.1 0-.1 0 0 0zM30.4 8zM19 6.7zm-8.7 5.5s-.1 0 0 0c-.1 0-.1 0 0 0-.1 0-.1 0 0 0zm0 25.8c-.1-.1-.1-.1 0 0-.1-.1 0-.1 0 0 0-.1 0-.1 0 0zm.2-19zm77.6 18.5v3.9c0 .8.1 1.6-.1 2.4v21.3H75.8l-1-.1H13.5l-.6.1c-.4-.1-.4-.3-.5-1.3v-1.9c.2-.4.1-.9.1-1.3l.1-14.1c-.1-.4.1-.9.1-1.3V30.9l-.1-.1.1-.1c.3-.6 0-1.3.3-1.9v-1.2-15.7l.3-1.5v-.2l-.1-.1c.4.2.8.3 1.2 0h.1l.1.1c1.9.1 3.7.4 5.6.2l.2-.2v-.1c.3.2.6.2 1 .3 1.9.2 3.9 0 5.8 0h11.5l2.5.2c1.8 0 3.5-.3 5.3-.1l4.1.2h12.6l1 .1h6.5c.3 0 .5 0 .7-.2v.1l.2.2c.4.2.8.1 1.2.1H82l1.2.1.8.1h2.6c.4.1.9-.2 1.2.2l.1.5v23.4c0 .4-.1.9.2 1.3.1.1.2.1.2 0-.3.1-.2.5-.2.9zm.8-16.6zm2.6 41zm4.8-45.4zm2.3 54z"/><path d="M57.6 43.1v.9c-.2.2-.3.5-.3.8.1.8-.3 1-1.1 1h-4.3c-.3 0-.7.1-.8-.3.2-.5.7-.2 1.2-.5-.9.1-1-.2-1-.9l.2-3.1c0-.5.3-.6.7-.6.6 0 1.3 0 1.9-.2h-2.5v-.3h2.6c.4 0 .8.2 1.1-.1.2-.2.6-.2.7.1.1.5.5.5.8.5l.4.2c.1.2-.1.3-.2.4l-.5.3c-.2.2-.5.4-.3.6.1.2.3.5.7.5.5.1.3-.3.3-.5 0-.3 0-.6.4-.2.3.4-.4 1 0 1.4z" class="st174"/><path d="M50.5 45.9l-.7.7c-.3.5-.6 1.1-1.4.9-.5-.5-.3-1.2-.2-1.8v-.9c.2-.4 0-.9.1-1.3l.1-1.5c.2-.5 0-1.1.1-1.6.1-.3-.1-.8.3-1.1.4-.2.6-.9 1-.7.6.3 1.1.8 1.2 1.5v.6l-.1 1-.1.8c-.1 1.2 0 2.3-.3 3.4z" class="st227"/><path d="M57.2 46.2c.3.5.8.8 1 1.4.1.6-.1.8-.7.8H49.8l-.7-.2-.2-.3c.2-.6.7-.9 1.2-1.1l.8-.7c2.1-.1 4.2-.2 6.3.1z" class="st271"/><path d="M49.5 29.2c.2-.6.4-.6.8-.1 1 .9 1.4 2 1.2 3.4-.2 1.1-.1 2.2-.1 3.3-.2.6.1 1.3-.5 1.7-.3.2-.5.6-1 .5-.3-.3-.7-.5-.7-.9 0-.2-.2-.5.1-.6.1 0 .3 0 .4-.2v-.2l-.1.3c-.2.1-.3-.1-.4-.2v-.8l.1-1.2c-.1-1.8.3-3.4.2-5z" class="st182"/><path d="M51.2 39.1l-.9-.9c-.1-.4.2-.5.4-.8.3-.3.6-.6 1-.6h6l.7.8c.2.2.2.4 0 .7-.3.4-.5.9-1.1.8H51.2zM59.5 27.9c.5.1.7.3.2.7l-.4.5c-.6.2-.8.8-1.4.9-1.8 0-3.7-.4-5.5 0-.7.2-.9-.3-1.2-.7 0-.4-.4-.5-.6-.8 0-.5.4-.5.7-.5 2.2 0 4.4-.1 6.6.1.7.1 1.1-.3 1.6-.2z" class="st271"/><path fill="#240d0c" d="M59.5 27.9c0 .5-1.2-.2-.7.8-.4-.1-.4-.5-.8-.5l-6.7-.1c-.4 0-.6 0-.4.5.1.1.1.2 0 .2l-.7-.7c.3-.3.7-.4 1.2-.4h7.4c.3 0 .5 0 .7.2z"/><path fill="#260b0b" d="M52.5 30.1c-.1-.2-.2-.5.2-.5 1.6 0 3.2.3 4.7.1.3 0 .4.1.5.3-1.8.2-3.6.2-5.4.1z"/><path fill="#240608" d="M51.2 39.1c.2-.3.5-.2.8-.2h4.7c.3 0 .7-.1.9.2-.1.3-.3.2-.5.2h-5.5l-.4-.1c.1-.1.1-.1 0-.1z"/><path fill="#07aedf" d="M57.9 37.2c-.3-.3-.6-.3-1-.3h-4.5c-.7 0-1.3.2-1.7.8a.3.3 0 0 1 0-.4c.6-.4.6-1 .7-1.6-.1.9.3 1.2 1.2 1.1H57c.4 0 .7 0 .9-.3l.2.5-.2.2z"/><path d="M51.3 39.2c2.1 0 4.2.2 6.4-.1l.9-.7c0 .2.1.3.2.3 0 .3-.2.4-.4.5l-.5.4c-.2-.3-.6-.2-.9-.2h-5.3c-.4.1-.4 0-.4-.2z" class="st276"/><path fill="#280908" d="M49.5 29.2c.3.7.2 1.4.1 2.1-.2 1-.1 1.9-.1 2.9-.2.3 0 .7-.2 1.1v.9c-.1.1 0 .3-.2.4.1.2.3.4 0 .5H49c-.2-.4-.1-.8-.1-1.2h.1c.2-.5 0-1 .1-1.5v-.8c.2-.4 0-.9.1-1.3v-.6c.2-.6 0-1.2.2-1.8l.1-.7z"/><path d="M57.6 43.1c-.3 0-.4-.2-.3-.5l.1-.9.2-1.3c.3.9.1 1.8 0 2.7z" class="st193"/><path d="M50.1 46.8l-1.2 1.1c-.1-.2-.5-.1-.5-.4.7 0 .9-.6 1.4-.9.1.2.2.2.3.2zM50.5 45.9l.4-3.4c.1 1.1-.1 2.2-.1 3.2l-.3.2z" class="st278"/><path fill="#280608" d="M59.4 29.6c.3-.1.4-.5.7-.5-.1.7-.5 1-.9.9l.2-.4z"/><path fill="#06ade0" d="M50.7 37.3v.4l-.4.5-.5-.3.9-.6z"/><path d="M49.5 29.6c0 .6.2 1.3-.2 1.8 0-.5 0-1.2.2-1.8z" class="st281"/><path d="M48.6 40.3l-.1 1.6c0-.5-.2-1.1.1-1.6z" class="st174"/><path d="M48.1 41.5c-.7-.3-.4-.6 0-.9v.9z" class="st0"/><path d="M48.1 42.9v1c-.3-.4-.4-.7-.4-1 .1-.1.2-.1.4 0z" class="st174"/><path d="M49.1 34.2c0 .5.2 1-.1 1.5 0-.5-.1-1 .1-1.5z" class="st182"/><path fill="#07a0da" d="M48.9 35.7l.1 1.2c-.4-.4-.3-.8-.1-1.2z"/><path d="M48.4 43.5l-.1 1.3c0-.4-.2-.9.1-1.3z" class="st174"/><path d="M49.3 32.1c0 .4.2.9-.1 1.3a2 2 0 0 1 .1-1.3z" class="st281"/><path fill="#280307" d="M50.9 28.9v-.2c.2.2.6.3.4.7l-.4-.5z"/><path d="M50.9 41.7l.1-1c0 .4.2.7-.1 1z" class="st174"/><path d="M48.1 42.9h-.4v-.5h.2l.2.5z" class="st0"/><path d="M61.8 30.2c.4-.2.2-1.3 1.1-.9.5.2.9-.6 1.5-.1h.2c.6-.7 1.4-.6 2.1-.9l1.4-.4c1-.3 1.8-.7 2.7-1.2.2-.1.3-.3.5 0 .1.2.3 0 .4-.1.4-.6 1-.7 1.6-.7l.6-.2c1.3-.7 2.8-.9 4.2-1.6.5-.2.9.2 1.4.2 0 .3-.1.5-.4.5-3 .5-5.7 1.9-8.6 2.8-1.1.3-2.3.4-3.3 1.2-.3.2-.8.2-1.2.3-.6.1-1.2.2-1.6.6-.3.3-.7.4-1.1.3-.5-.1-.8.1-.9.6-.3.1-.3-.3-.6-.4z" class="st230"/><path d="M65.2 33h-.4l-.4-.3c.4 0 .7-.1.8.3z" class="st131"/><path fill="#14b2fc" d="M67.8 42.9c.4 0 .4.5.8.6.7.3.6-.2.7-.6l-.2-.5c.3-.1.3-.4.5-.6.2.3-.1.5 0 .8.4-.5.9-.6 1.5-.7.7-.1 1.4-.3 2-.7 1-.7 2.2-.7 3.3-1 .2-.1.5 0 .7-.2 1.1-1 2.4-.8 3.7-.9l.3-.2c.7-.2 1.4.1 2.1-.4.7-.5 1.5-1 2.5-.9.3 0 .5-.4.8-.5.5-.3.6-.3.9.2 0-.4-.3-.8.2-1.1l.2.1v1.2l-.1.5c-.2.3-.1.8-.8.5-.4-.2-1.3.2-1.9.5-1.3.7-2.8 1.1-4.3 1.5l-1.3.4c-.4.2-.9.1-1.5 0 .1.3.2.5.1.8h-.6c-.1 0 .1-.2-.1-.2s-.2.3-.3.4l-.2.3c-1.3.5-2.5 1-3.8 1.3-1.2.4-2.4 1-3.7 1.1-.2 0-.4.2-.4.4-.1.3-.3.4-.6.4-.8-.6-1-1.5-1.1-2.4.2 0 .5.1.6-.1z"/><path fill="#1eb5fe" d="M67 40.8c.4-.6 1-.8 1.5-1.1 1-.7 2.2 0 3-1 1.1.3 1.8-1 2.9-.9h.1c.5-.8 1.5-.6 2.3-.8.6-.2 1.2-.6 1.8-.7.3-.1.5-.2.3-.5l.3-.1c.6.4.9-.1 1.3-.3l.4-.2c.2-.4-.1-.8 0-1.2.1-.3.1-.7.5-.8.6.5.1 1.2.4 1.8.2 0-.2.4.3.3l2.2-1c.7-.3 1.4-.3 2.1-.4.6-.1.7.3.3 1.2-.6.8-1.6 1-2.4 1.3a7 7 0 0 1-2 .3c-.6 0-1 .3-1.4.5-1.7.8-3.4 1.5-5.3 1.9-1.2.3-2.4.7-3.5 1.4-.2.2-.5.2-.7.2-1-.2-1.5.4-2.1 1-.1.1-.1.3-.2.2-.4-1.1-1.4-.5-2.1-1.1z"/><path d="M86.9 34.8v-1c-1.9.1-3.5.8-5.1 1.7-.2-.1.2-.4 0-.5-.2-.3-.1-.7-.1-1 0-.6 0-.8.8-1 1.4-.4 3-.4 4.3-1.2.2-.1.4-.2.6-.1 0 0 .1.2.1 0 0-.3-.1-.5.3-.6V34.2c-.6.2-.4.9-.6 1.3l-.1.1c-.3-.1-.1-.5-.2-.8z" class="st179"/><path d="M87.6 36.4c-.4.4 0 .8-.2 1.2-.4-.7-.8-.4-1.1 0-.3.4-.5.6-1 .4-.5-.2-1 .1-1.4.4-.5.4-1.1.5-1.6.9s-.8-.4-1.3-.3c-.3-.8.5-.6.8-.9.5-.4 1.2-.7 1.9-.4.2.1.3 0 .5-.2.7-.6 1.5-1.3 2.5-1.4.6-.1.2-.4.3-.5.6-.1.7 0 .6.8z" class="st286"/><path d="M60.8 15.6c1 0 1.8-.6 2.8-.4 0 .5-.6.5-.8.9.6.3.5.8.5 1.3 0 .8-.8.5-1.1.8-.6.6-1.8.6-1.8 1.8 0 .4-.4.5-.7.4-.4-.1-.1-.4-.1-.6.2-.6.5-1.2-.4-1.4-.3-.1-.4-.3-.1-.6.2-.1.3-.3.1-.5-.2-.2-.4-.2-.6 0-.5.3-1.1.3-1.7 0l-.1 1.2c-.4-.2-.3-.5-.3-.7-.1-.2-.1-.3-.3-.1H56v-.2c0-.4.4-.4.7-.5l.4-.2c.6-.2 1.4-.3 1.9-.7h.2c.5-.3 1.1-.1 1.6-.5z" class="st223"/><path d="M56.7 17c0 .5-.6.2-.7.5l-.4-.7c.2-.1.6.3.8-.1.1-.1.3.1.3.3z" class="st229"/><path fill="#02a8f6" d="M67.3 43.1c.3.8.6 1.7 1.1 2.5.1.5.5.9.4 1.4l-.2.2c-.3.5-.6.9-1.3.7-.7-.2-.6-.8-.6-1.4v-2.6c0-.4.1-.8.4-1h.2c-.1.1 0 .2 0 .2z"/><path fill="#05c4fb" d="M76.8 42.4V42c.1-.1.2 0 .3.1.3 1.8.1 3.6.1 5.4l-.2.4c-.4-.9-.1-1.9-.2-2.8v-2.7z"/><path d="M79.3 35.7h-.4c0-.4-.4-.4-.5-.7v-.1c-.1-.4.1-.8-.1-1.1l-.5-.4h-.5c-.2.1-.4.3-.7.3l-.1-.1c.2-.5.4-.9 1.1-.7.4.1.1-.1 0-.2s0-.3.1-.2c.5.1.9.3 1.4-.1.1-.1-.1.4.2.5l.4-.6c.2-.2.5-.2.7 0 .2.2-.1.4-.2.6.6-.5.7-.5 1.2.3-.1.7-.3 1.4-.1 2.2.1.4-.1-.1-.2 0-.4-.2-.2-.6-.2-.9v-.3.2c-.1.3-.3.2-.5.2-.4-.2-.5-.6-.9-.8a2 2 0 0 0 .1 1.7c0 .1 0 .2-.3.2z" class="st289"/><path d="M76.3 32.7c.2.3-.3.7.2.9 0 .7.3 1.3.6 1.9-.7 0-1.3-.1-1.8.6a.8.8 0 0 1-.4-.2h-.2c-.3.1-.3-.1-.3-.3 0-.8.5-1.7 0-2.5.7-.2 1.4.1 1.9-.4z" class="st289"/><path fill="#2cbef6" d="M72.6 33.6l.3.2c.3.2.3.6.3.9 0 .3.1.6.4.9 0 .2.1.4-.1.5-.3-.2-.5-.6-.9-.2-.5-.4-1.3.2-1.7-.4.3-.2.7-.1 1-.2s-.1 0-.1 0c-.4-.1-.8-.2-.6-.7.1-.2.3-.2.4-.3-.2-.1-.5 0-.6-.4 0-.2 0-.3.2-.4.5-.2 1-.2 1.4.1z"/><path fill="#463838" d="M77.1 35.5c-.7-.5-.8-1.1-.6-1.9.2-.1.3-.4.6-.4l.3.1c0 .3-.2.5-.3.8-.1.6.1.8.8.6.2-.3.2-.5 0-.8-.1-.2-.3-.3-.2-.5.1-.1.2-.2.3-.1l.5.4V35.1c-.4.3-.9.5-1.4.4z"/><path d="M73.5 36.1v-.6a1 1 0 0 1 0-1c.1-.2.4-.2.6-.1.4.2.6.6.5 1.1 0 .2 0 .3.2.4 0 .1 0 .3-.2.4-.4-.1-.6-1-1.1-.2z" class="st183"/><path d="M74.7 36.2c-.4.2-.6.3-.8.1.2-.2.4 0 .8-.1zM74.9 35.9c.1 0 .3 0 .4.2 0 .1 0 .3-.1.2-.3-.1-.3-.3-.3-.4z" class="st183"/><path fill="#02a9f7" d="M22.5 34.1c-.7.5-1.5.2-2.2.3-.3 0-.3-.2-.3-.4-.2-1.6-.1-1.7 1.5-1.6.5 0 1.1 0 1.3.6.2.4-.1.7-.3 1.1z"/><path fill="#05bef6" d="M22.5 34.1l.3-1.2c.2.3.2.6 0 .9 0 .1-.1.3-.3.3z"/><path fill="#280304" d="M23 32.9c.4.2.1.6.2.9l-.2-.1c-.1-.2-.1-.5 0-.8z"/><path fill="#0c689e" d="M23 32.9v.8h-.1v-.9l.1.1z"/><path fill="#1481b5" d="M77 47.9v-5.8c-.1-.3 0-.4.3-.3l.6.1c.7.3.3.9.5 1.3l-.1.3-.4.1-.2-.2-.1-.4c0-.2 0-.3-.2-.5-.2.4-.1.8-.1 1.1-.1 1.4.1 2.7-.1 4.1l-.2.3c.1-.1.1-.1 0-.1z"/><path d="M77.2 47.9v-.2c.6-.5.4-1.2.4-1.9.1-.4-.2-1 .3-1.3v3.3c-.1.2-.4.2-.7.1z" class="st297"/><path d="M57.9 37.2l.2-.2.6.7c.1.2 0 .3-.2.2l-.6-.7z" class="st174"/><path fill="#280801" d="M60.6 29.3l-.1 1c-.1-.3-.2-.7.1-1z"/><path d="M58.5 37.8l.2-.2.3.4c-.2.1-.3.4-.5.4.2-.2.1-.4 0-.6z" class="st276"/><path fill="#4b4445" d="M71.2 33.6v.3c.3.2.7 0 1 .2-.1.7-.6.2-.9.4-.2.4-.2.6.3.6.3 0 .5-.1.7.1v.2c-.5.1-1.1.1-1.6 0h-.1l.1-.3v-1.4c.1-.1-.3-.3 0-.4.5-.1 1.1-.1 1.6 0h.1c-.2.5-.8 0-1.2.3z"/><path d="M69.4 34.5c0-.3.1-.5.3-.7.1.6-.1 1.2.1 1.8-.5-.3 0-.9-.4-1.1z" class="st300"/><path fill="#52291a" d="M70.1 35.3a3 3 0 0 1 0-2.1c.3.6 0 1.3.2 2v.1h-.2z"/><path d="M70.8 35.4h1.6c-.5.3-1.1.1-1.6.1.1-.1 0-.1 0-.1z" class="st302"/><path fill="#240c0a" d="M36.8 29.9l-.4-.5c1.6.4 3.3.3 5 .3.8 0 1.5 0 2.2-.2l-.4.4c-.2.2-.5.2-.8.2h-4.9l-.7-.2z"/><path fill="#2a1716" d="M81.4 43.2c.5-.1 1.1.2 1.6-.1.3.4-.1.5-.3.7l-.5.5c-.2.1-.2.3-.2.4-.2.9 0 1.7-.2 2.6-.5-.8-.2-1.8-.3-2.7l-.1-1.2v-.2c-.1 0 0 0 0 0z"/><path fill="#2c1d26" d="M82.7 43.8c.2-.2.4-.3.3-.7h.2c0 .4 0 .8-.5.7z"/><path d="M83.4 42.4l-.5.3c0-.4.2-.5.5-.5v.2z" class="st306"/><path fill="#260508" d="M42.6 39.1c-1.3.3-2.7.1-4 .1-.7 0-1.5.2-2.2-.1.2-.3.5-.3.7-.3a86.8 86.8 0 0 1 5.5.3z"/><path d="M81.4 43.2l-.2.1c-.4 0-.1.2-.2.3h-.1-.1c-.2 0-.6.7-.5-.2 0-.3-.3-.1-.4-.2h-1.8c-.3-.4.1-1-.3-1.4l-.1-.5c-.1-.2-.6 0-.5-.3.1-.4.5 0 .7 0 .6 0 1.2.2 1.7-.4.4-.4.9 0 1.4-.3 1.6-.7 3.2-1.2 4.8-1.7.3-.1.7-.3 1.1 0 .2.2.2-.1.1-.1-.2-.4.4-.4.4-.7.1-.1.1-.1.2 0V39c-.8.2-.4.9-.6 1.4-.3-.3 0-.7-.2-.9-2.3 1.2-4.8 1.5-7.3 2.6l.8.3c.3.5 1.2.2 1.1.8z" class="st306"/><path fill="#2b1619" d="M78.2 43.3c.6-.4 1.2-.4 1.8 0 .5 1.4.1 2.9.2 4.3 0 .3-.3.3-.5.3-.3 0-.4-.2-.4-.5 0-.9-.1-1.9.1-2.8.3.8 0 1.7.1 2.5-.1-1 .2-2-.1-2.9-.1-.6-.5-.7-1-.6-.2 0-.3 0-.2-.2.1 0 0-.1 0-.1z"/><path fill="#300501" d="M78 44.5c-.3.8-.1 1.7-.1 2.6 0 .5-.2.7-.7.6v-4.4c.3 0 .3.2.3.4l-.1 1v0c0-.3 0-.6.2-.8.1-.2.3-.2.3.1l.1.5z"/><path fill="#310101" d="M79.5 44.2c.1 0 .2-.4.2-.1a13 13 0 0 1-.2 3.4v-2.9-.4z"/><path d="M77.4 44.7v-1.1c.2-.1.3-.3.6-.2h.3l.2.2c-.1.2-.3.4-.5.4-.4.1-.3.4-.4.7-.1.1-.2.1-.2 0z" class="st311"/><path fill="#270903" d="M65.5 43.1c.1.1.3.1.3.3v3.8h-.3v-4.1z"/><path fill="#280201" d="M66.2 47.4v-3.7h.1v3.7h-.1z"/><path fill="#270a10" d="M68.7 48.6c-.5.5-1.1.4-1.7.4.5-.3 1.1-.5 1.7-.4z"/><path fill="#2f0307" d="M68.5 47.2h.6c-.4.3-.4.3-.6 0z"/><path fill="#240c0c" d="M24.9 31.5h4.2c.5 0 .8.1.4.7h-1.4V32h1.5c-.5-.4-.9-.4-1.2-.4H26c-.1 0-.6-.3-.4.3.1.2-.5.1-.8.2 0-.2-.2-.4.1-.6z"/><path fill="#4d4547" d="M68 35.4c-.5 0-.3-.4-.4-.7v-1.1c.4-.3.5 0 .5.4-.3.4 0 .9-.1 1.4z"/><path fill="#31ccfa" d="M66.3 33.4c.4.6.1 1.3.1 1.9-.3-.5.2-1.3-.5-1.7l.4-.2z"/><path fill="#533123" d="M65.2 35.4v-1.6h.2v1.6c-.1.1-.2.1-.2 0z"/><path fill="#24090f" d="M49.8 48.5c0-.2.1-.2.3-.2h7.5c.7 0 .4-.4.6-.6.5.6.4 1-.3 1-2.7-.2-5.4 0-8.1-.2z"/><path d="M57.2 46.2h-6.3c.2-.3.5-.2.8-.2h4.7c.3 0 .6-.2.8.2z" class="st278"/><path d="M58.8 47.2c.2-.2.5-.2.7 0-.2.6-.4.5-.7 0zM58.3 39.2l.4-.5c.4-.5.7-.1 1 .1v.2c-.4.5.3.6.2 1.1-.2 1.3-.1 2.6-.4 3.9-.1.7 0 1.5-.2 2.2-.1.6-.3.5-.6.3-.5-.4-.8-.8-.8-1.5 0-1.3 0-2.6.3-3.9.2-.5.1-1.2.1-1.9z" class="st227"/><path fill="#22111f" d="M36.8 29.9h6.4l-.1.2h-6.2l-.1-.2z"/><path fill="#0e749e" d="M36.9 30.1h6.2v.2h-6.2v-.2z"/><path fill="#381812" d="M69.3 42.9c.1.2.4.5.1.7-.2.2-.6.3-.7-.1.3 0 .4-.3.6-.6z"/><path fill="#12c7f8" d="M67.3 43.1l-.2-.2c.2-.1.5-.2.7 0-.1.3-.3.2-.5.2z"/><path fill="#04a8ec" d="M63.3 41.7l.1-.7c.4-.2.8-.3 1.2 0 .2.5.2.9-.3 1.1-.4.3-.7 0-1-.4z"/><path fill="#280c0a" d="M81.4 44.5c.4.8 0 1.8.3 2.7.3-.9-.1-1.7.3-2.5v2.4c0 .5-.2.7-.7.6v-.2c.2-1-.1-2 .1-3z"/><path d="M81.4 44.5c-.1 1 .2 2-.2 3v-4c.4.3.2.7.2 1z" class="st222"/><path d="M34.8 91c.2.1.4.4.7.2.1.1.2.1.2.3v.1c-.1.4-.7.2-.7.2-.3-.3-.6 0-.9-.1l.2-.5.1-.1.4-.1zM36.6 91.3h.2c-.1.1.4.6-.2.4l-.8-.2c.1-.4 0-.9.5-1.1 0 .4-.3.8.3.9z" class="st73"/><path fill="#bab9b4" d="M34.1 91.2v-1.8c.2-.1.4-.1.4.2-.2.5.2 1.1-.2 1.6h-.2z"/><path d="M61.3 20.3c.1-.8.9-.8 1.4-1.1-.1.9-.9.9-1.4 1.1z" class="st189"/><path fill="#4a3b3a" d="M74.6 35.5l-.1-.2c-.2-.3-.2-.8-.7-.7-.6.1-.2.6-.3.9-.5.1-.5-.1-.5-.5v-1.2c0-.5.2-.7.7-.7h.9c.5.3.8.7.3 1.2-.3.3-.1.5 0 .7.1.3.1.5-.3.5z"/><path d="M70.3 35.2c-.2-.6 0-1.3-.2-2L70 33c.6-.2.5.3.4.5l-.1 1.7z" class="st300"/><path d="M71.2 33.6c.3-.4.9.1 1.3-.4l.1.4h-1.4z" class="st329"/><path d="M72.4 33.2h-1.6c.6-.2 1.1-.2 1.6 0z" class="st302"/><path d="M70.8 33.6V35c-.2-.5-.2-.9 0-1.4z" class="st300"/><path d="M76.3 32.5c.2-.2.3-.3.6-.3-.1.3-.3.4-.6.4v-.1z" class="st289"/><path fill="#2bb9fd" d="M81.4 33.1c-.6-.6-1-.6-1.3.4-.3-.5.1-.8.2-1.1l-.6-.1c-.1-.4.2-.5.5-.6 1.6-.2 3-.9 4.4-1.6.3-.2.6-.3 1-.1.3.2.4 0 .6-.2.2-.2.4-.4.7-.1.4.3.6-.3 1-.2v1.8c-.2.5-.3.6-1 .9-.7.3-1.2.6-2.1.6-.7-.1-1.5.3-2.2.7-.5.3-.4-.1-.5-.3-.4.6-.2 1.3-.2 2-.6-.8 0-1.6-.5-2.1z"/><path d="M87.6 36.4c-.2-.2.1-.8-.5-.7v-.8c-.1-.6.2-.7.7-.6v2.1c-.1.1-.1.1-.2 0z" class="st176"/><path d="M87.6 36.4h.2v1.4h-.2v-1.4z" class="st286"/><path d="M63.8 15.2c.4-.7 1.2-.9 1.8-1.3 1.1-.6 2.3-1 3.6-1 .2 0 .5.1.5-.2.1-.8.7-.7 1.3-.7 1 .1 1.5-.8 2.3-1.1h3.5c-.9.7-1.9.8-2.8 1-1.2.3-2.3.8-3.5 1.2-1.1.4-2 1-3.2 1-.2 0-.4 0-.6.2-.8.8-1.8 1-2.9.9z" class="st223"/><path d="M59 16.1c-.5.7-1.2.8-1.9.7a2 2 0 0 1 1.9-.7zM60.8 15.6c-.3.7-1 .5-1.6.5.3-.7 1-.5 1.6-.5z" class="st229"/><path d="M80.6 42.4c.2-.4.4-.4.7-.2-.1.7-.5.1-.7.2zM81.3 42.2c.2-.2.4-.3.6-.1l-.1.2c-.2.2-.3-.1-.5-.1z" class="st306"/><path fill="#cbcbc5" d="M49.7 82.5c-.1-.1-.2-.3-.3-.2-.2.1-.3.3-.3.6 0 .4.4.7.1 1.1-.3-.2-.3-.6-.5-.9v-.3c.3-.3.2-.9.7-1.1h.4c-.2.2.2.5-.1.8z"/><path fill="#d0cfca" d="M51.1 81.8c.4.2.5.5.2.9-.9.1-.9.1-.7-.7.1-.2.3-.2.5-.2z"/><path fill="#a2a19c" d="M50.5 82c-.1.5.1.8.7.7-.4.4-.8.2-1.1-.2v-.7l.4.2z"/><path fill="#cecec9" d="M36.2 90.5c-.2.3-.2.8-.5 1.1l-.2-.4.2-.9.2-.7c.7.1.2.6.3.9z"/><path fill="#cfcdc8" d="M34.3 91.2c.1-.5-.2-1.1.2-1.6.2.4.1 1 .4 1.4-.2.2-.4.2-.6.2z"/><path d="M34.5 88.5c.5.1.3.4.4.7l-.4-.7z" class="st73"/><path fill="#8c8a85" d="M36.6 89.6v1.6c-.3-.6-.3-1.1 0-1.6z"/><path fill="#270503" d="M48.8 40.5v-.7c.2.2.1.4 0 .7z"/><path d="M49.1 36.4c0-.1 0-.3.2-.4.4 0 0-.5.3-.5 0 .4.2.9-.5.9zM49.3 35.2c.1-.4-.1-.7.2-1.1-.1.4.1.8-.2 1.1z" class="st281"/><path d="M77.3 41.8l-.3.3h-.2c.1-.2 0-.5.2-.6.2-.1.6-.1.3.3z" class="st306"/><path fill="#423a3f" d="M80.7 34.3c0-.4-.1-.8.2-1.3.3.8.1 1.5.2 2.1-.1.2-.2.2-.4.2-.6 0-.7-.6-1-.9-.1.3.1.6-.2.9-.7 0-.4-.5-.4-.8 0-.4-.3-1.1.2-1.2.6-.2.6.6 1 .9l.1.1c.1.1.2.3.3.2.1 0 .1-.1 0-.2z"/><path d="M79.5 35.4V34c.5.4.6 1.2 1.2 1.5-.7.7-1 .8-1.4.3l.2-.4z" class="st179"/><path d="M78.4 35v-1.3c.3.4.4.8 0 1.3z" class="st339"/><path fill="#3f4a51" d="M80.7 34.3c.2.2.1.3 0 .4-.3.1-.3-.2-.3-.4.1 0 .2.2.3 0z"/><path d="M78 33.2l-.3.3c-.1.1-.2 0-.3-.1l-.3-.2c.3-.2.6-.2.9 0z" class="st339"/><path d="M72.4 35.2h-.8c-.5 0-.6-.3-.3-.7-.1.3 0 .6.4.6.3 0 .6-.1.7.1z" class="st302"/><path d="M72.3 34.1c-.3-.1-.7.2-1-.2.3.1.7-.1 1 .2z" class="st329"/><path fill="#2ab6eb" d="M77.4 33.4l.3.1.4.3v1.1c-.3.2-.7.6-1 .1-.4-.6-.3-1.2.3-1.6z"/><path d="M78.1 34.8v-1.1c.2.4.2.8 0 1.1z" class="st339"/><path fill="#36120f" d="M77.9 43.5l-.6.2-.1-.3v-.6c0-.3-.1-.6.4-.6s.4.4.4.6v.3h-.3l.3.3-.1.1z"/><path d="M77.9 43.3c-.3-.2-.5-.3-.5-.8l.5.4v.4z" class="st311"/><path d="M77.4 44.7h.2v1.4h-.2v-1.4z" class="st297"/><path fill="#2fb8e7" d="M74 34.2c-.3 0-.5-.1-.5-.4 0-.3.2-.4.5-.3.3 0 .6 0 .6.4-.1.3-.4.2-.6.3z"/></svg>