<svg xmlns="http://www.w3.org/2000/svg" id="图层_1" viewBox="0 0 63.7 100"><style>.st0{fill:#f7dfbf}.st4{fill:#876639}.st6{fill:#fdf3ac}.st7{fill:#a4793e}.st9{fill:#eaac35}.st12{fill:#aa8340}.st23{fill:#fdf4a2}.st29{fill:#fadc7c}.st36{fill:#f7e2c1}.st37{fill:#f6ce6e}.st38{fill:#f3cf66}.st41{fill:#fbdf7c}.st42{fill:#e4a835}.st43{fill:#f9e7c8}.st46{fill:#ebcbaa}.st47{fill:#faeed1}.st72{fill:#dac7bf}.st79{fill:#b68b42}.st80{fill:#fdfdfd}.st94{fill:#ad904c}.st111{fill:#e6a834}.st112{fill:#e6ab38}.st113{fill:#edbe6c}.st122{fill:#eaae3a}.st123{fill:#e9b041}.st124{fill:#e6ad3e}.st126{fill:#eeba52}.st129{fill:#ebb658}.st130{fill:#f9db8c}.st134{fill:#f7da84}.st135{fill:#ecb837}.st137{fill:#c39a67}.st148{fill:#574f51}.st151{fill:#5f595a}.st158{fill:#fbfaf8}.st161{fill:#f9f5ed}.st171{fill:#f5d072}.st173{fill:#fbdd7b}.st181{fill:#e5a937}.st182{fill:#f9da87}.st183{fill:#e9bc6a}.st196{fill:#f3d775}.st207{fill:#e9af3a}.st215{fill:#f1c777}.st216{fill:#ba8a3d}.st235{fill:#d9b393}.st238{fill:#be9146}.st241{fill:#f6d378}.st242{fill:#fde98f}.st251{fill:#f4c75e}.st253{fill:#fce184}.st254{fill:#e4a53d}.st256{fill:#eaba67}.st260{fill:#e9af3d}.st261{fill:#f3c96a}.st265{fill:#eaaf3f}.st274{fill:#fadd91}.st278{fill:#ebb64d}.st279{fill:#fce283}.st292{fill:#efc46e}.st294{fill:#e8ab39}.st306{fill:#dac6bf}.st311{fill:#d7c8c5}.st312{fill:#ddd0ca}.st332{fill:#eabc6c}.st336{fill:#c7a74a}.st339{fill:#f4d385}.st348{fill:#fcf8e2}.st350{fill:#805a36}.st358{fill:#cca354}.st364{fill:#97703c}.st365{fill:#bc8d3e}.st366{fill:#c99c42}</style><path d="M63.4 87c.2.2.2.4 0 .6-3.2.9-6.3 2.1-9.4 3.1l-13.4 4.4c-.6 0-1.2.5-1.9.2a.2.2 0 0 1-.2-.2c-.2 0 .3-.3-.1-.2h-.6l-.4-.1-.8-.2c-.5-.3-.5-.5 0-.9 1 .7 2.1.7 3.2.2l-.4-.7c-.1-.3 0-.5.3-.5-.3-.1-.6-.2-.5-.6h.3c.7.5 1.5.5 2.3.5.4 0 .8.2.9.7-.2.3-.5 0-.8 0 .4 0 .6.3.9.4 0 .1.1-.1 0 0v-.1l-.1-.2c.2-.3 0-.9-.3-1-.2-.1-.5-.2-.4-.5.1-.3.4-.1.6-.1.3 0 .6.2.8.4.2.2.5.2.8.2.1 0 0-.1 0 0h-.1c-.7-.3-1.6-.3-2-1.2.1-.2.2-.2.4-.2.3 0 .6.3.9-.1l.2-.1c.2 0 .6.7.7-.1l.1-.2.8-.4c-.3-.8.3-.5.6-.5.3.1.5.1.8 0l4.5-1.3c.6-.2 1.2-.5 2-.6a8 8 0 0 1-1.8-.4c-.5-.2-1.1-.3-1.7-.1-.2.1-.5.1-.7-.1l.1-.2h-.7c-.8-.9-1.7-.9-2.6-.9l-.3-.1-.6-.4c-1.5-.4-2.9-.8-4.4-1-1-.1-1.8-.3-2.7-.7h-.1c-.8-.1-1.7-.2-2.4-.6a6.7 6.7 0 0 0-4.2.4c-1.2.3-2.5.4-3.7.9l-3.7.8-1.8.4-.8.1c-.5.2-1.1.3-1.7.3-.6-.4-1.2-.5-1.9-.4-.6.1-.9-.2-.8-.9 1-.5 2.2-.7 3.3-.8l3.4-.8 3.3-.7 1.9-.5 2.7-.5c1-.2 1.9-.6 2.9-.6h.2l7.7 1.7c.4.1.8.2 1 .6.1-.4.4-.3.7-.3 1.8.5 3.7.8 5.6 1.4 1 .3 2.2.3 3.2.6l10 2.2.9-.1z" class="st0"/><path fill="#e9ac32" d="M.2 56.9v-.5-7-1c.2-.2.3 0 .3.1.2.5.5.5.9.6l2.8.6h.1c.9-.4 1.8.2 2.8.1h.3c.4 0 .8.3 1.1 0 .3-.2.1-.7.2-1 .1-.4.1-.4.4-.3.2 1 .1 2 0 3l-.1 1v6.4c0 .9-.1 1-1 1H4.8c-.5 0-.7.3-.7.7 0 .5.3.6.8.6 1 0 2-.2 3-.1.3 0 .6-.1.9.2.1.3-.1.5-.2.8-.2.5-.5.5-.8.1-.1-.3-.3-.2-.6-.2l-2.1.1-.8-.1c-.6-.2-1.1-.4-1.5.2-.1.2-.4.2-.5.1-.5-.5-1-.2-1.5-.1-.2 0-.4.3-.5-.1l-.1-5.2z"/><path fill="#94703c" d="M37.9 6.1l7.3 3.8c-.5.6-.9 1.2-1 2 0 .4-.3.8-.4 1.2 0 .2-.2.2-.3.1l-.6-.3c.7.5 1.6.4 2.1 1.2.1.7.2 1.4-.1 2.1-.3.2-.5.1-.8 0l-7.6-3.4a2 2 0 0 1-.6-.4c-.2-1.1-.2-1.1 1.1-1.6-.3-.4-.9-.4-1.2-.8-.1-.1-.2-.2-.1-.4 0-.2.3-.4.2-.6-.7.1-.8 0-.5-.7l.6-1.1c.2-.3.4-.5-.2-.5-.5 0-.7-.4-.8-.8 0-.2-.1-.5.1-.7.2-.2.5 0 .7.1.7.1 1.3.5 2.1.8z"/><path fill="#fdf39c" d="M.2 47.3c-.1-3.2.2-6.4.1-9.6.2-.9.2-1.1 1.2-.9 2.4.3 4.9.3 7.3 1.2l.3.2c.3.8.1 1.6.1 2.3v2l-.1 1c0 .8-.2.9-1 .8a107 107 0 0 1-5.6-.7c-.7-.1-1.4.1-2-.4v3l-.1 1c-.1.1-.1.2-.2.1z"/><path d="M37.9 6.1c-.8 0-1.3-.6-2-.8-.2-.1-.5-.4-.7-.1-.2.2-.1.5 0 .8.1.3.3.4.6.4.2 0 .4-.2.5 0 .1.2 0 .4-.1.6l-1 1.9c.3-.2.6-.7.8-.3.3.4-.1.7-.4.9-.2.2-.4 0-.6 0l-8.8-4.1-.5-.4c-.2-.2-.2-.5-.2-.8 0-1.3-.1-2.7.1-4 .2-.3.4-.1.6 0 4 1.9 7.8 3.9 11.7 5.9z" class="st4"/><path fill="#ecb238" d="M.3 29.2v-6.1c.3-.2.5-.1.8-.1l7 1.7c1 .3 1.1.4 1.1 1.4 0 1.3.1 2.5-.1 3.8-.3.4-.7.4-1.1.3-1.1-.3-2.2-.6-3.4-.7-1.2-.1-2.4-.2-3.5-.5l-.8.2z"/><path d="M.2 74.8v-4.3c.3-.3.7-.3 1-.3a83 83 0 0 1 7-.7c.2 0 .5-.1.7.1.2 1.4.2 2.9 0 4.3l-.4.2c-1.2 0-2.4.4-3.6.3-1 0-1.9.4-2.8.4-.6.1-1.3.3-1.9 0z" class="st6"/><path d="M25.7.2c.3.6.1 1.3.1 1.9.1 1-.2 1.9.2 2.9l-.4.5c-1.6 1.3-3.4 2.4-5.1 3.6l-.5.2-.9-.1c-.6 0-1.7-1.4-1.7-2l-.1-.2c-.3-.1-.4.2-.7.3-.2.1-.4.3-.5-.1l9.6-7z" class="st7"/><path fill="#c09740" d="M8.5 13.1l4.2-3.2c.4 0 .5.3.5.6.1.8.6 1.3 1 1.9.2.3.6 0 .7.4-.2.6-.8.7-1.3 1.1-.4.3-.6.6-.5 1.1v2.2c0 .5.1.9.7 1.1.2.3-.1.4-.3.5l-1.3.9-1.3.9-1.2.8c-.2.1-.5.4-.7 0v-4.3c.2-.7.8-.9 1.3-1.2l.6-.4a7.8 7.8 0 0 0-2.4-2.4z"/><path d="M63.4 63.3v.9l-1.9.1c-.2 0-.5.1-.6-.2-.2-1-.1-1.9-.1-2.9 0-1.5-.1-3.1.1-4.6.3-.5.8-.2 1.3-.5-.2-.3-.4-.2-.7-.2-.4 0-.6-.1-.6-.4 0-.4.1-.6.5-.7l.8-.1c-.6-.2-1.5 0-1.2-1 .3-.4.9-.1 1.2-.4-.2-.4-.4-.3-.6-.3-.3 0-.5.1-.7-.2v-3.6c.5-.7.9-.8 2.1-.4.2-.3 0-.7.2-1 .1-.2.2-.4.3 0v14.6l-.1.9z" class="st9"/><path fill="#342c28" d="M.3 22.8v-1.5c0-.9 0-.9.9-.7.4.5.2 1.1.3 1.6.2.4.6.4.9.4L27.3 29l.8.2 5.6 1.4c.5.1.9 0 1.3-.1l11.1-3.4 15.1-4.6c.5-.2 1.1-.2 1.5-.6.1-.5-.1-1 .3-1.4.2-.1.4-.2.6-.1l.1.1c.1 2 .1 2-1.8 2.6l-7.1 2.2-13.5 4.1-6.4 1.9c-.6.2-1.1 0-1.6-.2-1.6-.4-3.2-.9-4.8-1.1l-17-4.3-5.9-1.6-4.8-1.2c-.4.1-.4 0-.5-.1z"/><path fill="#d8a438" d="M62.9 20.5v1.6c-.2.2-.4 0-.6 0l-5.1-2.4c-.7-.4-1.5-.5-2-1 .1-.6.2-1.2.1-1.8-.1-.4.5-.5.6-.9.2-.5.5-.4.8-.3l5.8 2.9c.3.1.4.3.4.6v1.3z"/><path d="M44.8 13.9l-2.4-1.1c.6-.1.9.3 1.2.3.5-1 .5-2.1 1.1-3 .1-.2.3-.2.5-.2 2.2 1 4.4 2.2 6.5 3.3-.1.4-.5.2-.7.2-.4 0-.5.2-.6.6-.1.6-.3 1.1-.6 1.6-.2.3-.4.3-.7.3l-.2-.1-2.1-1-2-.9z" class="st12"/><path fill="#f4ce67" d="M.3 34.9v-3.5c.4-.3.8 0 1.2 0 .5.1 1 .2 1.5-.2.3-.2.5-.2.8 0 .2.5 1.4 1.1 1.8.9.3-.1-.1-.4.1-.5.4-.2.7-.1.9.3.2.5.6.5 1 .6.5.2 1.2.1 1.6.6v2.2c-.2.3-.5.3-.7.3-1-.1-2-.3-2.9-.6l-.6-.2c-1.1.2-2.2-.2-3.4-.2-.6.1-1 .1-1.3.3z"/><path fill="#fbdb78" d="M.3 34.9c.1-.6.4-.5 1-.5 1.2 0 2.3.4 3.5.2l.4.1c1.2.5 2.5.7 3.8.7.4.9.4 1.9 0 2.8-1.1 0-2-.6-3.1-.7L1.5 37c-.6-.1-1.1 0-1.2.7v-2.8z"/><path fill="#fada6f" d="M.1 76.5v-.1c.4-.2.8 0 1.1 0L3 76c1.5-.4 3-.3 4.4-.5.5-.1 1-.2 1.4.2.2.7.2 1.4 0 2.1-.6.5-1.5.3-2.2.5l-.3.1c-.7 1-1.9.8-2.8 1.1-.3.1-.8.2-.9-.4 0-.2-1.1-.2-1.4 0-.4.2-.9.4-1.3 0 .2-.9.1-1.8.2-2.6z"/><path fill="#b38a3f" d="M14.9 12.7c-.6.1-1.1-.3-1.6-1.2-.3-.5-.1-1.2-.6-1.5l3.5-2.8c.5.2.6-.3.9-.4.2-.1.3-.2.5 0 .3.2.1.3 0 .5-.3.5 0 .7.4.8.3.1.5.2.5.6 0 .3.2.5.5.4.3-.1.6.1.9.1 0 .3-.2.4-.4.5l-4.1 2.9c0 .1-.2.3-.5.1z"/><path fill="#e9b632" d="M1.2 22.4v-1.8c-.3-1.6.5-2.7 1.8-3.5l2-1.4c.6-.3 1.3-.2 1.7.3l1.1 1.7c-.1.3-.3.4-.5.6L2.1 22c-.4.2-.6.5-.9.4z"/><path fill="#c0933e" d="M49.1 15.8c.5.1.7-.5.8-.7.2-.3.4-.7.4-1.1-.1-1 .5-.8 1.1-.8.1 0 .3.1.4 0l4.9 2.5c-.9.1-1.4 1.2-1 2 .1.3.2.5-.2.5-.3 0-.3.2-.3.4-.3.1-.5 0-.7-.1l-4.8-2.2c-.3-.1-.6-.2-.6-.5z"/><path fill="#f5d069" d="M.2 68.9v-3.1c.4.4.7.4 1.3.4 1.6-.1 3.1-.3 4.7-.6.9-.1 1.9 0 2.8.1.2.7.2 1.4 0 2.1-.2.4-.6.5-1 .5L1 69c-.4.1-.6.1-.8-.1z"/><path fill="#efc059" d="M9 33l-1.9-.4c-.3-.1-.7 0-.7-.6 0-.3-.5-.3-.8-.3-.7.2-1.3 0-1.9-.3a.5.5 0 0 0-.7 0c-.5.6-1 .4-1.6.2l.4-.2c-.5-.3-1.2 0-1.5-.5V30c.4-.4.9.1 1.4-.1-.4-.2-1 0-1.4-.5v-.1c.3-.4.5-.5 1-.3 1 .3 2 .4 2.9.4 1.3.1 2.5.5 3.8.8h.9c.4.9.4 1.8.1 2.8z"/><path fill="#f9eea7" d="M61 56.3v7.8c.4.7.2 1.5.2 2.3v1.5c0 .4.2.6.6.6.5.1 1.1 0 1.6.3v5.8c-.4.1-.8-.1-1.2-.1-.8 0-.9.1-.9.8v1.2c0 .3 0 .5-.3.7-.4-.2-.2-.6-.4-.9v-.4l.1-1.1v-18-.3l.3-.2z"/><path fill="#efc148" d="M8.8 65.6c-.4.3-.8.4-1.3.2-.7-.2-1.4 0-2.1.1-1.4.2-2.7.5-4.1.4h-.1c-.7.5-.9 0-1-.6v-8.8c.2.7.1 1.3.1 2v3.3c.4.5.2 1 .2 1.5 0 .6.2.9.8.8h.2c1.7-.4 3.5-.4 5.2-.6h2.2c.2.6.3 1.2-.1 1.7z"/><path d="M61.1 49.1v3.8l-.2-.1-.1-.6V37.6v-.2l.1-.3c.1-.2 0-.5.3-.5.2 0 .2.3.2.5 0 .5.3.5.7.3.2-.1.5-.3.8-.2.4.1.4-.2.4-.5v-1.5-3.8l.1-.3.2-.1v8l-.1 2.9c-.1.3-.2.5-.5.5l-.9.2c-.5.1-.8.4-.8 1V47c-.1.6.1 1.4-.2 2.1z" class="st23"/><path fill="#3a3638" d="M40.5 94.9l17.1-5.6 5.3-1.7c.1 0 .3-.3.5 0-1.5.7-3.1 1.1-4.7 1.6L26.2 99.9h-1L.5 89c-.2 0-.4-.1-.5-.4l.2-.1h.2l9.5 4.1 6.8 3 2.5 1.1.6.3 4.4 1.9.4.2c.7.4 1.4.5 2.2.2l2.4-.8 1.2-.4 2.4-.8 1.6-.5c1.3-.3 2.5-.8 3.8-1.2.7-.3 1.5-.6 2.3-.7z"/><path fill="#fde789" d="M8.8 75.6l-2.5.2-3.1.3c-.5 0-.9.3-1.4.3-.6.1-1.1 0-1.6-.2v-1.6c1.6.2 3.1-.4 4.7-.5l3.4-.4.6.1.1.6c0 .4.2.9-.2 1.2z"/><path fill="#d5a739" d="M7.7 17.8l-1-1.3c-.4-.7-1-.9-1.8-.8L8.4 13c.7.3 1.5.6 1.9 1.4.2.3.4.7 1.1.6l-2.3 1.8-.3.4c-.4.2-.6.7-1.1.6z"/><path fill="#fce088" d="M.2 68.9l4.9-.5 2.6-.3 1.2-.3.1.4c0 .5.2 1-.2 1.4-.4.1-.8.2-1.2.1l-2.6.2-3.5.4c-.5 0-.9.2-1.4.1l.1-1.5z"/><path fill="#cd9b3c" d="M63.4 87c-.1.5-.5.3-.8.2l-7.3-1.6-5-1-6.5-1.5-.7-.2c-.1.3.2.3.2.5l-.1.1c-.7-.9-1.7-.9-2.7-1.1L34.1 81c.1-.5.6-.4.9-.3 1 .2 2 .3 2.9.6.4.1.8.2 1.1-.2l.2-.1c.2.1.2.4.4.6.2 0 .2-.5.5-.4.2.1.1.3.2.4l.3-.1h.1c1.4 1.1 3.2 1 4.8 1.4l1 .3h.5c1.8.5 3.6.6 5.4 1.1.3.1.5.1.5-.3 0-.2.1-.4.3-.4.3 0 .2.2.3.4l.1.2.2.3c.2 0 .2-.2.2-.3l.1-.6.2-.1c.3.2.2.5.3.8l.2.3c.2 0 .2-.2.2-.3.1-.2.2-.4.4-.4l.2.1c.1 1 .9 1.1 1.6 1.3l4.5.9c.8.2 1.1.2 1.1-.7l.1-.2.2-.1c.3.8.3 1.3.3 1.8z"/><path d="M60.8 76.4l.1.7h.1v-2.2c0-.4.1-.6.6-.6.6 0 1.2 0 1.8.3V78c-.2.2-.9-.2-.7.6 0 .2-.3.2-.5.2s-.5-.2-.8-.1c.2.2.5.2.7.2.2.1.4.2.4.5s-.2.5-.5.5c-.8-.1-.7.4-.7.9v1c0 .6-.4.8-.9.7l-4.1-.7c-.2 0-.6-.1-.5-.5.2-.3.4-.1.7-.1l3.4.5c.8.1.8.1.8-.7v-.7c0-.5.2-1 0-1.5v-.3c.1-.3.3-.6 0-1v-.6l.1-.4c-.1-.1-.1-.1 0-.1z" class="st29"/><path fill="#7b5f39" d="M28.3 29.9c1.2.1 2.4.6 3.6.8l1.5.4c.7.3 1.4 0 2.1-.2l10.9-3.4 7.2-2.1 9.3-2.9c.4-.1.6-.3.6-.8v-1.5c.3.7.1 1.5.1 2.3l-.2.2c-2.5.9-5.1 1.6-7.6 2.4l-.7.2-.6.2-.5.1-.3.1c-2 .4-3.9 1.2-5.9 1.7-.2 0-.3.1-.4.3-.1.7.1 1.4-.2 2.1-.4 0-.3-.3-.4-.5l-.1-1.1c-.2-.5-.6-.3-.9-.2l-5.5 1.7-6 1.8h-.4a79 79 0 0 1-5.6-1.6z"/><path fill="#f1c347" d="M61.1 81.7v-1.1c0-.5-.2-1.2.8-.8.3.1.4-.1.4-.4.1-.3-.2-.3-.4-.4-.3-.1-1 .2-.8-.5.2-.6.6 0 .9 0h.5c0-.3-.5-.4-.2-.7.3-.2.7-.1 1 .1v7.5h-.1c-.4-.5-.2-1.1-.2-1.6 0-.7-.2-1.1-.9-1.2a1 1 0 0 1-1-.9z"/><path fill="#847447" d="M9 33v-2.9-4.3c0-.2 0-.5-.3-.6-2.8-.7-5.5-1.5-8.4-2v-.3c1.5.2 2.9.6 4.3 1l5.7 1.4c.4.1.8.1 1.1.4-.3.3-.6.1-1 .1-.3 0-.5-.2-.8-.1l-.2.2V58.7c0 .3 0 .6-.2.9-.2.1-.2-.1-.2-.2v-7.9-3.1c-.3-.6-.1-1.2-.2-1.8v-1.4l.2-2.6v-4.4-2.8V33z"/><path fill="#f2c75a" d="M61.1 66.5v-2.4c.8 0 1.6-.5 2.3 0v2.4c-.8 0-1.6.4-2.3 0z"/><path fill="#fad579" d="M61.1 66.5c.8.1 1.6-.4 2.3 0v2.4c-.7.1-1.3-.2-1.9-.1-.3 0-.4-.2-.4-.5v-1.8z"/><path fill="#fce687" d="M61.1 44.5v-.4c0-1.6.1-1.7 1.7-1.9.3 0 .5-.1.7-.3v.1l.1 1.5c-.1.6-.4.9-.9.9-.6 0-1.1.4-1.6.1z"/><path d="M63.4 43.7v-1.6c.2.2.1.5.1.7v19.9c0 .2.1.4-.1.6v-9.9-5.7c-.4-.7-.1-1.5-.2-2.2-.1-.7 0-1.3.2-1.8z" class="st23"/><path d="M.2 88.6H0V76.9l.1-.4V79c.2.2.2.5.2.7V87.6c.1.3.1.7-.1 1z" class="st36"/><path d="M63.4 22.7l.1-.1V31h-.1c-.3-.2-.2-.6-.2-.9V28v-4.2c0-.4-.1-.8.2-1.1z" class="st37"/><path d="M.3 49.4V56l-.1.5v-7.1c0-.1 0-.1.1 0z" class="st38"/><path fill="#d7a239" d="M.3 30.8c.6.3 1.4.1 2 .5-.2.4-.5.2-.8.2l-1.2-.1v-.6z"/><path fill="#d49f34" d="M.3 29.3c.6.3 1.3.1 1.9.6-.7.4-1.3 0-1.9 0v-.6z"/><path d="M.3 49.4H.2v-2.1h.1c.3.3.3.7 0 1.1v1z" class="st41"/><path d="M.2 88.6V83c.4.1.3.4.3.6v.9c0 .5.1.5.5.4.8-.2 1.6-.6 2.5-.4 1.3-.8 2.9-.3 4.3-.7.4-.1.8-.1 1.1.3.2.5.1.9.1 1.4V85v-2.9c0-.7.2-1 1-1.1.2.8.1 1.6.1 2.3v1.5l-.1-5.4v-.2c0-.3 0-.7.4-.6.4 0 .4.4.4.7v3.4l.1-1.3c0-.2 0-.4.2-.4.3 0 .3.2.3.4l.1.4v3l-.1-3.6V81c0-.3-.1-.7.3-.7.3 0 .3.4.3.7v3.8c0 .1.1 0 0 0v-.1-4.9-.4c0-.2 0-.6.4-.5.3 0 .3.3.3.6V81c0 .5.2.6.6.5l1-.2 2.4-.5c1.2-.1 2.4-.5 3.5-.7l1.1-.2c1.1-.1 2.1-.4 3.1-.6.6.1.8-.2.8-.8v-1.9c0-.3 0-.7.2-.7.4 0 .3.4.3.7l-.1 3.7v1.1c.1-.5-.1-1.2.2-1.7.5.8.1 1.7.3 2.5l.1.2-.1.3-4.7 1.1-4.1.9-1.2.3c-.2.2-.5.1-.7.3l-1.2.3-.7.1-13 2.9H.2z" class="st42"/><path d="M40.5 94.9l-6.1 2c-.3 0-.3-.2-.1-.3.5-.2.9-.6 1.5-.6-.4.1-1-.2-1.3.4-.1.2-.5-.1-.8 0H32c-.2.1-.4-.1-.5-.4 0-.3.3-.3.4-.3.6.1 1-.6 1.5-.4-.2 0-.6 0-.9.2-.3.2-.7.2-1.1.1-.6-.2-1.1-.2-1.5.3-.2.2-.4.2-.7.1l-.5-.4c-.1-.7.5-.9.9-1.2l.6-.2 1.6-.5.5-.2c.4-.2 1 0 1.3-.6v-.1c1.8 0 3.4-.9 5.2-1.3h.2l.1.2v.1c.3.3.5.6.3 1h-.3l-.5-.7.4.7c.2.2.4.5.3.8-.2.3-.5.3-.9.2-.3-.1-.5 0-.8 0-.2 0-.6.1-.5-.4 0-.2-.3.2-.5-.1-.5.3-.3.6.1.7l.8.1c.2.2.4.5.3.8.3 0 .5-.5.8-.2.5 0 .9.1 1.3-.2.2.3.5.3.6.4z" class="st43"/><path d="M31.1 81.5c-.2.4-.5.1-.7.2l-1.9.4-.1-.4v-2c0-.6.2-1 .8-1.2l3.6-.7c.6-.2.9.1 1.1.7l.1 1.8c0 .3-.2.5-.5.6-.9.2-1.7.2-2.4.6z" class="st42"/><path d="M39.2 81.1c-.2.6-.6.7-1.1.5-1-.4-2.1-.4-3.2-.7a.5.5 0 0 0-.7.2h-.1c-.3-.7-.1-1.5-.1-2.2 0-1 .8-.9 1.5-1.1l3.7.7c.1.1.2.1.2.3-.4.7-.2 1.5-.2 2.3z" class="st42"/><path fill="#605859" d="M48.8 86.9c1.6-.5 3.1.4 4.7.6l-2.8.9c-.9.3-1.8.7-2.6.8-.9 0-1.5.9-2.5.4 0-.3.3-.2.4-.3.1-.1.3 0 .5-.3-.3 0-.5-.1-.6.3l-.8.1c-.3 0-.5-.1-.3-.4 1.1-.5 2.3-.9 3.6-1 .3 0 .8.3.9-.3l.3-.1c-.5-.3-.8-.2-.8-.7z"/><path fill="#656262" d="M35.1 83c.9.4 1.9.3 2.7.7 1.4.7 2.9.5 4.3 1l3.1.7c.4.1.1.3.1.4-.1.4-.5.2-.7.3-.4 0-.8 0-1.2-.2-.1-.1-.2-.2-.1-.4l.1-.1c-.4.1-.6-.4-1-.3.5.1.5.1.4.4l-.3.1-1-.2-1.6-.5-2.1-.6c-.6-.3-1.3-.4-1.9-.3-.4.1-.7-.1-1-.3l-.1-.1c-.3-.2-.1-.4.3-.6z"/><path d="M15.8 85.1c.2-.2.5-.1.7-.1.2.4.4.8 1 .5.5-.2 1.1.4 1.7.2.1-.1-.2.3 0 .4-.1.5-.6.4-.9.5-1.1.2-2.2.4-3.3.8-.4.3-.8.2-1.3.1l-.6-.1c-.2 0-.4.1-.5-.2 0-.3.2-.4.5-.4s.6 0 .8-.3c.4-.3.9.1 1.3-.3.4-.2.1-.9.7-1l-.1-.1z" class="st46"/><path d="M39.1 92v-.1c.1-.3.3-.4.6-.5A5 5 0 0 0 41 91c.3-.1.7-.3 1 0 .7.6 1.6.9 2.4 1.2-.6.1-1.1.4-1.6-.3-.2-.3-.7 0-1.1-.3.3.4.6.4.8.4.3 0 .4.2.4.4.1.3-.3.1-.4.2 0 .3.4.1.5.4l-.5.1c-.3-.4-.7-.7-1.2-.6-.9.3-1.6-.1-2.2-.5z" class="st47"/><path fill="#be9442" d="M34.1 78.6V81c-1 .1-2 .5-2.9.6-.1-.4.3-.3.5-.4a5 5 0 0 1 1.7-.3c.3 0 .4-.2.4-.5v-1.8c-.2-.7-.2-1.3-.2-2 0-.5 0-.9-.7-1-.1 0-.2-.1-.2-.3.1-.5.7-.3.9-.7-.1-.3-.3-.2-.5-.2s-.4 0-.5-.2c0-.3.2-.3.4-.4l.4-.1.3-.1c.2-.1.1-.5.5-.4.5.9.3 1.8.2 2.7l-.3 2.7z"/><path fill="#b49146" d="M28.5 81.8v.3l-1.9.5v-.3-.1l.2-.1h.4c.1 0 .2.2.3-.1l.4-.2c.2-.6.1-1.3.1-1.9v-2.6c0-.9-.1-1.8.1-2.6.1-.1.1-.2.3-.2h.8c.2 0 .5 0 .5.3 0 .2-.2.3-.4.4-.2.1-.5 0-.6.3.2.3.7 0 .8.4v.1c-.9.4-.8 1.2-.9 2l-.1 3.8z"/><path fill="#4a4446" d="M27.1 84.4c.8-.6 1.7-.6 2.6-.7.4-.1.7-.3 1.1-.2.5 0 1-.2 1.4.1.1.5-.4.5-.6.5l-3.1.7c-.3.1-.6.2-.9.1-.2-.1-.5-.2-.5-.5z"/><path fill="#4a4545" d="M27.1 84.4l.4.4c-.1.3-.3.3-.6.4l-2.5.5c-.4 0-.9-.1-1-.6l3.4-.8.3.1z"/><path fill="#686361" d="M44.6 86l.7-.2c1.4-.2 2.6.4 3.9.9 0 .2-.3 0-.4.2a1 1 0 0 1-.7.3c-.6-.3-1.3-.3-2-.5-.5-.2-1.1-.2-1.5-.7z"/><path fill="#61605f" d="M32.2 83.6c-.4-.1-.9.2-1.4-.1.5-.4 1.2-.4 1.9-.6a4 4 0 0 1 2.4.1l.1.2-.3.4-.2.1c-.8-.3-1.7.1-2.5-.1z"/><path fill="#3f333b" d="M42 91l-1 .2c-.2-.2-.6-.2-.3-.6h-.1c-.3.1-.5.2-.6-.2.3-.3.8-.4 1.2-.5.3-.1.6-.2 1-.1l.3.4c.2.1.5.2.4.6l-.4.2c-.2-.2-.4-.1-.5 0z"/><path fill="#c48c76" d="M36.6 93.6l.3-.1c.2-.2.3-.5.6-.2s-.1.4-.3.6c.6.2 1.3.2 1.8 0 .6-.2.2-.6-.1-.9.1 0 .2-.1.2 0l.3.1c.3.1.1.5.5.6.2 0-.1.1-.1.1-.2.3-.7.5-.9.5-.7.1-1.3.1-2-.2-.2-.1-.4-.2-.3-.5z"/><path fill="#767471" d="M44.7 89c.2.1.8.2 1.2.1h.3c.1.1 0 .2-.1.3l-.4.1c-.2-.1-.3-.1-.5.1.1.3.5-.2.6.2l-.3.1-2 .1c-.3-.1-.8.1-.8-.5.6-.6 1.1.1 1.6 0 .1 0 0-.1 0-.1v.1c-.2 0-.5 0-.5-.2s.2-.3.4-.3c.1 0 .3-.2.5 0z"/><path fill="#64605f" d="M23.5 85.1c.4.1.6.4 1.1.4-.4.6-1.2.4-1.7.6-.3 0-.7.2-1-.1l-.1-.2c.2-.2-.2-.2 0-.4.5 0 1-.3 1.7-.3z"/><path fill="#e4b28f" d="M41.1 84.3c.3-.2.7-.4 1-.2.2.1.5.2.3-.3-.1-.1.1-.1.1-.1.6.4 1.4.1 2 .4-.3.5-.8.2-1.1.3-.8.1-1.5-.4-2.3-.1z"/><path fill="#524f50" d="M21.8 85.8v.2c-.2.5-.7.7-1.2.5-.4-.2-.6 0-.9.1-.5 0-1 .2-1.5-.2.3-.2.7 0 .9-.4.6 0 1.2-.2 1.7-.3.5-.2.8-.1 1 .1z"/><path fill="#cecac8" d="M42.6 89.5c.1.5.6.2.9.4l.9.3v.1c-.3.2-.5.2-.9.1l-.2.1c-.2.1-.4.2-.6 0 0-.4-.4-.4-.6-.5-.4-.2 0-.3 0-.4.1-.1.3-.2.5-.1z"/><path fill="#ce9e83" d="M45.6 85.1c.6-.3 1.3.1 1.7-.6l.4.2c.1.1 0 .2-.1.3-.9.6-1.7.3-2.7.1.3-.3.6-.5.8-.5.1.1-.2.3-.1.5z"/><path fill="#e6ae89" d="M47.1 91l-.8-.2c-.2 0-.5 0-.6-.3-.1-.2.2-.2.3-.3.2-.1.6-.2.7.1.1.3.5.3.6.5 0 .2-.1.2-.2.2z"/><path fill="#c38c73" d="M42.5 93.2c-.1.3.9 0 .3.6l-.2.1c-.3-.4-.8-.5-1.3-.7.4-.2.8-.2 1.2 0z"/><path fill="#d4ac8e" d="M55.5 87.1c.6-.7 1.5 0 2.1-.4-.6.6-1.4 0-2.1.4z"/><path fill="#c79d86" d="M48.2 90.3c.4.6 1.2.7 1.6 1.3-.6.1-1.3-.4-1.6-1.3z"/><path fill="#3a3238" d="M44.4 90.3c-.4.1-.6-.2-.9-.3a4 4 0 0 1 1.9 0l-1 .3z"/><path fill="#dbaf8e" d="M38.6 95.1l-.4.2c-.1.2-.3.4-.6.3-.2-.1 0-.4 0-.6l-.2-.5.3.1c.2.2.5.1.8.3l.1.2z"/><path fill="#c99377" d="M56.8 87.8c.5-.4 1-.5 1.6-.3-.6.3-1.1.2-1.6.3z"/><path d="M43.5 90.6c.3-.1.5-.2.9-.1 0 .2 0 .5-.2.6-.3 0-.5-.4-.7-.5z" class="st47"/><path fill="#cda58a" d="M34.7 82.5l-.5-.1c-.2-.1-.4-.4-.4-.6 0-.1.1-.3.2 0l.2.3.5.4z"/><path fill="#d89879" d="M47.1 91l.2-.1c.3.4-.4.6 0 1-.7-.3-.2-.6-.2-.9z"/><path d="M38.5 94.9c-.3.2-.6.2-.8-.3h.8c.3.2 0 .2 0 .3z" class="st43"/><path fill="#cba387" d="M48.9 89.1c.4 0 .6.1.8.3-.5.2-.5.2-.8-.3z"/><path d="M42.8 90.7h.6c-.1.4-.3.4-.9.1l.3-.1z" class="st47"/><path d="M21.8 85.8l-.9-.2c.2-.2.5-.1.8-.1l.2.1c.1 0 .3.1.2.2-.1.3-.2 0-.3 0z" class="st72"/><path fill="#eeb835" d="M8.8 63.8c-.2.1-.3.3-.6.3-1.3-.3-2.6.4-4 .1-.6-.1-1.2.4-1.8.4h-.1C.4 65 .2 64.9.2 63v-.8c.6-.5 1.3-.5 1.9-.1.3.2.5 0 .6-.2.3-.6.6-.6 1.1-.2.6.4 1.2.2 1.8.2l1.5-.1c.3 0 .8-.3.7.4l.2.1c.2 0 .3-.1.3-.3 0-.3 0-.5.3-.6.6.9.6 1.7.2 2.4z"/><path fill="#eec04e" d="M.3 48.4v-1.1-1c.2 0 .3.1.3.3.1.3.3.4.6.4 2.2.1 4.3.6 6.4.7.6 0 1.1.1 1-.7 0-.2 0-.4.3-.4v1.8c-.2.4-.1.9-.1 1.4 0 .4 0 .5-.5.4-.5-.1-1.1-.2-1.7-.1l-.5-.1c-.5-.4-.9-.4-1.5-.1-.1.1-.3 0-.4 0-.9-.3-1.9-.4-2.9-.6-.5-.1-.9-.3-1-.9z"/><path fill="#9b7e42" d="M8.8 63.8v-2.4c-.9-.3-1.8-.1-2.7-.1l-1.3.1c-.3 0-.7 0-.8-.3v-1.2c.2-.3.4-.2.6-.1l2.2-.1c1 0 1.9 0 2.9-.2H11.1c.3 0 .5-.1.8 0l.2.2c0 .2 0 .3-.2.4-.8.2-1.7.1-2.5.1-1.2 0-2.5-.1-3.7.1l-.8.1c-.3.1-.3.4-.2.7.3.2.7.1 1 0l2.9-.1c.3 0 .5.1.7.4.2 1.2.1 2.4.1 3.6-.1.9.1 1.8-.1 2.7-.1.2-.1.4-.4.4v-.3-2.2l-.1-1.8z"/><path fill="#f1c774" d="M6.3 54.3H3.2c-.2 0-.5.1-.5-.3 0-.3.2-.4.5-.5 1.1-.1 2.2.2 3.3.2.3 0 .3.2.3.4-.1.2-.2.3-.5.2z"/><path fill="#f2c875" d="M4.8 55h1.6c.2 0 .4.1.3.3 0 .2-.1.4-.3.4-1.1.1-2.2-.1-3.3-.1-.2 0-.4-.1-.4-.3 0-.4.3-.3.4-.3h1.7z"/><path fill="#f4ce80" d="M4.7 57H3.3c-.2 0-.4-.1-.4-.3 0-.3.2-.3.4-.3h2.9c.1 0 .4-.1.4.2 0 .2-.2.4-.4.4H4.7z"/><path d="M10 59.7c-.2.2-.5.1-.7.1H4.7c.9-.3 1.8-.1 2.8-.1 1.4 0 1.4 0 1.4-1.4v-6.1c0-.3-.1-.5.1-.8v7.3c0 .3-.1.5.1.8.3 0 .7 0 .9.2z" class="st79"/><path d="M35.9 12.1l8.8 4c.7 0 1.2.4 1.8.7l.6.2 1.8.8c1 .5 2 .8 2.9 1.5-.1.4-.3.3-.6.3l-1.2.3-1.4.5c-.6.1-1.1.5-1.6.8-.7-.1-1.1-.6-1.6-.9-2.6-1.7-5.3-3-8.2-4.1-2.4-.9-4.8-1.6-7.3-2.2-.4-.1-.8-.1-1.2-.4-.2-.4.1-.6.3-.8l1.3-.8c.7-.4 1.3-1 1.7-1.7 1.1.2 2 .8 2.9 1.2l.8.4.2.2z" class="st80"/><path fill="#b68840" d="M35.8 12.1L32 10.5c-.5-.1-1-.2-1.4-.5l-1-.5c-.7-.5-1.3-.4-1.9.1l-1.3.9c-.3.1-.5.3-.8 0-.2-.4-.1-.8-.1-1.2V5.8v-.5c.1-.2.2-.3.5-.3l4.9 2.2 4.8 2.2.2.3c.4.8-.1 1.6-.1 2.4z"/><path fill="#d6a842" d="M46.5 16.9l-1.8-.8c.3-.7.1-1.5.1-2.3.7.1 1.3.5 1.9.9l.2.4v1.2c0 .3 0 .6-.4.6z"/><path d="M35.8 12.1V9.7l1.3.6c.1.1.3.1.3.3l-.2.2c-.9-.1-1.1.5-1.2 1.3h-.2z" class="st4"/><path d="M9 42.6v2.7c-.1 1-.3 1.2-1.3 1-1.3-.3-2.6-.3-3.9-.5l-2.6-.3c-.4 0-.8-.2-.9-.7v-2c.4.5.9.6 1.4.6l2.4.3c1.4.4 2.9.1 4.3.5.3.1.4-.1.4-.3.1-.5-.1-.9.2-1.3z" class="st41"/><path d="M.3 44.8c.3.3.7.4 1.2.5l5.7.6.3.1c1 .3 1.3.2 1.6-.7v1.3l-.1.5c0 .9-.1 1-1.1 1-2.4-.2-4.7-.8-7.1-.8-.2 0-.2-.1-.3-.3 0-.2.1-.5-.1-.7l-.1-1.5z" class="st38"/><path fill="#a39c75" d="M8.9 68.1l.2-.3c.2.2.2.4.2.7v6.8c0 .5.1 1-.2 1.5-.4.1-.2-.3-.3-.4l-.1-2v-.3-4.4l.2-1.6z"/><path fill="#875f37" d="M25.5 5.3l.1.3a40 40 0 0 0 0 4.9c.1.4-.3.6-.5.8l-2.4 1.5-.3.2-.2.1-.4.2-.3.2-.2.2-6.3 4.1c-.3.2-.7.5-1.1.5-.7-.1-1-.4-.9-1.2v-2.7c0-.3.1-.4.3-.5l1.7-1.3c.8-.2 1.4-.9 2.1-1.3l3.1-2.2c.8-.4 1.5-1 2.2-1.5l3.1-2.3z"/><path fill="#fce988" d="M13.9 18.3l6.7-4.3.8-.5c1.1 0 2.2 0 3.3.4l-.1.2c-2.1.7-3.8 2.1-5.7 3.2-1.2.7-2.3 1.5-3.5 2.1l-2.9.1c-.1 0-.3 0-.3-.2l1.7-1z"/><path fill="#e3c55b" d="M12.1 19.5h3.4c.3-.2.6-.2.9-.2.6.1 1.1 0 1.6.3-.3.5-.8.1-1.2.3h1.4c-.6.7-1.3 0-1.7.3l.9.1c-.3.4-.7.3-1 .4h-4.8c-.3 0-.5 0-.7-.2.4-.5.8-.7 1.2-1z"/><path fill="#fced8c" d="M10.9 20.3h2.5c.2.5-.2.6-.4.8l-1.9 1.1c-.9.1-1.7-.1-2.5-.2-.2-.4-.2-.5.5-.7h.1l1.7-1z"/><path fill="#8a6e3e" d="M8.8 17.1l.3-.3v4.6c-.3 0-.3-.3-.3-.5v-3.8z"/><path fill="#eebf55" d="M63.4 45.4v2.2c-.3.5 0 1.1-.2 1.7-.7-.5-1.4-.8-2.1-.2v-2.2c.1-.3.2-.6.5-.6.7-.1 1.4-.2 1.8-.9z"/><path fill="#f6d187" d="M61 56.3l-.2.2-.2-.1v-.9c-.7-.6-.5-1.2 0-1.8l.1-.2h.2c-.1.6.2.8.8.7.2 0 .6-.2.6.3s-.4.3-.6.3h-.5c-.3 0-.3.3-.3.5 0 .3.1.3.4.3h.7c.3 0 .3.3.3.5.1.3-.2.2-.3.2h-1z"/><path fill="#f3c97d" d="M61.1 53.5h-.2l-.1-.5v-.1h.1l1-.1c.3-.1.4.1.4.4.1.4-.2.3-.4.3h-.8z"/><path fill="#b1813f" d="M57.2 19.5c1 .6 2.1 1 3.2 1.5l2.4 1.1c-1.7.7-3.4 1.1-5.1 1.6l-16.2 4.9-6.9 2.1c-.3.1-.5.2-.8.1L28 29.3l-1.3-.5c-.3-.1-.6-.1-.8-.4-.3-.4-.7-.4-1.1-.3-.7.3-1 .1-1.3-.6-.2-.4-.6-.2-.9-.4-.1-.1-.3-.1-.3-.3 0-.2.2-.2.4-.2l1.9.5c2.3.7 4.7 1.2 7.1 1.8l1.1.3c.7.1 1.3-.3 2-.5l7.8-2.6 12.9-4.3.7-.3-.9-.5c-.3-.2-.6-.2-.8-.5-.1-.2-.2-.5 0-.7.2-.2.4-.1.6 0 .3.3.3 0 .4-.2.2-.4.4-.6.8-.2.2.6.5.1.9.1z"/><path fill="#bf903d" d="M22.6 26.8c-.1 0-.1 0 0 0l-.2.1 1 .3c.2 0 .3 0 .4.3 0 .2-.5.3-.1.5.3.1.6.2.9 0 .6-.4 1.1-.3 1.4.3.1.2.3.3.5.3.6-.1 1 .5 1.6.6v.1H28l-11.4-2.9-14.8-3.8c-.2-.1-.5 0-.6-.3l6.5-4.6c.4-.2.7-.6 1.2-.7.3.5.1 1.1.1 1.7.1.9-.2 1.7.1 2.6-.2.3-.6.3-.7.6-.6.6-.6.7.2.9l7 1.9 6.3 1.7c.3.1.6 0 .7.4z"/><path d="M9.4 25.4c.7-.1 1.3.4 1.9.3l6.5 1.6L28.3 30v.3l-.1.1h-.5l-6.3-1.6-10.1-2.6c-.6-.2-1.3-.2-1.9-.5v-.3z" class="st94"/><path fill="#8f6339" d="M57.2 19.5c-.2.5-.7.3-1 .5l-.2-.1c0-.2.1-.4-.2-.4-.2 0-.3.2-.3.4 0 .3-.1.4-.3.5-.3.1-.2-.2-.3-.3-.1-.2-.2-.2-.3-.1-.4.1.1.4-.1.5-.3.2-.6 0-.8-.1-.6-.4-1.4-.4-1.9-1L48.9 18c-.1-.7-.2-1.5.1-2.2h.1c1.4.8 2.9 1.3 4.3 2l1.8.8 2 .9z"/><path fill="#cd9e3e" d="M49 15.8c-.1.7.1 1.5-.1 2.2l-1.8-.8c-.3-.3-.2-.6-.2-.9 0-.4.1-.9-.1-1.3-.1-.1-.1-.1 0-.1.7.1 1.6.2 2.2.9z"/><path fill="#f8d58d" d="M3.7 31.4c.7 0 1.3.2 1.9.3.1.2.6.1.4.5-.1.3-.4.2-.7.2L4 32.1c-.5-.1-.5-.3-.3-.7z"/><path fill="#f3cc52" d="M.2 80.5v-.8c.2-.4.7-.3 1-.4l1-.2c-.3-.1-.5 0-.7-.2 0-.1-.1-.3.1-.3.5 0 .9 0 1.4.2.5.1 0 .4 0 .6.9.1 1.8-.3 2.7-.4.2 0 .4-.1.4-.3 0-.3.3-.4.6-.4.3.3.7.2 1.1.2.4 0 .8-.2 1.2 0 .2.3.1.5 0 .8-.5.5-1.2.3-1.8.6.6.2 1.2-.4 1.7.1v.5l-.1.1c-1.3-.2-2.5.2-3.8.4-.3.1-.7 0-1-.2.1-.3.1-.3.4-.4l1.3-.4-1.4.2c-.7.1-.7.2-.2.7 0 .4-.4.5-.7.5l-2 .2c-.4.1-.8 0-1.1-.3.5-.5 1.2-.4 1.8-.6-.7-.3-1.4.2-1.9-.2z"/><path fill="#9b894e" d="M8.8 79.2v-1.3-2.2-1.3c.3.5.1 1 .2 1.6 0 .3-.1.6.1.8.4.5.1 1.1.3 1.7l-.2 6.6c0 .4.1.8-.2 1.3-.2-.8-.1-1.5-.1-2.2a6.7 6.7 0 0 1 0-3.7v-.7c-.2-.2-.2-.4-.1-.6z"/><path fill="#d7a23f" d="M1.5 78.9h.8c.1 0 .3 0 .3.2s-.2.2-.3.2l-2.1.4V79l1.3-.1z"/><path fill="#dba341" d="M8.8 77.8v.5l-1.7.3c-.3 0-.5-.1-.5-.4l2.2-.4z"/><path fill="#f9d590" d="M5.6 31l-1.8-.4c-.2-.1-.4-.2-.3-.4.1-.3.3-.2.5-.2l1.8.4c.2 0 .4 0 .4.3-.2.3-.4.3-.6.3z"/><path fill="#c69c69" d="M60.8 76.1v.3h-.1l-6.4 1.4-2.9.7-.3.1-2.3.5c-.4-.4 0-.9-.3-1.3-.2-.2-.3-.4-.1-.7.2-.2.1-.5.3-.7.4.7.9.5 1.6.3l2.7-.6.9-.1 2.6-.5c.8-.1 1.6-.5 2.5-.6.5.1 1.1 0 1.6.3l.2.2v.7z"/><path d="M60.8 76.1v-.9c-.2-.2-.2-.5-.2-.8v-17c0-.3-.1-.7.3-.8v18.7c0 .2.1.5-.1.8z" class="st29"/><path fill="#5e3f27" d="M60.9 56.6c-.2.9-.1 1.8-.1 2.7v15.9h-.1c-.3-.4-.2-.8-.2-1.3V58.6l-.1-2.1c.1-.2.3-.2.5-.1l.1.1-.1.1z"/><path fill="#7c5835" d="M60.3 56.5c.4.2.3.6.3.9v17.8l-1.6-.3c-.2-.2-.1-.5-.1-.8v-8.5-4.4-13.7V42v-.4-2.5c.1-.6-.2-.8-.8-.9l-6.3-1.6-2.4-.6c-.3-.1-.5-.1-.6-.4-.1-.2-.1-.4.1-.6h.6l8.2 2.1c.8.2 1.7.4 2.5.2.2-.1.5-.1.7.1V53c-.4.2-.4.5 0 .7 0 .3.2.7-.4.8-.3.1-.2.5 0 .5.6 0 .4.4.4.7-.3.2-.6.4-.6.8z"/><path fill="#ab803f" d="M60.9 37.3c-1.1.3-2.2.2-3.4-.1l-7.7-2-.8-.3c-.2-.1-.2-.3-.1-.4.4-.5 1-.5 1.6-.4l7.4 2c.9.3 1.8.1 2.6 0 .1-.1-.1-.1 0-.1v.1c-.9.2-1.7.3-2.6-.2-.7-.5-1.5-.8-2.3-1.1-.3-.1-.9-.3-.3-.8.6-.1 1.1.3 1.6.5l1.5.7c.6.4 1.2.6 1.9.4.3-.1.5-.1.7.2.2.5-.1.9-.1 1.4v.1z"/><path d="M63.4 31.1v4.1c-.6-.3-1.1-.5-1.7-.1-.4.2-.7 0-.7-.5v-1.9c0-.3.1-.6-.1-.8-.6-.3-.7-.4-.3-.9.1-.2.3-.4 0-.6-.5-.4-.2-.6.2-.9l.4-.2c.9-.5 1.5-.2 2.1.6-.5.5-1.2.2-1.7.6.3.1.7-.1 1-.1.2-.1.5-.2.7.1.1.3-.2.3-.4.5.1 0 .4-.1.5.1z" class="st37"/><path fill="#fce385" d="M60.9 31.6c.3.2.3.4.3.7v2.2c0 .5.1.7.6.4.6-.4 1.2-.4 1.6.4v2.3c-.4-.4-.8-.3-1.3-.1-.9.4-.9.3-.9-.7v-.2c-.2.1 0 .4-.2.6l-.1-1.4c-.3-.4-.2-.9-.2-1.4v-.5-.9c0-.6-.1-1.1.2-1.4z"/><path fill="#edbb4e" d="M63.4 31.1h-.2c-.3.1-.6.2-.7-.1-.1-.4.3-.3.5-.4l.3-.2c-.6 0-1 .3-1.5.3-.2 0-.5.2-.6-.1-.1-.4.3-.4.5-.5l1.4-.3c-.2-.2-1.1.2-.5-.7l-1.4.3-.1-.2v-.5l.1-.7c0-.5.3-.8.8-.9l.4-.1c.3-.1.6-.6.9-.4.3.2.1.7.1 1.1l.1.2.1 3-.2.2z"/><path fill="#f7d170" d="M63.4 45.4c0 1-.8 1-1.4 1-.4 0-.7.1-.9.5v-2.4c.5-.1 1-.3 1.6-.3.4 0 .6-.3.8-.6l-.1 1.8z"/><path d="M14 86.4c0 .3 0 .6-.5.5-.3-.1-.6-.1-.8.3.3.1.7-.3 1 .1-.5.6-1.2.5-1.9.7l-2.4.6 1.2.6c.1.3-.1.5-.3.7-.6.5-1.3.9-1.7 1.5-.1.1-.1.2.1.3l.6-.1-.4.1c-.2 0-.4.1-.3-.2.4-.6 1.1-.9 1.5-1.4.3-.3.5 0 .7.2l.1.2c.6.5.6.5-.3 1 .9-.4 1-.5 1.2-1.1a2 2 0 0 1-1.1 0c-.3-.3-.2-.6 0-.9.9 0 1.6.4 2.3.9.1.5 0 1 .2 1.5.2.4-.3.6-.6.4-.4-.2-.7-.2-1.2 0-.4.1-.9.3-1.4.3l.8.5c-.2-.1-.5-.3-.2-.5.3-.3.7-.2 1 0 .1 0-.1.2.2.2.8-.3 1.6-.4 2.5-.3l.6-.1c-.5.2-1 .2-1.4-.1v-.5c.3-.4-.5-.9.1-1.3 1 .1 1.9.7 2.8 1l.8.3c.4.2.8.2 1.1.5l.1.5c-.1.2-.1.2.1.2.4-.1.6.2.7.6 0 .4-.3.5-.6.5.4.1.9.3 1.3.2.6.3 1 1 1.7 1.4-.1-.3-.5-.2-.3-.5.1-.2.3-.2.5-.1s.5.1.6-.1c.3-.4.7-.4 1.2-.5l.5.1v.2l-.3.3c-.3.2.1.1.1.2l.1.5-.2.4c.3-.1.5-.3.6-.6.3-.5.7-.3 1.1-.4.1 0 .3 0 .4.2.6.6.6.7-.5 1.3.8.4 1.7.5 2.5.4h-.7c-.2-.1-.4-.2-.4-.4s.2-.3.4-.3l.9-.1c.3.1.5-.2.8-.1l.4.3-.2.1c-.3.1-.5.4-.4.6.2.4.7.1 1.1.2-.2-.2-.5-.2-.5-.5l.1-.2a3 3 0 0 1 2.1.2c.3.1.5.5.1.8l-.4.1c-.1-.1-.3 0-.4 0 .1 0 .3-.1.4 0 .2.2.1.3-.1.4l-.7.3-1.2.4-2 .5c-.8.2-1.6.6-2.4.1h-.3l-.3-.1c.1-.3.4-.3.6-.4-.3 0-.6.2-.9.1-.2 0-.4 0-.4-.2s.3-.1.4-.3c-.7.2-1.3 0-1.8-.3-.1-.1-.3-.2-.2-.3.2-.6-.2-.2-.4-.3-.3 0-.6-.1-.4-.3-.3.7-.9 0-1.4.1l-.5-.2c.2-.3.6-.3.7-.3-1 .5-1.8-.4-2.7-.6-.2 0-.3-.2-.5-.1L.4 89.2l-.1-.1c2.1-.6 4.2-1 6.3-1.4l4.5-1.1L14 86c.4.1 0 .3.1.5-.1-.4-.1-.2-.1-.1z" class="st36"/><path fill="#f3d1b2" d="M29.1 96.1h.1c.6.2.7-.5 1.2-.6.4 0 .7-.2 1.2.1.3.3.8 0 1.2-.1.5-.2.9-.2 1.4.1-.9-.2-1.5.6-2.4.4-.1.1 0 .2 0 .2h1.9c.2 0 .3-.2.5.1h.3c-.1-.8.5-.5.7-.4.4.1.8-.2 1.2.3-.7.1-1.3.4-2 .6l.1.1-1.5.5c-.4-.1-.7-.2-1.1 0-.1.1-.4.2-.4-.2.5-.5-.1-.8-.3-.8-.6.1-1-.2-1.6-.2l-.2.2c-.4.2-.4 0-.3-.3z"/><path d="M19.6 97.1c.2-.2.4 0 .6 0 .3 0 .6.3.7-.2 0-.3.2-.1.3-.1.3 0 .1.1 0 .2-.2.3.1.2.2.2.3-.1.5-.4.8 0-.7.2-.4.6 0 .8.5.2 1 .6 1.5 0 .1-.1.3-.1.4.1.1.2-.1.3-.2.4l-.4.1c.6.3 1.1-.3 1.7.1-.3.3-.8.2-1.1.5l-4.5-2.1z" class="st43"/><path d="M24.5 99.2c.3-.5.7.5 1.1-.1 0-.1.5.4.4-.2l.5.1c.3.2.6.1.8-.1.6-.5 1.3-.3 1.9-.3l-3.3 1.1c-.5.2-1-.2-1.4-.5zM16.7 95.8c.5-.1.9.2 1.3.3.7.2 1.4.7 2.2.3-.3.4-.7.3-1.1.5l-2.4-1.1zM31.4 97.3h.3c.4-.4.8-.3 1.2.1l-2.5.8c.1-.3.4-.3.6-.4.2-.1.3-.2.2-.4l.2-.1z" class="st43"/><path d="M61.1 81.7c.4.7 1.2.8 1.8 1 .3.1.4.3.4.6v2.3c0 1.4 0 1.4-1.4 1.1l-5.3-1.1c-.5-.1-.7-.2-.6-.6l-.1-.7-.1-.9c0-.7.2-1.3-.4-1.9a.3.3 0 0 1 0-.4c.1-.2.1-.5.4-.3.3.1.2.4.1.6 0 .2.1.2.3.3l4.3.8c.5 0 .6-.3.6-.8zM54.4 83.8v.7c0 .2.1.6-.3.5-.3 0-.6-.1-.6-.5v-.6h-.2c0 .9-.5.8-1.1.6-.9-.3-1.8-.6-2.7-.6-.9 0-1.6-.4-2.5-.5-.4-1-.2-2.1-.1-3.2 0-.4.5-.4.8-.4l1.1.2c1.2 0 2.3.4 3.5.5.3 0 .5.2.7-.1.3-.5.5-.4.7.1l-.3.9c-.3.5-.1 1 0 1.5.2-.4.1-.7.1-1.1 0-.5.2-.9.7-1.2.1-.2.2-.5.5-.4.3.1.3.4.3.6-.8 1.1-.4 2.1-.6 3z" class="st111"/><path d="M46.6 83.5a30 30 0 0 0-4.3-1c-.5-.1-1.1-.1-1.3-.7-.1-.2-.2-.2-.4-.1l-.1-.4c.5-.3.5-.9.5-1.4 0-1.1.1-1.2 1.2-1l1.7.3c.8.2.9.1.9-.7v-.8c.1-.5.2-.6.7-.4.3.2.6.5 1 .1.1-.1.1-.1.2 0l.1.2-.1 5.5c.1.1 0 .2-.1.4z" class="st112"/><path d="M46.7 77.4s-.1 0 0 0c-.3-.1-.2-.5-.6-.5 0 .3.4.3.6.5-.1.3-.1.6-.6.4a3 3 0 0 1-1.2-.7v1.8c0 .4-.1.6-.6.5l-2.8-.5c-.5-.1-.5.1-.5.4v1.1c0 .4-.1.7-.6.7-.3-.5 0-1.1-.1-1.5-.1.7.2 1.5-.2 2.3-.2-.2-.1-.5-.1-.7-.4.2-.6.1-.6-.4v-1.4 1.2c0 .2.1.5-.3.5-.4-.8-.5-1.7 0-2.5-.1-.5.2-.4.4-.3.2.1.3.3.6.1l.4.1c.2.1.4.2.7.1H42.1l1.5.3c.9.2 1 .2.8-.8 0-.3 0-.7.2-1-.1-.2.6 0 .2-.3-.5-.7-.4-.9.6-1.4.5 0 .5 0 .9.5.2-.8.1-1.5.1-2.3 0-.6-.1-1.1.1-1.6l.2-.2.2.1c.2 1.7.1 3.4.1 5.1l-.3.4z" class="st113"/><path fill="#97804e" d="M46.7 77.4v-5.6c-.2-.2-.2-.5-.2-.8v-4-2.5V57v-.7-.6-.6-.7-5.3-2.7c0-.4-.1-.9.2-1.2.5.2.3.6.3 1v31.9l-.2 5.4h-.3l.2-6.1z"/><path fill="#eebe46" d="M46.9 83.5V78l.1-.1c-.2-.5.7-.2.6-.8 0-.2.8-.2 1.1.1-.5.1-.1.3 0 .5l.3 2.7c-.4 0-.8 0-1.1-.2-.5-.3-.9-.2-.9.5v2.8h-.1z"/><path fill="#efbf70" d="M54.4 83.8c-.1-.8-.5-1.6.2-2.3v-.3c.3-.2.5-.2.7 0 .5.8.5 1.7.4 2.5l-.1.5c-.5 0-.6-.3-.6-.8v-1.5l-.1 1.2c-.1.2-.1.6-.4.6l-.1.1z"/><path d="M54.6 83.8c.4-.6.2-1.3.3-1.9 0-.2-.1-.4.3-.4.2 0 .2.2.2.4v1.3c-.1.5.1.8.5 1-.2.1-.3.3-.3.5s.1.5-.2.4c-.2 0-.5-.1-.5-.4-.3-.3-.4-.6-.3-.9z" class="st111"/><path d="M39.2 81.1c.3-.5.1-1 .2-1.6 0-.3-.1-.6.2-.9.2.6.1 1.1.1 1.6 0 .4-.2.9.4 1-.3.1-.1.7-.5.6-.4 0-.4-.4-.4-.7zM40.2 82v-3.1h.3v2.9c0 .1-.1.2-.3.2z" class="st42"/><path fill="#c6a77e" d="M55.4 81.1h-.7c0-.2.1-.4-.1-.5-.3.1-.1.4-.3.5-.3 0-.5 0-.7-.3-.1-.1 0-.4-.2-.4s-.1.2-.1.4c-.9 0-1.9 0-2.7-.6.7-.3 1.4-.3 2.1-.3l-2.3.2h-.9c-.2 0-.4 0-.4-.2s.2-.2.4-.3c1-.1 2.1-.4 3.1-.3.3 0 .1-.2.2-.2.3-.2.6-.3.9-.2-.3-.1-.6 0-1 .1-.3.1-.5.2-.6-.2.4-.4 1-.4 1.5-.5 1.1-.3 2.1-.6 3.2-.7 1.1.1 2.1 0 3.2-.3.3-.1.6-.1.7.3.6.3.2.6 0 .9-.3.3-.7.2-1 .3-1 .1-2-.1-3 .1-.1 0 0 .2 0 .1.8-.3 1.6 0 2.4-.1.5-.1 1-.2 1.5 0 .3.5 0 1 0 1.5-1.4.5-2.9.9-4.4 1.2l-.6-.1c-.1-.2.1-.5-.2-.5 0-.3.1 0 0 .1z"/><path fill="#6b573e" d="M56.9 77.7c-1.6.2-3.1.7-4.7 1-.4.1-.7 0-.9-.4L57 77l2.5-.6h1.2v.4l-2.9.8-.9.1z"/><path fill="#b69672" d="M56.3 81.4c1.4-.5 2.9-1.1 4.4-1.2 0 .6.2 1.2 0 1.6-.3.5-.9-.1-1.4 0-1 .1-2-.4-3-.4z"/><path fill="#af906c" d="M56.9 77.7c.9-.4 1.9-.4 2.8-.7.3-.1.6-.7 1-.2v.7c-.4-.4-.8.1-1.3.1-.8 0-1.6.4-2.5.1z"/><path fill="#9e8264" d="M60.8 78.7c-1.4.3-2.8.1-4.3.2.9-.4 1-.3 1.9-.2.8 0 1.6.1 2.4-.2v.2z"/><path d="M63.4 28c-.3-.4 0-.8-.2-1.3-.4.4-.8.7-1.4.7-.3 0-.4.3-.4.7 0 .3.1.5-.1.8-.4-.3-.3-.6-.3-.9 0-.3.1-.6-.1-.8-1 .1-1.9.4-2.8.6l-1.1.3c-.9.2-1.1 0-1.1-.9v-1.3c-.3.6-.1 1.2-.2 1.8-.1.6-.2.7-.7.6-.2-1-.1-2-.1-3l4.2-1.4 3.8-1.2.6-.1-.1 5.4z" class="st122"/><path d="M28.6 30.2l5.3 1.3.2.5v3.6c-.2.4-.5.4-.8.4l-2.7-.5c-.3 0-.5-.1-.8.1-.5.3-.9.2-1.3-.3l-.1-4.6.2-.5z" class="st123"/><path d="M34.2 31.6l9.2-2.8 2.7-.8c.4-.1.7-.1.7.4 0 1.3.3 2.6.1 3.9-.3 1-.5 1.2-1.2 1.2-.4 0-.7-.1-.7-.6v-1.2c-.2-.4-.5-.2-.7-.1l-2.2.5c-.7.1-.9 0-.9-.7l-.1-1.2c-.2.5-.1 1-.1 1.4 0 .3 0 .7-.3.7-.4 0-.3-.5-.4-.7v-1.2c-.3.4-.1.8-.2 1.2-.1.3 0 .7-.5.7-.3-.5-.1-1-.2-1.6l-.1 1.5-.2.6h-.3l-.1-1.4c0-.5-.2-.6-.6-.4l-1.1.4c-.7.4-1.5.1-2.2.5-.1.1-.3 0-.5-.1l-.1-.2zM47.1 27.7c.3-.4.8-.3 1.1-.4l4.8-1.5.7-.1c-.4.7-.1 1.5-.3 2.3-.1.1-.1.2-.2.1-.7-.4-1.4-.2-2.1-.3l-.5-.1c-.3-.2-.4-.1-.4.2-.1.5-.4.5-.7.3-.5-.4-.8-.3-1.2.2l-.7.8c-.1.1-.2.3-.4.1l-.1-1.6z" class="st124"/><path fill="#ae9f6d" d="M46.7 32.3l.1-4c.3.5-.1 1.2.2 1.7.4.5.2 1 .2 1.5V50.6c0 1 .1 1.9-.1 2.9l-.2.1v-7.8c0-.3.1-.5-.1-.8l-.2-.2c-.2-1.6-.1-3.3-.1-4.9v-2.8c0-1.6-.1-3.2.2-4.8z"/><path d="M47.1 31.6v-1.5l.1-2.3c.3.5.1 1.1.1 1.6.2.3.2.6.2.9 0 .6.1.7.6.4.3-.2.6-.3.9.1.2.6 0 1.2.1 1.8 0 .4-.4.4-.6.6-.1 0 0 .1 0 0l.1-.1c.2-.1.3 0 .5.1.1.4 0 .6-.4.7-.4.1-.8.4-1.3.2-.2-.1-.2-.2-.1-.4s.3-.3.5-.3c.6 0-.1-.1 0-.2-.2.1-.7-1.6-.7-1.6z" class="st126"/><path fill="#b39b5f" d="M28.6 30.2v5.3c.2.3.2.7.7.8.2 0 .5.1.4.4 0 .2-.3.2-.5.3-.1 0-.3 0-.4.2v3.5l-.1.7c-.2 1.1 0 2.1-.1 3.2s.1 2.3-.1 3.4l-.2.1-.2-.2c-.2-.7-.1-1.5-.1-2.2v-4.4-1.7-3.4-3.5c.1-.8-.2-1.7.2-2.5h.4z"/><path fill="#bc9246" d="M34.2 31.6v.1c.4.8.1 1.7.2 2.5-.1 1.2.2 2.3 0 3.5l-.1.9-.1.8c0 .2 0 .5-.4.4-.3-.5-.1-1.1-.2-1.6a.8.8 0 0 0-.4-.4c-.2-.1-.4-.2-.4-.4 0-.3.3-.2.5-.3.5-.1.3-.3.1-.5-.2-.2-.2-.4.1-.5.2 0 .2-.2.3-.3v-4.3l.4.1z"/><path d="M54.9 25.3c.3.6.1 1.3.1 2v1.6c0 .3-.1.6-.4.5-.4 0-.3-.4-.4-.7l-.1-.2V27c0-.5-.2-1 .2-1.5l.6-.2z" class="st129"/><path d="M53.2 28.2v-.9c0-.5-.1-1.1.4-1.4l.2-.1c.5.2.2.7.3 1.1-.1.6-.3 1.3.1 1.9-.1.3-.2.7-.5.9-.3-.1-.1-.5-.5-.6l-.1-.2c-.1-.3 0-.6.1-.7z" class="st129"/><path d="M54 26.8c-.1-.4.1-.8-.1-1.2.1-.2.3-.1.4-.1v1.6c0 .1 0 .2-.1.1-.3 0-.4-.2-.2-.4z" class="st122"/><path d="M28.3 39.7v1.6c-.9.4-1.8-.2-1.8-1.1v-2c.2-1.4.3-2.7.3-4.1 0-.3-.1-.5-.4-.6l-4.7-1c-.2 0-.3 0-.3.2l-.5.2c-.8-.1-1.7-.1-2.5-.6-.2-.1-.5 0-.5-.4.1-.2 0-.2-.2-.3l-5.8-1.3c-.2 0-.4 0-.5.2l-.1 4.6c0 .3.1.7-.4.8-.2-.3-.2-.6-.2-.9v-3.5-.8c0-1 .2-1.2 1.2-1l4.4 1c.5.1 1.1.3 1.8.3-.2-.3-.5-.3-.7-.4l-6-1.3c-.6-.1-.7.1-.7.6v5.3c0 .3 0 .6.3.9.3.9.1 1.9.1 2.8 0 .1-.1.3-.3.3-.4.1-1.3-.2-1.5-.6l.2.6c0 1.6.1 3.2-.1 4.8l-.2.1V37l.1-3.6c.4-.1.3.2.4.4.1.3 0 .6.2.8.2-1.4.1-2.9.1-4.3v-1.2c0-.6.2-.8.8-.6l7.2 1.6 7.2 1.6c.9.2 1.8.2 2.6.8v.2l-.2.1-5.5-1.2c-.3-.1-.6-.2-.9-.1.2.3.4.2.6.3l4.1.9c1.4.3 1.4.3 1.4 1.8V38c0 .5 0 .9.6 1l.4.7z" class="st130"/><path fill="#e9ac35" d="M10 59.7c-.3-.1-.6.1-.9-.2v-8.1l.1-.9c0-.3-.2-.6.2-.8.4-.1.7.1.9.5l.1 2.4v6.1c0 .3.1.7-.2 1H10z"/><path fill="#f0c455" d="M10.2 30.4v4.5c-.1.2-.3.3-.5.3s-.2-.2-.2-.4c-.1-.4.1-.9-.1-1.4-.2-.5-.1-1-.1-1.5V26c0-.2-.1-.5.1-.7h.1v.1c.2.2.2.5.2.8v1.6c-.1 1 0 1.8.5 2.6z"/><path fill="#eec154" d="M10.2 50.1c-.2-.1-.4-.4-.7-.3-.3.2-.1.5-.2.7 0 .3.1.6-.1.8v-4.7c.4-.1.8-.3 1.1.1l.1.2v2.5c0 .4 0 .6-.2.7z"/><path d="M10.2 46.7c-.3.1-.7.3-1 0v-2.5h.1l.1.1c.1.2 0 .6.4.4.2-.1.4 0 .5.3.1.6.2 1.2-.1 1.7z" class="st134"/><path d="M9.3 25.4v8.1c-.1 1.2.1 2.5-.1 3.7V25.9c-.1-.3-.1-.4.1-.5z" class="st94"/><path d="M8.8 80.5v3.7c-.3-.2-.6-.3-1-.1-.7.2-1.3.4-2.1.1-.5-.2-1.1.3-1.6.5-.3.1-.5.2-.9.1-.7-.2-1.3.2-2 .4-.9.3-.9.3-.9-.6 0-.5.1-1-.1-1.4v-2.5l1.8-.1c.2 0 .5-.1.5.2 0 .2-.3.2-.5.2-.5-.1-1 0-1.7.2 1.2.3 2.2-.3 3.3-.1.2 0 .3-.2.3-.4.7.1 1.4-.2 2-.2 1 0 2-.8 2.9 0z" class="st135"/><path fill="#fceaa1" d="M27 82.1h-.1c-.2-.2-.2-.5-.2-.8v-3.9-3.3 5.5c-.1.9.2 1.8-.1 2.6s-.1 0-.1 0h-.1l-.1-.3c0-2.3-.3-4.6-.2-6.9 0-.6.1-1.2-.5-1.6.2.4.2.7.1 1.1 0 .2-.1.4-.3.3-.3-.8-.1-1.7-.2-2.5 0-1.6-.1-3.3.1-4.9l.2-.3c.5-.1.6-.5.6-1V65c.1-1.3-.1-2.7.1-4l.2-.1c.4.2.3.6.3.9v4.4c0 .4.1.1.2.1s.3 0 .3.2c.1.6.6.6 1 .8l.1.5v3.6c0 .5.1 1-.1 1.5-1.1.4-1 1.3-1 2.2v6c0 .4.1.7-.2 1z"/><path d="M24.6 79.3l-3.1.6h-.1c-2.3-.3-4.4-1.1-6.7-1.5-.7-.1-1.4-.2-2-.7-.2-1.3-.1-2.6-.1-3.9l.1-.2c.2-.2.4-.1.6.1l-.1 1.7c0 .5.1.8.7.9l2.4.6c.6.2 1.2.2 1.7.6l.1.1c1-.4 1.8.3 2.8.3 1.3.3 2.5.8 3.8 1 .3 0 .6.1.7.4-.2.1-.6-.2-.8 0z" class="st137"/><path fill="#fce191" d="M12.8 73.6v4.2c.1.2.1.4-.1.6-.3-.1-.3-.4-.3-.6v-1.6 1.7c0 .1 0 .3-.2.3-.2.1-.3-.1-.3-.2-.2-.4-.2-.8-.2-1.2 0-.1-.2 0-.1 0l.2 1.4c-.4 2.5-.2 5-.3 7.5-.3-.3-.1-.6-.1-1v-3c-.3-1.4-.2-2.9-.2-3.9.1 1.3-.1 3-.2 4.7v3.1c-.4-.1-.2-.4-.2-.6v-5.2l-.3-3.7v1.7c0 .3 0 .6-.4.7-.3-.2-.3-.5-.3-.8 0-.3.1-.6-.2-.8-.2.3-.1.6-.1.9 0 .3.1.6-.3.7v-1.6-1.5-1.2c0-.3.1-.5.4-.5l2.8-.2c.2-.2.3-.1.4.1z"/><path fill="#c1a27c" d="M20.5 80.1c-1.2.3-2.3.6-3.6.7-.4-.2-.8 0-1.1.1-1 .2-2 .3-3 .2l-.1-2.5.2-.4c.2-.2.5-.2.7-.1 2.1.7 4.4 1.1 6.5 1.7l.4.3z"/><path fill="#f1cc78" d="M13 78.3c-.3.9 0 1.9-.1 2.8h1c.3 0 .5-.1.7.1-.5.4-1.1.3-1.6.4-.3.1-.4-.2-.4-.5v-2.4c-.4.2-.3.5-.3.7v5.4c0 .2.1.6-.2.6-.3 0-.2-.3-.2-.5 0-1.6 0-3.1-.2-4.7v4.7c0 .3.1.5-.2.8-.1-3.1.1-6.2.2-9.3.1.5 0 1.1.5 1.6v-3c.4.4.3.7.3.9.1.8-.2 1.6.2 2.4h.3z"/><path fill="#f4cd78" d="M24.6 79.3c.2-.3.6 0 .8-.3v-.1c-.1-.9.1-1.8-.1-2.6l-.1-.3.1-.2c.2-.3 0-.7.3-.9.2-.5 0-1.1.1-1.6 1 .3.7 1.1.7 1.8v7.1c-.3-.5-.1-1.1-.1-1.7v-.9h-.2v2.7h-.2v-6.5h-.2v2.5c0 1-.1 1-1.1 1z"/><path fill="#f1cc7b" d="M10 78.4c.4-.1.3-.3.3-.6v-2.1c0-.2 0-.4.2-.4s.2.2.2.4c.1.8.2 1.6.1 2.3v6.8c0 .3-.1.5.1.8-.5.1-.3-.3-.3-.5v-5.7c0-.3.2-.8-.2-.8-.3 0-.2.5-.2.8v5.7c0 .2.1.5-.3.7v-4.9c-.2-.8-.3-1.6.1-2.5z"/><path fill="#756449" d="M13 78.3h-.1v-.6c.8-.1 1.4.4 2.2.5 1.3.2 2.6.5 3.8.9.8.3 1.5.3 2.3.5l.4.3-1 .2-2.9-.7-3-.7c-.6-.1-1.1-.5-1.7-.4z"/><path fill="#f3c94e" d="M10 78.4v2.5c-.7.4-.7 1-.7 1.7 0 .8.2 1.6-.1 2.4v-6.6c.3-.4.1-.8.1-1.2 0-.3-.1-.7.4-.7s.3.5.3.7v1.2z"/><path fill="#f0c653" d="M11.1 82.6c0-2-.2-4.1.2-6.1h.2v5.2c-.2-.2 0-.5-.2-.8-.2.6.1 1.2-.2 1.7z"/><path fill="#9b8165" d="M14.6 81.2l-1.2.1c-.2 0-.6.2-.6-.3h.6c1 0 2 0 2.9-.3.2-.1.4-.1.6.1l-2.3.4z"/><path fill="#faf2da" d="M15.8 85.1c.2 0 .5-.1.6.2-.2.2-1-.4-.6.5.1.2-.3.2-.5.4-.3.1-.7.3-.9-.3l.2-.1.3-.1-.3-.1v-.3a5 5 0 0 0 1.2-.2z"/><path d="M14.6 85.4l.5.4c-.1.3-.3.2-.5.2s-.4.2-.5 0c-.2-.1.2-.3 0-.5.1-.2.3-.1.5-.1z" class="st46"/><path d="M38.9 91.9c-1.7.5-3.4 1.3-5.2 1.3l-.2.1c-.3-.3-.6-.5-.9 0-.2.2-1.3.2-1.5 0-.1-.2 0-.3.2-.4 1.1-.5 2.3-.6 3.4-1h.3c.6.1 1.2 0 1.6-.4.7.1 1.3.3 2 .3.2-.2.3-.1.3.1z" class="st148"/><path fill="#6b6465" d="M38.9 91.9l-2.4-.4c.2-.4.6-.4.9-.4.2.2.3.4.6.3-.2-.1-.4-.1-.5-.3.5-.5 1.2-.4 1.9-.7h.5c.3.4.7-.2 1.1.1-.6.2 0 .4 0 .7-.3.3-.8.3-1.2.4-.3.1-.5.1-.7.3h-.2z"/><path fill="#d9bea5" d="M28.8 95.9c-.2.1-.5.3-.8.2-.4 0-.7-.2-.9-.4 0-.4.3-.4.6-.5.3-.1.6-.2.8-.5.4-.3.9-.1 1.4-.3l.4.2c-.4.2-.9.4-1.2.7-.3.2-.3.3-.3.6z"/><path d="M30.2 94.5l-.4-.2a1 1 0 0 1-.7-.3c-.2-.1-.4-.2-.3-.4 0-.2.2-.2.4-.3.2-.1.4-.1.6.1.3.3.7.3 1.1.1h.9c.2 0 .4.1.2.4l-1.8.6z" class="st151"/><path fill="#bebcbb" d="M32 94.1c-.3-.3-.7-.3-1.1-.3v-.2c.5-.1-.1-.4.1-.5.1-.2.2-.3.4-.2 0 .1-.2.3 0 .3.4-.1.7 0 1 .1.2.1.2 0 .2-.2.1-.4.6-.2.9-.5v.6c-.2.4-.6.5-1 .4-.1 0-.3-.1-.1.2l-.4.3z"/><path fill="#524e4e" d="M32.3 93.8l-.5-.2c.5-.2 1.2.1 1.6-.4h.3c.2 0 .3.3.1.3-.5-.1-.9.4-1.5.3z"/><path d="M39.1 93h-.2c-.4 0-.2-.5-.5-.6-.1-.1.1-.2.2-.1.3.1.4.4.5.7z" class="st0"/><path fill="#d09780" d="M36.2 95.4c0-.3.1-.4.4-.4l.2.2c-.1.2-.3.3-.6.2z"/><path fill="#edbd45" d="M28.5 81.8v-4.9c0-.4.1-.7.6-.7.2 0 .5 0 .5-.4l.4-.1c.8.4 1.6-.1 2.3-.1.2 0 0-.1 0-.1 0-.5.2-.5.5-.3 0 .4.3.3.6.3.5-.1.5.1.5.4v2.7c-.3-.9-1.1-.5-1.6-.4-.6.2-1.3.2-1.9.3l-1.4.4c-.4 0-.3.3-.3.5-.2.8.1 1.6-.2 2.4z"/><path fill="#bb8d3e" d="M40.2 78.5c-.2-.1-.1.6-.4.1-.1-.1-.4-.5-.6 0l-.1-.2a25 25 0 0 0-2.9-.5c-.6-.1-.7-.3-.7-.8s.1-1-.2-1.4c-.2-.4 0-.9 0-1.3.3-2.1.1-4.2.2-6.3l.1-.9c.5-.1.4.3.4.6V70c0 .4.1.5.5.3 1-.5 2.1-.3 3.1-.4.3 0 .5.2.6.5l.3 1.2v6c.1.4.1.7-.3.9z"/><path fill="#e9b849" d="M34.1 78.6v-2.8c.3-.4.7-.4 1-.2.4.1.4.5.4.8 0 .4.1.8-.1 1.2l-.1.1c-.2.2-.3.5-.7.3-.4-.2-.3.4-.5.6z"/><path d="M35.5 75.6c.3.5.1 1 .1 1.6 0 .4.2.6.6.6l2.2.4h.3c.5-.5.2.2.3.2-.9.1-1.8-.3-2.6-.4-.3 0-.8.1-1-.4.2-.6-.1-1.3.1-2z" class="st113"/><path d="M31.3 92.9c-.2 0-.3.1-.3.3-.2.2-.4.2-.7.2-1.3-.1-2.5.5-3.8.7-.7-.1-1.3-.4-2-.6-.5-.4-1.1-.4-1.6-.7 0-.4.3-.4.6-.5.6-.1 1.2 0 1.8-.2.6-.1 1.2.3 1.8.1l3.9-.3a8 8 0 0 1-2.2 0c-.2-.1-.2-.2-.2-.4.4-.3.9-.2 1.4-.3 1.6-.3 3.3-.6 4.9-.6l.3-.1c-.1-.3.1-.4.3-.4h1.7c-.4 0-.9.2-1.3-.1.2-.4.7-.1.8-.3-.9 0-1.9.4-2.9.3-.2-.1-.4-.1-.4-.4 0-.2.2-.4.5-.4h.4c2.7-.3 5.5-.3 8.3-.4l.8-.1c-.8.2-1.7 0-2.5.1-.3 0-.6 0-.7-.3.2-.5.6-.4 1-.4l4.5-.5c.2 0 .4 0 .4-.2s.1-.2.3-.3h1.7l.7-.1c.1.6.7.3 1 .6-.2.3-.5.1-.7.2l-.8.4c-1.3.1-2.4.7-3.7 1-.3.2-.6.2-1 .3.1.4.5.2.7.4-.6.4-1.2-.5-1.8-.1l-.5.2-1.1.2c-.6 0-1.1.4-1.7.3 0 0 .1.1 0 .2-.6.2-1.3.3-1.9.6l-1.1.3c-.2.4-.5.6-1.1.5-.9-.1-1.6.4-2.5.6-.2-.1-.8.1-1.3.2z" class="st158"/><path fill="#afaba8" d="M46 89.4c.1-.2.2-.3-.1-.3.2-.4.5-.3.8-.3v.3c-.1.3-.4.3-.7.3z"/><path fill="#ada8a4" d="M48.4 88c.2-.3.5-.3.8-.4-.1.7-.4.7-.8.4z"/><path d="M35.5 90.2l-.2.1.3.1c0 .2-.2.2-.3.2l-1.7.2c-2.5.1-4.9.8-7.4.8-.4 0-.9.4-1.2-.2 0-.1-.1 0-.2 0-.5.3-1 .2-1.4.2-.2 0-.1.2-.2.1 0 0 0-.1.1 0 1.6.2 3.2 0 4.8-.2l.4.1c0 .1 0 .2.2.3 0 .3-.3.3-.5.3-.4.1-.9.1-1.3.3-.6.3-1.2-.3-1.8-.1-1 0-1.9 0-2.9.3l-.5-.1-.8-.3c-.8-.3-1.7-.4-2.4-1.1 0-.2.2-.3.3-.3l1.8-.4c.1 0 .3.1.3-.1.1-.2.2-.2.4-.2a2 2 0 0 0 2.1.1c.7 0 1.3-.3 2-.1.6.4 1.3.3 1.9.2l1.9-.2c.2 0 .1-.1.1 0h-.1c-1 0-2.1.4-3.1.2l-.8-.4c.3-.5.8-.3 1.2-.4 1.3-.2 2.7-.3 4-.6.2 0 .3.2.5.1a.8.8 0 0 1-.4-.2c-.1 0-.4 0-.4-.2s.2-.2.4-.2l1.1-.1c.1 0 0-.2 0-.1l-.1.1c-.3.1-.7 0-1-.2-.1-.3.2-.3.4-.5.6-.3 1.3-.3 1.9-.7.3-.1.6 0 .9.2 0 .4-.3.2-.5.2.4 0 1.7-.1 2.1-.3l1.4-.1c.1 0 0-.2 0-.1v.1c-.3 0-.6.2-.9 0-.1-.3.2-.3.4-.4l4.2-.5c.2 0 .3 0 .3-.2 0-.3.3-.3.6-.3l1.2-.1h.3c.2 0 .3.1.5.3l1.3.2 1.5.4c-.2.5-.6.4-1 .4-.6 0-1.1.1-1.6.3-.1.1.1.2 0 .1v-.1c.7-.4 1.5-.4 2.3-.4.2 0 .5 0 .5.3-.1.1-.1.1 0 .2 0 .3-.2.2-.4.2-1.1.2-2.2.1-3.4.3l-3 .4c-.7.1-1.5.2-2.2.1h-2c1.5 0 3 .1 4.4-.1l.4.1c1.1.3 2.3.2 3.4.1h.9c-.5.4-1.1.3-1.5.3-1.3.1-2.6.4-3.9.3-1.7-.1-3.4.4-5.1.2-.2 0-.3.1-.4.3l.3.2c-.5.3-1 .3-1.5.5-.1 0 .1.1 0 0h.1l2.2-.4c.3-.1.5-.1.8 0 .2.2.3.4 0 .5z" class="st161"/><path fill="#f9f3ed" d="M22.7 86l1.8-.4c1-.3 2.1-.4 3.1-.8l.9-.2c1.5 0 3-.3 4.5-.4.1 0 .1.1.2 0 .2-.5.2-.5.6-.5H35c.4-.1.6.3 1 .3l1.8.3c.4.5-.1.5-.3.5-.6.1-1.1-.1-1.5.1.7 0 1.5-.4 2.3.2l-.1.2c-.6.3-1.2.2-1.7.2-2.1.1-4.1.4-6.1.6h-2.3c-.2 0-.4-.1-.5.1.4-.2.8-.1 1.2-.1l4.2-.3.6.1.1.3c-.6.4-1.3.1-1.9.3-.2.1-.4 0-.5.2-.4.3-.8.4-1.3.1a.6.6 0 0 0-.6 0c-.7 0-1.4-.2-2 .1-.1.2.3.2.1.4-.2.2-.4.2-.6.1-.7-.1-1.4.2-2.1.3.7-.1 1.4-.5 2.1-.3l.7.4c-.1.3-.3.3-.5.3-1.8 0-3.5.3-5.3.6-1 .1-2.1.3-3.1.2h-2.1c-.1 0-.3-.1-.3.2-.4.4-.9.3-1.4.4-.5.1-.8-.2-1.2-.3l-.3-.1-.7-.3c-.2-.2-.5-.4 0-.6 1.2-.4 2.5-.8 3.8-1 .5 0 .9-.3 1.5-.3 1.2.3 2.3 0 3.4-.2 1-.2 1.9-.1 2.9-.2-.3 0-.5-.2-.8 0-.1.1-.3.1-.3-.1-.1-.2.1-.3.3-.3l1.1-.1c-.4-.1-.7.1-1 .1-.7.2-.9.2-.9-.1z"/><path d="M29.2 86.7c.3-.1.5-.4.9.1.2.3.6 0 1 0a5 5 0 0 1 1.7-.3c.3 0 .6.1.8-.2V86c.6-.5 1.4-.4 2.1-.5.9-.1 1.8-.1 2.6-.3v-.1c.6-.4 1.2-.2 1.8-.2l1.6.5c0 .4-.3.3-.5.3l-2.4.3c.2.1.5-.1.5.2 0 .3-.3.3-.4.3-1 0-2 .1-2.9.4-.2 0-.4 0-.6.2l.3-.1.4.1h1c-.5.2-.9.3-1.4.3-.5.2-1.1.2-1.6 0l-.9-.1c-.7.4-1.6.5-2.4.6.2 0 .4-.1.6.1l-.4.3c-.4.5-1.1.2-1.6.4-1.6.6-3.3.9-4.9 1.3h-.4l.8-.2c.3 0 .5-.1.8.1.3.1.6-.2.7.3-.2.2-.4.2-.6 0-.8-.1-1.5.2-2.2.1-.6.1-1.3.6-1.9-.1l-.5.1-1.8.5c-.3 0-.6.1-.8.3-.9-.1-1.7-.6-2.6-.8l-.8-.3c-.2-.1-.5-.2-.6-.5l1.5-.4c.2-.2.4-.2.7-.2h2.6c2.2-.1 4.4-.5 6.5-.7l1.2-.1c.1 0 .4.1.4-.2-.2-.1-.5.1-.6-.3.6-.3 1.2.1 1.8 0a.2.2 0 0 1-.2-.2c.1-.3.4-.2.6-.2-.5-.1-1.1.5-1.6 0-.2-.1-.6.2-.4-.3.5-.3 1.3-.2 2.1-.2z" class="st158"/><path fill="#d8c4ba" d="M35.7 86.7c1.1-.4 2.2-.6 3.4-.4-.1-.4-.4 0-.5-.3.6-.5 1.3-.4 1.9-.5.4 0 .7.1 1.1-.1l1.1.2c-.5.3-1.1.2-1.7.3 0 .4.5.1.4.4-.1.3-.4.2-.6.2l-4.8.6h-.4c-.1-.3 0-.3.1-.4z"/><path fill="#dccac0" d="M35 83.7l-1.9.3c0 .3.4 0 .4.4-1.7.1-3.3.7-5.1.3l3.7-.9-.1-.1c0-.1-.1-.3 0-.2.5.2.9.2 1.4 0 .2-.1.6.2.9.3.3-.2.5-.2.7-.1-.1 0 0 0 0 0z"/><path fill="#d8c9c0" d="M40 84.9l-1.8.2c-1-.4-2 0-3-.1.6-.4 1.3-.3 2-.4.2 0 .5.2.5-.2l.1-.1c.8 0 1.4.6 2.2.6z"/><path fill="#a9a6a6" d="M43.4 85.8l-.5-.3c0-.6-.8 0-.7-.6.7 0 1.3.6 2 .5-.2.6-.7-.2-.8.4z"/><path fill="#635f5e" d="M37.9 84.3l-.1.1L36 84l.1-.1c.6 0 1.2 0 1.8.4z"/><path fill="#504a4a" d="M16.1 87.6c-.9.1-1.8.6-2.7.7l-1.2.3c.1.2.2.2.4.2-.1.5-.5.4-.8.4l-.9.1h-.2l-1.9-.7c1.7-.6 3.4-.7 4.9-1.3.4-.1.8.3 1.2-.1l1-.1c.4-.1.6.1.2.5z"/><path fill="#484344" d="M16.1 87.6c.2-.4 0-.5-.3-.4-.3.1-.6.3-.9 0 1.1-.3 2.2-.6 3.4-.7h1.6c.1-.1.3-.1.4 0 .1.2-.1.3-.3.4-.8.3-1.6.6-2.5.5-.5-.1-.9.2-1.4.2z"/><path fill="#b57d68" d="M14 86c.2 0 .4-.3.5 0 .1.5.5.2.8.3.1.2 0 .2-.2.2h-1.2c-.3-.2-.2-.4.1-.5z"/><path d="M35.5 75.6c-.1.7.1 1.4-.1 2.1v-1c0-1.1-.2-1.2-1.3-.9.3-.8.1-1.7 0-2.5-.3-.5-.2-1.1-.1-1.6.3-.4.7-.6 1.1-.4.4.1.4.5.4.7-.2-1.6-.1-3.4-.1-5.2.1-.1-.1-.1 0-.1-.5.4-.9.2-1.3-.1-.3-.5-.1-1.1-.1-1.6 0-.4-.1-.9.1-1.3l.2-.1c1 .1 1-.6 1.1-1.3l.1-4.2c0-.4-.2-.6-.5-.6l-.4-.2c-.1-.3-.1-.5.2-.7.3-.1.6-.1.9.1.2.1.3.3.4.6.2 1.6 0 3.3.1 4.9v4.3c0 .3 0 .6-.2.8v5.9c0 .8.1 1.6-.3 2.3-.4 0-.2.1-.2.1z" class="st171"/><path fill="#f3cb61" d="M32.7 75.2h-.3c-1 .9-1.5 1-2.9.6H28.7c-.2 0-.4 0-.4-.3 0-.2 0-.5.3-.5s.6 0 .8-.3c-.3-.4-.8.1-1.1-.2-.1-.6.2-.9.8-1l3.7-.3c.3-.1.7 0 .5.5-.2.3-.6 0-.8.4h.8c.2 0 .4-.1.4.3 0 .2 0 .4-.3.5-.1.2-.4.3-.7.3z"/><path d="M33.5 73.9c0-.2-.1-.4-.4-.3-1.2.3-2.4.2-3.6.3-.6 0-.8.3-1 .8v-.1a1 1 0 0 1-.1-.9c.3-1.4.4-1.5 1.9-1.5l2.5-.2c.4-.1.8-.1 1.2.2.2.6.1 1.3-.1 1.9l-.4-.2z" class="st173"/><path fill="#bdac78" d="M33.8 73.9V72c-.2-.2-.2-.4-.2-.7.2-1.5.1-2.9.1-4.4v-1.4l.1-.4.3-.1V66.7c.3 1.6.3 3.3 0 4.9v1.7c-.3.1-.1.4-.3.6z"/><path fill="#f4cc67" d="M27 82.1c.1-3-.1-6.1.2-9.2.3.3.7.1 1 0 .3.5.2 1 0 1.5v2.8c-.2.1-.2.2-.2.4.1 1.2-.2 2.3-.1 3.5 0 .3 0 .5-.2.8l-.3.1c-.2-.2-.2-.5-.2-.8v-3.6 3.6c0 .3.1.5-.1.8l-.1.1z"/><path fill="#afa26e" d="M28.2 74.5V73v-1.5c.2-1.2 0-2.5.1-3.7-.2-1-.2-2-.2-2.9v-3.1l.1-.9.2-.1c.4.5.2 1.2.2 1.8v8.9l-.2 1.9v.9c0 .2-.1.2-.2.2z"/><path d="M27.7 82c-.2-1.5.1-3 0-4.6 0-.5.2-.4.4-.2v4.1c.1.4.1.7-.4.7zM27.1 82.1v-5.3h.3v5.3c-.1.2-.2.1-.3 0zM26.8 77.4v4.7l-.3.2v-2.7l.1-1.8c0-.1-.1-.4.2-.4z" class="st42"/><path fill="#dacac1" d="M46.3 87.1c-.6-.4-1.3-.2-1.9 0l-1.2.1c.4-.5.9-.5 1.4-.5.5 0 1 0 1.5-.3.6.3 1.4 0 2 .5-.6.4-1.2.2-1.8.2z"/><path fill="#d5c6bd" d="M39.5 90.5l-.5-.2c.7 0 1.4-.7 2.1-.3-.3.3-.8.3-1.2.5-.1-.1-.2 0-.4 0z"/><path d="M17.5 87.3l2.5-.6c.1 0 .3 0 .2-.2l-.3-.1c.1-.2.3-.3.4-.2.6.5 1 .1 1.4-.2.3.2.6-.1.9 0 .2.4.5.1.8.1a2 2 0 0 1 1.3.1c-.7.4-1.4.2-2 .4.5-.1 1 .1 1.5.1-.6.4-1.1.2-1.6.3l-4.3.5a3 3 0 0 1-.8-.2z" class="st72"/><path fill="#9d4438" d="M12.1 60v-.4l.4-.2h8.9l1-.1 3-.1 1.1.1h.2l.2.1.2.3v.2c-.1.3 0 .6-.4.8l-.9.1-9 .2-4 .1-.8-.1c-.3-.3-.1-.7.1-1z"/><path d="M10.2 50.1v-3.3c.2-.7 0-1.4.1-2.1l.1-.4c.1-.2.2-.3.4-.3s.3.2.3.4V44.7c0-.2.1-.4.3-.4.3 0 .4.2.4.4V58.6c0 .4.1.7-.2 1.1-.5-.1-.3-.5-.3-.8v-9.8 9.8c0 .3.1.6-.2.9h-.3c-.3-.3-.2-.8-.2-1.2V49c-.3 3.1-.1 6.5-.1 10 0 .3 0 .6-.2.8h-.1v-9.7z" class="st134"/><path fill="#4a352a" d="M12 60.9l14.9-.3c.8-.4 1.6-.1 2.4-.3h1.8c.2 0 .5 0 .5.3s-.2.4-.4.4h-2.5-.1-.1l-.9.1H27l-.3-.1-.8.1-.2.1c-1 .2-2 .1-3 .1s-2-.1-3 .1h-.3l-6 .2c-.6-.3-1.3-.2-2-.2l-.7.1h-.3c-.3 0-.6.2-.9-.1-1.5-.4-2.6-.2-3.8-.1H4.6c-.1 0-.4 0-.2-.3l.7-.2 5.9-.1c.4 0 .7 0 1 .2z"/><path d="M10.3 59.7v-7.6l.1-3.9c0-.1-.1-.3.2-.3.2 0 .2.1.3.3v11.5c-.2.1-.4.3-.6 0z" class="st181"/><path d="M10.2 61.2l.2.1c.2.3.2.6.2.9v3.5c.2 0 .2-.3.4-.2.3 1.1.2 2.2.1 3.3 0 .4-.8.6-1.4.5-.5-.1-.4-.4-.4-.7l-.1-.3v-.6-2.8c.4.1.3.4.3.6.1.3-.1.5.2.9l.3-2.2v-2.3c0-.1-.1-.4.2-.7z" class="st182"/><path d="M12.5 59.5H11.9c-.2-.3-.1-.6-.1-.8v-7l-.1-.9V48c.7.4.5 1.2.5 1.8v9.1c0 .1.1 0 0 0h-.1v-8.3-3-.6c0-.2 0-.6.3-.6s.2.4.2.6v2.1l-.1 1.1v8.3c.2.4.3.8 0 1z" class="st183"/><path fill="#f0bf47" d="M10.2 61.2l-.1 5.1c0 .3-.1.5-.4.5-.5 0-.3-.3-.3-.5-.1-.4.1-.9-.1-1.3v-3.7l.9-.1z"/><path d="M11.8 50.9c.2.2.1.5.1.8v7.9c-.2.3-.5.1-.7.1v-12c.4.4.3.7.3.9v10.2c0 .3-.1.5.1.8l.1-.7v-7.3c0-.2-.1-.5.1-.7z" class="st181"/><path d="M12 60.9c-2.5.1-5 .2-7.5.1.2-.2 0-.6.3-.9.2.3.5.2.8.2l4.8-.1h.7c-1.5-.1-3 .1-4.5.1-.3 0-.7.1-1-.2.2-.2.5-.1.8-.1h5.7c.1.3-.1.6-.1.9z" class="st79"/><path fill="#f6ce66" d="M5.6 60.2h6.3c0 .3-.2.3-.4.3l-6.3.1c-.3 0-.6.1-.5-.4h.9z"/><path fill="#ebbc36" d="M55.2 20.9l1.6.7-5.4 1.8-12 4.1a144.6 144.6 0 0 1-6.6 2c.1-.2 0-.4.2-.5l3.3-1.3h.1c.1-.1 0-.1-.1-.1-.2-.2-.4-.3-.4-.6.2-.2.2-.6.5-.7h.1c.8.7 1.6.5 2.5.2l7.9-2.7.5-.3c-.2-.4-.7-.6-1.1-.9l-1.1-.8c-.3-.2-.7-.4-.8-.7l.2-.2c.4 0 .6.3.9.5.6.4 1.2.7 1.6 1.2-.5-.5-1-.8-1.6-1.2-.2-.1-.4-.2-.4-.4.3-.4.5-.1.7 0l2 1.4-2.2-1.6c-.1-.1-.3-.2-.2-.4h.3l1.4.9c.5.1.8.4 1.2.7.7.9 1.6 1 2.6.5s2.2-.8 3.3-1.2c.3-.3.6-.4 1-.4z"/><path fill="#fae791" d="M45.6 20.2c-.4.1-.1.2 0 .3l2 1.5a49.9 49.9 0 0 1-1.8-1c-.2-.1-.4-.4-.7-.2-.8 0-1.3-.6-1.9-.9-4.1-2.2-8.3-4-12.8-4.9-.5-.1-1.1-.1-1.6-.5-.7-.4-1.5-.3-2.3-.5-.4-.1-.8-.1-1.1-.3l.2-.3c1-.1 2 .1 3 .4.4.1.9.3 1.3.2 2.2.4 4.3 1.1 6.3 1.8a41 41 0 0 1 9 4.2l.4.2z"/><path fill="#fdf8d0" d="M48.1 21.8l-1-.7c.3-.5.7-.8 1.2-.9.7-.2 1.3-.3 1.9-.7.5-.3 1.1-.1 1.6-.2l1.9.9c0 .2-.2.3-.4.3-1.7.2-3.3.7-4.9 1.3h-.3z"/><path fill="#fdfae2" d="M30.7 9.9c.4.2.9.3 1.3.6-.2 1-1.2 1.4-1.9 1.9-.5.4-1.2.5-1.4 1.2-.7.1-1.3-.2-2-.2-.3-.3-.1-.4.1-.6 1.3-.8 2.6-1.6 3.5-2.9.2-.1.3-.1.4 0z"/><path fill="#e2be4d" d="M26.7 13.2l2 .4 1.2.3c-.8.3-1.5-.2-2.3-.2l-2.1-.2c-.9.2-1.8-.1-2.7-.1a.5.5 0 0 1-.5-.3l.3-.2c.7-.4 1.4-.1 2.1 0l.8.1c.4-.1.8 0 1.2.2z"/><path d="M46.7 14.9c.3.4.1.8.1 1.2l.1 1.1-.6-.2c.5-.3.2-.8.3-1.2.2-.3.1-.6.1-.9z" class="st12"/><path fill="#fce888" d="M25.5 13.1l-3-.3 3-2c.1-.1.1-.2.3-.2.6-.4 1.3-.7 1.8-1.2.7-.6 1.3-.6 2-.1.3.4 0 .8-.3 1a8 8 0 0 1-3.8 2.8z"/><path fill="#fdf3b7" d="M25.5 13.1l1.3-.8c.9-.5 1.8-1.1 2.4-1.9.2-.3.5-.6.4-1 .3.2.7.2 1 .5a8.9 8.9 0 0 1-3.8 3.1c-.1.1-.2.1-.2.3l-1.1-.2z"/><path d="M25.8 10.6l-.3.2V6.1l.1-.5v4.2c.1.2 0 .5.2.8z" class="st7"/><path fill="#fdefab" d="M9.2 68.4c.2.1.1.3.1.5l.1.3c.4.3.8-.3 1.3 0 .2.1.3-.3.3-.5v-3.1l-.2-.2c-.1-1.3-.2-2.6.1-3.9l.2-.1c.3.3.2.6.2 1v6c.1-.8-.1-1.6.4-2.3.7.8-.1 2 .7 2.7l.1-.6c.1-.2.1-.4.4-.3l.1.7v4.6l-.1.2v.2c-.6-.1-1.1.1-1.7.1-.4 0-.8.2-1.2.1-.5-.1-.6.1-.6.6 0 .3.1.7-.1 1l-.1-7z"/><path fill="#dbb03d" d="M24.6 14.1c-.9-.3-1.9-.2-2.9-.4-.1 0-.3 0-.4-.2l.2-.2c1.6-.1 3.2.3 4.8.5a6 6 0 0 1 1.8.5c0 .4-.3.3-.6.4l-1.3-.2-.8-.2c-.2 0-.5.1-.8-.2z"/><path fill="#deb845" d="M25.4 13.5l3.5.6-.2.1c-.4.3-.8-.1-1.2-.1l-.9-.2-4.5-.6-.4-.2.3-.3c.8.3 1.6.2 2.4.3.4.3.7.3 1 .4z"/><path d="M21.8 13.3c1.1.3 2.2.2 3.3.4.5.1 1.1.1 1.6.3l-.3.1-4.9-.7.3-.1zM25.4 13.5l-2.8-.3c-.2 0-.3-.1-.4-.3h.1c.8.3 1.7.1 2.6.3.2.1.5-.1.7.1l-.2.2z" class="st196"/><path fill="#fdf2b1" d="M24.6 14.1c.3.1.6 0 .9.2-2.7 1.2-5.1 2.9-7.6 4.6-.5.3-1 .5-1.6.6h-.9c.1-.3.5-.5.8-.6 1.6-.8 3-2 4.6-2.8l2.8-1.7c.3-.4.7-.2 1-.3z"/><path fill="#fdfad8" d="M16.4 19.4c1.6-.7 2.9-1.8 4.4-2.7l3.9-2.4c.3-.2.6-.1.9-.1l.7.1c-.6 1-1.7 1.5-2.6 2.1-1.8 1-3.4 2.2-5.3 3.2l-.4-.1c-.6.1-1.1 0-1.6-.1z"/><path fill="#fdfade" d="M14.9 20.3h1.6l.2.2-.2.5c-.8.5-1.4 1.3-2.3 1.5-.5.1-1 0-1.5-.1h-.1c-.2-.1-.6 0-.6-.3 0-.4.4-.2.6-.4l2.3-1.4z"/><path fill="#f8e397" d="M16.7 20.5l-.2-.1h.7v-.1h-1v-.2h1.7V20h-1.5c.6-.3 1.1 0 1.4-.3h.5a5 5 0 0 1 2.9.4c.4.2-.4.2-.1.5-.3.1-.1.5-.4.6-1.3-.3-2.7-.3-4-.7z"/><path fill="#fdf3b1" d="M14.9 20.3c-.7.9-1.8 1.2-2.7 1.8.1.1.4-.1.5.1-.5.4-1 .2-1.5-.1.4-.6 1.1-.7 1.6-1.1.3-.2.6-.3.6-.7h1.5z"/><path fill="#deaf39" d="M11.2 22.1c.5 0 1 .2 1.5.1l1.6.2c1.4-.1 2.8.3 4.1.6.2.3-.1.4-.2.6-.5.2-.9.3-1.4.1-.8-.2-.9-.1-1 .6l-.2.5-7-1.9h-.1c-.3-.1-.8-.1-.8-.5-.1-.2.3-.4.7-.4l2.8.1z"/><path d="M60.3 56.5c-.3-.6 0-.8.5-.9.3.3 0 .6-.1.8l-.4.1zM60.8 53.6c-.2-.2-.6.2-.6-.3 0-.4.3-.4.6-.4.2.2.2.4.1.6l-.1.1z" class="st9"/><path fill="#f8d48c" d="M61.8 56.2c-.1 0-.2 0-.3-.2 0-.2.1-.2.3-.2.1 0 .3-.1.3.2 0 .1-.1.2-.3.2z"/><path fill="#efc639" d="M15.5 24.9v-.8c.1-.5.4-.8.9-.6.6.3 1.2.1 1.8.1.5-.1 1 .1 1.5.2 1.6.3 3.2.9 4.8 1.4l.5.4c0 .6.2 1.3-.5 1.7l-1.9-.5-4.7-1.3-2.4-.6z"/><path fill="#f3d45b" d="M24.5 27.3c.4-.5.3-1.1.5-1.6.2-.2.5-.1.7 0 2.3.9 4.5 1.7 6.7 2.9.2.1.5.2.6.5 0 .2.2.4-.2.5l-6.7-1.8c-.6-.2-1.2-.2-1.6-.5z"/><path fill="#fdeb92" d="M48.1 21.8a15 15 0 0 1 5.1-1.5l.5-.1.8.3.7.4-5.6 2c-.2.1-.3 0-.4-.1l-1.1-1z"/><path d="M10.2 30.4c-.7-.5-.8-1.2-.7-2v-2.9c2.5.5 4.9 1.2 7.4 1.9l6.7 1.7 4.7 1.2v2.5c-.2.2-.4.3-.6 0-1.1-.5-2.4-.6-3.6-.9-1.6-.5-3.3-.7-5-1.1l-8.2-1.9c-.6-.2-.9-.1-.8.6l.1.9z" class="st207"/><path fill="#f5d084" d="M4 80.7c-.3.1-.5.1-.6-.2-.1-.3.2-.4.4-.5l1.8-.3c.1 0 .4-.1.4.1s-.1.4-.3.5c-.6 0-1.1.2-1.7.4z"/><path d="M8.8 79.2v.6l-1.7.2c-.1 0-.3.1-.4-.1-.1-.2.2-.3.3-.3l1.8-.4z" class="st135"/><path fill="#b7873d" d="M59.1 65.6v8.6l-.1.7c-1.2.4-2.4.8-3.7.9-.5 0-.8.4-1.3.3-.4-.6-.1-1.3-.1-1.9l.1-3.1.1-.7c0-.1.1-.3.2-.2.2 0 .2.2.2.3.4-1.1.2-2.2.2-3.4v-4.2c.1-.9-.2-1.8.1-2.6l.4-.1c.3.3.2.7.2 1.1v6.3c0 .8.1.9.9.7l1.4-.4c.4-.2.9-.1 1.3.2 0 0 .1-.2 0-.1h-.1c-.2-.7-.1-1.4 0-2.1 0-.1 0-.3.2-.3z"/><path fill="#c19648" d="M54.9 67.2c0 1.4.1 2.8-.5 4.2-.2-.4 0-.8-.3-1.3L54 76c-.3.3-.6.1-.9.1-.3-.4-.2-.9-.2-1.4-.1-.7.2-1.5-.2-2.2l-.1-1.1v-9.9l.1-1.2a2 2 0 0 1 2.2-.2v2.6h-.3c-.1-.6-.9-.9-.6-1.5v1.2l-.2.3-.2-.3c-.1-.5-.1-1.1 0-1.6-.3.3-.4.6-.4 1v4.9c0 .8.4 1.5.4 2.2V70.6c0-1.4-.4-2.9 0-4.4.5.4.3.9.3 1.2V67.7c.1-.5.1-.5 1-.5z"/><path fill="#b5833d" d="M52.8 72.7c.4.1.3.4.3.6v2.9l-2.7.6-.5.2c-.6.3-.8.2-.9-.5l-.1-.2-.3.1c-.3 0-.6-.1-.6-.4 0-.3.3-.3.6-.3h.2c.2.2.5.1.6.3-.8-.5-.6-1.2-.4-1.9l.3-.2c.9-.1 1.8-.5 2.8-.5.4.1.5-.4.7-.7z"/><path fill="#f9d46e" d="M48.7 75.9H48c.2.4.6.4.9.4-.1.3.1.6-.1.9-.3-.2-.6-.1-.9-.1-.1 0-.3.1-.2.2.1.1.4.3 0 .2-.4 0-.5.2-.6.4v-1.8c.1-.5.1-1.1 0-1.6 0-.4.2-.6.6-.7.3 0 .5-.1.8 0 .2 0 .5.1.5.4-.2.6-.1 1.2-.3 1.7z"/><path fill="#ae8f6e" d="M51.3 78.3c.3.2.6.4.9.4.3.3.6 0 1 0h.8c-.3.1-.7.1-1 .3l.5.2-4.2.5c1.2.2 2.5 0 3.7 0-.8.4-1.6.2-2.4.4-.9.3-1.6 0-1.8-.6.1-.3.4-.2.6-.3.3-.2.8.1.9-.5.1-.2.5 0 .7 0 .5.1.1-.3.2-.4 0 .1.1 0 .1 0z"/><path fill="#66523c" d="M51.2 78.4c0 .2.4.1.3.3 0 .2-.2.3-.4.3l-.7-.2c-.5 0 .3.3-.1.4-.5.1-1 .4-1.5.3a.3.3 0 0 1 0-.4c.7-.5 1.6-.6 2.4-.7z"/><path d="M48.8 79.1v.4c0 .6.4.7.9.8h.8c.8.4 1.8.5 2.7.6-.3.4-.7.1-1 .1-1.1-.1-2.2-.5-3.3-.5-.3-.3-.3-.7-.3-1.2v-1.5c.5.3.1.8.2 1.3z" class="st215"/><path d="M59.1 47.5v13.7c-.2 0-.3-.1-.4-.3-.2-.2-.3-.4-.6-.2-.6.3-1.7-.2-1.9-.6l.1-.1.4-.1c-.7.2-1.5.2-2.2.2-.3 0-.7.1-.6-.4 0-.5.4-.4.7-.4H57h-2.6c-.2 0-.5.1-.6-.2l.1-1.1V46.7 46l.2-.3c.5-.2.5-.2.5-.8-.1-1.5.2-3-.1-4.5 0-.1.1-.4-.2-.1-.2.2-.3-.1-.3-.2-.1-.6-.6-.7-1.1-.8-1-.1-1.9-.4-2.8-.6l-.4-.1c-.2-.1-.4-.2-.3-.5.1-.3.3-.2.6-.1l4 .9-4-.9c-.4-.1-.9.2-1.1-.3-.1-.7-.3-1.4.2-2l1.8.6c1.2.2 2.4.7 3.7.9 1.4.3 2.8.9 4.2 1 .7.1.4.6.4.9-.2.4-.1.8-.1 1.2 0 .3-.1.5-.4.4-1.1-.4-2.3-.5-3.3-1.1 0 .5-.1 1 .4 1.4l.1.2c-.5.4 0 .5.2.8.2.2.1.3-.1.4-.5.1-.5.5-.5.9v3.8c1.1-.5 2.2-.3 3.3.1 0-.1.2 0 .3.3z" class="st216"/><path fill="#cf9f48" d="M56.2 60.3c.5.4 1.2-.1 1.7.4h.1c.7-.2.7-.2 1.1.5v4.4c-.3.9 0 1.8-.2 2.8-.5-.5-.9-.4-1.5-.1-.6.3-1.3.4-2 .4-.5.1-.3-.4-.3-.6v-7.9c.4-.1.7-.1 1.1.1z"/><path fill="#c4963e" d="M59.1 47.5c-1.3-.7-2.8-1-4-.2v-4.8c0-.6.5-.3.8-.5-.1-.3-.6-.2-.7-.5-.2-.5.4-.3.5-.4-1-.5-.3-1.4-.5-2.1.7.8 1.7.8 2.6 1.1l.4.1c.8.3.8.3.8-.5 0-.2-.1-.4.1-.6v2.7c-.4.1 0 .2 0 .3v5.4z"/><path fill="#f7ce70" d="M49 35.5v2.1c.1.2.2.4.1.6-.3.6-.9.6-1.4.6-.3 0-.5-.2-.5-.5v-1.5-5.2c.2.1.1.4.1.5 0 .8 0 .8.8.7-.7.8.1.5.5.6l-1.1.2-.2.2.1.2c.4.2 1.4-.4 1.5-.8.5.5.4.7-.4 1l-.6.1 1-.1.2.2v.5l-.1.6z"/><path d="M59.1 41.9l-.7-.2c.3-.3.5-.2.7-.1v.3z" class="st216"/><path fill="#d0b594" d="M53.2 28.9h.2v.3c-.7.4-1.5.4-2.2.7l-1.3.3a20.5 20.5 0 0 1 10.3 3c.3.1.5.3.7.6v.5c-.8.5-1.8.6-2.7 1.1l-2.9-1.3c-.9-.1-1.7-.5-2.5-.8-1-.4-2.1-.6-3.1-.9a.8.8 0 0 0-.8.2c-.3-.6-.1-1.3-.2-1.9-.2-.3-.1-.7.2-.8a49 49 0 0 1 4.3-1z"/><path fill="#be973f" d="M49 32.6c0-.2-.1-.6.4-.5 2.1.5 4.1 1 6 2-.1.1-.4.2-.1.3l3.7 1.8c.3.1.7 0 1.1-.1.3-.1.5 0 .9.2-1 .2-1.8.5-2.6.3l-8-2.2c-.5-.1-.9.1-1.3.2l-.2-.1c-.3.1-.6.2-.6-.3.4-.1 1.1-.2.6-.9h-.6c0-.6.5-.5.7-.7z"/><path fill="#d1ac5e" d="M58.2 35.4c.1-.4.4-.4.7-.5.6-.3 1.3-.5 2-.6v1.5h-.4c-.8.3-1.5 0-2.3-.4z"/><path fill="#d0b493" d="M51.2 29.8c.7-.3 1.4-.4 2.2-.6.2 0 .2.3.3.3.2-.3.1-.8.6-.9l.1.2c.1.2-.1.5.2.5.4 0 .2-.3.2-.6.2-.2.4-.3.6-.2.3.2.3-.1.5-.2 1.4-.4 2.9-.7 4.3-1.2.6-.2.8-.1.7.6 0 .6.2 1.3-.1 1.9-.2.2-.7.3-.1.6.4.2.3.6-.1.8-.3.1-.2.3-.2.5.1.2.3 0 .4 0v1.3c-.3.1-.5-.1-.8-.2a29.7 29.7 0 0 0-8.8-2.8z"/><path fill="#f2ca83" d="M55.6 28.6l-.7.1c0-.1 0-.2.2-.3.3-.1.5-.3.4-.6v-1.5c0-.4.1-.6.6-.6v1.8c0 .5.2.6.6.5l4.4-1.2c.2.8-.1 1.7.1 2.5v.1l-.3.2v-2.1c0-.3-.1-.5-.5-.4l-4.5 1.2c-.2-.1-.2-.2 0-.4-.2.3-.1.6-.3.7z"/><path fill="#ceaa67" d="M51.2 29.8c1.2.2 2.4.4 3.6.8 2.1.5 4.2 1.3 6.1 2.4v.9l-3.5-1.7c-1.7-.7-3.4-1.1-5.2-1.4l-3-.4c.7-.4 1.3-.6 2-.6z"/><path d="M61.2 29.3c-.3-.8-.1-1.7-.1-2.5.3.7.1 1.4.2 2.1l-.1.4z" class="st37"/><path fill="#4b4144" d="M24.5 93.3l1.8.6c.5.2 1 0 1.5-.2.3-.1.6-.2.4.4-.1.2.2.3.2.5.2.4-.2.4-.4.5l-1 .4c-.7.4-1.1-.2-1.6-.4l-.3-.1c-.2 0-.4 0-.4-.3l.4-.2c-.1 0-.3 0-.5.2s-.5 0-.7-.1l-.3-.3c-.1-.2-.3-.2-.5-.1-.4 0-.7-.1-.9-.4l.2-.3c.8 0 1.4-.4 2.1-.2z"/><path d="M22.4 93.8l.9.4c-.5.1-1 .3-1.3.8-.2.3-.5-.4-.8-.1 0 .2.1.2.2.2s.2.1.2.3l-.8-.2c-.2 0-.5 0-.3-.4.1-.3-.2-.3-.4-.4-.3 0-.4-.2-.4-.5-.3-.1-.7.1-.7-.5-.1-.7.5-.6.9-.8l.6.1c.6.5 1.4.6 1.9 1.1z" class="st43"/><path fill="#4c4345" d="M15.1 89.8l3.4 1.2c0 .1.1.1 0 .2-.1.5-.3.8-.8.6h-.6l-3.6-1.4a.2.2 0 0 1-.2-.2c.5-.4 1.1-.5 1.8-.4z"/><path fill="#e8bb97" d="M13.3 90.2l.2.1c.1.4.2.8.1 1.3-.1.4.6.6 1.1.4.2-.1.4-.2.7 0-.5.5-1.2.2-1.8.3-.4.1-.9.3-1.3.1-.1 0-.4 0-.4.3s-.1.2-.2.1c-.4-.4-.4-.4-1-.3.1.4.6.2.8.6-.4.1-.7-.1-.9-.3-.3-.2-.5-.3-.9-.3 0-.4.2-.5.4-.4.5.1.9-.6 1.4-.1l.2-.1c.2-.9.6-.3.9-.1.2.2.5.1.6 0 .3-.2 0-.3-.1-.5-.4-.4 0-.8.1-1.1h.1z"/><path d="M25.5 95.1c.6 0 1 .6 1.6.4.4 0 .6.4.9.5-.3.3-.6.1-.9.1-.1 0-.3 0-.3.2s.2.3.4.2l.5-.1c.1 0 .4-.2.4.1 0 .2 0 .5-.3.4-.7-.2-1.5.2-2.1-.3-.2-.2-.6 0-1-.3.4-.4.9-.4 1.2-.9 0-.1-.6.1-.4-.3z" class="st43"/><path fill="#7f7f79" d="M13.3 90.2h-.2l-2.4-.9-.1-.1c.3-.3.6-.2 1-.2.3 0 .6-.1.8-.3l.6.3-.2.4.4-.3 1 .4.6.3-1.5.4z"/><path fill="#d1a387" d="M19.9 92.9l-.2.2c-.3-.1-.5-.2-.6.3 0 .4.1.5.5.6l.1.1c-.4.1-.8.7-1.1-.1H18c.2-.3.9.1.9-.6-.1-.9-.9-.1-1.3-.5.3-.1.7-.2.5-.6l.3-.1 1 .4c.2 0 .5-.1.5.3z"/><path fill="#c69179" d="M13.8 93.6c1.5.2 2.4-.3 2.3-1.1.4.4.3.9-.3 1.1-.7.3-.7.3-.9.7-.1-.3-.1-.4-.5-.4h-1c-.2 0-.3-.1-.4-.3 0-.2.2-.2.3-.3.3-.1.8-.2.7-.7.8.6 0 .7-.2 1z"/><path d="M22.2 96c-.5.4-.8.7-1.5.3-.5-.3-1-.7-1.7-.6.1-.3.3-.4.6-.3.6.2 1.3.1 1.7.7.1.3.4-.2.9-.1z" class="st43"/><path fill="#e4b592" d="M10.8 90.2c.4-.3.8-.1 1.3-.1-.2.2.1.5-.1.7l-1.3.8c-.2.1-.3 0-.4-.1-.1-.1-.2-.1-.1-.2l.3-.1c.4.1.6-.1.8-.4-.2-.2-.8 0-.5-.6z"/><path d="M22.8 97.7c.8-.7 2.1-.5 3 .5-.5 0-1 .2-1.4-.4-.2-.3-.6-.2-.9-.1h-.7zM29.1 96.1l.3.4.8.4c-.2.2-1.5.5-1.6.3-.2-.3.1-.5.1-.8-.2-.3.1-.2.4-.3z" class="st43"/><path fill="#6b6763" d="M18.4 92.2h-.3c-.3-.2-.8-.2-1-.5l.4-.3c.3-.1.8-.2.9-.4h.2l.4.4c.1.1.5.1.4.4-.1.3-.3.4-.6.3l-.4.1z"/><path fill="#c28f78" d="M8.5 87.2c0 .3-.3.3-.4.5.6-.1 1.3 0 1.9-.2-.6.6-1.4.4-2.1.4-.2 0-.4 0-.4-.3 0-.2.2-.2.3-.2.2 0 .4-.3.7-.2z"/><path d="M10.7 89.2v1c-.3-.2-.5-.4-.8.1-.4.5-.9.7-1.4 1.1.3-.8 1.1-1.1 1.7-1.6.2-.2.4-.3.4-.6h.1z" class="st235"/><path d="M24.6 96.8c.7.2 1.4.3 2.2.7-1.1.1-2-.3-2.2-.7zM24.6 96.7c-.5.3-.9.3-1.3-.1l-.5-.2c.7-.2 1.2.2 1.8.3z" class="st43"/><path fill="#ddab88" d="M17.2 95c.2-.2.5 0 .7-.2h.5v.3c0 .3-.3.1-.4.2-.4.1-.5-.3-.8-.3z"/><path fill="#e6bb9a" d="M23.7 94.4l.3.2c.2.2.1.5.1.7 0 .6-.4.7-.9.7-.1-.3.4-.3.3-.6v-.5l.2-.5z"/><path d="M24.2 95.3c-.6-.1 0-.5-.1-.7l.7.2c.1.2.3.2.4.3-.3.1-.8-.3-1 .2zM25.8 98.6c.1-.3.5-.2.6-.4.1-.2 0-.4.3-.3.1 0 .2 0 .1.2s0 .4-.3.5h-.7zM23.7 94.4c.2.2.1.4-.1.6-.3 0-.6.1-.9-.1.3-.3.8-.2 1-.5z" class="st43"/><path d="M8.5 91.4c.4.2.8-.2 1.3.1l-1.2.3c-.4 0-.3-.2-.1-.4z" class="st235"/><path d="M22.2 96.8c.1-.3.4-.3.6-.4 0 0 .1.2 0 .2-.1.3-.3.3-.6.2zM23.6 95.4c.2 0 .3 0 .1.2l-.4.4c-.2-.1-.4-.1-.1-.3l.4-.3zM31.1 97.5c-.3.2-.6.2-.9-.2.4 0 .7 0 .9.2zM19.7 96.2l-.3.1c-.1 0-.2-.1-.1-.2.1-.2.2-.2.3-.1l.1.2zM20.3 94.9c-.3.3-.6.2-1 .2.4-.2.7-.3 1-.2z" class="st43"/><path d="M53.6 80.8c.3.1.5.1.7.3-.5.1-.7.4-.6.9v1.1c0 .2 0 .4-.3.4s-.3-.2-.3-.4v-1.5c0-.3.7-.3.5-.8z" class="st215"/><path d="M44.8 77.1c-.2.3-.1.7-.1 1-.7.6-1.6.7-2.2.3l-.1-3.2v-4.3c0-.8.5-1.3.7-2 .2.8.1 1.6.2 2.3-.2-2.9-.2-5.9-.2-8.8 0-.3.2-.6-.4-.7-.5-.1-.4-.7-.1-1.2.8-.2 1.1-.1 1.1.7V74.1c0 .9 0 .9.9.8l.3.1.5.4c0 .1 0 .2-.2.3-.5.2-.5.4-.3.9.3.3 0 .4-.1.5z" class="st238"/><path fill="#fdf4ae" d="M46.6 71.8v.1l-.5.2c-.8 0-.8 0-.9.8l-.1.5-.2.2a.2.2 0 0 1-.2-.2l-.1-1.2v-5.3c0-.4 0-.7.2-1.1.5-.1.4.4.4.6 0 .6.3.9.9 1 .3 0 .6.1.6.5l-.1 3.9z"/><path fill="#9b7a43" d="M40.2 78.5l.2-.8v-6.2c-.3-1.4-.2-2.8-.2-4.3 0-2.1-.1-4.3.1-6.4l.1-.3c.1-.1.3-.1.4.1.2.4.2.8.2 1.1v14.5c0 .3-.2.8.4.9.2.1.1.4.2.6l-.1-2.6c0-.3 0-.8.5-.6.3.8.1 1.6.2 2.4v.4l-.1 1.1-.1.2h-.7c-.2 0-.3-.6-.6-.1h-.5z"/><path d="M46.6 71.8v-3.6c0-.3-.1-.5-.5-.6-1.1 0-1.1 0-1.1-1.1l-.1-.6c-.2-.2-.2-.5-.2-.7v-7.7l.1-.5c.1-.1.1-.3.3-.2.2.2.2.5.2.8V64.5c0 .4.2.6.6.6.9.1.9.1.9 1V71.9l-.2-.1zM45 73.6v-.1c.6-.4 1.1-.1 1.6.3v2c0 .2.1.5-.3.5-.3 0-.4-.1-.4-.4 0-.3-.3-.3-.5-.3s-.4.1-.6-.2c.2-.4-.1-.7-.1-1 .1-.3.1-.6.3-.8z" class="st241"/><path d="M46.6 73.7c-.5-.1-1-.4-1.6-.3.1-.5-.2-1.1.2-1.5.4-.4 1 .2 1.5 0l-.1 1.8z" class="st242"/><path d="M41.9 77.4v-.3c.3-.8.1-1.7.1-2.5v-6.1l.1-.4.2-.2.2.2.1.7-.1 3.2v6.5c0 .2-.1.3-.3.3h-.3v-.2c.1-.4.2-.8 0-1.2z" class="st238"/><path fill="#bf9a6a" d="M42.2 78.7l.3-.2c0-.1.1-.1.1 0 .7 0 1.4-.3 2.1-.4l.1.5c0 .4 0 .7-.6.6-.7-.1-1.4-.2-2-.5z"/><path d="M46.6 77.4c-.5.1-.7-.2-.8-.7.7-.2.9.1.8.7z" class="st241"/><path d="M40.6 78.6c0-.2-.1-.6.3-.6.5 0 0 .5.3.7-.3.3-.5.1-.6-.1z" class="st238"/><path d="M44.8 77.1l.1-.4.6.3c-.2.2-.5.1-.7.1z" class="st112"/><path fill="#e9ab38" d="M47 53.7v-2.9c.1-.2.1-.5.4-.7.4-.2.8-.5 1.2-.3.4.2.3.6.3 1 .1.8-.1 1.7.1 2.5.5.1.7.5.4 1v.6c-.2.6.1 1.3-.1 1.9l-.3.1-.1.1-.1 5.6c0 .4.1.8-.1 1.1-.7.2-1.3.2-1.8-.4v-6.6c.1-.2.4-.1.6-.3-.1-.3-.5-.1-.6-.4v-.6c.3-.3.8-.1 1-.6-.3 0-.7.1-1-.1v-.5c.2-.4.7-.2.9-.6-.2.2-.5.3-.8.1z"/><path fill="#ebaf37" d="M45 63.2v-6.5c.1-.2.3-.2.5-.2.4.1.9-.1 1.2.2v7.7c-.3-.7-.9-.9-1.6-1l-.1-.2z"/><path fill="#e9ae3f" d="M46.7 48.9v5.5c-.5.4-1.2.2-1.8.3l-.3-.2c-.2-.3.4-.5.1-.7v-.2c.1-1.4-.1-2.7.1-4.1.1-.4 0-.8.5-.9.6-.2 1.1-.2 1.4.3z"/><path fill="#fdf3ad" d="M46.9 72.7v-5c.2-.1.4 0 .6.1.5.1.9 0 .9-.6 0-.2.1-.6.4-.2.2 2 .1 4 0 6-.1.1-.2.4-.3.2-.3-.9-.9-.8-1.6-.5z"/><path fill="#f8d87a" d="M46.7 48.9c-1.5-.5-1.7-.4-1.7 1.2v3c0 .2.1.5-.1.7-.2-.2-.2-.5-.2-.8V39.7c0-.6-.1-1.2.2-1.7.4 0 .3.3.4.5v7.3c-.3.5-.3 1-.3 1.4v-.1c0-.4-.2-.8.3-1 .5-.2.9-.2 1.4.2v2.6z"/><path fill="#f9d77d" d="M48.8 66.8l-.1.1c-.1.3.2.8-.2 1-.5.2-1.1.1-1.5-.2v-2.1c.2-.2.4-.1.5-.1 1 .1 1 .1 1-.9 0-.3 0-.5.2-.8v-1.2l.2.1c.2 1.2.1 2.5.1 3.8l-.2.3z"/><path fill="#fde689" d="M46.9 72.7c.7-.8 1.5-.6 1.9.4.2.1.2.3.2.4l-.1 2.3-.2.1v-.8c0-1 0-.9-.9-1-.6 0-.7.2-.7.7 0 .4.2.9-.1 1.4l-.1-3.5z"/><path d="M48.7 63.8v1.5c0 .4 0 .6-.5.5l-1.2-.2v-2.2c.5.4 1.1.2 1.7.4z" class="st251"/><path fill="#f1c359" d="M45 63.2l.5.1c.8-.1 1.2.3 1.2 1.1v2.5l-.1-.3c0-.4.1-.8-.1-1.1-.3-.3-.7-.1-1.1-.1-.3 0-.4-.2-.4-.5v-1.7z"/><path d="M46.7 46.3h-.1c-1.2-.3-1.4-.2-1.6 1V46l.1-.3c.1-.3-.2-.9.2-1 .5-.2 1.1-.2 1.5.3l.1.2-.2 1.1z" class="st253"/><path d="M44.9 54.6c.6-.2 1.3-.1 1.9-.1v.6c-.1.2-.3.2-.4.2-.5-.1-.8.2-1.1.5l-.4.1c-.9-.4-.9-.5 0-1.3z" class="st254"/><path fill="#e5a43b" d="M44.9 55.7c.1 0 .2 0 .3-.2.5-.2 1.1-.4 1.6 0v.6c-.4.4-1 .1-1.5.3l-.5-.1c-.1-.2-.2-.4.1-.6z"/><path d="M46.9 54.8h1.4c-.3.6-.7.9-1.4.7v-.7z" class="st256"/><path fill="#efc174" d="M46.7 55.6h-1.6c.3-.8 1-.6 1.6-.6v.6z"/><path d="M45.3 56.3c.5-.3 1-.1 1.5-.1v.6c-.4-.1-.9.1-1.3-.1l-.2-.4z" class="st241"/><path d="M47 53.7l1-.1c0 .9-.7.6-1.1.8v-.7h.1z" class="st256"/><path fill="#ecc275" d="M46.9 56.2h.4c.4-.1.5.2.5.4 0 .3-.3.1-.5.2h-.4v-.6z"/><path fill="#f2c664" d="M33.9 35.8l-.1.4c-.3-.2-.6.1-.8 0l.6.3c.4 0 .5.2.4.5-.1.7-.7-.1-.9.4.2.3.7.2.9.5-.2 1.5-.3 1.5-1.8 1.1l-2.1-.4c-1.2-.2-1.2-.2-1.3-1.5l-.1-.2c.3-.3.7.2 1-.2-.4-.3-1.3-.3-1-1.1.4.1.9.5 1.1-.2 0-.1.3-.1.4 0 1 .3 2.1.4 3.1.6l.6-.2z"/><path d="M34.2 34.4v-2.7c.4 0 .7.1 1-.2l.3-.1c.9.2 1.6-.3 2.4-.7.3-.2.6-.1.8.1.3.2 0 .4 0 .5 0 .4.2.9-.1 1.3-.3.5-.8.4-1.3.6l-.7.2c-.7.1-1 .4-.9 1.1l-.1.3-1 .1c-.5.2-.2-.4-.4-.5z" class="st260"/><path d="M46.7 32.3v4.9l-.3.4c-.4.3-.7.7-1.2.4-.4-.2-.3-.7-.3-1v-1.5c0-.2 0-.3-.2-.5-.3-.2-.2-.5-.1-.7.1-.2.2-.4.1-.8-.2-.7-.3-1.4.2-2.1h.2v.7c.1.4-.3 1 .3 1.2.5.2 1.1-.3 1.3-1z" class="st261"/><path fill="#edbe6b" d="M45.1 31.4h-.2c-1.1.6-2.4.7-3.6 1.1l-.7.2-.1.1c-.3.6-.7.4-1 .1l-.4-.1a.2.2 0 0 1-.2-.2c0-.2 0-.4.2-.6.1 0 .3-.1.4 0 .3.1.3-.2.3-.3v-1.2c0-.3 0-.5.4-.5s.2.3.2.5c.1.5-.1 1.1.1 1.8.3-.5.1-1 .2-1.5.1-.4-.3-1 .6-1.1v1.6c0 .4 0 .7.6.5l2.7-.7c.2 0 .5-.1.5.3z"/><path fill="#f5d182" d="M38.9 32.7l.2.2-.1.1c-.6.4-1.4.5-2.1.7-.3.1-.7.1-.9.4-.3.5 0 1.2-.3 1.7-.4-.1-.5-.2-.2-.8v-.6c-.1-.6.2-.8.7-.9l2.4-.7.3-.1z"/><path fill="#f5cd84" d="M39.5 32.1c-.1 0-.3.2-.4 0v-1.2c-.1-.4.2-.5.5-.5l-.1 1.7z"/><path d="M53.2 28.9l-3.8 1c-.4.1-.7.3-.6.7-.3-.2-.5 0-.7.2-.2.1-.4.3-.7.2-.3-.1-.2-.4-.2-.6v-1.1c.2-.6.7-.9 1.1-1.3.3-.4.7-.5 1.1 0 .1.2.3.3.5.3.3-.1.1-.3 0-.4 0-.2.1-.4.3-.5.2-.1.3.1.4.2.5.3 1.1.2 1.6.2s.8 0 1.1.4l-.1.7zM52.1 27.1c-.2-.1-.6.2-.6-.2 0-.3.3-.4.6-.3h.1c.2 0 .6-.3.6.1s-.4.3-.6.3c.1.1 0 .1-.1.1z" class="st265"/><path fill="#fdf09b" d="M47.1 36.7c.3.4.1.9.1 1.3 0 .5.2.7.6.6.4-.1.8-.1 1.1-.4.5.7.2 1.6.2 2.3v2.6c-.2.6-.1 1.2-.1 1.8 0 .3 0 .7-.5.7-.7 0-1.1.2-1.3.9l-.2.1.1-9.9z"/><path d="M46.7 45l-.4-.1c-.4 0-.8-.2-1.1-.1-.4.1-.1.6-.2.9l-.1.3v-6.5c.5 0 .2.5.4.7.5.1.9-.4 1.4-.2v5z" class="st23"/><path fill="#f6d275" d="M47 46.6l.1-.2c-.1-1 .6-1 1.2-1 .4 0 .4-.1.5-.4 0-.6-.1-1.2.1-1.8.2.2.3.4.3.7v5.5l-.1.4c-.2.3-.4.1-.4-.1l-.2-1.1c-.1-.3-.2-.5-.6-.5-.3 0-.5.2-.5.5 0 .2.1.6-.3.6l-.1-2.6z"/><path d="M46.7 40h-.1c-.3.3-.7.4-1.1.4-.7.1-.1-.7-.5-.9-.1-.5.1-1-.1-1.5l-.1-.1v-.1c.1-.8-.1-1.7.1-2.5l.2-.1v2.1c0 .6.3.6.7.4.3-.2.5-.5.9-.6V40z" class="st253"/><path fill="#eebf5a" d="M47 49.1c.2-.1.1-.3.1-.5 0-.8.4-1.1 1.2-.9.3.1.3.2.3.4l.3 1.6.1.2c.2 1.2.3 2.5-.1 3.7-.4-.1-.3-.4-.3-.6v-2.6c0-.5-.1-.7-.6-.4-.4.2-.8.3-1 .7v-1.6z"/><path fill="#fdf39e" d="M28.6 41.3v-.6l.2.1c0 .9.8 1 1.4 1.1 1.2.1 2.3.5 3.5.4l.3.2c.1 1.4.2 2.7 0 4.1-.1.1-.2.2-.3.1l-5.1-.6c-.1-.5 0-1.1 0-1.6 0-1.1-.1-2.2 0-3.2z"/><path fill="#fceea0" d="M26.7 38.2v1.5c0 .4.1.7.4 1.2.4.6.8.3 1.2.4v4.4c-.5.1-.9.5-1.5.6-.2 0 0 .1 0 .1v.9l-.1.3h-.3l-.1-.2v-.3c.1-.6-.1-1-.7-1.1-.2-.4-.1-.8-.1-1.2v-4.4-.7c.1-.4.5-.2.7-.5 0 0 .1.1.1 0-.3-1.4.1-2.7.1-4 0-.9-.1-1-1-1.2l-1.6-.3-2.3-.5c-.3-.1-.5-.1-.7-.4.1-.2.3-.1.5-.2.4-.2.7-.1 1.1 0l3.7.8c.6.1.8.4.8 1l-.2 3.8z"/><path fill="#f3cb6a" d="M28.6 44.5v1.6l.2.3c.1.3-.1.8.2 1 .3.2.7 0 1 .1 1 .2 2.1 0 3.1.2.3.1.6.1.8.3l.2.2c.1.6.2 1.2 0 1.8-.5.4-1.1.1-1.6 0l-3.2-.1c-.6-.1-.8-.2-.9-.7 0-.4-.1-.9.2-1.3v-3.4c-.1 0 0 0 0 0z"/><path fill="#fde587" d="M33.9 42.3c-.4.3-.8.3-1.2.2-1-.3-2.1-.3-3.1-.5-.6-.2-.9-.3-.8-.9l-.1-.3v-1.6l.3.2c.2.5.6.7 1.1.7 1.3.1 2.5.5 3.7.5.1 0 .2 0 .3.2 0 .4.2 1-.2 1.5z"/><path fill="#f9d374" d="M33.9 40.6a1 1 0 0 1-.9.1l-3.3-.5c-.6-.1-1-.5-1.1-1.1v-2.2l.1.1c-.1 1.2.7 1.4 1.6 1.5.8.1 1.7.2 2.5.6.6.3.9 0 1-.7l.1-.4v1.9c.2.2.2.4 0 .7z"/><path d="M26.7 47.3V46c.2-.1.3.4.4.1.1-1 .7-.4 1.1-.5h.1v2.2c-.2.2-.4.7-.6.7-.7-.1-.3.5-.4.7v9.1c0 .3.1.7-.1 1l-.4.1c-.2-.2-.2-.4-.2-.6v-3.5l.1-1.2c0-1.7.1-3.4-.1-5-.1-.6.1-1.2.1-1.8z" class="st274"/><path fill="#eebd5e" d="M27.1 50.9v-3c.5.1.1.6.5.7.1-.3.1-.8.7-.7v.2c0 .9.3 1.8 0 2.8-.4.2-.4.7-.4 1.1v6.4c0 .4 0 .7-.2 1.1h-.5v-7.8c.1-.4.1-.6-.1-.8z"/><path fill="#f5cd6f" d="M28.3 39.7c-.4-.1-.5-.7-1-.4-.1.1-.1-.3-.1-.4v-4.2c.4.1.2.5.3.6.1-.8-.3-1.6.2-2.4h.1c.4.6.1 1.4.2 2.1 0 .5 0 1 .4 1.4l-.1 3.3z"/><path fill="#a17d42" d="M28.3 50.9v-2.8h.1v1.3c.3 1 .2 2 .2 3v5.7c0 1 0 1 1 1h1.3c.3 0 .6 0 .7.3l-.1.2c-.3.2-.7.1-1.1.1h-2.8c-.3 0-.6 0-.8-.2l-.2-.3h.3c0-.1.1-.1.1 0h.5c.4-.3.3-.8.3-1.2v-6.3c.3-.1.2-.5.5-.8z"/><path d="M28.3 36.3c-.7.2-.5-.4-.5-.6v-2-.8-.1h.6l-.1 3.5z" class="st278"/><path d="M28.6 44.5c-.1 0-.1 0 0 0-.1-1.1-.2-2.2 0-3.3v3.3z" class="st279"/><path fill="#f6d071" d="M34.2 38.5v-.7c.1-.1.2-.1.2-.3 0-.3.1-.6.5-.6.4-.1.6.2.7.5l.2.3v2.4l-.1.5c0 .4-.2.8-.7.8-.4.1-.8-.1-1-.5l.2-2.4z"/><path fill="#eebc56" d="M35.7 37.6l-.3-.3c-.3-.4-.6-.5-.8.1-.1.2-.2.4-.4.4v-3.4c.2.2.2.8.7.3.2-.2.4.1.6.2.1.2-.2.6.2.7h.1l.1.1v1.2c-.2.2.4.6-.2.7z"/><path fill="#c6b67a" d="M34.2 38.5V41c.2.3.2.5.2.8v7.5c0 .2 0 .5-.3.5-.2-.5 0-1.1-.2-1.6-.3-.5-.3-1.1 0-1.6v-4.3-1.8-.8c.4-.3 0-.8.3-1.2z"/><path d="M33.5 36.6c-.3 0-.5-.2-.8-.4.4 0 .8-.1 1.1.1-.2 0-.5-.1-.3.3z" class="st123"/><path d="M54 26.8c0 .1 0 .4.3.3.2.5-.1 1 0 1.5-.5-.3-.6-.9-.3-1.8z" class="st265"/><path fill="#d39436" d="M53.7 29.5c-.4.3-.3-.2-.3-.3v-.3c.6-.1.1.4.3.6z"/><path fill="#fdf2a4" d="M11.8 50.9v7.9c0 .3.1.5-.1.8V45.2v-.4c0-.2 0-.4-.2-.4s-.2.2-.2.3v1.8c0 .2.1.5-.3.8v-2.5c0-.2.2-.6-.2-.6-.3 0-.2.3-.3.5-.3.7.1 1.5-.3 2.1v-.1-1.9c-.1-.4-.5-.5-.9-.6v-5.9c.2.6.3 1 .9.6 0 0 .2-.1.2 0 .8.8.5-.2.5-.4v-2.4s-.1-.1 0-.1c.2-.2.1-.5.1-.8V31c0-.3-.1-.5.1-.8.3.2.2.6.2.9V31.3c0-.7.2-.9.9-.7l5 1c.2 0 .4.1.5.3.1.2.5.1.6.3-.3.4-.7.2-1 .1l-5.2-1.1c-.3.1-.2.4-.2.6v4.7c0 .3 0 .6.4.6.2 0 .3.2.3.3 0 .7.4 1.3.4 2.1v5c0 .5.1.9-.1 1.4-.4-.1-.4-.1-.4-.4l.1-1-.1.1v.1c0 .4.2.8-.5.9-.2 0-.1.3-.1.5-.1.6.2 1.3-.2 1.9l.1 2.9z"/><path fill="#eebe57" d="M12.2 31.1l5.9 1.2h.3c.7.4 1.6.2 2.4.6l2.9.6c-.1.4-.4.3-.7.3l-1.6-.3 3.7.8c.8.2 1 .3 1 1.2 0 .7.2 1.4-.2 2-.4-.3-.4-.7-.3-1.1 0-.5-.1-.7-.6-.7l-11-2.2c-1-.2-1-.2-1 .8 0 .4.2 1-.4 1-.4 0-.3-.6-.3-1v-1.7c0-.9.1-1 1-.8l4.5.9-5-1.1c-.4-.1-.6 0-.6.4 0 .2-.1.4-.3.4a2 2 0 0 1 0-1.1c0-.2.1-.3.3-.2z"/><path d="M10.5 31.2v-1.8c0-.3 0-.5.4-.4l7.1 1.6c.3.1.5.2.4.5-.1.5-.4.1-.6.1l-6.1-1.3c-.6-.1-.9 0-.8.7v.8c-.2.1-.2-.4-.4-.2z" class="st207"/><path d="M27.6 32.9v3.2c-.5-.4-.1-1-.4-1.4 0-1.3 0-1.3-1.3-1.6l-4.5-1c-.3-.1-.6-.1-.5-.5.1-.4.4-.1.6-.1 2 .4 4.1.8 6.1 1.4z" class="st278"/><path fill="#e9b44c" d="M17.8 32l-5.6-1.2c-.5-.1-.6.1-.6.5v2.3l-.1 1.1c0 .2-.1.4-.4.2v-4.7c.8-.2 1.6.2 2.3.4l4.4.9c.2 0 .5 0 .5.3s-.3.1-.5.2z"/><path fill="#e8b34e" d="M26.7 38.2v-3.8c0-.4-.1-.6-.5-.7l-5-1-.5-.3c.6-.3 1.1 0 1.5.1l3.9.8c.5.1.8.3.7.9.1 1.4.2 2.7-.1 4z"/><path fill="#efc55c" d="M10.5 31.2c.2-.2.3.1.4.1V36c-.4-.1-.4-.4-.4-.7v-4.1z"/><path fill="#e7b24e" d="M19.4 31.3c0 .2-.1.3-.3.3-.3 0-.3-.2-.3-.4 0-.1 0-.3.2-.3.3 0 .5.1.4.4z"/><path d="M9.3 44.2c.9-.2.9-.2.9.6-.3 0-.6 0-.8.2-.2-.3-.1-.5-.1-.8z" class="st130"/><path fill="#8a5d38" d="M22.4 61.1c1-.1 2.1.1 3.1-.1.3.6.1 1.2.2 1.8V66.5c0 .3 0 .6-.2.8v5l-.1 2.8c0 .3.1.5-.1.8h-.2c-.9.1-1.7-.2-2.5-.4-.6-.2-.5-.7-.5-1.1v-6.2-.4-3c.1-1.1-.1-2.3.1-3.4l.2-.3z"/><path d="M28.2 67.4c-.7.2-1.2.1-1.1-.9-.4.2-.1.6-.6.9V61h.1c.2 1.3 0 2.6.1 3.9 0 .1.1 0 .1 0-.2-1.3 0-2.6-.1-3.9.5-.3.5.2.5.5v3.7c.1-.3.4-.4.6 0 .6.7.5 1.4.4 2.2z" class="st130"/><path fill="#f0c463" d="M28.2 67.4c.1-.8.1-1.6-.6-2.3-.2.3 0 .7-.2 1-.3-.1-.2-.4-.2-.6v-3.8c0-.2.2-.6-.2-.7l-.1-.1v-.1h.6c.3-.2.4.1.5.3.1.5 0 1.1 0 1.6 0 .3 0 .6.3.8l.1 1.3v2.9h-.1l-.1-.3z"/><path d="M25.5 67.4v-3.7l.2.1V64.6l.1-.2c.1-.9-.3-1.8.2-2.7.3.2.3.5.3.7v2.2c0 .3-.1.5.1.8v1.1c.1.6-.2.9-.9.9z" class="st130"/><path d="M26.4 65.3c-.4-.1-.3-.4-.3-.6l-.1-2.9c-.2.9.1 1.8-.3 2.6-.2-1-.1-1.9-.1-2.9 0-.6.3-.7.7-.5l.1 4.3z" class="st292"/><path fill="#f3c961" d="M26.8 77.4c-.3.4-.1.9-.1 1.4 0 .3.1.6-.1.8v-6.4h.3l-.1 4.2z"/><path d="M26.4 61.1c-.4-.1-.6.1-.6.5v2.8c0 .1-.1.1-.1 0V61h.9v.2l-.2-.1z" class="st294"/><path d="M28.2 67.8h.1c0 1.2.2 2.5-.1 3.7v-3.7z" class="st130"/><path d="M25.4 75.9c.1-1.2-.1-2.4.1-3.5v2.5c-.1.3.2.7-.1 1z" class="st137"/><path fill="#8b5d37" d="M12.9 73.4v-.1V61.9l.2-.4c.8-.3 1.6-.2 2.4-.2h3.8c.2.2.2.5.2.8v9.1c-.2.7-.2 1.4-.1 2.2.1.3 0 .5 0 .8 0 .5-.3.8-.7.7-.8-.2-1.6-.2-2.4-.5-.5-.2-1.1-.3-1.6-.3s-.9 0-1.3-.4l-.5-.3z"/><path fill="#c6953b" d="M13.3 73.6c.4.1.9.3 1.2.2.5-.2.9.1 1.3.2.9.2 1.8.5 2.8.6.4.1.7 0 .6-.5a6 6 0 0 1-.2-1.2c.1-.5-.3-1.1.2-1.5.5 0 1.2.6 1.2 1.1-.1.7.5 1.3.2 1.8 0 .2.1.1.1.1h-.1a147 147 0 0 1-.1-11.5v-.6c0-.6-.1-.9-.8-.9a.8.8 0 0 1-.4-.2c1-.2 2.1-.1 3.1-.1v.1l-.2.1c-1 .3-1 .3-1.1 1.5V77c0 .3 0 .6-.2.9l-1.4-.2c-2.1-.3-4.1-1.1-6.2-1.4-.1 0-.3 0-.4-.2-.1-.4.1-2.2.4-2.5z"/><path fill="#c6953d" d="M20.9 77.9v-3.4c.1-.6.3-1.2 1-1.4l.1-.2.1-4.5c0-.2 0-.4.3-.5v4.8c0 .2-.1.3.1.5.3.2.3.2 0 .5-.5.5-.1 1.7.6 1.8.7.2 1.4.1 2 .5l.1.1v3l-2-.4c-.6-.3-1.5-.4-2.3-.8z"/><path d="M25.4 79v-3c.2 1.1.2 2.1 0 3z" class="st137"/><path d="M37.6 91.1l.7.4c-.2-.1-.7.2-.7-.4z" class="st148"/><path fill="#dcd5d3" d="M28.5 94.7c-.1-.2-1.1-.2 0-.8-.9.1-1.5.6-2.1.1 1.3-.3 2.5-.8 3.9-.7.1.2.5.2.6.4v.2c-.4.1-.9.3-1.2-.2-.1-.1-.5 0-1 .1.5.3.9.4 1.2.7-.5.2-1 .1-1.4.2z"/><path d="M30.8 93.6c-.2-.2-.7.2-.6-.4h.7c.1.3.5.1.6.3-.1.2-.4.2-.7.1z" class="st151"/><path fill="#cb9d48" d="M40.4 60.8v10.7l-.1-.1c-.4-1.4-.4-1.3-1.8-1.2-.8 0-1.6.1-2.3.6-.3.2-.4-.2-.4-.4v-2.5c0-.2.1-.5-.1-.7V62c.1-.2.2-.4.1-.6-.2-.6.2-.7.6-.7.4 0 .8 0 1.2.2.8.4 1.5.3 2.2-.1.2-.1.4-.2.6 0z"/><path fill="#bca7a1" d="M28.8 91.6l-3.9.3-1.9-.1c.3-.3.7-.3 1.1-.3.3 0 .7 0 1-.3.2-.2.5-.3.4.2 0 .4.2.2.4.2 1.3-.3 2.8 0 4.1-.4 1.9-.5 3.8-.4 5.7-.6l.1-.1c.4.2.2.2 0 .3l-1.9.2c-1.8.1-3.5.5-5.1.6z"/><path fill="#bca69e" d="M40.3 88.3c-1.8.3-3.5.2-5.3 0 .7-.1 1.3-.5 1.9-.4 1.6.2 3.7.1 5.3-.3 1.1-.3 2.3-.1 3.4-.2.2 0 .5.1.7-.1l.3.1c0 .2-.2.2-.3.2-1.9.1-3.7.6-5.5.6l-.5.1z"/><path fill="#6e6966" d="M22.4 93.8c-.7-.1-1.3-.4-1.9-.7-.3-.4-.2-.6.3-.5.4.1.8-.1 1.2-.2l.4.1c.1.1.5-.1.5.3 0 .3-.3.2-.5.3.2.1.4 0 .6-.1.6-.3 1 .2 1.5.4-.5 0-.9.2-1.4.3-.2 0-.5-.3-.7.1z"/><path fill="#d9cac1" d="M35.5 90.2c0-.1.1-.3-.2-.3-.7-.1-1.3.1-1.9.3l-1.2.1c.4-.6 1.1-.5 1.6-.5l3-.3c.3 0 .5-.1.8.1l-1.5.3v.1h1.5c-.6.4-1.4.2-2.1.2z"/><path fill="#dacdc7" d="M27.1 92.5c.2-.4.5-.4.9-.4.3 0 .6.1.8-.1h2.8v.1l-4.5.4z"/><path fill="#c5b5b1" d="M23 92.9c-.3.3-.6.5-.9.1.2-.3.5-.2.8-.2-.1-.3-.4-.2-.5-.3 1-.3 1.9-.5 2.9-.2-.6.3-1.2.1-1.8.2-.2.1-.5.1-.5.4z"/><path d="M25.5 89.9h-.9c-.2 0-.4.2-.4-.2.8-.3 1.5-.6 2.4-.6.9-.1 1.7-.7 2.6-.8.5-.1 1.1 0 1.6-.2.4-.1.8.1 1.2.2-.4.3-.8.2-1.2.3-.1 0-.3-.1-.3.1l.3.2c-.2.3-.5.5-.9.4-1.4 0-2.8.5-4.3.5l-.1.1z" class="st306"/><path fill="#4e4648" d="M18.4 92.2c.3-.3.8.2.9-.3l-.8-.6.1-.1.1-.1 2.5.9c0 .4-.4.4-.6.4l-1.3.1c-.3-.1-.7 0-.9-.3z"/><path fill="#9a9692" d="M19.3 92.6c.3-.3.7-.2 1.1-.2.2 0 .6-.1.8-.3l.7.3c-.3.5-.7.5-1.1.4-.5-.2-.4.1-.4.4-.2.1-.4 0-.6-.1 0-.4-.4-.2-.5-.5z"/><path fill="#bdaba5" d="M25.7 90.3h.6l3.6-.2v.2c-1.3.1-2.6.4-4 .3-.3-.1-.3-.2-.2-.3z"/><path fill="#bfaba3" d="M37 87.4c1.4-.4 2.7-.1 3.9-.5-.1.4-2.3.7-3.9.5z"/><path d="M18.7 91.1l-.1.1-.1-.1V91c.8-.4 1.7-.5 2.6-.6.2 0 .3.1 0 .2l-2.4.5z" class="st311"/><path d="M31.3 87.9h-.8v-.2l2.5-.6c-.1.5-.6.4-.9.5l-.8.3z" class="st312"/><path d="M21.5 90.3c.6.5 1.3 0 1.9.1v.2c-.6.2-1.2.1-1.8.1l-.1-.4z" class="st311"/><path d="M33.9 87.3h1.6c0 .3-.3.3-.5.3h-1.7c.2-.3.5-.1.6-.3z" class="st312"/><path d="M30.8 88.9h.9v.2c-.3.1-.6.3-.9-.2z" class="st306"/><path fill="#b9a69f" d="M27.3 87.9l.3.1c.1.2-.1.2-.3.2-.8 0-1.5.2-2.3.3-2.3.3-4.6.6-6.8.7-.8.1-1.5-.2-2.3-.1h-.2c-.2-.1 0-.1.1-.1.6-.3 1.4 0 2-.4.6.8 1.3.2 2 .1l2.2-.1 3.7-.5c.4-.1 1 .1 1.6-.2z"/><path fill="#bcaaa4" d="M38.2 85.2c-.6.6-1.5.3-2.2.4l-2.5.4c-1.6 0-3.2.4-4.8.3h-1.6c.2-.4.6-.3.8-.3 1-.2 1.9 0 2.9-.1a52 52 0 0 0 3.9-.5l3.5-.2z"/><path fill="#d5c8be" d="M27.3 87.1c.7.1 1.3-.3 2.1-.1-.2.3-.6.2-.9.3.3.2.6 0 1 .3-1 .2-1.8.1-2.7 0-.8-.2-1.5.4-2.4.2.9-.7 2-.3 2.9-.7z"/><path fill="#cabab3" d="M33.1 84.8c-1.2.4-2.4.6-3.7.4 1.2-.3 2.5-.1 3.7-.4z"/><path fill="#bfafa8" d="M22.1 87.6c-1.4.2-2.7.6-4.3.3l4.3-.3z"/><path fill="#d7c6c1" d="M33.5 86.3h.2c.2.1 0 .1-.1.1l-2.7.3c.4-.6 1-.3 1.5-.4h1.1z"/><path fill="#c5b2af" d="M29.2 86.7c-.8.1-1.5.2-2.3.1.7-.4 1.5-.3 2.3-.1z"/><path fill="#494847" d="M13.4 89.1v.1c-.2.1-.2.6-.5.5-.2 0-.4-.2-.1-.4l.4-.3.2.1z"/><path fill="#decec9" d="M19.5 89.4c1-.1 2-.4 3.1 0l-3 .4-.1-.4z"/><path d="M24.2 89.8c.1.2.3.1.4.2-.4.2-.8.3-1.2.2.2-.3.5-.4.8-.4zM35.7 86.7l-.2.3c-.2.2-.4.2-.7.1.3-.3.6-.3.9-.4z" class="st161"/><path fill="#b98a3e" d="M40.4 60.8c-.5 0-.6.6-1.1.6-.6 0-1.2.2-1.8-.2a1 1 0 0 0-.9-.2c-.4 0-1-.1-.6.7.2.3-.2.4-.4.5v-5c.3-.2 0-.4-.1-.5-.3-.5-.2-1.1 0-1.6.4-.3-.1-.5-.1-.8l-.1-6.8c0-1-.1-1.9.1-2.9.2-.5.1-1 .1-1.5 0-.3-.1-.6.3-.9.3.2.3.5.3.8.1 1 .1 1 1.1 1h1.4c.5 0 .9.2 1.4.4.2-.8 0-1.6.1-2.4 0-.2-.1-.7.4-.6.2.3.1.7.1 1-.1 5.4-.2 10.8-.1 16.2 0 .9-.1 1-1.1 1.1h-2.1c-.3 0-.5.2-.4.5 0 .3.3.3.5.3h2.1c.3 0 .6-.1.8.2l.1.1z"/><path fill="#ebae39" d="M34.4 57.1c.4.3 1-.2 1.1.4v1.2l-.1 4.7c0 .4-.1.5-.5.4-.2-.1-.5 0-.8 0-.3-.2-.2-.5-.2-.8v-5c0-.3 0-.6.2-.8.1-.2.2-.2.3-.1z"/><path fill="#fdf1a9" d="M34.1 71.6v-5c.5-.1.9.4 1.4-.1v5.9c-.3-.3.1-.8-.4-1-.4-.1-.7.1-1 .2z"/><path fill="#e6aa3b" d="M34.4 57.1h-.2c-.4-.3-.3-.7-.3-1.1v-4l.1-.9.2-.1c.3.3.7.5 1.1.5.2 0 .4.2.4.4.1.9-.1 1.7.1 2.6.2 0 .5 0 .4.3 0 .3-.3.2-.4.1-.1.5-.2.8-.8.9.5.1.8.4.8.9.2-.1.4-.1.4.2 0 .3-.1.4-.4.3l-.4-.3c-.4-.5-.9-.3-1 .2z"/><path fill="#ad8947" d="M34.1 51v5.3l.1.7c-.2.1-.1.4-.1.5V64.9h-.2c-.4-.6-.2-1.2-.2-1.8V51.8c0-.6-.2-1.2.2-1.8v-1.9c.3.5.1 1.1.1 1.6.4.5.3.9.1 1.3z"/><path d="M30.8 74.8c-.3.1-.5-.2-.5-.3.1-.4.4-.4.7-.3.3 0 .8-.2.8.2 0 .7-.7.2-1 .4z" class="st173"/><path fill="#fbe08d" d="M28.5 67.7v-1.3l4.8-.5c.9-.1.4.6.6.9 0 1.7.1 3.5-.1 5.2l-4.4.4c-.7 0-.9.3-.8 1l-.1.3v-1.9a1 1 0 0 1 1.1-.6c1.1 0 2.2-.3 3.4-.3.4 0 .6-.2.6-.6v-2.1c0-.4-.1-.5-.5-.4-1.1.2-2.3.1-3.4.4-.4-.2-.9-.2-1.2-.5z"/><path fill="#efc253" d="M33.9 63.2v2.1c-.5-.8-1.2-.6-1.9-.6l-2.4.3c-.6.1-1-.1-1.1-.7v-1.6c.9.3 1.9 0 2.8-.2h1.8c.4 0 .8.2.8.7z"/><path fill="#f6d072" d="M28.5 64.3c.6 1 1.5.4 2.2.3l2.7-.2c.6 0 .1.6.4.8v1.5c0-.9-.6-.8-1.2-.7l-3.4.4-.8-.1.1-2z"/><path d="M33.9 63.2c-.2-.5-.6-.6-1.1-.6-1-.1-2 .1-3 .3-.6.1-1 0-1.4-.3v-1.8c.6-.2 1.3-.1 2-.1 1.1 0 1.1 0 1.3-1.1 0-.4-.3-.3-.6-.3H29c-.4 0-.6-.1-.6-.5v-6.4c.1-.8.2-.9 1-.9l3.1-.1c.5-.1 1 .1 1.4.4v11.4z" class="st294"/><path d="M28.5 67.7c1.6 0 3.2-.3 4.8-.4.4 0 .5 0 .5.4v2.7c0 .4-.1.6-.5.6-1.3-.1-2.5.4-3.9.3-.4 0-.6.2-.9.4v-4z" class="st6"/><path d="M28.3 64.9c-.2-.4-.1-.9-.1-1.3-.3-.4-.1-.9-.2-1.4 0-.3.1-.7-.2-.9 0-.2-.1-.3-.3-.3.3-.2.6-.1.9 0l-.1 3.9z" class="st294"/><path fill="#8d6138" d="M22.4 59.4c-.8.3-1.6.1-2.5.1h-7c-.2-.3-.2-.6-.2-.8l.1-12 .1-2v-4.2c.3-.8 1-.7 1.6-.8.6-.1 1.3-.2 1.8-.5.8-.4 1.7-.5 2.5-.8.2-.1.5-.1.6.2l.1.7v15.9c-.4.8-.1 1.6-.1 2.4l.1.4c0 1.1 0 1.1 1.1 1.1h.5c.4.1.8 0 1.3.3z"/><path fill="#8c6039" d="M25.5 59.4h-3.1c-.2-.3-.2-.6-.2-.9.2-1.5 0-2.9 0-4.4V41.9l.2-2.1-.2-1.4c0-.9.1-1 .9-1.3l1.8-.5c.2-.1.5-.2.7.1v2.7V46l.1.9v11.2c0 .5.1.9-.2 1.3z"/><path d="M25.5 59.4V47l.2.1.1.4c.3 1.6.2 3.2.2 4.8 0 .1.1-.1 0 0h-.1c0-.8-.1-1.6.1-2.4 0-.2 0-.5.4-.3.2.9.2 1.9.1 2.8-.2 1.8 0 3.7-.1 5.5V53.7c0-.2-.2-.6.2-.6.3.5.1 1.1.1 1.7l-.1 4.4-.1.4c-.2-.2-.6-.2-1-.2z" class="st332"/><path d="M12.9 44.7v14.9h-.2l-.1-.6v-9.5c.3-.7.1-1.5.1-2.2 0-.4-.1-.7.1-1.1v-1.5c.1-.1.1-.1.1 0z" class="st183"/><path fill="#b68c4b" d="M31.7 59.7c.3.8.1 1.2-.7 1.2h-2.5c.6-.3 1.3-.1 2-.2.3 0 .7.1 1.1-.2-1.6-.1-3.2.1-4.7.1 0-.2-.1-.5.1-.7h.1c1.5.1 3.1.2 4.6-.2z"/><path fill="#e09d21" d="M12.7 49.4v10.2h-.2v-9.7c0-.3-.1-.5.1-.8.2.1.2.2.1.3z"/><path fill="#d78f27" d="M26.7 59.4v-6.5c-.2-.9-.2-1.9 0-2.8.2 0 .2.1.2.3 0 1.6.1 3.3-.1 4.9v4.1h-.1z"/><path d="M27 59.7h3.7l-.1.2c-1.2.1-2.4.2-3.6-.1h-.1l.1-.1z" class="st294"/><path d="M19.3 61.2c1.4 0 1.4 0 1.4 1.5l-.1 11.9-.1.3v-1.1c0-.2 0-.4-.2-.5-.7-.3-.5-.5.2-.8-.7-.2-.5-1.1-1.2-1.1V61.2c-.1 0 0 0 0 0z" class="st336"/><path fill="#edbc47" d="M10.9 61.4v4.3c-.3.2.1.9-.4.8-.4-.1-.2-.6-.2-1v-4.1l.6-.1c.1-.1.1 0 0 .1z"/><path d="M10.9 61.4v-.2h1.6c.2 0 .5 0 .5.3v11c0 .3.1.6-.1.9V68c-.3-.3-.2-.7-.2-1v-5l-.3-.1c-.3.5-.1 1.1-.1 1.6V65c0 .2 0 .4-.3.4-.2 0-.2-.2-.2-.4v-2.1c0-.4.1-.7-.1-1.1l-.3-.2-.2-.1-.3-.1z" class="st137"/><path fill="#e0a737" d="M26.5 61v-.1h.3V65.1h-.2v-3.4c.1-.2.1-.4-.1-.7z"/><path d="M25.7 61v2.7h-.1v-2.8l.1.1z" class="st292"/><path d="M12.7 49.4v-.3-2.6c-.4 4.3-.2 8.5-.3 12.9-.2-.3-.1-.6-.1-.8v-8.2c0-.8-.3-1.5-.4-2.2v-2.9c.6.4.6.4.8-.8.2.6-.1 1.2.2 1.8-.2.9.1 2-.2 3.1z" class="st339"/><path d="M21.4 20.1l-2.9-.5 2.1-1.4 5-3c.3-.2.2-.7.7-.7l1.3.2c5.8.8 11.2 2.8 16.2 5.8.2.1.5.2.6.5l.9.6c.1.2 0 .3-.1.3-.6-.2-1 .2-1.5.3-2.7.8-5.3 1.8-7.9 2.7-.3.1-.5.2-.6.5-.5.2-.7-.2-1-.3-2.8-1.8-5.9-3-9.1-3.9-1-.3-2-.6-3.1-.7l-.6-.4z" class="st80"/><path fill="#fdea8e" d="M46.3 22.3l1.2.9c.3.3.2.3-.1.5L37.7 27c-.3.1-.5 0-.7-.1-.3-.2-.5-.5-.9-.6 0-.1-.1-.1 0-.2.1-.3.4-.4.6-.5l8.7-3.1c.3-.2.6-.2.9-.2z"/><path fill="#fdf8d1" d="M46.3 22.3l-4.8 1.8-4.5 1.6c-.3.1-.7.2-.9.5-.5 0-.9-.2-1-.7 0-.4.1-.5.5-.6 1.2-.3 2.4-.9 3.6-1.3 1.5-.5 2.9-1.1 4.4-1.5.6-.2 1.1-.4 1.7-.4.3.1.7.3 1 .6z"/><path fill="#dfaf3d" d="M32.9 29a71.1 71.1 0 0 0-12.4-4.9l-2.4-.6c0-.2.2-.3.3-.4.3-.3.6-.1.8 0 4.2.9 8.1 2.5 12 4.3l1 .5c.5.4 1.1.3 1.7.2.8-.2 1.5-.7 2.4-.6.2-.1.4-.1.5.2.1.2-.1.2-.2.2-.8.1-1.5.5-2.3.8-.5 0-1 .2-1.4.3z"/><path fill="#fae286" d="M44.4 20.9l-3.7-2c-3.4-1.7-7-3-10.8-3.8l-2.4-.6c.2-.1.4.1.6-.1.8-.1 1.6.2 2.3.4 4.8 1.1 9.3 2.9 13.5 5.4.2.1.5.2.5.5.1.1 0 .2 0 .2z"/><path fill="#fbf8e4" d="M44.5 20.8A51.3 51.3 0 0 0 30 14.9l-1.9-.4-1.7-.3.3-.1 2 .3c1.8.5 3.6.8 5.4 1.4 3.7 1.2 7.2 2.8 10.5 4.8l.5.3.4.3c0 .1 0 .2-.2.2-.2-.3-.5-.5-.8-.6z"/><path fill="#fceb8f" d="M36.3 27.4l-2.7.9c-.6.2-1 0-1.4-.3 0-.2 0-.4.2-.5.8-.6 1.6-1.2 2.7-1.2.4.1.7.2.8.5l.4.6z"/><path fill="#e8cc68" d="M35.8 26.8l-.9-.4c-.3-.1-.7-.2-.9-.6.1-.3.3-.5 0-.8-.1-.1 0-.2.2-.1l.9.5 1 .7v.1c.1.3 0 .5-.3.6z"/><path fill="#f6e89e" d="M45.4 21.2l.2-.2c.7.4 1.3 1 1.9 1.6l-2.1-1.4z"/><path d="M40.5 17.8c-1.1-.3-2-.8-3-1.2-2.6-1-5.2-1.8-7.9-2.5.8-.1 1.4.2 2.2.4a48 48 0 0 1 8.3 2.9c.2.2.4.2.4.4zM43.6 19.5c-1.1-.5-2.1-.9-3.1-1.6 1.2.3 2.2.9 3.1 1.6zM43.7 19.4l1.4.8c-.6-.1-1.1-.4-1.4-.8-.1.1 0 0 0 0z" class="st348"/><path d="M12.7 61.4c.2.4.1.9.1 1.3v5.2c-.3.4 0 .8-.2 1.2-1.5-.6-.5-1.9-.9-2.8-.3.7-.2 1.5-.2 2.2 0 .2.1.5-.2.5-.3 0-.2-.3-.2-.5v-7h.1c.3.2.2.5.2.7v0c0-.3-.1-.5.2-.8.4.1.3.4.3.6 0 1.1 0 2.1.2 3.2v-3c0-.3 0-.6.4-.8l.2.3.1 4.6-.1-4.1c-.2-.3-.3-.6 0-.8z" class="st182"/><path d="M31.2 27.6c-2.1-.8-4.1-1.8-6.2-2.5-2.2-.8-4.3-1.4-6.6-1.9l-4.2-.7c.8-.7 1.8-1 2.4-2 1.4-.1 2.8.3 4.3.3.8-.1 1.5.2 2.2.3a42.2 42.2 0 0 1 10.2 4.1c.1.3-.1.4-.2.5l-1 .6c-.4.3-.8.6-.7 1.1 0 .2 0 .2-.2.2z" class="st80"/><path fill="#faeeaf" d="M33.3 25.4a38.8 38.8 0 0 0-12.2-4.5l-.2-.1c.1-.3-.3-.1-.3-.3.4 0 .4-.4.7-.5a37.6 37.6 0 0 1 12.9 4.8c0 .3.3.7-.1.9-.4.2-.6-.1-.8-.3z"/><path d="M49 53.7l-.1-3.8v-6.6-2.7c.2-.2.4-.2.6-.1l2.7.5c.6.1.8.5.8 1 0 1 .1 1.9-.1 2.9l-.1 1v12.2l.1.7c.2.2.5.1.7.4.7.3 1.3.1 2 .1.5 0 1 0 1.5.2h-3c-.3 0-.3.2-.3.4 0 .3.2.2.4.2L57 60c.1 0 .3-.2.4.1 0 .2-.2.2-.4.2-.3 0-.6-.1-.9.1h-1.3c-.7 0-1.4-.2-2 .2h-.1c-.9-.2-1.8 0-2.7-.1-.9 0-1.1-.1-1.1-1.1v-1.8c0-.3 0-.6.3-.8.2-.2.3-.5 0-.6-.5-.2-.4-.5 0-.7.3-.2.3-.4 0-.6-.4-.2-.4-.5 0-.7.2-.1.2-.3.2-.5-.1-.2-.3-.1-.4 0z" class="st350"/><path fill="#cfa551" d="M54.9 67.2c-.2-.1-.2.7-.6.2-.1-.1-.1.2-.1.3-.1.6.1 1.3-.3 1.8v-2.8h-.1v9.1c-.5-.9-.2-1.7-.2-2.5 0-1.5.3-3.1-.2-4.6-.7-2.3-.2-4.7-.4-7 0-.3-.2-.7.4-.8.2 0 0-.4.3-.6v2.3c.3-.7.1-1.5.3-2.3.2.5.1 1.1.2 1.7.2-.2 0-.5.3-.7.4.4-.2 1.1.4 1.4v4.5z"/><path d="M52.8 72.7c.1.8-.3 1-1 1-.9 0-1.8.5-2.7.4-.3-.3-.2-.6-.2-.9v-9.5l-.1-2.6c0-.7.1-.8.9-.9.9 0 1.8.1 2.6-.1l.4.2.1 12.4z" class="st350"/><path fill="#5e3d29" d="M52.8 60.4h-3.3c-.5 0-.4.4-.4.7v13l-.2.1c-.2-.2-.1-.5-.1-.7V66l-.1-8.4c0-.3-.1-.6.2-.9h.3c-.3 1-.1 2.1-.1 3.1 0 .3.3.3.5.3h2.6c.3 0 .6-.1.6.3z"/><path fill="#b5986b" d="M49 56.8v17.5c-.1.8-.1 1.5.4 2.3-.1-.4-.4-.5-.7-.6.3-.9.1-1.9.1-2.8v-6.3-4.1l-.1-5.7c0-.3.1-.4.3-.3-.1-.1 0-.1 0 0z"/><path fill="#c9a04d" d="M52.9 44.8v-3c0-.4-.1-.6-.5-.6l-3.5-.6v-2.3-.6l4.7 1c.3.1.6.1.9.4l-4.5-1c-.2 0-.5-.3-.6.1-.1.3.3.3.5.3l3.1.7c.6.1 1.3.2 1 1.2.4 0 .2-.3.5-.5a20 20 0 0 1 0 6.9c-.3-.1-.3-.2-.3-.4 0-.1.1-.3-.2-.4v12.5c0 .3.2.7-.3.8h-.9c.7-2.8.3-5.8.3-8.6l.2-4.2-.1 1.5a7 7 0 0 1-.3-3.2z"/><path d="M48.2 34.1c.1.3.3.3.6.3-.4.3-.8.1-1.2.1.2-.3.4-.3.6-.4z" class="st126"/><path fill="#d49633" d="M55.6 28.6c0-.2 0-.5.3-.7l.1.5c-.1.2.1.5-.2.5-.2.1-.2-.2-.2-.3z"/><path fill="#a09c95" d="M24.8 94.7c.2-.4.6-.3 1-.5-.3.6-.7.4-1 .5z"/><path fill="#815a37" d="M40.4 60.6h-3c-.3 0-.6 0-.6-.3-.1-.4-.1-.7.4-.9.4.8.4.8 1.4.7l3.9-.1.2-.1c.2-.2-.1-.6.2-.8l.3-.2c.2-.3.2-.7.2-1V46.2v-5.8c0-1.2.5-1.5 1.6-.9v14.2c-.1.2-.3.3-.1.6l.2.2-.1.5c-1 .4-.1.5.1.7l-.1.6c-.1.2-.2.4 0 .6v16.7c.1.5.2 1 0 1.5h-.1c-1.2.4-1.2.4-1.2-.9V61.4c0-.7-.2-1-.9-.9-.6.3-1.3.3-1.9 0l-.5.1z"/><path d="M40.7 60.6h1.9c0 .4-.1.7.1 1.1.2 0 .2-.1.2-.2 0-.2.1-.4.3-.3.2 0 .1.2.1.4l-.1 10.1v-2.6c-1.1 2.7-.4 5.5-.6 8.2v1.3h-.1l-.1-.3c0-2.3-.1-4.5.1-6.8.1-1.2-.2-2.3-.1-3.6-.3.2-.2.5-.2.7v7.8c0 .3.2.6-.3.7v-2.5c-.4-.8-.2-1.7-.2-2.5v-3 2.1c0 .2 0 .5-.3.5s-.3-.3-.3-.5v-2.4c-.1.2.1.6-.4.7v-8.9z" class="st358"/><path d="M44.8 75.1v-1.5h.1c-.1.6.2 1.2-.1 1.8v-.3z" class="st242"/><path d="M40.7 69.4c.2-.2.1-.5.2-.8 0-.2-.2-.6.2-.6.3 0 .2.4.2.6V71c0 .2 0 .4.3.6v-3.7h.3v6.7c-.4.1-.3.3-.3.6v2.7c0 .2.1.5-.2.8-.2-.5-.1-.9-.2-1.3-.2 0-.2.3-.6.3l.1-8.3z" class="st238"/><path d="M41.9 77.4c.5.4.3.8 0 1.2v-1.2z" class="st358"/><path fill="#da9f41" d="M44.8 56.9c-.2 0-.5 0-.4-.3 0-.3.2-.3.4-.3h.5c.1.1.3.1.1.3l-.4.1-.2.2z"/><path d="M48.9 56.7c-.2.7-.1 1.5-.1 2.2v3.7h-.1v-5.5c0-.1-.2-.4.2-.4z" class="st251"/><path d="M44.7 54.4c-.3 0-.3-.1-.3-.3 0-.3.3-.2.4-.2.8.3 0 .3-.1.5z" class="st254"/><path fill="#caa253" d="M44.8 39.6c-1.3-.1-1.3-.1-1.3 1.3v5.4c-.2 0-.2-.1-.2-.2v-2.9c-.1 1.8.1 3.8.1 5.8v.7c0 .2-.1.3-.3.3-.2 0-.2-.1-.3-.3v-.2l.1-4.4v12.2c0 .7-.1 1.5.2 2.2h-.3c-.1.2-.3.3-.4 0v-4.7-10.4 13.5c0 .5.3 1.5-.3 1.5-.7 0-.4-1-.4-1.6.1-4.4.2-8.8.1-12.5-.1 2.5.1 5.6-.2 8.7-.5-.3-.4-.7-.4-1.1V45c0-.4 0-.7-.5-.7.1-1.7-.3-3.3-.1-5 .7-.1.7-.7.7-1.2v-1.4c0-.3.1-.5.4-.6.5-.1 2 .3 2.4.7-.2.3-.5.2-.8.2l-.9-.2c-.4-.1-.6.1-.6.5V37.4c0-.3.1-.5.4-.5a5 5 0 0 1 2.1.5c.1.1.3.2.2.3-.1.2-.2.2-.4.1l-1.4-.3c-.4-.1-.6 0-.6.5v1.3c-.1-2-.1-2 1.8-1.5.3.1.5.1.7.4v.2c.2.2.2.7.2 1.2z"/><path fill="#bb8c3f" d="M44.8 37.9l-1.7-.4c-.5-.1-.7 0-.7.5 0 .6.1 1.2-.1 1.7h-.2v-2.5c0-.2.3-.1.4-.1.6.1 1.2.3 1.9.3a6 6 0 0 0-2.3-.6c-.1-.1-.1.2-.1.4v1.6c0 .1 0 .3-.2.3a.2.2 0 0 1-.2-.2v-2.5c0-.3.2-.2.4-.2l2 .2-2-.4c-.4-.1-.5.1-.5.5v2.1c0 .2.1.6-.1.7-.3.1-.4-.3-.6-.3-.2-.2-.2-.4-.2-.7v-3.8c0-.9.3-1 1.1-.9.7.1 1.2.5 1.9.5l.9.2.3.2c.2.1-.1.7.5.5l-.1.4H45c-.2.7 0 1.6-.2 2.5z"/><path fill="#b48c41" d="M44.7 34.4h-.3c-.3-.4-.7-.6-1.2-.7l-2.2-.5c-.3 0-.6-.1-.5-.5l.1-.2c1.4-.3 2.8-.9 4.3-1.1-.2.6 0 1.2-.1 1.8 0 .4.3.4.5.5-.1.3-.5.3-.6.7z"/><path fill="#7d5b37" d="M40.5 32.7c.1.2.3.3.5.3 1 .1 1.9.4 2.9.6.4.1.5.3.5.7-.3 0-.5 0-.8-.2l-2.4-.7c-.3-.1-.5.1-.7.1l-.2-.2c-.1-.3-.1-.5 0-.8l.2.2z"/><path d="M40.4 32.7l.1.7c-.4.3-.7.2-1.1-.1v-.5c.5-.4.5.1.5.4.4 0 .3-.4.5-.5z" class="st364"/><path d="M39.5 32.9v.5c-.1.2-.2.3-.4.2-.2-.2-.2-.4 0-.6.1-.3.2-.5.4-.1z" class="st260"/><path d="M39.1 32.9c0 .2-.1.7.4.4l1 .2V37.9c-.5.3-1.3.3-1.8-.1a5 5 0 0 0-2.9-1c-.2-.1-.2-.3 0-.5s.4-.5 0-.7a6 6 0 0 1 0-1.9l3.3-.8z" class="st365"/><path d="M35.8 33.8v1.9h-.1c.1-.7-.2-1.3.1-1.9z" class="st366"/><path d="M44.8 37.9c.1-.9-.2-1.8.1-2.6 0 .8.2 1.7-.1 2.6z" class="st261"/><path d="M33.9 46.6v1.6c-.8-.2-1.5-.4-2.3-.3-.9.1-1.8-.4-2.7-.1-.3.1-.3-.2-.3-.4v-1.3c.7-.3 1.4-.3 2-.1 1.1.3 2.2.2 3.3.6z" class="st279"/><path d="M12.9 44.7h-.1c-.1-2.4.3-4.8-.4-7.3-.2-.1-.3.4-.5.2s-.1-.5-.1-.7v-5.4c0-.3-.2-.7.4-.5-.6.3-.2.8-.2 1.2.2-1 .2-1 1.2-.8l4.5.9.4.1c.2 0 .4.2.3.4-.1.4-.3.2-.4.2l-4.5-.9c-.9-.2-.9-.2-.9.7l.1 2.5c.3-.5.2-1 .2-1.5s.1-.7.7-.5l11.8 2.3c.5.1.5.4.5.7 0 .3 0 .7.2 1v-2.2c0-.5-.4-.5-.6-.5l-3.8-.8-.4-.1c-.2-.1-.4-.1-.3-.3.1-.2.3-.2.4-.2l1.8.4c.2 0 .5.2.7-.1l2.1.4c.5.1.7.3.8.9 0 1.7-.3 3.3-.1 5-.3-.1-.1-.5-.4-.5l-.1.8c-.2-.2 0-.5-.3-.6v6.6c.2.3.2.6 0 .9h-.1v-9.6-.7c-.2-.6-.6-.8-1.2-.9l-1.9-.4-1.6-.3-4.3-.8-2.6-.5c-.5-.1-.7.1-.7.6v4c-.1.6.2 1.3-.2 1.9-.3 1.4-.3 2.9-.4 4.4z" class="st339"/><path d="M26.7 50.2V53c-.2.3-.1.6-.1.8 0 1.8 0 3.6-.2 5.3v-9.7a2 2 0 0 1 0-1.8h.3c.1.9.2 1.7 0 2.6z" class="st274"/><path d="M26.4 47.6v1.8c-.3.5-.3 1.1-.3 1.6l-.1 1.6v-1.1c.2-1.4-.3-2.8-.3-4.2h.3l.5.2-.1.1z" class="st339"/><path d="M26.7 50.2v-2.5-.3c.3.9.2 1.8.2 2.7V55l-.1.4v-4.5c0-.3.1-.5-.1-.7z" class="st332"/><path d="M26.4 47.5l-.4.5c-.1-.3 0-.7-.4-.7V47v-.9c.5-.3.8-.2.7.5l.1.9z" class="st274"/><path fill="#ebb74d" d="M33.9 51.9c-1.5-.4-2.9-.1-4.4-.2-.6 0-.9.2-1 .7v-3.1c.1.2.1.6.6.3.4-.2.8.2 1.3.2 1.2-.1 2.3 0 3.5.2v1.9z"/><path fill="#e5a333" d="M27.3 59.4h-.1v-8.5c.3 0 .3.3.3.5v7.5l-.2.5z"/><path fill="#e7a836" d="M28.3 50.9v8c0 .4-.1.7-.6.6v-8.1c0-.6.2-.7.6-.5z"/><path fill="#f4cb63" d="M27 59.9c1.2-.1 2.4.1 3.7-.1h1c0 .2-.1.3-.3.3l-4 .1c-.2 0-.4 0-.4-.3z"/><path d="M35.8 36.9c.4-.3.8-.4 1.2-.1.2.2.4.2.7.2.4.1.8.2 1.1.6.4.5 1.1.3 1.6.4.3.1.2.4.2.6-.3.3-.7.1-1 .1.4.1.9 0 1 .7 0 .6.1 1.3-.1 1.9-.3.9-.1 1.8-.1 2.8 0 .2.1.6-.1.7-.3.1-.4-.2-.6-.4-.3-.2-.6-.3-1-.3h-2.1c-.6 0-.8-.2-.7-.7v-1.2c-.2.7.1 1.5-.2 2.2-.3-.2-.3-.6-.3-.9 0-1.1 0-2.3.2-3.4v-2.5l.1-.2c-.3-.2.1-.4.1-.5z" class="st366"/><path fill="#fdf19a" d="M35.7 40.1v4.3l-.1 2.9-1.5-.1V41c1.1.5 1.1.4 1.6-.9z"/><path d="M35.8 35.7c.2 0 .4 0 .4.3s-.2.4-.5.4c-.3-.3.2-.5.1-.7z" class="st366"/><path fill="#f8d177" d="M34.2 47.2c.5-.1 1-.3 1.5.1v7.1c-.4-.9-.1-1.8-.2-2.7-.3-.4-.2-.8-.2-1.3 0-.9 0-.9-.9-1l-.3-.1.1-2.1z"/><path fill="#edbb53" d="M34.2 49.4l.5-.1c.5-.1.9 0 .8.6v1.8c-.2-.1-.4-.2-.6-.1-.6.2-.8-.1-.9-.6v-1.2c.2-.1.2-.3.2-.4z"/><path d="M11.2 34.9c.3 0 .3-.3.3-.5 0-.3-.1-.6.1-.8v4.8c0 .2 0 .5-.2.5-.3 0-.2-.3-.2-.5v-3.5zM19.1 32.7c.2 0 .3.1.4.3l-.1.2c-.2 0-.3-.1-.4-.3-.1 0-.1-.1.1-.2z" class="st130"/><path fill="#cdb152" d="M22.4 67.8l-.1.4c-.5 0-.9.1-1.3.3v-5.9c.2-.1.5.2.7.1.6-.3.7 0 .7.5v4.6z"/><path d="M22.4 64.7c-.3-.5-.1-1-.1-1.6 0-.3 0-.6-.4-.3-.3.2-.7.2-.9-.2 0-1.5 0-1.5 1.4-1.5v3.6z" class="st336"/><path fill="#e9b339" d="M27.7 61.2c.4-.2.4 0 .4.3v2c-.4 0-.4-.2-.4-.5v-1.8z"/><path d="M25.7 64.4h.1v1.7h-.1v-1.7z" class="st292"/><path fill="#cca73f" d="M20.9 68.6c.3-.5.8-.6 1.3-.3v3.1c0 .5-.4 1 0 1.5l-.1.2c-.6.3-.9.9-1.2 1.4v-5.9z"/><path d="M40.5 38.6l-.1-.6c.3-1.2.1-2.4.1-3.6v-.9l.3-.2c.9.3 2 .2 2.8.8-.8.1-1.5-.3-2.2-.5-.6-.1-.8 0-.8.6v9.7c.3.4.2.8.2 1.2v12.2c0 1.7-.3 1.5 1.5 1.9l.3-.1c0 .2.3.5 0 .7-.2-.2-.5-.1-.8-.1h-3.6 3.6c.3 0 .5-.1.8.1 0 .3-.3.3-.5.3-1.5 0-3-.1-4.5.1-.9.1-.6-.6-.7-1H39c1.3 0 1.1.1 1.1-1.1V48l.1-7v-2.1c.2.1.2-.1.3-.3z" class="st364"/><path d="M35.7 56.6c-.2-.3-.3-.7-.8-.6-.2 0-.3 0-.3-.3 0-.2.2-.3.3-.3.5.1.6-.3.8-.6v1.8z" class="st171"/><path fill="#f3cb7e" d="M34.9 55c-.2 0-.4 0-.4-.3s.2-.3.5-.3c.2 0 .4 0 .4.2-.1.3-.3.4-.5.4z"/><path fill="#f1c371" d="M31.2 57.2h-1c-.1 0-.3 0-.4-.2 0-.2.1-.4.3-.4h2.2c.2 0 .2.1.2.3 0 .2-.1.3-.3.3h-1z"/><path fill="#f0c473" d="M31.1 56h-1c-.2 0-.3-.1-.3-.3 0-.2.1-.3.3-.3h2c.2 0 .3.1.3.3 0 .2-.2.2-.4.2l-.9.1z"/><path fill="#f1c372" d="M31.1 55h-1c-.2 0-.3 0-.4-.3 0-.2.1-.3.3-.3h1.8c.2 0 .4.2.4.4 0 .3-.3.2-.4.2h-.7z"/><path fill="#cda23f" d="M22.4 35.2l2.7.5c.6.1.3.6.4.9-.8.4-1.7.5-2.5.8-.2.1-.6.1-.5.5.1.5-.3 1 .2 1.3.1.1.3.2.1.3-.4.3-.5.5 0 .8v.3c-.5.3-.3.7-.3 1.1v12.5c0 .4-.2.9.3 1.1v.2c-.4.3-.4.5 0 .8.1.1 0 .2-.1.3-.1 0-.3.2-.2.3.5.9-.3 1.7 0 2.5H21l-.2-.2-.1-1.1V38.2l.2-2.6c.4-.5 1-.3 1.5-.4z"/><path fill="#cea03b" d="M13 40.2v-1.9c.2-.4.5-.5.8-.6l6.1-2c.3-.1.7-.3 1 .1v2.3c-.1.3-.1.5-.3.7-.5.6-1 .4-1.3-.3l-2.2.6c-.3.1-.7.1-.7.5 0 .1-.2.2-.2 0-.2-.4-.3-.1-.3.1-.1.3-.2.3-.3 0l-.2-.1c-.2.6-.6.1-1 .2-.5.3-1 .3-1.4.4z"/><path fill="#cb9f3d" d="M20.9 59.3v.1h-.4c-1.4 0-1.3 0-1.4-1.3 0-.4.1-.9-.1-1.4-.1-.3.1-.7-.1-1.1-.1-.1.2-.1.4-.2.2-.5.1-1 .1-1.4v-6.2c0-1.1.4-1.3 1.4-.9v10.4c.1.7-.1 1.3.1 2z"/><path fill="#d0af45" d="M20.8 46.9s-.1 0 0 0c-1.3.2-1.3.2-1.3 1.6v6.3c0 .3.1.5-.2.7V42.3c0-.2.1-.6-.3-.7l-.1-.2c.4-.9.4-1.9.3-2.8.4.7.8.6 1.3 0l.3-.3.1.3v8.1l-.1.2z"/><path fill="#e6ad32" d="M11.5 61.4V66h-.4v-4.6h.4z"/><path fill="#eab742" d="M12.7 61.4v5.1c-.5-1.7-.3-3.4-.4-5.1h.4z"/><path fill="#fcf8d2" d="M33.3 25.4l.8.4.9.6c-1.1.3-2.1.6-2.8 1.6l-.9-.4c-.1-.6.1-1 .6-1.3l1.4-.9z"/><path fill="#ba9047" d="M52.9 44.8c0 1 0 2 .4 2.9V46h.1v11.9c0 .6-.5.7-.6 1.2-.2-.2-.1-.5-.1-.7V45.5c.1-.2 0-.5.2-.7z"/><path d="M54 46.8l-.3 11.9V46.8h.3z" class="st216"/><path fill="#bb904b" d="M43.1 59.3c-.3-.2-.5-.4-.5-.8V47.2c0-1.1.1-2.2.3-3.2v5.8h.2v-7.1h.2v2.9c0 .3-.1.5.1.8v12.4c.1.2.1.5-.3.5z"/><path fill="#b8873f" d="M42.5 59.4c-1.8 0-1.8 0-1.8-1.7V44.1l.7-.6v10.3c.2-.4.2-.7.2-.9v-8.5-.5c0-.2 0-.3.2-.3s.1.2.1.3c.2 3.5.1 7 0 10.4l-.1 4.6c0 .1 0 .3.3.3v-16h.3l.1 16.2z"/><path fill="#a77f3e" d="M16.5 34.1l4.3.8c-.1.3-.4.4-.7.5-2.1.7-4.3 1.3-6.4 2.1-.3.1-.5.2-.8-.1v-2.1l.4-.4c1.1-.2 2.1-.7 3.2-.8z"/><path fill="#8e6339" d="M13 37.4c.8 0 1.5-.4 2.3-.7l4.6-1.5.9-.4 1.6.3a3 3 0 0 1-1.3.3c-.1.1-.1.2-.3.2L14 37.7l-1 .5v-.8z"/><path fill="#cda951" d="M16.5 34.1L13 35.4V34c0-.5.2-.6.6-.5l2.9.6z"/><path d="M40.5 38.6v.6a2 2 0 0 0-1-.3c-.2 0-.5 0-.5-.3.1-.3.4-.2.6-.1l.9.1z" class="st365"/><path fill="#c39944" d="M42.8 60h-5.4c.1-.4.3-.3.4-.3h4.4c.2 0 .5-.1.6.3z"/><path fill="#9c8045" d="M20.8 35.7l.3-.2c-.3 7.9-.1 15.8-.2 23.7-.2-.1-.2-.3-.2-.5.2-4 .1-7.9.1-11.9v-8.7-2.4z"/></svg>