<svg xmlns="http://www.w3.org/2000/svg" xmlns:xlink="http://www.w3.org/1999/xlink" id="图层_1" viewBox="0 0 100 93.7"><style>.st2{fill:none;stroke:#527ec5;stroke-width:.5;stroke-linecap:round;stroke-linejoin:round;stroke-miterlimit:10}.st3{fill:#6887bb}.st20{fill:#040942}</style><path fill="#c8edfa" d="M1.8 1.7h95.8v90H1.8z"/><defs><path id="SVGID_1_" d="M2.9 86.2h93.9v5.1H2.9z"/></defs><clipPath id="SVGID_2_"><use overflow="visible" xlink:href="#SVGID_1_"/></clipPath><g clip-path="url(#SVGID_2_)"><path d="M-10.3 86.4l17.8 5.2M3.4 86.4l17.8 5.2M17.1 86.4l17.8 5.2M30.8 86.4l17.8 5.2M44.6 86.4l17.8 5.2M58.3 86.4l17.8 5.2M72 86.4l17.8 5.2M85.7 86.4l17.8 5.2" class="st2"/><g><path d="M103.3 86.3l-17.8 5.2M89.6 86.3l-17.8 5.2M75.9 86.3l-17.8 5.2M62.2 86.3l-17.8 5.2M48.5 86.3l-17.8 5.2M34.8 86.3L17 91.5M21 86.3L3.2 91.5M7.3 86.3l-17.8 5.2" class="st2"/></g><g><path d="M-3.5 86.4l17.8 5.2M10.2 86.4L28 91.6M23.9 86.4l17.8 5.2M37.6 86.4l17.8 5.2M51.3 86.4l17.8 5.2M65 86.4l17.8 5.2M78.7 86.4l17.8 5.2M92.5 86.4l17.8 5.2" class="st2"/></g><g><path d="M110.1 86.3l-17.8 5.2M96.4 86.3l-17.8 5.2M82.7 86.3l-17.8 5.2M68.9 86.3l-17.8 5.2M55.2 86.3l-17.8 5.2M41.5 86.3l-17.8 5.2M27.8 86.3L10 91.5M14.1 86.3l-17.8 5.2" class="st2"/></g></g><path d="M1.8 90.6h95.8v1.6H1.8z" class="st3"/><defs><path id="SVGID_3_" d="M2.9 81.1h93.9v5.1H2.9z"/></defs><clipPath id="SVGID_4_"><use overflow="visible" xlink:href="#SVGID_3_"/></clipPath><g clip-path="url(#SVGID_4_)"><path d="M-10.3 81.2l17.8 5.2M3.4 81.2l17.8 5.2M17.1 81.2l17.8 5.2M30.8 81.2l17.8 5.2M44.6 81.2l17.8 5.2M58.3 81.2l17.8 5.2M72 81.2l17.8 5.2M85.7 81.2l17.8 5.2" class="st2"/><g><path d="M103.3 81.2l-17.8 5.2M89.6 81.2l-17.8 5.2M75.9 81.2l-17.8 5.2M62.2 81.2l-17.8 5.2M48.5 81.2l-17.8 5.2M34.8 81.2L17 86.4M21 81.2L3.2 86.4M7.3 81.2l-17.8 5.2" class="st2"/></g><g><path d="M37.6 81.2l17.8 5.2M-3.5 81.2l17.8 5.2M10.2 81.2L28 86.4M23.9 81.2l17.8 5.2M51.3 81.2l17.8 5.2M65 81.2l17.8 5.2M78.7 81.2l17.8 5.2M92.5 81.2l17.8 5.2" class="st2"/></g><g><path d="M110.1 81.2l-17.8 5.2M96.4 81.2l-17.8 5.2M82.7 81.2l-17.8 5.2M68.9 81.2l-17.8 5.2M55.2 81.2l-17.8 5.2M41.5 81.2l-17.8 5.2M27.8 81.2L10 86.4M14.1 81.2l-17.8 5.2" class="st2"/></g></g><path d="M1.8 85.4h95.8V87H1.8z" class="st3"/><defs><path id="SVGID_5_" d="M2.9 75.9h93.9V81H2.9z"/></defs><clipPath id="SVGID_6_"><use overflow="visible" xlink:href="#SVGID_5_"/></clipPath><g clip-path="url(#SVGID_6_)"><path d="M-10.3 76.1l17.8 5.2M3.4 76.1l17.8 5.2M17.1 76.1l17.8 5.2M30.8 76.1l17.8 5.2M44.6 76.1l17.8 5.2M58.3 76.1l17.8 5.2M72 76.1l17.8 5.2M85.7 76.1l17.8 5.2" class="st2"/><g><path d="M103.3 76.1l-17.8 5.1M89.6 76.1l-17.8 5.1M75.9 76.1l-17.8 5.1M62.2 76.1l-17.8 5.1M48.5 76.1l-17.8 5.1M34.8 76.1L17 81.2M21 76.1L3.2 81.2M7.3 76.1l-17.8 5.1" class="st2"/></g><g><path d="M37.6 76.1l17.8 5.2M-3.5 76.1l17.8 5.2M10.2 76.1L28 81.3M23.9 76.1l17.8 5.2M51.3 76.1l17.8 5.2M65 76.1l17.8 5.2M78.7 76.1l17.8 5.2M92.5 76.1l17.8 5.2" class="st2"/></g><g><path d="M110.1 76.1l-17.8 5.1M96.4 76.1l-17.8 5.1M82.7 76.1l-17.8 5.1M68.9 76.1l-17.8 5.1M55.2 76.1l-17.8 5.1M41.5 76.1l-17.8 5.1M27.8 76.1L10 81.2M14.1 76.1l-17.8 5.1" class="st2"/></g></g><path d="M1.8 80.3h95.8v1.6H1.8z" class="st3"/><defs><path id="SVGID_7_" d="M2.9 70.8h93.9v5.1H2.9z"/></defs><clipPath id="SVGID_8_"><use overflow="visible" xlink:href="#SVGID_7_"/></clipPath><g clip-path="url(#SVGID_8_)"><path d="M-10.3 71l17.8 5.1M3.4 71l17.8 5.1M17.1 71l17.8 5.1M30.8 71l17.8 5.1M44.6 71l17.8 5.1M58.3 71l17.8 5.1M72 71l17.8 5.1M85.7 71l17.8 5.1" class="st2"/><g><path d="M103.3 70.9l-17.8 5.2M89.6 70.9l-17.8 5.2M75.9 70.9l-17.8 5.2M62.2 70.9l-17.8 5.2M48.5 70.9l-17.8 5.2M34.8 70.9L17 76.1M21 70.9L3.2 76.1M7.3 70.9l-17.8 5.2" class="st2"/></g><g><path d="M-3.5 71l17.8 5.1M10.2 71L28 76.1M23.9 71l17.8 5.1M37.6 71l17.8 5.1M51.3 71l17.8 5.1M65 71l17.8 5.1M78.7 71l17.8 5.1M92.5 71l17.8 5.1" class="st2"/></g><g><path d="M110.1 70.9l-17.8 5.2M96.4 70.9l-17.8 5.2M82.7 70.9l-17.8 5.2M68.9 70.9l-17.8 5.2M55.2 70.9l-17.8 5.2M41.5 70.9l-17.8 5.2M27.8 70.9L10 76.1M14.1 70.9l-17.8 5.2" class="st2"/></g></g><path d="M1.8 75.2h95.8v1.6H1.8z" class="st3"/><defs><path id="SVGID_9_" d="M2.9 65.6h93.9v5.1H2.9z"/></defs><clipPath id="SVGID_10_"><use overflow="visible" xlink:href="#SVGID_9_"/></clipPath><g clip-path="url(#SVGID_10_)"><path d="M-10.3 65.8L7.5 71M3.4 65.8L21.2 71M17.1 65.8L34.9 71M30.8 65.8L48.6 71M44.6 65.8L62.4 71M58.3 65.8L76.1 71M72 65.8L89.8 71M85.7 65.8l17.8 5.2" class="st2"/><g><path d="M103.3 65.8l-17.8 5.1M89.6 65.8l-17.8 5.1M75.9 65.8l-17.8 5.1M62.2 65.8l-17.8 5.1M48.5 65.8l-17.8 5.1M34.8 65.8L17 70.9M21 65.8L3.2 70.9M7.3 65.8l-17.8 5.1" class="st2"/></g><g><path d="M-3.5 65.8L14.3 71M10.2 65.8L28 71M23.9 65.8L41.7 71M37.6 65.8L55.4 71M51.3 65.8L69.1 71M65 65.8L82.8 71M78.7 65.8L96.5 71M92.5 65.8l17.8 5.2" class="st2"/></g><g><path d="M110.1 65.8l-17.8 5.1M96.4 65.8l-17.8 5.1M82.7 65.8l-17.8 5.1M68.9 65.8l-17.8 5.1M55.2 65.8l-17.8 5.1M41.5 65.8l-17.8 5.1M27.8 65.8L10 70.9M14.1 65.8l-17.8 5.1" class="st2"/></g></g><path d="M1.8 70h95.8v1.6H1.8z" class="st3"/><defs><path id="SVGID_11_" d="M2.9 60.5h93.9v5.1H2.9z"/></defs><clipPath id="SVGID_12_"><use overflow="visible" xlink:href="#SVGID_11_"/></clipPath><g clip-path="url(#SVGID_12_)"><path d="M-10.3 60.7l17.8 5.1M3.4 60.7l17.8 5.1M17.1 60.7l17.8 5.1M30.8 60.7l17.8 5.1M44.6 60.7l17.8 5.1M58.3 60.7l17.8 5.1M72 60.7l17.8 5.1M85.7 60.7l17.8 5.1" class="st2"/><g><path d="M103.3 60.6l-17.8 5.2M89.6 60.6l-17.8 5.2M75.9 60.6l-17.8 5.2M62.2 60.6l-17.8 5.2M48.5 60.6l-17.8 5.2M34.8 60.6L17 65.8M21 60.6L3.2 65.8M7.3 60.6l-17.8 5.2" class="st2"/></g><g><path d="M-3.5 60.7l17.8 5.1M10.2 60.7L28 65.8M23.9 60.7l17.8 5.1M37.6 60.7l17.8 5.1M51.3 60.7l17.8 5.1M65 60.7l17.8 5.1M78.7 60.7l17.8 5.1M92.5 60.7l17.8 5.1" class="st2"/></g><g><path d="M110.1 60.6l-17.8 5.2M96.4 60.6l-17.8 5.2M82.7 60.6l-17.8 5.2M68.9 60.6l-17.8 5.2M55.2 60.6l-17.8 5.2M41.5 60.6l-17.8 5.2M27.8 60.6L10 65.8M14.1 60.6l-17.8 5.2" class="st2"/></g></g><path d="M1.8 64.9h95.8v1.6H1.8z" class="st3"/><g><defs><path id="SVGID_13_" d="M2.9 55.4h93.9v5.1H2.9z"/></defs><clipPath id="SVGID_14_"><use overflow="visible" xlink:href="#SVGID_13_"/></clipPath><g clip-path="url(#SVGID_14_)"><path d="M-10.3 55.5l17.8 5.2M3.4 55.5l17.8 5.2M17.1 55.5l17.8 5.2M30.8 55.5l17.8 5.2M44.6 55.5l17.8 5.2M58.3 55.5l17.8 5.2M72 55.5l17.8 5.2M85.7 55.5l17.8 5.2" class="st2"/><g><path d="M103.3 55.5l-17.8 5.1M89.6 55.5l-17.8 5.1M75.9 55.5l-17.8 5.1M62.2 55.5l-17.8 5.1M48.5 55.5l-17.8 5.1M34.8 55.5L17 60.6M21 55.5L3.2 60.6M7.3 55.5l-17.8 5.1" class="st2"/></g><g><path d="M-3.5 55.5l17.8 5.2M10.2 55.5L28 60.7M23.9 55.5l17.8 5.2M37.6 55.5l17.8 5.2M51.3 55.5l17.8 5.2M65 55.5l17.8 5.2M78.7 55.5l17.8 5.2M92.5 55.5l17.8 5.2" class="st2"/></g><g><path d="M110.1 55.5l-17.8 5.1M96.4 55.5l-17.8 5.1M82.7 55.5l-17.8 5.1M68.9 55.5l-17.8 5.1M55.2 55.5l-17.8 5.1M41.5 55.5l-17.8 5.1M27.8 55.5L10 60.6M14.1 55.5l-17.8 5.1" class="st2"/></g></g><path d="M1.8 59.7h95.8v1.6H1.8z" class="st3"/></g><g><defs><path id="SVGID_15_" d="M2.9 50.2h93.9v5.1H2.9z"/></defs><clipPath id="SVGID_16_"><use overflow="visible" xlink:href="#SVGID_15_"/></clipPath><g clip-path="url(#SVGID_16_)"><path d="M-10.3 50.4l17.8 5.1M3.4 50.4l17.8 5.1M17.1 50.4l17.8 5.1M30.8 50.4l17.8 5.1M44.6 50.4l17.8 5.1M58.3 50.4l17.8 5.1M72 50.4l17.8 5.1M85.7 50.4l17.8 5.1" class="st2"/><g><path d="M103.3 50.3l-17.8 5.2M89.6 50.3l-17.8 5.2M75.9 50.3l-17.8 5.2M62.2 50.3l-17.8 5.2M48.5 50.3l-17.8 5.2M34.8 50.3L17 55.5M21 50.3L3.2 55.5M7.3 50.3l-17.8 5.2" class="st2"/></g><g><path d="M-3.5 50.4l17.8 5.1M10.2 50.4L28 55.5M23.9 50.4l17.8 5.1M37.6 50.4l17.8 5.1M51.3 50.4l17.8 5.1M65 50.4l17.8 5.1M78.7 50.4l17.8 5.1M92.5 50.4l17.8 5.1" class="st2"/></g><g><path d="M110.1 50.3l-17.8 5.2M96.4 50.3l-17.8 5.2M82.7 50.3l-17.8 5.2M68.9 50.3l-17.8 5.2M55.2 50.3l-17.8 5.2M41.5 50.3l-17.8 5.2M27.8 50.3L10 55.5M14.1 50.3l-17.8 5.2" class="st2"/></g></g><path d="M1.8 54.6h95.8v1.6H1.8z" class="st3"/></g><g><defs><path id="SVGID_17_" d="M2.9 45.1h93.9v5.1H2.9z"/></defs><clipPath id="SVGID_18_"><use overflow="visible" xlink:href="#SVGID_17_"/></clipPath><g clip-path="url(#SVGID_18_)"><path d="M-10.3 45.2l17.8 5.2M3.4 45.2l17.8 5.2M17.1 45.2l17.8 5.2M30.8 45.2l17.8 5.2M44.6 45.2l17.8 5.2M58.3 45.2l17.8 5.2M72 45.2l17.8 5.2M85.7 45.2l17.8 5.2" class="st2"/><g><path d="M103.3 45.2l-17.8 5.1M89.6 45.2l-17.8 5.1M75.9 45.2l-17.8 5.1M62.2 45.2l-17.8 5.1M48.5 45.2l-17.8 5.1M34.8 45.2L17 50.3M21 45.2L3.2 50.3M7.3 45.2l-17.8 5.1" class="st2"/></g><g><path d="M-3.5 45.2l17.8 5.2M10.2 45.2L28 50.4M23.9 45.2l17.8 5.2M37.6 45.2l17.8 5.2M51.3 45.2l17.8 5.2M65 45.2l17.8 5.2M78.7 45.2l17.8 5.2M92.5 45.2l17.8 5.2" class="st2"/></g><g><path d="M110.1 45.2l-17.8 5.1M96.4 45.2l-17.8 5.1M82.7 45.2l-17.8 5.1M68.9 45.2l-17.8 5.1M55.2 45.2l-17.8 5.1M41.5 45.2l-17.8 5.1M27.8 45.2L10 50.3M14.1 45.2l-17.8 5.1" class="st2"/></g></g><path d="M1.8 49.4h95.8V51H1.8z" class="st3"/></g><g><defs><path id="SVGID_19_" d="M2.9 39.9h93.9V45H2.9z"/></defs><clipPath id="SVGID_20_"><use overflow="visible" xlink:href="#SVGID_19_"/></clipPath><g clip-path="url(#SVGID_20_)"><path d="M-10.3 40.1l17.8 5.1M3.4 40.1l17.8 5.1M17.1 40.1l17.8 5.1M30.8 40.1l17.8 5.1M44.6 40.1l17.8 5.1M58.3 40.1l17.8 5.1M72 40.1l17.8 5.1M85.7 40.1l17.8 5.1" class="st2"/><g><path d="M103.3 40l-17.8 5.2M89.6 40l-17.8 5.2M75.9 40l-17.8 5.2M62.2 40l-17.8 5.2M48.5 40l-17.8 5.2M34.8 40L17 45.2M21 40L3.2 45.2M7.3 40l-17.8 5.2" class="st2"/></g><g><path d="M-3.5 40.1l17.8 5.1M10.2 40.1L28 45.2M23.9 40.1l17.8 5.1M37.6 40.1l17.8 5.1M51.3 40.1l17.8 5.1M65 40.1l17.8 5.1M78.7 40.1l17.8 5.1M92.5 40.1l17.8 5.1" class="st2"/></g><g><path d="M110.1 40l-17.8 5.2M96.4 40l-17.8 5.2M82.7 40l-17.8 5.2M68.9 40l-17.8 5.2M55.2 40l-17.8 5.2M41.5 40l-17.8 5.2M27.8 40L10 45.2M14.1 40l-17.8 5.2" class="st2"/></g></g><path d="M1.8 44.3h95.8v1.6H1.8z" class="st3"/></g><g><defs><path id="SVGID_21_" d="M2.9 34.8h93.9v5.1H2.9z"/></defs><clipPath id="SVGID_22_"><use overflow="visible" xlink:href="#SVGID_21_"/></clipPath><g clip-path="url(#SVGID_22_)"><path d="M-10.3 34.9l17.8 5.2M3.4 34.9l17.8 5.2M17.1 34.9l17.8 5.2M30.8 34.9l17.8 5.2M44.6 34.9l17.8 5.2M58.3 34.9l17.8 5.2M72 34.9l17.8 5.2M85.7 34.9l17.8 5.2" class="st2"/><g><path d="M103.3 34.9l-17.8 5.2M89.6 34.9l-17.8 5.2M75.9 34.9l-17.8 5.2M62.2 34.9l-17.8 5.2M48.5 34.9l-17.8 5.2M34.8 34.9L17 40.1M21 34.9L3.2 40.1M7.3 34.9l-17.8 5.2" class="st2"/></g><g><path d="M-3.5 34.9l17.8 5.2M10.2 34.9L28 40.1M23.9 34.9l17.8 5.2M37.6 34.9l17.8 5.2M51.3 34.9l17.8 5.2M65 34.9l17.8 5.2M78.7 34.9l17.8 5.2M92.5 34.9l17.8 5.2" class="st2"/></g><g><path d="M110.1 34.9l-17.8 5.2M96.4 34.9l-17.8 5.2M82.7 34.9l-17.8 5.2M68.9 34.9l-17.8 5.2M55.2 34.9l-17.8 5.2M41.5 34.9l-17.8 5.2M27.8 34.9L10 40.1M14.1 34.9l-17.8 5.2" class="st2"/></g></g><path d="M1.8 39.1h95.8v1.6H1.8z" class="st3"/></g><g><defs><path id="SVGID_23_" d="M2.9 29.6h93.9v5.1H2.9z"/></defs><clipPath id="SVGID_24_"><use overflow="visible" xlink:href="#SVGID_23_"/></clipPath><g clip-path="url(#SVGID_24_)"><path d="M-10.3 29.8L7.5 35M3.4 29.8L21.2 35M17.1 29.8L34.9 35M30.8 29.8L48.6 35M44.6 29.8L62.4 35M58.3 29.8L76.1 35M72 29.8L89.8 35M85.7 29.8l17.8 5.2" class="st2"/><g><path d="M103.3 29.7l-17.8 5.2M89.6 29.7l-17.8 5.2M75.9 29.7l-17.8 5.2M62.2 29.7l-17.8 5.2M48.5 29.7l-17.8 5.2M34.8 29.7L17 34.9M21 29.7L3.2 34.9M7.3 29.7l-17.8 5.2" class="st2"/></g><g><path d="M-3.5 29.8L14.3 35M10.2 29.8L28 35M23.9 29.8L41.7 35M37.6 29.8L55.4 35M51.3 29.8L69.1 35M65 29.8L82.8 35M78.7 29.8L96.5 35M92.5 29.8l17.8 5.2" class="st2"/></g><g><path d="M110.1 29.7l-17.8 5.2M96.4 29.7l-17.8 5.2M82.7 29.7l-17.8 5.2M68.9 29.7l-17.8 5.2M55.2 29.7l-17.8 5.2M41.5 29.7l-17.8 5.2M27.8 29.7L10 34.9M14.1 29.7l-17.8 5.2" class="st2"/></g></g><path d="M1.8 34h95.8v1.6H1.8z" class="st3"/></g><g><defs><path id="SVGID_25_" d="M2.9 24.5h93.9v5.1H2.9z"/></defs><clipPath id="SVGID_26_"><use overflow="visible" xlink:href="#SVGID_25_"/></clipPath><g clip-path="url(#SVGID_26_)"><path d="M-10.3 24.6l17.8 5.2M3.4 24.6l17.8 5.2M17.1 24.6l17.8 5.2M30.8 24.6l17.8 5.2M44.6 24.6l17.8 5.2M58.3 24.6l17.8 5.2M72 24.6l17.8 5.2M85.7 24.6l17.8 5.2" class="st2"/><g><path d="M103.3 24.6l-17.8 5.2M89.6 24.6l-17.8 5.2M75.9 24.6l-17.8 5.2M62.2 24.6l-17.8 5.2M48.5 24.6l-17.8 5.2M34.8 24.6L17 29.8M21 24.6L3.2 29.8M7.3 24.6l-17.8 5.2" class="st2"/></g><g><path d="M-3.5 24.6l17.8 5.2M10.2 24.6L28 29.8M23.9 24.6l17.8 5.2M37.6 24.6l17.8 5.2M51.3 24.6l17.8 5.2M65 24.6l17.8 5.2M78.7 24.6l17.8 5.2M92.5 24.6l17.8 5.2" class="st2"/></g><g><path d="M110.1 24.6l-17.8 5.2M96.4 24.6l-17.8 5.2M82.7 24.6l-17.8 5.2M68.9 24.6l-17.8 5.2M55.2 24.6l-17.8 5.2M41.5 24.6l-17.8 5.2M27.8 24.6L10 29.8M14.1 24.6l-17.8 5.2" class="st2"/></g></g><path d="M1.8 28.8h95.8v1.6H1.8z" class="st3"/></g><g><defs><path id="SVGID_27_" d="M2.9 19.4h93.9v5.1H2.9z"/></defs><clipPath id="SVGID_28_"><use overflow="visible" xlink:href="#SVGID_27_"/></clipPath><g clip-path="url(#SVGID_28_)"><path d="M-10.3 19.5l17.8 5.2M3.4 19.5l17.8 5.2M17.1 19.5l17.8 5.2M30.8 19.5l17.8 5.2M44.6 19.5l17.8 5.2M58.3 19.5l17.8 5.2M72 19.5l17.8 5.2M85.7 19.5l17.8 5.2" class="st2"/><g><path d="M103.3 19.5l-17.8 5.2M89.6 19.5l-17.8 5.2M75.9 19.5l-17.8 5.2M62.2 19.5l-17.8 5.2M48.5 19.5l-17.8 5.2M34.8 19.5L17 24.7M21 19.5L3.2 24.7M7.3 19.5l-17.8 5.2" class="st2"/></g><g><path d="M-3.5 19.5l17.8 5.2M10.2 19.5L28 24.7M23.9 19.5l17.8 5.2M37.6 19.5l17.8 5.2M51.3 19.5l17.8 5.2M65 19.5l17.8 5.2M78.7 19.5l17.8 5.2M92.5 19.5l17.8 5.2" class="st2"/></g><g><path d="M110.1 19.5l-17.8 5.2M96.4 19.5l-17.8 5.2M82.7 19.5l-17.8 5.2M68.9 19.5l-17.8 5.2M55.2 19.5l-17.8 5.2M41.5 19.5l-17.8 5.2M27.8 19.5L10 24.7M14.1 19.5l-17.8 5.2" class="st2"/></g></g><path d="M1.8 23.7h95.8v1.6H1.8z" class="st3"/></g><g><defs><path id="SVGID_29_" d="M2.9 14h93.9v5.1H2.9z"/></defs><clipPath id="SVGID_30_"><use overflow="visible" xlink:href="#SVGID_29_"/></clipPath><g clip-path="url(#SVGID_30_)"><path d="M-10.3 14.2l17.8 5.1M3.4 14.2l17.8 5.1M17.1 14.2l17.8 5.1M30.8 14.2l17.8 5.1M44.6 14.2l17.8 5.1M58.3 14.2l17.8 5.1M72 14.2l17.8 5.1M85.7 14.2l17.8 5.1" class="st2"/><g><path d="M103.3 14.1l-17.8 5.2M89.6 14.1l-17.8 5.2M75.9 14.1l-17.8 5.2M62.2 14.1l-17.8 5.2M48.5 14.1l-17.8 5.2M34.8 14.1L17 19.3M21 14.1L3.2 19.3M7.3 14.1l-17.8 5.2" class="st2"/></g><g><path d="M-3.5 14.2l17.8 5.1M10.2 14.2L28 19.3M23.9 14.2l17.8 5.1M37.6 14.2l17.8 5.1M51.3 14.2l17.8 5.1M65 14.2l17.8 5.1M78.7 14.2l17.8 5.1M92.5 14.2l17.8 5.1" class="st2"/></g><g><path d="M110.1 14.1l-17.8 5.2M96.4 14.1l-17.8 5.2M82.7 14.1l-17.8 5.2M68.9 14.1l-17.8 5.2M55.2 14.1l-17.8 5.2M41.5 14.1l-17.8 5.2M27.8 14.1L10 19.3M14.1 14.1l-17.8 5.2" class="st2"/></g></g><path d="M1.8 18.4h95.8V20H1.8z" class="st3"/></g><g><defs><path id="SVGID_31_" d="M2.9 8.7h93.9v5.1H2.9z"/></defs><clipPath id="SVGID_32_"><use overflow="visible" xlink:href="#SVGID_31_"/></clipPath><g clip-path="url(#SVGID_32_)"><path d="M-10.3 8.9l17.8 5.2M3.4 8.9l17.8 5.2M17.1 8.9l17.8 5.2M30.8 8.9l17.8 5.2M44.6 8.9l17.8 5.2M58.3 8.9l17.8 5.2M72 8.9l17.8 5.2M85.7 8.9l17.8 5.2" class="st2"/><g><path d="M103.3 8.8L85.5 14M89.6 8.8L71.8 14M75.9 8.8L58.1 14M62.2 8.8L44.4 14M48.5 8.8L30.7 14M34.8 8.8L17 14M21 8.8L3.2 14M7.3 8.8L-10.5 14" class="st2"/></g><g><path d="M-3.5 8.9l17.8 5.2M10.2 8.9L28 14.1M23.9 8.9l17.8 5.2M37.6 8.9l17.8 5.2M51.3 8.9l17.8 5.2M65 8.9l17.8 5.2M78.7 8.9l17.8 5.2M92.5 8.9l17.8 5.2" class="st2"/></g><g><path d="M110.1 8.8L92.3 14M96.4 8.8L78.6 14M82.7 8.8L64.9 14M68.9 8.8L51.1 14M55.2 8.8L37.4 14M41.5 8.8L23.7 14M27.8 8.8L10 14M14.1 8.8L-3.7 14" class="st2"/></g></g><path d="M1.8 13.1h95.8v1.6H1.8z" class="st3"/></g><g><defs><path id="SVGID_33_" d="M2.9 3.6h93.9v5.1H2.9z"/></defs><clipPath id="SVGID_34_"><use overflow="visible" xlink:href="#SVGID_33_"/></clipPath><g clip-path="url(#SVGID_34_)"><path d="M-10.3 3.7L7.5 8.9M3.4 3.7l17.8 5.2M17.1 3.7l17.8 5.2M30.8 3.7l17.8 5.2M44.6 3.7l17.8 5.2M58.3 3.7l17.8 5.2M72 3.7l17.8 5.2M85.7 3.7l17.8 5.2" class="st2"/><g><path d="M103.3 3.7L85.5 8.8M89.6 3.7L71.8 8.8M75.9 3.7L58.1 8.8M62.2 3.7L44.4 8.8M48.5 3.7L30.7 8.8M34.8 3.7L17 8.8M21 3.7L3.2 8.8M7.3 3.7l-17.8 5.1" class="st2"/></g><g><path d="M-3.5 3.7l17.8 5.2M10.2 3.7L28 8.9M23.9 3.7l17.8 5.2M37.6 3.7l17.8 5.2M51.3 3.7l17.8 5.2M65 3.7l17.8 5.2M78.7 3.7l17.8 5.2M92.5 3.7l17.8 5.2" class="st2"/></g><g><path d="M110.1 3.7L92.3 8.8M96.4 3.7L78.6 8.8M82.7 3.7L64.9 8.8M68.9 3.7L51.1 8.8M55.2 3.7L37.4 8.8M41.5 3.7L23.7 8.8M27.8 3.7L10 8.8M14.1 3.7L-3.7 8.8" class="st2"/></g></g><path d="M1.8 7.9h95.8v1.6H1.8z" class="st3"/></g><path d="M97.6 3.1V4H1.8v-.9zM97.6 90.5v1H1.8v-1z" class="st20"/><path d="M2.9 1.9v90.3h.7V1.8zM96.4 1.9v90.3h.7V1.8z" class="st20"/><path fill="#5a5b58" d="M48.3 1.9h3.3v90h-3.3z"/><path fill="#9ea6a5" d="M100 93.7V0H0v93.7h100zM3 91V3.1h93.8V91H3z"/></svg>