<svg xmlns="http://www.w3.org/2000/svg" id="图层_1" viewBox="0 0 79 100"><style>.st1{fill:#f4f3f7}.st4{fill:#d7d6de}.st10{fill:#e4e0e2}.st17{fill:#c1c0c2}.st18{fill:#e2e1e4}.st19{fill:#eeedf2}.st20{fill:#fdfdfd}.st21{fill:#d5d4de}.st30{fill:#dadae3}.st36{fill:#e2e1e8}.st37{fill:#e1e0e7}.st40{fill:#c7c5d0}.st41{fill:#d5d4dc}.st43{fill:#c7c6cd}.st50{fill:#bebdc7}.st61{fill:#c4c4cc}.st63{fill:#aeaebb}.st66{fill:#d6d4da}.st67{fill:#bdbcc6}.st68{fill:#d1cfd8}.st69{fill:#c5c4ce}.st71{fill:#cccbd1}.st73{fill:#6f6e71}.st75{fill:#aeadb2}.st90{fill:#0a0916}.st100{fill:#69443b}.st114{fill:#b3b6c7}.st118{fill:#0e0404}</style><path fill="#f7f6f9" d="M7.3 99.1l-.1-.3c-.4-.6-.9-1-1.1-1.7-.3-2.7-.1-5.5-.2-8.2l.1-.6c.1-.2.2-.2.3 0l.1.7v4.4c0 .9.3 1.7.2 2.5l.2.4c.6.8 2 1.4 3 1.1l1.2-.2h4.3a27 27 0 0 0 4-.3l2.1-.1c.5 0 1 0 1.5-.2l.4-.1c1.1.1 2.1-.1 3.2-.1.9 0 1.9 0 2.7-.3.9-.4 1.6-.2 2.4-.2l2-.1c.7-.1 1.5 0 2.2.1.8.1 1.7.1 2.5-.2.8-.3 1.7-.2 2.5-.2 1.3 0 2.5-.1 3.8-.4.8-.1 1.6-.3 2.4-.2.7.1 1.3-.1 2-.4l.4-.4c.1-.4.3-.7.3-1.1.1-.5.3-.8.9-.7.2 0 .4 0 .4-.2s-.2-.2-.4-.2c-.8-.2-1.5.3-2.2.4-.2 0-.2.2-.2.3v.6c.1.7-.1.9-.8.5-.4-.2-.5-.1-.5.3l-.2.5c-.2.2-.5.2-.7.1-.3-.1-.4-.4-.3-.7.1-.4.3-.7.3-1.1.1-.9.2-1 1.1-.8-.4-.3-.5-.7-.4-1.2l.2-1.4c0-.4.2-.6.7-.6.5.1 1.1.1 1.6.3.5.2.5.5.1.8-.3.3-.6.4-1 .4-.2 0-.5 0-.4.3 0 .2.3.2.4.1.5-.3 1-.3 1.5 0 .1.1.4.1.5-.1.2-.2 0-.4-.1-.5-.4-.3-.6-.7-.6-1.2 0-.3-.3-.4-.5-.4l-1.3.1c-.7.1-.8 0-.8-.7v-.1c0-.3.2-.7 0-.8-.3-.1-.5.3-.7.5-.4.4-.8.8-1.3 1-.3.1-.4.3-.5.6-.1.5-.4.6-.8.8a11 11 0 0 1-5.9.8h-.4c-1.8.4-3.7.2-5.5.2-.7 0-1.4.1-2.1.4-.6.3-1.2.1-1.7-.1-.5-.3-1.1-.4-1.6-.2-.5.1-.8-.1-1-.6a.9.9 0 0 0-.6-.6c-1.2-.2-1.7-1.1-2.4-1.9-.3-.3-.5-.5-.9-.4-.4.1-.8 0-1.2-.1-.7-.2-1.3-.1-1.6.6-.1.2-.4.4-.5.2-.7-.9-1.7-.6-2.6-.5l-2.7.1-1.1.2c-.6.1-.9-.3-.6-.8l.2-1.1.3-.9c.3-.5.3-.9-.1-1.3-.3-.3-.5-.7-.6-1.2l-.2-.5c-.6-.7-.7-1.5-.6-2.3.1-1.6-.4-2.9-1.4-4.1-.2-.3-.5-.3-.7 0l-.5.4c-.9.3-1.1 1-1.1 1.9 0 .3.1.7-.3.9-.2-.1-.2-.3-.2-.5 0-2.3-.2-4.7.3-7 .2-.7.3-.8 1-.6.7.4 1 1.3 1.6 1.8 0 .3.2.6.5.9l2.7 3c.2.2.4.2.3-.2-.4-1.8-.2-3.6-.2-5.4 0-2.7.1-5.5-.1-8.2l.1-2.2-.1-4.8v-4.5c0-.3 0-.7.5-.7.4 0 .8.4.8.8 0 .7-.2 1.5-.4 2.1-.3.9-.2 1.7.2 2.5l.2.7v.2c-.4.5-.4 1.1-.1 1.7.1.3 0 .5 0 .8 0 .3 0 .6.2.8.1 1.5.2 3 .1 4.6-.2.6.1 1.1 0 1.7v.6c0 1.5-.1 3.1.1 4.6v.7c-.2.7-.1 1.5-.1 2.2v.7c.1.3.1.5 0 .8 0 .8.8 1.8 1.6 1.9l.5-.2.9-.6c.8-.2 1.6-.1 2.5-.2l5.1-.3c1.9-.2 3.8 0 5.7-.4l5.8-.3 4.3-.3 2.1.1.8-.1 5.4-.3h.5l1.8-.3c1-.3 1.9-.2 2.9-.2 2.4-.2 4.8-.4 7.1-.4l8.6-.5c1.7-.1 3.3-.1 4.9-.3l1-.1c.7-.2 1-.8 1.4-1.4.5-.4.4-1 .4-1.6.1-1.7-.1-3.3.1-5 .1-.5 0-.9-.1-1.4 0-.4-.1-1 .4-1.1.5-.1.5.6.6 1l.3 5.1v2.5c-.2 1.4-.7 2.4-2 3.1l-.2.2c-.2.3-.5.3-.8.5l-.2.1-3 .3h-.3c-.6 0-1.1-.1-1.7.1-1.9.3-3.9.3-5.9.4l-5.7.4-3.6.2-4.4.4-3.1.1-7.6.5-7.2.4-9.8.5-6.3.4c-.7 0-1.5.1-2.2-.4l-.6-.4c0 .3.3.3.5.4l.2.3c.3.5.6.1 1 .1h2.4c.3.1.7.3 1-.1l.6-.1 8-.5c1.5-.1 3-.3 4.5-.1 2.7 1 5.6 1.2 8.4.9l5.4-.3 6.3-.3h1.9c1.5 0 3-.2 4.5-.5.9-.2 1.9-.1 2.8-.1l6.2-.4c.9-.1 1.5.4 1.6 1.3v8.1c.1 2 .2 4-.1 5.9a2.8 2.8 0 0 1-2.2 2.3l-2.7.3-4.3.4h-1.2c-2 0-3.9.3-5.8.4l-6.7.4-4.4.3c-2.8.1-5.5.4-8.3.6l-6 .4-8.8.6-2.9.1-4.2.2-.6.2-.3.1h-3c0-.2-.1-.3-.2-.3z"/><path d="M76.2 74.9c.1-.5.6-.6.9-.8.6-.4.9-1.1 1-1.7.5-1.5.2-3 0-4.5v-1.5c0-1-.3-1.9-.2-2.9 0-.2-.1-.5-.4-.5-.2 0-.2.3-.2.5-.1.4.1.8.1 1.2-.1.9-.2 1.8-.1 2.7.1 1.3 0 2.7-.1 4 0 .4-.2.6-.5.6l-.1-.4V55.3v-.6l.1-1v-7c0-.5 0-1-.2-1.4.2-.7.2-1.5.1-2.3v-4.9-13.4-1.3-11.5l.1-.9c.2-.9-.1-1.3-1-1.4h-.3l-5.6.4-4 .2-6.6.3-5.6.3-28.9 1.3-5.5.2-4.7.1c-.7.2-1.3.6-1.6 1.3l-.1 2.3.2 5.7.2 12.5.2 11.8.1 9.3c0 .4.1.9-.2 1.3-.5-1-1-1.9-.6-3.1.2-.7.5-1.3.5-2.1V51c-.1-.4-.4-.5-.7-.5-.3-.1-.2.3-.2.5v4.5l.1 4.6v14c-.1.6-.1 1.4.3 2 .1.1.2.3.1.5l-.5.2c-.3.2-.3 0-.3-.2-.3-3.6-.2-7.2-.2-10.8l-.1-10.7v-6.7l-.1-10-.1-8.9-.3-11.4-.1-3.9a3.9 3.9 0 0 1 3.7-3.6l6.3-.2 3.5-.2.4-.1h1l10.8-.4 6.7-.2 6.7-.3 3.3-.1 4.7-.1 6.6-.3 3.5-.1 6.8-.4a3 3 0 0 1 1.6.4c1.5.8 2.2 2.1 2.1 3.8l.1.2v1.6l-.1.7v9.3l-.1 4.6v20.1L78.6 69l-.1 2.9a3 3 0 0 1-1.4 2.6l-.4.3c0 .1-.2.2-.5.1z" class="st1"/><path fill="#d2cdd4" d="M9.4 73.7c-.8-.8-1.4-1.7-2.1-2.6-.5-.3-.8-.8-1.2-1.2l-.1.3c0 2.8-.2 5.5-.1 8.3l.1 6.7v7.5c0 1.3-.2 2.6.2 3.9.1.2.2.6-.2.8l-2.8-3.9-1.6-2.4c-.6-.7-.7-1.6-.7-2.4V78.6l-.1-14c0-1.1 0-1.1 1.1-1.1h.4C1.6 62.4.6 61.4.8 60c.3 0 .4.2.5.4.2.5.6.9 1 1.2.4.3.5.2.6-.2v-.7c-.2-1.7 0-3.4 0-5.1 0-1.5 0-2.9-.2-4.4-.2-1-.2-2-.1-3v-2.4c0-.3 0-.6.3-.8.4.2.3.5.3.8v4l.1.8c.1.5.4.7.9.7h1.2c1 .1 1.9-.1 2.7-.5.6-.3 1.2-.2 1.7.3l.1.7c-.4.9-.3 1.8-.2 2.8v.5c-.2 1.3 0 2.6-.1 4-.1 1.2-.2 2.5-.1 3.7.1 1-.2 2.1.2 3.1.2.8.1 1.7.1 2.5l.1 1.2.1.3c.7.3.4.9.4 1.5v2.1c0 .2-.1.3-.3.3-.2 0-.2-.2-.3-.3l-.1-1.7c0 .4-.1.9.1 1.4-.2.3-.2.5-.4.5z"/><path fill="#cecacf" d="M76.9 74.7c.4-.5 1-.8 1.3-1.3.2-.4.4-.8.4-1.3.2 0 .2.1.1.3 0 .7-.3 1.3-.8 1.8l-1.2 1c-.7.6-1.6.5-2.5.6l-2.8.2c-.5 0-.5.2-.5.6v8.9c0 .3.1.5-.1.8-.3-.3-.2-.6-.2-.9v-8c0-.3.1-.6-.2-.8-.4-.1-.4.2-.3.4.4 1.7.2 3.3.2 5v10.2c0 .8-.1 1.6-.5 2.3a3 3 0 0 1-1.4 1.3c-1 .4-1.9.6-3 .5-.1-.4.3-.5.5-.6l.6-.1c1.9-.2 3.3-1.9 2.9-3.8V91v-3.8-1.5-4.8-1c.1-.9 0-1.7-.6-2.4-.3-.3-.7-.4-1.1-.4a42 42 0 0 1-5 .3c-1.6 0-3.2.2-4.8.6h-.2c-2.3-.1-4.6.2-6.8.3l-6.3.3-6.3.3c-1.3 0-2.6-.1-3.9-.4-.7-.2-1.5 0-2.2-.1-2.7 0-5.4.3-8.2.4-1.5.1-3 .3-4.6.3l-.5.1c-.3.2-.5.1-.8 0h-2.6a1 1 0 0 1-.9-.1l-.1-.3c-.3-.2-.3-.3 0-.4.8.5 1.8.5 2.7.4l4.3-.3 7.4-.5 1.6-.1c2.2-.1 4.5-.1 6.7-.3a1160.4 1160.4 0 0 0 11.2-.8l3-.1 8.4-.6 2.3-.1c2.4-.1 4.7-.4 7.1-.4.4 0 .9-.2 1.3-.1.6-.2 1.1.1 1.7-.1h.3c1-.1 2.1-.1 3.1-.3.4 0 .9-.1 1.3-.4z"/><path d="M76.9 8.7c-1.2-.7-2.5-.3-3.8-.2l-3 .2-3.7.2c-3.4 0-6.7.3-10.1.3l-6 .3-9 .4-7 .3-8.6.4c-.2-.4.2-.5.4-.6.8-.3 1.6-.3 2.5-.4l1.3-.1 1.6-.1c2.5 0 4.9-.1 7.4-.4h.1c2 .3 4-.3 6-.4l.8.1 1 .1c1.1-.3 2.2-.2 3.3-.2a73 73 0 0 0 6.6-.4c1.7-.2 3.5-.3 5.3-.3l4.5-.2 3.6-.2 4.1-.4c.5-.1 1 0 1.6.2-.3-.6-.8-.8-1.2-1l-.6-.5c-.1-.2 0-.2.1-.3 1.5.5 2.6 1.4 2.9 3l-.1.2z" class="st4"/><path fill="#c9c9d5" d="M9.1 11.4l-.3-.4C7.3 9.8 6.2 8.3 4.7 7c-.5-.6-.9-1.2-1.6-1.5-.9-.4-1.7-.4-2.6-.4-.3 0-.4.2-.4.4 0 .7-.1 1.5.1 2.2.1 4.1-.1 8.2.1 12.3 0 13.3.1 26.7.3 40l.2.3c.2.7.7 1.2 1.3 1.7.1.1.3.3.5.2.2-.1.2-.4.2-.6.1-1.2-.2-2.4-.1-3.6l.1-1.1-.1-2.6c0-.4.2-.7.1-1.1l-.3-3v-3.5c0-.5-.2-1.1.1-1.6.4-.6.3-1.3.3-2V35v-.7V33l-.2-7.6v-1.3l-.1-.1c.3-.3.2-.7.2-1.1l-.2-9-.2-6c0-.4-.2-.9.2-1.1.5-.2.8.3 1 .6.3.6.8 1 1.4 1.4.5.3 1 .7 1.1 1.3.3 1.1 1.3 1.4 2 2.1.2.2.5.3.6.6 0 .1 0 .5.3.3.2-.6.2-1.1.1-1.7z"/><path fill="#c8c8d2" d="M6.5 3.2c.6.8 1.4 1.3 2.2 1.9 1 1 2.3 1.7 3.3 2.7l.4.2-.1.2-2 .8c-.6 0-1-.5-1.4-.8L3.6 4l-.9-.8c-.6-.6-1.2-.5-1.7.2-.1.2-.2.5-.5.4v-.1c.4-1.1 1.1-1.9 2.4-2.1 1-.1 1.9-.3 2.9-.2.2 0 .4 0 .5.2 0 .2-.1.3-.3.4-.2.2-.3.4 0 .6.1.2.4.3.5.6z"/><path d="M.5 3.7c.2.1.3-.1.4-.2.3-1.1 1.4-1.1 2.1-.3.6.8 1.4 1.3 2.1 1.8l2.4 2 2.8 2-.1.3a5 5 0 0 0-1 1.9l-.2.2c-1.2-1-2.3-2.2-3.4-3.3a11 11 0 0 0-1.8-1.9c-.4-.4-1.1-1.1-2-.8-.3.1-.7-.2-1.1-.2-.4.1-.5.2-.5.6v2C-.1 7 .1 6.1.1 5.3c.1-.6 0-1.1.4-1.6z" class="st4"/><path fill="#bcbbc6" d="M6 2.8c-.3-.3-.8-.5 0-.8 0-.1.2-.2.1-.4 0-.2-.2-.1-.4-.1-.9 0-1.8 0-2.6.2l-.3-.1a4 4 0 0 1 1.8-.4c2.4 0 4.8-.2 7.1-.1.8.3 1.5.1 2.3 0 1.2 0 2.4-.2 3.6.1.1.2.3.4-.2.4-.6 0-1.2 0-1.8.3 0 .3-.2.3-.4.3l-2.1.1c-1.1-.2-2.2.1-3.4.2-1 0-2.1.3-3.1.1-.2-.1-.4.1-.6.2z"/><path fill="#e0dfe0" d="M78.7 72.4l-.1-.3c.3-14.1.1-28.3.1-42.4v-4.9c0-.2-.1-.5.1-.7.2.9 0 1.7.1 2.6 0 .3-.1.6.1 1v22.7l-.1 21.3c-.1.2 0 .5-.2.7z"/><path fill="#ccc8cd" d="M7.3 99.1h.5c.8.4 1.6.5 2.4.4 1.5-.1 3-.5 4.6-.3.4.1.7-.1 1.1-.1 1.4-.2 2.8 0 4.2-.2l5.6-.5c.5 0 1-.2 1.4.3l-.1.2-1.7.2c-.6 0-1 .2-1.4.6-1.1.2-2.3.3-3.4.3-.6 0-1.1.1-1.7-.2l.6-.1c-.4-.3-.8-.2-1.2-.1l-2 .1-7 .3c-.8-.2-1.5-.3-1.9-.9z"/><path d="M6 97.4c.3-.3.2-.7.1-1-.2-.4-.2-.7-.2-1.1v-8.5-3.6c-.2-4.4-.1-8.8-.1-13.2v-.9c.6.7 1.2 1.2 1.6 1.9l-.6-.1c-.3-.1-.4 0-.4.2-.6 2.6-.4 5.1-.4 7.7l.1.2c.2.2.2.6.2.9v7.6c0 .3 0 .6-.2.9 0 3.1-.1 6.1.1 9.2.1.2.1.3-.1.3l-.1-.5z" class="st10"/><path fill="#959299" d="M68.3 95.7a3 3 0 0 0 1.8-2.9v-15l-.2-.6c-.3-.7-.1-1.1.7-1.1.2.5 0 .9 0 1.4v13.2a7 7 0 0 1-.8 4c-.3.5-.8.8-1.3 1-.1.2-.3.2-.2 0z"/><path fill="#c4c0c5" d="M52.5 97.4c-2.4 1.1-4.9.9-7.4.7l-1.8-.2c-.5-.2-1 .1-1.4-.1 0-.4.3-.3.5-.3 2.6 0 5.1-.5 7.7-.4.5 0 .9-.2 1.3-.3.3 0 .6-.1.9.1.2.1.3.2.2.5z"/><path fill="#afacad" d="M41.9 97.8c.5.1 1-.1 1.4.1l-10.5.7-6 .4-.7.2a6 6 0 0 1-2.3.6c.1-.6.5-.8 1.1-.8.7 0 1.5 0 2.2-.2.2-.2.4-.2.6-.2l8.4-.5 5-.3c.2-.2.6-.3.8 0z"/><path fill="#7b7a7e" d="M69.8 94.8c-.1-.1-.2-.1-.1-.3.7-1.4.8-2.8.6-4.3-.1-1.1-.1-2.1 0-3.2v-.5-6.1c-.1-1.4.1-2.8.2-4.2.3.2.2.5.2.7V92.3c0 .9-.2 1.8-.9 2.5z"/><path fill="#97969d" d="M74.1 5.5l-.1.2h-.1c-1.3-.5-2.3-1.3-3.6-1.8-.5-.2-1-.5-1.3-1-.2-.3-.7-.3-1.1-.5-.7-.3-1.2-.9-1.9-1.2-1-.4-1.8-1.3-3-1.1-.7.1-1.4-.1-2.1.1l-.3-.2L64-.1a3 3 0 0 1 1.8.6 228 228 0 0 0 8.3 5z"/><path fill="#b1adaf" d="M52.5 97.4l-.1-.3c.4-.2.8-.2 1.1-.2l11.1-.7.7.1c1 0 2-.1 2.9-.5l.2.1c-.7.5-1.6.6-2.4.6l-6.5.4c-2.2.2-4.3.2-6.5.5h-.5z"/><path d="M79 27.6c-.3-.5-.1-1.1-.1-1.6v-1.9-9.4c0-.2-.1-.5.1-.7v13.6zM76.9 8.7l.1-.1c1.6.8 2.1 2.2 2 3.9l-.4-1.7c-.3-1-.9-1.6-1.7-2.1z" class="st17"/><path d="M6.1 97.6l.1-.3c.3.5.8.8.9 1.4-.5-.1-.6-.7-1-1.1z" class="st18"/><path d="M75.6 73.4c-.7.4-1.4.3-2.1.4L71 74c-2.8.1-5.5.2-8.3.5h-1.8c-.3-.3-.8-.1-1.1-.1-2 0-3.9.2-5.9.3l-4 .3c-.4 0-.7.2-.9.4h-.4c-.2-.3-.6-.2-.9-.2l-5.4.4c-2-.2-3.9.1-5.9.2l-5.4.3c-.3 0-.7 0-1 .2-.4.2-.8.2-1.3.2l-4.4.1-.6-.2-5 .3H17c-.6-.1-1.3.1-1.8-.2-.4-.5-.4-1-.1-1.5.3-.5.4-.9.3-1.5-.1-1 .1-1.9.2-2.8l.3-3.9c0-1.4 0-2.9.2-4.3v-2.4c0-1.8-.3-3.6.2-5.4.2-.7.4-1.3.4-2 0-.4.4-.5.7-.5 1-.2 2.1-.2 3.1-.3.3 0 .7.1.9.4.2.3.4.3.7.1.6-.5 1.3-.7 2-.4.1.1.3.1.4 0 1-.6 2.2-.2 3.2-.7l.3-.1c1.2.3 2.4-.4 3.6-.1l.6-.1c1-.5 2-.4 3-.1h1c1-.2 2-.5 3.1 0 .3.1.6.2.8.1.7-.3 1.5-.4 2.3-.4.9 0 1.7-.3 2.6-.1.6.2 1.2-.1 1.7-.2.8-.1 1.7 0 2.4-.4.2-.1.5-.1.8 0 .9.3 1.8.3 2.7.5.2.1.4 0 .6-.1l1.2-.3c.4 0 .7 0 .9.4.1.2.2.3.5.3s.3-.2.3-.4c.1-.4.4-.5.8-.4.8.2 1.7.1 2.5-.1s1.6-.3 2.4.3c.2.2.4.2.7 0 .5-.3.9-.2 1.5-.1.4.1.9 0 1.3.4.2.2.5.1.7-.2l.8-.8c.5-.6 1.1-1.1 1-2 0-.2 0-.4.2-.4.2-.1.3 0 .5.1l.3.4c.2.4.4.4.6.1l.5-.4c-.1-.2-.5-.4-.2-.7.3-.3.6-.3.9 0 .1.1.2.2.4.1.7-.4 1.4-.2 2.2-.2.6 0 .7.2.6.8-.1.7.2 1.4-.2 2 .6.4.1 1 .3 1.4.3.5.2.9 0 1.3l-.2 1c-.1.5-.3.6-.7.3l-.4-.2c-.6-.1-1-.4-1.1-1l-2.2 1.4c-.6.4-1.1 1-1 2l.1 2.7-.1.6c-.1.3 0 .6.2.7.3.2.7.2.9-.1.6-.8 1.4-.5 2.2-.5.2 0 .4.1.3.2 0 .5.3.4.6.4l1.5.1c.4.1.6.3.7.7l.2 1.8v4.8l.2 1.8c.3 0 .4-.5.7-.2.2.2.3.5.2.8-.1.4-.1.9.1 1.3l.2-2.9c0-.4-.1-.9.1-1.3.1-.3.2-.7.7-.4l.1 4.7c-.4 1.4-.7 2.2-1.6 2.8z" class="st19"/><path d="M6.1 88.2v-9.3c0-.6-.1-1.3.2-1.9.1-.4.4-.7.8-.8.4-.1.7-.3.9-.7.2-.4.6-.1.7.1 1.1 1.3 1.8 2.7 1.5 4.5-.1.7 0 1.5.7 2.1l.2.3c-.1.7.3 1.2.7 1.6.3.4.4.8 0 1.2-.3.3-.3.6-.3 1s0 .8-.2 1.1c-.1.2-.2.3 0 .5.1.1.3.2.5.1.4-.3.9-.2 1.4-.2l4.2-.2c.5-.1.6.5.9.7.2.1.3.2.4 0 .1-.2 0-.4.3-.5.4-.2.9-.4 1.4-.2.5.2 1 .3 1.5.1.2-.1.6.1.6.2.1.6.8.7 1 1.3.2.6.9.6 1.4.8.4.2.8.3.9.8.1.4.4.6.9.4.5-.2 1-.1 1.5.2.7.3 1.3.5 2.1.1.4-.2.9-.2 1.4-.3h3.5l2.3-.2c.8-.2 1.7.1 2.5.1 1.3 0 2.4-.5 3.6-.8.6-.1 1.1-.4 1.1-1.1 0-.2.1-.3.3-.3.8-.2 1.2-.8 1.7-1.4.2-.2.3-.4.6-.4.2 0 .6.1.3.5l-.2.5c-.1.8-.1.8.8.7h1.2c.5 0 .8.3.6.8-.1.3 0 .4.2.6l.3.2c.2.2.4.5.2.8-.2.4-.7.3-.9.2-.5-.4-.9-.3-1.3 0-.3.2-.6.1-.9-.1V91c.2-.3.5-.5.8-.4.5.2.7-.2 1-.4.3-.1.1-.3-.1-.4-.6-.3-1.3-.2-1.9-.4-.2 0-.3.1-.3.3l-.2 1.7c-.2.5 0 1 .7.9-.3.4-.5.5-.9.2s-.6-.1-.6.3c0 .5 0 .9-.3 1.4-.2.3-.1.4.2.5.3.1.5.1.6-.3l.1-.4c.1-.4.2-.8.7-.2.1.1.3.3.5.2.3-.1 0-.3 0-.5v-.2c0-.5-.2-1.1.7-1 .2 0 .5-.1.7-.3.3-.2.5-.3.8-.1.1.1.3.1.4 0 .2-.1.4-.1.5.1.1.2.2.4.1.5-.1.2-.3.4-.5.3-.6-.3-.7.1-.8.5-.1.4-.4.8-.4 1.3 0 .2-.1.4-.4.4l-2.7.4c-1 0-2 0-3 .5l-.8.1c-1.4-.1-2.7 0-4 .2-.7.1-1.3.5-2.1.4-.9-.2-1.7 0-2.6-.2-.5-.1-1.1.2-1.6.2l-2-.1c-.1 0-.3-.1-.4 0-.9.8-2.1.7-3.2.7-1.2 0-2.4.4-3.6.1-1.7.7-3.4.3-5.1.5-1.3.2-2.6.2-3.9.2-1.3-.1-2.6 0-4 .1l-1.2.2c-.5 0-1-.1-1.3-.5.1-.7-.1-.8-.3-.8-.5-.2-.9-.8-.8-1.3.1-.6-.2-1-.2-1.6v-5.2c0-.2.1-.5-.1-.7z" class="st20"/><path d="M13.4 56.8v-6.2c-.1-3.1 0-6.2-.2-9.3l-.1-5.7-.1-4.3-.2-10.8c0-1.9 0-3.7-.2-5.6 0-.4 0-.8.3-1.2.1.1.2.1.4 0 .3-.2.5-.1.6.2.1.2.2.4.4.4.3 0 .2-.3.2-.4.1-.3.3-.4.5-.4l1.2-.2 4-.2h5c1-.7 2.2-.2 3.2-.3l6.6-.3.9.1c.3.3.3.6.1 1l-2.7.4c-1.9.1-3.7 0-5.6.3h-.2c-1.5-.1-2.9.3-4.4.1-2.5-.2-4.9.1-7.4.3-1 .1-1.6.4-1.5 1.7.1 1-.1 1.9-.1 2.9l.1 2.7c-.1.8-.2 1.7.2 2.5.2.6-.2 1.3-.1 1.9.1.8-.1 1.7.4 2.5.2.3.1.6 0 .8-.2.5-.2 1 0 1.6.2.7.1 1.4-.1 2.1v1.2l.3 1.5c.3 1.7 0 3.3.3 5 .2.9 0 1.9.1 2.9.1 1.1-.3 2.1 0 3.2v1.5 1.1c.1 1 .1 2-.3 3-.2.8-.3 1.6-.2 2.4.1.7.4 1.4-.1 2l-.1.4c.2.6 0 1.2 0 1.9v6.3c0 1.4.2 2.9.1 4.3l.1 1.2v2l-.1.4c-.1.2-.4.7-.6.7-.3 0-.1-.5-.2-.8-.2-1-.1-1.9-.1-2.9-.1 1.5 0 3.1-.2 4.6-.3.4-.3-.1-.5-.1l.1-.6v-2.3-.7l-.1-4c0-.2.1-.5-.1-.7v-.5-1.7-4.6c0-1-.4-2.1 0-3.1l.4-.2z" class="st21"/><path d="M32.1 78.5c.9-.2 1.8-.2 2.7 0 .7.1 1.5.4 2.3.3l2.6-.1 7.1-.5 3.3-.1c2.6 0 5.2-.4 7.9-.3 1.6-.4 3.3-.4 5-.5 1.6-.1 3.3-.1 4.9-.3.7-.1 1.3.3 1.5 1 .2.6.2 1.1.2 1.7v1l-.1 2.7V92.7c-.4 1.6-1.2 2.4-2.6 2.7a26 26 0 0 1-4.8.5c-1.5 0-3 .2-4.4.3-2.3.2-4.7.1-7 .6-.8.2-1.6-.1-2.4.1l-4.5.3-3.7.2-8.3.6-2.4.1-6.4.4-4 .3c-1 .1-2.1-.1-3.1.1-1.3.2-2.7-.1-4 .2-.4.1-.7 0-1-.3l.6-.3c1.5.1 2.9-.2 4.4-.1a105.4 105.4 0 0 0 12.5-.7l6.3-.4 6-.4 6.8-.5 4.3-.3 4.1-.3 3.5-.2 3.6-.3 2.7-.3c.9-.1 1.8-.1 2.4-.9.6-.7.8-1.5.9-2.3v-4.1c-.2-2.8.1-5.7 0-8.5 0-1.4-.4-1.8-1.8-1.6-.7.4-1.5.4-2.3.4l-3.6.2c-1.5 0-3 .1-4.4.5-.9.2-1.9.2-2.8.2l-6 .3c-1.8.1-3.6 0-5.3.2-1.7.2-3.5.3-5.2.3-2-.2-3.8-.4-5.5-1.2z" class="st18"/><path d="M10.8 98.9c1.6.1 3.1-.1 4.7-.1l2.6-.1c1.6.1 3.2-.3 4.8-.3 1.2 0 2.5-.4 3.7-.3 1 .1 1.9-.1 2.8-.2 1.9-.1 3.9-.1 5.8-.4l2.1-.1 4.7-.3 3.2-.1c1.2 0 2.5-.2 3.7-.4h.2c1.8.3 3.6-.4 5.4-.4l4.3-.2 5.7-.3 2.6-.4c1.1-.2 1.9-1.2 2.1-2.4.2-1 0-2.1.1-3.1l.1-3.1v-5.3c0-.2-.1-.4.1-.5v5c-.1 1.2.1 2.4.1 3.6l-.1 1.2c-.1 1 .2 2-.3 3.1-.5 1.3-1.5 1.9-2.8 2-.5 0-.8.1-1.2.4l-6.5.5-5.1.3c-.4 0-.8.3-1.3 0-.5-.2-1.1-.1-1.6.1l-.6.1c-2.5-.1-5 .3-7.5.4-.3 0-.6-.3-.8.1-2.4.2-4.8.2-7.1.5l-3 .1c-1.6.1-3.2.4-4.8.3-1.1-.3-2.2 0-3.4.1l-1 .1c-.5 0-1 0-1.5.2s-1.1-.2-1.7 0c-.7.2-1.4.2-2.1 0-.5-.1-1.1.1-1.6.1-1.1.2-2.3-.1-3.4.1-.8.2-1.7.2-2.5.3-.8.1-1.6 0-2.3-.6l.7.1c.8.2 1.6.1 2.4-.1h.3z" class="st10"/><path fill="#ceced4" d="M75.6 73.4c-.1-.1-.1-.2 0-.2.8-.5 1-1.2 1-2.1v-5c-.2-.3-.2-.6-.2-.9v-15c.1-1.4-.1-2.7-.1-4.1 0-.3-.1-.7.4-.6.5.4.2.9.2 1.3l-.1 2.3c0 1.9.1 3.8-.1 5.7v16.4l-.1.9c0 .7-.5 1.1-1 1.3z"/><path fill="#d3d2d8" d="M29.9 76.3c.1-.4.5-.4.9-.4l7.6-.4c1-.1 2 0 3-.2.3-.1.6.3.9.1.2.3.6 0 .8.3-.8.1-1.7.3-2.5.1-.6-.2-1.3-.1-2 .1-.9.2-1.7.1-2.6.2l-6.1.2z"/><path fill="#cdccd3" d="M48.9 75.4c0-.5.3-.6.7-.6 1.8.1 3.6-.2 5.4-.3l5.4-.3c.3 0 .4.1.4.3l-7.7.5c-.8.1-1.6-.1-2.4.2l-1.8.2z"/><path fill="#c2c0c9" d="M17 76.7l6.6-.4c.3 0 .6.1.7.4l-7.3.4-.4.1c-.6.2-1.1.3-1.7 0l.2-.5c.6 0 1.2.2 1.9 0z"/><path fill="#a5a6ac" d="M43 75.7c-.3-.1-.7.2-.8-.3l3.4-.3c.9-.1 1.8-.2 2.7-.1.3 0 .4.1.2.4l-5.5.3z"/><path d="M14.9 77.1c.5.3 1.1 0 1.7.1-.3.4-.7.5-1.1.8h-.2c-.6 0-1.8-1.3-1.8-1.9l.2-.2c.3.5.8.8 1.2 1.2zM13.4 57v3.1c-.1 0-.3-.1-.2-.2.2-.7-.1-1.4-.2-2.2 0-.4.1-.6.4-.7z" class="st1"/><path d="M10.5 99a3 3 0 0 1-2.3.2l-.6-.1h-.1l.2-.2c1 .2 1.9-.1 2.8.1z" class="st18"/><path fill="#3b3a41" d="M14.9 77.1c-.5-.2-1-.5-1.2-1.1-.1-.3.1-.6-.2-.9.2-.1.2.2.4.3.3.2.4.7.7.9.1.2.4.2.4.5l-.1.3z"/><path d="M13.4 66.9c.2.2.1.4.1.5v4.2c-.3-.8-.1-1.6-.2-2.4l.1-2.3z" class="st1"/><path d="M75.6 75.3c-1 .4-2.1.2-3.1.3 1-.3 2-.4 3.1-.3z" class="st19"/><path d="M14.5 78.5c-.2.1 0 .3 0 .4h-.2c-.2-.1-.5-.1-.5-.4 0-.1 0-.3.2-.3.2-.1.3.1.5.3z" class="st1"/><path d="M76.9 74.7c-.3.4-.8.6-1.3.5.1-.4.5-.2.7-.4l.6-.1z" class="st19"/><path d="M13.5 72.3v2.3c-.1-.8-.2-1.6 0-2.3zM13.4 64.7c.2.6.2 1.1 0 1.7.1-.6-.2-1.2 0-1.7z" class="st1"/><path d="M14.6 79.2l.9.1c-.3.3-.7.6-.9-.1z" class="st20"/><path d="M72.2 75.5c-.6.3-1.1.1-1.7.1.5-.2 1.1 0 1.7-.1z" class="st19"/><path d="M18.1 79.3h.8c-.2.6-.5.2-.8 0z" class="st20"/><path fill="#f4f5f9" d="M9.5 11.3c-.2.1-.4.2-.4-.1.2-.9.6-1.6 1.2-2.2.7-.4 1.3-.8 2.1-1h.4c.4-.2.9 0 1.3-.1 3.4 0 6.7-.3 10.1-.3 2.5 0 5-.1 7.4-.3l7.2-.3c2.1 0 4.2 0 6.3-.2 3.1-.3 6.2-.3 9.3-.4l6.3-.3 9.6-.4 3.5-.1h.1c.9.3 1.8.8 2.4 1.7-.4 0-.8 0-1.1-.2l-.4-.1c-2.1.4-4.3.4-6.5.8h-1.9c-1 .2-2.1.2-3.2.2a69 69 0 0 0-6.5.3 79.4 79.4 0 0 1-9.8.6l-.8.1c-1-.4-2.1 0-3.1-.1-.6-.1-1 .5-1.6.4-2.2-.2-4.5.1-6.7.2l-3.1.1-1.8.1c-.5-.3-1 0-1.5 0h-2.1l-5.4.3c-.8.1-1.7.3-2.5 0-.2-.1-.5.1-.8.1-1 .2-2.1 0-3.1-.1-1.3-.1-2.4.4-3.4 1.2-.4.3-.8.6-1.3.6-.2-.4.2-.6.3-.9-.1.1-.2.3-.5.4z"/><path fill="#afaeb8" d="M73.7 5.4c-.9-.3-1.5-1-2.4-1.3-.9-.3-1.6-1.1-2.4-1.5-1.3-.6-2.4-1.4-3.7-2.1a4 4 0 0 0-2.1-.5h-2.5c-3.2.2-9.7.3-9.7.3L20.1.9c-2.8 0-5.6 0-8.4.2.1.3-5.7 1.3-5.7 1.7l.5.4c-.1.2.1.4.3.5l2 1.7c.8.7 1.9 1.2 2.6 2 .3.3.6.6 1.1.7H14.2l6.6-.2 6.5-.2h1.1l7.2-.3 7.2-.2h.4c2.2-.2 4.5-.4 6.8-.4l4.3-.2 3.1-.1 7.8-.3 5-.2c1.1 0 2.3 0 3.5-.2.3-.1.2-.3 0-.4z"/><path d="M76.8 45.6c-.3 0-.3.2-.3.4l.1 4.2c-.2 0-.3-.1-.4-.3 0 4-.2 8-.1 12.1l-.1 1c-.1.2-.2.4-.5.3-.2 0-.3-.3-.3-.5.1-.8-.1-1.5-.1-2.3V49.6v-5.1l.1-8V22.8 13l-.2 1.1c-.1.2-.2.3-.4.3s-.3-.2-.3-.4v-.3c-.2-.9-.7-1.3-1.7-1.3l-3.1.1c-1.1 0-2.1 0-3.1.2-1.6.4-3.2 0-4.8.4h-1.1c-1.2-.1-2.4.1-3.6.1-1.1-.1-2.1.2-3.2 0l-.9.1c-.5.2-1 .2-1.5.1-.9-.2-1.8.1-2.7.2l-3.2.1-2.8.2c-1.3.1-2.6.3-4 .1l-.5-.1c-2 .3-4 .1-6 .3-1.1.1-2.3.2-3.5.1l-1.7.3-1 .1H22.8a7 7 0 0 0-2.5-.1c-.9.2-1.8.1-2.7.2h-.9c-1.6 0-2.2.7-2.2 2.3l.1 4.4.2 5.7c0 .9-.1 1.8.1 2.7v.9c-.2 1.1 0 2.1 0 3.2l.1 3.7.2 3.2.2 3.2c.1 1-.2 1.9 0 2.8v.3c-.2 2 .2 4-.2 6v8.5l-.1.6a6 6 0 0 0 0 1.9c.1.7.1 1.5-.1 2.2-.1.3-.2.5-.1.8.3 1.2 0 2.5-.1 3.7 0 .2-.1.4-.4.3-.3-1 0-1.9-.1-2.9s-.2-2.1-.1-3.2v-4.3c.1-1 .2-2 0-3-.1-.3-.1-.7.2-1.1.4-.4 0-.9-.1-1.4v-1.4c-.1-1.2.8-2.3.5-3.5-.3-1.4.3-2.9-.2-4.3-.1-.3.2-.7.2-1-.2-.8.1-1.6-.2-2.4-.1-.3.1-.6.1-1l-.3-3v-.6c.1-.4.3-.9-.1-1.3-.2-.2.1-.5 0-.8-.2-.5 0-1-.3-1.4-.3-.5 0-1.2.1-1.7.2-.7.2-1.4-.2-2.1-.2-.4.1-.8.2-1.2.1-.4.1-.7-.1-1-.2-.3-.4-.7-.2-1.1.2-.3-.2-.7-.2-1 0-.7.4-1.4.2-2.1-.5-1.5.1-2.9-.2-4.4-.1-.6.2-1.2-.2-1.8-.1-.1 0-.2 0-.4.1-.7.2-1.4.1-2.1-.1-.4.5-1.1 1-1.2 1.1-.3 2.2-.3 3.3-.4l2-.1c1.4-.3 2.7.2 4.1 0l4.5-.3 5.4-.3 1.8-.2c.5-.4 1.1 0 1.6-.2l1.4-.1h.6c1.1 0 2.2 0 3.3-.2H46c.5.1 1 0 1.5-.1.7-.2 1.4 0 2.1-.2l1.2-.1c.9.3 1.7-.2 2.6-.1.8-.1 1.7-.3 2.5-.2 1.2.1 2.5-.1 3.7-.1l4.8-.1 2.1-.3H68.8c.7.1 1.3.1 2-.1h.5c1 .1 2 0 2.8.8.1.1.3.1.4 0 .1-.1.1-.3.2-.2.6.2 1.2 0 1.7.3v3.9c-.2 2.3.2 4.7 0 7l.1.4v13.3c-.3.5-.2 1.1-.2 1.7-.3.4-.3.9-.3 1.4 0 1.5-.1 3.1.1 4.6l.1-.8c0-.2 0-.5.3-.6.5.9.7 1.7.3 2.4z" class="st30"/><path fill="#9e9fa6" d="M77 43.3c-.2.5-.1 1-.1 1.5 0 .2 0 .4-.3.4-.2 0-.2-.2-.2-.4V40c0-.5 0-1.1.4-1.5 0-.1.1-.2.2-.1v4.9z"/><path fill="#6b6a72" d="M14.3 12.5c.6 0 1.2-.1 1.7.1-1.1.3-2.3.1-2.9 1.3-.4.2-.2-.2-.2-.3.3-.6.8-1 1.4-1.1z"/><path d="M76.9 54.9v-7.4c0-.2-.1-.4.1-.5v7.8l-.1.1z" class="st30"/><path fill="#8c8d93" d="M77 38.4l-.2.1c-.3-.5.1-1.1 0-1.6h.2v1.5z"/><path d="M24.5 10.5c-.2 0-.5.1-.7-.2.4 0 .8-.2 1 .2h-.3zM9.2 55.3c.3 0 .4.2.3.5-.3 1 0 1.9.1 2.9L9.4 60l-.1 2.2c-.2.8.2 1.6.4 2.4.1.4.3.7-.3.9-.2.1-.1.4-.1.7-.3-.2-.2-.6-.2-.8.1-1.2 0-2.4-.1-3.5-.1-.8.1-1.6.1-2.3l.1-4.3zM9.4 52l.4 2.1c0 .3-.2.6-.5.6-.3-.9-.4-1.8.1-2.7z" class="st4"/><path fill="#b9b9c5" d="M9.4 42.2c0-3.1.4-30.2-.2-30.2-.7.1-1.4-.4-1.8-.7-.3-.3-.9-.2-.9-.8-.1-.7-.6-1.3-1.2-1.7-.6-.4-1.3-.7-1.6-1.5-.1-.3-.4-.5-.7-.7-.4-.2-.7-.2-.9.3v1l.2 8.6.2 7.5c-.1 3 .2 6 .1 9 .2.4.2.9 0 1.3v.7c0 3.4.1 6.8-.1 10.2.2.2.1.4.1.7v4.6c0 .9.4 1.3 1 1.3h1.3c.9.1 1.7 0 2.5-.4.6-.4 1.3-.4 1.9 0v-4.2c.2-1.7.2-3.4.1-5z"/><path fill="#c2c2cc" d="M2.7 33c.3.4.5.9 0 1.3V33z"/><path d="M69.5 79.8c-.3-.5-.1-1.1-.2-1.6-.3-.7-.8-1.2-1.6-1-.8.2-1.7.2-2.5.2l-5.1.2c-.7 0-1.4.3-2.2.2.5-.4 1.1-.3 1.7-.4 1.3-.2 2.7-.3 4.1-.3 1.3 0 2.6-.1 3.8-.3 1.1-.2 1.9.5 2 1.4.1.6.4 1.1 0 1.6z" class="st10"/><path d="M.3 9.9V7.1c0-.1 0-.3.2-.3l.3.2c.2.7.5 1.3.1 1.9-.2.3 0 .8-.6 1z" class="st4"/><path d="M76.1 49.1c.1.6-.1 1-.1 1.5v1.3l.1 1.8c-.2 1.9 0 3.9-.1 5.8v3.1c0 .3-.1.5-.4.5-.2 0-.2-.3-.1-.5 0-.1.1-.2 0-.4-.2-2-.1-4.1-.2-6.1-.1-1.3 0-2.6.1-3.9v-4.3-5.1c.2-2.9 0-5.8 0-8.7V22.7l-.1-.7c0-.1 0-.3-.2-.3s-.2.2-.2.3c-.2.7-.2 1.5-.1 2.2v-.3c-.1-2.5-.2-4.9-.1-7.4 0-1.2-.3-2.4-.4-3.5l-.2-.3c-.5 0-1-.4-1.5-.4-1.4 0-2.7.3-4.1 0H68c-.6.2-1.3.2-2 .3-1 .2-2.1 0-3.1.2-.5.1-1.1.3-1.5.2-1.1-.2-2.1.1-3.1 0-1.2-.1-2.5-.1-3.7.1h-.9a.9.9 0 0 0-.7 0 3 3 0 0 1-2.3.2c-.3-.1-.5 0-.8 0-1.1.2-2.1.4-3.2.2-1.3-.1-2.6.3-3.9.2-1-.1-2 .1-3 .1h-4.3c-1.6 0-3.3.4-4.9.1l-.4.1c-.5.2-1 .3-1.6.1-.2-.1-.4.1-.6.1-.9.2-1.7.4-2.6.4-1.2-.1-2.4.1-3.5-.3h-.6c-1.4.2-2.9.3-4.4.2-1.7-.1-2.2 1-2.2 2.3v2.3l.1 5.3c0 1 .2 1.9.1 2.9-.1.8.1 1.6.1 2.4v.9c-.2 1.4 0 2.9.1 4.3.1 1.6-.1 3.2.2 4.9l.2 1.9c-.1.9.1 1.8.1 2.8v2.7c0 .8-.2 1.6 0 2.5a9 9 0 0 1-.1 2.3c-.2 1.1-.1 2.2-.1 3.4v.1l.1.7.1.2c0 2.4.1 4.8-.2 7.2l.1.5c.2.6.1 1.2 0 1.8v2.5c0 .2-.1 1.8.2 1.9.3.1.3-2.4.3-2.7.1-1.5-.1-3.1.2-4.6 0-.3.2-.5.1-.8-.2-.5 0-1.1-.1-1.6-.1-.7.2-1.4 0-2.1-.3-.9 0-1.8 0-2.7 0-.4 0-.9.2-1.2.3-.4.3-.9.3-1.3.1-.8.1-.8 1-.9.8-.1 1.6 0 2.4-.3.3-.1.9 0 1 .3.3.8.6.4.9.1.5-.4 1-.7 1.7-.4h.7c.6-.3 1.1-.3 1.8-.3.8 0 1.5-.6 2.4-.3.2.1.5 0 .7-.1.6-.2 1.2-.2 1.8-.1.4.1.6-.1.9-.1.6-.2 1.2-.6 2-.2 1 .5 2.1.1 3.2-.1h1.2c.5.1.9.5 1.4.3.7-.2 1.3-.5 2.1-.4.3 0 .7-.3 1 .1.4-.2.7-.4 1.2-.3l.6.1c.2.2.4.2.7 0 .2-.2.4-.1.6-.1 1-.2 2 .1 2.9-.5.2-.1.6-.1.8 0 .9.4 1.9.1 2.8.6.1.1.3 0 .3-.1.3-.4.7-.4 1-.5.4-.1 1-.3 1.1.5.1.4.5.2.8.2.3 0 .3-.2.3-.5-.1-.4.1-.5.5-.4.9.2 1.9.2 2.8 0 .7-.2 1.5-.3 2.1.4.2.2.5.3.7.1.7-.8 1.6.2 2.3-.1l.1.1c.6.7.9.7 1.4-.1.1-.2.3-.4.6-.5.4-.2.6-.5.7-.9l.2-.4c.4-.2.3-.4.2-.8-.1-.2-.2-.4 0-.5.2-.1.3.2.5.3l.1.4c.1.4.5.5.7.2.3-.4.6-.5 1.1-.6 0-.3-.3-.3-.4-.4-.1-.1-.3-.1-.3-.3 0-.2.2-.2.4-.3.3-.1.3.1.4.2.1.2.3.4.5.2.5-.5 1.2-.2 1.7-.3.6 0 1.3-.1.8.9v.1c.3.7 0 1.4-.4 2 .2.1.7-.2.6.2-.3.6-.2 1 .2 1.5v.2c-.2.5-.4 1-.4 1.5 0 .3-.2.5-.5.2-.2-.2-.4-.4-.8-.4l-.4-.2c-.3-.5-.5-.5-1.1-.2h-.1l-1.7 1c-.5.3-.7.9-1 1.4V56c.1.7-.1 1.4.2 2.1l-.2.6c-.2.4 0 .7.3.9.4.2.8.3 1.1-.1.4-.7 1.1-.5 1.7-.5.2 0 .5-.1.7.1.2.2-.3.3-.1.6h2.2c.3 0 .6.1.6.5l.1 2.3c0 1.9-.1 3.9.2 5.8 0 .2-.1.6.2.6.3.1.3-.3.4-.5l.1-.1c.4.2.4.5.3.8-.2.5 0 1 0 1.5 0 .1 0 .2.2.2l.2-.2.1-.8c.1-1.1.2-2.3.1-3.4 0-.3 0-.7.5-.7v-16c-.2.2.1-.3-.3-.6zm-10-2.3L66 48c-.5.6-1.2.4-1.8.4H64l-1.4.1h-.2c-1.4.3-2.8.2-4.2.3-1.3.2-2.6.2-3.9.2-.9 0-1.9-.1-2.8.2a1 1 0 0 1-.9.1c-.6-.2-1.2-.1-1.9 0-1.3.2-2.6.7-4 .5l-.8.1-3.8.2c-1 0-2.1 0-3.1.2-.8.2-1.6-.1-2.4 0-1.2.2-2.4.1-3.6.2-.6.1-1.2.3-1.7.2-1.2-.1-2.4.1-3.6.2-1 .1-2.1 0-3.1.2-1.5.3-3 .2-4.5.1H18l-.4-.1c-.3-.1-.6-.3-.6-.8l-.1-1.4c-.1-.5 0-1 .7-1.1l.1-.5c-.1-.3 0-.8-.4-.9-.4-.1-.4-.4-.4-.8v-4.1c0-.7 0-1.5.6-2l.4-.1c1-.2 2-.6 3.1-.3h.2c.7-.2 1.3-.2 2-.2l.5-.1c.4-.1.7-.3 1.1-.1h.6c.7 0 1.4-.3 2.1-.1h.4c.9-.1 1.9-.2 2.8-.1h.3c1.1 0 2.1-.2 3.2-.1l.6-.1c.8-.5 1.6-.1 2.4-.2h.7c1.3-.1 2.7-.4 4-.3h.3c.3-.1.5-.4.8-.3.4.2.9.1 1.3.1h.3a1 1 0 0 1 1.1 0h1.7c.7 0 .8.2.8.9 0 .4-.2.4-.5.5-.6.2-1.1.3-1.6.7 1.3.3 2.5 0 3.7 0 .4-.4.1-.8.1-1.2-.1-.8.1-.9.8-1l4.2-.2.5-.1 2.1-.1c2.4 0 4.7-.3 7.1-.3l.5-.1c.7-.1.8-.1.9.6.2 1.1.2 2.1.2 3.2l-.1 6.3zm3.4-1.7c-.6.2-.8 0-.9-.5-.1-.3-.2-.6-.1-1 .3-1 .1-2 .2-3 0-.5.1-.8.6-1.1.3-.2.6-.3 1-.1l.2.1c.4.2.6.6.7 1 .2.5.4.8 1 1l.5.2.4.1c.4.7.5 1.4.5 2.1-.1 1.1-.3 1.3-1.4 1h-.3c-.4.3-1 .1-1.4.4-.4-.2-.7-.3-1-.2zM74 59.3c-.6.2-.9.1-1.2-.4l-.6-.1-.6.2c-1.5.3-2.7-.1-3.1-1.7l-.1-.4-.2-.1v-.7c0-1 .6-1.6 1.4-2.1h.7c.6-.2 1.3-.2 1.9.2.2.3.7.4.7.8l-.2.3c-.1.4-.1.7.2 1 .2.1.4 0 .5.2.1.2-.1.2-.3.3-.8.3-.8.5-.3 1.2l.1.3c.1.2.1.4.4.5h.6c.2 0 .3 0 .3.2.1.1 0 .2-.2.3z" class="st36"/><path d="M15.4 55.5c.3.2 0 .7.3.9v5c0 1.1-.2 2.2 0 3.3.1 1 0 2-.1 3.1l.1.5.2 2.5c-.1 1.1-.4 2.2-.2 3.3.1.3-.1.7-.3.9-.4.5-.5 1-.2 1.5-.3.2-.4-.1-.7-.1-.4-.2-.5-.6-.7-1l.1-5.3h.2c.2 1.3-.1 2.6.4 4 .5-1.1.2-2 .4-3 .5-.3.2-.9.3-1.3l.1-1.5c0-.4 0-.8-.2-1.2l-.1-.4c.5-1.1.4-2.1.1-3.2-.1-.3.1-.6.1-.8.3-2.4.1-4.8.2-7.2z" class="st37"/><path fill="#dad9e2" d="M54.8 68.5c-.3.6-.9.3-1.4.4h-1.5c-.3 0-.7.1-.8-.4 0-.2-.1-.1-.2-.1h-.3c-.4-.7-1-.4-1.5-.2h-.4c-.4-.1-.7-.1-.8.4-.1.2-.3.5-.6.1.2-.7.1-1.5 0-2.2.4 0 .6.1.7.5 0 .2.2.4.4.5.3.3.3.3 1.1.2-.3-.1-.6.1-.8-.2.3-.3.7-.1 1-.1.5 0 .7-.2.7-.7 0-.6.5-1 1-.7-.1.1-.3.3-.2.5.2.6.1 1.2.1 1.8l.1-2.3c.6.3 1-.3 1.6-.1.1.2-.1.3-.2.4.1.1.2-.1.3-.1.2-.1.4-.1.6.1.2.2.2.4.1.7l-.7 1.1-.2.4c.1.2.3.1.5.1h.6c.3-.1.5-.3.8-.1z"/><path fill="#d1cfd9" d="M42.7 66.5c.4.2.8.2 1.1-.1.3-.2.6-.2.8 0 .5.4.8.2 1.2 0 .3-.2.6-.5 1-.2l-.7.4c-.4.3-.5 1-.3 1.6.1.3.4.5.3.9l-.3.1c-.5-.3-.9 0-1.4 0 0-.8.2-1.6-.1-2.5.3.8.1 1.6.1 2.4-.5-.3-.2-.7-.3-1.1-.1-.2.1-.5-.1-.7-.3-.3-.7-.1-.8.3l-.1 1c0 .3 0 .6-.4.6-.2-.9-.1-1.8 0-2.7z"/><path d="M54.8 68.5c-.3 0-.5.2-.8.1 0-.2 0-.3-.2-.4-.4-.1-.4-.4-.2-.6.4-.5.6-1.1.6-1.7.2-.1.5-.2.7-.1l.8.1c.6 0 .7.2.4.7l-.7 1.2c-.1.1-.1.2.1.2l.1.1c-.1.6-.4.5-.8.4z" class="st21"/><path d="M69.4 65.1c.5.1 1 .5 1.2-.3.1-.3.4-.2.4 0 .2.9.9.8 1.6.7l.7.1c.1.1.1.2-.1.3-.4-.1-.7-.2-1 0 .6.6-.3.9-.3 1.3.3.2.7 0 1 .2v.2l-1.8.1c-.2 0-.4 0-.4-.2.2-.5.3-.9.1-1.9-.3.4-1 .6-1.4.3-.2-.3-.2-.6 0-.8z" class="st40"/><path d="M55.6 68.1h-.1a.3.3 0 0 1 0-.4l1.3-2c.3 0 .5.1.7-.1.4.8.8 1.6 1 2.5l-.1.2c-.7.2-.9-.4-1.1-.8-.2-.6-.5-.4-.8-.2-.3.2-.6.3-.6.7l-.3.1z" class="st41"/><path fill="#28272c" d="M29.8 67.4c.3-.3.7-.3 1.1-.1.4.2.3.6.2.9 0 .1-.1.2 0 .4.4.5.2.9-.2 1.3s-.8.3-1.2 0c-.2-.1-.3-.3-.3-.6v-1.4c-.1-.2.2-.3.4-.5z"/><path d="M64.1 67.3c-.5-.6 0-1.1.3-1.5l.5-.6c.3-.3.5-.4.8 0 .1.3.4.3.6.1.1-.1.2-.3.4-.2.1.2 0 .3-.1.5a2 2 0 0 0 .2 1.8c.1.1.2.2 0 .3-.7 0-1.3.3-2.1.2.1-.2.3-.2.5-.3.6-.4.7-.8.1-1.3-.3-.3-.3-.3-.2-.9-.4.7-.8 1.2-1 1.9z" class="st43"/><path fill="#302f35" d="M69.4 65.1c0 .3-.2.6.3.7.7.1.8 0 1.1-1 .3.4.2.8.3 1.2v1.2c0 .3-.1.4-.4.3l-.2-.6c-.1-.3-.2-.4-.5-.4s-.4.2-.4.4l-.1.5c-.1.2-.2.4-.5.2-.6-.9-.3-1.8 0-2.7.2-.1.4 0 .4.2z"/><path fill="#353439" d="M66.9 67.7c-.8-.8-.8-1.7-.2-2.6.4-.4.8-.3 1.3 0 .9.8.8 1.9-.3 2.6-.3-.1-.5.3-.8 0z"/><path fill="#39383f" d="M64.1 67.3c0-1 .7-1.5 1.2-2.2.1.3-.1.4-.1.5-.1.2-.2.4.1.4.5.2.8.5.7 1-.1.5-.5.7-.9.8l-.2.1c-.6.1-.5-.4-.8-.6z"/><path fill="#d3d2d9" d="M59.7 65.6c.2.2.2.5 0 .7-.2.3 0 .5.1.6.2.2.3 0 .5-.1s.5-.3.7 0l-.5.4c.6-.3 1.3.6 1.7-.3.2 0 .4.2.4.4s-.2.2-.4.3c-.6.2-1.2.1-1.8.1-.7-.1-1.1.1-1.5.6-.1.2-.4.4-.5 0 .4-.6.5-1.4.9-2 .2-.4.2-.6.4-.7z"/><path fill="#3a393f" d="M46.2 69c-.3-.5-.7-.9-.6-1.6.1-.8.4-1.2 1.3-1.3l.4.4c.4.7.4 1.5 0 2.2-.3.2-.6.6-1.1.3z"/><path fill="#434248" d="M54.1 65.9c.3.5.2.9-.1 1.4-.2.2-.4.4-.5.8.3.2.7-.1.8.3.1.2-.2.2-.4.3h-.2c-.4 0-.9.3-1.1-.1-.2-.3.3-.6.5-.9l.6-.9c.1-.1.1-.4-.1-.5-.2-.1-.4-.2-.5 0-.2.1-.3.6-.6.3-.2-.3.2-.5.4-.7.5-.2.9-.2 1.2 0z"/><path d="M29.8 67.4c-.2.3-.3.5-.1.9.1.1.2.3 0 .5-.3.4-.2.8 0 1.1-.3.3-.7.3-1.1.3.2-.6 0-1.2 0-1.8 0-.3-.1-.4-.3-.6 0-.3.1-.5.4-.6.1 1 .6.3 1.1.2z" class="st50"/><path fill="#252429" d="M28.2 67.8c.2-.1.4-.2.5.2.1.5-.1 1.1.3 1.6.1.1-.2.4-.4.6-.4-.4-.8-.3-1.3-.3-.3-.1-.2-.3-.1-.5l1-1.6z"/><path d="M67.7 67.7c.9-.8.8-1.7.3-2.6.4 0 .8.2 1.1-.3 0 .9-.2 1.8 0 2.7l-1.4.2z" class="st43"/><path fill="#313037" d="M59.5 66.1l-.7 1.6c-.1.2-.1.4-.4.3-.3-.9-.9-1.6-1-2.6.4 0 .4.4.6.6.6.7.6.7 1.1-.2v-.1c.1-.2.2-.6.4-.5.3.4 0 .7 0 .9z"/><path fill="#3e3d43" d="M56.7 65.6c-.2.8-.8 1.3-1.1 2l-.2.5c-.1.1-.2.4-.4.2s0-.4.1-.5l.8-1.4c.2-.3.1-.5-.3-.4-.3 0-.7.3-.8-.2l.5-.1c.5-.2.9-.3 1.4-.1z"/><path d="M69 67.5c.5.1.4-.3.4-.5-.1-.7.3-.8.8-.8.3 0 .4.1.4.4v.8c-.4-.4-.8-.1-1.1.1-.1.2-.3.3-.5 0z" class="st40"/><path d="M72.9 67.5v-.1-.1c-.1-.3-.7-.1-.5-.6.1-.4.3-.8.8-.9l.1-.3c.2 0 .4.1.4.3l-.1 1.4c.1.4-.4.3-.7.3z" class="st36"/><path fill="#3d3c42" d="M35.2 68.1v.7c0 .3.1.5.4.4.1 0 .3 0 .4.2 0 .2-.2.2-.3.2-.6.2-.9 0-.8-.7v-1.4c0-.2-.1-.5.2-.5.2 0 .2.3.2.5l-.1.6z"/><path fill="#25242c" d="M42.7 66.5c.2.9.1 1.8.1 2.7-.3 0-.3-.2-.3-.5v-1.4c0-.3 0-.6-.4-.6.2-.3.4-.2.6-.2z"/><path fill="#45444a" d="M62.3 66.8c-.1.6-.3.8-.9.5-.3-.1-.6-.3-.9 0-.1.1-.2.1-.2 0V67c.2-.1.4-.3.7-.3.5.4.9.3 1.3.1z"/><path fill="#bcbbc3" d="M59.5 66.1v-.6c-.4.3-.4.8-.7 1.1-.1.1-.1.4-.3.4-.3 0-.2-.2-.3-.4l-.2-.5c.5.2.9.1 1.1-.5.1-.3.3-.7.6-.1 0 .3 0 .5-.2.6z"/><path fill="#706f76" d="M48.7 67.4H50v.2c-.5.3-1 .2-1.5.3-.1 0-.4-.2-.1-.4l.3-.1z"/><path d="M28.2 67.8l-.7 1.3c-.1.2-.5.5-.2.8-.2 0-.5 0-.3-.3.3-.6.6-1.3 1.2-1.8z" class="st50"/><path d="M14.5 76.5l.7.1c.6.3 1.2.1 1.8.1-.6.3-1.3 0-2 .1l-.5-.3z" class="st21"/><path fill="#8d8c93" d="M33.4 68.6c0 .2-.1.2-.2.2-.2 0-.4.1-.4-.1-.1-.2.1-.2.3-.3 0 .1.2 0 .3.2z"/><path d="M56.7 65.6h-1.4c.4-.3.9-.1 1.3-.2l.1.2z" class="st41"/><path d="M9.4 47.1v-5l.1.3v4.3l-.1.4zM9.5 11.3c.3-.3.4-.7.9-.9 0 .6-.6.8-.6 1.3-.2.1-.2.5-.5.6-.1-.4.2-.7.2-1zM9.2 24.9c-.3-.4-.1-.8-.1-1.2-.1-.2-.2-.3 0-.5.3.5.1 1.1.1 1.7z" class="st4"/><path d="M29.3 9.3c-3.2.1-6.4.1-9.6.4h-1.8a7 7 0 0 1-2.9 0c-1.6-.3-3 .3-4.2 1.3l-1 .5c-.2.1-.3.1-.4.4 0-.2.2-.3.1-.5s-.3-.1-.5-.2l-.1.1v1.8c-.4.8-.2 1.7-.1 2.6l.1 1.5c-.2.5.1 1.1.1 1.6v12c0 .3.3 29.3.2 30.9 0 .8.2 10.2.1 10.7-.1.4.2.9 0 1.3l2.6 2.9c.2-.1.3-.3.2-.4-.4-.6 0-1.3-.1-2-.2-1.2-.1-2.3-.1-3.5-.1-4.8.1-9.6-.1-14.4v-7.2l-.1-3.4-.1-11.1-.2-8.2-.1-4.6-.2-7.5c0-1.7 1.8-3.3 3.3-3.4 1.8-.1 3.5-.2 5.3-.1l4.4-.2.4-.1-.3-.1.5.1h.9c0-.1 0-.3.2-.3l1.3-.4c.9-.1 1.8 0 2.7-.2 0-.4-.2-.3-.5-.3zM24 10.4h.1-.1c0 .1-.1 0 0 0z" class="st4"/><path d="M9 16.4v-.7c.3.5.1 1 .1 1.4-.2-.2-.1-.4-.1-.7z" class="st4"/><path fill="#abaab3" d="M13.6 61.3v-4.9c.2.8.3 4.1 0 4.9z"/><path d="M75.4 22.7l-.3-.9c-.2.8-.4 1.6-.1 2.4v.4l-.2.3-.2-.3c.1-1.2 0-2.3-.1-3.5-.2-1.5 0-2.9 0-4.3l-.2-3.4c0-.3-.1-.5-.5-.6-1.4-.4-2.9-.1-4.3 0h-.4c-.5-.3-1-.3-1.4 0-.7.4-1.4 0-2 .2-1 .3-1.9-.2-2.9.1-1.1.4-2.3-.1-3.4.4-.3.1-.6-.2-.9-.2-1.3.1-2.7-.1-4 .2l-.6-.1c-.3-.1-.7-.1-.9.1-.4.4-.9.4-1.3.3-.8-.2-1.5-.1-2.2 0-.8.2-1.6.1-2.4.1-.8 0-1.7 0-2.5.3h-1c-.6-.1-1.3-.2-1.9-.1-1.3.2-2.5 0-3.8.1-1.8.1-3.6 0-5.4.2a2 2 0 0 1-1.3-.1c-.2-.1-.5-.1-.8.1-.3.2-.6.2-1 .1-.9-.2-1.7.2-2.6.4-.4.1-.7.2-1.1 0h-.1c-1.4.3-2.7-.2-4-.2l-5.1.3c-.8 0-1.5 1.1-1.5 2.2l.1 4 .1 4.2.1 4.6c-.2-.5-.3-1.1-.3-1.6.1-1.4 0-2.8-.1-4.2l-.1-4.8v-2.1c-.1-.6.2-1.1.1-1.7 0-.2.2-.3.3-.4.7-.2 1.4-.5 2.1-.4 1.2.1 2.5 0 3.7-.2a3 3 0 0 1 1.6.1c1 .4 2-.1 3 0s1.8-.3 2.7-.3c1 0 1.9-.3 2.9-.1 1.1.2 2.1-.1 3.2-.1.7 0 1.4-.3 2 0h.4c.7-.2 1.5-.3 2.2-.1 1.1.2 2.3 0 3.4-.1.9 0 1.8 0 2.7-.2h1.7c1.1 0 2.2-.2 3.2-.4.5-.1 1.1.1 1.6.1h.7c.5-.2 1.1-.3 1.6-.2.4.1.9-.1 1.3-.1 1.3.1 2.6 0 3.9-.1.5-.1.9.1 1.4.1 2.5-.1 4.9-.3 7.3-.6 1.3-.1 2.7-.3 4.1-.1l1.7.3c.4.1.7.3.6.8 0 .3-.1.9.3.9.3 0 .2-.6.3-.9 0-.1 0-.3.2-.5.2.1.2.4.2.6v4.1c.2 1.4.2 3.1.2 4.9zM15.1 30.8l.3 8.4.2 2.3c0 .9.2 1.7.1 2.5v2.9 3.8l-.2 3.4-.1 1.2c-.2-.2-.1-.4-.1-.7 0-1.6.4-3.1.2-4.7-.2-1.2.1-2.4 0-3.6v-2.7l-.1-2.7-.2-3.5-.1-2.4v-4.2c-.1.1 0 0 0 0z" class="st37"/><path d="M44.7 13.1c.2-.2.5-.3.8-.3h2.3c.4 0 1 .1.9-.6l.2-.1.2.2c-.3.7.3.4.5.5h.5l-.3.2c-1.3-.2-2.7.5-4 .1-.4-.2-.7 0-1.1 0zM39.7 13.3c1.1-.3 2.3-.3 3.4-.3l-.4.2-2.7.1h-.3zM51.4 12.7c.8-.1 1.6-.4 2.5-.1-.9 0-1.7.4-2.5.1zM37.8 13.4c.5-.3 1-.1 1.4-.1-.5.2-1 0-1.4.1z" class="st21"/><path d="M45.6 37.5h2.1c.4 0 .7.2.6.6-.1.4.3 1-.5 1.1-.6 0-1.1.4-1.7.4 1.2.1 2.4-.1 3.6-.1 1.1-.2 2.2-.5 3.3-.1 0 .4-.4.3-.6.3l-5.7.3c-2.1.2-4.3.2-6.4.3l-5.7.3-5.9.3-3.8.2-1.4.1c-.8.1-1.6-.1-2.4.1h-1.6c-.3 0-.6-.1-.6-.4 0-.3.2-.5.5-.5l2.2-.2 7.6-.5 6.1-.3 7.4-.4 4.5-.3c.2 0 .5 0 .6-.2v-.6c-.1-.2-.3-.2-.5-.2l-2.7.1-.1-.2c.3-.2.7-.1 1.1-.1z" class="st61"/><path d="M18.1 51.3l-.4-.1c-.4 0-.8-.2-.8-.6l-.1-2.5c0-.7.5-.2.8-.3.3.4.2.9.2 1.3v.1c-.4 1.4.1 2 1.5 1.8 2.2-.3 4.5-.3 6.7-.5 1.8-.1 3.6-.4 5.4-.4l5.3-.2 8.1-.4c1.2 0 2.4-.2 3.6-.5l.4-.1c.4-.4.7-.4 1 .1.2.2.4.2.7.2.5 0 .9.1 1.4.3-.3.3-.6.3-.9.2-1.2-.5-2.4.1-3.6.3H46c-1.6 0-3.3.1-4.9.3-.7.1-1.4-.1-2.1-.1-1.1 0-2.2.4-3.3.2-.9-.2-1.9.2-2.8.1-.8-.1-1.5 0-2.2.1-1.1.2-2.2 0-3.3.2-.8.2-1.7.2-2.5.2-1.8 0-3.6.6-5.4.3-.4 0-.9.4-1.4 0z" class="st37"/><path fill="#a9a9b6" d="M24 21.8c1.6-1 3.8-.9 5 .4 1.1 1.3 1.9 2.7 1.2 4.6v.4a2 2 0 0 1-.9 1.4h-.1v-.3c.3-.3.4-.8.6-1.1-.2.1-.3.4-.6.2-.1-.6.4-1.2.4-1.8-.1.8-.8 1.2-1.3 1.7-.2 0-.2-.2-.3-.3-.4-.3-.4-.5.1-.6.3-.1.3-.3.1-.4-.4-.4 0-.9 0-1.3 0-.2.2-.3.4-.1.1.1.2.3.5.2 0-.4-.1-.8-.4-1.1l-1.1-.7c-.5-.2-.9-.5-1.5-.5-.3 0-.5-.1-.5-.3-.1-.3.2-.4.4-.5l.7-.2c-.7-.1-.8-.1-1.2.4-.4.1-.5.2-.7.1-.2-.2-.5-.1-.8-.2z"/><path d="M28.1 29.4c-2.6 1.5-5.6-.7-6.1-2.7-.3-1.2-.4-2.4.5-3.4.2.2.1.4 0 .6-.2.3-.2.7-.2 1.1.4-.4 1.1 0 1.3.6l.1.9.4.9c.2.4.6.5 1 .8.2.2.5.3.6.6.3.5.7.4 1.2.4.4-.1.8-.1 1.2.2z" class="st63"/><path fill="#878793" d="M23.6 26.5c-.2-.2-.2-.4-.1-.5.1-.6-.3-.9-.7-1.1-.4-.2-.2.5-.6.3 0-.4-.2-.9.2-1.3l.2-.6c.4-.6.9-1 1.4-1.4.3.1.7-.4.9.3.1-.8.9-1 1.9-.7-.3.2-.5.4-.9.3-.2 0-.5.1-.5.4 0 .3.3.4.5.1 0 0 .1-.1.1 0 .3.5 1 .2 1.3.7-.1.2-.3.2-.5.2-1.8-.2-3.2 1.2-3.2 3.1.1 0 .1.1 0 .2z"/><path fill="#bebeca" d="M54.8 37.1h.5c.7-.2 1.5.1 2.2-.1l7.7-.4c.5 0 .7.1.8.6.3 1.2.3 2.5.2 3.7l.1 2.7-.1 4.3c0 .2-.2.1-.3.1-.5.4-1.2.3-1.8.4H64l-1.4.1h-.1l-1.8.1c-.2 0-.5.1-.7-.2l.1-.2c1-.3 2.1-.2 3.2-.3l1.8-.1c.7-.1.8-.1.8-.9v-6-3.3c0-.7-.1-.7-.8-.7l-4 .2-5.5.2-.5-.1c-.4 0-.4 0-.3-.1z"/><path d="M54.8 37.1v.1c-.2.3-.5.3-.8.3l-3.1.1c-.8 0-.9.3-.7 1.1.6.3 1.2.1 1.8.1l.8-.1c2.3 0 4.7-.2 7-.4h1.9c.3.2.6.2.9.2.2 0 .5 0 .4.3-1 .2-2 .3-3.1.3l-1.1.1c-1.6.2-3.3.3-5 .3-.3 0-.6 0-.9-.2-1.1-.2-2.2.2-3.3.1-.1-.5 0-1-.3-1.5-.2-.3.1-.4.3-.6.4-.3.9-.3 1.3-.3l3.9.1z" class="st66"/><path d="M17.3 39.4v-.1h.4c1-.2 2.1-.4 3.1-.2h.1c.7-.2 1.4-.1 2.1-.2h.5l1-.1h.7l2.1-.1h.4c.2-.2.5-.1.7-.1.7.1 1.3-.1 2-.1h.3v.2c-.7.4-1.6.3-2.4.3-3.3.1-6.7.5-10 .7-.4 0-.6.2-.6.6v5.6c0 .3.1.7-.1.9l-.2.1c-.4-1-.3-2.1-.3-3.2v-3.4l.2-.9z" class="st67"/><path d="M60 48.6c.8.1 1.7-.2 2.5 0-.6.2-1.3.3-2 .2-1.1-.1-2.1.2-3.1.2-1.5 0-3.1.3-4.6.2l-1.2.1-1.7-.1h-.2a2 2 0 0 0-1.3-.1c.1-.8.6-1.2 1-.8.8.7 1.7.7 2.6.5l2.5-.2 4.6-.3c.3.1.6 0 .9.3z" class="st68"/><path d="M69.3 39.4c.3-.4.7-.3 1.1-.2l-.2.2c-.5.1-.6.4-.6.9v3.8l-.1.7-.1.2c-.4.3-.6.2-.8-.3l-.1-.9c.1-1 .2-2 .1-3 0-.6.2-1 .7-1.4z" class="st69"/><path d="M69.3 39.4c0 .5-.5.6-.5 1.2v3.5c0 .3-.2 1 .6.8l1.9-.3c.2 0 .5-.1.5.3-.4.4-1 .4-1.6.4-.2 0-.4-.2-.6-.1-.8.3-.9.3-1.1-.6-.1-.5-.2-1 0-1.5.2-.9 0-1.8.1-2.7 0-.5.1-.9.7-1z" class="st30"/><path fill="#84868f" d="M28.1 29.4l-2-.1c-.3-.1-.5-.2-.5-.5.1-.2.3-.2.5-.1.5.2 1.1.1 1.6-.1.6-.2 1-.8 1.5-1.1l.7-.5c0 .7-.5 1.1-.7 1.6l-1.1.8z"/><path d="M30.8 38.5v-.1l3.4-.2.6-.1c.8-.3 1.6 0 2.4-.1h.8l.2-.1 3.9-.2h.3c.4-.2.7-.2 1.1-.1h1.3s.1.1 0 .1l-.1.1c-.3.2-.6.2-.8.2-1.3.2-2.6.1-4 .2a230.5 230.5 0 0 1-9.1.3z" class="st61"/><path d="M71.6 59c-1.3.4-2.8 0-3.3-1.5-.1-.2 0-.6-.4-.7V56a3 3 0 0 1 1.6-2.1c.8-.1 1.5-.4 2.3-.1.2.1.4.1.4.3l-.4.1-.6-.1c-1.8-.3-3.1 1.2-2.6 3l.1.4a2 2 0 0 0 2 1.3c.4.1.7 0 .9.2z" class="st71"/><path d="M72.8 41.5c.7.5.7 1.2.7 2v.5c.1 1-.6 1.4-1.5 1v-.1c.7-.4.7-1 .7-1.7l-.2-1.4c0-.1-.1-.3 0-.4l.3.1z" class="st30"/><path d="M29.2 28.6l.9-1.4c.2-.1.2-.4.4-.4.2.6-.2 1.1-.4 1.6L29 29.7c-.2.2-.4.3-.6.1-.2-.2.1-.3.2-.5.3-.4.6-.4.6-.7z" class="st19"/><path d="M70.5 39.3c.6.1.7.6.8 1.1.1.5.4.8.9.9-.8.4-1.2.2-1.5-.7-.2-.4-.4-.9-.2-1.3z" class="st30"/><path d="M70.5 39.3l.3 1.2c.1.7.4.8 1 .7h.4l.4.1.1.3c-.6 0-1.3-.2-1.9 0-.2.1-.4-.1-.4-.3-.1-.7-.3-1.4-.1-2.1l.1-.1.1.2z" class="st69"/><path d="M41.9 37.7l-.3.1-3.8.1.1-.1c1.2 0 2.4-.3 3.7-.3l.3.2z" class="st37"/><path d="M69.5 53.9c-.7.6-1.2 1.3-1.6 2.1.1-.9.8-1.9 1.6-2.1z" class="st36"/><path d="M20.9 39l-3.1.2c1-.2 2-.6 3.1-.2zM37.1 38c-.8.2-1.6.1-2.4.1.1-.1.1-.2.3-.2.7-.1 1.4 0 2.1.1zM30.6 38.4c-.9.3-1.8.1-2.7.1.1-.1.2-.3.3-.2.7.2 1.4 0 2.1 0 .1-.1.2 0 .3.1zM44.3 37.6c-.7.2-1.4.1-2.1.1.3-.3.7-.5 1.1-.2.3.2.6.1.8-.1.3-.1.2.1.2.2zM27.4 38.5a5 5 0 0 1-2.1.1c.7-.1 1.4-.3 2.1-.1z" class="st37"/><path d="M64.2 48.4L66 48c0 .3-.3.3-.4.3-.5.2-.9.3-1.4.1z" class="st68"/><path d="M22.7 28.5l.8.5c.1 0 .2.1.1.3h-.3l-.7-.6.1-.2z" class="st19"/><path d="M23.1 38.8c-.7.2-1.4.2-2.1.2.7-.4 1.4-.2 2.1-.2z" class="st37"/><path d="M57.5 36.9c-.7.3-1.5.1-2.2.1.7-.2 1.5 0 2.2-.1z" class="st66"/><path d="M62.6 48.6c.5-.1.9-.3 1.4-.1-.4.2-.9.1-1.4.1z" class="st68"/><path d="M65.7 49.6c-.1.3-.2.5-.5.5l-.2-.2c.2-.3.4-.4.7-.3z" class="st19"/><path d="M44.6 37.7s0-.1 0 0c.3-.4.6-.4 1-.2-.3.2-.7.1-1 .2zM24.7 38.6c-.3.1-.7.3-1 .1.3-.2.6-.3 1-.1z" class="st37"/><path d="M39.5 51l-.2.2a.2.2 0 0 1-.2-.2l.2-.1c.1-.1.2-.1.2.1z" class="st19"/><path d="M44.7 49.5c-.6.2-1.3.2-1.9.3-1.3 0-2.6-.1-3.8.2h-1.9l-4.9.3c-1.9 0-3.8.3-5.7.4-1.7.1-3.5.1-5.2.3-.9.1-1.9.3-2.8.2-.9-.1-1.3-.6-1.1-1.4a4 4 0 0 0 .1-1.9v-.5c-.1-.2 0-.3.1-.4h.1c.3.1.2.4.3.6l.1 2.5c0 .6.2.8.8.7l9-.6 6.5-.4 8.6-.5c.6 0 1.2-.2 1.8.1l-.1.1z" class="st67"/><path d="M17.6 46.9l-.1.4c-.2-.3-.1-.7-.7-.8-.5-.1-.2-.8-.2-1.2v-1.7l.1-2.6c0-.7.1-1.2.7-1.6.1 1.7-.1 3.5.1 5.3 0 .7-.1 1.5.1 2.2z" class="st37"/><path fill="#b2b1bd" d="M71.8 44.9c-.4-.4-.9 0-1.3 0-.4.1-.8.2-1.1 0h.1c.7-.2.9-.6.9-1.3 0-.4 0-.8.3-1 .2-.2.6-.3.9-.2.3.1.5.4.5.7l.1 1.8v.1l-.4-.1z"/><path d="M73 55l-.2.2-.5.2c-.7-.2-.7-.2-.7.5v1.3c.1-.2 0-.8.5-.7.3.1.2.3.1.5-.2.3 0 .5 0 .8-1 .9-2.6.4-3-.8 0-.2.1-.3.3-.4.4.4.8.9 1.4 1 .1.1.2.1.2-.1v-2.6c0-.2-.1-.1-.2 0-.6.1-1 .5-1.3 1h-.5c0-.7.7-1.4 1.5-1.6.5-.1.9 0 1.3.2l.9.3.2.2z" class="st73"/><path fill="#88898e" d="M73.4 58.7l.7-.2c.3 0 .4.1.4.4 0 .2 0 .5-.3.5l-1 .1c-.4 0-.4-.3-.4-.6-.1-.3 0-.4.3-.3.1.1.2.2.3.1z"/><path d="M71.6 59c-1 .1-2-.1-2.7-1-.1-.2-.3-.3-.2-.5.2 0 .4.1.5.3 1.3 1.1 2.4 1.1 3.7.1l.2-.1.1.3c-.1.5-.5.6-.9.8l-.7.1z" class="st75"/><path d="M72.3 55.4c.1-.2.3-.1.5-.2-.2.4-.1.7.2 1 .2.3.4.3.6.1.2.3.1.4-.2.5-.9.3-.9.3-.4 1l-.1.1c-.3-.1-.5.1-.8 0-.4-.1-.3-.4-.1-.6.5-.3.5-.7.4-1.2 0-.3-.2-.5-.1-.7z" class="st75"/><path d="M74.9 45c-.1.3.2.7-.3.7-.4 0-.2-.5-.3-.7 0-.3-.1-.8.3-.8.5 0 .2.5.3.8z" class="st30"/><path fill="#858489" d="M68.9 59.6c-.3.1-.6.2-.8 0a.5.5 0 0 1 0-.7c.2-.3.5-.2.8-.1 0 0 .1.1 0 .2-.2.2-.2.3 0 .5.1-.1 0 0 0 .1z"/><path d="M74.7 41.4c.2.6.3 1.2.1 1.9-.6-.7 0-1.3-.1-1.9z" class="st30"/><path d="M72.2 58.9l.9-.8c.1.2.1.4.3.5l-.1.6c-.3 0-.1-.3-.2-.4-.2-.3-.2-.1-.3.1h-.6zM68.9 59.6c0-.1 0-.3-.2-.2-.2.1-.4.1-.4-.2 0-.2.2-.3.4-.2.2.1.2 0 .2-.2.2.2.2.5 0 .8z" class="st71"/><path fill="#727177" d="M73.6 56.3c0 .2-.1.4-.4.4-.3 0-.2-.3-.2-.5.2 0 .4-.1.6.1z"/><path d="M71.9 54.1h.4c.3.3.8.3.7.9l-.1-.1c-.4-.2-.8-.4-1-.8z" class="st73"/><path fill="#e8e7ee" d="M75.2 29.9c.2.2.2.4 0 .6H75c-.1-.2.1-.4.2-.6z"/><path fill="#4a494e" d="M51.5 65.9c.4.8 0 1.7.2 2.5 0 .1 0 .2-.2.2s-.2-.1-.2-.3V67l-.1-.6c-.6-.5-.1-.5.3-.5z"/><path fill="#4a4950" d="M44.6 69.1c-.3-.6-.1-1.2-.2-1.8l-.1-.5c-.1-.1-.3-.1-.2-.3l.3-.1c.2 0 .3.1.3.3v1.8c0 .2.3.5-.1.6z"/><path fill="#3c3c42" d="M73.2 65.8l-.8 1c.2.2.4.1.6.2.1 0 .2 0 .2.2s-.1.2-.3.2h-1c-.3 0-.4-.1-.2-.4l.2-.2c.6-.7.6-.7-.1-1 .5-.3 1-.3 1.4 0z"/><path fill="#b2afbd" d="M30.9 69.2c0 .3-.2.5-.4.5-.3 0-.5-.1-.5-.4 0-.3.3-.4.5-.4.2-.1.4 0 .4.3z"/><path fill="#bcbac3" d="M30.8 67.9c-.1.2-.2.4-.5.4s-.4-.2-.4-.4.2-.3.4-.3c.3-.1.5 0 .5.3z"/><path fill="#c8c6d2" d="M67.9 66.3l-.1.6c-.1.2-.3.3-.5.3s-.4-.1-.4-.3c-.1-.4-.2-.8 0-1.3.1-.2.2-.5.5-.5s.4.3.5.6v.6z"/><path fill="#bdbbc4" d="M65 67.4c-.4 0-.6-.1-.6-.4 0-.4.3-.5.6-.5s.4.2.4.5c.1.3-.1.5-.4.4z"/><path fill="#ceccd6" d="M47.3 67.6c-.1.4 0 1-.6 1s-.6-.6-.6-1c-.1-.5.1-.9.6-1.1.2-.2.6.4.6 1.1z"/><path fill="#9f9ea3" d="M28.3 69c0 .2-.1.3-.3.4-.2 0-.3-.1-.3-.3 0-.2.1-.4.3-.4.3-.1.3.2.3.3z"/><path fill="#bab8c4" d="M76.8 10.1c-.4-.3-.8-.4-1.3-.3l-60.7 2.6c-1.6.1-1.9 1.3-1.7 1.6.2 0 .3-.3.5-.3l.1.2c0 .2-.2.4.2.5.3.1.6.2.9 0 .1-.1.2-.1.1-.2-.6-.8.2-.5.4-.6l20.7-.8c0 .2-.1.5.1.6.5-.1 1 .3 1.6 0 .5-.2 1 0 1.4-.1h.5c1.1 0 2.3-.1 3.4-.3l1.6.1c.5-.2 1-.2 1.5-.2.9 0 1.8.3 2.6-.4.1-.1.1 0 .1 0 .4.4.8.2 1.2.1h1.3c.5-.1.9.1 1.4-.1a2 2 0 0 1 1.1 0c.9 0 1.8-.4 2.7-.2.9.2 1.8 0 2.7 0l4.5-.1 3.6-.4c.7-.1 1.3.1 2-.1h.1c.6.1 1.2.2 1.8-.1h1c.8.2 1.6.1 2.2.8.3.5.5.3.6-.1.1-.4.3-.4.5-.1.2.3.4.3.6.1l.5-.2c-.1 1.6.2 3.1-.2 4.7-.2.7.2 1.4.2 2.2v4.1c0 .1-.2.5.2.4V11.8c0-.2-.1-.5.1-.7.7-.5.3-.8-.1-1z"/><path d="M75.2 19.7c.1.5.2 1.1 0 1.6-.2-.6-.2-1.1 0-1.6z" class="st36"/><path d="M74.9 17.1c-.3-.5-.2-1 0-1.6v1.6zM74.8 20.3c-.3-.2-.3-.3-.2-.6l.1-.1c.3.2.2.4.1.7z" class="st30"/><path fill="#010109" d="M53.1 39.4c2 0 3.9-.2 5.8-.3h.6c.3 0 .4.1.4.5v5.2l-.1.9c-.4.3-.9.3-1.4.3-.6 0-1.2-.1-1.8.1l-3.3.3-9.5.5-5.8.3-5.6.3-5.3.3-1.9.1c-.4.1-.8.1-1.2-.1l-.4-.2c-.2-.1-.5 0-.5-.3-.1-.3.3-.4.5-.5.4-.2.7-.4.7-.9v-3.5c-.4-.8-.9-1-1.6-.5-.2.1-.3.3-.6.3l-.6.2c.8.3.8 1 .8 1.6 0 .8.1 1.5-.1 2.3-.1.4.3.5.5.8.2.2.5.2.4.5-.3.4-.6.4-.8.4-.9-.1-1.7.2-2.5.1-.7 0-.8-.1-.9-.8-.2-1.6-.1-3.1-.1-4.7v-.4c.1-.9.1-.9 1-.9.4 0 .7.1 1.1-.1h.3c.8-.1 1.6.1 2.4-.1l4-.3 18.1-1c2.4-.1 4.9 0 7.4-.4z"/><path d="M24.4 46.1c0 .6-.4.8-.8 1-.2.1-.4 0-.4.3 0 .2.3.1.4.1l.3.2a3 3 0 0 1-1.6.4c-.7 0-1.5.1-2.2.3-.2 0-.6 0-.5.4 0 .3.3.3.6.3l2.9-.2 5.4-.4 7.8-.5 5.6-.3c1.8-.1 3.6-.3 5.5-.3l1 .1c.5 1 .2 1.4-.8 1.6l-2.5.3-.3-.1-7.5.4-10.4.6-4.4.3c-1.3 0-2.5.2-3.8.3-.7 0-.8-.1-.8-.9 0-1.1.1-2.1-.1-3.2v-4.1-2.5c0-.6.2-.8.8-.8l4-.3 5.2-.3 3.2-.2c1.1.2 2.2-.1 3.2-.1l9.9-.5.6-.1c.9.1 1.8 0 2.8-.1.3 0 .6-.1.8.2.2.3 0 .7 0 1 0 .2-.3.2-.5.2l-4 .3-12.6.7a428.1 428.1 0 0 0-11.7.8c-.1.1-.3.1-.3.3.1.2.2.2.4.2H21c-.3.3-.6.1-.9.1-1 0-1.1.1-1.1 1v2.3c0 .9.2 1.9.1 2.8 0 .2 0 .4.2.4l3.8-.2-.4-.3c-.6-.3-1-.7-.8-1.5.2-.6 0-1.3 0-2 0-.4.2-1-.5-1.1l-.1-.2c-.1-.2-.4-.3-.2-.6.3-.3.3.2.5.2.1-.1 0-.4.2-.4s.1.3.3.3c.2.2.1.5.2.7v2.6c0 .4 0 .9.5 1.1.5.2.9.1 1.3-.3 0-.2.1-.3.3-.3z" class="st90"/><path d="M23.5 41.1c-.3.3-.7.1-1.1.1h-1.3l2.4-.1z" class="st90"/><path fill="#aba9b1" d="M44.7 49.3c.8-.2 1.6-.1 2.4-.2 1.4-.2 1.2.1 1.1-1.5.6.1 1.2.2 1.7-.2.1-.1.2 0 .2.1l.1.4c0 .6.3.7.8.7l8-.4c.3 0 .7-.1.9.2v.1l-7.8.5h-1.7c-.4 0-.7-.2-.9-.4-.5-.5-.7-.5-1 .2l-.2.3-3.3.5-.4-.1.1-.2z"/><path fill="#32323a" d="M23.6 26.5v-.3c.5-.2 1.2-.4 1.5-.8.4-.6.9-1.1 1.1-1.7.1-.3.3-.6.6-.8h.5c.4.2.8.3 1 .7l.1.2c.1.2.1.3-.1.5-.2.1-.3 0-.4-.1.2-.2.1-.3.1-.3-.1.8.1 1.8-.5 2.6-.7.9-1.6 1.2-2.7 1.2-.3 0-.5-.1-.8-.3l-.4-.9z"/><path fill="#777983" d="M24.7 27.5c1.2 0 2.2-.3 2.8-1.4.2-.2.3-.5.3-.8-.1-.6.3-1.2.1-1.8l.6.6c.2-.2 0-.4 0-.6.5.2.4.8.6 1.2.1.1 0 .2-.1.2-.2 0-.3.3-.5 0l-.3-.5c-.1.6-.3 1.2.1 1.7.2.2.1.5-.3.4-.1 0-.3-.1-.3.1-.1.3.2 0 .3.2l.1.4-.1.3c-.2.4-.6.7-1 1-.2.2-.4.2-.6.1-.1-.2.2-.3.1-.6-.5.1-.9.1-1.4-.1-.2 0-.5-.1-.4-.4z"/><path fill="#c4c6d3" d="M27.9 27.4l.1-.1c.4-.7 1.2-1 1.4-1.9.2.8-.2 1.4-.3 2-.3.6-.8 1-1.4 1.2-.1.1-.3.1-.4 0-.1-.1 0-.3.1-.4l.5-.8z"/><path fill="#464650" d="M24.7 27.5c.4.4.9.4 1.4.4.3 0 .6-.1.7.1.2.3-.2.4-.4.6l-.2.2h-.5l-1-.7c-.2-.1-.5-.3-.5-.6.1-.3.3.1.5 0z"/><path fill="#060510" d="M26.9 22.9l-1.5 2.6c-.1.2-1.5.7-1.8.7-.1-1.6 1.3-3.5 3.3-3.3z"/><path fill="#070513" d="M60 48.4l-6 .3-3.3.2c-.5 0-.6-.2-.6-.6v-.8c.3-.3.7-.3 1-.3 1.8 0 3.5-.2 5.3-.3l5.9-.4h1.3c.5 0 .8-.2.8-.7v-6.3-.2c0-.9 0-1-1-1-2.3 0-4.5.1-6.8.3l-3.5.2c-.9 0-1.9.2-2.8.1l-.4-.1c0-1.3 0-1.3 1.3-1.4 1.2-.1 2.4 0 3.5-.2 1.2.1 2.4 0 3.6-.1l7-.4c.3 0 .4 0 .4.4l.1 9.6c0 1.3-.1 1.3-1.4 1.3l-4.4.4z"/><path fill="#e9e9ed" d="M62.4 46.8l-11.1.7-1.2.1c-.7.5-1.2.6-1.9.1-1.4-.1-2.8.1-4.2.2l-13.3.7-10.7.7c-.3 0-.7.2-.8-.4-.1-.4 0-.6.5-.7l1.9-.2c.8 0 1.5-.3 2.3-.3.4.3.8.1 1.1.1l14.6-.9 15.6-.8 1.4-.1c.9-.2 1.9 0 2.8-.1l.3-.1c.6-.2 1.1-.1 1.7-.1.4 0 .8.1 1.2-.1.2-.2.2-.5.2-.8v-4.4c0-.5.1-1 .3-1.4-.1-.3-.4-.1-.6-.2-.2 0-.5 0-.7-.2.7-.3 1.5-.2 2.2-.2.2 0 .4.2.3.4-.2 1.1-.1 2.1-.1 3.2v3.8c0 .9 0 .9-.9 1-.3-.1-.6-.2-.9 0z"/><path fill="#bab8bd" d="M62.4 46.8c.3-.3.7-.2 1.1-.1.5 0 .6-.2.6-.7v-6.3c0-.3-.1-.6.1-.9.2-.3-.1-.3-.3-.3-.7-.1-1.3.2-2 .2-1.6-.1-3.3.1-4.9.2l-2.3.1-4.2.2c-.2 0-.4.1-.6-.2 1.2.1 2.3-.1 3.4-.1l8.9-.5h1.7c.4 0 .6.2.6.6v7.3c0 .5-.2.6-.6.6-.5-.2-1-.2-1.5-.1z"/><path d="M63.1 38.9c-.2 2.1 0 4.1-.1 6.2 0 .2.1.6-.3.6-.2 0-.3 0-.2-.2.4-.7.3-1.8-.2-2.1l-.1-.2c.1-.3.1-.7.5-1 .2 0 .2.1.2.2-.2-1 0-2-.1-3.1-.1.3.1.6-.3.8-.4-.3-.7-.8-1.3-.6-.9.3-.9.3-.9 1.4 0 1.4-.2 2.7-.1 4.1l-.1.6c-.1.1-.1.1-.2 0l.1-6.2c0-.2-.1-.2-.3-.2h-.6a25 25 0 0 1 4-.3z" class="st100"/><path fill="#0f0d18" d="M72 44.9c-.4-.5-.2-1-.2-1.6 0-.4 0-.8-.5-.8s-.9.1-.9.8v.8c0 .9 0 .9-1 .8v-4.7c0-.7.2-.9.9-.9l.2 1.8c0 .3 0 .6.5.4a2 2 0 0 1 1.7.2c.3.9.2 1.9.2 2.8-.1.5-.6.2-.9.4z"/><path d="M26.1 28.7l.2-.2c.6.1.8-.6 1.3-.9.1-.1.1-.3.3-.3.1.4-.2.6-.4.8-.2.2-.2.4.2.4-.5.4-1 .5-1.6.2z" class="st63"/><path fill="#242325" d="M71.9 54.1c.3.3.8.4 1 .9-.4.3-.6 0-.9-.1-1.2-.6-2.5 0-2.8 1.2l.1 1.1c.7 1.2 1.8 1.5 2.9.7.3-.3.5-.3.8 0-.8 1.1-2.6 1.3-3.7.2l-.5-.6c-1-2.2.7-3.6 2.2-3.6l.9.2z"/><path fill="#27252a" d="M72.3 55.4c.4.5.5 1 .3 1.6-.1.2-.2.5-.5.2 0-.2.3-.4 0-.5-.3-.1-.2.3-.2.4v.3c0 .2 0 .3-.2.3s-.2-.2-.2-.4v-1.9c0-.2-.1-.4.1-.5.2-.1.4.1.5.2 0 .2.1.2.2.3z"/><path fill="#272729" d="M70.8 57.9c-.7 0-1.1-.4-1.3-1 .1-.3.3-.2.6 0-.2-.3-.5-.4-.6-.7.2-.7.6-1.1 1.3-1 .2.2.2.5.1.6-.4.4-.2.7 0 1.1.2.2.2.6-.1 1z"/><path fill="#9fa0a3" d="M70.8 57.9c.1-.7.2-1.5-.7-2 .7 0 .8-.4.7-.9 0-.2 0-.3.2-.3.1 0 .2 0 .2.2v3c0 .2-.1.2-.2.2-.2.1-.2-.1-.2-.2z"/><path fill="#9e9da0" d="M69.5 56c.3.3.8.5.8 1.1-.3-.1-.4-.6-.8-.3l-.3.3c-.2-.3-.4-.7-.1-1.1.2-.1.3-.1.4 0z"/><path fill="#dce0ea" d="M27.5 44.4V43c0-.8.5-1.3 1.2-1.3s1.2.5 1.2 1.3v2.9c0 .8-.5 1.2-1.3 1.2-.7 0-1-.4-1-1.2v-.7l-.1-.8c.1 0 .1 0 0 0z"/><path fill="#d7dbe5" d="M35.6 43.8v1.5c0 .7-.5 1.1-1.2 1.1s-1.1-.4-1.1-1.2v-2.9c0-.8.5-1.3 1.2-1.3s1.1.4 1.2 1.3l-.1 1.5z"/><path fill="#d9dce7" d="M44.5 43.5V42c0-.8.5-1.3 1.2-1.3s1.1.5 1.1 1.3l-.1 3c-.1.6-.5 1-1.2 1-.6 0-1-.3-1.1-1l.1-1.5z"/><path fill="#abb44a" d="M56.8 44.7h.8c.2 0 .4.1.4.4 0 .2-.1.4-.3.5l-1.7.1c-.5 0-.4-.4-.3-.7l1-2.1c.2-.4.4-.9.4-1.4 0-.2-.1-.4-.4-.4-.2 0-.3.1-.3.3 0 .3-.1.6-.5.6l-.4-.1c-.1-.3-.1-.7.1-1 .3-.4.8-.7 1.4-.6.5.1.8.5.9 1 .2.8-.1 1.5-.5 2.2l-.6 1.2z"/><path fill="#dfe2ec" d="M41.3 44.4c.1 1-.3 1.5-1.1 1.6-.7.1-1.2-.3-1.2-1v-2.7c-.1-.2.1-.4.1-.6 0-.1 0-.3.2-.4.2 0 .3.1.4.3l.1.9.1 1.9c0 .2 0 .5.2.5.3 0 .3-.3.3-.5v-2.2-.6c.2-.2.4-.3.6-.2.3.1.1.4.2.6.2.7.2 1.6.1 2.4z"/><path fill="#afb84a" d="M52.1 43.3v2.1c0 .4-.1.7-.5.6-.4 0-.4-.4-.4-.6v-2.9c0-.2.1-.5-.3-.3-.2.1-.4.3-.5 0a.9.9 0 0 1 0-.7c.2-.3.5-.5.9-.7.4-.1.7-.1.7.5l.1 2z"/><path fill="#bcbecd" d="M39.7 42.6c-.2-.2-.1-.5-.1-.8l-.2-.3c-.2 0-.1.2-.1.3 0 .2 0 .4-.2.6-.1-.6 0-1.2.6-1.5.5-.3 1-.1 1.4.3l.2.4v2.8l-.1-2.5c-.1-.7-.3-.6-.7-.3-.6.1-.6.6-.8 1z"/><path d="M22 43c-.1-.3 0-.5 0-.8.9-.9 1.6-.8 2.2.1l-.1.1c-.3 0-.5.4-.8.4-.3-.1-.3.2-.3.5v1.9c0 .3 0 .6-.2.8-.4 0-.3-.3-.3-.6v-1.9c0-.2.1-.5-.1-.7l-.4.2zM24.4 46.1l-.2.3a.8.8 0 0 1-.2-.4l.1-3.1c0-.2 0-.4.2-.6h.1c.2 1 .1 2 .1 3l-.1.8z" class="st114"/><path d="M59.8 45.8c-1 .2-2.1.1-3.2.1.3-.2.7-.1 1.1-.1.7 0 1.3 0 2-.2l.1.1v.1z" class="st100"/><path fill="#dbdfe8" d="M24.2 42.3c0 1.3.1 2.7-.1 4-.3.6-.9.6-1.5.5-.5-.2-.7-.6-.7-1.2v-2.7l.1-.3c0-.2.1-.3.3-.3.2 0 .2.2.2.4v2.6c0 .2-.1.5.1.7.2-.1.6 0 .7-.4V43l.1-.3c.3-.3.4-.6.8-.4z"/><path fill="#c06642" d="M59.8 45.8v-.1l.1-.4.1-4.5c.1-.1 0-.5.3-.5.2 0 .3.2.4.3.2.2.2.5.5.7.4.2.8.1 1.2.2.3.1.4.3.2.6s.1.8-.4 1c-.2.2-.5.2-.7.3-.3 0-.4.2-.4.4 0 .3.2.3.5.3.4 0 .8.2 1 .6.1.3.1.5-.1.7l.2.2c-1 .3-2 .2-2.9.2z"/><path fill="#9c5e4e" d="M61 41.6l-.4-.8c-.2-.6-.4-.4-.6 0v-.6c0-.4-.1-.8.6-.6l.5-.2a1 1 0 0 1 1.3.8l-.1.1-.1.1c-.3.1-.6-.1-.9.2-.2.2 0 .6-.1.9l-.2.1z"/><path d="M62.6 42.3c0-.2 0-.4-.3-.5-.4-.5-.4-1.1 0-1.6.3-.2.1-.6.1-.9 0-.1-.1-.3.2-.3.2 0 .2.1.2.2v4c-.3-.3.1-.7-.2-.9z" class="st118"/><path fill="#6e3e2d" d="M62.5 44.8c-.3-.2-.6-.5-1-.4-.3.1-.6.1-.5-.3 0-.3-.1-.8.5-.8l.8-.1v.1c.1.5.3 1 .2 1.5z"/><path d="M62.5 44.8c-.2-.5-.3-.9-.2-1.4.4-.1.7 0 .6.5v1.3c0 .3-.1.4-.4.4v-.8z" class="st118"/><path fill="#0d0d14" d="M28.3 44.3v-1.4c0-.2.1-.4.4-.4.3 0 .4.2.4.4v2.8c0 .3-.2.5-.4.4-.3 0-.3-.2-.3-.5l-.1-1.3z"/><path fill="#11111a" d="M34.1 43.8v-1.3c0-.3 0-.5.4-.5.3 0 .4.2.4.5v2.7c0 .2-.1.5-.4.5-.3 0-.4-.3-.4-.6v-1.3z"/><path fill="#100f19" d="M45.2 43.4v-1.3c0-.3.1-.5.4-.5.3 0 .4.2.4.5v2.7c0 .3-.2.4-.4.4-.3 0-.4-.2-.4-.4v-1.4z"/><path fill="#141520" d="M39.7 42.6v-.4c0-.5.2-.7.7-.4.2 1 .1 2.1.1 3.1 0 .2-.1.5-.4.5-.3 0-.4-.3-.4-.6v-2.2z"/><path fill="#0b0a11" d="M23.6 42.7v3.1c-.2.3-.4.4-.8.1v-3c0-.2 0-.4.3-.5.3-.1.4.1.5.3z"/><path d="M23.6 45.8v-2.9c.2 1 .3 2 0 2.9z" class="st114"/><path d="M62.4 40.2c-.3.5-.2 1 0 1.6l-1.3-.1v-.1c-.1-1.4-.1-1.4 1.3-1.4z" class="st100"/></svg>