<?xml version="1.0" encoding="utf-8"?>
<!-- Generator: Adobe Illustrator 22.0.0, SVG Export Plug-In . SVG Version: 6.00 Build 0)  -->
<svg version="1.1" id="图层_1" xmlns="http://www.w3.org/2000/svg" xmlns:xlink="http://www.w3.org/1999/xlink" x="0px" y="0px"
	 viewBox="0 0 100 71.1" style="enable-background:new 0 0 100 71.1;" xml:space="preserve">
<style type="text/css">
	.st0{fill:#DAD9D7;}
	.st1{fill:#050404;}
	.st2{fill:#0B0A0A;}
	.st3{fill:#181717;}
	.st4{fill:#C1C2BD;}
	.st5{fill:#DAD8D3;}
	.st6{fill:#6C6C6B;}
	.st7{fill:#C8C8C5;}
	.st8{fill:#E3E4E3;}
	.st9{fill:#858483;}
	.st10{fill:#A2A19D;}
	.st11{fill:#55544F;}
	.st12{fill:#5F5A58;}
	.st13{fill:#8B8987;}
	.st14{fill:#5C5B57;}
	.st15{fill:#B5B3B0;}
	.st16{fill:#2B2A2D;}
	.st17{fill:#1D1C1C;}
	.st18{fill:#191818;}
	.st19{fill:#2B2420;}
	.st20{fill:#25211E;}
	.st21{fill:#565556;}
	.st22{fill:#454342;}
	.st23{fill:#252324;}
	.st24{fill:#252221;}
	.st25{fill:#262220;}
	.st26{fill:#524F4F;}
	.st27{fill:#D0CDC6;}
	.st28{fill:#D1D1CF;}
	.st29{fill:#C0BFBB;}
	.st30{fill:#787774;}
	.st31{fill:#AAA49A;}
	.st32{fill:#BCB5A9;}
	.st33{fill:#5E5B55;}
	.st34{fill:#5E5C57;}
	.st35{fill:#4D3934;}
	.st36{fill:#6E6E66;}
	.st37{fill:#D7D6D7;}
	.st38{fill:#F4F3F6;}
	.st39{fill:#C9C9C3;}
	.st40{fill:#5E5A59;}
	.st41{fill:#232122;}
	.st42{fill:#27201B;}
	.st43{fill:#302622;}
	.st44{fill:#D2D1CF;}
	.st45{fill:#DBDBDB;}
	.st46{fill:#595855;}
	.st47{fill:#B1B2AD;}
	.st48{fill:#F1F1F3;}
	.st49{fill:#DEDEDF;}
	.st50{fill:#D3D1D0;}
	.st51{fill:#C2C2BF;}
	.st52{fill:#E7E7E7;}
	.st53{fill:#F1F1F0;}
	.st54{fill:#CBCAC8;}
	.st55{fill:#E8E7E8;}
	.st56{fill:#BCBCB7;}
	.st57{fill:#A29E95;}
	.st58{fill:#D3D2D0;}
	.st59{fill:#E7E7E8;}
	.st60{fill:#59565B;}
	.st61{fill:#959494;}
	.st62{fill:#D4D4D3;}
	.st63{fill:#C7C7C5;}
	.st64{fill:#7A7A77;}
	.st65{fill:#5D5D5C;}
	.st66{fill:#787877;}
	.st67{fill:#5A5A58;}
	.st68{fill:#C8C8C3;}
	.st69{fill:#5B5B58;}
	.st70{fill:#6C6C67;}
	.st71{fill:#605C5A;}
	.st72{fill:#161516;}
	.st73{fill:#E3E3E3;}
	.st74{fill:#110F0F;}
	.st75{fill:#AFACA7;}
	.st76{fill:#D8D8D8;}
	.st77{fill:#D5D5D8;}
	.st78{fill:#222124;}
	.st79{fill:#E5E4E3;}
	.st80{fill:#666668;}
	.st81{fill:#4B4A4C;}
	.st82{fill:#58595A;}
	.st83{fill:#5E5C5C;}
	.st84{fill:#111011;}
	.st85{fill:#D2D0CE;}
	.st86{fill:#DDDEDF;}
	.st87{fill:#979796;}
	.st88{fill:#A5A69F;}
	.st89{fill:#FBFBFD;}
	.st90{fill:#C1C1BE;}
	.st91{fill:#D1D1D1;}
	.st92{fill:#DFDFE3;}
	.st93{fill:#A2A2A5;}
	.st94{fill:#3AC8EA;}
	.st95{fill:#5C5A5E;}
	.st96{fill:#2ABADF;}
	.st97{fill:#28BADF;}
	.st98{fill:#3BBFE0;}
	.st99{fill:#A8D7E6;}
	.st100{fill:#D9D9D6;}
	.st101{fill:#DFDFDF;}
	.st102{fill:#B6B5B5;}
	.st103{fill:#DCDCDA;}
	.st104{fill:#E9E9E9;}
	.st105{fill:#D6D5D3;}
	.st106{fill:#91918B;}
	.st107{fill:#3FB1D4;}
	.st108{fill:#575756;}
	.st109{fill:#535353;}
	.st110{fill:#C6C6C2;}
	.st111{fill:#8E8E8F;}
	.st112{fill:#494949;}
	.st113{fill:#EDEDEE;}
	.st114{fill:#F5F5F7;}
	.st115{fill:#1E1B17;}
	.st116{fill:#98968D;}
	.st117{fill:#2EC3E3;}
	.st118{fill:#E5D85B;}
	.st119{fill:#75C8DD;}
	.st120{fill:#12B2DC;}
	.st121{fill:#CDCDC9;}
	.st122{fill:#B1AEA9;}
	.st123{fill:#D3D2CD;}
	.st124{fill:#BCBCBE;}
	.st125{fill:#100F0F;}
	.st126{fill:#E8C240;}
	.st127{fill:#1B1A1A;}
	.st128{fill:#BCBCB3;}
	.st129{fill:#6990BE;}
	.st130{fill:#745A41;}
	.st131{fill:#C1AE87;}
	.st132{fill:#1AB5DC;}
	.st133{fill:#946365;}
	.st134{fill:#914E52;}
	.st135{fill:#7A5D60;}
	.st136{fill:#3A3839;}
	.st137{fill:#978C89;}
	.st138{fill:#151415;}
	.st139{fill:#29D1F1;}
	.st140{fill:#33C9EA;}
	.st141{fill:#99D5E5;}
	.st142{fill:#39C1E0;}
	.st143{fill:#C4C2BF;}
	.st144{fill:#B4B2AE;}
	.st145{fill:#E3E3E5;}
	.st146{fill:#ABA49A;}
	.st147{fill:#363335;}
	.st148{fill:#59463C;}
	.st149{fill:#47454E;}
	.st150{fill:#242427;}
	.st151{fill:#161012;}
	.st152{fill:#333338;}
	.st153{fill:#C4C3C4;}
	.st154{fill:#434043;}
	.st155{fill:#B8B7B4;}
	.st156{fill:#ADA9A7;}
	.st157{fill:#697177;}
	.st158{fill:#BC2126;}
	.st159{fill:#BDBBBA;}
	.st160{fill:#BDBDBD;}
	.st161{fill:#716F6E;}
	.st162{fill:#747471;}
	.st163{fill:#654F48;}
	.st164{fill:#8E8384;}
	.st165{fill:#CAAD95;}
	.st166{fill:#CAC9CC;}
	.st167{fill:#A69C9B;}
	.st168{fill:#CACAC9;}
	.st169{fill:#79797B;}
	.st170{fill:#483C3A;}
	.st171{fill:#948F8E;}
	.st172{fill:#F1EA87;}
	.st173{fill:#242125;}
	.st174{fill:#6A5952;}
	.st175{fill:#383232;}
	.st176{fill:#ECECEC;}
	.st177{fill:#CADEEA;}
	.st178{fill:#ECECEE;}
	.st179{fill:#B1ABAD;}
	.st180{fill:#91918F;}
	.st181{fill:#BAB8B5;}
	.st182{fill:#848182;}
	.st183{fill:#5D5B5C;}
	.st184{fill:#343233;}
	.st185{fill:#BDBBBD;}
	.st186{fill:#32A2C9;}
	.st187{fill:#45AED2;}
	.st188{fill:#A82F31;}
	.st189{fill:#201E1C;}
	.st190{fill:#47484A;}
	.st191{fill:#6E7071;}
	.st192{fill:#B9BABA;}
	.st193{fill:#E2D127;}
	.st194{fill:#FCFDFD;}
	.st195{fill:#B9B3B0;}
	.st196{fill:#C5C3BF;}
	.st197{fill:#CCC8C5;}
	.st198{fill:#877C74;}
	.st199{fill:#5B524F;}
	.st200{fill:#7B715F;}
	.st201{fill:#6E655F;}
	.st202{fill:#635D55;}
	.st203{fill:#7B716C;}
	.st204{fill:#151616;}
	.st205{fill:#C2C2C4;}
	.st206{fill:#976567;}
	.st207{fill:#A5A09A;}
	.st208{fill:#BCBCBB;}
	.st209{fill:#3AC9E9;}
	.st210{fill:#88837E;}
	.st211{fill:#7E5859;}
	.st212{fill:#A9A09E;}
	.st213{fill:#5C5A59;}
	.st214{fill:#32332E;}
	.st215{fill:#A27754;}
	.st216{fill:#8B7763;}
	.st217{fill:#919191;}
	.st218{fill:#EDE67B;}
	.st219{fill:#9F948B;}
	.st220{fill:#EBE0DB;}
	.st221{fill:#625B54;}
	.st222{fill:#372B22;}
	.st223{fill:#A7D4E4;}
	.st224{fill:#D2D1D5;}
	.st225{fill:#997D57;}
	.st226{fill:#DDD4BC;}
	.st227{fill:#9EDDED;}
	.st228{fill:#C5E1EC;}
	.st229{fill:#B5E0EA;}
	.st230{fill:#A3D9E7;}
	.st231{fill:#E9C649;}
	.st232{fill:#DEDEE2;}
	.st233{fill:#EAEAEC;}
	.st234{fill:#F4F4F5;}
	.st235{fill:#B9B7B3;}
	.st236{fill:#675C56;}
	.st237{fill:#6C6B76;}
	.st238{fill:#170F0F;}
	.st239{fill:#11090A;}
	.st240{fill:#9295A1;}
	.st241{fill:#423C3C;}
	.st242{fill:#BDC2CC;}
	.st243{fill:#585A5F;}
	.st244{fill:#36393F;}
	.st245{fill:#0B0B12;}
	.st246{fill:#F2DDC6;}
	.st247{fill:#C8B6AE;}
	.st248{fill:#3F3532;}
	.st249{fill:#FBECDD;}
	.st250{fill:#392520;}
	.st251{fill:#FAF8F4;}
	.st252{fill:#646165;}
	.st253{fill:#E8D7CE;}
	.st254{fill:#DFDEE0;}
	.st255{fill:#A69A9C;}
	.st256{fill:#85C3DE;}
	.st257{fill:#4B4C44;}
	.st258{fill:#2C2A27;}
	.st259{fill:#898A8C;}
	.st260{fill:#2D2D2A;}
	.st261{fill:#1E1F20;}
	.st262{fill:#897463;}
	.st263{fill:#3F403A;}
	.st264{fill:#6F715F;}
	.st265{fill:#696B5A;}
	.st266{fill:#A2A798;}
	.st267{fill:#E0E0E2;}
	.st268{fill:#41403D;}
	.st269{fill:#ABABAB;}
	.st270{fill:#858585;}
	.st271{fill:#F3ED90;}
	.st272{fill:#EAE9EC;}
	.st273{fill:#7B716E;}
	.st274{fill:#71685B;}
	.st275{fill:#9E9FA2;}
	.st276{fill:#403A35;}
	.st277{fill:#D9D0CF;}
	.st278{fill:#D5CAC7;}
	.st279{fill:#E1D9D7;}
	.st280{fill:#B2A6A3;}
	.st281{fill:#1D1E21;}
	.st282{fill:#D5CAC8;}
	.st283{fill:#CAC0BF;}
	.st284{fill:#DBD0CD;}
	.st285{fill:#A69A98;}
	.st286{fill:#B3AEAE;}
	.st287{fill:#3C3A48;}
	.st288{fill:#616266;}
	.st289{fill:#9E9D9A;}
	.st290{fill:#746454;}
	.st291{fill:#989693;}
	.st292{fill:#A9A8A4;}
	.st293{fill:#D2D5CE;}
	.st294{fill:#D2CFC9;}
</style>
<polygon class="st0" points="98.7,6.1 79.4,1.1 18.8,8.2 18.5,32.6 0.7,31.8 1.1,51.5 33.6,60.5 78.6,70.4 97.8,61.1 "/>
<path class="st1" d="M18.8,57.4c-2.2-0.3-4.3-0.9-6.5-1.3L0.7,53.6c0.2-0.6,0.4-1.3-0.3-1.8c-0.1-0.2-0.1-0.4,0.1-0.6l0.6,0.3
	c1.1,0.5,2.4,0.6,3.5,0.8c3.7,0.8,7.4,1.4,11,2.3c0.4,0.1,0.8,0.3,1.2,0.1l0.2-0.2c0.2-0.1,0.4-0.2,0.4-0.4l0.2-0.3l0.2-0.1h0.3
	c0.2,0.1,0.4,0.2,0.4,0.5c0,0.2,0.1,0.4,0.3,0.5l0.5,0.5L31,57.6c3.7,0.9,7.5,1.6,11.3,2.4l19.4,4l14.4,3.1c0.3,0.1,0.7,0.1,1,0.4
	c0.1,0.2,0.3,0.4,0.6,0.5c0.4,0.2,0.7,0.5,0.7,0.9c0.1,0.6,0.3,0.5,0.8,0.3c1.3-0.7,2.7-1.4,4.1-1.9c0.3-0.1,0.7-0.3,0.9,0
	c0.2,0.4-0.3,0.5-0.6,0.7l-4.5,2.2c-0.3,0.1-0.6,0.3-0.9,0.1c-0.6-0.5-1.4-0.5-2.1-0.7c-1.1-0.3-4.5-1.1-4.8-1.1
	c-0.8-0.2-5.7-1.4-7.3-1.6c-0.6-0.1-1.2-0.3-1.9-0.1c-0.7,0.2-39.3-8.4-39.7-8.6C21.8,58.3,18.8,57.4,18.8,57.4z"/>
<path class="st2" d="M69.3,67.7c0.7,0.5,1.5,0.4,2.2,0.7c0.3,0.1,0.2-0.1,0.3-0.3c0.3-0.5,0.9-0.7,1.3-0.4l0.5,0.5h0.9
	c0.6-0.1,1,0,0.8,0.7c-0.1,0.3,0.2,0.3,0.4,0.4l1.7,0.4l0.5,0.1c0.6,0.8,1.2,0.3,1.8,0l3.8-1.8c0.2-0.1,0.5-0.1,0.7-0.5
	c-1.1,0.2-2,0.6-2.9,1.1c-0.8,0.4-1.7,0.6-2.4,1.2c-0.3,0.3-0.7,0.1-0.7-0.4c0-0.7-0.3-1-0.9-1.1C77,68.1,77,67.9,77,67.6
	c0.2-0.2,0.6-0.2,0.7-0.5l0.3-0.2l0.5,0.2c0.2,0.6,0.8,0.9,1.6,0.7l1-0.4c0.9-0.4,1.8-1.1,2.8-1.3c0.5,0.1,0.5,0.2,0.2,0.4
	c1.4-0.7,3.3-1,4.3-2.6c1.3-0.8,2.7-1.5,4.1-2c0.2,0,0.4,0,0.4,0.2s-0.2,0.2-0.4,0.3c0.7-0.1,1.2-0.8,1.8-0.8
	c-0.1,0-0.4,0.1-0.5-0.3c0.8-0.8,1.8-1,2.8-1.4c0.6,0.1,0.4,0.3,0.1,0.6c0.6-0.2,1.2-0.6,1.9-0.3v0.2C98.4,61,98,61,97.8,61.1
	c1-0.3,1-0.3,0.8,0.5l-5.1,2.6l-13.4,6.7c-0.3,0.2-0.6,0.3-0.9,0.2l-7.9-1.9c-0.5-0.6-1.2-0.7-1.8-0.8c-0.3-0.1-0.9,0.1-0.9-0.6
	C68.8,67.7,69,67.4,69.3,67.7L69.3,67.7z"/>
<path class="st3" d="M69.3,67.7L69,68.1c-0.4,0.3-0.2,0.5-1.1,0.3l-8.8-1.8l-15.1-3.4l-9.7-2.3l0.2-0.4l0.2-0.1
	c0.6-0.3,1.1,0.1,1.7,0.1c0.3,0.4,0.8,0.3,1.3,0.4c2,0.5,4,1.1,6.1,1.4c2.7,0.5,5.3,1.3,8,1.6c0.4,0.1,0.8,0.3,1.2,0.1
	c0.6-0.2,1.1,0.2,1.7,0.4c0.8,0.2,1.8,0.3,2.5,0.8l1.9,0.4c0.4,0.1,0.9,0,1.1,0.6c0.1,0.3,2.1,0.6,2.4,0.3c0.3-0.2,0.5-0.1,0.8,0
	l4.7,1c0.2,0,0.3,0.2,0.5-0.2C68.8,67,69.2,67.3,69.3,67.7z"/>
<path class="st4" d="M99.6,33.8v3.4c-0.1,0.6,0.2,1.2-0.1,1.8C99,39.1,99,38.7,99,38.4c-0.1-0.5,0.1-1,0.1-1.5v-1.4
	c-0.1-1.2-0.1-1.3-1.3-1.2l-6.2,0.8l-8.9,1l-0.8,0.1c-0.6,0-0.8,0.3-0.8,0.9c0,1.4,0.1,2.8-0.1,4.2c-0.2,0.4,0,1-0.3,1.4
	c-0.4-0.1-0.4-0.4-0.4-0.7v-5.5c0-1.1,0.5-1.4,1.5-1.5l4-0.5l5.5-0.6c1.5-0.1,2.9-0.4,4.4-0.6l1.2-0.1c0.2,0,0.5,0.1,0.5-0.2
	c0.5-0.4,1.2-0.1,1.8-0.3C99.7,32.9,99.6,33.4,99.6,33.8z"/>
<path class="st5" d="M1.3,31.2l3.2-0.3c3.5,0.1,7-0.4,10.6-0.4l1.7-0.1c0.4,0,0.8-0.1,0.8,0.6c0,0.2,0,0.6,0.4,0.2
	c0.4,0.5,0,0.6-0.4,0.6s-0.7,0.2-1,0.3h-3c-1.3-0.2-2.6-0.1-3.9-0.2c-2.5-0.1-5-0.4-7.6-0.4C1.8,31.5,1.4,31.6,1.3,31.2z"/>
<path class="st6" d="M43.4,5.1l7.5-0.8L61.1,3l10.2-1.4h0.2c0.1,0.1,0.4,0,0.3,0.3c-0.8,0.4-1.6,0.3-2.4,0.4l-5.8,0.8L51.3,4.7
	l-4.6,0.5l-1,0.1L40,6l-6.3,0.7l-8.6,0.9c-1.5,0.1-2.9,0.5-4.4,0.5c-0.7,0-1.3,0.2-2,0.1c-0.2,0-0.4,0-0.5-0.2
	c-0.1-0.5,0.2-0.4,0.5-0.4C19,8,19.2,8,19.3,7.9c1.1-0.4,2.3-0.3,3.4-0.5c1.8-0.2,3.7-0.3,5.5-0.6l3.1-0.4l10-1.2
	C41.3,5.2,43.4,5.1,43.4,5.1z"/>
<path class="st7" d="M27.5,6.4C27.4,6,27.4,5.6,27,5.2c2.3-0.2,4.5-0.6,6.7-0.7c0.8,0,1.6-0.2,2.3-0.3c1.7-0.3,3.3,0.2,4.9,0.4
	l1.2,0.1c-0.2,0.6-0.7,0.4-1.1,0.5l-2.9,0.3c-1.8,0.1-3.6,0.5-5.4,0.7h-0.9c-0.3,0-0.6,0-0.6-0.4c0-0.3,0.4-0.4,0.7-0.3
	c0.6,0.1,1.1-0.1,1.6-0.2l1.8-0.2l-2.6,0.3c-0.1,0-0.2,0.1-0.2,0c-0.8-0.3-1.5-0.3-1.7,0.8l-0.4,0.2c-0.8-0.2-1.6,0.1-2.4,0.3
	L27.5,6.4z"/>
<path class="st8" d="M27.5,6.4c0.5,0,0.9,0,1.4-0.2c0.4-0.1,0.9-0.3,1.3-0.1c0.4,0.1,0.8,0.2,0.6-0.5c0-0.3,0.3-0.6,0.6-0.6
	c0.2-0.1,0.5-0.4,0.8,0.1c0.2,0.3,0.5,0.2,0.8,0.1l3.4-0.4V5l-5,0.7c1,0.4,2,0.1,3,0l6.5-0.8c0.5,0,0.9-0.1,1.3-0.3
	c0.2,0.6,0.8,0.3,1.2,0.5c-1.7,0.4-3.5,0.5-5.2,0.7l-6.9,0.8c-1.4-0.1-2.7,0.4-4.1,0.3C27.2,6.9,27.5,6.4,27.5,6.4z"/>
<path class="st9" d="M18.2,30V9.4V9h0.3c0.3,0.3,0.3,0.6,0.3,1v19c0,0.3,0.1,0.7-0.2,1C18.4,30.1,18.3,30.1,18.2,30z"/>
<path class="st10" d="M99.4,39c0.1-0.6-0.2-1.2,0.2-1.8l0.2,1.3v17.8l0.1,1l-0.1,0.6c0,0.2-0.1,0.3-0.3,0.2c-0.2-0.3-0.2-0.6-0.3-1
	v-2.3c0.1-0.8,0.1-1.6-0.1-2.3c-0.2-0.6,0-1.3,0-1.9V40.2C99.2,39.8,99.1,39.4,99.4,39z"/>
<path class="st11" d="M99.6,58.2c0.3-0.2,0-0.6,0.3-0.8c0,1.6,0,1.6-1.1,2.1c-0.1,0-0.2-0.1-0.2-0.3c0-0.1,0.1-0.2,0-0.2l-5.1,2.4
	l-11.9,5.5l-0.7,0.2L80.7,67c0-0.4,0.3-0.5,0.6-0.6l17.4-8.1C98.9,58.2,99.2,58,99.6,58.2L99.6,58.2z"/>
<path class="st12" d="M80.8,0.8l11.7,3.1l6.1,1.6c0.2,0.1,0.4,0.3,0.7-0.1c0.2-0.3,0.5,0,0.5,0.3v1.1c-0.5,0-0.3-0.5-0.6-0.7
	L81.4,1.4C81.1,1.3,80.8,1.2,80.8,0.8C80.7,0.9,80.8,0.8,80.8,0.8z"/>
<path class="st13" d="M0.5,51.2c-0.3,0.1-0.2,0.4-0.2,0.6c-0.4-0.7-0.1-1.5-0.1-2.3L0.1,34.3L0,32.1l0.1-0.4
	c0.1-0.4,0.2-0.3,0.4-0.1l0.1,0.7C0.7,38.2,0.9,44.1,0.8,50v1C0.7,51.2,0.6,51.2,0.5,51.2z"/>
<path class="st14" d="M1.3,31.2l5.6,0.4l9.8,0.4c0.3,0,0.6,0,0.4,0.4l-0.6,0.2l-6.2-0.3l-4.5-0.2c-1.5,0-3.1-0.3-4.6-0.2l-0.5-0.1
	c-0.2-0.2-0.1-0.4,0.1-0.5C0.8,31.3,1.3,31.2,1.3,31.2z"/>
<path class="st15" d="M99.5,6.1c0.3,0.2-0.1,0.6,0.3,0.8c-0.2,0.3-0.2,0.6-0.2,1V16l0.1,6.6l-0.1,7l0.1,1l-0.1,0.5
	c-0.1,0.4-0.2,0.3-0.4,0.1l-0.1-1.6v-7.7c0-4.3-0.1-8.5,0-12.8l0.1-2.7C99.2,6.4,99.5,6.1,99.5,6.1z"/>
<path class="st16" d="M80.8,0.8v0.3c-0.4,0.2-0.2,0.7-0.5,1L80,2.2l-1,0.1c-0.2,0-0.3-0.2-0.4-0.4c0-0.6-0.5-0.6-0.9-0.8V0.9V0.8
	c0.4-1.1,1.4-0.6,2.1-0.7C80.2,0,80.9,0,80.8,0.8z"/>
<path class="st7" d="M27.2,6.9l1-0.2c1-0.2,2-0.4,3.1-0.2c-1,0.3-2,0.3-3.1,0.4l-8.4,0.9h-0.6c0.3-0.6,0.9-0.4,1.3-0.4
	C20.5,7.4,27.2,6.9,27.2,6.9z"/>
<path class="st17" d="M22.4,58.2c0.6-0.6,1.3-0.4,2-0.1c0.9,0.3,1.9,0.4,2.9,0.6c0.2,0.4,0.8,0.4,1,0.8L22.4,58.2z"/>
<path class="st1" d="M67.7,68.3c-0.5-0.5-1.4-0.2-1.9-0.9c1,0,1.8,0.6,2.7,0.5c0.8,0.4,1.8,0.3,2.7,0.8c0.3,0.1,0.6,0.2,0.1,0.5
	C70.1,69,68.9,68.7,67.7,68.3z"/>
<path class="st18" d="M17.2,32.3L16.7,32c0.1-0.6,0.5-0.4,0.8-0.4s0.6,0.1,0.5-0.4c0.2-0.4-0.2-0.8,0.2-1.1h0.1
	c0.3,0.2,0.2,0.5,0.3,0.7c0.2,0.2,0.4,0.4,0.4,0.7v0.2l-0.1,0.4l-0.4,0.5c-0.1,0.2-0.1,0.4-0.3,0.5c-0.9,0.2-1,0.1-1.1-0.6
	C17.1,32.5,17.2,32.3,17.2,32.3z"/>
<path class="st3" d="M28.3,59.5c-0.3-0.2-0.9-0.3-1-0.8c1.4,0.9,3.2,0.4,4.7,1c0.4,0.1,0.8,0.4,1.2,0.2c0.5-0.4,0.9-0.1,1.3,0.1
	c0.2,0.1,0.2,0.3,0,0.5c-0.3,0.2-0.6,0.1-0.9,0c-1.3-0.2-2.5-0.8-3.9-0.7C29.2,59.8,28.7,59.7,28.3,59.5z"/>
<path class="st19" d="M98.6,59.3l0.2,0.2c-0.2,0.3,0.1,0.7-0.2,1c-0.4,0.2-0.8,0-1.2,0.2c-0.3,0.2-0.7,0.3-1.2,0.3
	c0.1-0.4,0.4-0.3,0.5-0.5c0.1-0.1-0.1-0.1-0.2-0.1C97.1,59.7,97.8,59.3,98.6,59.3z"/>
<path class="st1" d="M29.8,59.8c-0.2-0.4,0.1-0.3,0.3-0.2l3.9,0.9h0.5c0.1,0.2,0,0.3-0.2,0.3C32.8,60.6,31.3,60.2,29.8,59.8z"/>
<path class="st20" d="M99.4,31.3c0.4-0.1,0-0.6,0.3-0.8c0,1.1,0.1,2.2-0.1,3.3c-0.3-0.2,0.2-0.9-0.5-0.9L99,32.7v-0.4l0.1-0.3
	C99.1,31.8,99.1,31.5,99.4,31.3z"/>
<path class="st21" d="M77.6,0.8V1c0,0.3-0.2,0.3-0.4,0.4c-1.3,0.2-2.6,0.5-3.9,0.5C73.2,1.8,73,1.8,73,1.6
	C74.6,1.2,76.1,1.1,77.6,0.8z"/>
<path class="st22" d="M98.6,61.6c0-0.4,0-0.6-0.5-0.4l-0.9,0.3c0.3-0.5,1-0.5,1.4-0.8c0.3,0.3,0.8,0.1,1.1,0.4
	C99.4,61.3,99,61.6,98.6,61.6z"/>
<path class="st23" d="M18.8,57.4c0.5,0.1,0.7-0.5,1.3-0.3c0.4,0.2,0.8,0.3,0.7,0.8L18.8,57.4z"/>
<path class="st24" d="M18.3,9h-0.1c-0.3-0.4-0.2-0.9-0.1-1.4c0.1-0.2,0.4-0.1,0.6-0.1s0.2,0.2,0.2,0.3c0,0.3-0.4,0.1-0.5,0.4
	C18.6,8.5,18.6,8.8,18.3,9z"/>
<path class="st25" d="M0.8,31.2l-0.2,0.3H0.3C0,31.6,0.3,32,0,32.1v-0.6C0,30.8,0.3,30.8,0.8,31.2z"/>
<path class="st26" d="M73.1,1.5l0.2,0.1C72.9,2.2,72.5,2,72,1.8l-0.3-0.1C71.7,1.7,73.1,1.5,73.1,1.5z"/>
<path class="st27" d="M77.8,67.2c0.1,0.8-0.5,0.4-0.8,0.4l-9.3-2.1c-12-2.6-24.1-5.1-36.2-7.5L31,57.9l-0.3-0.1
	c-0.1,0-0.4,0.1-0.4-0.2c0-0.2,0.2-0.2,0.3-0.3c1.6,0.1,3.2,0.6,4.7,0.9l15.4,3.1c2.2,0.6,4.4,0.9,6.6,1.4l11.8,2.4l7.9,1.7
	C77.4,66.8,77.7,66.8,77.8,67.2z"/>
<path class="st28" d="M18,54l-0.3-0.1c-0.3-0.3-0.2-0.7-0.3-1.1v-5.6l-0.1-5v-8.4c0-0.8,0.2-1,1-0.6l0.1,0.4
	c-0.5,0.7-0.2,1.3,0.1,1.9V53C18.4,53.4,18.5,53.8,18,54z"/>
<path class="st29" d="M18.7,54.9c-0.3-0.1-0.3-0.3-0.3-0.5c0-1.1-0.1-2.1,0-3.2l0.1-1.3V36.5c0-0.4-0.1-0.8,0.1-1.2l0.3-0.1
	c0.3,0.3,0.2,0.7,0.2,1c0.2,4.6,0.2,9.3,0.2,13.9c0,1-0.3,2,0,3.1c0.1,0.5,0.3,0.8,0.8,0.9c0.6,0.1,1.2,0.2,1.8,0.5
	c0.3,0.2,0.6,0.5,0.6,0.9c-0.1,0.3-0.4,0.2-0.6,0.2C20.8,55.4,19.7,55.3,18.7,54.9z"/>
<path class="st30" d="M18.5,51.3c-0.1,1,0.1,2.1-0.1,3.1c0-0.3-0.2-0.3-0.4-0.5c0.3-0.2,0.2-0.6,0.2-0.9V35.2l0.3,0.1
	c0.2,0.9,0.1,1.9,0.1,2.8c0.1,4.3,0,8.5,0,12.8L18.5,51.3z"/>
<path class="st31" d="M17,54.8c0,0.5-0.5,0.3-0.6,0.3C11.4,53.9,6.3,53,1.2,52c-0.2,0-0.3-0.1-0.3-0.3c0.5-0.4,1.1-0.1,1.6,0
	L16,54.3C16.3,54.3,16.8,54.3,17,54.8z"/>
<path class="st32" d="M30.7,57.5l-0.2,0.1l0.2,0.1l0.3,0.2l-8.8-1.8c-1.1-0.2-2.2-0.3-3.2-0.7c-0.1-0.6,0.2-0.4,0.5-0.3
	c1.4,0.4,2.9,0.5,4.4,0.8l0.4,0.1l4.5,0.9C29.4,57,30.2,56.9,30.7,57.5z"/>
<path class="st33" d="M17,54.8c-2.3-0.6-4.6-1-6.9-1.4l-8.9-1.7H0.9l-0.4-0.4l0.2-0.1h0.7c4.7,0.9,9.3,1.9,14,2.7l0.9,0.2
	c0.3,0.2,0.8,0,0.8,0.5C17.1,54.6,17,54.8,17,54.8z"/>
<path class="st34" d="M23.9,56l-4.3-0.8c-0.2,0-0.5-0.3-0.6,0.2l-0.3-0.5c1.2-0.1,2.2,0.4,3.3,0.5c0.2,0,0.3,0.1,0.4,0l0.2-0.1
	l1,0.3C23.8,55.7,24,55.8,23.9,56z"/>
<path class="st35" d="M34.6,60.5c0.2-0.4-0.1-0.4-0.4-0.5c-0.3-0.1-0.6-0.2-0.9-0.1c0.1-0.6,0.6-0.4,0.9-0.3
	c0.8,0.2,1.5,0.6,2.2,0.9C35.8,60.7,35.2,60.2,34.6,60.5z"/>
<path class="st36" d="M17.7,47.2v6.7L17.5,54c-0.2-0.1-0.2-0.3-0.3-0.6v-5.2C17.3,47.8,17.1,47.4,17.7,47.2z"/>
<path class="st37" d="M17,54.6c-0.2-0.4-0.6-0.1-0.8-0.4c0.1-0.5,0.6-0.3,0.9-0.4c0.3,0,0.3,0.3,0.4,0.4
	C17.6,54.8,17.3,54.6,17,54.6z"/>
<path class="st28" d="M17.5,54.2l-0.3-0.3C17,53.6,17,53.3,17.1,53l0.2-0.1c0.3,0.1,0.1,0.4,0.2,0.6C17.5,53.5,17.5,54.2,17.5,54.2z
	"/>
<path class="st38" d="M78.5,67.2L78,67c-0.1,0-0.2-0.1-0.2-0.2c0.2-0.3,0.8-0.4,0.5-0.9v-9.4c0-4.1-0.5-8.2-0.3-12.3
	c0.1-2.5-0.2-4.9-0.2-7.4c0-0.6-0.3-1-1-1.1c-1.4-0.2-2.9-0.1-4.3-0.3c-0.3,0-0.8,0.1-0.6-0.5c0.7-0.2,1.4-0.1,2.1-0.1
	c0.7,0.2,1.3,0.1,2,0.1c0.6,0,1.2,0.1,1.7-0.1c0.4-0.1,0.8,0,1.1,0.4l0.1,1.3v18.9l0.1,1.3l0.1,7.2C79,65,79.3,66.1,79,67.2
	C79,67.2,78.5,67.2,78.5,67.2z"/>
<path class="st39" d="M98.6,59.3l-2,1l-2.7,1.3c-0.3,0.4-0.8,0.6-1.4,0.6l-4.1,2c-1,0.7-2.2,1.2-3.3,1.8l-1.3,0.4L81,67.7
	c-0.4-0.2-0.3-0.4-0.1-0.7l4.7-2.1L99,58.7h0.3C99.3,59.1,98.8,59,98.6,59.3z"/>
<path class="st40" d="M77.8,66.8L78,67l-0.2,0.2c-1.6-0.5-3.2-0.8-4.8-1.1l-19.1-3.9c-1.1-0.2-2.2-0.3-3.2-0.7l0.1-0.1
	c0.2-0.2,0.5-0.2,0.7-0.2c2.7,0.4,5.4,1.1,8.1,1.6l0.8,0.1L75.1,66C76,66.2,77,66.2,77.8,66.8z"/>
<path class="st41" d="M81,67c0,0.2-0.2,0.5,0.1,0.7c-0.8,0.5-1.6,0.6-2.5,0.2c-0.6-0.2-0.4-0.4-0.1-0.7h0.3c0.4-0.3-0.1-0.8,0.3-1.2
	h1.1c0.3,0.2,0.3,0.5,0.3,0.8c-0.3,0.5,0.3,0.1,0.3,0.3C80.8,67.1,81,67,81,67z"/>
<path class="st42" d="M83.9,66.4c1.5-0.8,3-1.5,4.6-2.2c-0.6,1-1.6,1.8-2.8,2L83.6,67c0.1-0.4,0.4-0.4,0.5-0.5
	C84.1,66.5,83.9,66.4,83.9,66.4z"/>
<path class="st43" d="M92.5,62.2c0.4-0.3,0.9-0.5,1.4-0.6c0.4,0.5,0.6-0.3,1-0.1c-0.3,0.5-1.4,1.1-2.4,1.2
	C92.1,62.5,93.2,62.5,92.5,62.2z"/>
<path class="st44" d="M99.4,39v18.4L99,57.8c-1.9,0.9-3.7,1.8-5.7,2.5c-0.4,0-0.7,0-0.9,0.4c-0.4,0.4-0.9,0.5-1.4,0.6
	c-0.4-0.1-0.7,0.1-1,0.2l-2.5,1c-0.3,0.2-0.5,0-0.4-0.4l0.2-0.4c0.8-0.6,0.5-1.3,0.2-1.9c-0.6-1.1-0.5-2.4-0.4-3.6
	c0-0.6,0.5-1,0.9-1.5c0.3-0.3,0.4-0.6,0.2-0.9c-0.2-0.5-0.2-0.9,0.2-1.4c0.2-0.2,0.3-0.4,0.1-0.6c-0.4-0.5-0.2-0.9,0-1.3
	c0.3-0.8,0.4-1.7,0.3-2.5v-3c-0.1-0.5,0.1-0.9,0.4-1.3c0.4-0.4,0.5-0.8,0.2-1.2L89,41.3c-0.2-0.4,0-0.8,0.4-0.9
	c0.4-0.2,0.6-0.5,0.8-0.9l0.1-0.1c0.7-0.8,1.1-1.6,0.7-2.8c-0.2-0.5,0.5-1.1,0.8-1.8c1.1-0.3,2.2-0.3,3.3-0.5l3.5-0.4
	c0.5-0.1,0.6,0,0.7,0.5c0.3,1.3,0.1,2.6,0,4C99.1,38.7,99.1,39,99.4,39L99.4,39z"/>
<path class="st45" d="M91.6,34.9c0.3,0.5-0.2,0.9-0.4,1.2c-0.2,0.4-0.3,0.7-0.1,1.1c0.3,0.6,0.4,1.2-0.4,1.6
	c-0.2,0.1-0.2,0.3-0.3,0.5c-0.2,0.5-0.3,1.2-1.1,1.3c-0.2,0-0.3,0.2-0.3,0.4c0.3,0.4,0.1,1.1,0.5,1.4c0.5,0.6,0.2,1-0.2,1.4
	c-0.4,0.4-0.4,0.8-0.4,1.3v3.3l-0.2,2.1c0,0.2-0.1,0.3-0.2,0.3c-0.3,0.2-0.4,0.5,0,0.7s0.4,0.6,0,0.9c-0.6,0.4-0.5,0.8-0.2,1.3
	c0.3,0.4,0.3,0.6-0.2,1c-0.9,0.7-1.1,1.8-0.9,2.9c0.1,1.1,0.3,2.2,1.1,3.1c0.2,0.2,0,0.4-0.2,0.4c-0.6,0.2-0.6,0.7-0.9,1.2
	c0.9-0.5,2-0.6,2.9-1.1c0.3-0.2,0.6-0.4,1-0.1c-0.1,0.4-0.4,0.5-0.7,0.6l-8.6,3.9c-0.3,0.1-0.6,0.3-0.9,0.1l-0.1-0.3l-0.1-6.7
	c-0.2-4.9-0.1-9.7-0.2-14.6l0.2-2.8v-4.6c0-0.5,0.1-0.7,0.7-0.8l9.2-1.1C90.6,34.8,91.6,34.9,91.6,34.9z"/>
<path class="st44" d="M80.7,67c-0.1-0.2-0.5,0.5-0.5-0.1c0.2-0.6-0.1-1.1-0.1-1.7c0.1-5.8-0.2-11.7-0.1-17.5v-6.3
	c0-1.7-0.3-3.5-0.2-5.2c0-0.4-0.1-0.9,0.3-1.2l5.1-0.6l5.3-0.6l6-0.7c0.2,0,0.5,0,0.7,0.2h0.5v0.1l-4,0.5l-6.5,0.8l-5.4,0.7
	c-0.4,0-0.8-0.4-1,0.1c-0.3,0.5-0.4,1-0.4,1.5v4.9c0,0.3-0.1,0.6,0.2,0.9l0.1,0.3v0.5c-0.1,7.1,0.1,14.2,0.1,21.4
	c0,0.3-0.1,0.7,0.2,0.9c0.3,0.2,0.5,0,0.7-0.1l7.7-3.5l8.8-4c0.5-0.2,1-0.3,1.2-0.9c0.3,0.2,0.1,0.5,0.2,0.8l-9.1,4.2l-9,4.2
	L80.7,67L80.7,67z"/>
<path class="st46" d="M97.3,33.3c-1.7,0.2-3.3,0.5-5,0.6l-3.6,0.4l-5.6,0.6c-0.9,0.1-1.9,0.3-2.8,0.2c0.1-0.3,0.4-0.4,0.7-0.5
	l7.2-0.9l8.2-0.9l2-0.2c0.3,0,0.5,0,0.8,0.2V33C98.5,33.3,97.8,32.9,97.3,33.3z"/>
<path class="st47" d="M80.9,65.9c-0.6-0.1-0.3-0.6-0.3-0.9V42.8c0.1-0.4-0.1-0.9,0.2-1.3C80.8,41.5,80.9,65.9,80.9,65.9z"/>
<path class="st48" d="M71.9,1.8c0.4-0.1,0.9,0.1,1.3-0.2c1.5-0.1,3-0.2,4.4-0.7c0.6-0.1,1.2-0.1,1,0.8l0.2,1.4v28.6
	c0,1.1,0,1.2-0.8,1.3c-0.2-0.1-0.6-0.2-0.3-0.4c0.5-0.4,0-0.5-0.1-0.8l0.2-0.2l0.1-1.7v-7.1v-4.9v-6.5l-0.1,9.8v8.4
	c0,0.8,0.2,1.5-0.2,2.2c-0.3,0.3-0.7,0.2-1.1,0.2c-2.7,0-5.3-0.3-8-0.3c-2.6,0-5.2-0.3-7.8-0.2l-1.2-0.1c-0.8-0.2-1.6-0.1-2.5-0.1
	h-1.3l-0.4-0.1c-0.8-0.2-1.6-0.1-2.4-0.1c-0.7,0-1.4,0.1-2.1-0.1c-1-0.2-2-0.1-3-0.1c-0.7,0-1.5,0.1-2.2-0.1
	c-0.4-0.3-0.3-0.6,0.2-0.6l1.9-0.2c1.4,0.2,2.8,0,4.2,0H56c0.4,0,1,0,0.9-0.7c-0.2-0.5-0.1-1-0.1-1.5V7V6.4l-0.2-0.1
	c-1.2,0-2.3,0.2-3.5,0.3C52.5,6.9,52,7,51.4,6.8c0-0.5,0.1-1,0.3-1.4c0.3-0.2,0.7-0.2,1.1-0.3L62.1,4l15.2-1.9c0.2,0,0.5,0,0.7-0.3
	h-1.4C72.8,2.2,69,2.9,65.1,3.3c-0.5,0.1-1,0.3-1.4-0.3l7.9-1C71.6,2,71.9,1.8,71.9,1.8z"/>
<path class="st49" d="M63.7,3c1,0.4,2,0,3-0.1l8-1.1l3-0.4c0.3,0,0.6-0.1,0.7,0.3s-0.2,0.6-0.5,0.6c-1.4,0-2.8,0.4-4.2,0.5l-6.1,0.7
	l-6,0.8L57,4.9l-4.2,0.4c-0.2-0.3,0.1-0.5,0.3-0.5l2.4-0.3c-0.5,0.1-1.6,0.1-2.6,0.4c-1.8,0.4-3.6,0.5-5.3,0.7
	c-0.3,0-0.7,0.1-0.9-0.4l16.6-2.1C63.3,3.1,63.7,3,63.7,3z"/>
<path class="st50" d="M46.7,5.1c1,0.4,2,0,2.9-0.1l6.3-0.7c-0.8,0.3-1.6,0.3-2.4,0.4c-0.4,0-0.7,0-0.8,0.5c-0.3,0.2-0.6,0.2-1,0.2
	c-0.2,0.1-0.4,0.2-0.6,0.1c-0.3-0.4,0.1-0.3,0.3-0.4c-0.7,0.4-1.5,0.1-2.2,0.5L49,6.1c-0.2,0.2-0.4-0.2-0.6-0.1l-4.9,0.5
	c-0.3,0-0.6,0.1-0.7,0.4c-0.3,0.4-0.6,0.3-0.9,0.1c-0.5-0.4-1-0.4-1.6-0.1L38.5,7h-0.2l-1.1,0.1c-0.7,0-0.9,0.4-1,1
	c-0.2,0.2-0.4,0-0.4-0.2c-0.1-0.5-0.4-0.5-0.9-0.5c-0.8,0.1-1.5,0-2.3,0.3c-0.3,0.1-0.6,0.2-0.7,0.6c0,0.2-0.1,0.4-0.4,0.3
	c-0.2-0.8-0.7-0.8-1.4-0.7c-0.3,0-0.7,0-0.9-0.3c0.4-0.2,0.9-0.3,1.3-0.3c-0.9,0.1-2,0.5-3.1,0.6l-5.5,0.5c-0.4,0-0.9,0.2-1.2-0.4
	l9.9-1.1l9.5-1c0.7,0.1,1.4-0.1,2.1-0.1c1.2-0.1,2.4-0.4,3.7-0.4c0.1,0,0.1,0,0,0l-0.1-0.1C46.1,5.1,46.4,5.1,46.7,5.1z"/>
<path class="st51" d="M20.8,8.1c0.6,0.3,1.2,0.1,1.7,0.1l8.1-0.9l0.5,0.1l-1.6,0.3v0.1l0.8,0.1l-1,1.1c-0.4-0.6-0.9-0.6-1.5-0.6
	l-7.7,0.8c-1,0.1-1.1,0.2-1,1.2c0.1,0.8,0.1,1.7-0.1,2.5v1.7c0.3,3.4,0.1,6.8,0.1,10.3c0,1.8,0,3.6,0.2,5.3h-0.6
	c-0.3-0.2-0.1-0.6-0.1-0.8V9.8c0-0.5-0.3-1.1,0.2-1.5C19.5,8.2,20.1,8,20.8,8.1z"/>
<path class="st52" d="M18.8,8.2l-0.2,1.1v20c0,0.3-0.1,0.6,0.2,0.9c0.2,0.3,0.6,0.1,0.7,0.4c0,0.2-0.2,0.2-0.3,0.3h-0.7
	c-0.3-0.2,0-0.6-0.2-0.8c0.3-0.2,0.2-0.4,0.2-0.7V9.8c0-0.2,0.1-0.5-0.1-0.7l0.1-0.8L18.8,8.2z"/>
<path class="st53" d="M45.8,5.2c0.2,0.1,0.4-0.1,0.5,0.1L41.2,6c-0.4,0-0.8,0.2-1.2-0.1L45.8,5.2z"/>
<path class="st54" d="M81.4,1.4l12.7,3.3l5.4,1.4h-0.1l-0.1,1.5C99.2,8,99,8.2,98.7,8c-1.6-0.7-3.3-0.3-5-0.3
	c-1.1-0.1-2.2-0.5-3-1.2c-0.2-0.2-0.4-0.4-0.3-0.7c0.1-0.4,0.4-0.5,0.9-0.4C89.1,4.6,87,4.2,85,3.7l-3.2-0.8c-0.6-0.2-0.7,0-0.7,0.6
	v28.3c0.1,0.5,0.5,0.4,0.8,0.3l4.4-0.2c1.7,0,3.4-0.2,5.1-0.4l4.5-0.3l2.4-0.2c0.3,0,1-0.1,0.4,0.6c-1.2,0.3-2.4,0.3-3.6,0.4
	l-8.6,0.8l-5.4,0.5l-0.5-0.1c-0.4-0.3-0.3-0.7-0.3-1.1V18.9c0.2-5.4,0-10.8,0.1-16.2V2.6C80.4,1.3,80.4,1.3,81.4,1.4z"/>
<path class="st55" d="M81.4,1.4c-0.8,0-0.9,0.4-0.8,1.2c0.1,4.9,0.2,9.8,0,14.7c-0.2,4.8,0,9.6-0.1,14.5c0,0.4-0.1,0.8,0.2,1.2
	c-0.2,0.1-0.3,0.1-0.4-0.1C80,32.6,80,32.3,80,32V14.8V3.2c0-0.5,0-0.9,0.2-1.2s-0.6-1.1,0.5-0.9L81.4,1.4L81.4,1.4z"/>
<path class="st56" d="M17.2,52.9v1c-0.3,0.3-0.7,0-1,0.3l-8.1-1.5l-7-1.4C1.3,50.8,1.7,51,2,51c3.5,0.6,7,1.2,10.4,2l3.4,0.7
	c0.3,0.1,0.6,0.1,0.8-0.2c0.3-0.4,0.2-0.8,0.2-1.3c-0.3-2-0.1-4-0.1-6.1V40c0-2-0.3-4-0.2-6c0-0.7-0.3-0.8-0.9-0.8l-5.7-0.3
	l-1.7-0.1H6.6c-0.3,0-0.6,0-0.8-0.3c0-0.2,0.2-0.3,0.4-0.3l1.5,0.1c-1.4-0.1-3,0.1-4.5-0.2L1.7,32C1.1,32,1,32.2,1,32.5v10.2
	l0.1,1.2c0.2,1.8,0,3.5,0.1,5.3l-0.1,1.2c-0.3,0.6-0.4,0-0.6-0.1L0.3,31.5h0.3c1.3,0.3,2.6,0.2,3.9,0.3l12.2,0.5
	c0.5,0.4,0.6,0.9,0.6,1.5v6.8l0.1,4.1v7.9C17.4,52.6,17.2,52.9,17.2,52.9z"/>
<path class="st57" d="M0.5,50.3c0.4-0.2,0.3,0.3,0.4,0.4c0.6-0.2,1.1,0,1.7,0.1l13.3,2.6c0.3,0.1,0.6,0.1,0.8,0.4
	c-1,0.4-1.9-0.1-2.8-0.3L1.6,51.2l-0.4,0.1c-0.2,0-0.4,0.1-0.5-0.2C0.7,51.1,0.5,50.3,0.5,50.3z"/>
<path class="st37" d="M17.2,52.9v-0.2c0.1-6.3-0.3-12.6-0.2-19l-0.3-1.5h0.5l0.2,1.6l0.1,5.7l-0.1,13.2v0.1
	C17.4,52.8,17.2,52.9,17.2,52.9z"/>
<path class="st0" d="M80.8,4.3c0-0.6-0.2-1.4,0.1-1.7c0.3-0.4,1,0.2,1.5,0.3l8,2c0.4,0.1,0.8,0.6,1.5,0.2c-0.3,0.5-0.6,0.5-0.9,0.5
	c-0.4,0.1-0.8,0.4-0.3,0.7c0.9,0.7,2,1.1,3.2,1.2C95.6,7.5,97.4,7,99,8c0.2-0.7,0.1-1.3,0.4-1.9v15.7C99,22,99,21.6,98.9,21.4
	l-0.1-1.7v-3.8c0-0.4,0-0.8-0.4-1s-0.7,0.2-1,0.3c-0.7,0.4-0.9,0.9-0.9,1.7c0,0.3,0.1,0.6-0.1,0.8c-0.7,0.8-1.1,1.7-1.3,2.7
	c-0.1,0.2-0.2,0.5-0.4,0.6c-1.6,1.2-1.5,3.3-2.4,4.8c-0.1,0.1-0.1,0.3,0,0.4c0.3,1.4-0.2,2.6-0.9,3.7c-0.2,0.3-0.1,0.4,0.1,0.6
	c0.2,0.3,0.3,0.5-0.1,0.8c-2,0.3-4,0.4-6.1,0.5c-0.5-0.3-1-0.6-1.6-0.6c-0.3,0-0.5-0.2-0.3-0.6c0.3-0.9,0.3-1.9,1-2.7v-0.5
	c-0.3-0.3-0.2-0.7-0.3-1.2c0-0.5,0.1-0.7,0.5-0.9c0.5-0.2,0.6-0.6,0.5-1.1c-0.1-0.4,0.1-0.7,0.4-1.1c0.6-0.6,1.2-1.3,1.9-1.8
	c0.5-0.4,0.9-0.8,1.2-1.4c0.1-0.3,0.4-0.6,0.7-0.7c0.2-0.1,0.5,0,0.5-0.3s-0.2-0.4-0.5-0.5s-0.6-0.1-0.6-0.4c0-0.4,0.3-0.5,0.7-0.7
	c-0.6-0.3-0.8-0.6-0.4-1.2c0.1-0.2,0.3-0.5-0.1-0.5c-1,0-1.3-0.8-1.5-1.5L87,12.4c-0.1-0.6-0.4-0.9-1-0.9c-0.8,0.1-1.4-0.3-2-0.6
	c-0.4-0.2-0.5-0.7-0.5-1.1c0-0.2,0.1-0.4-0.1-0.6c-1-1.1-2-2.2-2.1-3.7C81.1,5.2,81.1,4.7,80.8,4.3L80.8,4.3z"/>
<path class="st58" d="M91.4,31.1c-0.7-0.7-0.5-1.3,0.1-2c0.3-0.3,0.3-0.9,0.6-1.4c0.2-0.4,0-0.8-0.1-1.2c-0.2-0.9,0.4-1.6,0.6-2.4
	c0.3-0.7,0.8-1.4,0.7-2.2c0-0.3,0.1-0.5,0.4-0.6c0.9-0.5,1.4-1.1,1.4-2.2c0-0.3,0.3-0.7,0.6-0.9c0.5-0.4,0.6-0.9,0.6-1.5
	c0-1,0.9-2,1.8-2.2c0.3-0.1,0.5,0.1,0.6,0.3l0.3,1.3v5.2c0,0.2,0.1,0.4,0.3,0.4v9.5l-0.2-0.1c-0.1-0.5-0.5-0.5-0.9-0.5l-6.5,0.5
	C91.6,31.3,91.5,31.3,91.4,31.1z"/>
<path class="st59" d="M78.9,2.1c0.3-0.3,0.6-0.2,1-0.1l0.2,0.3v11v18.3c0,0.2-0.1,0.4-0.4,0.5c-0.3,0.1-0.6,0.1-0.8-0.2v-1V3.3
	C78.8,2.9,78.7,2.5,78.9,2.1z"/>
<path class="st60" d="M78.9,2.1v29l0.1,0.8c0.1,1.2,0.1,1.3-1.3,1.5c-0.4,0.1-0.8,0-1.2-0.2c-0.2-0.1-0.4-0.1-0.2-0.4
	c0.5-0.2,1-0.3,1.4,0c1.1,0.1,1,0.1,1-1V20.4V1.7C78.7,1.7,78.9,2.1,78.9,2.1z"/>
<path class="st61" d="M80,2.1L79.9,2h0.3v12.8c-0.6-0.3-0.3-0.8-0.3-1.1c0.2-3.4,0-6.8,0.1-10.2V2.1z"/>
<path class="st62" d="M76.1,32.9c0.4,0.4,1,0.1,1.5,0.4c0.3,0.3,0.3,0.6,0.2,1c-0.1,0.4-0.3,0.6-0.8,0.6c-2.2,0-4.3-0.3-6.5-0.1
	c-0.6,0.1-1.1-0.2-1.7-0.2l-8.7-0.4L53,33.9l-8-0.4l-3.3-0.1l-5.5-0.2c-3.2-0.1-6.3-0.3-9.5-0.5c-0.6-0.2-1.2-0.1-1.8-0.1
	c-1.7,0.1-3.5-0.2-5.2-0.2c-0.3,0-0.7,0-0.8-0.4l0.1-0.3c0.4-0.3,0.8-0.3,1.3-0.2l2,0.1l10.4,0.5l4.4,0.2L49,32.9l7.3,0.3l10.6,0.5
	c1.2,0.1,2.5,0.2,3.8,0.1c1.2,0.2,2.4,0,3.6,0.2l1.7,0.1L71.3,34c-1.7-0.2-3.3-0.2-5-0.2L55,33.3c-2.2-0.1-4.5-0.1-6.7-0.3l-8.4-0.4
	l-9.5-0.5l-3-0.2c-0.5-0.1-1,0.1-1.5-0.2c0.1-0.5,0.5-0.4,0.8-0.4h2.2l2,0.1c0.9,0.2,1.8,0.1,2.7,0.1c2.4-0.1,4.7,0.2,7.1,0.2
	l6.4,0.3l2.3,0.1l0.8,0.1c2.4-0.1,4.8,0.1,7.3,0.2l10.2,0.3L75,33C75.4,32.9,75.7,32.8,76.1,32.9z"/>
<path class="st63" d="M18.2,33.7v-0.3c0.2-0.1,0-0.4,0.1-0.5v-0.6c1-0.3,2,0,3.1,0l3.2,0.1l8.6,0.4l0.3,0.1c0,0.3-0.3,0.1-0.4,0.2
	c1.3-0.3,2.7,0.1,4.1,0.1l1.4,0.1c2,0,4,0.2,5.9,0.3c0.2,0,0.5,0,0.6,0.3c0.1,0.2-0.1,0.4-0.3,0.5c-0.3,0.2-0.7,0.1-1,0.1l-4.2-0.2
	c-0.8-0.1-1.2,0.1-1.4,0.9c-0.4,0.2-0.8,0.3-1.2-0.1c0-0.3,0.2-0.3,0.4-0.3c0.2-0.1,0.4-0.1,0.3-0.4c0-0.3-0.2-0.3-0.5-0.3h-1.7
	c-1.6,0.1-3.2-0.2-4.9-0.2l-1.8-0.2c-0.5,0-0.9-0.3-1.4,0c-0.8-0.1-1.6-0.4-2.4-0.1c-0.4,0-0.8-0.1-1.2-0.2h-2l-1-0.1
	c-0.2,0-0.4-0.2-0.7-0.1c0,0.5,0.7,1,0,1.4c-0.5,0.2-0.7-0.1-1-0.5C18.8,33.9,18.4,34.1,18.2,33.7z"/>
<path class="st64" d="M70.7,33.8l-13-0.5L49.8,33L37,32.5L25.7,32L19,31.7v-0.1l0.1-0.1l0.6-0.2l5.4,0.2c0.3,0,0.5,0,0.8,0.2h1.4
	c1,0.2,2-0.1,3,0.2l15,0.7l14.9,0.6l11,0.5C71.2,34,70.9,33.8,70.7,33.8z"/>
<path class="st65" d="M30.8,31.5h-1.9c-0.8-0.2-1.6-0.1-2.4-0.1c-2.2,0-4.5,0-6.7-0.2c-0.3,0-0.5,0-0.6,0.3h-0.1
	c-0.2-0.2-0.2-0.5-0.5-0.6l0.6-0.2c8.2-0.1,16.5,0.6,24.7,0.8c0.8,0.2,1.7,0.1,2.5,0.1c0.7,0.1,1.5-0.1,2.2,0.1l0.1,0.2
	c-0.5,0.3-1.1,0-1.7,0.2l-10.5-0.4l-3.1-0.1C32.6,31.4,31.7,31.7,30.8,31.5z"/>
<path class="st66" d="M18.3,32.9c0,0.2,0.1,0.4-0.1,0.5c0-0.3-0.2-0.3-0.4-0.3c-0.3,0-0.2,0.3-0.2,0.5l0.1,5.5l0.1,8.1
	c-0.2,0.3-0.1,0.6-0.1,0.9v5.4L17.6,53l-0.1-15.4l-0.1-5.2C17.3,32.9,17.7,33.1,18.3,32.9z"/>
<path class="st67" d="M24.6,32.6l-6.2-0.3c0.1-0.2,0.4-0.1,0.5-0.4c1,0.4,2.1,0.1,3.1,0.3l2.9,0.1l0.1,0.1
	C24.9,32.6,24.7,32.5,24.6,32.6z"/>
<path class="st68" d="M99.1,32.8l-9,1l-9.4,1c-0.4-0.2-0.3-0.5-0.2-0.8c1-0.5,2.1-0.3,3.1-0.5l5.7-0.6l4-0.4l4.4-0.5
	c0.5-0.1,1-0.3,1.4,0.2V32.8z"/>
<path class="st69" d="M99.3,31.3h0.2L99.2,32h-0.1c-1.1-0.2-2.3,0-3.4,0.1l-6.6,0.6c-2.2,0.2-4.5,0.3-6.7,0.6h-1.5
	c-0.3,0-0.6,0-0.8-0.3c0-0.1,0.1-0.2,0.2-0.1h0.3l18.2-1.7C98.8,31.2,99.3,31.3,99.3,31.3z"/>
<path class="st70" d="M99.1,32.3c-1.6-0.1-3.1,0.3-4.6,0.4l-10.9,1.1l-3,0.3c-0.1-0.1-0.1-0.3,0-0.4c0.6-0.3,1.2-0.3,1.8-0.3
	l7.8-0.8l8-0.8c0.3,0,0.5-0.1,0.8,0.1h0.1C99.1,31.9,99.1,32.3,99.1,32.3z"/>
<path class="st71" d="M30.7,57.5c-1.8-0.5-3.6-0.7-5.4-1.1l-1-0.3l0.4-0.2h1l17.9,3.6c2.2,0.5,4.3,1,6.6,1.3
	c0.4,0.1,0.7,0.2,0.8,0.6l-0.1,0.1c-2.2-0.3-4.3-0.8-6.5-1.2C44.4,60.3,30.7,57.5,30.7,57.5z"/>
<path class="st72" d="M18.2,33.7c0.3,0.2,0.8-0.2,1,0.3c0,0.4,0.2,0.7,0,1.1l-0.3,0.2h-0.6h-0.1C17.5,34.7,17.6,34.2,18.2,33.7z"/>
<path class="st73" d="M18.8,35.3l0.2-0.2c0.3-0.2,0.4,0,0.6,0.2s0.4,0.4,0.8,0.3c0.3-0.2,0.5-0.5,0.5-0.9c0.1-0.5-0.2-0.9-0.1-1.4
	c0.3-0.2,0.6,0.1,0.8,0c0.2,0.2,0.1,0.5,0.3,0.7c0.5,0.1,1,0.2,1.5-0.1l0.3-0.6c0.4,0.2,0.8,0,1.2,0.3c0.3,0.4,0.2,0.8,0.2,1.3
	c0,0.9,0,0.9,0.9,1h0.5c0.4,0.1,0.6,0,0.6-0.4c0-0.3-0.1-0.7,0.2-0.9c0.4,0,0.4,0.4,0.7,0.6c0.2-0.3,0.4-0.5,0.2-0.9
	c-0.2-0.3-0.4-0.4-0.7-0.1c-0.1,0.1-0.2,0-0.3-0.1v-0.2c0.4-0.7,0.9-0.2,1.4-0.2l0.3,0.5c0.1,0.4,0.3,0.6,0.8,0.6s0.5-0.3,0.6-0.6
	l0.1-0.3c1.7-0.1,3.4,0.2,5.1,0.2c0.3,0.4,0.2,0.9,0.1,1.3c-0.1,0.2-0.3,0.3-0.5,0.2c-0.7-0.2-1.5-0.1-2.2-0.2
	c-0.8-0.1-1.1,0.1-1.1,1v18c0,0.7,0.3,1,0.9,1.1c2.5,0.3,4.9,0.9,7.3,1.4l1.7,0.4c0.3,0.2,0.5,0.2,0.8,0.2c1,0.3,2.2,0.3,3.2,0.8
	c0.5,0.3,1,0.4,1.5,0.5c0.4,0.1,0.8,0.2,1.2,0.5c0,0.3,0,0.7-0.2,1c-0.7,0.1-1.3-0.1-1.9-0.3c-0.3-0.6-0.7-0.5-1.2-0.2
	c-0.8,0-1.6-0.1-2.3-0.5L42.7,59c-0.9-0.2-1.9-0.8-2.9-0.2c-2.6-0.4-5.2-1-7.7-1.5l-4.2-0.9c-0.3-0.1-0.5-0.1-0.7-0.3
	C27,55.8,27,55.5,27,55.2c0-0.5-0.3-0.7-0.7-0.8c-0.4-0.1-0.6,0.1-0.6,0.5c0,0.3,0,0.6-0.2,0.9L25,55.9c-0.3-0.2-0.3-0.6-0.3-0.9
	c0-0.4-0.1-0.7-0.4-1c-0.2-0.2-0.6-0.4-0.8-0.1c-0.4,0.6-1.2,0.7-1.7,1.2l-2.4-0.5c-0.3,0-0.6-0.1-0.5-0.4c0.1-0.8-0.4-1.7-0.1-2.5
	l0.1-0.8V40.7C18.9,40.7,18.8,35.3,18.8,35.3z"/>
<path class="st74" d="M22,54.7l0.2-0.4c0.6-0.2,1.1-0.6,1.5-1.1c0.4-0.4,1.3,0.2,1.4,1v1.1c0.1,0.4-0.3,0.5-0.5,0.7h-0.4l-0.3-0.1
	l-0.3-0.3c-0.3-0.2-0.7-0.1-1-0.3h-0.2C22.2,55.3,22,55,22,54.7z"/>
<path class="st73" d="M18.3,35.2h0.3v15.2c0,0.3,0.1,0.6-0.1,0.9l-0.1-12.7C18.5,37.5,18.4,36.4,18.3,35.2z"/>
<path class="st75" d="M22.6,55.4c0.4,0,0.8-0.2,1,0.3C23.3,55.8,22.9,55.8,22.6,55.4z"/>
<path class="st76" d="M44.7,34.4c0.1-0.3,0.4-0.5-0.2-0.5l-6.7-0.3c-1.8-0.1-3.5-0.3-5.4-0.3c0.4-0.2,0.8-0.1,1.1-0.2
	c0.5-0.2,1-0.1,1.4-0.1c0.7,0.2,1.5,0.1,2.2,0.1l9.8,0.5l7.6,0.4l10.1,0.5l2.9,0.1l3.8,0.2c0.2,0,0.6-0.2,0.7,0.2
	c0.7,0.4,1.4,0.2,2.1,0.3c0.9,0.2,1.9,0.1,2.8,0.2c0.9,0.1,1.1,0.6,1.1,1.2c0,2.5,0.3,5,0.2,7.5c-0.5-0.1-0.3-0.5-0.4-0.8
	c-0.1-0.6,0.1-1.2-0.2-1.8c-0.2-1.3-0.1-2.6-0.1-3.8s-0.1-1.3-1.3-1.3l-6.1-0.3c-1.2-0.1-2.3-0.3-3.5-0.2l-6.1-0.3l-5.1-0.3
	c-1-0.3-1.9-0.1-2.9-0.1h-2.2c-0.8-0.4-1.6-0.3-2.5-0.3H47c-0.7-0.4-1.4-0.5-2.1-0.2L44.7,34.4C44.7,34.5,44.7,34.4,44.7,34.4z"/>
<path class="st77" d="M77.7,41.5c0.5,0.1,0.3,0.4,0.3,0.7c0.1,0.6-0.2,1.3,0.2,1.9v5.6c0.5,5.5,0.2,11,0.3,16.6
	c-0.3,0.1-0.6-0.1-0.9-0.1c-0.2-0.2-0.9,0-0.4-0.6c0.5-0.3,0.4-0.8,0.4-1.3l-0.1-9.2v-12v-0.8C77.4,41.9,77.4,41.7,77.7,41.5z"/>
<path class="st78" d="M80.6,33.8v0.4c0.1,0.2-0.1,0.5,0.1,0.7l-0.5,0.2c-0.3,0.3-0.1,0.7-0.2,1l-0.2,0.3l-0.4,0.1l-0.6-0.1
	c-0.4-0.4,0-0.9-0.2-1.2c-0.3-0.2-0.6-0.1-1-0.1c-0.1-0.2-0.1-0.5,0-0.7v-0.9v-0.1c0.9,0,1.2-0.5,1.3-1.3h0.8c0.8,0.1,0.3,0.6,0.4,1
	c0.2,0.3,0.5,0.1,0.7,0.2C80.9,33.4,80.8,33.6,80.6,33.8L80.6,33.8z"/>
<path class="st79" d="M77.8,66c0.3-0.3,0.4,0.1,0.7,0.2c0.2,0.2,0.2,0.4-0.1,0.5c-0.2,0-0.4,0-0.5,0.2l-17.4-3.7
	c-0.1-0.3,0.1-0.3,0.3-0.4l4.6,0.8l2.4,0.5l8.6,1.7C76.9,65.9,77.3,66.2,77.8,66L77.8,66z"/>
<path class="st80" d="M78.6,35.1c0.4,0.3-0.1,0.9,0.3,1.2c0.2,0.2,0.2,0.4,0.2,0.7c0,3.4,0.1,6.7-0.1,10.1v8.6
	c0,0.4,0.1,0.8-0.3,1.1l-0.1-4.1V35.1z"/>
<path class="st81" d="M78.8,56.8l0.1-8.8c0-0.3-0.1-0.7,0.1-0.9c0.4,0.3,0.3,0.7,0.3,1.1v11.7V63c0,0.3,0.1,0.7-0.4,0.9
	C78.9,63.9,78.8,56.8,78.8,56.8z"/>
<path class="st82" d="M77.6,34.2v0.7c-0.5,0.3-1.1,0-1.6,0.1c-0.7-0.2-1.3,0-2-0.1l-2.1-0.1c-1.2-0.3-2.4-0.1-3.5-0.2l-1-0.1
	c0.4-0.3,0.9,0,1.4-0.2l8,0.3C77.3,34.8,77.6,34.7,77.6,34.2z"/>
<path class="st83" d="M78.8,63.9c0.3-0.8,0.1-1.7,0.1-2.6v-1.4c0.4,0.1,0.4,0.5,0.4,0.7v4.6c0,0.3-0.1,0.5-0.3,0.7
	c-0.4,0.3,0.1,0.9-0.4,1.1C78.9,66.1,78.7,65,78.8,63.9z"/>
<path class="st76" d="M74,35l2,0.1C75.4,35.1,74.7,35.2,74,35z"/>
<path class="st84" d="M50.8,61.4l-0.7-0.5c-0.6-0.1-1.3,0.1-1.6-0.7v-0.6c0.1-0.2,0.2-0.4,0.4-0.4c0.3-0.1,0.6-0.1,0.8,0.1
	c0.5,0.5,1,0.7,1.4,0c-0.2-0.3-0.5-0.2-0.8-0.1c-0.5,0.2-0.8,0.1-0.8-0.5l0.1-0.3l0.9-0.4H51c1.2,0.5,1.5,1.2,1.4,2.5l-0.5,0.8
	l-0.5,0.1C51.4,61.4,50.8,61.4,50.8,61.4z"/>
<path class="st85" d="M51.4,61.3l0.4-0.1c0.4-0.2,0.8-0.1,1.2,0l7.3,1.4c0.2,0.1,0.5,0,0.5,0.4l-0.4,0.2
	C60.4,63.2,51.4,61.3,51.4,61.3z"/>
<path class="st86" d="M79.1,66.1c0-2,0.1-4.1-0.1-6.1l-0.1-12.9v-9.9v-0.9h0.6c0.3,0.3,0.2,0.6,0.2,1v4.4l0.1,1
	c0.1,2.3,0.2,4.7,0.1,7L80,65.2c0,0.3,0.1,0.6-0.1,0.9C79.8,66.4,79.4,66.2,79.1,66.1z"/>
<path class="st87" d="M80.1,66.1c-0.2-0.3-0.2-0.6-0.2-1V47l-0.1-4.4V37c0-0.3,0-0.5,0.2-0.8l0.1-0.2c0.3,5.8,0.1,11.6,0.2,17.5
	l0.1,12.1c0,0.4,0.1,0.9-0.1,1.3C80.2,66.6,80.4,66.3,80.1,66.1z"/>
<path class="st88" d="M99.4,57.4c0,0.3,0,0.6-0.4,0.7c-4.2,1.8-8.3,3.7-12.4,5.6l-4.8,2.2c-0.2,0.1-0.6,0.6-0.9,0l4-1.8l6.1-2.8
	c0.4-0.2,0.9-0.3,1.3-0.6c2-0.9,4.1-1.8,6.1-2.8C98.4,57.9,99.4,57.4,99.4,57.4z"/>
<path class="st45" d="M93.2,60.3c-0.3,0.1-0.6,0.2-0.8,0.4C92.5,60.2,92.7,60.1,93.2,60.3z"/>
<path class="st52" d="M19.3,30.2c-0.3-0.2-0.5-0.3-0.4-0.8c0.1-1.1,0.2-2.3,0-3.4c-0.1-0.8,0.1-1.5,0.1-2.3c0-2.6,0.2-5.2-0.1-7.8
	c-0.2-2,0.3-4-0.1-6c-0.1-0.5,0.1-0.9,0.7-1L28.4,8c0.9-0.1,0.9,0.3,1,0.9c0.7-0.3,1.5-0.3,2.2-0.2c0.2-0.4,0-1.2,0.9-1
	c0.7,1,1.7,0.9,2.4-0.3c1-0.6,0.9,0.4,1.1,0.8c0.6-0.4,1.4-0.1,2-0.4c0.4-0.2,0.1-0.7,0.4-0.9h1.8c0.1,0.2,0,0.4-0.1,0.5
	c-0.4,0.6-0.4,1.4-0.1,2c0.5,0.7,1.3,0.7,2,0.5c0.5-0.1,1-0.3,1.1-1c0.2-0.7-0.2-1.2-0.4-1.8c-0.1-0.2-0.4-0.2-0.2-0.5
	c0.1-0.2,0.4-0.2,0.6-0.2c1.7-0.1,3.4-0.5,5.2-0.5l0.4-0.1c0.2,0.9,0,1.3-0.9,1.4l-2.4,0.5c-0.6,0.1-0.9,0.4-0.9,1v19.1
	c0,1.3,0,1.3,1.3,1.4h3.8l5.6,0.2c1.1,0,1.2-0.1,1.2-1.2V7.6c0-0.5-0.1-1,0.3-1.4h0.2c0.2,0.4,0,0.8,0,1.2v21.1
	c0,0.4-0.1,0.8,0.2,1.1c0,0.8-0.2,1-1.4,1h-9.9c-0.2,0-0.5-0.1-0.3,0.3c-0.8,0.5-1.7,0.2-2.5,0.2L41.9,31c-2.5,0.1-4.9-0.1-7.4-0.2
	l-9.9-0.3L20,30.4C19.7,30.4,19.5,30.4,19.3,30.2z"/>
<path class="st89" d="M56.7,6.2v22.4c0,0.8-0.2,1.1-1,1c-3.3-0.2-6.5-0.2-9.8-0.2l-1.3-0.2c-0.3,0-0.4-0.1-0.4-0.4v-0.5v-20
	c0-0.7,0.3-1,0.9-1C46,7.4,46.8,7,47.7,7c0.8,0,1-0.5,1-1.2L49,6.3c0.1,0.4,0.4,0.4,0.8,0.4c0.5-0.1,1.1-0.2,1.6,0.1
	C53.2,6.8,54.9,6.4,56.7,6.2z"/>
<path class="st90" d="M19.3,30.2l9.4,0.2l9.2,0.3l7.6,0.3h2.3c1,0.2,2-0.1,3,0.2h2.1c0.7,0.2,1.4-0.1,2,0.2
	c-0.1,0.5-0.4,0.5-0.8,0.5h-1.9l-10.5-0.4l-9.3-0.3l-12.5-0.5l-0.5-0.1c-0.2-0.1-0.7,0.3-0.7-0.3C18.7,30.3,19.3,30.2,19.3,30.2z"/>
<path class="st91" d="M52.3,31.6h1.9c0.3,0,0.6,0,0.8-0.3h0.8l0.1,0.1c1.6,0.2,3.2,0.3,4.8,0.1c2.8,0.1,5.6,0,8.4,0.2l8.6,0.3v0.2
	c0.2,0.4-0.2,0.5-0.4,0.4c-1.9-0.1-3.8,0.1-5.7-0.2c-1.2-0.1-2.4-0.2-3.6,0.1c-2.6,0.2-5.2-0.1-7.8-0.3h-1C57.1,32.3,55,32,52.9,32
	l-0.6-0.1C52.3,31.9,52.3,31.6,52.3,31.6z"/>
<path class="st92" d="M77.6,32V11.7c0-0.4-0.1-0.8,0.4-1.1v6.2c0.1,1.9-0.3,3.9-0.1,5.8v2.7c0,1.7-0.2,3.5,0.1,5.2
	C78.2,31.1,78.2,31.6,77.6,32z M68,32.3c1.1-0.4,2.2-0.2,3.3-0.1c1.8,0.2,3.7,0.1,5.5,0.1c0.3,0,0.7,0.5,0.9-0.1
	c0.2,0.1,0.5-0.3,0.6,0.2c0.1,0.6-0.5,0.4-0.6,0.6h-1.5c-0.3,0.2-0.7,0.1-1.1,0.2c-0.4-0.3-0.8-0.2-1.2-0.2c-1.1,0-2.2,0-3.3-0.2
	c0.1-0.3,0.3-0.1,0.5-0.2c-0.9,0.3-1.7,0.1-2.6,0.2l-1.1-0.1l-0.1-0.2C67.5,32.2,67.8,32.5,68,32.3z"/>
<path class="st93" d="M57.1,29.6c-0.6,0.2-0.3-0.2-0.3-0.4v-5.5v-17V6.2C57,6.3,57,6.5,57,6.7l-0.1,22
	C56.9,28.7,57.1,29.6,57.1,29.6z"/>
<path class="st94" d="M51.4,6.7l-2,0.2c-0.5,0.1-0.7-0.1-0.5-0.6L49,5.7c0.7-0.4,1.4-0.3,2.1-0.3h0.7C51.7,5.9,52,6.4,51.4,6.7z"/>
<path class="st90" d="M60.6,31.5c0,0.3-0.2,0.3-0.5,0.3h-3.8c-0.3,0-0.6-0.1-0.6-0.5H57c0.8,0.2,1.7-0.1,2.5,0.1L60.6,31.5z"/>
<path class="st52" d="M50.8,31.1c-1-0.1-2,0.2-3-0.2C48.8,31.1,49.8,30.8,50.8,31.1z M55.4,31.3h-0.5c-0.7-0.1-1.3,0.1-2-0.2
	C53.7,31.2,54.6,31,55.4,31.3z"/>
<path class="st91" d="M59.5,31.5c-0.8-0.1-1.7,0.2-2.5-0.1C57.8,31.4,58.7,31.1,59.5,31.5z"/>
<path class="st95" d="M40,9.5c-0.6-0.9-0.5-1.7,0.3-2.6c0.6-0.4,1.2-0.5,1.7,0c0.3,0.3,0.5,0.2,0.8,0.1c0.5,0.5,0.8,1.1,0.5,1.8
	c-0.4,0.1-0.7-0.3-1.1-0.2l-0.1-0.5c-0.1-0.5-0.3-1-0.9-1C40.6,7,40.5,7.5,40.3,8c-0.2,0.4,0,0.8-0.1,1.2C40.2,9.4,40.1,9.5,40,9.5z
	"/>
<path class="st96" d="M34.9,7.4c-0.1,0.3,0.2,0.8-0.3,1c-0.6,0.2-1.3,0.3-1.9,0.1c-0.3-0.1-0.1-0.5-0.2-0.8
	C33.2,7.4,34.1,7.2,34.9,7.4z"/>
<path class="st97" d="M31.6,8.7c-0.7,0.2-1.4,0.3-2.2,0.2c-0.1-0.7,0.2-1.1,0.9-1.1h0.3C31.5,7.5,31.7,8,31.6,8.7z"/>
<path class="st98" d="M38.3,8L36,8.2c-0.1-0.9,0.2-1.3,1.1-1.2l1.2-0.1c0.2,0.4-0.2,0.4-0.4,0.5l-1.2,0.2H38
	C38.3,7.7,38.5,7.7,38.3,8z"/>
<path class="st99" d="M38.3,8c0-0.2-0.1-0.2-0.3-0.2c-0.4,0.1-0.7,0.1-1.1,0c-0.2,0-0.7,0.3-0.7-0.2c0-0.4,0.5-0.2,0.7-0.3
	c0.5-0.2,1.1,0.1,1.4-0.5h0.2C38.4,7.3,38.7,7.7,38.3,8z"/>
<path class="st49" d="M51.1,5.4L49,5.7c0-0.2,0.1-0.4,0.3-0.4l2.5-0.2C51.8,5.1,51.1,5.4,51.1,5.4z"/>
<path class="st100" d="M52.3,31.6v0.2C52.2,32,52,32,51.8,32.1h-1.5c-0.5-0.1-1.1,0-1.6-0.3h-2.2c-0.8-0.2-1.7,0-2.5-0.1l-12.4-0.5
	l-10.8-0.4c-0.5,0-1,0.1-1.5-0.1l0.3-0.2l10.6,0.4l7.2,0.3c2.3,0.2,4.7,0.1,7,0.2C46.9,31.5,49.6,31.4,52.3,31.6z"/>
<path class="st101" d="M80.8,4.3c0.4,0.1,0.4,0.4,0.5,0.7l0.4,1.8c0.1,0.4,0.2,0.9,0.7,1.1c0.3,0.1,0.5,0.4,0.5,0.8
	c0,0.7,0.9,0.3,0.9,0.8c0,0.4-0.4,0.9,0,1.2s0.9,0.8,1.5,0.8h0.8c0.5,0,0.8,0.3,0.9,0.9c0.2,1,0.2,2.2,1,3c0.2,0.2,0.2,0.3,0.5,0.2
	c0.2-0.1,0.5-0.2,0.6,0.1c0.2,0.3,0.1,0.5-0.1,0.7c-0.5,0.5-0.5,0.8,0.3,0.9c0.2,0,0.4,0,0.3,0.3c0,0.2-0.2,0.2-0.4,0.2l-0.5,0.1
	c-0.1,0.1-0.2,0.2-0.1,0.3c0.1,0.2,0.2,0.2,0.4,0.2c0.5,0,0.8,0.3,0.8,0.7c0.1,0.3,0,0.7-0.5,0.5c-0.5-0.1-0.7,0.1-0.8,0.5
	c-0.3,1-1.1,1.6-1.9,2.1c-0.7,0.4-0.9,1.2-1.6,1.6c-0.2,0.1-0.1,0.4,0,0.6c0.3,0.6,0,1.1-0.6,1.3c-0.3,0.2-0.4,0.1-0.4,0.6
	c0,0.6,0,1,0.4,1.4c0.1,0.1,0.1,0.3,0,0.4c-0.7,0.6-0.9,1.4-0.9,2.2L83.1,31c0.6,0.2,1.4,0,1.7,0.7C84.3,32,83.6,32,83.1,32
	c-0.8,0-1.7,0.4-2.5,0.1C80.8,22.7,80.8,13.5,80.8,4.3z"/>
<path class="st4" d="M80.8,32l4.3-0.3l6.4-0.5l7.1-0.6c0.7-0.1,0.8,0.3,0.7,0.8h-0.5c0.1-0.4-0.2-0.3-0.4-0.3
	c-1.8,0.1-3.6,0.4-5.4,0.4L88.1,32c-0.9,0-1.8,0.3-2.8,0.1s-2.1,0.1-3.1,0.2C81.7,32.3,81.1,32.6,80.8,32z"/>
<path class="st102" d="M80.1,32.9c-0.2-0.3,0.3-0.9-0.4-1l0.2-0.3c0.2-0.3,0.1-0.6,0.1-0.9v-9.4v9.4c0,0.3,0.1,0.6-0.1,0.9
	c-0.3-0.2-0.1-0.6-0.1-0.9v-17C79.9,10,80,6.2,79.9,2.4L80,2.2c0.2,0.3,0.1,0.6,0.1,0.9V14c0,0.3-0.1,0.6,0.1,0.9v18.2
	C80.2,33.1,80.1,32.9,80.1,32.9z"/>
<path class="st103" d="M16.7,53.8L6.2,51.7l-5.2-1v-1.3c0.3,0,0.4,0.3,0.5,0.5l0.4,0.2l5.6,1c0.3,0,0.6,0.1,0.7-0.4
	c0.2-4.8,0.1-9.7,0.1-14.6c0-0.1-0.2,0-0.1,0v12.2c-0.3,0.1-0.4-0.2-0.4-0.4l-0.1-1.1V35c0-1.1,0-1.1-1-1.2c-0.4-0.1-0.9,0-1.3-0.3
	l-0.2-0.3c-0.1-0.3-0.1-0.6,0.1-0.9c0.1-0.1,0.3-0.1,0.4,0c0.8,0.4,1.6,0.1,2.5,0.2c0.5,0.3,1.1,0.1,1.7,0.2l3.3,0.1H16
	c0.6-0.1,0.7,0.2,0.7,0.7c0.2,5.5,0.1,10.9,0.2,16.4l0.1,2.9C17,53.3,17.1,53.7,16.7,53.8z"/>
<path class="st104" d="M5.4,33.4l2,0.3c0.4,0,0.6,0.1,0.6,0.5v13.3c0,0.3-0.1,0.6,0.1,0.9c0.2,0.8,0.1,1.7,0.1,2.5
	c-0.2,0.3-0.4,0.3-0.6,0.2l-6-1.1l-0.3-0.2L1,49.3v-15c0-1,0.1-1.1,1.1-1.1h2.5C4.9,33.2,5.2,33.2,5.4,33.4z"/>
<path class="st105" d="M5.4,33.4H1.9c-0.5,0-0.8,0.1-0.8,0.7V38c-0.1,1.8-0.2,3.6,0,5.4L1,43.9c-0.2-0.2-0.2-0.5-0.2-0.7V32.3
	c1-0.4,2-0.2,3,0c0.1,1,1,0.6,1.6,0.9V33.4z"/>
<path class="st106" d="M3.8,32.4c-1-0.3-2-0.1-3-0.1c-0.1-0.5-0.1-0.5,0.5-0.5l3.6,0.3c1,0.1,2.1,0.1,3.1,0.3H5.3
	C4.8,32.7,4.3,32.5,3.8,32.4z"/>
<path class="st107" d="M9.9,32.8c-0.6,0.2-1.2,0.4-1.7-0.2C8.8,32.6,9.3,32.5,9.9,32.8z"/>
<path class="st108" d="M68.8,34.5c-0.4,0.3-0.9,0-1.4,0.2c-4.8-0.1-9.5-0.4-14.3-0.6l-8.3-0.4L37,33.3c-0.7-0.2-1.5,0.1-2.2-0.1
	h-1.4L28,32.9l-3.5-0.2l0.4-0.2c0.5-0.1,1.1-0.1,1.6,0L38.2,33l17.9,0.9C56.1,33.9,68.8,34.5,68.8,34.5z"/>
<path class="st109" d="M51.1,32h0.7c0.3-0.1,0.6-0.1,0.8,0h2.3l10.6,0.4c0.6,0.2,1.2-0.1,1.8,0.2h1.2c0.7-0.1,1.4-0.2,2.1,0.1
	c1.2,0.2,2.5,0.1,3.7,0.2c0.3,0,0.6-0.1,0.8,0.3l-20-0.7L50,32.3l-0.7-0.1C49.8,31.7,50.5,32.2,51.1,32z"/>
<path class="st110" d="M19.1,31.4c-0.2-0.6,0.2-0.4,0.5-0.4l5.3,0.2l3,0.1c0.3,0,0.7-0.1,1,0.1c-1,0.1-2-0.2-3,0.2l-6.1-0.2
	C19.8,31.4,19.1,31.4,19.1,31.4z"/>
<path class="st111" d="M70.7,33.8c0.2,0,0.4,0,0.5-0.2l6,0.2v0.3C75,33.9,72.9,34.1,70.7,33.8z"/>
<path class="st112" d="M51.1,32c-0.6,0.3-1.2,0-1.8,0.2h-2.2c0.5-0.3,1.1,0,1.7-0.2c0.5-0.1,1.1-0.1,1.6,0H51.1z"/>
<path class="st110" d="M30.3,31.8c-1-0.1-2,0.1-3-0.2C28.3,31.7,29.3,31.5,30.3,31.8z M30.8,31.5c0.9,0,1.8-0.1,2.7,0.1
	C32.6,31.6,31.7,31.8,30.8,31.5z"/>
<path class="st63" d="M26.5,32.4h-1.6l-0.1-0.1C25.4,32.3,26,32.2,26.5,32.4z"/>
<path class="st113" d="M55.2,35.1l8.6,0.4l2.7,0.1c0.3,0.4,0.2,0.8,0,1.2C66.3,37,66,37,65.7,37c-1.5-0.1-2.9,0.2-4.3,0.3
	c-0.4,0-0.5,0.2-0.5,0.5v21.8c0,0.7,0.3,1,1,1.2c4.8,1.1,9.6,2,14.5,2.8c0.3,0.3,0.5,0.6,0.3,1s-0.6,0.4-1,0.4
	c-0.8,0-1.7-0.1-2.5-0.3c-0.9-0.2-1.7-0.5-2.6-0.2c-0.8,0.2-1.5-0.2-2.3-0.3L60,62.5l-3.6-0.7c-0.3-0.1-0.6-0.1-0.8-0.3
	c-0.4-0.6-0.2-1.3-0.2-1.9c0-0.2,0.1-0.4,0.4-0.4c0.2,0,0.3,0.2,0.3,0.4c0.1,0.3-0.2,0.8,0.2,0.8s0.3-0.6,0.3-1v-1.2
	c0.1-0.3-0.1-0.5-0.3-0.6s-0.5-0.2-0.4-0.5l0.3-0.3c0.3-0.3,0.2-0.8,0.2-1.2v-2.4c0-0.4-0.1-0.7-0.6-0.6c-1.2,0.1-2.2,0.4-3.4,0.6
	c-0.4,0.1-0.8,0.2-1.2,0C51,53,51,52.7,51.1,52.4l0.5-0.4c0.5-0.2,0.8-0.6,1-1.1c0.2-0.6-0.1-1.3,0.3-1.8c0.7-0.2,1.5-0.4,1.5-1.4
	c0-0.3,0-0.6-0.3-0.7c-0.6-0.6-1.2-0.7-2-0.3c-0.2,0.7-0.7,1.1-1.3,1.5c-0.3,0.1-0.5,0.2-0.8,0.1c-1-0.4-1.9-0.2-2.7,0.3
	c-0.3,0.2-0.8,0.2-1.1,0.6c-0.1,0.2-0.3-0.1-0.5-0.2c-0.7-0.6-0.7-0.6-1,0.1v0.8c0,0.4,0.2,0.5,0.4,0.7c0.7,0.6,0.7,1.5,0,2.1
	c-0.4,0.3-0.2,0.7,0,0.9c0.7,0.6,0.5,1.3,0.6,2l-0.4,0.5c-0.4,0.2-0.6,0.4-0.5,0.9c0.1,0.4,0.4,0.6,0.8,0.5l0.4,0.2
	c0,0.2,0,0.3-0.2,0.4c-1-0.3-2.2-0.2-3.1-0.8c-0.3-0.4-0.2-0.8-0.2-1.3V37.1c0-0.4,0.1-0.8-0.2-1.1c-1.1-0.2-2.1-0.3-3.2-0.3
	c-0.4,0-0.9,0.1-1-0.6c0-1.2,0.1-1.2,1.3-1.1l5.4,0.3v0.2c0,0.6-0.4,0.7-0.8,0.8c-0.4,0.1-0.6,0.2-0.6,0.6c0,0.4,0.3,0.6,0.7,0.6
	s0.8,0.2,1.1,0.4c0.9,0.6,1.8,0.1,1.8-1.1c0-0.4-0.3-0.8-0.1-1.2c0.1-0.2,0.3-0.2,0.5-0.2c0.3,0.2,0.1,0.6,0.4,0.8
	c0.7,0.2,1.3,0.3,2,0.2c0.3-0.1,0.2-0.5,0.4-0.6c0.2-0.2,0.3-0.4,0.6-0.3c0.5,0.2,1,0.1,1.5,0.1c0.3,0.2,0.1,0.8,0.5,0.9
	c0.6,0.1,1.3,0.3,1.9,0.2C55.2,35.9,54.9,35.3,55.2,35.1z"/>
<path class="st114" d="M38,35.2c0.1,0.2,0.2,0.3,0.4,0.3c1.3-0.1,2.6,0.3,3.9,0.2l0.1,0.7v20.1c0,0.3,0.2,0.8-0.5,0.8
	c-1.3-0.4-2.7-0.6-4-0.8c-1.9-0.4-3.8-0.8-5.7-1c-0.4-0.1-0.6-0.3-0.6-0.7v-19c0-0.7,0.7-1,1.6-0.7c0.7,0.2,1.6-0.2,2.3,0.3l0.1-0.3
	c0.5-0.2,0.9-0.3,1.3,0.1C36.9,35.2,38,35.2,38,35.2z"/>
<path class="st115" d="M20.8,33.3c0.3,0.4,0.4,0.9,0.4,1.5c-0.1,0.5-0.3,0.9-0.8,1.1c-0.4,0.1-0.7-0.2-0.9-0.5
	c-0.1-0.1-0.2-0.3-0.4-0.2c0.2-0.3,0.2-0.7,0.2-1.1c0.2,0.3,0.3,0.9,0.8,0.5c0.4-0.3,0.1-0.6-0.1-0.9c-0.1-0.1-0.4-0.3-0.2-0.5
	s0.4-0.2,0.7-0.1L20.8,33.3z"/>
<path class="st116" d="M27.3,33.8L27.3,33.8l-0.1,0.3c-0.3,0.2-0.2,0.5-0.3,0.7c0,0.4,0,0.9-0.6,0.9c-0.7,0-0.4-0.5-0.5-0.9v-0.2
	c-0.1,0.3,0,0.7-0.3,0.9c0,0.3,0.3,0.2,0.4,0.2c0.3,0.1,0.6-0.1,0.8,0.2v0.2c-1.8-0.1-1.8-0.1-1.8-2v-0.5
	C25.4,33.2,26.7,33.3,27.3,33.8z"/>
<path class="st117" d="M36.9,35.1L35.6,35c-0.2-0.4,0.1-0.7,0-1.1h1.5c0.4,0,0.8,0,0.8,0.6S37.5,35,37.1,35L36.9,35.1z"/>
<path class="st118" d="M30.4,33.8c0,1.3,0,1.3-1.2,1.1c-0.9-0.1-0.4-0.9-0.5-1.3C29.3,33.6,29.9,33.5,30.4,33.8z"/>
<path class="st119" d="M23.8,33.3v0.8c-0.4,0.1-0.8,0.1-1.2-0.1v-0.5c0.3-0.3,0.7,0.1,1-0.2H23.8z"/>
<path class="st120" d="M23.6,33.3c-0.2,0.5-0.7,0.1-1,0.3l-0.3,0.1c-0.2-0.1-0.5-0.1-0.5-0.4C21.8,33.3,23.6,33.3,23.6,33.3z"/>
<path class="st119" d="M21.8,33.3c0.1,0.2,0.4,0.1,0.5,0.3L22,34l-0.3,0.1c-0.2-0.2-0.1-0.5-0.1-0.8C21.6,33.3,21.8,33.3,21.8,33.3z
	"/>
<path class="st62" d="M43.8,31.7c0.8,0,1.7-0.2,2.5,0.1C45.5,31.7,44.7,31.9,43.8,31.7z M50.3,31.9h-1.6l-0.1-0.1
	C49.2,31.8,49.7,31.7,50.3,31.9z"/>
<path class="st121" d="M80.6,33.8c0-0.2,0-0.5,0.2-0.6l7.3-0.6l10.6-0.9c0.3,0,0.5,0,0.3,0.4l-7,0.7l-7.7,0.8
	C83.1,33.6,81.9,33.6,80.6,33.8z"/>
<path class="st122" d="M48.6,59.7v0.6c-0.2,0.4-0.4,0.3-0.7,0.2l-11.7-2.4l-10-2h-1.7l0.5-0.7h0.5c0.7-0.3,1.3-0.1,1.8,0.3l7.8,1.6
	l5,1c1-0.1,1.9,0.1,2.8,0.5c0.8,0.3,1.6,0.4,2.5,0.5c0.4-0.1,0.7-0.1,1,0.2c0.6,0.3,1.3,0.3,2,0.5C48.5,59.9,48.3,59.6,48.6,59.7z"
	/>
<path class="st123" d="M25.5,56.1c0.6-0.4,1.2,0,1.8,0.1c6.8,1.5,13.7,2.9,20.5,4.2c0.3,0.1,0.6,0.2,0.9,0c0.3,0.3,0.5,0.6,1,0.4
	c0.2-0.1,0.3,0.1,0.5,0.2c-0.9,0.2-1.7-0.2-2.5-0.3L26,56.3L25.5,56.1z"/>
<path class="st124" d="M42,57.4c0.5-0.1,0.3-0.6,0.3-0.9v-20v-0.7c0.5,0.2,0.3,0.6,0.3,0.9v20.7C42.4,57.4,42.2,57.7,42,57.4z"/>
<path class="st125" d="M20.6,51.1c0.2-0.6,0.5-1.1,1.2-0.8s1,1.6,0.6,2.3c-0.4,0.6-0.8,0.7-1.4,0.2c-0.3-0.5,0.1-0.8,0.3-1.2
	c0.2-0.3,0.2-0.5-0.2-0.5C21,51.2,20.8,51.3,20.6,51.1z"/>
<path class="st126" d="M27.4,55.7l-1.8-0.3V55c0-1.3,0-1.3,1.3-1.1c0.4,0.1,0.6,0.3,0.6,0.7L27.4,55.7z"/>
<path class="st127" d="M20.5,52.6c-0.4,0.1-0.8,0.4-1.1,0c-0.3-0.3-0.3-0.6-0.2-0.9c0.1-0.4,0.6-0.4,0.9-0.4
	c0.4-0.1,0.5,0.2,0.6,0.5C20.9,52.1,21.1,52.4,20.5,52.6z"/>
<path class="st128" d="M45.7,58.2l0.2-0.3c0.1-0.1,0.3,0,0.4,0c1,0.4,2.1,0.5,3.1,0.5c-0.1,0.4-0.5,0.7-1,0.9
	c-0.7-0.2-1.4-0.5-2.1-0.5C46.3,58.8,45.7,58.2,45.7,58.2z"/>
<path class="st113" d="M42.9,58.8l-2.8-0.5c0.2-0.4,0.6-0.3,0.9-0.3l1.9,0.5c0.1,0,0.4,0,0.2,0.3C43.2,58.9,43,58.8,42.9,58.8z"/>
<path class="st129" d="M27.5,34.1c0.1-0.3,0.1-0.6,0.5-0.4c0.4,0.2,0.6,0.5,0.6,1l-0.4,0.7c-0.5,0-0.5-0.5-0.7-0.8V34.1z"/>
<path class="st113" d="M48.5,59.2l1-0.8c0-0.1,0.1-0.1,0.1,0v0.3c0,0.4-0.3,0.6-0.7,0.7l-0.3,0.3c-0.2,0,0,0.4-0.3,0.3
	C48.3,59.7,48.2,59.4,48.5,59.2z"/>
<path class="st130" d="M20.5,52.6c0.4-0.2,0.2-0.5,0.2-0.8L21,52c0.2-0.1,0.4-0.4,0.7-0.2c-0.2,0.4-0.5,0.7-0.5,1.1
	C20.9,52.8,20.8,52.5,20.5,52.6z"/>
<path class="st63" d="M27.5,34.1v0.5c-0.2,0.3-0.1,0.7-0.1,1.1c0,0.5-0.2,0.6-0.7,0.4V36c0.2-0.2,0.3-0.4,0.3-0.7
	c0-0.5-0.1-1,0.2-1.4h0.1L27.5,34.1z"/>
<path class="st131" d="M21.6,51.8L20.9,52c0-0.2,0-0.5,0.4-0.5c-0.2-0.3-0.6,0-0.7-0.3C21,51.2,21.8,50.8,21.6,51.8z"/>
<path class="st132" d="M21.8,34.1l0.2-0.2c0.2-0.2,0.4-0.2,0.6,0l1.1,0.2C23.1,34.4,22.4,34.3,21.8,34.1z"/>
<path class="st113" d="M46.4,59.5c-0.3,0-0.7,0-1-0.2C45.8,58.9,46.1,58.9,46.4,59.5z"/>
<path class="st133" d="M24.3,52.5c-0.2,0-0.4-0.1-0.3-0.3l0.2-0.3c0.2,0,0.3,0.1,0.4,0.3C24.6,52.2,24.3,52.5,24.3,52.5z"/>
<path class="st134" d="M21.8,49.6c-0.2,0-0.3-0.1-0.3-0.3s0.1-0.3,0.3-0.3c0.2,0,0.3,0.1,0.3,0.3L21.8,49.6z"/>
<path class="st135" d="M20.4,37.2c-0.2-0.1-0.2-0.2-0.2-0.4c0-0.1,0.1-0.3,0.3-0.2c0.2,0,0.3,0.2,0.2,0.4L20.4,37.2z"/>
<path class="st136" d="M23.6,54.1c0.2-0.1,0.4-0.5,0.7-0.2l0.2,0.4c0,0.3-0.3,0.3-0.5,0.3C23.7,54.5,23.5,54.4,23.6,54.1z"/>
<path class="st137" d="M23.6,54.1l0.4,0.5L23.7,55C23.4,54.4,23.4,54.4,23.6,54.1z"/>
<path class="st38" d="M70.4,64.3c0.9-0.5,1.8-0.1,2.6,0.1s1.7,0.4,2.5,0.4c0.3,0,0.7,0.1,0.9-0.3c0.2-0.4-0.1-0.6-0.3-0.9
	c-0.4-0.6-0.2-1.4-0.2-2c0-0.5,0.1-1.1-0.2-1.6c-0.2-0.7-0.2-1.4,0-2.1c0.2-0.3,0.2-0.6,0.2-0.9v-5c-0.1-1.2-0.2-2.4-0.1-3.6
	c0.2-3.1,0.1-6.2,0.1-9.4c0-0.3,0.1-0.7-0.2-1c-1.3-0.2-2.5-0.4-3.8-0.4c-0.9,0-1.8,0.1-2.5-0.5c0.3-0.3,0.2-0.9,0.6-1.2
	s0.7,0,1.1,0l5.5,0.2c1,0,1.1,0.1,1.1,1.1v18.9l0.1,8.9c0,0.7-0.2,0.9-0.8,0.8c-0.3,0.2-0.7,0.1-1,0l-4.6-0.9
	C71,64.7,70.6,64.7,70.4,64.3z"/>
<path class="st138" d="M46.8,34.8c0.4,0.7,0.5,1.4,0.1,2.2s-1.2,0.9-1.8,0.3c-0.3-0.3-0.7-0.5-1.1-0.4c-0.6,0.1-0.9-0.2-0.9-0.7
	c-0.1-0.6,0.2-0.9,0.9-0.9c0.4,0,0.7-0.1,0.9-0.6C45.6,34,45.9,34,46.8,34.8z"/>
<path class="st139" d="M70,35.9c-0.2,0.4,0.4,1.1-0.5,1.2c-0.3,0.3-0.7,0.2-1.1,0.1c-0.5-0.2-1.1,0-1.6-0.2
	c-0.1-0.1-0.2-0.1-0.2-0.3v-1.1C67.7,35.6,68.9,35.6,70,35.9z"/>
<path class="st140" d="M55.2,35.1c0,1.2,0,1.2-1.2,1.1l-0.6-0.1c-1.1-0.1-1.1-0.1-1.1-1.2C53.2,34.9,54.2,34.8,55.2,35.1z"/>
<path class="st141" d="M47.5,35.6c-0.3-0.3-0.1-0.7-0.2-1h0.2c0.5,0.3,0.9,0.4,1.4,0.3c0.3-0.1,0.8-0.1,1,0.2
	c0.1,0.1,0.1,0.5-0.2,0.7C49,35.9,48.3,35.5,47.5,35.6z"/>
<path class="st142" d="M49.8,35.6c0.2-0.2,0.3-0.5,0.1-0.5c-0.4-0.1-0.8-0.2-1.1-0.1c-0.6,0.2-1,0.1-1.3-0.4l2.2,0.1
	c0.3,0,0.5,0,0.5,0.4c-0.2,0.2,0.2,0.6-0.2,0.8C49.9,35.8,49.7,35.8,49.8,35.6z"/>
<path class="st63" d="M34.9,33.1c0.7,0,1.5-0.1,2.2,0.1C36.3,33.2,35.6,33.4,34.9,33.1z"/>
<path class="st143" d="M70.4,64.3c1.9,0.6,3.9,0.8,5.8,1.3l0.8,0.2c0.2,0.3,0.6,0.1,0.8,0.3c-0.8,0.4-1.5,0-2.2-0.2l-7.7-1.5
	l-0.1-0.1c0.1-0.1,0.4-0.1,0.3-0.3C68.9,64,69.6,64.3,70.4,64.3L70.4,64.3z"/>
<path class="st44" d="M79.9,36.2c-0.2,1.8,0,3.6,0,5.4l-0.1,1c-0.3-0.2-0.2-0.6-0.2-0.8v-5.5C79.6,36.3,79.9,36.2,79.9,36.2z"/>
<path class="st144" d="M68.1,63.9l0.2,0.2c-0.1,0.2-0.3,0-0.5,0.1c-1.2-0.1-2.4-0.5-3.6-0.7l-3.4-0.6c-1.2-0.4-2.5-0.6-3.7-0.8
	l-5.3-1l0.4-0.7l0.5,0.2L55,61l0.3,0.3l7.9,1.7c1.4,0.3,2.8,0.5,4.1,0.9H68.1z"/>
<path class="st145" d="M52.6,60.8c-0.3,0-0.3-0.1-0.4-0.4c0.1-1.3-0.2-1.9-1.3-2.4l-0.1-0.4c0.3-0.7,0-1.5,0-2.3
	c0.1-1.1,0.7-1.5,1.7-1c0.8,0.3,1.5,0.8,2.3,1.2c0.3,0.2,0.5,0.4,0.5,0.8c0,0.3,0.1,0.5,0.3,0.7c0.9,0.3,1,0.9,0.9,1.8v1.4
	c0,0.3-0.1,0.6-0.4,0.5c-0.3,0-0.6-0.2-0.5-0.6c0.1-0.3,0.1-0.6-0.1-0.9c-0.2,0.7-0.1,1.3-0.2,2l-0.2-0.1L55,60.3c0-0.6-0.2-1-0.9-1
	l-0.6-0.1c-0.5-0.1-0.8,0-0.8,0.6C52.8,60.1,52.9,60.5,52.6,60.8z"/>
<path class="st146" d="M50.9,57.7V58h-0.5c-0.9,0-1.9,0.4-2.8,0.2c-0.8,0-1-0.5-0.9-1.2c0-0.3,0-0.6,0.2-0.9
	c0.1-0.1,0.2-0.2,0.4-0.1c0.5,0.1,0.7,0.6,0.9,1c0.2-0.9,0.1-1.9,0-2.8l-0.1-2.3c0-0.6,0.3-1,0.9-1l1-0.1c-0.4-0.2-0.8-0.1-1.1-0.1
	c-0.4,0-0.8,0.1-1-0.3c-0.1-0.5-0.2-0.9,0.4-1l1.3,0.5c1.2,0.2,1.7,0.8,1.7,2.1l0.1,0.4l-0.5,0.1c-0.6,0.9-0.6,0.9-1.3,0.9
	c-0.1,0.4,0.3,0.6,0.4,1c-0.2,0.8,0.2,1.5,0.1,2.3c0,0.3,0.2,0.4,0.5,0.5S51.1,57.3,50.9,57.7z"/>
<path class="st147" d="M49,59.3c0.3-0.1,0.6-0.3,0.7-0.7c0,0.7,0.5,0.5,0.8,0.3c0.7-0.5,0.8,0.3,1.2,0.4c0.1,0,0,0.3-0.2,0.3
	c-0.3,0-0.7,0-0.7,0.5C50.4,60,50,60,49.9,59.7C49.6,59.3,49.3,59.3,49,59.3z"/>
<path class="st148" d="M47.7,58c0.8,0.2,1.5-0.2,2.3-0.2c0.2,0,0.4-0.1,0.5,0.2c-0.2,0.2-0.5,0.4-0.9,0.4h-0.1
	c-0.4-0.4-0.7,0.1-1.1,0.1c-0.8,0-1.5-0.4-2.2-0.5c0-0.3,0.3-0.3,0.4-0.2C46.9,58,47.3,57.9,47.7,58z"/>
<path class="st149" d="M26.9,19.4c0.2,0.1,0.2,0.3,0.2,0.4v6.9c0,0.3,0,0.6-0.4,0.5c-1.7-0.1-3.4,0.1-5-0.2c0.6-0.4,1.3-0.2,1.9-0.2
	c0.5,0,0.9,0,0.9-0.7c0-0.3,0.3-0.5,0.5-0.6l-2.9,0.1c-0.3,0-0.6-0.1-0.7,0.2c-0.1,0.3-0.1,0.6,0.2,0.9l0.2,0.2v0.2
	c-0.7,0.2-1,0-1-0.9v-7.5c0.1-0.1,0.7,0.2,0.3-0.3c0.2-0.2,0.6-0.2,0.6-0.7c0.1-0.2,0.4-0.3,0.6-0.3s0.3,0,0.4,0.2s0,0.3-0.1,0.4
	c-0.3,0.2-0.4,0.5-0.2,0.8c0.2,0.3,0.5,0.3,0.7,0.2c0.5-0.2,1.1,0.1,1.6,0c0.4-0.2,0.2-0.8,0.8-0.9c0.2,0-0.2-0.5,0-0.7
	c0.5-0.3,0.9-0.3,1.3,0.1v0.2c0,0.4-0.7,0.8,0,1.2l0.1,0.2V19.4c-0.2,1.2-0.1,2.4-0.1,3.6v3.2c-0.3,0.4-0.7,0-1,0.2
	c0.4,0,0.4,0.3,0.6,0.4c0.5-0.2,0.4-0.5,0.4-0.9v-6C26.8,19.9,26.9,19.4,26.9,19.4z"/>
<path class="st150" d="M21,18.4c0.1,0.3,0.8,0,0.5,0.5c-0.2,0.4-0.6,0-0.9-0.2c0-0.6-0.3-1.2,0.3-1.7l0.4-0.2l1.2-0.1
	c1.1,0,1.2-0.1,1.2-1.3v-2.8c0-1,0.1-1.1,1.1-1c0.4,0.2,0.3,0.6,0.3,1v3.5c0,0.8,0.6,0.3,0.9,0.4c0.4,0.1,0.3-0.3,0.2-0.6l-0.1-0.6
	c0-0.2,0-0.4,0.2-0.5l0.5,0.2c0.2,0.3,0.2,2-0.1,2.4c-0.4-0.3-0.9-0.2-1.4-0.1c-0.5,0.5-0.5,1.2-0.6,1.8c-0.6,0.1-1.2-0.2-1.9,0
	c-0.3,0.1-0.8,0.3-0.9-0.3c-0.1-0.4-0.3-1.1,0.7-1.1c-0.4-0.2-0.7-0.2-1,0.1C21.5,18.1,21.1,18.1,21,18.4z"/>
<path class="st151" d="M24.9,11.8c-0.8-0.1-1.1,0.1-1,1v2.7c0,1.4-0.1,1.6-1.5,1.5l-1.1,0.1c-0.1-0.3,0.3-0.5,0.2-0.8v-2.6
	c0-0.4-0.1-0.8-0.6-0.9c-0.2-0.3-0.4-0.7,0.1-0.9l5.2-0.5c0.5-0.1,0.7,0.1,0.6,0.6c-0.1,0.9,0.1,1.8-0.1,2.7
	c-0.2,0.2-0.4,0.3-0.7,0.1c-0.2-0.2,0-0.4,0.1-0.6c0.2-0.3,0.3-0.6,0-0.9c-0.3-0.4-0.1-0.7,0.1-1c0-0.4-0.4-0.3-0.6-0.3
	C25.5,12,25.2,12.1,24.9,11.8z"/>
<path class="st152" d="M26.7,12.3c0,0.3-0.5,0.5-0.1,0.9c0.3,0.3,0.1,1-0.5,1.4h0.8c0.2,1.5,0.2,3,0,4.5V19
	c-0.3-0.4-0.1-0.8-0.1-1.3v-0.2c0.1-0.9,0.5-1.8-0.4-2.6l0.1,1.2c-0.9,0.4-1.3,0.3-1.3-0.6c0-0.7-0.2-1.4,0.3-2l0.1-0.1
	c-0.1-0.3-0.4-0.5,0-0.8C25.8,12.3,26.2,12.1,26.7,12.3z"/>
<path class="st153" d="M29.2,30.2l-9.9-0.4v-0.3l9.9,0.3V30.2z"/>
<path class="st154" d="M40,9.5l0.2-0.2c0.5,0,1,0.3,1.5-0.1C41.9,9,42,8.6,42.4,8.7c0.4-0.3,0.7,0.1,1,0.2C44,9.8,43,9.7,42.7,10
	C42,10.5,40.5,10.2,40,9.5z"/>
<path class="st155" d="M20.1,28.4h7.8v0.3C25.3,28.8,22.7,28.4,20.1,28.4z"/>
<path class="st156" d="M20,10.5l8.1-0.8V10L20,10.8V10.5z"/>
<path class="st157" d="M21.8,16.4c0.1,0.4-0.4,0.4-0.4,0.6H21c-0.3-0.3-0.3-0.7-0.3-1.1v-3.6c0-0.4,0.1-0.6,0.5-0.5
	C20.8,12,21,12.3,21,12.6c0.1,0.5,0.5,1,0.3,1.6c0,0.7-0.4,1.4,0.2,2C21.5,16.2,21.8,16.4,21.8,16.4z"/>
<path class="st158" d="M42,11.6c-0.2,0.1-0.4,0-0.4-0.2c0-0.5,0.5-0.3,0.7-0.4c0.2-0.1,0.4,0,0.4,0.2C42.7,11.7,42.3,11.5,42,11.6z"
	/>
<path class="st159" d="M19.8,14.6c-0.3,0.3-0.6,0.1-0.6-0.2c0-0.4-0.1-0.9,0.1-1.5C19.5,13.5,19.2,14.2,19.8,14.6z"/>
<path class="st160" d="M20,24.5c-0.1,0.5,0,1,0.1,1.7C19.5,25.5,19.6,25,20,24.5z"/>
<path class="st159" d="M19.8,14.6c0-0.5-0.4-1.1,0.2-1.5C19.7,13.5,20.4,14.1,19.8,14.6z"/>
<path class="st161" d="M27.7,12.5l-0.2,0.4c-0.2,0-0.2-0.2-0.3-0.3c-0.1-0.2,0-0.3,0.2-0.3S27.7,12.4,27.7,12.5z"/>
<path class="st162" d="M27.7,25.9c0,0.1,0,0.3-0.2,0.3s-0.2-0.2-0.2-0.4c-0.1-0.1,0-0.3,0.2-0.3L27.7,25.9z"/>
<path class="st163" d="M53.2,14.9v6.9l-0.1,0.4c-0.5-0.6-0.1-1.3-0.3-1.9c-0.2,0.4-0.5,0.2-0.8,0.2c-0.9,0-1.8,0.2-2.7-0.3
	c0.8-0.8,0.8-0.8,2.5-0.4c-0.7-0.3-1.4-0.7-2.2-0.1c-0.2,0.2-0.5,0.2-0.8,0.1c-0.3-0.5-0.5-0.9,0.1-1.3h2.2l1,0.1l0.8,0.5l0,0
	c-0.2-0.7-0.1-1.3-0.1-2l-0.1-1.2V15C52.8,15,52.9,14.8,53.2,14.9z"/>
<path class="st164" d="M49,18.7c-0.5,0.3-0.2,0.7-0.2,1.1v0.4l-0.1,0.2c-0.2,0.6,0,1.2-0.1,1.8c0,0.3,0.1,0.7-0.3,0.9
	c-0.6-0.1-0.4-0.5-0.5-0.9c-0.1-1,0.1-2.1-0.1-3.1l-0.1-4.4c-0.1-0.7,0.1-1.5-0.1-2.2c0.1-0.4-0.2-0.8,0.2-1.1
	c0.5,0.3,0.6,0.7,0.5,1.2c-0.2,1.2-0.1,2.5-0.1,3.5v-2.6h0.3c0.2,0.4,0.2,0.8,0.2,1.2v3.5C48.6,18.4,48.9,18.5,49,18.7L49,18.7z"/>
<path class="st165" d="M53.2,14.9c-0.6,0.3-0.2,0.9-0.3,1.3c0.1,1,0.2,1.9,0,2.9c-0.4,0.2-0.4-0.2-0.6-0.3c-0.1-1.1-0.2-2.2-0.1-3.3
	V12c0-0.3-0.1-0.5-0.3-0.7c-0.1-0.3,0.2-0.3,0.4-0.4c0.3-0.1,0.5,0,0.8-0.2c0.3,0.7,0.3,1.4,0,2c-0.1,0.2,0.2,0.2,0.1,0.4
	c-0.2,0.4-0.2,0.8,0,1.1C53,14.6,53,14.8,53.2,14.9z"/>
<path class="st166" d="M47.5,12.5c0.3,0.7,0,1.4,0.2,2.2c0.2,1.6,0,3.3,0.1,4.9v2.8c0.1-0.9-0.1-2.1,0.1-3.2c0.3,1.1,0,2.1,0.2,3.2
	c0,0.2-0.2,0.6,0.3,0.7c0.4,0.7,0.3,1.5,0.1,2.3c-0.4,0.3-0.7,0.5-0.7-0.2v-1.4c-0.1,0.6,0.1,1.3-0.1,2l-0.1-0.4L47.5,12.5z"/>
<path class="st167" d="M52.2,20.4c0.3,0.4,0.4-0.2,0.6-0.2c0.3,0.5,0.1,1,0.1,1.6c0,0.3-0.1,0.6,0.1,0.9c-0.1,0.9,0.3,1.8,0.1,2.8
	c-0.4-0.1-0.2-0.4-0.2-0.6s-0.1-0.1-0.1-0.1c0.1,0.4,0.2,0.8-0.4,0.8l-0.2-0.2c-0.2-0.6-0.1-1.2,0-1.8c0.1-0.8-0.1-1.5-0.1-2.3
	C52.1,21,52,20.7,52.2,20.4z"/>
<path class="st168" d="M54.4,27.3h-8v-0.1h8V27.3z"/>
<path class="st169" d="M46.4,9.7L54.5,9v0.3l-8.1,0.8C46.4,10.1,46.4,9.7,46.4,9.7z"/>
<path class="st170" d="M53.1,10.9c-0.2,0.7-0.9,0.1-1.2,0.4c-0.8,0.5-1.7,0.2-2.6,0.4l-0.6,0.1l-0.2,0.1c-0.2,0.5,0.1,1.1-0.3,1.5
	v3.1H48v-3.6c0-0.5,0-1.1-0.3-1.6C49.5,11,51.3,11,53.1,10.9z"/>
<path class="st171" d="M47.6,25.6v-2.3h0.2v1.6c0,0.4,0.1,0.5,0.5,0.4l0.3-0.3l0.1-0.5c0.1-0.2,0.2-0.3,0.4-0.3l0.2,0.3
	c0,0.5,0.4,0.6,0.8,0.6c0.8,0.1,1.6-0.2,2.3,0.2l0.1,0.1c0.2,0.1,0.5-0.1,0.7,0.1l-0.1,0.1C51.3,25.7,49.5,25.9,47.6,25.6z"/>
<path class="st172" d="M47.1,16.5c-0.1,0.3,0.1,0.7-0.3,0.7c-0.5,0-0.3-0.4-0.4-0.7c0-0.3,0-0.6,0.4-0.6C47.2,16,47,16.4,47.1,16.5z
	"/>
<path class="st173" d="M53.1,22.6c-0.4-0.8-0.1-1.6-0.2-2.4c0.1-0.1,0.2-0.4,0.2,0V22.6z"/>
<path class="st174" d="M53.2,14.4c-0.4-0.4-0.4-0.7,0-1.1V14.4z"/>
<path class="st175" d="M53.2,25.6c-0.2,0-0.5,0.1-0.7-0.1c0.7,0,0.3-0.6,0.5-0.9c0.3,0.3-0.1,0.7,0.2,0.9V25.6z"/>
<path class="st176" d="M65.6,32.5l-10.8-0.4L52.5,32h-0.8c0.1-0.2,0.3-0.1,0.5-0.2c2.6-0.1,5.2,0.2,7.7,0.2c2.7,0.1,5.3,0.3,8,0.3
	c-0.2,0.2-0.4,0.1-0.7,0.2C66.8,32.6,66.2,32.6,65.6,32.5z M70.5,32.7l-2.1-0.1c0.9-0.3,1.8-0.1,2.8,0
	C71.2,32.6,70.5,32.7,70.5,32.7z"/>
<path class="st91" d="M65.6,32.5h1.7v0.1C66.8,32.6,66.2,32.7,65.6,32.5z"/>
<path class="st177" d="M51.4,6.1c0,0.2-0.1,0.3-0.3,0.3c-0.5,0-1,0-1.5,0.2l-0.3-0.1l0.1-0.2c0.6-0.4,1.3-0.1,1.9-0.4
	C51.4,5.8,51.4,6,51.4,6.1z"/>
<path class="st178" d="M42.3,8.7l-0.5,0.6c-0.4-0.2-0.7-0.5-1.2-0.4C39.9,9,40.2,8.4,40.1,8c0.1-0.6,0.4-1.2,1.1-1.1
	c0.7,0.1,1,0.6,1,1.4C42.2,8.3,42.3,8.7,42.3,8.7z"/>
<path class="st179" d="M40.1,8c0.1,0.8,0.6,0.8,1.2,0.7c0.5-0.1,0.2,0.4,0.4,0.6c-0.5,0.6-1.1,0.5-1.6,0C39.9,8.9,39.9,8.5,40.1,8z"
	/>
<path class="st180" d="M79.9,31.7V21.2l0.2,0.1v9.9C80.1,31.3,80.1,31.5,79.9,31.7z"/>
<path class="st181" d="M1.3,49.8c1.5,0.1,2.9,0.5,4.3,0.7l2.5,0.4c0.1-0.1,0.2-0.1,0.2,0c-0.3,0.4-0.7,0.3-1.1,0.2l-5.3-0.9
	C1.6,50.3,1.3,50.2,1.3,49.8z"/>
<path class="st182" d="M8.4,51H8.2v-2.6l0.1-11.8l0.1-0.8C8.4,35.8,8.4,51,8.4,51z"/>
<path class="st183" d="M11.8,35.6c-0.6-0.6-0.5-1.3-0.2-2c0.2-0.6,0.7-0.8,1.3-0.4c0.3,0.1,0.5,0.3,0.9,0.2c0.6,0,0.4,0.6,0.6,1
	l0.1,0.7c-0.1,0-0.2,0-0.2-0.2c0-0.3-0.1-0.3-0.3-0.2s-0.4,0-0.5-0.1l-0.3-0.3c-0.2-0.3-0.3-0.7-0.7-0.6c-0.4,0.1-0.4,0.5-0.4,0.9
	c-0.1,0.4,0.2,0.7,0.1,1.1C12.2,35.7,11.8,35.6,11.8,35.6z"/>
<path class="st184" d="M13.3,34.4c0.4,0.1,1,0,1.1,0.7c0.1,0.2,0,0.3-0.1,0.4c-0.4,0.8-1.2,0.6-1.9,0.6c-0.3,0-0.5-0.2-0.6-0.5H12
	c0.2-0.2,0.6-0.1,0.8-0.4C13,34.9,13,34.6,13.3,34.4z"/>
<path class="st185" d="M12.4,36c0.6-0.2,1.3-0.1,1.9-0.6c0.2,0.6-0.2,1.1-0.3,1.6c-0.2-0.3-0.5-0.3-0.8-0.2
	C12.8,36.7,12.8,36.1,12.4,36z"/>
<path class="st186" d="M3.8,32.4c0.5-0.3,1,0,1.6,0v0.8l-0.8,0.1C3.9,33.4,3.6,33.1,3.8,32.4z"/>
<path class="st187" d="M8.3,33.3c0.5-0.1,0.9-0.2,1.5,0.2C9.1,33.6,8.7,33.7,8.3,33.3z"/>
<path class="st188" d="M13.1,36.9c0-0.3,0.3-0.3,0.5-0.3c0.3,0,0.3,0.2,0.3,0.5C13.6,37.1,13.3,37.2,13.1,36.9z"/>
<path class="st189" d="M3.4,36.7h2c0.4,0,0.5,0.2,0.5,0.6v9.8c0,0.5-0.1,0.6-0.6,0.5l-2-0.3c-0.1-0.1,0-0.2,0.1-0.2
	c0.4-0.2,0.8-0.2,1.2-0.1c0.6,0.1,0.8-0.1,0.8-0.7v-4.5v-1.2c0,0.9,0,0.9-1.1,1.1c-0.2,0-0.4-0.1-0.5-0.3c-0.3-0.9-0.4-1.7-0.2-2.6
	l0.1-0.2c0.4-0.2,0.7-0.1,1.1-0.1c0.2,0,0.5,0.1,0.6-0.3c0-0.3-0.2-0.3-0.4-0.4c-0.6-0.1-1.1-0.4-1.6-0.8C3.4,37,3.4,36.7,3.4,36.7z
	"/>
<path class="st190" d="M3.4,36.7v0.2c0,0.6,0.8,1,0.3,1.6c-0.3,0.6-0.1,1.2-0.1,1.9v1c-0.2,1.6,0,3.1-0.1,4.7c0,0.3,0.1,0.8-0.4,0.9
	L3,43.2V37C3,36.7,2.9,36.3,3.4,36.7z"/>
<path class="st191" d="M3.1,47.1c0.3-0.2,0.2-0.6,0.2-0.8v-4.2c0-0.3-0.1-0.6,0.2-0.8c0.3-0.1,0.4,0.1,0.5,0.3l0.2,0.3
	c0.1,0.2,0.2,0.4,0.1,0.6c-0.2,0.3-0.4-0.1-0.7-0.1c0.1,1.4-0.2,2.8,0.2,4.2c0.1,0.3-0.2,0.3-0.3,0.4v0.1
	C3.3,47.2,3.2,47.2,3.1,47.1z"/>
<path class="st192" d="M7.1,35l-5.2-0.4v-0.2c1.7,0,3.5,0.4,5.2,0.3C7.1,34.7,7.1,35,7.1,35z"/>
<path class="st193" d="M2.3,41C2,40.5,2,40.2,2.2,39.9C2.6,40.2,2.4,40.5,2.3,41z"/>
<path class="st62" d="M52.5,32c0.8,0,1.6-0.2,2.3,0.1C54.8,32.1,52.5,32,52.5,32z"/>
<path class="st194" d="M66.5,36.7l0.2,0.2c0.5,0.2,1.1-0.1,1.7,0.1h1.1c0.8,0.3,1.7,0.4,2.6,0.3c0.8-0.1,1.6,0.1,2.3,0.2
	c0.5,0.1,1-0.2,1.4,0.1c0.3,0.3,0.2,0.6,0.2,0.9v5.9c-0.1,4.1,0,8.2,0,12.3c0,0.3,0.1,0.7-0.2,1v2.2c0.2,1.1,0.2,2.3,0,3.4
	c-0.5,0.5-1.1,0.1-1.5,0l-10.7-2l-2.2-0.4c-0.6-0.1-0.8-0.4-0.8-0.9v-0.4V37.7c0-0.7,0.1-1.1,0.9-0.8h0.6
	C63.6,36.4,65.1,36.8,66.5,36.7z"/>
<path class="st195" d="M50.9,57.7v-0.2c-0.4-0.1-1.1-0.1-1-0.7c0.1-0.8-0.5-1.7,0-2.5c0.2-0.5,0.2-1.2,1-1.1l3.5-0.7l1-0.1v2.8
	c-0.3,0.1-0.5-0.1-0.6-0.3c0-1.3,0-1.3-1.2-1h-0.3c-0.3,0-0.5-0.2-0.8-0.3l0.6,0.4l0.2,0.1c0.7,0.4,1.5,0.8,2,1.6
	c0,0.5,0.2,1,0.5,1.4h-0.3C55.1,57.3,55,57,55,56.7c0.1-0.5-0.1-0.8-0.6-1c-0.8-0.3-1.5-0.8-2.2-1.2s-1.2,0-1.3,0.8
	C51,56.1,51.6,56.9,50.9,57.7z"/>
<path class="st196" d="M45.7,49l0.2,0.2c0.2-0.5,0.7-0.4,1-0.6l0.1,0.2c0.1,0.1-0.3,0.3,0,0.4c0.9,0.5,0.9,0.5,0.5,1.5
	c0,0.3,0.5,0.3,0.3,0.6c-0.3,0.2-0.6,0.2-0.9,0.1l-1.1-0.2c-0.1,0.3,0.2,0.4,0.2,0.6c-0.3,0.1,0.1,0.3,0,0.4l-0.1,0.4l0.2,0.4
	c0.5,0.2,0.4,0.5,0.1,0.8c-0.5,0.6-0.4,0.9,0.3,1.2c0.2,0.1,0.5,0.2,0.5,0.4c0,0.3-0.4,0.3-0.6,0.3c-0.2,0-0.5-0.1-0.7,0.1l-0.3-0.1
	c-0.1-0.5,0-1.1-0.2-1.6c-0.1-0.2-0.5-0.3-0.6-0.6c0-0.3,0-0.6-0.2-0.8c0.3-0.2,0.9,0.1,0.8-0.5c0-0.4,0.3-1-0.4-1.3
	c-0.4-0.1-0.6-0.5-0.5-0.8c0,0,0,0,0-0.1c0.2-0.1,0.4,0.1,0.6,0.1c0.5,0,0.8,0,0.5-0.6C45.5,49.3,45.5,49.1,45.7,49z"/>
<path class="st197" d="M54,47.1c0.4,0.1,0.4,0.5,0.3,0.8c-0.5,0.4-1.1,0.4-1.7,0.5c-0.8,0-1.5,0.3-2.5,0.2l0.6,0.1
	c-0.3,0.5-0.7,0.7-1.3,0.6c-0.3-0.4-0.7-0.2-1-0.2c-0.5,0-1,0.1-1.4-0.3v-0.1c0.9-0.7,1.9-1,3-0.4c0.4,0.2,1.5-0.6,1.6-1.1
	c0-0.2-0.1-0.4,0.2-0.6c0.2,0.7,0.7,0.9,1.3,0.6C53.4,47,53.7,47.1,54,47.1z"/>
<path class="st198" d="M55.5,55.2c-0.1-0.9-0.3-1.8,0-2.8c0.6-0.2,0.9-0.2,0.8,0.6v3.4c0,0.2,0.1,0.6-0.3,0.6
	c-0.8-0.2-0.6-0.8-0.7-1.3c0.3-0.2,0.8-0.2,0.7-0.8C55.9,55.4,55.9,55.4,55.5,55.2z"/>
<path class="st199" d="M50.8,48.7h-0.9c1.6-0.5,3.1-0.6,4.5-0.8c-0.1,1.2-0.4,1.5-1.6,1.4c-0.3,0-0.6,0.1-0.8,0l-0.3-0.2
	C51.4,48.8,51,48.9,50.8,48.7z"/>
<path class="st200" d="M45.5,55.7h0.3c0.4,0,0.8,0,1.1,0.3v1c-0.1,0.6,0.1,0.9,0.7,1c-0.5,0.2-1-0.3-1.5,0l-0.4-0.1l-0.3-0.2
	c-0.3-0.5-0.4-1.1-0.3-1.6C45.3,55.9,45.5,55.9,45.5,55.7z"/>
<path class="st201" d="M54,47.1l-1.5,0.4c-0.7,0.1-0.9-0.3-0.7-0.9C52.6,46.4,53.4,46.2,54,47.1z"/>
<path class="st202" d="M45.7,49v0.4c0.2,0.9,0.2,0.9-0.8,0.9c0.2-0.3-0.7-0.7,0.1-1c-0.1-0.1-0.1,0-0.2,0c-0.4,0.1-0.4-0.2-0.5-0.4
	C44.7,48.2,45,48.2,45.7,49z"/>
<path class="st203" d="M51,53.3c-0.6,0.1-0.5,0.9-1,1.1c-0.4-0.3-0.5-0.7-0.6-1.2c0.6-0.1,1.2,0.1,1.3-0.8H51V53.3z"/>
<path class="st204" d="M45.2,56c0.3,0.5,0.3,1.1,0.3,1.6c-0.6,0.3-0.9-0.2-1-0.6C44.4,56.5,44.6,56.1,45.2,56z"/>
<path class="st205" d="M75.9,63.4V60c0.4,0,0.3,0.4,0.3,0.6v2.9L75.9,63.4z"/>
<path class="st206" d="M53,45.5c-0.2,0-0.7,0.1-0.7-0.5c0-0.4,0.3-0.3,0.5-0.3c0.4,0,0.8-0.1,0.9,0.5C53.7,45.6,53.4,45.6,53,45.5z"
	/>
<path class="st207" d="M44.4,49c0.2,0.1,0.3,0.5,0.6,0.2c0.1-0.1,0.2-0.4,0.4-0.2l0.2,0.3c0,0.3-0.3,0.2-0.5,0.3h-0.2
	c-0.2,0.3,0.7,0.5,0.1,0.7L44.5,50L44.4,49z"/>
<path class="st208" d="M51.9,49.2c0.3,0,0.6-0.1,0.8,0.1c-0.4,0.6,0.1,1.4-0.3,2c-0.2-0.1-0.2-0.3-0.3-0.4L52,50.6
	C52.1,50.1,51.8,49.7,51.9,49.2z"/>
<path class="st209" d="M49.8,35.6l0.2,0.3c-0.8,0-1.7,0.1-2.5-0.3c0-0.2,0.1-0.2,0.3-0.1L49.8,35.6z"/>
<path class="st210" d="M52.2,50.8c0.3,0.1,0.1,0.3,0.2,0.5c-0.2,0.5-0.5,0.8-1,1c-0.2,0-0.3,0-0.4-0.2L52.2,50.8z"/>
<path class="st211" d="M45.9,38.4c0.4,0.1,0.6,0.1,0.6,0.4c0,0.2-0.1,0.3-0.4,0.3c-0.2,0-0.4-0.1-0.4-0.4
	C45.7,38.5,45.8,38.4,45.9,38.4z"/>
<path class="st212" d="M39.1,40.5V50c-0.4,0.3-0.9,0.5-1.4,0.1l-0.1-0.9v-7.9c0-0.3,0-0.7,0.2-0.9c0.1-0.1,0.3-0.1,0.4,0l0.1,7.4
	v-7.4c0.1-0.1,0.3-0.1,0.4,0l0.1,0.6v0.7l0.1-1C38.9,40.5,39,40.5,39.1,40.5z"/>
<path class="st213" d="M34.9,52.3c-0.3,0-0.5,0-0.5-0.4V39.5c0-0.3,0.1-0.5,0.4-0.4v0.3l0.2-0.1l0.2,0.3v11.2l0.1,0.7
	C35.2,51.6,35.2,52,34.9,52.3z"/>
<path class="st214" d="M34.9,52.3c0.2-0.3-0.1-0.9,0.5-1c0.3-0.4,0.7-0.4,1.1-0.5l1.8-0.3c0.3,0,0.7-0.1,0.8,0.3v1.3
	c-0.3,0.2-0.7,0.2-1.1,0.3c0.4,0,0.8-0.2,1.1,0c0,0.5-0.1,0.8-0.7,0.6C38.4,53,34.9,52.3,34.9,52.3z"/>
<path class="st215" d="M35.1,39.4v-0.2c0.5-0.2,1-0.1,1.5,0l1.5,0.1c1.1,0,1.1,0,1.1,1.2l-0.3-0.1h-0.3c-0.1,0.1-0.1,0.1-0.2,0h-1.6
	l-0.4-0.1l-0.3-0.1c-0.1-0.6-0.2,0.2-0.3,0L35.4,40C35.1,39.7,35.2,39.5,35.1,39.4z"/>
<path class="st216" d="M39.1,50.8c-0.4-0.3-0.8-0.1-1.2,0l-2.6,0.5c-0.4,0-0.4-0.3-0.3-0.5c0.5-0.5,1.1-0.4,1.7-0.6l0.3-0.1l0.5-0.1
	l0.2,0.1c0.4,0.1,0.9-0.1,1.3-0.2C39,49.9,39.1,50.8,39.1,50.8z"/>
<path class="st217" d="M32.7,36.5l8.1,0.6c-2.7,0.1-5.4,0-8.1-0.3C32.7,36.8,32.7,36.5,32.7,36.5z"/>
<path class="st218" d="M33.7,43.8c-0.1,0.2,0.1,0.6-0.3,0.6s-0.3-0.4-0.3-0.6c0-0.2-0.1-0.6,0.3-0.6S33.7,43.5,33.7,43.8z"/>
<path class="st219" d="M39.1,52.3c-0.5,0.1-1,0.3-1.7,0.2c0.7-0.3,1.2-0.4,1.7-0.4V52.3z"/>
<path class="st220" d="M36.5,39.2H35h-0.2l-0.1-0.1C35.4,39,36,38.9,36.5,39.2z"/>
<path class="st221" d="M27.2,33.9v1.6c-0.7,0.4-1.4,0.4-2-0.1c0.6-0.2,0.2-0.7,0.3-1c0.1-0.2,0-0.4,0.2-0.4c0.3,0,0.3,0.3,0.3,0.5
	v0.7c0,0.2-0.2,0.4,0.2,0.5c0.3,0,0.4-0.1,0.4-0.4v-0.7C26.7,34,26.9,33.9,27.2,33.9z"/>
<path class="st222" d="M25.2,35.4c0.6,0.4,1.3,0.4,2,0.1c0,0.4-0.1,0.5-0.5,0.5c-0.4-0.2-0.8-0.1-1.3-0.1
	C25.1,35.9,24.9,35.8,25.2,35.4z"/>
<path class="st223" d="M37.6,34.6c0,0.1-0.1,0.3-0.3,0.2c-0.2,0-0.2-0.2-0.2-0.3s0.1-0.3,0.2-0.2C37.6,34.3,37.6,34.5,37.6,34.6z"/>
<path class="st63" d="M22.6,33.9H22c0-0.3,0.1-0.3,0.3-0.3h0.3C22.8,33.7,22.8,33.8,22.6,33.9z M27.7,34.1c0.2,0.2,0.6,0.3,0.6,0.9
	C28,34.6,27.7,34.5,27.7,34.1z"/>
<path class="st224" d="M75.9,57.8V37.7c0.5,0,0.3,0.4,0.3,0.7c0,2.6,0.2,5.3,0,7.9c-0.3,3.7,0.3,7.3,0,11
	C76.1,57.4,76.5,58,75.9,57.8z"/>
<path class="st225" d="M45.2,35.1c0.4,0.1,0.8-0.2,1.2,0.4L46,35.3c0.6,1.2-0.7,0.9-1.1,1.4l0.1-0.9C45.4,35.7,45,35.2,45.2,35.1z"
	/>
<path class="st226" d="M45.2,35.1l0.1,0.4c0,0.2,0.3,0.3,0,0.5s-0.3-0.1-0.5-0.3c-0.1-0.2-0.4-0.4-0.1-0.7c0.1-0.1,0.1-0.3,0.3-0.2
	C45.2,34.8,45.2,35,45.2,35.1z"/>
<path class="st227" d="M68.6,36.4c0,0.1,0,0.3-0.3,0.3c-0.2-0.1-0.5,0-0.5-0.4c0-0.2,0.2-0.3,0.4-0.3C68.5,35.9,68.6,36.1,68.6,36.4
	z"/>
<path class="st228" d="M68.8,36.3c0-0.2,0.1-0.3,0.4-0.3c0.2,0,0.3,0.2,0.3,0.4s-0.1,0.3-0.3,0.3C68.9,36.7,68.8,36.6,68.8,36.3z"/>
<path class="st229" d="M67.3,35.9c0.2,0,0.3,0.1,0.3,0.3s-0.1,0.3-0.3,0.3c-0.2,0-0.3-0.1-0.3-0.3L67.3,35.9z"/>
<path class="st113" d="M68.3,37c-0.6,0-1.1,0.2-1.7-0.1C67.2,36.9,67.8,36.8,68.3,37z"/>
<path class="st230" d="M54,35.9c-0.3,0.1-0.7-0.2-1.2-0.1c-0.2,0-0.4-0.1-0.4-0.3c0-0.3,0.2-0.3,0.5-0.3l1.6,0.1
	c0.2,0,0.5-0.1,0.5,0.3s-0.3,0.3-0.5,0.3H54z"/>
<path class="st231" d="M52.6,60.8v-1.1c0-1,0-1,1-0.8c1.7,0.3,1.7,0.3,1.7,2.1v0.2L52.6,60.8z"/>
<path class="st232" d="M47,56.1c-0.4,0-0.8-0.1-1.1-0.3c0-0.1-0.2-0.3,0.1-0.3l1,0.1c0-0.2-0.1-0.2-0.2-0.2
	c-1.1-0.3-1.3-0.7-0.5-1.6l0.2-0.2c0.1-0.5-1.2,0-0.6-0.9c0.2-0.2,0.4-0.1,0.6,0c-0.1-0.1-0.4-0.1-0.4-0.3l-0.2-0.2l0.2-0.1
	c0.3-0.3,0.7-0.2,1.1-0.2c0.4,0.1,0.6,0.3,0.6,0.7v3.1c0,0.2,0,0.5-0.4,0.5C47.4,56.2,47,56.1,47,56.1z"/>
<path class="st233" d="M52.2,50.8c-0.1,0.7-0.6,1-1.2,1.3c0.3-1.2-0.4-1.9-1.8-2.1c-0.3,0-0.8,0.1-0.8-0.4c0.2-0.4,0.5-0.5,1-0.4
	s0.8-0.4,1.3-0.5c0.3,0.1,0.8-0.3,1,0.3s0.4,1.2,0.1,1.8l0.2-0.1C52,50.7,52.2,50.8,52.2,50.8z"/>
<path class="st234" d="M47.8,51.3c-0.2-0.2-0.8-0.2-0.3-0.7l0.1-0.1c0.7,0,1.5,0,2.3,0.3c-0.2,0.3-0.5,0.1-0.7,0.3
	c-0.6,0-0.8,0.2-0.8,0.9l0.2,4.9c0,0.3,0.1,0.6-0.1,0.9C48,57.7,48,57.3,48,57c-0.4-1.4-0.1-2.8-0.3-4.2v-0.4
	C47.7,52.1,47.5,51.7,47.8,51.3z"/>
<path class="st235" d="M47.8,51.3v1.1c-0.2,1.1,0,2.1-0.1,3.2c0.1-1-0.1-1.9,0.1-2.9c0.3,1.4,0.1,2.9,0.1,4.3
	c-0.1-0.4-0.3-0.7-0.6-1c0.4-0.8,0.1-1.6,0.2-2.4v-1.1c0-0.4-0.2-0.5-0.5-0.5c-0.3-0.2-0.3-0.5,0-0.7C47.3,51.5,47.6,51.2,47.8,51.3
	z"/>
<path class="st236" d="M49.5,49.2c-0.4,0-0.6,0.4-1,0.4c-0.9-0.1-0.3,0.6-0.6,0.9c-0.1,0.2-0.3,0-0.5,0.2c-0.1,0-0.3,0-0.1-0.2
	s0.6-0.3,0.4-0.7c-0.2-0.3-0.5-0.3-0.8-0.3c-0.1,0-0.3,0.1-0.4-0.1c0-0.4,0.6-0.2,0.6-0.6c0.8,0.4,1.5,0.1,2.3,0.1
	C49.6,48.8,49.6,48.8,49.5,49.2z"/>
<path class="st196" d="M47.5,50.6c0.1-0.2,0.3-0.1,0.5-0.2c0.7,0.1,1.3-0.1,2,0.1c0.2,0.1,0.4,0,0.4,0.3c0,0.2-0.2,0.3-0.4,0.3h-0.8
	c0.1-0.2,0.3-0.1,0.5-0.2C48.9,50.6,48.2,50.6,47.5,50.6z"/>
<path class="st237" d="M22.9,20.2c-0.5-0.3-0.9,0-1.2-0.3c0.1-0.3,0.4-0.3,0.5-0.2c1,0.3,2,0.1,3,0c0.7-0.1,1,0.3,1,0.9v3.5
	c0,0.7-0.3,1.1-1.1,1.1c-1.2,0.1-2.4-0.5-3.6-0.3c-0.3,0-0.4-0.2-0.4-0.5v-3.8c0-0.4,0.2-0.5,0.6-0.5C21.7,20.1,22.9,20.2,22.9,20.2
	z"/>
<path class="st238" d="M21.6,26.9c-0.8,0-0.6-0.5-0.6-1c0-0.6,0.4-0.4,0.7-0.4H25c0.3,0,0.5-0.1,0.8,0.2c-0.1,0.2-0.3,0.2-0.4,0.2
	c-0.7-0.1-0.9,0.4-0.8,0.9s-0.1,0.4-0.4,0.4h-2.5L21.6,26.9c0.3-0.2,0.3-0.5,0.1-0.8C21.7,26.4,21.9,26.7,21.6,26.9z"/>
<path class="st239" d="M26.5,26.2c0.2-0.8,0.2-1.6,0.2-2.4V20c0-0.2,0-0.4,0.2-0.6v7c0,0.7-0.2,0.8-0.8,0.6v-0.1v-0.1
	C26.3,26.7,26.5,26.6,26.5,26.2C26.4,26.3,26.5,26.2,26.5,26.2z"/>
<path class="st240" d="M24.7,19.2V18c0.1-0.3,0.2-0.6,0.6-0.6c0.1,0.4,1.2,0.9-0.2,0.9c-0.2,0-0.1,0.2-0.1,0.4
	C25,19,25,19.2,24.7,19.2z"/>
<path class="st241" d="M26.5,26.2c-0.1,0.3,0.2,0.8-0.5,0.7c0-0.2,0.1-0.6-0.4-0.3c-0.3,0.2-0.3-0.1-0.4-0.3
	c-0.1-0.2,0.1-0.3,0.3-0.3C25.9,26.1,26.3,26,26.5,26.2z"/>
<path class="st150" d="M26.7,17.7c0.3,0.4,0.1,0.8,0.1,1.3c-0.7,0.1-0.7-0.2-0.5-0.7C26.3,18.3,26.7,17.7,26.7,17.7z"/>
<path class="st242" d="M21,18.4c-0.1-0.6,0.3-0.5,0.6-0.5C21.8,18.6,21.3,18.4,21,18.4z"/>
<path class="st243" d="M26.7,12.3c-0.4,0.3-1,0.1-1.4,0.5c0.2,0.3,1.3,0.5,0.1,0.9c-0.3,0.1-0.2,2.2,0,2.3h1
	c0.3,0.1,0.5,0.5,0.2,0.6s-0.5,0.7-0.9,0.2c-0.2-0.2-0.2-0.2-0.7,0.5c-0.2-1.9,0-3.7-0.1-5.5l1.1-0.1C26.5,11.6,26.8,11.7,26.7,12.3
	z"/>
<path class="st244" d="M21.1,14.1l0.1-0.3c-0.5-0.3-0.2-0.8-0.3-1.2c0.7-0.3,0.8,0.3,0.8,0.7v3.1l-0.3-0.1
	C20.8,15.7,21.2,14.9,21.1,14.1z"/>
<path class="st245" d="M21.1,14.1l0.2,0.3c-0.3,0.7,0.1,1.3,0.1,1.9c-0.2,0-0.5,0.1-0.4-0.1C21,15.5,20.8,14.8,21.1,14.1z"/>
<path class="st246" d="M48.3,11.6c1.2-0.3,2.4-0.3,3.6-0.3c0.4,0,0.5,0.2,0.5,0.6c0,1.6,0.1,3.2-0.1,4.8c-0.1,0.7,0.3,1.4-0.1,2.1
	h-1.1c-0.2-0.2-0.5,0-0.7-0.2c-0.1-0.2-0.1-0.4,0-0.6l0.1-0.2c0.2-0.3,0.5-0.6,0.5-1c-0.1-1.2,0.2-2.4,0.2-3.7
	c0-0.8-0.1-0.9-0.9-0.8c-0.4,0.1-0.8,0.2-1.2,0c-0.2-0.1-0.5-0.1-0.5-0.4c0-0.3,0.4-0.1,0.6-0.3c0.1,0-0.1-0.1,0,0l-0.1,0.1
	C48.8,11.7,48.5,11.8,48.3,11.6z"/>
<path class="st247" d="M52.2,20.4l0.2,0.8c-0.4,0.5-0.4,1-0.4,1.5c0,0.3-0.1,0.7-0.4,0.7c-0.4,0-0.3-0.4-0.4-0.7l-0.1-0.6v0.1
	c0,0.4,0.3,1.1-0.2,1.2c-0.6,0.1-0.5-0.7-0.4-1.1c0.2-1-0.5-1.2-1.2-1.5c-0.1,0.1,0,0.2,0,0.4c0,0.3,0.2,0.8-0.2,0.8
	c-0.4,0.1-0.4-0.4-0.5-0.7c0-0.4-0.1-0.8,0.1-1.2V20c0.2-0.1,0.4-0.2,0.6,0.1C50.3,20.4,51.3,20.4,52.2,20.4z"/>
<path class="st246" d="M49,18.7c-0.2-0.1-0.5,0.1-0.6-0.2c0.4-0.5,0.4-1.1,0.6-1.7c0.1-0.3,0.1-0.5,0.3-0.7c0.2-0.2,0.4-0.3,0.7-0.2
	s0.6,0.3,0.6,0.6c-0.1,0.5,0.1,1.1-0.1,1.6c-0.4,0.3-0.9,0.3-1.3,0.6C49.2,18.7,49,18.7,49,18.7z"/>
<path class="st248" d="M49.3,20.2l-0.6-0.1l0.1-0.3h0.6c1.1-0.8,2-0.4,3.1,0.3c-0.9,0.3-1.6-0.5-2.4-0.4c0.1,0.2,0.4,0.1,0.4,0.4
	C50.5,20.1,49.3,20.2,49.3,20.2z"/>
<path class="st249" d="M49.1,18.7c0.3-0.6,0.8-0.6,1.3-0.6v0.6c-0.4,0.2-0.8,0.1-1.1,0.1L49.1,18.7z"/>
<path class="st250" d="M52.9,19.2v-2.9c0.3,1.1,0.1,2.2,0.1,3.3c0,0.2-0.3,0.1-0.4,0.1C52.7,19.5,53,19.4,52.9,19.2z"/>
<path class="st164" d="M49.3,18.7l1.1-0.1c0.3-0.1,0.5,0,0.7,0.2C50.5,18.9,49.9,18.9,49.3,18.7z"/>
<path class="st249" d="M50.5,18c0-0.5-0.3-1-0.1-1.5c0.1-0.3-0.2-0.4-0.4-0.5c-0.3-0.1-0.6,0-0.7,0.3c-0.1,0.6-0.5,1.2-0.4,1.9
	c0,0.4-0.3,0.4-0.6,0.4v-5c-0.1-0.6-0.1-1.3,0-1.9h0.8c-0.1,0.3-0.5,0-0.6,0.4c0.4-0.1,0.7,0.3,1.1,0.2c1.7-0.4,1.7-0.4,1.7,1.3
	c0,1.2-0.3,2.4-0.2,3.6C51.2,17.6,50.7,17.7,50.5,18z"/>
<path class="st251" d="M48.6,20.2v1.2c0.4,1.3,0.2,2.6,0,3.9l-0.3-0.1v-2.3v-2.3C48.3,20.4,48.3,20.1,48.6,20.2z"/>
<path class="st252" d="M47.9,19.1v3.5h-0.2v-7.9c0.3,0.8,0.1,1.6,0.1,2.4C47.8,17.1,47.9,19.1,47.9,19.1z"/>
<path class="st246" d="M48.3,11.6v1.9l-0.1-0.1C48.2,12.8,48.1,12.2,48.3,11.6z"/>
<path class="st253" d="M48.6,25.4v-3.9l0.3,0.7c0.2-0.6-0.2-1.1,0.1-1.6c0.5,0.1,0.8,0.9,1.6,0.4c-0.1,0.9-0.1,1.7,0.1,2.6
	c0.4-0.7,0.1-1.3,0.3-1.9l0.5,1.8c0.4-0.6,0.1-1.2,0.4-1.8c0.1-0.3,0.1-0.5,0.5-0.5v4.2H50c-1.1,0-1.1,0-1-1
	C48.6,24.6,49.1,25.2,48.6,25.4z"/>
<path class="st254" d="M13.3,34.4c0,0.3-0.1,0.6-0.4,0.8c-0.4-0.2-1.1,0.2-1.1-0.6c-0.2-0.5,0.1-1,0.4-1.2c0.4-0.2,0.7,0.2,0.9,0.7
	C13.1,34.1,13.3,34.4,13.3,34.4z"/>
<path class="st255" d="M11.8,34.6c0.2,0.6,0.9,0.2,1.1,0.6c-0.1,0.6-0.6,0.3-0.9,0.3C11.8,35.2,11.5,35,11.8,34.6z"/>
<path class="st256" d="M4.8,33.1c-0.2,0-0.4,0-0.3-0.3c0-0.2,0.2-0.2,0.3-0.2c0.2,0,0.3,0,0.3,0.3C5,33.1,4.9,33.1,4.8,33.1z"/>
<path class="st257" d="M3.5,47.1c-0.1-0.2,0.6-0.2,0.1-0.5c-0.2-0.1-0.1-0.3-0.1-0.4v-4.1C4,42,3.9,42.5,4.2,42.6
	c0.2-0.4-0.3-0.6-0.4-0.9l0.1-0.3l0.5,0.2c0.4,0.5,0.9-0.1,1.3,0v5.1c0,0.6-0.3,0.7-0.8,0.6C4.5,47,4,47,3.5,47.1z"/>
<path class="st258" d="M3.8,38.5c0.2-0.6-0.6-1-0.3-1.6c0.7,0.2,1.3,0.7,2.1,0.7c0.3,0,0.2,0.5,0.1,0.7c0,0.2-0.2,0.3-0.5,0.3
	C4.7,38.4,4.2,38.5,3.8,38.5z M5.7,41.5L5.7,41.5c-0.5,0.8-0.9,0.6-1.3,0c0.2,0,0.2-0.8,0.6-0.1c0.1,0.2,0.2-0.1,0.2-0.2v-0.6
	c0-0.3-0.1-0.7,0.2-0.7c0.4,0,0.2,0.4,0.2,0.6C5.8,40.9,5.7,41.2,5.7,41.5z M3.9,41.3l-0.1,0.3l-0.4-0.3v-2.4c0-0.2-0.1-0.5,0.3-0.3
	c0,0.8-0.2,1.6,0.3,2.4L3.9,41.3z"/>
<path class="st259" d="M71.3,52v0.3c-0.1,0.3-0.4,0.4-0.7,0.3c-1.5-0.4-3.1-0.2-4.6,0.3h-0.7c-0.3-0.5-0.1-1.1-0.3-1.6v-0.6
	c0.2-0.9,0-1.8,0.2-2.7c0.6-0.7,1.7-0.9,2.7-0.5v-0.1c0.3-0.4,0.7-0.7,1.2-0.3c0.3,1.2,0.1,2.3,0.1,3.5c0,0.5,0.1,0.8,0.6,0.8
	c0.1,0.1,0.3,0.1,0.3,0.3C70,52,69.7,52,69.6,52C70,51.9,70.7,51.8,71.3,52z"/>
<path class="st260" d="M65.2,50.6v0.5c0.2,0.5-0.1,1.1,0.1,1.6c1.4-0.3,2.8-0.8,4.3-0.6c0.5,0.1,1,0.5,1.6,0.1
	c0.3,0.6,0.1,1.2,0.1,1.8L71,54.1c-0.7-0.7-1.6-0.7-2.4-0.7c-0.6,0-1.2,0-1.8-0.2c-0.4-0.1-0.8-0.1-1.2,0.1c0.8,0.4,0.3,0.7-0.1,0.9
	c0.2,0.5,0.7,0.4,1,0.4l2.2,0.4c0.5,0.2,1,0.1,1.4,0.4c-0.1,0.8-0.7,0.8-1.3,0.8c-0.8,0.2-1.6,0.2-2.4,0.5c-0.2,0.1-0.7,0.2-0.8,0
	c-0.2-0.4-0.3-0.2-0.5,0l-0.4,0.4h-0.2c-0.2-0.1-0.2-0.2-0.2-0.3v-9.7c0.2-0.8,0-1.7,0-2.5v-2.7c0-0.2-0.1-0.4,0.2-0.4
	c0.2,0,0.4,0.1,0.4,0.3L65,43v4.3l-0.1,0.4C65.2,48.7,65.3,49.7,65.2,50.6z"/>
<path class="st261" d="M69.9,51.4c-1,0.1-1,0.1-1-0.9v-3.7v-0.1L68.8,45v-0.2V44l-0.1-0.7c0-0.5,0.1-1-0.7-1.4
	c0.7-0.2,1.2-0.1,1.7-0.1c0.5,0.2,1.2-0.3,1.6,0.3c-0.1,0.3-0.5,0.2-0.6,0.4l-0.1,1v6.9C70.7,51,70.7,51.6,69.9,51.4z"/>
<path class="st262" d="M69.8,41.9c-0.5,0-0.9,0-1.4,0.1c1.1,0.2,0.3,1,0.5,1.5c-0.1,0.3-0.5,0.3-0.7,0.3l-3-0.6l-0.1-1.4h-0.3v1.6
	c-0.1,1.3,0.1,2.6-0.2,3.9c-0.2-1.8,0-3.6-0.1-5.3c0-0.3,0.2-0.4,0.4-0.4C66.6,41.6,68.2,41.8,69.8,41.9z"/>
<path class="st263" d="M65.4,54.1c0.1-0.2,0.3-0.1,0.4-0.2c0.1,0,0.2-0.1,0.1-0.2c0-0.1-0.1-0.2-0.2-0.1c-0.2,0.2-0.3,0.1-0.4-0.1
	c-0.1-0.2,0-0.3,0.2-0.4c0.3-0.1,0.6-0.3,0.9-0.2c0.9,0.2,1.7,0.3,2.6,0.3c0.5,0,1.1,0.2,1.6,0.4c0.3,0.1,0.5,0.2,0.5,0.5l-0.3,0.3
	c-0.2,0.1-0.3,0.2-0.5,0.1h-0.7c0.3,0.3,0.7,0.6,1.3,0.3c0.2-0.1,0.4,0,0.5,0.2c0,0.1,0.1,0.3-0.1,0.4c-0.3,0.3-0.6,0.4-1,0.1
	l-1.5-0.3c-0.1-0.4-0.5-0.5-0.9-0.6l-1.7-0.2C65.9,54.4,65.6,54.4,65.4,54.1z"/>
<path class="st264" d="M70.3,55.6l1-0.1c0.2,0.9,0.1,1.7,0.1,2.6c-0.1,0.1-0.2,0.2-0.4,0.1c-1.2-0.4-2.4-0.3-3.6-0.6
	c-0.2-0.1-0.5-0.1-0.6-0.3c-0.1-0.4,0.3-0.4,0.5-0.5c0.5-0.2,1.2-0.2,1.6-0.6C69.5,56.2,69.9,56,70.3,55.6z"/>
<path class="st265" d="M69.9,51.4c0.5-0.1,0.5-0.4,0.5-0.8V43c0-0.2-0.1-0.6,0.2-0.7c0.6,0.2,0.6,0.7,0.6,1.1v7.2
	c0,0.3-0.1,0.7,0.2,1l-0.1,0.3c-0.7,0.4-1.3-0.1-2.1,0C69.4,51.6,69.7,51.7,69.9,51.4C70,51.6,70,51.5,69.9,51.4
	C70,51.5,70,51.5,69.9,51.4z"/>
<path class="st266" d="M71.4,51.6c-0.6,0-0.4-0.4-0.4-0.8v-7.6c0-0.4,0-0.7-0.3-0.9h0.8L71.4,51.6z"/>
<path class="st267" d="M65.5,60l4.3,0.7l4,0.7c0.2,0,0.5-0.1,0.4,0.3c-0.1,0.3-0.3,0.1-0.5,0.1c-1.9-0.3-3.8-0.8-5.7-1
	c-0.9-0.1-1.7-0.4-2.6-0.6C65.4,60.2,65.5,60,65.5,60z"/>
<path class="st268" d="M66.8,57c0.7,0.6,1.5,0.4,2.3,0.6l2.3,0.4c0,0.2,0,0.3-0.2,0.3c-2.1-0.4-4.3-0.6-6.3-1.1H65
	C65.5,56.7,66.2,56.9,66.8,57z"/>
<path class="st269" d="M72.7,39.5c-2-0.1-3.9-0.4-5.9-0.4L66.1,39c0.4-0.3,0.9,0,1.3-0.2l6.1,0.3l0.5,0.1
	C73.7,39.8,73.2,39.5,72.7,39.5z"/>
<path class="st264" d="M71.4,55.1c-0.3,0-0.6-0.3-0.8,0.2c-0.2,0.3-0.3,0-0.5-0.1c-0.3-0.2-0.4-0.6-0.7-0.6c0.2,0.2,0.4-0.8,0.8-0.1
	c0.3,0.2,0.4,0.1,0.5-0.2l0.3-0.2h0.3C71.3,54.1,71.4,55.1,71.4,55.1z"/>
<path class="st270" d="M67.5,38.9c-0.4,0.3-0.9,0.1-1.3,0.2l-4-0.2v-0.3L67.5,38.9z"/>
<path class="st271" d="M62.7,46.9c0.1-0.2-0.2-0.6,0.3-0.6s0.6,0.4,0.5,0.8c0,0.2,0.2,0.6-0.3,0.6S62.7,47.3,62.7,46.9z"/>
<path class="st38" d="M72.7,39.5c0.4-0.1,0.9,0.2,1.3-0.2c0.3,1,0,2,0,3c-0.4-0.5-0.3-1.2-0.2-1.7c0.2-0.9-0.1-1-0.8-0.9
	C73,39.7,72.7,39.5,72.7,39.5z"/>
<path class="st272" d="M53.4,53.9l1.8-0.6c0,0.6,0.2,1.1-0.2,1.6c-0.6-0.1-1.1-0.6-1.6-0.8C53.3,54,53.3,54,53.4,53.9z"/>
<path class="st273" d="M53.4,54.1c0.6,0.1,1.1,0.6,1.6,0.8l0.5,0.3c0.3,0.1,0.5,0.2,0.5-0.2v-0.7c0.3,0.5,0.3,0.9,0.1,1.3
	c-0.1,0.3-0.5,0-0.7,0.1c-0.1-0.5-0.7-0.6-1-0.9C54,54.5,53.6,54.5,53.4,54.1z"/>
<path class="st203" d="M50.8,54.5c0.2,0.6,0.2,1.3,0,1.9l-0.2-1.9H50.8z"/>
<path class="st273" d="M53.4,53.9v0.2c-0.5-0.1-0.9-0.3-1.4-0.8C52.6,53.4,53,53.8,53.4,53.9z"/>
<path class="st274" d="M47,51.3c-0.1,0.2-0.2,0.4,0,0.7h-0.9c-0.6-0.1-0.6-0.5-0.5-1.1C46,51.3,46.6,51,47,51.3z"/>
<path class="st275" d="M46,52.2c0.3,0.2,0.7,0.2,1.1,0.3c-0.5,0.5-0.9,0-1.3,0.1C45.8,52.6,46,52.2,46,52.2z"/>
<path class="st276" d="M45.2,53.6c-0.4,0-0.3-0.3-0.3-0.4c0-0.2,0-0.4,0.2-0.4l0.2,0.2C45.1,53.1,45.2,53.4,45.2,53.6z"/>
<path class="st210" d="M52.1,50.7c-0.2,0.2-0.2,0.5-0.7,0.7c0.6-0.8,0.3-1.6,0.3-2.4l0.2,0.2C52.3,49.6,52.2,50.1,52.1,50.7z"/>
<path class="st277" d="M37.8,50.2h-0.2c-0.4-0.1-0.4-0.4-0.4-0.7v-8.6c0-0.2,0-0.5,0.2-0.7l0.4,0.1C37.8,40.3,37.8,50.2,37.8,50.2z"
	/>
<path class="st278" d="M38.7,40.4l0.3,0.1v9.3h-0.3V40.4z"/>
<path class="st279" d="M38.2,40.3h0.2v9.6h-0.2C38.2,49.9,38.2,40.3,38.2,40.3z"/>
<path class="st280" d="M36.9,50.3c-0.6,0.3-1.2,0.3-1.8,0.5v-0.2l0.1-5.2v-5.3l0.1-0.3l0.3,0.2c0.3,0.3,0.2,0.6,0.2,0.9l0,0
	c0-0.3-0.1-0.7,0.2-0.9h0.3c0.2,0.3,0.2,0.6,0.2,0.9v0.2c0-0.3-0.1-0.7,0.2-0.9h0.2c0.4,0.2,0.4,0.6,0.4,0.9v8.3
	C37.1,49.8,37.1,50.1,36.9,50.3z"/>
<path class="st220" d="M35.2,39.8v10.4l-0.1,0.4V39.4C35.3,39.5,35.2,39.7,35.2,39.8z"/>
<path class="st281" d="M34.9,39.2v6h-0.2v-3.9C34.8,40.6,34.5,39.9,34.9,39.2z"/>
<path class="st282" d="M35.9,40v10.4h-0.4V40C35.6,39.8,35.8,39.6,35.9,40z"/>
<path class="st283" d="M36.5,40.1v10.1h-0.4V40L36.5,40.1z"/>
<path class="st284" d="M36.9,50.3v-9.2l-0.1-1h0.5c0.2,0.2,0.2,0.5,0.2,0.8v8.6c0,0.3,0,0.6-0.2,0.8H36.9z"/>
<path class="st285" d="M37.2,50.3V40.2h0.3v9.3c0,0.3-0.1,0.6,0.2,0.8H37.2z"/>
<path class="st146" d="M47.8,52.8v3.1c-0.1-1.1-0.4-2.3,0-3.4C47.8,52.5,47.8,52.8,47.8,52.8z"/>
<path class="st286" d="M21.8,20.5c1.2-0.4,2.3-0.1,3.5-0.2c0.3,0,0.2,0.4,0.2,0.6v3.5c-0.7,0.4-1.4,0.2-2.1,0.2
	c-1.8,0-2,0.4-1.9-1.9C21.6,22,21.3,21.2,21.8,20.5z"/>
<path class="st287" d="M21.8,20.5v3.2c0,0.5,0.2,0.7,0.7,0.7h3.1c0.4-0.8,0.1-1.6,0.2-2.5c0-1.7,0-1.7-1.7-1.8c-0.1,0-0.3,0-0.4-0.2
	h1.8c0.4,0,0.5,0.2,0.5,0.5v3.8c0,0.4-0.2,0.5-0.5,0.5H22c-0.4,0-0.6-0.2-0.6-0.6v-3.4C21.3,20.4,21.4,20.3,21.8,20.5z"/>
<path class="st288" d="M21.6,26.9c0-0.2,0-0.5-0.2-0.7c-0.1-0.1-0.2-0.3,0-0.4s0.4-0.2,0.6,0C22.3,26.2,22.1,26.7,21.6,26.9z"/>
<path class="st289" d="M65.2,47.7v-0.3c0.1-1.3,0.1-1.3,1.5-1.6c0.8-0.2,1.5-0.4,2.2-0.8c0.2,0.6,0.1,1.3,0,2
	c-0.7,0-1.1,0.4-1.2,1.1c0.1-0.8-0.2-0.9-0.9-0.7l-1.6,0.4C65.3,47.7,65.3,47.7,65.2,47.7z"/>
<path class="st290" d="M65.2,47.7L65.2,47.7c0,1,0.3,2,0,2.9V47.7z M65.4,52.8c-0.3-0.5-0.1-1.1-0.1-1.6
	C65.5,51.7,65.3,52.2,65.4,52.8z M68.9,44.9c-0.2,0.3-0.3,0.7-0.9,0.7l-1.3,0.3c-0.8,0.2-1.7,0.3-1.5,1.4v-2.7
	c1.2-0.5,2.4-1,3.7-0.5C69.2,44.5,68.9,44.7,68.9,44.9z"/>
<path class="st291" d="M69,44.3c-1.3-0.2-2.5,0.3-3.7,0.5v-1.6c0.8-0.1,1.6,0.1,2.4,0.3c0.4,0.1,0.9,0.2,1.3,0.1
	C69,43.6,69,44.3,69,44.3z"/>
<path class="st259" d="M65.4,54.1l3,0.4c0.4,0.1,0.9,0.2,0.4,0.8l-3.1-0.5C65.3,54.7,65.1,54.5,65.4,54.1z"/>
<path class="st292" d="M66.8,57l-1.9,0.2c0.1-0.7,0.7-0.9,1.3-1.1c0.1,0.4-0.4,0.3-0.5,0.8c0.3-0.5,1.1,0.2,1-0.7l0.3-0.1
	c0.6,0.8,1.2,0,1.8,0h0.1c0.1,0.2,0,0.3-0.2,0.4C68.7,56.5,66.8,57,66.8,57z"/>
<path class="st290" d="M69,46.9v-2C69.2,45.6,69.1,46.2,69,46.9z"/>
<path class="st293" d="M70.8,54.2l0.3,0.1c-0.3,0.2-0.6,0.5-0.9,0.4c-0.2-0.1,0.1-0.2,0.2-0.3L70.8,54.2z"/>
<path class="st294" d="M66.1,45.6c0.5-0.4,1.1-0.5,1.8-0.5C67.3,45.5,66.7,45.7,66.1,45.6z"/>
</svg>
