<?xml version="1.0" encoding="utf-8"?>
<!-- Generator: Adobe Illustrator 22.0.0, SVG Export Plug-In . SVG Version: 6.00 Build 0)  -->
<svg version="1.1" id="图层_1" xmlns="http://www.w3.org/2000/svg" xmlns:xlink="http://www.w3.org/1999/xlink" x="0px" y="0px"
	 viewBox="0 0 100 100" style="enable-background:new 0 0 100 100;" xml:space="preserve">
<style type="text/css">
	.st0{fill:url(#SVGID_1_);}
	.st1{fill:url(#SVGID_2_);}
	.st2{fill:none;stroke:#288CBB;stroke-width:2;stroke-miterlimit:10;}
	.st3{fill:#2C3034;}
	.st4{fill:#879490;}
	.st5{enable-background:new    ;}
</style>
<linearGradient id="SVGID_1_" gradientUnits="userSpaceOnUse" x1="28.2086" y1="97.8039" x2="72.2086" y2="1.8039" gradientTransform="matrix(1 0 0 -1 0 100)">
	<stop  offset="0" style="stop-color:#FFFFFF"/>
	<stop  offset="1" style="stop-color:#575757"/>
</linearGradient>
<path class="st0" d="M50.1,0C22.6,0,0.2,22.3,0.2,49.8S22.5,99.7,50,99.7c27.5,0,49.9-22.3,49.9-49.8C99.9,22.4,77.6,0,50.1,0z
	 M50.1,90.6c-22.4,0-40.5-18.1-40.5-40.5S27.7,9.6,50.1,9.6l0,0c22.4,0,40.5,18.1,40.5,40.5S72.5,90.6,50.1,90.6z"/>
<linearGradient id="SVGID_2_" gradientUnits="userSpaceOnUse" x1="9.5" y1="49.9" x2="90.6" y2="49.9" gradientTransform="matrix(1 0 0 -1 0 100)">
	<stop  offset="0" style="stop-color:#FFFFFF"/>
	<stop  offset="1" style="stop-color:#9C9C9C"/>
</linearGradient>
<circle class="st1" cx="50.1" cy="50.1" r="40.5"/>
<path class="st2" d="M63.7,48.8H36.5c-1.1,0-2-0.9-2-2V32.9c0-1.1,0.9-2,2-2h27.2c1.1,0,2,0.9,2,2v13.9
	C65.7,47.9,64.8,48.8,63.7,48.8z"/>
<path class="st3" d="M63.2,47.3H36.9c-0.6,0-1-0.4-1-1v-13c0-0.5,0.5-1,1-1h26.3c0.5,0,1,0.5,1,1v13C64.2,46.9,63.8,47.3,63.2,47.3z
	"/>
<path class="st4" d="M61.8,45.6H38.7c-0.6,0-1-0.4-1-1v-8.7c0-0.6,0.4-1,1-1h23.1c0.6,0,1,0.4,1,1v8.7
	C62.8,45.1,62.3,45.6,61.8,45.6z"/>
<g class="st5">
	<path d="M49.2,39.5v-1.3l1-1v2.6l-0.4,0.4L49.2,39.5z M50.2,40.8v2.6l-1-1v-1.3l0.6-0.6L50.2,40.8z"/>
	<path d="M51.7,39.7v-2.5l1,1v1.3l-0.6,0.6L51.7,39.7z M55.7,37l-1,1h-1.9l-1-1H55.7z M55.7,43.6h-3.8l1-1h1.9L55.7,43.6z
		 M54.9,39.8l0.5,0.5l-0.5,0.5h-2.1l-0.5-0.5l0.5-0.5H54.9z M55.9,40.8v2.6l-1-1v-1.3l0.6-0.6L55.9,40.8z"/>
	<path d="M57,39.7v-2.6l1,1v1.3l-0.6,0.6L57,39.7z M58,41.1v1.3l-1,1v-2.6l0.4-0.4L58,41.1z M61,37l-1,1h-1.9l-1-1H61z M61,43.6
		h-3.8l1-1H60L61,43.6z M60.2,39.5v-1.3l1-1v2.6l-0.4,0.4L60.2,39.5z M61.2,40.8v2.6l-1-1v-1.3l0.6-0.6L61.2,40.8z"/>
</g>
</svg>
