<svg xmlns="http://www.w3.org/2000/svg" id="图层_1" viewBox="0 0 100 89.1"><style>.st0{fill:#a4a4a4}.st4{fill:#d0d0d0}.st5{fill:#8b8b8b}.st6{fill:#222}.st23{fill:#2d89ee}.st26{fill:#318df3}.st27{fill:#318ef4}.st28{fill:#2b7bf4}.st29{fill:#318ff4}.st30{fill:#328ef3}.st31{fill:#2a7bf2}.st39{fill:#2a7af2}.st41{fill:#5091f6}.st46{fill:#5d423f}.st66{fill:#539bf6}.st69{fill:#55a1f6}.st70{fill:#4f91f6}.st72{fill:#55a2f5}.st73{fill:#4f8ff4}.st74{fill:#56a2f6}.st97{fill:#84a1a9}.st123{fill:#9d8361}.st173{fill:#b2bac6}.st188{fill:#c2b991}.st193{fill:#8fbdf9}</style><path d="M2.5 82.5c-.3-.7-.2-1.5-.4-2.2v-1.8C2 57.8 3.2 1.8 2.7 1.9c-.2 0-1.8-.3-2.1.7C.3 3.8 0 13.8 0 14c0 23.9-.2 72.5.2 72.8.9-.1 1.8-.1 2-1.2.2-.5.2-1 0-1.5 0-.2.4-1.1.3-1.6z" class="st0"/><path fill="#3d68ab" d="M94.8 26.2v-15c0-.9-.2-1.4-1.2-1.2h-2.2c-1.5-.3-3-.1-4.5-.2h-1.8l-4.2-.1c-3.2-.3-6.5-.2-9.7-.2-2-.3-4.1-.1-6.1-.2h-1.9l-14-.5c.4.5.4 1.2.7 1.8L54 21.4l.3.3.8.1c1.5.1 1.5.1 1.5 1.6v5.5c0 .3.1.5.3.7l.4.9c.4-.4.4-1 .4-1.5v-5.6c0-1.8 0-1.8 1.7-1.8h1c.8 0 1.7.1 2.5-.1l.3-.2c.2.4.5.8.5 1.3v6.6c0 .8-.4 1.1-1.1 1H60c-.8.2-1.8 0-2.5.6l-.2.7.6.2 4.5-.1c1.2-.1 1.3 0 1.3 1.2v5.9l.1 1.1c-.7.8-1.8.4-2.6.8l-.1.1c.2.2.2.4 0 .6l.3.2c.3.1.5 0 .8 0 1.4-.1 1.5 0 1.5 1.4v5c0 .5-.5 1.1.3 1.5.4-.6.4.1.4.2l3 8 6.1 16.2c.7.1 1.4-.1 2.1-.2l18.1-2.1c.9-.1 1.3-.5 1.2-1.5 0-14.7.1-29.3-.1-43.8zM71 38.4c0 .3-.1.5-.3.7-.1.1-.3.3-.5.3-1.6.2-3.1.1-4.7.4-.6.1-.7-.4-.7-.9v-6.5c0-.5.1-1-.3-1.4.3.3.7.4 1.1.3 1.8-.1 3.6 0 5.3-.5l-.1.5c.3 2.3.1 4.7.2 7.1zm6.5-.2c0 .5-.2.9-.8.9-1.3 0-2.5.1-3.8.3-.8.1-1.1-.2-1-1v-6.1c0-.5.1-1.1-.2-1.5 1.4.5 2.7.2 4-.3v.1c.3.2.6.3 1 .3.6 0 .9.3.9.9l-.1 6.4zm15.4-27.4c.1 0 .1.1 0 0 .1.1 0 .1 0 0z"/><path fill="#0a3375" d="M73.5 72.4L65.1 50l-.4-.8c-.4-.6-.7-.4-.9.1-.2.4-.6.5-1 .5-1.3.3-2.6.1-3.9.3-.9.2-1.2-.2-1.2-1v-6.4c0-.9.4-1.3 1.3-1.3.7 0 1.5.1 2.2-.2.4-.4.4-.7-.1-1-.6-.3-1.3-.2-1.9-.1-1.4.2-1.5.1-1.5-1.3v-7.1l.1-.9-.2-.5c-.2-.2-.1-.9-.8-.6-.3.6-.7.8-1.3.7l-1.6.1c-.8.2-1.7 0-2.6.1-.7.1-1-.3-1-1v-6.8c0-.7.3-1 1-1 .9 0 1.7.1 2.6-.2.5-.4.2-.8.1-1.2L50 9.6c-.2-.5-.4-.9-1-1a107 107 0 0 0-8-.3c-5.1 0-10.3-.4-15.4-.3H25c-4.8-.3-9.6-.3-14.4-.4-1.6-.1-1.9.2-1.9 1.8V24l.1 1.5.2 1.2v28.6V57c-.1 2.5.4 5 .3 7.5l.1.3v15.4c0 .8.1 1 1 .9l12.8-1.5 4.5-.6c1.3-.1 2.7-.1 4-.5l8-.9L52 76.2l14.6-1.8 6.8-.9c.5-.4.2-.8.1-1.1zm-48.7 2zm-8.4.2l-2.3.3c-.4.1-.8.3-1.2-.1-.2-.3-.2-.6-.2-1v-6.9c0-1 .4-1.3 1.4-1.4l12.2-1.2.3-.1h.1c1 .1 1.2.7 1.1 1.5v7.6l.1.3c-1 0-2.1.1-3.1.5l-.2-.2a4 4 0 0 0-1.9-.1c-1.4.2-2.8.4-4.2.4l-1.7.2c0 .2-.2.2-.4.2z"/><path d="M97.2 4.2c1.4.1 2.4 1 2.7 2.6l.1 1.3V72l-.1 1.7c-.2 2-1.1 2.9-3 3.1l-44.8 6.1L7 89c-2.5.3-3.3-.1-4.3-2.2l-.3-.3c-.2-.2-.4-.5-.3-.8.4-1 .2-2.1.2-3.1V4.8c0-.3-.1-.6 0-.8.1-.2.2-.4.5-.3.2.1.3.3.3.5.3.6.2 1.2.2 1.8V59.3c0 1.3.3 1.5 1.6 1.3L8 60c1.2-.2 1.4 0 1.4 1.2.1 1.2-.2 2.5.2 3.7l.1 1.5c-.1 4.4.2 8.8.2 13.3 0 1.2.1 1.3 1.3 1.1l14.1-1.7c.8-.1 1.7 0 2.5-.2l4.1-.5 14.3-1.7 24.1-2.9 3.3-.4 19.7-2.3c1.1-.1 1.3-.3 1.3-1.5v-4.5-32.6a941 941 0 0 1-.2-16.8v-3.9c0-.5 0-1.1-.6-1.3l-.6-.1L64 9.8l5.9-6.5 27.3.9z"/><path fill="#686868" d="M78.1 3.4c-2.2.2-4.3-.1-6.5-.2-.5 0-1-.2-1.4.2-1.9.3-3.8.2-5.7 0l-7.4-.3-13.5-.6c-5.8-.3-11.7-.4-17.5-.8l-6.5-.2C15.2 1.4 10.9 1 6.5 1L5.9.9a.8.8 0 0 1-.7-.5c.1-.1 0-.3.7-.3 4-.1 17.5.7 24.1 1l12.1.4 10.2.5 24.8 1.2c.4 0 .7-.1 1 .2z"/><path d="M2.8 3.6l-.3.3c-.2 1-.1 1.9-.1 2.9v8.3c0 .5.1 1-.3 1.4-.6.1-.5-.4-.6-.7V14v-3.2c0-.3.1-.7-.3-.9-.4-.1-.4.3-.6.5l-.4.2C.1 8.3.3 6 .5 3.7c0-.5.2-.8.7-.8.5.1.8-.1 1.1-.4.1.3.3.5.6.7l-.1.4z" class="st4"/><path d="M2.8 3.2c-.4-.1-.6-.3-.5-.7v-.2C1.9 2 1.4 2.4.9 2 1.8.5 2.8-.2 5.8.1c0 .6-2.3 2.5-3 3.1z" class="st5"/><path d="M2.8 3.2c.2-.9.8-1.9 1.3-2.3S5.4.2 5.9.2c.1 0 .2.3-.3.5a4.4 4.4 0 0 0-2.2 2.9c0 .2-.2.3-.4.3l-.2-.3v-.4z" class="st6"/><path d="M.9 2h1.3c.3 0 .2.2.1.3l-1.2.1C.7 2.4.7 2.3.9 2z" class="st4"/><path d="M9.7 7.9c-.8 0-1 .2-1 1v16.6c.2 1.6.1 3.3.1 4.9v8.5c0 .8-.1 1.2-1 1-.8-.2-1.6-.1-2.4-.1-.9 0-1.8 0-2.4.9l-.4.1V9.7 3.8c.4-1 .6-2.1 1.5-2.8.3-.2.7-.5 1.1-.5 3.1.1 6.3.1 9.4.3l55.7 2.3-6 6.5c.2.2-52.6-1.6-54.6-1.7z" class="st5"/><path fill="#717171" d="M3 40.8c.6-1.5 1.8-1.5 3.1-1.3 1 .1 1.9-.2 3 .3V25.5c.2.2.2.5.2.7v14.2c-.2 1.4-.1 2.8-.1 4.3 0 .7-.3.9-.9.9-1.8-.1-3.5-.2-5.2.2l-.1-5z"/><path fill="#fcfcfc" d="M2 16.5v-11c0-.6.1-1.1.3-1.6h.1l.1.1.2.3c-.2.4-.1.9-.1 1.3v75.5c-.2.3-.3.2-.5 0l-.3-.9-.1-1.2V17.7c0-.5 0-.9.3-1.2z"/><path fill="#5f5f5f" d="M3 45.8c.5-.5 1.1-.7 1.9-.7 1.2.1 2.4-.1 3.6.2.6.1.5-.3.5-.7v-3.1c0-.4-.1-.8.2-1.1v7.9c-.1.5-.2 1-.8 1.1l-5.5.5.1-4.1z"/><path fill="#212121" d="M9.3 56.9v7.9c-.5-1.2-.2-2.4-.2-3.6 0-.9-.2-1-1.1-.9-1.4.2-2.7.7-4.1.7-.8 0-1.1-.3-1-1v-2.4c1.6-.9 3.3-.9 5-1.1.6-.2 1.1-.2 1.4.4z"/><path fill="#4a4a4a" d="M3 49.9a11 11 0 0 1 4.4-.7c.8 0 1.5-.1 1.8-.9v3.8c-.3.3-.7.4-1.1.5l-5.2.8.1-3.5z"/><path fill="#313131" d="M3 53.4c1.5-.9 3.3-.7 5-1.1l1.3-.2v3.2c-1.5.6-3.1.6-4.6 1-.5.1-1.1.5-1.7.1v-3z"/><path d="M3 56.4c2.1-.5 4.1-1.1 6.3-1.1v1.6c-1.1-.5-2.1.1-3.1.1l-3.2.5v-1.1z" class="st6"/><path fill="#2c86ed" d="M19.9 54.1l6.3-.6 1.1-.1c.8-.1 1 .3.9 1v6.9c0 1.9 0 1.9-2 2-2 .1-3.9.5-5.9.5-.6.2-.7-.2-.3-.5 1.5-1 1.1-2.5 1.1-3.9l.1-1.7c.2-1.2.2-2.4-1.1-3.1-.2 0-.3-.2-.2-.5z"/><path fill="#287aec" d="M19.9 54.1c.1.1.2.4.4.4 1.5.4 1.5 1.7 1.4 2.7-.2 1.3-.2 2.5-.1 3.8 0 1-.1 1.9-1.2 2.4-.3.1-.4.4.1.4-1 .4-2.1.2-3.1.4l-4 .4c-.6.1-.8-.1-.8-.6v-8.7c0-.5.2-.7.7-.7 2.1-.1 4.3-.5 6.6-.5z"/><path fill="#01a9ba" d="M20.3 43.5L27 43c.9-.1 1.3.2 1.2 1.1v7.7c0 .6-.2.9-.9 1-2.2.1-4.4.5-6.6.4-.3.1-.7.2-.9-.1-.2-.2.1-.5.2-.7 1-1.4 1.1-3.1 1.3-4.7 0-.4 0-.8-.2-1.2.1-.9.1-1.8-.7-2.5-.1-.1-.2-.3-.1-.5z"/><path fill="#0299ac" d="M20.3 43.5c.7.6 1.3 1.3 1.2 2.4 0 .3-.2.4-.3.5-.5.4-.8.1-.9-.4-.2-1.2-1.1-.7-1.8-.8-.7-.1-.9.3-.9 1 0 .8-.6.8-1.1.9-.8.2-1.7-.1-2.8.5 1.2-.2 2.1-.1 3.1-.2.7-.1 1.6.1 1.8-1 .1-.5.7-.5 1 .1 0 .4-.2 1 .6.8.5 0 .9-.1 1.3.2-.1 2-.3 3.9-1.7 5.6l.9.1c-1 .5-2.1.2-3.2.4-1.4.3-2.8.2-4.3.3-.6 0-.9-.1-.9-.8v-8.2c0-.6.2-.9.8-.9 2.5-.2 4.9-.5 7.2-.5z"/><path fill="#3381d8" d="M26.4 64.1c2 .1 1.8-.4 1.8 1.9v2.9c-.1.6-.4 1-1.1.8-.8-.2-1.6.1-2.4-.3-.4-.3-.9-.6-1-1.1-.1-.6-.6-.3-.9-.4-.6-.1-.2.3-.3.5-.2.4-.6.3-1 .3-.3-.1-.8-.1-1-.5-.1-.5.1-1-.1-1.5-.2-.4-.5-.3-.7-.5-.5-.2-.3.2-.4.4-.4.4-.5.9-.8 1.3h-.3c-.5-.6 0-1.1.2-1.6-1.1.3-.8 1.3-.8 2-.5.5-.8 1-.4 1.7.3.5 0 .8-.4.9l-1.4.3c-1.5.3-1.8 0-2.4-1.6v4.5c0 .5.1 1-.3 1.4-.3-.2-.2-.5-.2-.8v-8.2c0-.6 0-1 .8-1.1l12.2-1.1c.2-.2.6-.2.9-.2z"/><path fill="#2c7ff3" d="M61.1 41h.2c.5.4.7 1 .9 1.5l1.8 5.2c.1.5-.4.9 0 1.4 0 .6-.1.9-.8.9l-5.1.4c-.6.1-.9-.1-.9-.8V42c0-.8.5-.9 1-1h2.9z"/><path fill="#b91c46" d="M28.2 28.6c.2 3.3.2 3.3-3.1 3.4l-11.4.5h-1.1c-.2-.9 0-1.8-.1-2.7 0-.6.4-.7.9-.8.7 0 1.3 0 2-.2 1.6-.2 3.3-.1 4.9-.3l6.3-.3c.6.1 1.2.1 1.6.4z"/><path fill="#56a2d8" d="M24.6 69c1 .5 2 0 3 .4.3.1.3-.5.5-.6v3.8c0 .4 0 .8-.2 1.2-1 .5-2 .7-3.1.5-2.1-.2-4.2.6-6.3.4-.1-.9.7-1.5.9-2.3.3-.8-.3-1.6-.2-2.4.5-.3.7.1 1.1.3.4.3.7.4.6-.3-.1-.6.3-.9.8-1 .7.6 1.1 1.4 1.7 2.1.2.2.6.8.8 0 .3-.7.2-1.4.4-2.1z"/><path fill="#308bf2" d="M44.7 31.9c2-.1 2-.1 2 1.9v6.3c0 1-.2 1.4-1.2 1.3h-1.2c-.6.1-1.2.2-1.7 0-.2-.4-.5-.8-.6-1.3.3-.4.5-.8.5-1.3-.1-.8.2-1.3 1.2-1.1-.5-.4-1.3.5-1.6-.4.3-.3.6-.3.9-.3.9-.1 1.5-1.2 1-2-.2-.3-.4-.3-.7-.3-.3 0-.6.2-.6.5-.1.4 0 .9-.5 1-.5-.7-.5-1.6 0-2.2.5-.6.4-.9-.1-1.4-.1-.1-.2-.3-.1-.5h.4c.6-.3 1.5 0 2.3-.2z"/><path fill="#2b7df2" d="M44.5 51.5c-1.5.3-2.9.3-4.4.4-.5 0-.6-.3-.6-.6v-8.2c0-.7.3-.8.9-.8h2.2c.6.7 1.5 1.3 1.8 2.3-.3.3-.7.4-1.1.4-.6 0-.8.3-1 .8-.3.8-.1 1.2.8 1.1.3.1.8.1.7.5-.3 1.2.1 2.5-.5 3.7l-.2.3c.5-.3 1-.3 1.4.1z"/><path d="M15.8 33.2l3.6-.2c.8-.1.9.2.9 1v8c0 .8-.2 1.1-1 1h-1.5c-1 .3-2-.1-3-.1-.5-.3-.2-.5.1-.6.8-.1 0-.3.1-.5.3-.4.8-.3 1.2-.3.6 0 .1-.3.1-.4a.6.6 0 0 1 0-.6c.5-.3.9-.7.7-1.4 0-.1.3-.5-.2-.4-.6.1-1.1-.1-1.1-.6 0-.6.5-.6 1-.7 1-.1 1.1-.3.6-1.2-.3-.5-.4-.9-.2-1.5-.2-.4-.5-.6-.9-.8-.1-.1-.5-.2-.4-.7z" class="st23"/><path fill="#2676eb" d="M14.7 42.6l3.2.2c-1.1.4-2.2.2-3.3.2-2.1.1-2.1.1-2.1-2.1v-6.6c0-.9.2-1.3 1.1-1.2h2.2c.4.7 1.5.7 1.8 1.6-1.9.7-2.6 2.3-2.8 3.9 0-.1.1-.7.4-.3.6.7 1.3.6 1.9.8.3.7.1 1.1-.7 1.1-.6.7-1.4.5-2.1.5l-.2.1H16.4c.5 0 .5.4.4.7-.2.5-.3-.1-.6-.1H15c-.3.4-.7.5-1.2.5.4.6.7.5.9.7z"/><path fill="#2a7bf4" d="M39 31.4c-.5.4-1 .2-1.5.2-1.6.1-3.2-.1-4.8.2-.6.1-.9-.1-.9-.8v-8.1c0-.8.5-.9 1.1-1h3.3c-1.2.8 0 1.4.2 2l-.1.6-.6.3c-.6.2-1.1.5-1.2 1.2-.1.7.5.9.9 1.2l.3.4c.3.8 0 1.6 0 2.3 0 .9.4 1.1 1.1 1.1.7.1 1.5-.2 2.2.4z"/><path d="M52.6 41.5l3.4-.2c.7-.1.9.1.9.8v7.6c0 .7-.3 1-.9 1l-2.7.1c-.3.1-.5.2-.7-.1 0-.5.9-.8.3-1.4-.3-1.7-.3-1.9 1-2.5.3-.2.2-.5.2-.8l.1-.7v-.6c0-.8-.6-1.1-1.2-1.3-.5-.6-1.2-1.1-.4-1.9z" class="st26"/><path d="M35 42.6c1-.1 2 .1 3-.2.7-.2 1.1 0 1.1.9v7.6c0 .7-.3 1-.9 1.1l-2.7.1c-.2-.2-.5 0-.7-.2 0-.5.8-.7.4-1.3.3-.7.1-1.6.5-2.3.3-.4-.1-1 .6-1.3.3-.1-.3-.6-.3-.9 0-.6-.3-1-.7-1.4.1-.3.5-.5.1-.9-.4-.3-.7-.7-.4-1.2z" class="st27"/><path d="M36.6 41.8c-1.4.5-2.9 0-4.3.4-.4.1-.4-.3-.4-.6V33c0-.5.2-.7.7-.6h2.7c.9 1.4 1 1.6.1 2.4l-.4.6c0 .8-.4 1.9.9 2.2l.2.2c-.2.9-.5 1.9-.4 2.8 0 .3-.2.5-.6.6-.6-.1-1.1-.7-1.8-.1.6.2 1.3-.1 1.8.2.4.2 1.1 0 1.5.5z" class="st28"/><path d="M35 41.1c.2-.1.4-.3.4-.5 0-1-.2-2 .5-2.9 0-.2.2-.4.3-.5.5-.7.4-1.4.1-2.1-.3-.4-1-.2-1.3-.6.6-.3 1-.7.4-1.4-.2-.2-.2-.5-.2-.9L38 32c.7-.1 1.1.1 1.1.9v7.7c0 .8-.3 1.1-1 1h-1.5c-.6-.1-1.3.1-1.9-.3 0 0 .1-.2.3-.2z" class="st29"/><path d="M39 31.4h-2.9c-.6 0-.8-.2-.7-.9.2-.9.1-1.9.1-2.9.1-1 1.1-1.6.9-2.7 0-.3.1-.7-.2-.9-.6-.4-.8-1.2-1.3-1.7.4-.3.9 0 1.2-.3 3-.1 3-.1 2.9 2.8v6.6z" class="st27"/><path d="M43.3 21.7c3.4-.2 3.4-.2 3.4 3.2v5.4c0 .7-.2.9-.9.9h-2.5c-.7 0-1.5.3-2.1-.4.3-.4.8-.3 1.2-.4.4 0 .6-.2.5-.6-.3-1.1-.1-2 .8-2.7-.2-1 .2-2.1-.3-3.2l-.6-1c-.7-1-.6-1 .5-1.2z" class="st30"/><path d="M36.6 52.8h.7c1.8-.1 1.8-.1 1.8 1.8v6.8c0 .7-.2 1-.9 1l-3.1.2c-.3-.1-.7 0-.7-.5.3-.3.7-.3 1-.4.3-.1.7-.2.6-.7-.3-.4-.7-.8-.7-1.3 0-.6-.3-.9-.9-1.1-.2 0-.3-.2-.3-.4.3-.3.9-.2 1.2-.4 1.3-.2.9-1.3 1.1-2.1.3-.5-.4-.4-.5-.7l-.1-.1c-.4-.6-1.2-1.1-.9-1.8.3-.6 1.1 0 1.7-.3z" class="st29"/><path d="M55.1 70.6c-1.5.4-3.1.4-4.6.7-.4.1-.6-.2-.6-.6v-8.2c0-.4.2-.6.6-.7l2.3-.2c.7.4 1.3.9.9 1.9-.2.6-.7.9-1 1.5a1 1 0 0 0 0 1.1c.3.5.5.1.8 0 .6-.1.6.4.7.8-.8.9-.2 1.7.2 2.5-.9.9-2.1.3-3 .5-.2-.1 0 .2-.1.1l.1-.1c.9.5 1.8.2 2.7.3.5 0 .8.1 1 .4zM44 27.3c-.9.7-1.1 1.5-.7 2.5.2.5 0 .9-.6.9-.5-.7-.9-.6-1.4 0l2.1.4c-1.1.4-2.2.1-3.3.2-.5 0-.5-.3-.5-.7v-8.1c0-.5.1-.7.7-.8 1-.1 2.1-.2 3.1-.1l-.8.3c.3.6 1.1.8 1 1.6-1.3.4-1 1.5-1 2.4-.2 1.3.9.9 1.4 1.4z" class="st31"/><path d="M44.5 44.5c-.7-.7-1.4-1.3-1.8-2.3 1-.2 2.1-.2 3.1-.3.8-.1 1 .2.9 1v7.4c0 .9-.2 1.3-1.1 1.1h-2.7c.8-1.3.1-2.7.6-4 .2-.6-.5-.2-.7-.3 1-.6 1.3-1.7 1.7-2.6z" class="st26"/><path d="M34.3 62.1l.7.4c-.9.4-1.8.1-2.8.3-.4.1-.4-.3-.4-.6v-8.4c0-.5.2-.7.7-.8l4-.2c-.4.5-1.4-.2-1.4.6 0 .4.6.9.9 1.4l.1.3c-.2.4-.6.4-.9.5-.3 0-.7 0-.8.5-.2.7.2 1.5-.3 2.1.2.3.5.3.8.3.4 0 .6.2.6.6-.1.8.3 1.4.9 1.9-.9.6-1.9.4-2.8.8.1.1.7-.4.7.3z" class="st28"/><path fill="#2b7bf5" d="M35.9 48.3c-.3.4-.3.9-.2 1.4 0 .4-.1.8-.5 1-.5.6-1.4.1-1.9.7.4.4 1.1-.2 1.4.5.3 0 .5 0 .7.3-1 .4-2.1 0-3.1.3-.4.1-.5-.2-.5-.5v-8.6c0-.5.3-.7.8-.7H35c0 .5.4.8.6 1.2.3.5 0 .6-.4.8-.1.4-.5.6-.7.9-.2.5-.2 1 .1 1.4.6.2 1.3.5 1.3 1.3z"/><path fill="#2a79f1" d="M54 30.7c-1.2.4-2.4.1-3.6.2-.5 0-.5-.3-.5-.7v-8.1c0-.6.3-.7.8-.7l3.3-.1v.1c.9 1 1.1 2.2 1.4 3.4 0 .4 0 .7-.4.9-.6-.4-.3-1.2-.7-1.6-.8-.7-1.6-.4-1.8.6-.2 1.2.1 1.7 1.3 2.2.1.1.3.2.2.4-.6.6-.5 1.3-.5 2.1-.2.5-.7.3-1.1.4-.3.1-.7 0-1 .2.2.2.4.1.6.1.6.1 1.4.1 2 .6z"/><path fill="#308df3" d="M54.2 51.5c.9.1 1.9-.6 2.5-.1.6.6.2 1.7.2 2.6v5.4c0 1-.2 1.4-1.3 1.3h-1.5a.5.5 0 0 1-.5-.3c0-.4.3-.7 0-1.1-.9-.8-.6-1.8-.4-2.8.8-.4.8-1.3 1-1.9.2-.6-.6-.6-.9-1l-.2-.3c-.7-1.6-.7-1.6 1.1-1.8z"/><path fill="#02a203" d="M25 32.8l2.6-.2c.5-.1.7.2.7.6v8.4c0 .5-.2.8-.7.7h-2.5c-.8.2-1.6 0-2.4-.1 0-.5 0-.5.6-.6.4-.1 1 .1 1.2-.6.1-.8 0-1.6.5-2.3.7-.1 1-.6.9-1.3-.1-.7.1-1.4-.2-2.1-.5-.5-1-.9-1.4-1.5-.2-.3-.6-.5-.5-.9.3-.3.9.1 1.2-.1z"/><path fill="#318cf4" d="M60.3 60.9c1 .1 2-.2 3-.4.6-.1.8 0 .8.7V69c0 .6-.3.8-.8.9l-1.9.1c-.3.2-.5.1-.7-.1-.1-.4.1-.8-.1-1.3.1-.8-.6-1.7.2-2.4.1-.5.7-.9 0-1.4-.3-.2.2-.6.3-1 .1-.2.4-.5-.1-.6-.5-.7-.9-1.4-.7-2.3z"/><path fill="#2b7df3" d="M60.3 60.9l.9 2.3c.3.7-.2.8-.7 1-.2 0-.5-.1-.4.3 0 .7.5 1 .8 1.5v.1c-.3.6-.4 1.3 0 1.9.2.3.2.5-.2.6-.4.6-1.2.4-1.9.8.6.2 1.3-.2 1.8.3l.7.2c-1.1.3-2.3.3-3.4.4-.5.1-.7-.2-.7-.7v-7.9c0-.5.2-.7.7-.8h2.4z"/><path d="M53.3 56.7l.2.3c-.6.9-.2 1.6.4 2.3-.7.9-1.8.4-2.8.7.9.4 1.8-.3 2.5.4.2 0 .4.1.5.3-1.2.3-2.4.4-3.6.4-.5 0-.6-.2-.6-.7v-8c0-.6.3-.8.8-.8l3.5-.2c-.4.4-.9.1-1.4.3.5.5.6 1.2.8 1.9-1.3 1.1-1.3 1.1-.3 3.1z" class="st31"/><path fill="#028d03" d="M24.8 39l-.2 2c-.5.5-1.2.2-1.8.4-.5.2-.7.3-.2.7l2.5.3c-1.2.3-2.5.2-3.8.2-.5 0-.5-.3-.5-.7v-8.4c0-.5.2-.6.7-.7 1.2 0 2.4-.3 3.6-.1-.2.3-.7 0-1 .4l.6.8c-.7.4-.8 1.1-.9 1.9-.9 1.4-.6 2.2 1 3.2z"/><path d="M52.1 31.6c1.3.2 2.6-.2 3.9-.2.6 0 .9.2.9.8v7.6c0 .6-.2.8-.8.9l-3.5.2v-.6c0-.5-.4-.5-.7-.7-.2-.1-.4-.2-.4-.5.6-.7 1.5-.2 2.2-.5l.3-.1c.5-.2 1.1 0 1.6 0-.5-.4-1.4.3-1.7-.6-.1-.3 0-.5.3-.7-.5.2-1 .3-1.3-.2.2-.5.7-.4 1-.5.4-.1.7-.2.7-.7 0-.7.3-1.6-.3-2.1-.4-.4-1.1-.3-1.6 0-.2.1-.1.3-.2.5v1.9c0 .3 0 .6-.2.9-.6.2-.5-.4-.6-.7v-1.8c0-1.6 0-1.6 1.4-2-.2-.3-1-.3-1-.9z" class="st30"/><path d="M42 37.2c.5.6 1.2 0 1.9.5-1.1-.1-1.5.4-1.2 1.3.3.8-.2 1-.7 1.2-.1.3-.5.2-.7.5.5 0 .9-.1 1.1.5.6.4 1.2.2 1.9.3-1.5.5-3 .1-4.4.3-.4.1-.3-.4-.3-.6V33c0-.6.2-.8.8-.8h1.5l.6.6c.6.4.9.8 0 1.2-.5.2-.3.7-.3 1.1v1.2c.1.2.1.5-.2.9z" class="st39"/><path fill="#318ff3" d="M53.5 63.4c.5-.9-.5-1.2-.7-1.8a8 8 0 0 0 3.1-.4c.8-.2 1 .1 1 .8v6.8c0 1.7 0 1.7-1.8 1.7l-1-.3c-.1-.4.8-.6.2-1.1-1.2-1.2-1.2-1.4-.2-2.5 0-1 .2-2.2-.6-3.2z"/><path d="M60 30.5l-2.5.2-.2-.2v-8.3c0-.7.2-1 .9-1h2.2c.3.6 1.1 1.1.6 1.9-1.6.6-1.7 2.2-.1 3.6.4 1.4.3 2-.5 2.5l-1.6.4.8.2c.2.2.5.3.4.7z" class="st41"/><path fill="#0e0d11" d="M28.2 28.6l-12.9.5-2.8.1c.3-.7.8-.8 1.2-.9 1.3-.1 2.6-.3 3.9-.2.9.1 1.7.1 2.5-.5.4-.3 1.1.2 1.4-.4l.1-.6c0-.4.4-.8.3-1.2V25l.8-1.8.2-.6.2-.4h.4l.3.3.4.8.6 1.5.1.3.2.7.1.3.1.4c.1.4.2.7.7.5.3-.1.6-.3.9-.1.4.3.9.2 1.3.5v1.2z"/><path fill="#2a78f0" d="M52.6 50.5c.2.3.4.2.7.2-1 .4-2 .1-3 .3-.4.1-.4-.3-.4-.6v-8c0-.5.2-.8.7-.8l2-.1c-.3.7.3 1.2.5 1.8 0 1-.8 1.8-.4 2.8.1.3.1.7.6.4h.3c.2.1.5.1.6.4-1.7.2-1.2 1.4-1.1 2.5 0 .5-.4.3-.7.4-.4 0-.8-.2-1.2.2.4.4 1.1 0 1.4.5z"/><path fill="#2a79f2" d="M52.8 40.4l-.2.5c-2.7.3-2.7.3-2.7-2.4V33c-.1-1.1.3-1.5 1.4-1.3h.9c.5.5 1.4.6 1.6 1.4l-.2.2c-1.7.1-1.7.1-1.7 1.8 0 .7-.3 1.6.3 2.2.2-.2.4-.1.6 0l1.7.1c-.3.3-.6.5-.5.9.1.2.2.4 0 .6-.7-.2-1.4-.3-2.2-.3-.6 0-.7.3-.3.7l.5.2-.4.5c.3.3.9 0 1.2.4z"/><path fill="#d92e54" d="M64 54.9l.1 4.4c0 .5-.2.7-.7.7l-5.3.5c-.7.1-.9-.2-.8-.8v-3.5c.2-.4.1-1 .8-.8.5.4.5 1.1.8 1.6.9 1.2 2.3 1.2 3.1-.1.3-.5.4-1.1.7-1.5.4-.6.8-.4 1.3-.5z"/><path d="M14 28.5l-1.1.5v.2h2.5l-.4.1c-2.3.2-2.3.2-2.3 2.4v.8c-.3-.3-.2-.7-.2-1.1v-7.5c0-1.1.3-1.5 1.4-1.3h.7c1.4.3 2.7.1 4.1.1.5 0 1 0 1.3.4-1.9 1.6-4.1 1-6.1 1.2h1.2c.4 0 .9 0 .8.5 0 .5-.5.5-.9.5h-.3l1.1.2c.7.4.2.8-.1 1.1-.6.4-1.4.1-2.2.4l.6.1c.4.2 1.3 0 1.3.6 0 .8-.9.5-1.4.8z" class="st46"/><path fill="#6d4e4a" d="M15.8 25.7l-2.6-.3c.8-.5 1.7-.2 2.6-.5-1.1-.6-2.2.1-3.1-.6 2.3-.8 4.8.3 6.8-1.2-1.6-.1-3.4.2-5.1-.5l3.6-.2c1.2.4 2.4-.1 3.5.3.2.4-.1.5-.4.4.6 0 1.3-.4 1.8.1l-.8 1.8c-1.5.2-3-.3-4.5.1.7-.2 1.5-.2 2.2-.1.3 0 .7 0 .6.5-1.4.6-3 .3-4.6.2z"/><path d="M57.3 31.4h.4c.8 1 1 2.4 1.6 3.5.2.3.2.7.5 1l.1.3.1.7c.2 1.4 0 1.5-1.5 1.6.7.3 1.2-.1 1.7-.3l.3.4c.3.6.8 1.2.6 1.9v.1c-.9-.1-1.9 0-2.8.2-.7.1-1.1-.1-1.1-.9l.1-8.5z" class="st28"/><path fill="#e95e73" d="M58.2 55.5c-.6-.2-.6.4-.9.7v-4.3c0-.5.1-.7.7-.8l5.4-.4c.6-.1.7.2.7.7l-.1 3.5c-.1.8-.8-.1-1 .4-.3-.2-.3-.6-.3-.9 0-.5-.2-.9-.4-1.3-.3-.6-.8-1.1-1.5-1.1-.8 0-1.3.5-1.7 1.1-.5.8-.3 1.7-.9 2.4z"/><path fill="#4c98d7" d="M12.7 75.3v-6.7c.6.3.7.8.8 1.2.2.9.7 1.1 1.5.9l2.1-.4c.8-.1-.1-.3 0-.5.9-.3 1.1-.1 1 .7l-.1.8c-.4 1.1-.4 2.3-.9 3.4h-.5c-.6-.8-.1-1.7 0-2.7-.7.4-1.1 1-1.6 1.4-.3.3-1.1.2-1 .9 0 .2.3.4.1.6-.5.6-1 .4-1.4.4z"/><path fill="#308cf3" d="M54 30.7l-2.3-.3c.1-.6.6-.4.9-.5.3-.1.8 0 .7-.6-.3-.8-.2-1.6.4-2.3-.1-.5.4-.6.5-.9.1-.2.2-.4.5-.4.4-.2.2-.6.3-.9.5 0 .6.5.7.8l1 3.2v.7c.1.8-.2 1.3-1.1 1.1l-1.6.1z"/><path fill="#82523f" d="M25.1 26.6v-.4c.2-.3.5-.2.8-.2H25c-.2-.2-.2-.4-.2-.7.5-.6 1.1-.4 1.7-.5-.6 0-1.2-.1-1.8.3l-.7-1.6c1.4-.8 2.7-.3 3.9.3.5.2.3.8.2 1.3v1.1c-.6.8-1.8 1-3 .4z"/><path fill="#70afd8" d="M17 74.9a6 6 0 0 1 .7-3.5c.8.6.8.6 1.5-.3.5.4.3.9.5 1.4-.2.8-.7 1.5-1.1 2.2l-1.6.2z"/><path fill="#68aad9" d="M14 75.1l-.4-.5c.3-.5 1.3-.2 1.1-1.1l1.4-1.5c.2-.2.4-.4.7-.3.3.2.2.4.1.7-.3.8-.3 1.6-.3 2.4-.9.4-1.8.3-2.6.3z"/><path fill="#9aaed3" d="M14.8 15.7c-.2-.5-.1-.9-.1-1.3s0-.7-.5-.7c-.4 0-.5.2-.6.5-.1.6-.2 1.2-1 1.6l.6-1.3c.2-.5.2-.9-.8-.9 1.3-.6 1.1-1.2.5-2h2.5c-.2.6-.9 1.1 0 1.6l.1.3c-1.1.5-.2 1.6-.7 2.2z"/><path fill="#534446" d="M28.3 25.1c-.1-1-.7-1.5-2.1-1.6h-2c-.3-.2-.4-.4-.4-.7a7 7 0 0 1 4.5 0c-.1.7.4 1.5 0 2.3z"/><path fill="#b38b77" d="M28.2 22.8h-4.5l-.1-.4c1.4-.4 2.8-.2 4.2-.2.6-.1.6.2.4.6z"/><path fill="#948788" d="M21.7 22.8c-1.2-.2-2.5.3-3.6-.4l5.2-.1-.1.4c-.5.5-1 .4-1.5.1z"/><path fill="#a4b7d6" d="M17.4 13.4c0 .4-.3.8-.2 1.3.1.2.3.4 0 .5-.2 0-.4 0-.5-.4-.5-1-.6-1.6 0-3.1.2.4.2.9.8.6 0 .4.2.7-.1 1.1z"/><path fill="#ce7e40" d="M25.1 26.6c1-.2 2.2.3 3.1-.4.1.3.2.6 0 .9-.5.3-1 .3-1.4 0-.2-.1-.4.1-.6.2-.8.6-1 .5-1.1-.7z"/><path fill="#869fc8" d="M17.8 14.2c-.2-.1-.3-.4 0-.4.4-.1.9-.2 1.2 0 .5.3.2 1 .2 1.5 0 .2-.2.5-.3.3-.3-.4-1.1.3-1.1-.6.6-.2.5-.5 0-.8z"/><path fill="#8da4ce" d="M17.4 13.4v-1c.8.5.4-.6.8-.5.2.1.1.3 0 .5 0 .2-.3.4-.1.7h.3c.5-.1-.1-.5.2-.8.4.2.5.6.7 1.2-.6-.3-1.2 0-1.9-.1z"/><path fill="#0d3a92" d="M17.8 14.2c.4 0 .9-.3.9.4 0 .8-.5.5-.9.5v-.9z"/><path fill="#7b4f37" d="M26.8 27.1h1.4v.4c-.5 0-1 .3-1.4-.4z"/><path d="M44.7 31.9c-.8.4-1.7.1-2.5.1.8-.3 1.6-.1 2.5-.1z" class="st39"/><path fill="#529bf5" d="M64.5 30.9l6.5-.2v.4c.2 2.8.2 5.6 0 8.3-.3.3-.7.4-1.1.4-1.5 0-3 0-4.5.3-.7.1-1-.2-1-.9.2-2.7.1-5.5.1-8.3z"/><path fill="#529af5" d="M76.7 20.7c.4.1.8-.1 1.2.3.3.4.3.9.3 1.4 0 .7.2 1.4-.3 2v4.2c.1 1-.2 1.4-1.2 1.3-.7-.1-1.5-.2-2.2.2-.9-.1-2.1.4-2.7-.2-.6-.6-.2-1.9-.2-2.8v-5.2c0-.6.2-.8.8-.9 1.4-.3 2.9-.2 4.3-.3z"/><path d="M71.5 30.7l4.1-.2c2.3 0 2.3 0 2.3 2.3v5.6c0 .7-.1 1.1-1 1.1a17 17 0 0 0-3.9.2c-1.1.2-1.5-.1-1.5-1.4v-7.6zM80.8 63.4v-3.7c0-.5.1-.8.6-.8l4.9-.5c.6-.1.7.1.7.6v7.5c0 .4-.1.6-.5.7l-5.2.6c-.6.1-.5-.4-.5-.8v-3.6z" class="st66"/><path fill="#55a0f5" d="M61.1 40.3l-.8-1.8c.2-.3.6-.2.9-.4h-1c-.4.7-.9.8-1.6.6-.2-.1-.4-.1-.4-.4 0-.3.2-.5.4-.4 1.6.5 1.2-.5 1.1-1.3l.1-.5c.2-.2.3-.7.8-.5l.3.4-.3-.4c-.2-.3-.1-.6-.1-.8-.2-.2-.4-.4-.7-.2-.3.1 0 .4 0 .6 0 .3.1.6-.2.7-.1.1-.3.2-.4 0-.4-1.5-1.3-2.9-1.6-4.5.7-.4 1.4-.1 2.1-.2 1-.1 2 .1 3-.2.9-.2 1.2.2 1.2 1.1V40c-.7.4-1.8.4-2.8.3z"/><path fill="#55a2f6" d="M90.7 58h.2c2.5-.2 2.5-.2 2.5 2.3v5.2c0 .7-.1 1.1-.9 1.1l-2.2.2c-.6.2-1.1 0-1.7-.1-.2-.8.4-.5.7-.6.5-.2 1.1.3 1.4-.4l-.5-.4c-.1-.3.2-.5.1-.8 0-.5-.4-.8-.4-1.3.6-.4-.1-1 .2-1.5l.3-.1c.3 0 .6.1.7-.3.2-.6-.2-.9-.6-1.2l-.4-.6c-.7-1.2-.6-1.3.6-1.5z"/><path d="M83.7 49.2c.8.1 1.6-.2 2.4-.2.7-.1.9.1.9.9V57c0 .6-.1.9-.8.9-.9 0-1.8.3-2.8.2-.5 0-1.1.1-1.6-.2 0-.9.9-.4 1.2-.8h.3c.5.3 1.1.3 1.7 0-.3 0-.6 0-.8-.2l-.4-.4c0-.3.2-.6-.1-1-.1-.4.2-.7.4-1 .2-.3.5-.5.4-.9-.2-1-.2-2.1-1.4-2.5-.1-.2 0-.3.1-.4.6-.1.6-.3.3-.8 0-.2 0-.5.2-.7z" class="st69"/><path d="M85.8 48.3c-1.5.4-3 .2-4.4.4-.5.1-.6-.3-.6-.7v-7.5c0-.6.3-.8.8-.8h1.9l.3.2c.5.2.9.6.9 1.2 0 .7-.8.4-1.1.6-.3.1-.4.4-.4.7 0 .5-.2 1.1.2 1.5.3.2.8.3 1.1.6.8.7.2 1.2-.2 1.7-.5.5-1.1.3-1.8.4l1 .1c.3.1.5.1.6.5-.3.8-.9.8-1.7.6.9.3 1.7-.2 2.4.1.3.1.7 0 1 .4z" class="st70"/><path fill="#4f90f3" d="M93.4 38.4l-.3.2c-1.6 0-3.3.1-4.9.3-.6.1-.9-.1-.9-.8v-7.2c0-.6.3-.9.8-1h2.1l1.2 2c-.4.4-1 .1-1.5.4l-.2.2-.1.3c-.1 1.6-.1 1.6 1.4 1.8l.3.1c0 .6-.9.8-.7 1.5-.4.7-1.1.3-1.6.5h1.5c.4.1.9.1.5.7-.7.3-1.4.5-2.1.3 1.1.3 2.2-.2 3.3.2.4.2.8.1 1.2.5z"/><path d="M80.8 21.2c.1-.6.6-.6 1.1-.7H84c.4.5.8 1 .6 1.7-.4.4-1.1.3-1.4.9-.1.7-.6 1.5.3 2.1.5.2 1 .1 1.4.4.2.7-.4 1.1-.7 1.6-.4.4-1 .2-1.4.3.5.1 1.2-.2 1.8.2.1.2.1.4-.1.6-.7.4-1.4.3-2.4.3.7.3 1.3-.1 1.8.1.4.3 1 .2 1.3.6-1.3.4-2.6.1-4 .2-.5.1-.3-.4-.3-.6v-5.2c-.3-.3-.3-.7-.3-1.1-.1-.5-.2-1 .2-1.4zM85.5 38.8c-1.4.5-3 0-4.4.4-.3.1-.3-.3-.3-.6v-7.7c0-.4.2-.6.6-.6l3.7-.2c0 .4-.3.4-.5.4-.4 0-.4.1-.2.4.3.5.1.8-.4 1.1-.4.2-.7.4-.9.7-.5.9-.2 1.7.8 2.1l.8.4c.1.6-.3 1-.5 1.5-.3.4-.8.4-1.2.3h-.2l.4.1c.6.2 1.3-.1 1.7.4-.3.8-1.1.6-1.7.7-.3.1-.6-.2-1.1.1.8.1 1.5-.1 2.2.1.4.1.9 0 1.2.4z" class="st70"/><path d="M83.9 46c.2-.4 1-.8.2-1.4.8-1.4.5-2.3-.9-3.2 1.3-.4 1.3-.4.3-1.6l-.1-.2c.8 0 1.6.1 2.4-.2.8-.2 1.2.1 1.2 1v6.5c0 1.1-.3 1.4-1.3 1.3-.4-.1-.8.1-1.2-.3 0-.6.6-.3.8-.5-.4-.3-1.1.4-1.5-.4-.2-.3-.4-.2-.7-.3-.1-.4.2-.4.5-.4.4.1.5 0 .3-.3z" class="st72"/><path d="M83.5 57.1h-.2c-.3.3-.6.1-.9.1-.4 0-.7.1-.5.6.5 0 1.1-.1 1.6.3-.7.4-1.5.2-2.2.2-.5 0-.5-.3-.5-.7v-7.4c0-.5.2-.8.7-.8l2.2-.1c-.1.7.5.9.8 1.4-.3.4-.9-.1-1.2.4l-.2 1.1c.1.6-.3 1.4.7 1.4.4.1.7.3 1.1.2.3.4-.1.6-.3.8-.2.3-.7.5-.6 1-.2.8-1 .3-1.3.6.4.1.9-.1 1.3.3.2 0 .4.1.5.3-.3.3-.7.2-1 .3z" class="st41"/><path d="M83.9 31.8c.9-.7-.2-.9-.3-1.4.4-.4 1 .1 1.4-.3 2.5-.1 2-.2 2 1.9v5.4c0 1.5 0 1.5-1.5 1.5-.5 0-1 0-1.4-.2-.1-.2.1-.3.3-.4.2-.1 1 .2.4-.5-.5-.5-1.3.1-1.8-.4.2-.3.4-.2.7-.3.3 0 .4-.2.2-.4l.7-1.4c.2-1.3.3-2.5-.7-3.5z" class="st69"/><path d="M90.7 29.1c-.9.4-1.9.1-2.9.2-.5 0-.5-.3-.5-.7v-7.4c0-.5.2-.6.7-.7 1.3-.1 2.7-.3 4-.2-.4.8-1.1.3-1.7.5l.8.7c.2.3.4.5 0 .7-.6.2-1.3.1-1.6.9-.4 1-.2 1.4 1.3 2.1-.1.6.2 1.2-.3 1.8-.5.5-1.1.3-1.6.3.6.2 1.2-.2 1.8.2.2.5-.1.7-.4 1-.5.1-1-.2-1.7-.1.6.2.9 0 1.2.2.3.2.7.2.9.5z" class="st73"/><path d="M83.9 27.1l.9-1.4c-.2-.2-.3-.4-.2-.6.3-1 .1-1.9-.2-2.8.1-.7-.7-1.1-.4-1.8h1.4c1.8 0 1.8 0 1.8 1.8v5.6c.1 1.2-.3 1.6-1.4 1.4h-.6c-.5-.1-1.1.2-1.4-.4.3-.4.8-.2 1.2-.3.2 0 0-.2.1 0H85c-.3 0-.7.1-.7-.4.2-.1.2-.3.2-.5-.4-.1-.4-.4-.6-.6z" class="st69"/><path d="M90.7 29.1c-.3-.1-.8.2-.9-.4.1-.2.4-.1.5-.3l.5-.9-.2-.7c.5-.4-.2-1.1.4-1.5.4-.8.6-1.6.1-2.5a.6.6 0 0 1 .1-.7c-.2-.7-1-.8-1.4-1.4.8-.4 1.6.1 2.3-.3 1.1-.2 1.5.1 1.4 1.3-.1 2.1-.1 4.3 0 6.4 0 .9-.3 1.2-1.2 1.1l-1.6-.1zM90.3 39.3l2.2-.2c.7-.1 1 .2 1 .9v6.6c0 1-.3 1.4-1.3 1.2h-.6c-.6.1-1.2 0-1.7-.1-.3-.4.1-.5.4-.6h1.1l-.6-.1c.2-.5-.1-.4-.3-.3l-.5-.1c-.2-.3-.1-.4.1-.5.2-.1.5-.2.3-.6V44c.1-.2.5-.3.5-.7l.1-.6c.4-1-.2-1.5-1.1-1.7l.4-1.7z" class="st74"/><path d="M90.9 57.3c-1 .4-2.1.1-3.2.4-.4.1-.4-.3-.4-.6v-7.6c0-.5.2-.7.7-.7h2l.9.8c.3.3.4.6 0 .8-.4.2-.9.1-1.2.5-.4.6-.6 1.4-.2 2 .4.6 1 0 1.5.1.1.8-.1 1.6-.5 2.3-.6.4-1.2.2-2 .3.9.2 1.5 0 2.2 0 .3 0 .5.1.7.4-.1.7-.7.6-1.2.7-.4.1-.9-.1-1.3.1.2.3.4.1.6.2.5-.1 1-.1 1.4.3z" class="st73"/><path fill="#4f90f4" d="M89.8 47.6c.6 0 1.2 0 1.8.2-1.2.4-2.5.1-3.7.4-.4.1-.5-.3-.5-.6v-7.4c0-.5.2-.7.7-.8.7-.2 1.5-.1 2.2-.1l.1.3c.9.9.4 1.2-.5 1.5l-.1.5-.2.6c-.3 1.2-.1 1.4 1 1.9.1.5.4 1.1 0 1.6-.2.8-1 .2-1.4.6.2.1.5 0 .7.3h.9c.6.1 0 .3 0 .4-.5.5-1.2.1-2 .3.4.1.8 0 1 .3z"/><path fill="#4f8ff2" d="M90.2 65.2c.2 0 .5 0 .7.2-.4.6-.9.8-1.6.6-.4-.1-.9-.3-.9.5.6-.1 1.2.2 1.8.2-.8.4-1.7.2-2.5.4-.4.1-.4-.3-.4-.6V59c0-.5.2-.8.7-.8l2.7-.2c-.7.2-1.1.5-.3 1.2.2.2.2.5.3.8l-.1.1c-1.1.1-.9.8-.8 1.5.1.4-.4.9.3 1.2l-.1.4c.3.4.7.7.4 1.3-.2.7-.8.4-1.2.5.4 0 .8-.1 1 .2z"/><path d="M90.9 57.3l-1.6-.2c.3-.8 1.1-.4 1.6-.5.4-.1.6-.2.4-.6-.2-.3-.4-.2-.7-.3-.2-.2 0-.5-.2-.7.4-.6.1-1.4.7-1.9-.1-.5 0-1 .1-1.5-.1-.4-.4-.8-.3-1.3.1-.8-1-.8-.9-1.6.9.2 1.7-.3 2.5-.2.6 0 .9.2.9.8v7.1c0 .7-.3 1-.9.9h-1.6z" class="st74"/><path fill="#56a3f6" d="M90.5 36.1c-.4-.9.2-1.2.9-1.4a3 3 0 0 1 0-2.9c-.9-.4-1.1-1.2-1.1-2 3.2-.2 3.2-.2 3.2 2.9v5.6c-.4-.1-.9.2-1.3-.2-.1-.7-.9-.2-1.1-.7.3-.6-.2-.4-.5-.4-.3-.3.2-.6-.1-.9z"/><path d="M64 47.8c-.3 0-.4-.3-.5-.5l-2.2-6.2h.2c2.3-.5 2.5-.4 2.5 1.9v4.8z" class="st72"/><path fill="#3967a5" d="M71.1 39.5v-8.3c.2.2.2.5.2.7v6.9c0 .2 0 .5-.2.7z"/><path fill="#54a0f6" d="M60 30.5l-.5-.4.7-.9c1.2-.5.3-1.5.5-2.3-.1-.3.1-.5.2-.7.9-1.3.9-1.9 0-3.1.3-.2.2-.4 0-.6-.4-.3-.4-.7-.4-1.2l2.7-.1c.7 0 .9.2.9.9v7.3c0 .9-.3 1.1-1.1 1.1h-3z"/><path d="M56.8 28.9c-.7-.9-.8-2-1.2-3-.2-.4-.2-.8-.5-1.1L54 21.4c2.9-.1 2.9-.1 2.9 2.7l-.1 4.8z" class="st72"/><path fill="#55a1f4" d="M68.4 21c2.7-.1 2.7-.1 2.7 2.6v5.5c0 .7-.2 1-.9.9-.7.2-1.5 0-2.2.1-.2 0-.5 0-.6-.2-.1-.9-.9-.8-1.4-1.3.4-.6 1-.7 1.6-.6h1.7c-.5-.3-1-.2-1.3-.6l-.5-.4c-1.5-.7-1.5-.8-1.5-2.6 0-.4 0-.8.3-1.1.7.2.9.9 1.4 1.2l.1.3c.1.3-.4.8.1 1 .3.2.5-.1.6-.4-.1-.7.3-1.4-.4-2-.4-.1-.8 0-1.1-.3.2-.9.9-.4 1.4-.4-.5-.1-.8-.6-.8-1.1-.1-.6.5-.4.8-.6z"/><path fill="#5192f5" d="M68.4 21c-.7.5-.7.9.2 1.7-.5.3-1.1-.1-1.6.3-.1.2-.2.3-.4.2-.5.9-.2 1.8-.2 2.7 0 .5.6.7 1.1.7.7-.1.9.3.9.9-.5.6-1.3.2-1.8.4-.2.1-.7-.1-.4.5.3.3.6.2.9.2l.5.2c.1 1.9 1.5.9 2.3 1.1h.3c-1.7.4-3.5.1-5.2.2-.4 0-.4-.3-.4-.6v-7.8c0-.7.4-.8.9-.8l2.9.1z"/><path d="M2.7 84.3V33.2v-29c-.4.5-.2.9-.2 1.4v47.2c0 9.4-.5 32.4-.5 32.8-.1.4-1.6.8-1.7 1.2.5 1.4 2.4 2.4 4.4 2.1a16 16 0 0 1-2-4.6z" class="st4"/><path fill="#cbd8e0" d="M16.7 58.2c.4.6 1.1 1.2.4 2-.2.2-.4.1-.5-.1-.3-.4-.7-.4-.9-.1-.5.7-1.1.6-1.7.5-.3-.6.1-.9.5-1.3.9-1.3 1.1-1.5 2.2-1z"/><path fill="#7994a7" d="M16.7 58.2c-1.1-.4-1.5.6-2.3 1l.2-1.5c-.1-1.1.6-.9 1.2-.9.5.4 1 .8.9 1.4z"/><path fill="#97b5c9" d="M14 60.5c.5-.1 1.2.2 1.4-.8.1-.4.8-.2 1.2-.3.6-.1-.1.8.5.8-.9.8-2 .5-3.1.3z"/><path fill="#bed6e5" d="M15.9 56.9c-.3.5-1.2 0-1.2.9-.3-.1-.8.2-.9-.2-.1-.4.2-.8.4-1.1.3-.4.5-.2.9 0 .2 0 .6 0 .8.4z"/><path fill="#75adf4" d="M21 59.9c-.6 1.3-1.7.5-2.5 1-.1.1-.3-.1-.2-.3.1-.2 0-.6.3-.5.8.1 1.5-.5 2.4-.2z"/><path fill="#73a9f4" d="M20 55.6c.1.4-.3.6-.4.9-.3.5-.8.4-1.2.3-.3 0-.2-.3-.1-.5.1-.5.2-.9.8-.8l.9.1z"/><path fill="#8bb9f5" d="M19.1 57.3c.3.1.7-.1.7.4s-.5.5-.8.5c-.4 0-.7 0-.7-.5s.4-.4.8-.4z"/><path fill="#75aaf1" d="M19.1 59.5c-.3-.1-.8.2-.8-.4 0-.7.6-.4.9-.6.4-.2.4.2.4.4.1.6-.2.7-.5.6z"/><path fill="#6ba0f2" d="M14.4 63c.4-.1.7-.1.7.3 0 .8-.6 0-.9.4-.2.2-.5 0-.5-.3-.1-.6.4-.3.7-.4z"/><path fill="#59bac6" d="M21.7 47.6h-1.6c.4-.6-.2-.7-.5-.9 0-.3-.1-.5-.4-.4-.2.1-.4.2-.3.5.2.8-.3.8-.9.8l-3.9.2c-.2 0-.6.2-.6-.2 0-.3.2-.5.5-.5l2.7-.3c.4-.1.9-.1.7-.8-.2-.6.2-.8.8-1 .7-.2 1.3.1 2 0 .5-.1.4.6.4.9 0 .5.1.7.6.6.7.1.4.7.5 1.1z"/><path fill="#68bcc9" d="M13.7 46c-.3-.8.3-.8.8-.7.6.2 1-.1 1.5-.1.4 0 .8-.1.7.5 0 .4.1.9-.7.7a6 6 0 0 0-1.9.1c-.5.2-.6.1-.4-.5z"/><path fill="#4eb5c3" d="M17.5 48.2h.7c.3 0 .3.3.4.5.1.3-.2.4-.4.4-.7-.1-1.4.1-2 .1-.2 0-.6.1-.6-.3s.2-.5.5-.6c.5-.2 1 0 1.4-.1z"/><path fill="#abdbe2" d="M15.2 52.2c0 .5 0 .9-.7.9-.8 0-.7-.6-.8-1.1-.1-.6.4-.5.7-.5.6-.1.8.2.8.7z"/><path fill="#58b8c5" d="M14.1 49.4c-.3 0-.6-.1-.5-.5.1-.6.5-.6.9-.6s.7.1.6.5c0 .6-.5.6-1 .6z"/><path fill="#94d5dd" d="M19.6 46.7h.2c.4.1.9-.3 1.1.3.2.6-.7.2-.8.7-.7 0-.8-.2-.5-1z"/><path d="M19.6 72.4c-.4-.3-.4-.8-.6-1.2-.3.3.2.9-.5 1-.8.1-.7-.6-1-1-.2-.2-.1-.4 0-.6.3-.8-.1-.8-.7-.8-.3-.8-.3-1.5.6-1.8l.3-.1.2.3c.1.7.2 1.4 1.1 1.5l.1.1c.5 1 .8 1.7.5 2.6z" class="st97"/><path fill="#8cb9ce" d="M24.6 69c.3.7.1 1.4-.2 2-.4.1-.8 0-1-.4.1-.6.5-1.3-.6-1.3-.6-.1-.8-.6-1.2-1l.1-.1h.7c.3-.4-.6-.6-.2-1 .3-.3.6 0 .9.1.4.4.5.4 1.5 1.7z"/><path fill="#cacecd" d="M18.5 67.6c0-.9 1-1.4 1-2.3-.1.9.9 0 1.2.9.2.7.3 1.2.1 1.8-.2.5-.6.7-1.1.6-.4-.4-.9-.6-1.2-1z"/><path d="M19.6 68.4c.5.1.8-.3 1.2-.4.2.3.6.1.9.4v.1c-.4.2-.4.5 0 .7-.2.4-.9.6-.3 1.3.2.2-.2.4-.4.6-.2.2-.4 0-.6-.1-.4-.5-.6-1-1.2-1-.1-.2 0-.4.1-.6.1-.4 0-.8.3-1z" class="st97"/><path fill="#a1b8c3" d="M17.8 68.1h-.3c-.8-.8.5-1.5-.1-2.2.2-.6.7.8.8-.2 0-.1.2-.1.2 0 .1.2.2.4.1.5-.1.5-.5.9-.3 1.5.1.3 0 .5-.4.4z"/><path fill="#a68d1a" d="M17.8 68.1l.6-.5h.1c.6-.1.9.2 1.2.7 0 .4.1.8-.2 1.1-.3-.7-1.2-.5-1.6-1.1l-.1-.2z"/><path fill="#2097cd" d="M59.4 44.7c.1-.7.4-1.3 1-1.4.5-.1 1.3.1 1.4.9-.3.4-.3 1.1-1 1.3-1.3-.4-.1-1.1-.3-1.7 0-.1-.2 0 0 0 0 .7-.1 1.4-1.1.9z"/><path fill="#44653f" d="M59.4 44.7c.9.3.9-.7 1.4-1 .3.6-1.2 1.3.2 1.7.3.3.3.6.2.9-1.2-.1-1.8-.5-1.8-1.6z"/><path fill="#7daff7" d="M58.9 49c.3 0 .6 0 .6.4 0 .5-.3.5-.7.5-.3 0-.6 0-.6-.4 0-.5.4-.5.7-.5z"/><path fill="#9ba5a6" d="M61.2 46.2c0-.3-.4-.5-.2-.9s.3-.9.8-1.1c.1.8 0 1.5-.6 2z"/><path fill="#d1798f" d="M17.8 30.3l1.9-.2c.3-.1.6-.1.6.4 0 .3 0 .6-.5.6l-3.2.1c-.3 0-.8.2-.9-.4 0-.6.5-.5.9-.6l1.2.1c0-.1 0 0 0 0z"/><path fill="#e6bcc5" d="M14.1 31.6c-.8.1-.5-.5-.6-.9-.1-.8.5-.7 1-.7.7 0 .6.5.6.9.1.9-.5.7-1 .7z"/><path fill="#c2cfd1" d="M21.7 69h-.4c-.3 0-.7.1-.6-.4 0-.4.4-.3.6-.3h.4c.6.1.8.6 1.2.9.7.2.7.8.7 1.4l.9.4c.1.3.4.7.1.8-.3.1-1-.1-1.1-.4-.6-.9-1.6-1.4-1.8-2.4z"/><path fill="#c6d9e7" d="M42 37.2v-1c0-.3.2-.5.1-.8-.1-1 .5-1 1.2-1.1.9-.1.8.5.8 1 .1 1.9.1 1.9-1.9 1.9H42z"/><path fill="#8fbcf7" d="M42.4 41.1c-.4-.3-.8-.1-1.2-.2-.3 0-.6 0-.6-.4s.3-.3.6-.3h.8c.6 0 .8.3.4.9z"/><path fill="#83b8e8" d="M44.5 44.5c0 1.6-.3 2.2-1.6 2.7-.4-.1-1.2.3-1-.4.1-.7 0-1.8 1-2.1.4-.2 1-.2 1.6-.2z"/><path fill="#76acf7" d="M41 51.3c-.3.1-.5.1-.5-.3s.2-.7.7-.7c.3 0 .7-.1.7.4 0 .7-.6.4-.9.6z"/><path fill="#f2f7f9" d="M17.2 39.3c-.9.3-1.6.2-2.1-.8-.4.5-.1.8.2 1.2-.7-.3-.7-.7-.7-1.3.4-2.4 1.1-3.2 3-3.6-.4.6 0 1.1.3 1.6.5.9.2 1.2-.8 1.3-.4 0-.8-.2-1.1.2-.1.2 0 .4.1.5.4.4.7 0 1.1-.1h.5c.1.5-.3.6-.5 1z"/><path fill="#89b5f4" d="M14.7 42.6H14c-.3 0-.5-.2-.4-.5.1-.5.3 0 .5-.1l1.1-.3c.3.4 1-.1 1.3.4-.6.6-1.3 0-1.8.5z"/><path fill="#86b4f3" d="M14 41.3c-.3 0-.5-.2-.4-.5.1-.4.3-.2.5-.2.8 0 1.6 0 2.4-.2v.7c-.8.3-1.7-.1-2.5.2z"/><path d="M14 41.3c.8-.4 1.7-.1 2.5-.2-.8.5-1.7.1-2.5.2z" class="st23"/><path fill="#bed7d4" d="M35.2 27.3c-.7 0-1.1-.4-1.1-1 0-.8.4-1.3 1.2-1.6h.9l.3.1c-.4.8-.4 1.9-1.3 2.5z"/><path fill="#a8a092" d="M35.2 27.3c.4-.9.9-1.7.9-2.7V24c.4 0 .7.1.6.6-.2 1.1-.4 2.2-1.3 3l-.2-.3z"/><path fill="#8ab6f8" d="M33.6 31.1c-.3-.1-.8.1-.8-.5 0-.5.4-.4.7-.4.3 0 .7-.1.8.4 0 .5-.3.5-.7.5z"/><path fill="#79aef8" d="M52.6 50.5h-1.2c-.3 0-.6-.1-.6-.5 0-.3.1-.5.5-.6.6-.1 1.1.3 1.7-.1 1.1 1 .1 1-.4 1.2z"/><path fill="#2c2c40" d="M52.6 46.2c-.3-.1-.5-.2-.4-.5.3-.8.3-1.7.9-2.3 1-.1 1.2.6 1.3 1.3-.1.2-.2.3-.5.2-.3-.1-.2-.6-.6-.5-.2.1-.1.4-.3.5l-.2.6c0 .2 0 .5-.2.7z"/><path fill="#e8e6e7" d="M53.4 46.7c-.6 0-.6 0-.6-.8.3-.7.8-.8 1.5-.5 0 .3.1.5-.2.7-.1.3-.1.8-.7.6z"/><path fill="#cd2414" d="M54.3 45.4c-.5.2-1.1 0-1.4.7-.4-.1-.2-.5-.3-.7-.1-.2 0-.4.3-.5l1-.1.4-.1v.7z"/><path d="M53.4 46.7c.4-.1.5-.4.7-.6.3.3.4.6 0 .9-.2 0-.5 0-.7-.3z" class="st123"/><path fill="#86b6f8" d="M34.7 51.9h-1.4c-.3 0-.5-.1-.6-.4 0-.3.2-.5.5-.5l2-.2c1.3.9-.2.7-.5 1.1z"/><path fill="#e7dadc" d="M34.3 45.3c.2-.4.5-.6.9-.7 1 0 .9.7.9 1.4-.1.2-.2.4-.5.4-.3-.1-.4-.4-.6-.8 0 .4.2 1-.3.9-.7-.1-.5-.7-.4-1.2z"/><path fill="#2d7fca" d="M35.7 46.3l.4-.3.5.7c.2.2.1.7 0 .7-1-.2-.3.8-.7.9-.4-.5-.9-1-1.6-1.1.4-.4 1-.5 1.4-.9z"/><path fill="#b7d4db" d="M36.3 37.4l-.4.3c-.5-.4-.5-.4-.2-1.4-.7 0-1.2-.1-1-1l.3-.7c.5 0 1.1-.1 1.6.3.2.8.1 1.7-.3 2.5z"/><path fill="#7ab7cc" d="M34.7 35.2c.1 1.3.7.8 1.2.3.4.8-.7 1.4-.1 2.1-1.3 0-1.6-.7-1.1-2.4z"/><path fill="#7caff7" d="M35 41.1l-.3.4c-.5-.3-1 .1-1.5 0-.2 0-.4-.1-.5-.4 0-.2 0-.4.3-.5.8-.1 1.5-.4 2 .5z"/><path fill="#536b7e" d="M36.3 37.4l.3-2.6c.2 1 .6 1.9-.3 2.6z"/><path fill="#b5d1e1" d="M44 27.3h-.7c-.9.2-1.2-.2-1.1-1.1v-1c-.2-1.1.2-1.7 1.4-1.5.4.1.5.3.5.6l-.1 3z"/><path fill="#98c1f7" d="M41.3 30.7c0-.5-.1-.9.7-.9.7 0 .8.4.7.9h-1.4z"/><path fill="#030303" d="M36.6 55.6c0 .3-.1.5 0 .8.1.9 0 1.6-1.1 1.6-.5.1-1.1.4-1.3-.3-.2-.6-.1-1.3.7-1.5.5-.1.8-.4 1.2-.8.2 0 .4 0 .5.2z"/><path fill="#88b8f8" d="M34.3 62.1c-.3-.1-.7-.2-1 0-.3.1-.4.1-.5-.2-.1-.2.1-.5.3-.5l3.2-.5c.2.7-.2.9-.8 1l-1.2.2z"/><path fill="#565350" d="M36.1 55.5c-.1.4-.3.8-.8.9-.6.1-1.1.3-1.1 1 0 .9.8.4 1.2.6-.4.3-.9.2-1.4.2v-2.4c.7-.7 1.4-.4 2.1-.3z"/><path fill="#bfc7d6" d="M36.1 55.5c-.7 0-1.4-.1-2 .2 0-.5.4-.5.7-.5.4 0 .9.1 1.3-.2.2.1.7 0 .5.5h-.5z"/><path fill="#ee9c26" d="M53.5 63.4c.5.5 1.8.7.7 1.8-.1.1 0 .3.2.4.5.4.3.8-.2 1.1-.4 0-.2-.6-.5-.6-.4 0-.3 1.1-.8.6-.3-.3-1-.8-.6-1.6l1.2-1.7z"/><path fill="#82b5f7" d="M54.4 69.3c.3 0 .6 0 .7.4.1.7-.7.4-.9.7-.9-.3-1.9.7-2.6-.3h-.1c-.2.1-.1.6-.5.4l-.1-.2c-.1-.7.5-.5.8-.6.8-.3 1.8 0 2.7-.4z"/><path fill="#99a6ca" d="M35.7 46.3c0 1-.7.9-1.4.9-.3-.6-.4-1.2 0-1.9 0 .4-.2.9.5 1.1.2-.1.2-.2.1-.4s-.6-.3 0-.6c.5-.2.4.2.5.3.1.2.1.5.3.6z"/><path fill="#96c0f8" d="M53.3 29.4c.3.5.4.8-.3.9-.4.1-.9-.1-1.3.2-.4 0-.8.2-.8-.4 0-.5.4-.4.7-.5l1.7-.2z"/><path fill="#a5ccef" d="M54.4 26.2c-.1.4-.5.6-.7.9-.8.1-1.3-.3-1.5-1.1-.2-.8-.3-1.7.4-2.3.6-.6 1.3-.6 1.8.2l.1.2v.1c-.6.1-1.4-.5-1.7.6 0 1.5.2 1.7 1.5 1.3l.1.1z"/><path fill="#95c1eb" d="M54.4 24.2v-.3c.4.5.5 1.1.4 1.8l-.3.5-.1-.1c-.3-.5-.2-1-.2-1.6l.2-.3z"/><path fill="#e97288" d="M53.3 56.7c-1-.3-.8-1.3-1.1-2-.2-.6.6-1 1.3-1 1.2.3 1.2.4.7 1.6-.2.6.1 1.4-.9 1.4z"/><path fill="#7cb1f7" d="M53.7 60.4h-2.1c-.3 0-.7.4-.8-.2 0-.6.4-.7.8-.7.8.2 1.6-.1 2.3-.3.6.6.1.9-.2 1.2z"/><path fill="#f7fbf7" d="M24.8 39c-1.8-.2-2.4-1.2-1.9-2.8.1-.4.5-.4.8-.6.7-.6 1.4-.7 2.3-.5.5 1.1.3 2.3.2 3.5-.1.8-.9.4-1.4.4z"/><path fill="#73c273" d="M22.6 42.2c-.3-.1-.8.2-.8-.3-.1-.4.3-.5.6-.6.7-.3 1.5-.1 2.2-.2.3.6.3 1-.5 1-.5-.1-1.1-.3-1.5.1z"/><path fill="#65ba64" d="M26 35.2l-2.3.5c-.4-1.2-.2-1.5.9-1.7.4.4.8.9 1.4 1.2z"/><path fill="#167bbf" d="M60.1 64.5l-.7-.4c.5-.6 1.7.3 1.8-.9l.7-.4c-.2.7-.5 1.3-1 1.7.2.3.7-.1.8.3-.8.1.1 1.2-.7 1.3-.4-.5-.9-.9-.9-1.6z"/><path fill="#87b7f7" d="M60.7 69.7h-1.9c-.2 0-.5.2-.5-.2-.1-.3.1-.5.4-.6l2.1-.4c.5.5.4.8-.1 1.2z"/><path fill="#87afc2" d="M60.1 64.5c.5.4.6 1 .8 1.6-.4-.5-1.3-.7-.8-1.6z"/><path fill="#ddd" d="M52.7 37.2h-.6c-.1-.3-.2-.5-.1-.8.3-.3.8-.2 1-.6.3-.6.1-1-1-1.5-.1-.7.1-1 .8-.9h1c.7-.1 1 .2.9.9v.2c0 .7.2 1.6-.1 2.2-.2.8-1.2 0-1.9.5z"/><path fill="#f68785" d="M52.1 34.3c1.5-.1 1.4-.1 1.4 1.2 0 1.2-.7 1-1.4.8v-2z"/><path fill="#80b2f6" d="M51.4 39.2c-.3 0-.6 0-.6-.4l.3-.6c.4-.2 2.5.2 2.9.6-.8.6-1.8-.1-2.6.4z"/><path fill="#95bef8" d="M52.8 40.4h-.9c-.4-.1-1 .3-1-.3-.1-.6.6-.5 1-.6.6 0 1.2-.1.9.9z"/><path fill="#7db7f7" d="M53.9 38.8v-.6c.4.2.9 0 1.3-.1.2 0 .5-.3.7.1v.6c-.2.3-.5.2-.7.1-.4-.2-.8-.3-1.3-.1z"/><path fill="#bde1f2" d="M60.9 23c1 .4 1.3 2 .5 3.1l-.7.7c-.9-.5-1.6-2.5-1.2-3.3.3-.4.9-.4 1.4-.5z"/><path fill="#92bdf9" d="M60.2 29.1c.1.5-.1.9-.7.9l-.9.1c-.4.1-.5 0-.5-.3s.1-.6.4-.5c.7.2 1.2-.2 1.7-.2z"/><path fill="#694a43" d="M15.8 25.7c1.1-.5 2.2-.1 3.3-.2h1.5c.5-.4 1-.4 1.6 0 .4.5-.3.7-.3 1.1l-.4.2c-1.7.2-3.4.1-5.1.1-.3 0-.6-.1-.8-.3-.2-.3.7-.4.2-.9z"/><path fill="#7b5344" d="M14 28.5c.3-.4 1-.1 1.3-.7-.3-.4-.9 0-1.3-.4.4-.4 1-.3 1.5-.3h3.2c1.1.1 2.2-.3 3.2.3 0 .3-.3.5-.5.6-1.6.1-3.1 1-4.8.5-.9-.4-1.7.2-2.6 0z"/><path fill="#ef8a46" d="M21.9 27.3h-3.1c-1.5-.3-3 .1-4.5-.3 2.5-.4 5 0 7.4-.3h.2v.6z"/><path fill="#e98348" d="M22.1 25.5h-1.6c-1-.4-2.1 0-3.4-.3 1.8-.4 3.4-.6 5.1-.1l-.1.4z"/><path fill="#bf6d41" d="M24.8 25.1c.5-.5 1.4-.7 2.8-.2-.9.3-1.9 0-2.8.4v-.2z"/><path d="M21.7 22.8l1.5-.1c0 .2 0 .4-.2.5h-2.2l.9-.4z" class="st46"/><path fill="#db7d40" d="M25 26c.9-.4.9-.4 1.9.2H25V26z"/><path d="M52.6 45.4l.3.7c-.2.4.1.5.4.6-.2.4-.4.5-.8.3s-.1-.5 0-.8l.1-.8z" class="st123"/><path fill="#f4ebed" d="M58.2 55.5c.1-.8.1-1.6.5-2.4.5-.9 1.1-1.5 2.2-1.4 1 .1 1.5.9 1.8 1.7.2.6.2 1.2.2 1.9l-.5 1.4c-.5 1-1.2 1.7-2.3 1.5-1.1-.2-1.6-1.1-1.9-2.2v-.5z"/><path fill="#ee9eb0" d="M60 58.9c.3.2.8-.3.8.2.1.6-.5.2-.7.4-.4.3-.9.2-1.3.2-.2 0-.5 0-.5-.3s.2-.4.4-.5H60z"/><path fill="#b0663f" d="M21.7 26.6c-.6.4-1.3.2-2 .2l-5.2.1c1.4.3 2.9-.1 4.3.4H14c-.4-.1-.9.1-1.4-.2 1-.7 2-.4 3-.5h6.1z"/><path fill="#9cc2f9" d="M59.2 40c-.4-.1-1 .2-1-.4 0-.7.6-.4.9-.4.4 0 1-.2 1 .5 0 .5-.6.1-.9.3z"/><path fill="#d8d2d3" d="M60.7 35.7l-.9.4-.1-.2.1-.9c.3-.7.4-.7 1.3-.1-.3.1-.4.4-.4.8z"/><path fill="#92c0f8" d="M60.2 38.1c.5-.4 1-.3 1.5-.2.1 0 .1.3 0 .4-.4.4-1 .2-1.5.2.1-.1 0-.2 0-.4z"/><path fill="#abd0ec" d="M14.7 73.5c.7.3.6.7 0 .9l-1.1.2c-.3-.9.5-1 1.1-1.1z"/><path fill="#0d3c92" d="M13.6 12.8c0-.4-.1-.7.5-.8.5 0 .6.3.6.7 0 .4-.1.6-.5.6-.6.1-.6-.2-.6-.5z"/><path fill="#153892" d="M17 12.6c.2.7 0 1.1-.1 1.6-.5-.5-.2-.9.1-1.6z"/><path d="M68.6 35.2c0 .4 0 .8-.5.9-.4.1-.7-.1-.6-.6l-.1-.2c-.4.1-.8.3-.8-.4 0-.6-.1-1.2.7-1.5 0 .1 1.1 1.7 1.3 1.8z" class="st173"/><path fill="#424cba" d="M68.6 35.2h-.1c-1.2 0-1.5-.7-1.3-1.8.2-.3.4-.2.7-.2l.4.5c0 .5.7.9.3 1.5z"/><path fill="#98bff8" d="M66.2 39.5c-.3-.1-1 .2-.8-.4.1-.3.7-.6 1.2-.5.3 0 .8 0 .7.5-.2.7-.8.3-1.1.4z"/><path fill="#d8e2f6" d="M68 33.9l-.1-.7c.5 0 1.1-.2 1 .6-.3.4-.6.6-.9.1z"/><path d="M68 33.9c.3.2.6.2.9 0-.1.5.2 1-.2 1.4.1-.8-.8-.8-.7-1.4z" class="st173"/><path fill="#dedeaa" d="M73.6 26c-.3-.6-.2-1.1-.2-1.6 0-1.6.8-2 2.2-1.3.2.1.3.2.3.4.1.4.1 1.7-.1 2.4-.8-1-1.4-.8-2.2.1z"/><path fill="#8ec4e5" d="M73.4 34.1c-.3-1.1.4-1.3 1.3-1.2.4.1 1.2-.4 1.1.6 0 .8-.9 2.2-1.4 2.1-1-.1-1.2-.7-1-1.5z"/><path fill="#a0c6f8" d="M73.4 39l-.7.1c-.2 0-.3-.1-.4-.3 0-.2 0-.4.2-.4.6 0 1.1-.3 1.7-.1.3.1.6.1.6.4 0 .4-.4.3-.6.3h-.8z"/><path fill="#acbbca" d="M85.1 62.1c.1 1.2-.9 2-2.1 1.7-.3-.1-.4-.3-.4-.6v-1.6c0-.6.2-.8.7-.9 1.6-.2 1.7-.2 1.8 1.4z"/><path fill="#9cc3f9" d="M84.3 65.4c-.5.6-1.4.7-2.5.3.4-.3.8-.3 2.5-.3z"/><path fill="#aacef9" d="M84.8 66.5c-.1.3-.3.5-.6.4-.2-.1-.5 0-.4-.3.1-.4.5-.4.8-.5l.2.4z"/><path fill="#a0c3f9" d="M83.4 66.8c-.5.2-.9.3-1.3.1-.1-.1-.1-.3.1-.4.4-.2.7.1 1.2.3z"/><path fill="#838235" d="M61.2 34.9c-.5 0-1-.6-1.3.1-.3-.1-.6-.3-.4-.7.2-.4.5-.3.7-.1.3.2.8.2 1 .7z"/><path fill="#ebedf0" d="M60.7 35.7s.1 0 0 0c.3.2.8 0 .8.6 0 .2-.1.3-.3.3-.5-.2-.6-.5-.5-.9z"/><path fill="#3a6c42" d="M60.3 33.9c-.3 0-.5-.2-.5-.4s0-.4.3-.4.4.2.4.4l-.2.4z"/><path fill="#89b8f7" d="M88.4 66.5c-.5-.6 0-1 .4-.8.8.3 1.4 0 2.1-.3.5.5.5.8-.3.9-.7.1-1.5-.2-2.2.2z"/><path d="M90.7 60c.3.1.9 0 .8.5-.1.4.2.9-.4 1.3-.5.3-.4-.2-.6-.2-.1-.6-.9-1.2.2-1.6zM90 63.2v-.3c-.1-.2-.2-.2-.3 0-.1.2-.1.5-.4.4-.4-.1-.1-.4 0-.7l.3-1c.1-.2 0-.5.3-.5.2 0 .3.3.4.5l.3 1.1c.1.5-.2.5-.6.5z" class="st188"/><path fill="#7dabae" d="M90.3 61.6c-.2-.2-.5-.5-.7 0-.1-.5-.6-1 0-1.5.4-.4.7-.1 1.1 0-.9.4.2 1.1-.2 1.5h-.2z"/><path fill="#a1c6f8" d="M90.2 65.2c-.6-.1-1.9.2-1.8-.2.1-.8 1 0 1.6-.3l.5-.3c.5.4.5.4-.3.8z"/><path fill="#d0c5e4" d="M84.9 53.7c-.4.7-.7.3-1.1 0-.8-.3-.7-1.1-1-1.7 0-.4.2-.8.5-1.1 1.6-.4 1.1 1.1 1.5 1.7.2.4.1.8.1 1.1z"/><path fill="#8ebbf8" d="M83.9 56.4h-1.7c-.3 0-.6 0-.5-.4 0-.3.3-.2.5-.3.6 0 1.2.1 1.7-.2 1 .3.2.6 0 .9z"/><path d="M83.5 57.1c.1-.6.7-.1.9-.4.4.4 1-.2 1.3.4.1.1-.1.3-.3.3-.6-.1-1.4.7-1.9-.3zM81.9 57.7c-.7-.5-.4-.8.2-.9l1.2.2c-.2.9-1.1.2-1.4.7z" class="st193"/><path fill="#dbe5e4" d="M83.3 41.5c.5.2 1.1-.4 1.4.5.3.9.2 1.7 0 2.6l-.5.1c-.3-.3-.8-.3-1.2-.4-.3-.6.4-1.3-.2-1.9 0-.4.2-.7.5-.9z"/><path fill="#8fbdf7" d="M83.9 47.2c.6.4 1.6-.4 2 .6-.5.2-1-.1-1.4.3h-2.3c-.3 0-.7 0-.6-.4.1-.4.5-.4.7-.3.7.3 1.2.1 1.6-.2z"/><path fill="#90bdf8" d="M83.9 46c.5.1.6.4.1.6-.2.1-.6 0-.8.2a.6.6 0 0 0-.6 0c-.3 0-.9.3-.9-.3 0-.5.5-.4.8-.4.5.2 1 .3 1.4-.1z"/><path fill="#59807c" d="M82.8 42.3c.2-.1.4-.4.4.1.1.6-.1 1.2-.2 1.8-.5-.5-.1-1.2-.2-1.9z"/><path fill="#ca8078" d="M91.4 31.8v2.9c-2 0-2 0-2-2l.1-.7c.5.4.3 1 .4 1.5v.7c.1.2.3.2.4.3-.1-.1-.3 0-.3-.2l.2-.6c.8-.9.8-1-.4-1.4a.2.2 0 0 1-.2-.2c.6-.4 1.2-.2 1.8-.3z"/><path fill="#8bbaf8" d="M90.9 37.4c.4.2 1.3-.4 1.1.7-1.1-.2-2.1.1-3.2 0-.2 0-.6.1-.6-.3s.5-.5.6-.5c.8.4 1.5-.1 2.1.1z"/><path fill="#8dbaf7" d="M90.5 36.1c1 .3.2.6 0 .9h-1.7c-.3 0-.6 0-.6-.4 0-.3.3-.3.5-.3.6 0 1.3.2 1.8-.2z"/><path fill="#d2ddec" d="M84.4 22.3c.8.5.7 1.4.6 2.2l-.2 1.2a3 3 0 0 1-1.6-.2c-.5-.2-.3-.6-.3-1 0-.5 0-1-.2-1.5.4-.8 1.1-.6 1.7-.7z"/><path fill="#8ab9f7" d="M84.2 28.2c.3.6 1.2-.3 1.4.7h-1.8l-1.5.2c-.3 0-.6-.1-.6-.5s.4-.5.7-.4c.5.4 1.1 0 1.8 0z"/><path fill="#7899cf" d="M82.8 23c.5.1.5.4.5.8.1.6-.3 1.1 0 1.6-.3 0-.7 0-.7-.4 0-.6-.2-1.3.2-2z"/><path fill="#97c0f9" d="M83.9 27.1c.5 0 .5.3.4.7h-2.2c-.2 0-.5-.1-.4-.4 0-.3.3-.3.5-.2.6.1 1.2.3 1.7-.1z"/><path fill="#cdddcd" d="M83.9 31.8c1.2.3 1.5 2.1.7 3.4-.7 0-1.4-.1-1.9-.5-.7-.7.2-2.6 1.2-2.9z"/><path fill="#85b6f7" d="M84.8 37.6l.5.6c-.4.3-.9-.1-1.2.3H82c-.2 0-.5-.1-.5-.4 0-.3.3-.3.5-.4.6-.3 1.3.2 2 0 .2.1.5 0 .8-.1z"/><path fill="#99c4f8" d="M83.9 36.6c.6.1.6.4.1.6l-1 .1c-.4-.2-1.2.3-1.2-.3 0-.5.8-.1 1.2-.2.3-.1.7.1.9-.2z"/><path fill="#7147b6" d="M82.8 52.1c.1-.1.3-.1.4 0 .1.6.1 1.2.9 1.2l-.2.4c-1.6.2-1-1-1.1-1.6z"/><path fill="#e7dad6" d="M91.2 22.1c.3.9.6 1.8.3 2.8-.1.3-.2.4-.5.4l-.3-.1c-.5-.2-1.2.1-1.4-.5-.2-.7-.2-1.5.2-2.2.3-.6 1.1-.3 1.7-.4z"/><path fill="#97c1f7" d="M90.5 26.8c.5.1.6.3.2.7h-2c-.2 0-.5-.1-.5-.3 0-.3.3-.3.5-.2.6.1 1.2.2 1.8-.2z"/><path fill="#93bdf9" d="M90.2 28.4c0 .4-.3.1-.5.3l-1 .2c-.3 0-.5 0-.6-.3 0-.4.2-.5.5-.5.7-.1 1.2.1 1.6.3z"/><path fill="#f1e5e8" d="M89.6 41.3l.2-.2c1.5-.2 1.7.4 1.3 1.8-.3.4-.7.6-1.1.9-.7.3-.7-.1-.6-.6.4-.7.4-1.3.2-1.9z"/><path fill="#b091b6" d="M89.6 41.3c1 .5.4 1.3.2 1.9-.1.2-.5.7.2.3.4-.1.8-.4 1.2 0 0 .5-.4.4-.7.5-1.3.1-1.4.1-1.3-1.4 0-.5 0-.9.4-1.3z"/><path fill="#8dbbf8" d="M89.8 47.6h-.7c-.3 0-.8.2-.8-.3s.6-.6.9-.5c.5.2 1 0 1.5.1.5 0 1.1-.2 1.6.3-.8.4-1.7-.1-2.5.4z"/><path fill="#92bef9" d="M89.8 46.5c-.5-.4-1.5.5-1.4-.4 0-.6 1-.2 1.5-.3.2 0 .4 0 .6-.2.5.1.6.4.1.6-.3.1-.6 0-.8.3z"/><path fill="#a95b73" d="M91.2 43.5c-.4-.1-.8.2-1.2 0 .3-.4.6-.7 1.2-.7v.7z"/><path fill="#eacf78" d="M91.5 51.4c-.1.6 0 1.2-.3 1.7-.6.4-1.6.5-1.8.1-.4-.7-.4-1.7.2-2.5.4.8 1.3.4 1.9.7z"/><path fill="#8cbaf8" d="M91.4 56c.2.3.7.1.8.6-.9.6-2 0-2.8.5h-.2c-.3-.1-.9.2-.8-.4.1-.4.5-.5 1-.4.6.2 1.3 0 2-.3z"/><path fill="#faf1d8" d="M91.5 51.4c-1.4.3-1.8.2-1.9-.7.3-.7.9-.2 1.4-.5.3.4.3.9.5 1.2z"/><path fill="#93bef7" d="M90.5 55c.6.1.4.4.2.7l-1.6.1c-.3 0-.9.3-.8-.3.1-.5.5-.3.9-.2.4 0 .9.1 1.3-.3z"/><path fill="#91bef8" d="M66.1 28.5c-.3.1-.6.2-.7-.3 0-.4.2-.4.5-.4l2.4-.2.8.1c.3 0 .8-.3.8.4 0 .5-.4.4-.8.4-.9 0-2-.3-3 0z"/><path fill="#e8d26e" d="M66.6 23.3l.4-.2 1.4.2c0 .6.1 1.2-.7 1.5-.5-.5-1.3-.7-1.1-1.5z"/><path fill="#9fc968" d="M67.7 24.6l.7-1.5c.7.1.4.6.4 1v1.3c-.6.1-.8-.3-1.1-.7v-.1z"/><path fill="#de7069" d="M67.7 24.8c.5 0 .7.5 1.1.7.1 1.1-.8.8-1.2.7-.7-.2-.1-.6-.1-.9l.2-.5z"/><path fill="#9ec1f7" d="M65.6 28.9c.3.1.3.2.3.4s-.1.4-.3.4c-.2 0-.3-.1-.3-.3 0-.3.1-.4.3-.5z"/><path fill="#605512" d="M17.9 68.4c.2 0 .4.2.5.1.9-.3 1.1.2 1.1.9l-.3.4c-1 .3-1.4-.1-1.3-1.4z"/><path fill="#c3aa75" d="M23.5 70.6l-.7-1.4c.5-.5.8-.1 1 .3.3.5.2.9-.3 1.1z"/><path fill="#edae6e" d="M42.8 34.8c.2.4.5.7.3 1.1-.7-.1-.6-.5-.3-1.1z"/><path fill="#cbddec" d="M42.6 46.4c-.1-.6 0-1 .6-1 .2 0 .6 0 .5.2-.1.5-.8.4-1.1.8z"/><path fill="#247aeb" d="M16.5 37c-.2 0-.5.1-.5-.2 0-.3.2-.5.6-.5.3 0 .5.2.5.5 0 .4-.4.2-.6.2z"/><path fill="#978647" d="M53.9 44.8c-.3.3-.7.4-1 .1.3-.2-.2-.8.4-.7.4 0 .5.1.6.6z"/><path fill="#c8b997" d="M43.8 24.1c-.6.3-.9.3-1.4.1.5-.4.9-.3 1.4-.1z"/><path fill="#2287d3" d="M54.3 24.4v1.7c-.4.4-.8.8-1.4.4-.7-.4-.7-1.2-.5-1.9.5-.3.5.2.6.4l.2.3c.3 0 .1-.2.1-.3 0-.3.1-.5.4-.6h.6z"/><path fill="#47a8eb" d="M52.9 25.3c-.1-.3 0-.7-.4-.7.4-1.1 1.1-1.1 1.9-.4v.2l-.4.2c-.7-.2-.6.7-1.1.7z"/><path fill="#f8d4d8" d="M53.8 55.4c-.1.3-.3.5-.5.3-.2-.1-.2-.5-.3-.7 0-.2.1-.4.3-.4.5.1.2.6.5.8z"/><path fill="#2b9f2b" d="M25.1 37.1c-.2.4.3 1.1-.6 1-.5-.1-1.1.1-1.1-.9 0-.9.6-.9 1.1-1 .9-.1.3.6.6.9z"/><path fill="#35a6e6" d="M61.4 24.4v.6c0 .6-.2 1.3-.8 1.3-.6 0-.7-.7-.8-1.2.4-.1.5.4.8.4.3-.4.3-1 .8-1.1z"/><path fill="#3ea9ee" d="M61.4 24.4c-.5-.8-.5.5-1 .2.1-.4.1-.9.8-.8.4 0 .4.3.2.6z"/><path fill="#dd2f4d" d="M59 53.7c.6-1.2 1.4-1.7 2.2-1.4 1 .3 1.7 1.8 1.3 3a3 3 0 0 0-.2.8c-.6-.1-.4-.6-.5-.9-.1-.4 0-.9-.3-1.2-.7-.3-1.4-.6-2.2-.2l-.3-.1z"/><path fill="#ee496b" d="M61.6 53.7c.8.7.1 1.7.6 2.5-.2.5-.4.9-.9 1.1-.7 0-1.5.1-1.9-.8.1-.5.4-.8.8-1.1.5-.4.9-.3 1.2.2-.1-.6-.3-1.3.2-1.9z"/><path fill="#d91e40" d="M59.6 56.4c.4.7 1.2.6 1.8.9-1.2.5-2 .2-2.5-1-.3-.9-.3-1.8.1-2.6h.2l.2.4c-.2.7 0 1.2.4 1.8l-.2.5z"/><path fill="#457736" d="M84.8 62.3c.3 1.1-.5 1-1.2 1.1-.8.1-.8-.3-.8-.9.7-.9 1.2-1 2-.2z"/><path fill="#779578" d="M84.8 62.3c-.7-.4-1.4-.3-2 .2.1-.5-.4-1.3.7-1.4 1-.1 1.5.1 1.3 1.2z"/><path fill="#aec9c9" d="M84.4 44.2c-.4-.3 0-.7-.2-1-.5 0-.2.6-.5.7-.4-.2-.2-.6-.2-.8 0-.4.1-.7.7-.4.5.2.5.1.2 1.5z"/><path fill="#f4d5d0" d="M89.6 32c.8 0 1.6 0 1.6 1.2 0 .3.1.7-.4.5-.3-.1-.6.1-.6.4 0 .4.5.1.7.3-1 .3-1.4-.1-1.3-1.2V32c-.1 0 0 0 0 0z"/><path fill="#8fa1cc" d="M84.2 25c-.4.2-.2-.3-.3-.4-.5-.4.1-.2.2-.3.2-.1.4-.1.3-.4 0-.1-.1-.2-.2-.1-.3.1-.7.1-.6-.3.1-.4.6-.3.9-.2.7.2 0 .7.2 1.1 0 .3 0 .7-.5.6z"/><path fill="#6e935f" d="M83.9 33.8c-.5-.1-.5-.5-.4-.8 0 0 .3-.1.4 0 .1.3.1.6 0 .8z"/><path fill="#f29570" d="M89.8 24.1c-.1-.6.1-.9.7-.8.5 0 .9.1.8.7-.1.4.2 1-.5 1-.5-.1-1.2-.1-1-.9z"/><path fill="#cee2ef" d="M52.9 25.3c.1-.6.2-1.2 1.1-.7-.7.3-.2.8-.1 1.3-.3-.5-1.2.4-1-.6z"/><path fill="#f8d5d8" d="M59.1 54.1v-.4c.8-1.1 1.6 0 2.5 0 .1.6-.2 1.3 0 2 .1.3-.1.6-.5.6-.5-.1-.3-.2-.1-.5.3-.3-.1-.2-.2-.3-.2-.2-.3-.1-.4.1-.2.4-.4.7-.8.8V56c.1-.7-.4-1.3-.5-1.9z"/><path fill="#e95468" d="M59.1 54.1c.3.6 1.2 1 .4 1.8-.6-.4-.8-1-.4-1.8z"/></svg>