<svg xmlns="http://www.w3.org/2000/svg" id="图层_1" viewBox="0 0 88.7 100"><style>.st1{fill:#e7e7e7}.st3{fill:#1d1d1d}.st5{fill:#d7d6d6}.st9{fill:#ebe9ea}.st10{fill:#cfcdce}.st14{fill:#9e9c9d}.st16{fill:#303030}.st23{fill:#cccccb}.st39{fill:#ccc9c9}.st42{fill:#5c5a5a}.st43{fill:#0c0c0c}.st44{fill:#636361}.st48{fill:#f1f1f1}.st51{fill:#040404}.st52{fill:#161616}.st54{fill:#fbfbfb}.st57{fill:#121212}.st60{fill:#4d4c47}.st62{fill:#474747}.st64{fill:#0d0d0d}.st71{fill:#3a3a3a}.st72{fill:#373737}.st74{fill:#262626}.st80{fill:#060606}.st88{fill:#0a0a0a}.st93{fill:#112534}.st98{fill:#545454}.st99{fill:#3c3c3c}.st110{fill:#848383}.st113{fill:#cacbce}.st119{fill:#a7a6a4}.st124{fill:#7c7c7a}.st135{fill:#141414}.st140{fill:#d0cfce}.st143{fill:#8f8e81}.st160{fill:#2a2726}.st164{fill:#e5e4e3}.st165{fill:#393736}</style><path fill="#fff" d="M37 45.8l.7 3.3 13.1 10.4-1 13.9 20.4-2.7 1.3-5.1.3-4.6 1-1.7.1-1-.2-6.9-23.8-4.3z"/><path d="M72.1 93.1c-3.9.1-7.8 1-11.5 2.1-.9-.2-1.7.2-2.4.4a47 47 0 0 1-5.1 1.2c-.9.2-1.3-.1-1.3-1.1 0-.5.1-.9.3-1.4l.3-.9c0-.6.2-1 .8-1.2.2 0 .3-.2.4-.4.4-.6.7-1.1 1.2-1.6.2-.2.4-.4.3-.7-.1-.3-.5-.2-.7-.2h-1c-.3 0-.6-.1-.5-.5.6-.6 1.4-.5 2.1-.7l4.3-1-1.8.4-.3.1c-.4.1-1 .2-1.1-.3-.1-.6.5-.6.9-.6a318 318 0 0 0 16.9-3.8l.9-.3c-.3-.5-.4-1-1.1-1.1-.2 0-.4-.1-.1-.4.8-.3 1.7-.1 2.5-.1l1-.1.7-.2.9-.1.2-.1.6-.2.4-.2c.9.3 1.8 0 2.7.1.6.1.9-.4 1.2-.8.2-.3 0-.5-.2-.6-1.1-.7-1.2-1.7-1.1-2.9.1-1 .2-2.1 0-3.1.5-.2 1.1-.3 1.6-.3-.8 1.5-.5 3-.4 4.5 0 .9.6 1.4 1.5 1.5h.3c1.3.2 1.3.2 1.1-1.1l-.2-2.9a12 12 0 0 0-.5-2.6c.5-.4 1-.5 1.5-.1s.8.8.6 1.5c-.3 1.2.1 2.3.2 3.5l.2 3c.3 4.1.2 8.3.2 12.5 0 1.9-.3 3.8-.5 5.7-.1.7-.4 1.4-1.3 1.7-.6-.1-.6-.5-.6-1 .1-1.4.4-2.7.4-4.1l-.2-2.5c-.5.4-.9.9-1.1 1.4-.4.9-.7.9-1.4.3l-.6-.5-.6-.2c-2.1 0-4.2-.4-6.3-.1h-.7c-.6 0-1.2-.1-1.8.1-.6 0-1.2.2-1.8 0z" class="st1"/><path fill="#e3e2e2" d="M52.9 88.8c0 .3.2.3.5.3h1c.3 0 .9-.2 1 .2.1.4-.2.9-.5 1.2-.5.3-.6.8-1 1.2-.3.4-.3 1.1-1.1.9-.2 0-.3.3-.2.5.2.6-.2 1.1-.4 1.6l-.2.6c-.2 1.4 0 1.5 1.4 1.3 2.3-.3 4.4-1 6.6-1.6.3-.1.5-.2.6.3-3.4.8-6.9 1.7-10.3 2.7-.4-.2-.7-.2-1.2-.1-1.8.4-3.6.4-5.5.4l-1.2-.2c-2-.7-1.5-.7-1.6-2.4l-.3-5.1c0-.6-.7-.5-.8-.9 0-.8.2-1.5 0-2.3-.1-.3.1-.6.5-.6.3 0 .6-.1.7-.4 1.2-.1 2.4 0 3.6.1.8 0 1.5.1 2.3-.2.2-.1.4-.1.7.1.8.7 1 .6 1.6-.2.4 0 .8.4 1.2.3l.1.1c.2.3.4.7.9.5.5-.2.6-.6.6-1.1 0-.2 0-.5.2-.7.2.4.2.8.3 1.3.5.6.4 1.4.5 2.2z"/><path d="M50.3 68.1c-.1 1.3-.3 2.5-.3 3.8-.1.5.2 1 0 1.4l-.2 1.2c-.2 1.1-.8 2-1.6 2.7l-1.2.7-.8.2c-.4 0-.7.2-1.1.3l-.8-.1c-.4-.3 0-.4.2-.5.3-.2.7-.2 1-.3a4 4 0 0 0 1.7-.9c-.3-.2-.5-.1-.7 0-.6.2-1.1.2-1.7.1a11 11 0 0 0-3.6.4c-1.1.2-2.1.1-3.1 0-.1-.2 0-.3.1-.4 1-1.1 1-2.5 1.3-3.8l.4-2.9c.2-2 1.8-3.1 3.7-2.6.6.1 1.1.2 1.6-.1.4-.2.7-.2 1.1.1 1.7 1 3.5.1 3.6-1.9.1-1.6.3-3.2.2-4.8a2 2 0 0 0-.9-1.8l-1.3-1c-.2-.2-.6-.4-.5-.7.2-.4.6-.1.9-.1.5.1.9.5 1.4.7.6.3 1.1.7 1.3 1.4.2 1.9-.2 3.8-.1 5.7-.3 1.3-.6 2.2-.6 3.2z" class="st3"/><path fill="#dfdfdf" d="M55.6 43.1l.2-16.8c.1-3.9.3-7.8.9-11.7.2-1.1.2-2.3.2-3.4V2.1c.6-.5 1.2-.5 1.9-.2.3.2.1.6.1.8v4.6c0 2.9.3 5.7.6 8.6l.6 6.5c.4 7.2.2 14.5.3 21.7-.1.1-.2.2-.4.1-1.3-.1-2.6-.5-4-.8-.2.1-.3 0-.4-.3z"/><path d="M72.4 61.5l.1 1.7c0 .3 0 .6-.3.7l-4.3.2c-2.3 0-4.6-.1-6.9.1-2.4.2-4.7.1-7.1.1-.4 0-.8 0-1.1-.2-.4-.6-.6-1.2-.2-1.8.3-.2.7-.1 1-.1h5c4.1.1 8.2-.1 11.1-.1l-15.9.1-1.1-.1c-.2-.1-.3-.2-.3-.5.2-.9-.2-1.6-.9-2.1l-.7-.7c-.1-.1 0-.3.1-.3.5-.3 1.1-.3 1.6-.2 2.8.3 5.5.8 8.3 1.2A164 164 0 0 0 72 61c.3.1.6.2.4.5z" class="st5"/><path fill="#ebebeb" d="M71.9 48.4c.5.9.5 2 .8 3 .1.4-.3.4-.5.4-1.1.1-2.1-.1-3.2-.2l-5-.6-4.8-.7c-2.3-.3-4.6-.8-6.9-.9l-4.4-.5c-2.9-.3-5.8-.7-8.7-.1-.2 0-.4.1-.5.3-.8-.4-1.3-1.4-1-2 1.2-.5 2.5-.7 3.8-.8 3.8-.1 7.4.5 11.2.9 5.2.5 10.2 1.5 15.4 2.1l2.7.2c1.1.1 1.1 0 1.1-1-.1-.1-.1-.1 0-.1z"/><path fill="#e0e0e0" d="M66.8 2.1c.2 3.1.1 6.1.2 9.2.1 2 .4 3.9.6 5.8l.4 4.2c.4 5.3.2 10.6.4 15.9l.1 8.5-.2.1c-1.6-.2-3.1-.4-4.6-1.1.2-4.5.1-9 .2-13.4l.1-6.6c.2-2.7.2-5.4.6-8.1.6-3.8.3-7.6.4-11.3L64.8.9c0-.6.1-.9.8-.8 1.3 0 1.3 0 1.3 1.3v.5c-.3.2-.6.1-.9.1.2 0 .5-.2.8.1z"/><path fill="#ededed" d="M72.4 61.5c-.3-.6-.8-.6-1.3-.6-2.4-.1-4.7-.5-7-.8l-8.2-1.2-3.3-.4c-.5-.1-1.1-.1-1.7.1-.2.1-.4 0-.6-.1l-2.7-2.2c-.1-.1-.3-.2-.2-.5 1.2-.4 2.3 0 3.5.1a590.8 590.8 0 0 1 8.1 1.2h.6c1.2-1 2.6-.2 3.9-.2l3 .3c1.8.1 3.5.5 5.3.5 1 0 .8.9.8 1.6.3-.3 0-.7.3-1-.2 1.1 0 2.2-.5 3.2z"/><path d="M63.6 44.7l4.8 1c.8.4 1.7.5 2.5 1.2.5.4.8.9 1 1.5h-.2c-.3.1-.6 0-.9-.1a44.7 44.7 0 0 0-9.5-2l-2.6-.5c-4.4-1.2-8.9-1.6-13.2-2.8-1.2-.3-2.3-.9-3.6-.9-2-.1-3.9-.6-5.8-.9-.4-.1-.9-.5-1.3 0-.6-.3-.9-.9-1.4-1.2-.2-.2-.6-.2-.8-.6 0-.4.8-.4.5-1 1.6.2 3.3.5 4.9.9 2 .5 4 .8 6 1.4l6.4 1.6 4.7 1 .3-.1c.4.4 1 .4 1.5.5l3.3.6 3.4.4z" class="st9"/><path d="M82.3 72.8c.2.1.4.2.4.5-.2.9 0 1.8-.2 2.7-.2 1-.1 2.3 1.2 2.8.2.1.3.2.3.4-.1.7-1.2 1.4-1.9 1.3l-.7-.1c-.6.2-1.2.1-1.8-.2.5-.8.5-1.3 0-1.7-.5-.4-1.7-.5-2.2-.1-.5.4-1.1.5-1.7.6l-1 .2c-.9.2-1.8.5-2.1 1.6-.2-.1-.2-.2-.1-.4 0-1.7.5-3.5.3-5.2-.1-1-.2-2 0-3 0-.2 0-.3.2-.4.3-.2.6-.1.9 0l1.9.7c1.9.7 3.9.8 5.9.4l.3-.2.3.1z" class="st10"/><path d="M72.6 80.4l.1.3h.3l.2.1.3.2c.2.2.4.1.7.1.3 0 .5.1.5.5 0 .3.1.4.4.5.2 0 .3.1.3.3 0 .2-.3.1-.4.2-3.6 1-7.2 1.7-10.8 2.5l-7.4 1.6c-.2 0-.6 0-.6.3.1.3.4.2.7.2l2.7-.6c.1 0 .3-.1.5.2L53 88.7c-.5-.7-.3-1.5-.3-2.3l11-3.3 7.9-2.3c.3.6.9.5 1.3.6-.4-.2-1-.2-1.3-.6.1-.2.6-.2 1-.4z" class="st5"/><path fill="#a9a8a8" d="M48.1 77.2c.8-.7 1.3-1.6 1.6-2.6.3-.3.7-.3 1-.4 4.8-.6 9.6-1.2 14.5-1.6 1-.1 1.9-.3 2.9-.3.3 0 .8-.1.9.4-.3.5-.8.7-1.3.8-2.6.6-5.2 1.2-7.8 1.4-.9.1-1.8.1-2 1.2-.7.4-1.4.4-2.1.5l-3.6.7c-.6.1-1.1.2-1.7-.1-.4-.2-.8-.1-1.3-.1-.5.3-.8.4-1.1.1z"/><path fill="#e2e2e2" d="M50.3 68.1l.2-2.9c.1-.9.1-.8 1.1-.8 1.9.1 3.9.1 5.8-.2 3.9-.1 7.8-.3 11.7-.2.9.2 1.8 0 2.7.3l-.1.5c-.1 1-.3 1.1-1.3 1-1.7-.2-3.4 0-5.1.1L62 66a47 47 0 0 0-5.3.3c-1.5.1-3.1-.1-4.6.3a2 2 0 0 1-1.5-.2c-.3.6.1 1.2-.3 1.7z"/><path d="M49.8 73.4c0-.5 0-1 .2-1.5l.1.2c.2-.6.7-.6 1.3-.6l8.3-.3 6-.3c1.1-.1 2.2 0 3.3-.2.4-.1 1.1-.3 1.3.2.2.3-.3.7-.5 1.1l-8.9.8-8.2.7-2.4.2c-.2-.1-.5 0-.5-.3z" class="st1"/><path fill="#aba8a7" d="M83 99.4l-4.8-.7-1.4-.1c-1.6 0-1.9-.3-2.3-1.8-.1-.6-.3-1.2-.3-1.9.6-.2 1.2.1 1.8.2 1.1.1 2.1-.2 3.1-.6.2-.1.2-.2.2-.4.8-.6 1.8-.7 2.7-1l.4-.1c.6-.1.8.3.6.8-.2.6-.3 1.2-.1 1.8.1.4-.1.6-.5.7h-.7l-3-.4c-.3 0-.7-.2-.8.2-.1.4.3.7.6.8.6.2 1.3.2 1.9.3.5.1 1.1.1 1.6.3.9.1 1.1.9 1.4 1.5.2.5-.2.5-.4.4z"/><path d="M9.5 38.8l5.3-.8c3.2-.3 6.4-.6 9.7-.5 1.9.1 3.8-.1 5.7.4h1c.1.8 0 .8-1.1 1.2-1 .2-2.1-.1-3.1-.1h-7.9a54.2 54.2 0 0 0-9 .8c-.2-.1-.1-.4-.4-.5-.4 0-.4-.3-.2-.5z" class="st14"/><path fill="#2d2d2d" d="M38 77.2c2 0 3.9-.3 5.9-.6h.9c.6.2 1.3.1 1.9-.1.4-.1.9-.3 1 0 .2.4-.4.6-.7.8-.8.5-1.7.6-2.5.8v.2c-.1.3-.3.3-.6.3-1.2-.1-2.3.2-3.5.3l-3.7.2c-1.4.1-2.9.2-3.8.1l5.9-.2c.2.1.2.2.1.3l-.7.6c-.6.1-1.2.2-1.8-.1-.8-.3-1.6-.3-2.4-.4-1.5-.1-3 0-4.5-.2 0-.5.4-.4.6-.4 1.7-.3 3.4-.4 5.1-.8.8-.2 1.6-.4 2.4-.9l.4.1z"/><path d="M21.5 79.3c-3.7-.1-7.3-.5-10.9-1.6-1.9-.6-2.6-2.2-2.9-3.9-.6-4.1-1-8.1-1-12.3l.1-7c-.1-.4-.6-.6-.8-1l.1-.4c.5.1 1 .2 1-.6.4.2.4.5.4.7-.1 2.8-.4 5.5-.3 8.3.2 4 .3 8 1 12 .3 1.9 1.3 3.3 3.3 3.6a57 57 0 0 0 10.8 1.4h3.2c2.5 0 5-.3 7.4-.7 1-.2 1.9-.2 2.9-.5l.5.1c0 .6-.5.5-.8.6l-5.7.9c-2.6.4-5.3.2-7.9.2l-.4.2z" class="st16"/><path fill="#cac9c9" d="M49.8 73.4l7.1-.6 9.2-.8 2.7-.3c.3 0 .7-.3.9.2-.1.4-.5.7-.8 1-1-.4-2-.1-3 0a63 63 0 0 0-4.3.5l-5 .6-4.6.5-2.4.3c.1-.6 0-1 .2-1.4z"/><path fill="#bbbbba" d="M50.3 86.7c-.5 0-.9 0-1.1-.5-.7-.5-.6-1.3-.8-2-.2.5-.6.6-1 .2-.2-.2-.5-.2-.8-.2-1.2.1-2.3.3-3.5 0-1-.3-1.1-.1-1.4.9l-.2.3-.2-.1c-.2-.4-.1-.9-.1-1.3l.1-.8c.4-.6 1-.8 1.7-.7 1.4.2 2.7-.2 4-.2.4 0 .6-.2.6-.6v-.2c.1-.5.6-.9 1-.8.6.1.4.5.4.9.1-1 .8-1.5 1.4-2.2.3-.2.7-.1 1.2-.1-.4 0-.6 0-.6-.3.3-.3.7-.3 1 0-.2.4-.2.7.1 1 .3.3.5.7.5 1.1-.7.4-.8.4-1-.2-.4.1-.2.7-.6.9-.8.4-1.3.9-1.7 1.7-.4.8.1 1.4.5 2.1.1.3.5.6.5 1.1z"/><path d="M47.4 55.9c1.1 1 2.3 1.9 3.5 2.7.3.5.8.7 1.2 1 .7.5.8 1.5.4 2.2v.5c.3.5 0 1.1.3 1.6-.1.4-.4.3-.6.3-.7-.3-.7-.9-.7-1.5.1-1.3-.2-2.4-.9-3.5-.3-.5-.6-.9-1.1-1.2-1.1-.6-2.1-1.4-3.1-2.1L39.8 51a3 3 0 0 0-.7-.5 6.8 6.8 0 0 1-2.9-3.6l-.7-2.3c0-.3-.2-.7-.1-1 .2-.5.3-1 1-.9.5 1 .4 2.1.7 3.1.1.5.4.9.3 1.4.2.7.7 1.3 1.2 1.9.7.8 1.6 1.3 2.4 2l6.4 4.8z" class="st14"/><path d="M85.9 71.9c.5.3.6.8.6 1.3l.2 3.2.1 1.7c0 .7-.3.9-.9.7l-.8-.2c-1.1 0-1.8-.7-1.8-1.8s-.2-2.1 0-3.2c.1-.5.2-1 .7-1.3.6 0 1.2-.2 1.9-.4z" class="st10"/><path fill="#c5c5c5" d="M51.9 79c-.3 0-.7-.1-1 .1-.2.2-.4.2-.6.1l-.1-.2.1-.6c0-.4-.2-.6-.6-.5l-1.4.3c-.5.1-1.1.3-1.4-.3l1.2-.6c.6-.1 1.3-.3 1.8-.1 2.4.7 4.5-.6 6.8-.7l1.1-.1v.2c-.5 2-.8 2.2-2.8 2.3-1-.2-2.1 0-3.1.1z"/><path fill="#d5d2d3" d="M83.3 93.1c.5 0 .7.4.9.7.3.3.6.2.7-.2.2-.6.6-1.1 1-1.6.2-.2.2-.5.5-.4.3.1.2.4.2.6.4 2.1 0 4.2-.2 6.3-.1.5.1.8.4 1.1a3 3 0 0 1-1 .2c-.2-.1-.3-.3-.3-.4-.5-2.1-1.3-4.1-2.3-6.1l.1-.2z"/><path fill="#bebab9" d="M83.3 93.1c1 1 1.2 2.5 1.7 3.7.4 1 .7 2 .8 3-.2.1-.4.2-.6.1-.7-.3-1.5-.4-2.3-.6.1-.1.5 0 .3-.1-.5-.5-.6-1.3-1.3-1.5.2-.2.5-.2.7-.1.2 0 .5 0 .6-.3.1-.3-.1-.5-.4-.6-.3-.2-.7-.1-1.1-.3-.1 0-.2-.1-.2-.3h.8c.3 0 .4-.2.3-.4-.4-.7-.1-1.3.1-1.9.2-.7-.1-.6-.5-.5-.1-.1-.2-.2-.1-.3.2-.2.4-.1.6 0l.6.1z"/><path fill="#d6d4d4" d="M42.4 97.9c.3-.4.7 0 1 0 2 0 4 0 5.9-.4.4-.1.8-.2.9.4-.5 1.8-2.1 1.7-3.5 1.9-.6.1-1.3.2-2 0-.6-.2-1.1-.3-1.3-1 0-.5-.6-.5-1-.9z"/><path d="M50.3 86.7c-.4-.6-.9-1.1-1.2-1.8-.4-.9-.3-1.6.3-2.2l1-1.1c.3-.3.3-.1.3.1.3.3.2.7.2 1 0 .3-.1.6.1.9.2.4.2.9.8.4.2-.1.5-.1.7.1l-.3 1c-.1.6.2 1.2-.4 1.7-.6.5-1 .5-1.4-.2.1.1 0 .1-.1.1z" class="st23"/><path fill="#d3d3d3" d="M9.5 38.8c0 .3 0 .5.3.6.3.1-.1.2-.1.3-.2.3-.5.3-.8.4L5 41c-1.3.4-2.3 1-3 2.2l-.3.3c-.5 0-.5-.5-.7-.7a3.6 3.6 0 0 1 2.4-2.5c1.9-.9 4-1.3 6.1-1.5z"/><path fill="#c0c0bf" d="M41 86.4c0 .3-.2.5-.6.5-.5 0-.7.2-.5.7.2.7 0 1.4-.2 2.1-.3-.9-.1-1.8-.1-2.7 0-.6.6-.3 1.1-.5-1.4-1.4-2.3-2.9-1.9-4.9 1.3.3 1.9 1.3 2.4 2.4.1.5 0 1 .2 1.4.1.4-.2.7-.4 1z"/><path fill="#bdbbbc" d="M52.2 64.1c.2 0 .5.1.7-.2.3.2.6.2.9.2h5.9c3-.2 5.9 0 8.9-.2l2.9-.1c.3 0 .5-.1.8.1-.2 0-.4 0-.5.3h-2.6c-4-.1-8 .2-12 .2-1.4.2-2.8.2-4.2.1-.3 0-.7.1-.8-.4z"/><path fill="#939392" d="M41 84l-.4-.5c-.2-.6-.5-1.2-1.3-1.3-.2 0-.4-.4-.5-.5-.3-1.1-.7-1.3-1.8-1.3-.5 0-1.1.1-1.5-.4-.3-.4-1 0-1.4-.3 1 0 2-.1 3 .4.4.2.8.1 1.2-.1.5-.2.8 0 1.1.3l1.9 2.3.1.6c-.3.2-.1.5-.4.8z"/><path fill="#706861" d="M52.5 84.2c-.3.1-.8-.1-1 .4-.1.2-.3 0-.4-.2-.2-.5-.5-1-.4-1.7v-1l.2-.8c.1-.2.4-.5.7-.4.4.2-.1.4-.1.6.3.1.6-.2.9-.1.2.3.4.7.4 1.1.1.3 0 .6-.3.9-.4-.2-.2-.7-.4-.9-.4.7-.3 1.1.4 1.3l.2.4-.2.4z"/><path fill="#a3a2a3" d="M6.2 53.6c.3.3.8.4.6.9l-4.4-2.8a4.3 4.3 0 0 1-2.3-4.3v-.8c.3-.1.5.1.7.3.2.7.1 1.4.3 2 .2.6.4 1.2.9 1.6 1.2.9 2.3 1.8 3.7 2.5.3.2.5.4.5.6z"/><path fill="#e8e7e8" d="M82 72.8c0 .2-.1.4-.4.4-2 .1-4.1.3-6-.6-.8-.4-1.7-.7-2.6-.8.4-.5.9-.6 1.5-.3 1.7.8 3.5 1.2 5.3 1.4.8.1 1.5-.2 2.2-.1z"/><path fill="#aeaba9" d="M75.6 92.8h.6c.1.5-.4.6-.6.9-.2.3-.2.5.2.5h1.4c.2.1.4.1.4.3-.9.6-1.9.2-2.9.2a2 2 0 0 1-1.1-.3c-.6-.3-1.5-.3-1.6-1.3.6-.2 1.2-.1 1.7-.2.7-.2 1.3.1 1.9-.1z"/><path d="M21.5 79.3c.2-.2.4-.1.6-.1 2.3 0 4.5.1 6.8-.2 2.4-.2 4.7-.5 7-1 .2-.1.5-.1.6-.4l.1-.1c.3-.1.5-.3.9-.3l.3.2c-1.2 1-2.7 1-4.2 1.3l-3.9.5-.3.2c-2.6.1-5.3-.1-7.9-.1z" class="st3"/><path fill="#e1e1e1" d="M56.9 1.9c-.3-.5-.1-1-.1-1.5 0-.3.1-.4.4-.4h.5c1.5 0 1.7.3 1.2 1.8l-2 .1z"/><path fill="#2b2626" d="M73.7 94.4c1.3.1 2.7.3 4 0 .5-.3 1-.5 1.6-.2l.4.1c.1.2-.1.2-.3.3-1.4.7-2.9.9-4.5.5l-.8-.2-.4-.5z"/><path fill="#b7b6b7" d="M.8 47l-.6-.3c0-1.3.3-2.6.8-3.8.5 0 .4.4.6.6.2.2.1.3.1.5-.3.8-.4 1.5-.5 2.3-.1.3-.1.5-.4.7z"/><path fill="#bab9ba" d="M30.1 38.9c.5-.2.9-.3 1-1 .7-.1 1.4.2 2.1.3l.4.5c-.2.3-.7.2-.9.5-.9.3-1.8.3-2.6-.3z"/><path d="M69.2 64.3c.8-.3 1.7-.2 2.6 0v.2c-.9-.1-1.8.1-2.6-.2z" class="st5"/><path fill="#b9b9b9" d="M66.8 2.1c-.6 0-1.2.1-2-.1.8-.3 1.4-.1 2-.2v.3z"/><path fill="#aca9a5" d="M52.6 83l.3-.8c.2.6.2 1.1-.2 1.6l-.2-.3c-.1-.2-.1-.3.1-.5z"/><path fill="#a9a9a9" d="M56.9 1.9c.6-.3 1.3-.1 1.9-.2v.2c-.6 0-1.3 0-1.9.2v-.2z"/><path d="M77.2 94.3h-1.6c-.5 0-.5-.1-.4-.6.2-.5.7-.6.9-1 2.2-.4 4.4 0 6.6.1-.2.1-.6-.3-.5.3h-.3l-2.1.1c-1 0-1.9.4-2.6 1.1z" class="st39"/><path fill="#b8b7b8" d="M75.8 78.8c.7-.1 1.2-.5 1.8-.8.7-.4 2.3.1 2.6.8.4.8.4.9-.5 1.3 0 .1 0 .3-.2.3-.3-.8-1.1-1-1.8-1.2-.7-.1-1.4 0-1.9-.4z"/><path fill="#201f20" d="M73.1 80.9l-.1-.1c-.2-.9.1-1.2.9-1.1.9.2 1.9.1 2.8 0 .5-.1 1 0 1.5-.2.9.1 1.1.3.6 1-.3.2-.5-.1-.8-.2-.1 0-.3-.1-.3.1l.1.2-.6.2c-1.4.3-2.8.3-4.1.1z"/><path d="M76.7 80c-1 .3-1.9.2-2.9.1-.8-.1-1-.1-.9.8-.1.1-.2 0-.2-.1-.1-.8.4-1.1 1-1.4a8 8 0 0 1 2.1-.5c1 0 2 .1 2.9.5.5.2.8.5.7 1.1l-.6.2c.3-.7-.1-.9-.7-.8a7.3 7.3 0 0 0-3.6 0c.7 0 1.5-.4 2.2.1z" class="st42"/><path d="M73.1 80.9h4.2c-.7.4-1.4.1-2.2.2h-1.7c-.2 0-.3 0-.3-.2z" class="st10"/><path d="M77.9 80.8c-.2-.2-.5-.1-.7-.2.6-.4.7-.4 1.6.1l-.9.1z" class="st42"/><path d="M75.6 92.8c-.6.3-1.2.1-1.8.1.6-.3 1.2-.1 1.8-.1z" class="st39"/><path d="M41 86.4c-.1-.4.3-.6.3-1l.1-.3c.1-.4-.2-.9.2-1.1.4-.2 1-.2 1.4 0 1.2.4 2.4.1 3.6-.1.3 0 .4 0 .6.2.2.2.3.5.6.4.3-.1.3-.4.3-.8l.1-.3c.2 1 .3 1.9.8 2.8 0 .3 0 .9-.5.8-.4 0-1 .3-1.1-.5 0-.3-.2-.2-.4-.1-.8.4-1.6.3-2.5.2l-2.4-.1c-.4 0-.8.1-1.1-.1z" class="st23"/><path d="M37.8 77.4c-.1 0-.2 0-.3-.2l.1-.4c1.2-1.3 1.4-3 1.6-4.6l.7-8.1c.2-2.7.1-5.4 0-8.1l.1-1c.3-1 .3-1 .2-1.8 0-.1-.1.1 0 0 0 .3.1.5-.1.8-.5-.6-.7-2.5-.4-3.1l.3-.1c3.2 2.4 6.5 4.7 9.6 7.2-.7-.1-1.2-.7-1.9-.7h-.4l2 1.5c.7.5 1.1 1 1 1.9-.1 1.4.1 2.8-.3 4.1V66c-.7 1.9-1 2.1-3 2.1a1 1 0 0 1-.7-.3c-.3-.4-.7-.4-1.1-.2a2 2 0 0 1-1.8.2c-.5-.2-1.1-.1-1.7-.1-.5 0-.7.5-1 .8-.8.9-1 2-1.1 3.1-.1 1.4-.4 2.7-.7 4.1-.1.7-.7 1.1-1 1.6l-.1.1z" class="st43"/><path d="M41 82.4c-.8-.5-1.1-1.5-1.9-2.1-.3-.3-.6-.5-1-.5.2-.3.5-.4.8-.6 1-.4 2-.4 3-.5.6-.1 1.2-.4 1.9-.2l.5-.1h.8c.2.4-.1.5-.3.7-.2.2-.6.2-.6.6.4.6 1 .1 1.4.3.2.3.4.6.2.9-.2.3-.5.3-.8.2l-.2-.1c-1.3-.1-2.4-.9-3.6-.8-.5 0-.6.1-.3.6.6.6.6 1 .1 1.6z" class="st44"/><path fill="#cdcbcc" d="M52.2 64.1c.6.4 1.3.3 2 .3h3c-.8.3-1.7.3-2.6.3-1.2 0-2.5.2-3.7-.2-.5-.1-.1.6-.4.6l.2-5.9c.8.6 1.1 1.4 1.1 2.3v1.8c0 .4.1.6.4.8z"/><path fill="#888887" d="M45.2 80.9c1.1 0 .6-.6.4-1.1-.5.1-1.1.1-1.6-.2-.2-.5.3-.5.5-.6.2-.2.6-.2.6-.6.3-.1.6-.3 1-.3v.5c-.1.6.2.8.8.7.4-.1.7-.2 1.1 0 .4.4.1.7-.2.8l-.8.1c.4.9.3 1.2-.7 1.5-.8.2-1.6.4-2.4.4-.7 0-1.4 0-2 .4h-.5c-.2-.2 0-.3 0-.5.8-.8 1.8-.8 2.8-1l1-.1z"/><path fill="#dbdbdb" d="M48.1 79.3l-.9.1c-1.2.2-1.4-.1-1-1.3l.8-.2c.9.5 1.8-.2 2.6-.2.3 0 .7-.4.9.1.2.5.3.9-.2 1.3-.7.4-1.5.5-2.2.2z"/><path d="M42.8 68.8c-.1.5-.3.9-.9.9-.5 0-.7-.4-.7-.8 0-.5.4-.8.9-.8s.6.3.7.7z" class="st43"/><path d="M58.1 12.9c.4.7.5 1.4.6 2.1l.8 7v.3c.2 5.9.2 11.8.2 17.7l-.2 1.5c-.1.5-.5.8-1.1.6l-.3-.1c-1.4-.3-1.3-.4-1.5-1.8-.2-1.8-.1-3.6 0-5.3 0-3-.1-6 .1-9 .1-2 0-4 .3-6l.8-6.1c-.1-.3 0-.6.3-.9z" class="st48"/><path fill="#ececec" d="M52.6 62.3v-.5h19.6v.3c-6.6.2-13.1.3-19.6.2z"/><path fill="#dcdbdc" d="M37.5 47.1a3 3 0 0 1-.5-1.3c0-.3.2-.3.4-.4 2.2-.5 4.3-.8 6.6-.6l3.2.2c2.5.1 5 .3 7.5.7-3.1-.6-6.1-1.3-9.1-2.2-1.8-.5-3.5-1.2-5.4-1.3-1.3-.1-2.6-.5-4-.4-.4-.2-.5-.5-.4-.9.2-.1.5-.2.8-.1 1.8.6 3.7.7 5.6.9 1.5.2 2.8.8 4.2 1.1 3 .8 6.1 1.1 9 1.8 2.5.6 5 1.2 7.5 1.5a41.5 41.5 0 0 1 8.8 2.2c.4 1.3.4 1.4-1 1.3-2.6-.1-5.2-.5-7.7-.9l-7.5-1.1-7.2-.8c-3.5-.4-7-1-10.4.2l-.4.1z"/><path d="M66 11.7c.5 1.5.6 3.1.8 4.6l.6 5.5.2 3V33l.1 7.3c0 1.2-.2 2.3-.3 3.5-.1.8-.6.9-1.3.8-1.5-.3-1.7-.6-1.8-2.2-.1-1.4-.2-2.8-.1-4.1.2-2.9 0-5.8.1-8.6.1-2.2 0-4.5.2-6.7l.7-7.2.8-4.1z" class="st9"/><path d="M30.1 38.9l2.5.4.8.5c-.2.6-.8.6-1.3.7-1.1.1-2.2-.1-3.3-.2-2.8-.3-5.5.1-8.2.4-.7.1-1.2.7-2 .7l-2.9.1c-4-.1-7.3 1.8-8.7 6-.3.8-.4 1.7-.6 2.6-.2 1.1-.3 2.2-.7 3.3-.5 0-.7-.4-1.1-.6-.6-.4-1.1-.9-1.8-1.2a4.3 4.3 0 0 1-2.1-4.2v-.3c.2-1.2.3-2.4.8-3.5a4.4 4.4 0 0 1 3-2.5l5.1-1.2 5.5-.7c4.3-.4 8.7-.5 13-.2l2-.1z" class="st51"/><path d="M6.3 50c.4-1.3.4-2.7 1.1-3.9 1.2-2.2 2.8-4 5.4-4.5 1.3-.3 2.5-.5 3.8-.3.9.1 2.1.1 2.8-.4 1.4-.8 2.8-.7 4.2-.9 1.4-.2 2.9-.3 4.4-.2l3.6.3c.7.1 1.3 0 1.9-.5.6.3.9.8 1.3 1.3.6.3.7.8.6 1.4-.2.4-.5.4-.8.3l-3.2-.3c-.9-.2-1.7-.1-2.6-.1-.3 0-.7.1-.9-.3-.1-.1.2-.3 0-.3a73.2 73.2 0 0 0-16.3 1.9h-.1c-.3 0-.7.2-.8-.1-.1-.3.3-.4.6-.5 1.7-.5 3.5-.9 5.2-1.2.2 0 0-.2.1-.1l-.1.1c-1.5.2-2.9.6-4.4.9-2.8.6-4.2 2.4-4.5 5.2-.1.7-.1 1.5-.3 2.2-.1.7.3 1.2.3 1.8 0 .3.1.8-.4.9v-.2c0-.1-.1-.2-.1 0-.1 1-.5.8-1 .2-.4-.8.1-1.5.1-2.3.1.1.3-.1.1-.4z" class="st52"/><path fill="#bbbabb" d="M35.3 42.3l-.5-1.3c.4-.5.7-.8 1.1 0 .1.3.1.6.3.8.2.2.4.5.2.8-.4.2-.6.6-.8 1-.7-.3-.2-.9-.3-1.3z"/><path d="M74.9 74.9l.1.8.1.7c0 .3-.1.7-.4.8-.3 0-.4-.4-.5-.6-.3-.8.3-1.6.2-2.4 0-.2.2-.2.3-.1.2.2.3.4.2.8z" class="st54"/><path fill="#9e9a98" d="M73.9 73.8c.4 1.2-.7 2.2.2 3.5-.6-.1-.8-.5-.7-.8.1-.9-.1-1.9.5-2.7z"/><path d="M71.4 80.9l1.5.3c.2 0 .3.1.3.3 0 .2-.2.2-.3.2l-1.4-.2c-.3-.1-.2-.3-.1-.6z" class="st10"/><path d="M81.7 96.2c.4.3.9.1 1.4.3.5.2.6.5.5 1-.1.5-.5.5-.9.4l-.7-.1-3.5-.5c-.5-.1-1-.7-.9-1.1.2-.6.7-.4 1.1-.4l3 .4z" class="st54"/><path fill="#eae9e9" d="M77.2 94.3c.3-.7.8-1.2 1.6-1.2 1 0 2.1-.2 3.1.1l-2.7 1c-.5.1-1 .3-1.6.2l-.4-.1z"/><path d="M43.9 78.5c-1.6.4-3.3.4-4.9.7-2 .2-4.1.1-6.1.1-.3 0-.5.1-1-.2 1.8.2 3.5-.1 5.1-.1 2 0 4.1-.3 6.1-.6.2 0 .5-.1.8.1z" class="st3"/><path d="M7.4 53c.3-.3.1-.6.2-1 .4-1 .3-2.2.4-3.4.1-1 .2-2 .7-2.9.3-.5.6-.8 1-1.1.4-.3.9-.4 1.3 0 .3.3.7.3 1.1.4.5.3.7.8.8 1.3.1.6-.1 1.1-.4 1.6-.3.4-.8.7-1.3.8-.3 0-.5.1-.6.4-.6 1.7-1.5 3.4-1.6 5.2l-.1 2.4c0 1.5-.2 3.1 0 4.6l.3 5.7c.2 1.9.1 3.9.7 5.8 1.4-.7 2.2-.4 2.7.7.6 1.3.2 2.5-1.2 3.1H11c0 .3.6.4.3.8-2.3-.3-3-2.4-3.3-4.1-.4-2.4-.6-4.8-.7-7.2-.2-2.8-.4-5.7-.1-8.5l.2-4.6z" class="st51"/><path d="M11.5 77.4c0-.3-.3-.3-.4-.5-.1-.1-.4-.2-.2-.4.1-.2.3 0 .5 0a40 40 0 0 0 6.7 1.4 64.5 64.5 0 0 0 15.6-.3c.9-.1 1.8-.5 2.7-.5.3.1.5.2.1.5-2.2.5-4.5.8-6.8 1.1-2.2.3-4.5.2-6.7.2a51.6 51.6 0 0 1-11.5-1.5z" class="st57"/><path fill="#353535" d="M6.3 50c.3 0 .3.2.2.4L6.2 53v.5l-.5-.2c0-1.1.5-2.1.6-3.3z"/><path fill="#a0a09e" d="M48.1 79.3l2.2-.2v.4c-.6.9-1.3 1.6-1.5 2.7-.3-.3-.2-.5-.1-.6.1-.2.2-.5 0-.7-.2-.2-.4.1-.6.2-.3.1-.3.3-.3.6.2.9 0 .9-.8.9-.5 0-1-.1-1.4.1-.9.3-1.7 0-2.6 0-.6 0-1 .1-1.5.5-.2-.3-.2-.5 0-.8 1.5-.7 3.1-.4 4.6-.8h.1c.4-.1.9-.2 1.1-.5.2-.4-.4-.6-.6-1 .3-.2.7 0 1-.1.2-.1.5-.2.4-.7z"/><path d="M41.4 82.4V84c-.5-.2-.1-.7-.3-.9v-.6c.3-.7.3-1.3-.2-1.8-.1-.1-.4-.4-.3-.6.1-.2.4-.1.7-.1.8 0 1.5-.1 2.2.5.4.3 1 .1 1.5.1.4 0 .6.1.4.5-.2.2-.5.5-.8.1-1.1-.3-2.2-.3-2.9 1-.2 0-.3.1-.3.2z" class="st60"/><path d="M41 83c.3.3 0 .7.3.9v1.5c-.3-.4-.3-.9-.3-1.4v-1z" class="st44"/><path fill="#686868" d="M50.3 79.5v-.3l.6-.1c.2 0 .4 0 .5.3l-1.1.1z"/><path d="M35.3 42.3c.3.4 0 .9.3 1.3l.2.9c-.3.9-.1 1.8.7 2.4a6.3 6.3 0 0 0 2.9 3.5c.3.8.2 1.6.3 2.4.3 1.6.2 3.3.3 4.9 0 .2 0 .5-.2.6-.3.1-.3-.2-.4-.4a6 6 0 0 0-1.2-2c-.6-.6-.7-1.4-1.1-2.1l-1.4-2.3c-.4-.6-.6-1.1-.5-1.9.2-1.9-.3-3.6-1.9-4.9l-.8-.4c-1.5-.4-2.7-.1-3.7 1.1-.3.3-.5.7-.9.9-1.1-.1-2.2-.4-3.4-.4-1.3.1-2.6.1-3.8.6-.5.2-.8.1-1.1-.3l-1.1-1.1c-.3-.9-.1-1.4.8-1.6l4.4-.8c1.2-.2 2.4.1 3.5-.4s2.2-.6 3.3-.3c.3.1.6-.3 1-.1 1.1-.1 2.2.1 3.2.3.2.4.5.5.6.1z" class="st62"/><path fill="#d7d5d6" d="M36.4 42.6l-.2-.8c.4-.2.8-.2 1.2-.1 1.4.3 2.9.3 4.3.6l1.8.4c1.8.7 3.8 1 5.7 1.6 1.2.4 2.4.6 3.7.7.9 0 1.7.7 2.6.8-.8.3-1.7.1-2.5 0l-5.8-.5-3.8-.3a13 13 0 0 0-4.8.4c-.5.1-1.1.1-1.6.4-.4-1-.4-2.1-.6-3.2z"/><path d="M39.4 57.8l.2.5-.1-4.3c-.1-1.2-.4-2.4-.2-3.6l.6.5c-.4.3-.2.8-.2 1.1 0 .6.1 1.3.3 1.9v-1.1c.2.9.4 1.8.3 2.7-.3-.1 0-.4-.2-.6l-.1.1c-.1 1.4.1 2.8.1 4.1.1 3.5-.2 7-.5 10.4-.1 1.6-.4 3.1-.7 4.7a5.6 5.6 0 0 1-1.6 2.9c-.3.1-.6.4-1 .3 0-.1.2-.2 0-.3-.1-.2 0-.4.1-.5.5.1.8-.1 1.1-.5.5-.9 1.1-1.8.8-2.9.5-2.7.8-5.4.8-8.2 0-1.2.2-2.3.3-3.3 0 .8-.6 1.4-1.1 2.1-.7.8-.8 2-1.4 2.9-.3.5-.4 1-1 1.2-.5-.2-.2-.6-.1-.8l.8-1.4c.3-.7.3-.7-.5-.7-1.7 0-3.1-.5-3.8-2.1-.5-1-.5-2.2-.5-3.3.1-.4.1-.7.4-1 .2.1.3 0 .3-.2.1-.2.2-.5.5-.5.3.1.6.3.6.6 0 .8.2 1.6-.3 2.3l.2.8c.1.5-.1.6-.6.5.2.6.6 1 1 1.4l.2.1c.7.5 1.4.7 2.2 0l.2-.1a2 2 0 0 0 1.3-.9l.7-1.3c.4-.9.4-1.8.4-2.7V58c.3 0 .4-.1.5-.2z" class="st16"/><path d="M36.4 46.9c-.6 0-.8-.5-.9-.9v-1.3c0-.2.2-.1.3-.1.1.8.4 1.5.6 2.3z" class="st64"/><path fill="#fcfcfc" d="M84.9 75.6c.3-.3.1-.7.2-1.1 0-.2 0-.4.2-.5.2-.1.5.2.5.3 0 .9.5 1.8.4 2.7 0 .3-.2.7-.5.7-.4 0-.4-.3-.6-.6-.3-.3-.2-.9-.2-1.5z"/><path fill="#aca7a8" d="M84.9 75.6c-.5.6-.4 1.2 0 2.2-.3 0-.4-.2-.5-.3-.4-.5-.2-2.8.5-3.4v1.5z"/><path fill="#28201b" d="M52.6 83l-.1.4c-.3.2-.5.5-.6-.1-.2-.6-.1-1.1.2-1.6l.2-.1.3 1.4z"/><path fill="#9f9f9e" d="M76.7 80h-2.6c.8-.8 3-.9 4-.2-.4.3-.9.1-1.4.2z"/><path fill="#8d8883" d="M47.5 85.5l.7.9c.1.1.3.2.1.4-.1.1-.4.1-.4-.1-.2-.3-.5-.6-.4-1.2z"/><path d="M44.1 79.6c.5.1 1.1-.2 1.6.2-.7.7-1.2.2-1.6-.2z" class="st60"/><path fill="#7d7c79" d="M41.5 82c.2-1.3 1.5-1.7 2.9-1-1 .3-2 .5-2.9 1z"/><path d="M66.1 16.2c.4 1.1.4 2.2.6 3.3.4 2.8.4 5.6.5 8.3.2 4.3.1 8.5.1 12.8l-.2 2.2c0 .3-.1.6-.5.6-.5 0-1.2.2-1.5-.4-.2-.4-.4-.9-.4-1.5v-6.8c.2-2.9 0-5.7.2-8.5.1-2.3.2-4.6.6-6.9l.2-2c0-.4.1-.7.4-1.1z" class="st48"/><path d="M12.2 45c-.5 0-1.1 0-1.4-.5-.2-.3-.5-.1-.7 0-1.1.7-1.5 1.7-1.7 2.9-.2 1.3.1 2.6-.4 3.9-.1.2-.1.5-.4.6-.6-2 0-4 .5-5.9a4 4 0 0 1 2.9-3c1.8-.6 3.6-.9 5.5-1.3.3-.1.5 0 .8 0-2.1.6-4.3.8-6.3 1.8a53.6 53.6 0 0 1 18.1-1.9c-.4.3-.8.2-1 .3-.3.3-.7.2-1.1.2-.9 0-1.8-.1-2.7.1-2.3.4-4.6.4-6.9.9l-2.7.6c-.6 0-1.2.3-1.8.4-.8.1-1 .4-.7.9z" class="st51"/><path d="M26.8 42h1.1c.7.3 1.4.1 2.1.2.5.1 1-.1 1.4.2-.6.5-1.1.3-1.8.2-.6-.1-1.3-.4-1.9.4-.2.3-1 .4-1.4.3-.5 0-1.1.1-1.6 0-.4-.1-1 .2-1.5.3-1.4.1-2.8.4-4.2.7-.7.1-.7.7-.6 1.3-.3.1-.6-.1-.9-.2-.3-.2-.8-.2-.7-.7.1-.6.3-1.2 1-1.3.8-.1 1.6-.4 2.4-.2.3.1.7 0 1-.2.1-.1.2-.2.3-.1 1 .2 1.9-.5 2.9-.4.3.1.5-.2.7-.2.7-.3 1.2-.1 1.7-.3z" class="st71"/><path d="M17.8 41.8a27 27 0 0 1 6.3-.6l-6.3.6z" class="st51"/><path d="M36.7 76.7l-.2.5c-2 .5-4 .8-6 1l-4.1.3c-4.5-.2-9-.2-13.4-1.4-.6-.2-1.2-.1-1.6-.7 1.7-.5 1.8-2.5.8-3.5-.7-.7-1.1-.7-2.3.3A82.3 82.3 0 0 1 9 61c.4.3.4.8.5 1.2.3 1 .5 1.4 1.4 2-.4-1-1.1-1.9-.1-2.9.5.2.3.8.6 1.2.2.4.4.9.7 1.2.4.4.8.8 1.5.3l.4-.1c.6.1.9-.3 1.4-.5.4-.1.5-.5.7-.8.1-.2.2-.4.4-.3.2 0 .3.2.3.4a9.2 9.2 0 0 0 1.3 2.9c.1.2.4.4.1.7-.1.2-.3.1-.5.1-1.4-.5-2.5 0-3.5 1-2.1 2.1-1.5 6.2 1 7.7 1.2.7 2.5.6 3.3-.4l.2-.4a5.8 5.8 0 0 0 1.2-4.9l-.1-.8c.1-.4-.4-.8-.1-1 .4-.3.7.2 1.1.4l2.1.6c1.6.4 3.1-.1 4.5-.9.2-.1.5-.2.7 0 .2.2 0 .5-.1.7-1 1.9-.6 5 1.2 6.5 1.3 1.1 3.3 1.2 4.5 0 .3-.3.5-.7.9-.9.6.2.6.6.3 1.1-.2.3-.6.7-.4.9.3.3.8.4 1.2.2h.2c.4.1.7.1.8.5zM25.1 42.2c-.2.4-.5.6-.9.3l-.2-.1c-.6 0-.9.8-1.3.6-.5-.3-.9-.3-1.3-.1-.5.3-.9.2-1.4.2-.8 0-1.6 0-2.4.2-.5.1-.6.8-.6 1.3 0 .3.5 0 .6.4l-.3.2-.9-.1c-.3-.2-.5-.7-1.1-.4-.5.2-.5.6-.5 1.1l-.8 1a6 6 0 0 0-1 3.7c-.2.9-.6 1.7-1.2 2.4-.2.2-.1.4 0 .6 0 .4-.1.8-.5 1-1.1-.5-1.4-.3-1.5.9 0 .6.2 1.1.3 1.6 0 .2-.1.3-.3.4-.5.1-.3.4-.3.7-.1.3 0 .7-.5.9-.4-.7-.1-1.5-.1-2.2l.1-3c0-.5.2-.9.6-1.1.7-.5 1.2-1.2 1.5-2l1.4-2.9c.1-.5.4-1 .3-1.6-.1-1.2.5-2 1.4-2.6 3.2-.9 6.5-1.1 9.8-1.5.4-.1.8-.1 1.1.1z" class="st72"/><path fill="#1b1b1b" d="M12.5 47.8c.1.6-.3 1-.5 1.4-.5 1-.7 2.1-1.5 3l-.2.2c-1.5.6-1.1 1.9-1.2 3L9 57.8c0 .4-.2.8.1 1.1.4.7.1 1.4-.2 2.1l-.2.2c-.2-1.6 0-3.2 0-4.8 0-1.4 0-2.9.4-4.3.2-.9.8-1.7 1-2.7.1-.7.4-1.3 1.3-1.2.5.2.8-.3 1.1-.4z"/><path d="M14.3 43.6c-.4.6-.9 1-1.2 1.7-.1.3-.3.5-.3.9-.2-.4-.3-.8-.6-1.1-.1-.3-.6-.3-.5-.6.1-.4.5-.4.9-.4.5-.2 1-.6 1.7-.5z" class="st52"/><path d="M17.3 45h.3l.8.3.4.3c.8 1.2 1.8 1 3 .7a12 12 0 0 1 5-.2c.4 0 .7.4 1.1.3.1.2 0 .3-.2.4-1.3-.1-2.7-.4-4-.3l-2.5.4c-.4.1-.6.2-.5.6.4 1.5.3 2.9-.2 4.4.3.2.5 0 .7 0l.4.2c0 .4-.3.4-.5.5-1.9.8-3 2.3-3.7 4.1-.1.4-.1.9-.6 1.1l-.2-.1c0-1.3.7-2.3 1.3-3.2-1.2.5-2.4.5-3.4-.5 0-.4-.7-.6-.5-1.1.4-.1.6.2.8.4l1.1.7c.5.1.9.4 1.3-.2l.6-.3c.4-.1.7-.3.9-.6l.3-.3.5-.7c.5-1.1.9-2.3.6-3.5-.2-.9-.7-1.7-1.5-2.2-.6-.6-1.4-.4-2.1-.7.1-.6.6-.2.8-.5z" class="st74"/><path d="M27.7 46.8l.2-.3c1.1-1.9 2.5-2.5 4.6-2.1 0 .4-.3.3-.5.4l-1.1.2a4.9 4.9 0 0 0-2 6.9l.2.1.9.8.4.4c.4.6 1 .3 1.5.3.3 0 .7-.2.8.1.1.4-.4.4-.7.5-.6.2-1.3.2-1.9-.1l-1.1-.5c-2-1.6-2.3-4.3-1.7-6.3l.4-.4z" class="st64"/><path fill="#242423" d="M31.8 44.6c.2-.1.5.1.7-.2 1.8.5 2.9 2.7 2.9 4.1 0 .6.1 1.2-.1 1.8-.1.4.2.8.4 1.2l1.4 2.2c.5 1 .8 2.1 1.7 2.9.3.3.5.8.6 1.2l-.1.2-.4-.3c-.7-1.2-1.6-2-3-1.9-.2 0-.4 0-.5-.2 0-.4.4-.2.5-.3-.6 0-1 .2-2.2.8-.2.1-.6.6-.8-.1.5-1 1.9-1.7 3.2-1.5l1.1.2c-.5-1.1-1-2.2-1.9-3.1-.4-.4-.6-.9-.7-1.5.1-.8.3-1.7.1-2.5-.1-1-.6-1.7-1.4-2.3a2 2 0 0 0-1-.5c-.1.1-.4.1-.5-.2z"/><path fill="#424242" d="M36.1 76.3c-.5.5-1.1.1-1.6 0-.3 0-.2-.2-.2-.4l.4-.8c.4-.4.3-.7 0-1.1a.3.3 0 0 1 0-.4c.7-1.1.6-2.3.7-3.5h-.1c-.2-.1-.2-.3-.2-.5l.1-.8c.1-.4.4-.7.8-.8 1-.8 1.3-2 1.7-3.1.2-.4.3-.9.6-1.2a5 5 0 0 0 1.3-2.2c.1 2-.1 3.9-.2 5.8l-.4 4c-.1.7 0 1.5-.5 2.1h-.2c-1.4-.8-2.1-.6-2.8 1-.1.4-.3.9.1 1.2.4.2.6.4.5.7z"/><path fill="#404040" d="M36 68l-.6.8c-.4.1-.5-.2-.6-.5-.3-.4-.5-.8-.9-1.1-.9-.9-2-1.3-3.3-1-.3.1-.8.4-.9-.3.8-1 1.1-2.4 1.6-3.5.1-.2.1-.5.3-.5.2 0 .3.3.4.4a4 4 0 0 0 1.3 1.6c.8.7 1.7 1.1 2.8.9l.3.1c.3-.1.7-.3.9 0 .2.2-.1.5-.2.8-.2.8-.9 1.4-1.1 2.3z"/><path fill="#5c5c5c" d="M39.1 57.7l.2.3.1.5c-1.1.5-1.5 1.1-1.4 2.3l.1 1.2c-.1.2-.3.3-.5.3l-.3-.1c-.2-.4-.3-.8-.2-1.3 0-.4 0-.7-.4-.9-.3-.2-.6-.4-.9-.2-.3.1-.2.5-.2.7v1.7c-.4.2-.8 0-1.2 0l-.2-.1c-.4-.4-.4-.9-.6-1.3v-.3c.4 0 .4-.2.4-.5l.1-1.2c0-.4-.2-.5-.4-.6-.3-.1-.3.2-.4.4-.1.1 0 .7-.3.1-.1-.8.3-1.5 1-1.8.8.4 1.1 1 .6 1.9-.2.3-.2.7-.1 1.1 0 .2.1.3.3.4.2 0 .3-.2.3-.3.2-.7.6-1.1 1.1-1.6.8-1.2 1.4-1.3 2.9-.7z"/><path d="M36.1 76.3a2 2 0 0 0-.4-.6c-.3-.4-.3-.8-.2-1.3.1-.9.6-1.4 1.4-1.7.7-.3 1.3.1 1.7.7.2.2.4.4.3.7-.2.9-.5 1.7-1.1 2.4-.3.4-.6.7-1.1.2l-.6-.4z" class="st51"/><path fill="#181818" d="M36.5 64.9c-2.4.2-3.5-.5-4.8-2.9-.6 1-.7 2.2-1.3 3.2-.2.2-.3.5-.6.6l-.1-.2.2-.6c1.2-2 1.3-4.2 1.1-6.5 0-.3-.1-.6.1-.9.4.1.4.1.7 1 .2.5-.2 1.1.1 1.7.2-.2.1-.7.6-.6-.1 1 .1 2 .3 2.9a3 3 0 0 0 3.1 2.2c.1 0 .4-.1.6.1z"/><path d="M32.4 59.6c-.5.2-.2.8-.5 1.3-.6-.7-.4-1.5-.3-2.2-.2-.4 0-.7.1-1 .4-.6.5-1.4 1.3-1.6.2.6.5 0 .5 0 .8-.5 1.5-.8 2.5-.7-.2.2-.5 0-.6.3-.5.6-1.1.9-1.8 1.3a4 4 0 0 0-1 1.8c-.2.1-.1.5-.2.8z" class="st80"/><path fill="#919191" d="M38 62c-.6-1.2-.3-2.6.6-3.4.2-.2.5-.3.8-.1.1 1 .1 2.1-.4 3-.4.1-.4 1-1 .5z"/><path fill="#7a7a7a" d="M34.1 62l1.3.2c.6-.1 1.2-.2 1.7 0h.4c0 .5.6.4.8.6-.4.5-.7 1-1.4 1a3 3 0 0 1-2.4-1.1c-.3-.2-.5-.4-.4-.7z"/><path fill="#eaeaea" d="M34.1 62c.6 1 1.6 1.4 2.7 1.8h-.1c-.8.1-1.6.3-2.3-.3-.2-.2-.5-.3-.6-.6-.3-.4-.3-.7.3-.9z"/><path fill="#b3b3b3" d="M34.1 62c-.8.7.1.9.3 1.3.1.3.1.5-.3.3-.6-.5-1.1-1-1.1-1.8.3-.1.4.2.6.2l-.2-1.2c.4.3.5.8.7 1.2z"/><path fill="#bbb" d="M38.3 62.8h-.6c-.5-.1-.5-.3-.1-.6l.5-.2c.4.1.6-.2.7-.5.1-.3.2-.2.2 0-.3.5-.3 1-.7 1.3z"/><path fill="#7c7c7c" d="M34.1 63.6c.3.1.2-.2.3-.3.7.5 1.5.4 2.3.5-.9.5-1.8.6-2.6-.2z"/><path d="M25.1 42.2H24c.9-.3 1.8-.1 2.7-.2-.5.3-1 .1-1.6.2z" class="st52"/><path d="M31.1 57.5l.2 2.4c.1 2.1-.4 4-1.5 5.7-.6.9-1.3 1.6-2.2 2.1-1.4 1-3 1.3-4.6.9-.2-.7.5-.4.7-.6 1.4-.4 2.7-1 3.6-2.2A9.2 9.2 0 0 0 28 55a6 6 0 0 0-5.7-2.8c-.3 0-.5.2-.8-.1-.1 0-.3 0-.3-.2.4-.6 1.1-.5 1.7-.6h2.3a6 6 0 0 1 3.7 2c.9.9 1.6 2 2.1 3.1.1.6.2.8.1 1.1z" class="st80"/><path fill="#171616" d="M27.6 67.8l2.2-2.1v.2c0 .3.2.3.4.2 2.6-.4 3.5.1 4.9 2.3l.3.3c-.1.3.1.6-.2.8l-.3-.2-.2-.5c-.3-.7-.7-1.4-1.4-1.8-1.7-1.1-2.8-.8-4.3.9-.4.5-.6 1-.2 1.7l.1.6c-.3 1 0 2 0 2.9 0 .5.3.9.7 1.2 1.8 1.6 3.6 1.3 4.6-.7.6-.9.9-1.9.9-3 0-.2 0-.5.2-.7.1-.2.2-.3.2 0a7 7 0 0 1-.8 4c-.8 1-1.8 1.9-3.1 1.9-1.7.1-2.9-.9-3.6-2.3a6 6 0 0 1 .2-5.9c-.3 0-.5.3-.6.2z"/><path d="M23.7 68.3c-.2.3-.8-.1-.8.5a6.4 6.4 0 0 1-3-1.1c-.2.4.5.6.1 1-.6-.2-.6-.8-1.1-1.1l-.2-.1-.2-.1c-1.4-.9-2.8-.7-3.7.7l-.4.7c-.2.4-.3.7 0 1.1.2.2.2.5.2.8v2c.1.4-.7.2-.4.7.4.6.6 1.3 1.4 1.6.9.5 1.8.7 2.8.2.1-.1.2-.1.4 0-.2.5-1 .9-1.8 1-1.5.1-3-1-3.7-2.6-.8-2-.7-4 .7-5.8.8-1 2.3-1.8 3.8-1.2.1.1.3.1.4 0 .1-.2-.2-.4-.2-.6-.1-.1-.1-.1 0-.2.4 0 .6.3.8.5 1.1 1.3 2.5 2 4.2 2 .3-.2.5-.2.7 0z" class="st57"/><path d="M9 61.1c-.1-.7.2-1.4.2-2.1l.3-1c0-.3 0-.5.3-.6l.3-.3c0-.3.2-.6.5-.7.3 0 .5.3.7.4-.1.4-.4.6-.6.9-.2.4-.3.7 0 1.1.4.6.2 1.3.3 1.9 0 .3 0 .5-.2.7-.4 1-.3 2 .5 2.8v.3h-.6a4.4 4.4 0 0 1-1.3-2L9 61.1z" class="st88"/><path fill="#a3a39f" d="M18.9 67.3c.6.3.8.8 1.1 1.3l.2.8c-.7 1-1.1 2.1-.9 3.3.1.4-.2.7-.7.5 0-1.1-.2-2.3.5-3.4.1-.2.6-.5.2-.8-.3-.2-.8-.3-1.2.1-.3.3-.4.7-.8.7-.9-.1-1 .1-.9 1.2.3 0 .1-.7.6-.4.2.3.1.6.1.8 0 .4-.1.8-.6.8s-.7-.3-.8-.8a6 6 0 0 1 0-1.9V69c-.3-.1-.4.5-.7.2l-.1-.4c.1-.5.5-.9.8-1.2 1-1.2 1.3-1.2 2.8-.7l.4.4c-.5.2-1 .1-1.5.4-.2.1-.4.2-.3.5l.2.2c.3.1.4-.1.5-.3.1-.7.7-.6 1.1-.8z"/><path fill="#bebdb4" d="M18.6 73.2c.4 0 .6-.2.5-.7-.2-1.2 0-2.4 1.1-3.2.5 1.9.1 3.6-1.3 5.1-.2.1-.3.3-.5.3-.8-.1-1.4-.5-1.9-1.1-.2-.2-.5-.5-.3-.8.2-.2.5-.2.8 0 .5.3 1 .3 1.6.4z"/><path fill="#0b0b0c" d="M25 73.9c-.3.4-1.3.7-1.7.4-1.2-.9-1.5-2.7-.6-3.7.8-.9 1.4-.9 2.4-.1.1.4-.1.6-.4.6-.7 0-.7.4-.7 1 0 .3.1.6-.1.9h-.3c-.1-.2-.2-.5-.5-.3s-.2.4 0 .6l.2.3c.1-.3.2-.5.5-.6.1-.1.3-.1.4 0l.2.1c.5.1.6.3.6.8z"/><path fill="#202020" d="M11.2 56.7c-.3-.2-.3.2-.5.2-.3-.1.5-.5-.1-.5-.2-.4 0-.6.3-.7 2.2-.6 3.6-.7 5.3 1.8.1.1.1.3.3.3h.2c.3.3.1.6.1.9-.2 2-.1 3.9.9 5.7.2.3.5.6.2 1v.2c-.8-.9-1.1-2.1-1.5-3.2-.5.3-.4 1.1-1.1 1.1l-.1-.2a6 6 0 0 0 .7-3.2l.1-.9-.2-.8c-.4-.7-.8-1.4-1.6-1.8-.7-.4-1.5-.5-2.2-.1-.2.1-.4.3-.8.2z"/><path d="M25 73.9c-.1-.1-.5.2-.3 0 .5-.7-.3-.4-.3-.6.2-.3.7-.1.9-.6l-1 .5-.4-.1v-1c-.1-.7-.1-1.3.9-1.1.2 0 .3-.3.4-.4.9.9.9 2.4-.2 3.3z" class="st93"/><path fill="#777" d="M15.3 63.4v.2c-.4.3-.8.9-1.5.5-.9 0-1.4-.7-1.9-1.4-.1-.2-.1-.3 0-.4.4-.1.8.1 1.1.2.4.2.9.1 1.3 0l.3.1c0 .5.6.5.7.8z"/><path fill="#767678" d="M18.4 74.6l.5-.1-.2.3c-1.1.8-2.1.8-3.2 0-.4-.3-.8-.6-.9-1.1-.2-.6 0-.7.7-.6.5.2.6.7 1 1 .3.3.6.7 1.1.4.3-.1.6.1 1 .1z"/><path fill="#ababab" d="M12.1 62.3l.1.3c-.1.7.4 1 .9 1.2.2.1.6 0 .6.4-.9.3-1.4.1-2-.8l-.4-.8c-.1-.2-.1-.4.1-.5.5.3.2-.3.3-.4.5-.1.3.3.4.6z"/><path fill="#eee" d="M13.6 64.3c-.5-.2-1.1-.3-1.5-.7-.3-.3-.4-.6 0-.9.4.7 1 1.1 1.7 1.4.1.2-.1.2-.2.2z"/><path d="M11.3 62.2c-.2.1-.1.3-.1.4-.3-.4-.2-.9-.5-1.3v-.8c.6.4.8.8.6 1.7z" class="st98"/><path d="M16.5 57.9v.3c-.2.1-.2-.1-.3-.2a3 3 0 0 0-1.3-1.6c-1-.9-2.1-1.1-3.3-.5-.3.2-1-.2-1 .6l-.5.6c-.6-.7-.5-1.6-.4-2.4 0-.4.5-.6.8-.7.4-.2.5.3.8.5l.1.3c.3-.8.6-1.7 1.3-2.4.2-.2.3-.4.6-.4.5.6.7 1.3 1.3 1.8 1 .9 2.1 1 3.5.5-.7 1.2-1.4 2.3-1.6 3.6z" class="st71"/><path d="M14.6 53.9c-.6-.5-1.1-1-1.3-1.8-.3-.1-.4-.4-.5-.6-.1-.3-.2-.5 0-.8-.1-2 .4-3.6 1.9-5 .4-.5.9-.8 1.6-.6h1c-.2.3-.6 0-.8.3-.5.6-1.3.8-1.8 1.4-.4.4-.6.8-.8 1.3-.4 1.3-.6 2.6 0 3.9.1.3.3.6.2.9-.1.4.6.5.5 1z" class="st88"/><path d="M12.8 50.7l.2.8v.5c-.4.5-.7 1.1-1.3 1.6-.2 0-.4-.2-.3-.4.6-.8 1-1.7 1.4-2.5zM16.3 45c-.6.1-1.1.5-1.6.6-.2-.6-.1-.9.5-1.1.6-.1 1-.3 1.1.5z" class="st71"/><path d="M11.7 53.5c.4-.7 1.2-1.2 1.3-2.1l.3.7a5 5 0 0 0-1.8 2.5c-.1.2-.1.6-.4.7-.1-.3.2-.6.1-.9l.5-.9z" class="st74"/><path d="M9.8 57.4l-.3.6c-.2-.2-.2-.4-.1-.6.1-.2.2-.2.4 0z" class="st71"/><path d="M28.8 53.7c-1-.9-2.1-1.7-3.5-1.9a11.3 11.3 0 0 0-4.2.3c-.3.1-.7.4-1.1.4.4-1 .7-2.1.7-3.2 0-.6-.1-1.2-.3-1.7-.2-.5 0-.6.3-.7 1.6-.3 3.1-.7 4.8-.5.8.1 1.5 0 2.3.4-1 2.7-.5 5 1.4 6.7-.1.3-.2.3-.4.2z" class="st62"/><path d="M17.9 65.5c-1.4-2.4-1.7-5-1.3-7.7.5-.9.6-1.8 1.2-2.6a6.3 6.3 0 0 1 3.3-2.7l.3-.2c2.4-.6 4.5.1 6.1 1.9a8.5 8.5 0 0 1 1.9 4.2c.5 2.6-.1 4.9-1.5 7.1a6.8 6.8 0 0 1-4.2 2.8c-2.1.1-3.8-.6-5.2-2.2l-.6-.6z" class="st99"/><path fill="#6b6b6a" d="M18.7 46c.8.5 1.3 1.3 1.5 2.2-1.6.8-1.5 2.3-1.2 3.7l-.2.3h-.5c-.2-.2-.2-.5-.2-.8-.2-1.5-.4-1.8-1.9-2l-.1-.3c.1-.4.3-.7.6-1 .5-.4.9-.9 1.7-.9.3 0 .3-.2.1-.4-.2-.3-.1-.6.2-.8z"/><path fill="#9d9a88" d="M18.9 51.9c-.3-1.1-.7-2.1.2-3.2.3-.4.7-.3 1-.5.4 1.4 0 2.6-.6 3.9-.1-.1-.4 0-.6-.2z"/><path fill="#898989" d="M18.7 46c-.1.3-.4.6.1.8.4.3.1.6-.2.5-.8-.1-1.3.4-1.8.8-.4-.7-.3-.9.3-1.1.7-.1.7-.5.4-.9.1-.2.1-.3-.2-.3-.7.2-1.3.5-1.7 1.2-.1.4 0 .8-.5.8-.4-.3-.8-.6-.5-1.2.5-.7 1.1-1.1 1.9-1.3.8 0 1.6.1 2.2.7z"/><path fill="#cbcccf" d="M14.1 52.9l-.3-.8c0-.5 0-.5.4-.3 0-.3-.2-.7-.1-1 .1-.3.2-.5.5-.1l.3.8c-.1 1.5.7 2.2 2.3 1.9.3 0 .7-.2.8.3-.2.2-.4.2-.6.2-.5.2-.9.4-1.4.3-.9-.3-1.4-.8-1.9-1.3z"/><path fill="#9b9c9b" d="M18.3 52.1h.5c0 .3.3.4.4.7l-.2.3c-.4.2-.8 0-1.2.1l-.9.3-.2.1c-.5-.2-.5-.6-.1-.8.3-.1.1-.4.3-.5.4-.3.9-.4 1.4-.2z"/><path fill="#767675" d="M16.7 53.4c0-.3.2-.5.4-.5.6 0 1.2-.1 1.8.1-.2.4-.5.6-.9.7-.3-.3-.6-.1-.9-.2-.3.1-.4 0-.4-.1z"/><path fill="#c8c7c6" d="M19.1 52.7c-.2-.2-1-.1-.4-.7l.2-.1c.2.1.5-.3.6.2 0 .3-.2.5-.4.6z"/><path fill="#57575b" d="M15.9 54.2c.4-.3.9-.5 1.4-.3 0 .2.2.5-.2.4-.4 0-.9.2-1.2-.1z"/><path fill="#4a4a4a" d="M33 56.1a3 3 0 0 0-1.1 1.6c-.6-.2-1-1.1-.9-1.8.1-.2.1-.2-.1-.2-.6-.2-.8-.8-1.1-1.4-.1-.2.1-.4.3-.3.8.2 1.7.2 2.4-.3l-1.1.2c-.5 0-1.1.1-1.3-.6.6-.3 1.3-.3 2-.4.7-.1 1.1-.4 1.5-.9l.5-.8c.3-.2.1-.8.6-.9.1.4.2.8.6 1.2 1 1 1.6 2.3 2.2 3.8-1.8-.7-3.3-.6-4.5.8z"/><path fill="#363637" d="M28.8 52.2c-.3-.1-.3-.3-.4-.5-.6-1.5-.7-3.1.1-4.6.2-.2.4-.5.8-.4.4.2.4.6.4 1l-.2.8c0 .7-.6 1.4-.2 2.1v.5c-.1.3-.3.1-.5.1-.1.4.3.7 0 1z"/><path d="M31.8 44.6c.5.3 1.2.2 1.6.8l.4.8c.3.4.1.8-.3.8-1.1 0-1.7.7-2.3 1.4l-.4.2-.2-.2v-.2l.3-.6c.1-.9.6-1.1 1.3-1.2.1-.3-.2-.4-.3-.7-.2-.6-.7-.3-1.1-.3-.2 0-.3-.2-.4-.3V45l1.4-.4z" class="st110"/><path fill="#343434" d="M30.1 54c-.1.1-.4.2-.2.3.5.4.4 1.2 1.2 1.3.3 0 .1.1 0 .3-.2.8.4 1.2.7 1.8-.1.3-.3.6-.3 1-.3-.3-.2-.8-.5-1.1-.4-1.5-1.4-2.6-2.3-3.8.1 0 .3 0 .3-.2.5.1.9.1 1.1.4z"/><path fill="#e7e7e6" d="M29.1 51.1c0-.1-.3-.2 0-.4.2-.1.3 0 .4.1.5.6 1 1.1 1.7 1.5.3.2.6.2.7.6a5 5 0 0 1-2.1.1l-.8-.8c-.2-.3 0-.7.1-1.1z"/><path d="M29.5 47.8c0-1-.2-1.1-1-.6a5 5 0 0 1 2.2-2.3c.1.1.2.3.1.4-.8.6-.6 1.6-1.1 2.3l-.2.2z" class="st110"/><path d="M29.8 53.1c.4-.2.9-.1 1.3 0 .3 0 .6.1.8-.1.2-.1.3-.1.4.2-.7 0-1.4.5-2.1.3l-.4-.4zM29.1 51.1c.2.4-.1.8-.2 1.2l-.1-.1-.5-1.3c.4 0 .6.4.8.2z" class="st113"/><path fill="#848484" d="M33.6 56.9c.5-.6 1.1-1 1.8-1.3 1.7-.2 3 .4 3.7 2.1l-1.5-.1c-.4-.1-.7 0-1 .3-.6.8-1.6 1.3-1.7 2.4 0 .2-.2.3-.4.3-.3 0-.4-.2-.4-.4v-1.5c.1-.5.6-1.1-.3-1.4l-.2-.4z"/><path fill="#6a6b69" d="M30.9 48.4l.6-.6c.5-.6 1-1.1 1.8-1 .2 0 .4 0 .5-.2.1-.2-.1-.3-.3-.4-.3-.2-.3-.5-.1-.7.9.5 1.3 1.3 1.4 2.2l-.8.6c-.9.7-.5 1.7-.5 2.6 0 .3.1.5-.2.7h-.2l-.2-.1c-.3-.4-.2-.8-.3-1.2 0-.3-.1-.6-.4-.9-.2-.2-.5-.4-.8-.3-.4.1-.3.4-.3.7 0 .3.1.7-.4.7-.3-.7-.4-1.4.2-2.1z"/><path fill="#9d9b88" d="M33.3 51.4c.1-.5.1-1 0-1.6a2 2 0 0 1 1.6-2.3c.3.9 0 1.8-.1 2.7-.2.3-.2.7-.5 1-.3.2-.6.5-1 .2z"/><path fill="#c6c4b9" d="M35.4 70.1c.1 1.4-.1 2.7-.9 3.8l-.2.1c-1 .1-1.2 0-1.1-.8l.4-.3c.3-.6.1-1.2.2-1.8.1-.8.4-1.5 1.3-1.8l.2.2.1.6z"/><path d="M35.6 74.4l.2 1.3c-.7-.4-.4-.9-.2-1.3z" class="st72"/><path d="M37.2 62.2c-.6.2-1.2.3-1.7 0-.5-.8-.1-1.7-.1-2.5 0-.3.4-.2.7-.1.5.2 1.1.4 1.1 1.1v1.5z" class="st99"/><path d="M22.7 51.8c.9-.2 1.7-.3 2.6 0h-2.6z" class="st74"/><path fill="#80807f" d="M29 67.8c1.4-1.8 3-2.1 4.5-.8-.2.3-.5.3-.7.2-.9-.5-1.3.3-1.8.7l-.5.6c.7.1.7.5.5 1-.1.3-.2.7-.1 1v.7c0 .7 0 .7 1 .6.4.4.3.9.3 1.4-.6.4-1-.1-1.5-.4l-.2-.4c0-.2-.1.1-.2 0-.5-.4-.3-.9-.3-1.3s.3-.7 0-1.2c-.4.8-.3 1.9.3 2.5.4.3.4.6-.2.7l-.4.2-.2-.1c-.5-.9-.4-2-.3-3 .1-.7.4-1.4-.2-2-.2-.1-.1-.3 0-.4z"/><path d="M30.6 70.3l.1-.9c.3-.9.3-.9-.8-.8.7-.6 1.1-1.4 1.9-1.8.6-.3 1.1.4 1.7.1a3 3 0 0 1 1.4 1.9c-.3.1-.5 0-.8 0-.7-.3-1.2.1-1.6.7-.2.3-.3.8-.8.9-.3-.2 0-.5-.1-.8-.5 0-.5.7-1 .7z" class="st119"/><path fill="#3a3a3c" d="M29 67.8v.2c.8.7.5 1.5.3 2.4-.1 1-.1 2 .3 2.9-.3.1-.3.1-.6-.2.2.5.7.8.5 1.5-.6-.3-.8-.8-.8-1.5 0-1-.1-2 .1-3l-.1-.4c-.8-.8 0-1.3.3-1.9z"/><path fill="#6d6c6f" d="M29.6 74.5c-.2-.5-.5-.9-.6-1.4.3-.3.4.3.6.1h.1c.6.5 1 1.3 1.8 1.6.4.2.1 0 .1-.1.1-.2.3-.2.5-.2h1c.4-.1.7-.5 1.1-.6h.1c-.9 2-3.1 2.3-4.7.6z"/><path fill="#90908c" d="M34.1 68.7c.3 0 .5 0 .8.2.1.2.3.3.2.5-1.1.8-1.2 1.9-1.2 3.1 0 .3.1.5-.3.6-.3-.1-.4-.3-.4-.5 0-1-.2-2.1.7-2.8.4-.4.3-.7.2-1.1z"/><path fill="#353536" d="M15.3 73.4a.8.8 0 0 0-.4-.2c-.2.1-.1.3 0 .5.1.4.5.8.7 1.2-1.2-.4-1.3-1.5-1.8-2.4.4-.2.4.3.7.1a7 7 0 0 1 .1-2.5l-.1-.3c-.6-.4-.5-.9-.1-1.3.5-.1 1-.1 1 .6v.3c0 1.2-.3 2.3.1 3.5l-.2.5z"/><path d="M15.2 69.1c-.1-.5-.6-.5-1-.6.3-.7.8-1.3 1.5-1.7 1.1-.6 2-.5 3 .4-.3 0-.7.1-1-.2-.2-.2-.4 0-.6.1-.8.5-1.3 1.3-1.9 2z" class="st124"/><path fill="#767676" d="M11.2 56.7c2-1.4 3.9-.7 4.8 1.6 0 .4-.4.4-.6.3-.8-.2-1.4.2-1.8.8l-.5.4c-.3 0-.1-.6-.4-.4-.4.2-.4.6-.4 1 .2-.2.3-.6.7-.6l.2.3v.2l-.1.5c-.1.4-.2.8-.7.8-.5 0-.5-.5-.6-.8v-.2l.1-1.4c-.1-.5-.2-.1-.4 0-.1.1-.2.3-.4.3s-.3-.3-.2-.4c.3-.6-.1-.9-.3-1.4l.6-1z"/><path d="M10.6 57.5c.6.2 1 .6.5 1.3-.1.2-.1.2.1.3l.2-.2c.9.2.5.9.5 1.5v.2l-.2 1.3v.5c-.1.1-.2 0-.3-.1-.3-.5-.1-1.2-.6-1.6-.1-.7.3-1.5-.5-2-.4-.4 0-.9.3-1.2z" class="st72"/><path d="M15.2 72.9a4.3 4.3 0 0 1 0-3.5c.4 0 .4-.9.9-.6.4.3-.1.7-.1 1.1v1.6c0 .4.2.7.6.7.4 0 .4-.4.4-.7v-.9c-.2-.4 0-.6.3-.8l.4-.5c.5-.7 1.2-.9 1.9-.4.2.1.3.3.1.4-1.1.9-.9 2.2-1 3.4l-.2.4c-.5.2-.9.2-1.3-.1-.3-.2-.7-.2-1-.2l-.3-.2c0 .9-.4.4-.7.3z" class="st124"/><path fill="#d8d4a5" d="M17.3 69.9l-.3.8-.1.3c-.1.2.1.6-.3.6s-.4-.4-.4-.7c0-.5-.1-1 .5-1.2.2-.2.5-.3.6.2z"/><path fill="silver" d="M18.9 67.3c-.4.3-1 .3-1.1 1 0 .3-.4.2-.6.2-.2 0-.4-.2-.5-.4-.1-.3.1-.4.3-.5.6-.5 1.3-.2 1.9-.3z"/><path fill="#e5e6e6" d="M15.2 72.9c.2-.3.9.3.7-.5l.3.5c.4 1 1.2 1.5 2.2 1.7-.4.2-.9 0-1.3.3-.4.2-.8-.4-1.2-.8-.2-.2-.2-.7-.6-.8l-.1-.4z"/><path d="M23.9 73.1c-.1.3-.6.5-.2 1-.5-.2-.7-.4-.8-.7-.1-.2-.3-.5-.1-.7.2-.2.4-.4.7-.3.3 0 .2.4.3.6l.1.1z" class="st93"/><path fill="#116b7d" d="M24.2 73.2c0-.6.8-.4.9-.8.1 0 .4 0 .4.2s-.1.5-.3.6l-.9.1-.1-.1z"/><path d="M13.1 60.1v-.3l.7-.8c.3-.6.8-.7 1.4-.5.3.1.6.2.8-.1.2.2.3.5.3.8-.7.3-.9 1-1 1.7l-.2 1.8c-.1.1-.1.1-.2 0h-.3c-.2-.2-.2-.4-.2-.6.1-1-.3-1.7-1.3-2z" class="st98"/><path fill="#7f7f7f" d="M15 62.6a5 5 0 0 1 .5-3.2c.2-.3.4-.4.7-.2l-.1.9c-.2.7-.7 1.4-.6 2.2.1.3-.1.5-.5.3z"/><path fill="#a6a6a6" d="M15 62.6c.2-.1.5-.1.4-.4-.4-.9.3-1.5.7-2.2 0 1.2.1 2.4-.8 3.4l-.3-.1c-.2-.1-.5 0-.5-.2-.1-.3.3-.2.4-.4l.1-.1z"/><path fill="#3d3d3d" d="M13.1 60.1c1.2 0 1.4.3 1.4 1.5v1.1c-.5.2-1 .2-1.4 0-.5-.5-.2-1.1-.2-1.6l.2-1z"/><path d="M13.1 60.1v2.5l-1.1-.3c-.2-.1-.1-.5-.4-.5-.2-.5-.3-.9.2-1.3.2.2.2.3.2.5s.1.4.3.4c.2 0 .4-.1.5-.3.1-.4.1-.7.3-1z" class="st98"/><path fill="#3b3b3c" d="M14.2 50.8l.2 1c-.2.1-.7-.4-.6.3-.8-1.4-.5-2.8 0-4.2.3-.5.6-.4.9.1.2.3.2.6.2.9 0 .6.1 1.3-.6 1.7-.2 0-.1.1-.1.2z"/><path fill="#5d5d5f" d="M14.6 48.9v-.6c-.1-.4-.4-.6-.8-.4.1-.5.3-1 .8-1.3-.2.5.5.7.5 1.1.1.4-.1.8-.3 1.1l-.2.1z"/><path d="M17.5 58.5c-.3.3-.3.7-.3 1v2.7c-.2 0-.3-.1-.3-.2-.1-2.4-.1-4.8 1.4-6.9 2.2-3.1 6.6-3.6 9.1-.4a9 9 0 0 1 .4 10.6 5 5 0 0 1-3.3 2.4c-.3.1-.7.5-.8-.2l-.4-.1c-.3 0-.7.1-1-.2.4-.4.9-.2 1.4-.2.5 0 1-.1 1.4-.6.3-.3.8-.4 1.2-.7l.7-.7c.3-.2.5-.5.6-.8.3-.6.6-1.1.7-1.7l.3-1.5c.1-.3.2-.6.1-1l-.1-.2c0-1-.2-1.9-.6-2.8l-.4-.6-.1-.2-.2-.5-.2-.3-.1-.2a4.5 4.5 0 0 0-4.2-1.6l-.8.1c-1.3-.1-2.1.7-2.8 1.7-.5.8-.8 1.7-1.2 2.6-.2.1-.1.5-.5.5z" class="st135"/><path fill="#020202" d="M17.5 58.5c.4-1.1.8-2.2 1.4-3.2.6-1 1.4-1.6 2.6-1.8l.4.1c-.1.2-.4.3-.6.4l-.9.6c-.3.2-.4.4-.3.8l-.1.2c-.7 1.4-1 3-1 4.6 0 .9.3 1.9.8 2.7.3.8.8 1.5 1.3 2.2.5.9 1.4 1.2 2.4 1.3l1.5-.1.1.1c.1.2.4.3 0 .5-.9.4-1.8.3-2.7.3-.8 0-1.5-.4-2.1-.9a6.8 6.8 0 0 1-2.7-5.1 6 6 0 0 1 0-1.9c-.2-.3-.1-.5-.1-.8z"/><path d="M17.4 59.3v1.9a3 3 0 0 1 0-1.9z" class="st135"/><path fill="#515150" d="M18.3 52.1c-.5.2-1.1.2-1.6.2-.4.1-.6-.1-.7-.4l-.1-1.4c0-.4 0-.8.4-1.1 1.1-.3 2.1.4 2.1 1.6-.2.3.1.7-.1 1.1z"/><path fill="#a5a49f" d="M14.7 48.8l.4-1.1c.4-.2.3-.6.3-1 .4-.2.7.1 1 .1.3 0 .6.2.6-.4 0-.4.3-.5.6-.3l.6.8c-.5.5-1.8 0-1.4 1.3-.3.2-.4.6-.6.8-.1.1-.1.1-.2 0-.2-.2.2-.5-.1-.6-.3-.1-.5.1-.7.3-.2.2-.2.4-.5.3v-.2z"/><path fill="#9b9981" d="M16.1 49h.1v.3c-.2.5-.3 1.1-.1 1.6.1.3-.1.6-.1.9-.4.3-.8.1-1.2-.1l-.1-.2-.4-1h-.1l-.1.1-.1-.4c.6-.4.3-1 .4-1.5l.1-.1v.2c.3.3.1.6.2 1 0 .2.1.4.3.4.2 0 .3-.2.3-.4.4-.1.3-.6.8-.8z"/><path d="M17.6 46.2c-.3 0-.8 0-.4.5.2.3 0 .4-.2.5-.6.1-1.1-.1-1.6-.3.6-.6 1.2-1.2 2.1-1 .3-.1.4 0 .1.3z" class="st140"/><path fill="#f8f8f7" d="M14.7 51.6l.1.1c.7.4 1.1 1.1 1.7 1.6h.2l.3.2c-.7.3-1.3.1-1.8-.3-.6-.4-.8-.9-.5-1.6z"/><path fill="#cecec7" d="M16.5 53.4c-.8-.4-1.3-1-1.7-1.6l1.3.2.6.3c.3.2.2.4-.1.5-.4.1-.3.3-.1.6z"/><path d="M33 51.4h.2c-.2.6.6.3.6.6-.4.5-.8 1-1.5 1l-.4-.2-.8-.3c-.1-.2-.1-.4.1-.5.3-.1.4-.4.5-.6.4 0 .8-.2 1.3 0z" class="st143"/><path fill="#cccbc8" d="M33.8 52.1l-1-.2c-.1-.3.3-.3.4-.5h.1c.3 0 .6-.3 1-.2a2 2 0 0 1-.5.9z"/><path fill="#a6a6a0" d="M29.5 47.8c.2-.6.9-1 .6-1.8l.5-.5c.3-.1.2-.4.2-.6.2 0 .3.1.3.3.3.4-.1.6-.2 1 .4.1.7.1.8-.4.1-.3.3-.5.7-.3v.1c.1.3.6.4.5.7-.1.3-.6.1-.8.2-.3.1-.7.1-.6.7.1.3-.3.6-.5.8-.5-.4-.9-.3-1.1.2-.2.3-.2.7-.1 1l.2.4c.2.1.2-.1.4-.2.1-.1.2-.5.4 0v.4c0 .4 0 .8-.6.8-.4 0-.9-.5-.9-.9l.1-1.2a.6.6 0 0 1 .1-.7z"/><path d="M29.3 48.5v1c0 .6.3 1 .8 1 .6 0 .4-.5.5-.9v-.3c-.2-.5-.2-.8.3-1v.2a3 3 0 0 0 0 2.1c.6.3.3.7.1 1-.6.1-1.1-.2-1.6-.5l-.3-.2c-.3-.4-.5-.9-.1-1.3.3-.4.1-.8.3-1.1z" class="st143"/><path fill="#f9f8b1" d="M30.9 48.2c-.3.3-.3.6-.3 1-.3.2.1.9-.6.7-.5-.1-.5-.5-.5-1 0-.7.1-1.3 1-1.5.7-.2.5.2.5.5l-.1.3z"/><path fill="#d2d1d0" d="M32.3 45.5c-.2 0-.6 0-.5.3.1.3.2.4-.2.5-.4.1-.7.1-1.1-.1-.2-.1 0-.3.1-.4.3-.2.4-.4.4-.7.3-.2.7-.1 1-.1.4.1.5.2.3.5z"/><path fill="#c9c8c4" d="M29.5 51l1.6.5c.2 0 .4 0 .5.2.1.1.4.2.1.4-.2.1-.5.2-.5.5-.7-.5-1.4-.9-1.7-1.6z"/><path fill="#a4a4a4" d="M37.3 56.1c-.3.3-.5.3-.7.3-.2.1-.5.1-.4.5.1.4-.4.5-.7.4-.2 0-.6-.1-.5-.3.2-.4.2-1 .9-1l1.4.1z"/><path fill="#4e4e4e" d="M31.5 51.6c-.2 0-.4 0-.5-.2-.3-.3.2-.7-.2-1v-1c0-.6.4-.9 1-.6.5.3 1 .6.9 1.3l.1 1.2c-.3.2-.8.3-1.3.3z"/><path fill="#727271" d="M34.1 68.7c.5.2.7.4.2.9-1.1 1-1 2.2-.7 3.4l-.3.2c-.5.2-.9.5-1.3-.1-.3-.4 0-1-.3-1.5-.3-.3-.2-.7-.1-1l.1-.1c.4-.3.5-.8.8-1.2.4-.7.9-.8 1.6-.6z"/><path fill="#aeaeac" d="M32 73.1c.4.3.9.1 1.3.1-.2.4-.2.7.4.6h.6c-.3.3-.5.7-1 .8-1.2.1-1.9-.5-2.6-1.4-.1-.2-.3-.4-.2-.7.6.2 1 .6 1.5.6z"/><path fill="#e0e0e1" d="M30.6 72.6c.5 1 1.2 1.8 2.5 1.9l.3.2c-.5.2-.9.1-1.5 0l.2.4h-.3c-.9-.3-1.5-1-1.9-1.8 0-.2-.1-.6.4-.3.1.1.2.1.2-.1l-.1-.3v-.3l.1-.1c.1-.1.1 0 .1.1v.3z"/><path fill="#d2cfa4" d="M30.6 70.3l.3-.5c.2-.3.6-.6.9-.4.3.2-.1.5-.1.7v.3l-.1.4c0 .3-.1.6-.5.7-.4.1-.5-.3-.6-.5l.1-.7z"/><path fill="#4b4b4c" d="M30.3 72.3v.3c-.8-.4-.9-2-.6-2.8.1-.2.2-.2.4-.2.2.1.4.2.3.4l-.3 1.3c0 .4-.1.7.2 1z"/><path d="M30.6 71.2c.2.1.3.5.6.4.3-.1.3-.4.3-.7 0-.1 0-.3.2-.3v1.1c-.2.2-.3.6-.7.4-.5-.2-.4-.6-.4-.9z" class="st119"/><path fill="#9a9a9a" d="M14.7 56.9c-.4.3-.7.4-.8.8-.1.3-.4.5-.8.4a.5.5 0 0 1-.5-.3c-.1-.3.2-.3.3-.5.5-.5 1.1-.5 1.8-.4z"/><path fill="#979797" d="M13.1 59.8c-.3.2-.4.5-.5.8 0 .1 0 .3-.2.3-.1 0-.2-.1-.2-.3v-.8c.1-.5.5-.8.9-.7.4 0-.1.4 0 .7z"/><path d="M11.9 60.4c-.1-.5.2-1.1-.5-1.5 0-.2 0-.6.4-.5.3.1.4.3.3.6-.2.5.1 1-.2 1.4z" class="st98"/><path fill="#525354" d="M15.6 72.5c-.4-.8-.6-1.5-.4-2.3.1-.2.2-.4.4-.4s.2.3.2.4c.1.8-.3 1.5-.2 2.3z"/><path fill="#7d7c7a" d="M28 56.7c.5 1 .7 2.1.7 3.2-.1.2-.3.1-.4.3.2 0 .3-.2.4-.3.3.3.1.7 0 1-.9.3-1 .9-.3 1.6-.1.7-.4 1.2-.8 1.8l-.3-.1c-.2-1-1-1.8-1.5-2.7l-.3-.5c-1-.4-1-1.4-1.5-2.2-.3-.6-.6-1.3-1.1-1.8-.3-.4-.7-.8-.6-1.3.2-.4.8-.5.8-1-.5 0-.8.2-.9.7-.4.1-.5-.3-.7-.5-.1-.8.4-1.1 1-1.4 1.9-.3 3.4.2 4.5 1.9-.2.1-.4 0-.6-.1-.2-.1-.4-.3-.5 0-.1.2 0 .3.1.4.2.2.4.3.6.1l.4-.4c.2.1.3.2.3.4l-.1.1c0 .2-.2.5.3.5.2.2 0 .4 0 .6l.5-.3z"/><path d="M20.8 65.1c-.7-.5-1-1.3-1.3-2.1-.3-1.3-.9-2.6-.2-4 .6-.1.6-.7.8-1.1.5-.4.9-.2 1.1.4.1.4.1 1 .8.4.3-.2.4.1.5.3v.3c-.2 1.1.4 2 .9 2.9.1.2.4.2.4.4 0 .8.5 1.4.9 2.1-.1.2-.4.3-.6.3-.1.1-.5-.2-.4.3.6.1 1.2-.4 1.7 0 .2.3.7-.2.8.4-.3.4-.8.6-1.3.6-.9 0-1.8.2-2.7-.2-.5-.2-1-.5-1.4-1z" class="st160"/><path fill="#656362" d="M22.6 53.4c-.4.4-1 .7-1 1.4.1.3.3.7.7.7l.1.1c.4.6.4 1.4 1.3 1.7.2 0 .1.2 0 .3-.1.2-.1.4 0 .4.6.1.4.5.6.8.3.4.4.8.4 1.2l.1.2c1.5 1 2.1 2.5 2.7 4.1-.1.4-.4.6-.6.8-.5.1-.6-.3-.7-.6-.2-.5-.5-.8-.9-1.1-.5-.4-1.2-.7-.7-1.5.1-.1-.1-.3-.2-.4-.5-.7-.9-1.4-.8-2.3 0-.2-.1-.4-.4-.4-.3 0-.5-.1-.6-.3-.7-.5-1.1-1.3-1.8-1.8a1 1 0 0 1-.3-.7l-.1-1c-.2-.6.5-.8.7-1.2l.7-.3.8-.1z"/><path fill="#4e4c4b" d="M22.7 58.5l.4.2c1-.5.8.3.7.7-.1 1 .5 1.6 1 2.2.1.1.4.3.1.4-.9.4-.1.8.1.9.7.5 1.3.9 1.5 1.8l.4.3c-.2.3-.4.5-.7.6-.3-.4-.7.3-1-.2.3-.4.1-.6-.2-.9-.6-.6-.9-1.5-1.4-2.2v-.5c.2-.3.1-.5 0-.8-.2-.8-.3-1.6-1.3-1.7V59c.4 0-.1-.5.4-.5z"/><path fill="#d2d0cf" d="M28.3 62.5c-.7-.2-1-1.2-.4-1.7.3-.2.5.1.7.1 0 .6-.1 1.1-.3 1.6z"/><path d="M28 56.7c-.1.5-.5.3-.8.5-.1-.5.4-.7.4-1l.4.5z" class="st164"/><path d="M27.6 56.2c-.3 0-.4.3-.9.4l.7-1 .2.6z" class="st164"/><path d="M22.7 58.5l-.3.6c-.1-.1 0-.4-.3-.2-.2.1-.1.6-.5.4-.3-.2-.5-.3-.4-.7 0-.4-.3-.7-.7-.8l-.2.2c-.3.2-.6.1-.8-.1 0-.1-.1-.2 0-.2.4-.7.4-1.5.3-2.2v-.2c0-.3.2-.5.3-.8.2-.3.6-.5 1-.7v.2c-.8.6-.1 1.5-.4 2.3-.1.2.2.3.3.4.5.3 1 .6 1.1 1.2.1.4.8 0 .6.6z" class="st165"/><path d="M19.9 55.5c.6.9.2 1.7-.3 2.4v.1l-.1.7v.3c-.6 1.3 0 2.7 0 4-.5-1.1-1.1-2.3-.8-3.6.2-1.1.3-2.1.6-3.1.2-.4.2-.7.6-.8zM20.8 65.1c1 .8 2 1.3 3.3 1.1.3 0 .6-.1.8.1-1.6.7-3 0-4.1-.8 0 0 .1-.3 0-.4zM20.2 54.5c0 .3.1.6-.3.8-.6-.5.1-.6.3-.8z" class="st135"/><path fill="#f1eea8" d="M16.1 49c-.2.3-.2.7-.2 1.1 0 .4-.2.6-.6.6-.4 0-.5-.3-.5-.7v-1l.3-.5c.3-.3.7-.5 1.1-.4.4.3-.2.6-.1.9z"/><path d="M27.1 55.3c0 .2 0 .3-.2.4-.2.1-.2.7-.5.4-.3-.2-.8-.3-.8-.9 0-.3.2-.4.4-.6.2-.1.3.1.4.2.2.4.5.3.7.5z" class="st140"/><path fill="#dcdbda" d="M22.3 55.3c-.2-.6.4-1.2 1-1.1.3.1.3.3.2.5-.2.5-.7.7-1.1 1v-.1c-.1-.1-.2-.1-.1-.3z"/><path fill="#d8d6d5" d="M28.7 59.9l-.1.5c-.1.3-.3.2-.5.2s-.2-.2-.2-.3c0-.2.1-.3.3-.3l.5-.1z"/><path fill="#c7c6c6" d="M22.3 55.3l.2.3c-.2 0-.5.4-.6.1-.1-.3-.6-.5-.2-.9.3 0 .3.4.6.5z"/><path d="M22.4 59.5c1-.2 1.3.5 1.4 1.3 0 .5.8 1 0 1.4-.1.1.1.3.2.4l1.2 2c-.1.2-.2.3-.5.2-.7-.4-1-1-.9-1.7 0-.2 0-.3-.2-.3-.9-.5-.8-1.6-1.3-2.4-.2-.4.1-.7.1-.9z" class="st165"/><path fill="#d2d0ce" d="M24.7 64.8c.2.1.3-.1.5-.2.2.1.5 0 .5.4 0 .2.1.6-.3.6l-1.1.1h-.7c-.3-.6.3-.5.5-.6.1-.3.4-.1.6-.3z"/><path fill="#a09d9c" d="M19.5 59l-.2-.2c.2-.3.2-.6.2-.9l.8.2c.1.2-.3.2-.2.5.2.5-.2.5-.6.4z"/><path fill="#b4b2b0" d="M21 63.6l.4.3c.2.3-.1.6-.2.8h-.3c-.1-.3.2-.4.2-.7-.3.2-.6.5-.8 0 .2-.3.4-.4.7-.4z"/><path fill="#cdcac9" d="M21 63.6c-.2.3-.4.3-.7.4-.2-.1-.2-.4 0-.4.5-.1.2-.5.2-.7.3.1.5.3.5.7z"/><path fill="#c8c6c5" d="M20.5 62.8h-.2c-.1.2-.3.3-.5.2-.1-.1-.2-.2 0-.3.2-.2.3-.4.5-.4.3.1.2.3.2.5z"/><path fill="#999" d="M24 64.9c-.1.1 0 .5-.2.4-.4-.2-.2.2-.3.3-.3-.6 0-.8.5-.7z"/><path d="M19.6 57.9c.1.4.1.7-.2.9a.7.7 0 0 1 .2-.9z" class="st160"/></svg>