<svg xmlns="http://www.w3.org/2000/svg" id="图层_1" viewBox="0 0 93.7 100"><style>.st0{fill:#1c1916}.st1{fill:#3c342c}.st2{fill:#a69f8d}.st3{fill:#443c31}.st8{fill:#d5d0c5}.st10{fill:#aa9d8a}.st27{fill:#a89983}.st28{fill:#604f40}.st47{fill:#281c10}.st52{fill:#d6d0c5}.st57{fill:#3d3930}.st59{fill:#a29a89}.st60{fill:#c6c2b5}.st62{fill:#ada696}.st65{fill:#aba394}.st73{fill:#3a3124}</style><path d="M41.3 8.8l12.9 50.3-11.5-6.2z" class="st0"/><path d="M54.9 98.4L76 71.7l9.2-36.6-25.4 25.2z" class="st1"/><path d="M85.2 25.9L40.8 8.3l-.2 66.1z" class="st2"/><path d="M9.7 35L40.8 8.3l3.9 57.3z" class="st3"/><path fill="#a99c8c" d="M54.6 99.6c-.1.5-.4.5-.7.4a8.7 8.7 0 0 1-3.2-2.2c-.1-.2.6 0 .2-.3-.7-.5-1.7-.6-2.1-1.4.1-1.2-.6-1.9-1.7-2.2-.2-.1-.5 0-.7-.3-.5-.7-.9-.6-1.3.1-.2.4-.7.5-1.1.2-.6-.4-1.1-.3-1.7-.1-.6-.2-1.2-.4-1.6-1l-.7-1a2 2 0 0 0-.9-.9c-1.7-.8-3.3-1.8-4.9-2.7-1-.6-.5.6-.9.7-1.8-.7-3.3-1.7-5-2.6l-1.2-.6c-.3-.5-.7-.9-.9-1.5.1-.4-.2-.5-.5-.7l-2.8-1.6c-.2.5.6.7.3 1.2h-.5c-1.3-.4-2.4-1.1-2.9-2.6L15.7 68c.7-.4 1.3 0 1.9.4.4.3.9.7 1.6.6-.7-1.6-.9-3.3-1.4-4.9-.5-1.5-.8-3-1.4-4.5a5.2 5.2 0 0 0-2.9-1.6c-.2 0-.5.1-.6-.1-.3-.9-.3-.1-.4.1-.2.3-.4.6-.8.5-.3-.1-.3-.4-.2-.6.6-1.5-.1-2.9-.6-4.3l-.4-1.6c1.1-.6 1.6.5 2.4.8.2-.5 0-1-.2-1.5l-1.1-3.7c-.3-1.1.2-1.5 1.1-1 1.4.7 2.8 1.4 4.2 2.3.3.2.5.4.6.7.1.5 0 .4.3.1.2-.2.6.1.9.2 5.6 2.7 11.2 5.5 16.9 8l2.5 1.4c2.7 1.6 5.6 2.7 8.4 4.1 1.9.9 3.7 2.1 5.6 3 .6.3 1.2.4 1.8.3.5.8.2 1.8.5 2.4-.2-.9-.2-2 .1-3.1.5-.3 1.2-.3.8-1.3-.2-.5.7-.5 1-.8.4-.2.4.2.6.4.8 1.1 1.7 2.2 2.4 3.4.1.5.4 1-.2 1.4-.9-.1-1-.9-1.3-1.4-.2 1 .7 1.4 1.3 1.9.3.7.2 1.4.1 2 0 .8-.2 1.4-.7 1.4-1.1 0-1 .8-1.1 1.5-.1.9 0 1.9-.3 2.8-.4 1-.2 2.1-.2 3.1 0 .6.1 1.2-.2 1.8-.6.6-.7-.1-.7-.3.4-2.3-1.2-2.8-2.8-3.4-.6-.2-1.1-.7-1.9-.7.5.6.3 1.2.3 1.8-.1 2.1-.4 4.5 2 5.9.5.3 1 .6 1.3 1.1 1.4 1.5.9 3.3.7 5-.3 2.2-.5 4.5-.6 6.7l-.4 1.3z"/><path fill="#504234" d="M56.6 80.4c0-1-.4-2.1.3-3.1.6 0 .4.5.6.9.5-.5.8-1 1.1-1.5.6-1 1.2-2.1 2.6-1.8.4.1.4-.3.6-.6.2-.3.2-.6.7-.7.1 0 .3.3.3 0-.3-1.1.4-1.4 1.2-1.9 1.3-.8 1.6-2.1 2.3-3.3l2.3-2.2c2.1-2.3 3.6-5 5.3-7.5.3-.5.4-1.1.4-1.7l.1-.3c.2-.4.4-.9.8-1.2l.3-.2c.6-.4.7-1 .9-1.6l.1-.3c.4-.8.7-1.6.9-2.5.2-.8.5-1.5 1.3-.5 1.4-1.5 2.9-2.7 4.4-3.8.8 1.6 1.2 3.4 2 5.1.2.4.1.5-.1.8-.7.7-1.2 1.5-2.1 2.1-.6-.8-.9-1.7-1.6-2.5-.2-.2-.6-.5-.7-.2-.2 1.2-1.4 1.9-1.6 3.1.5 0 1.1-.4 1.4.3-.3 1.8-.7 3.5-1.3 5.2-.6-.7-1.2-.9-1.4.3-.2.7-.9 1-1.4 1.5-1.6 1.7-2.8 3.9-4.7 5.4-.6.5-.6 1.5-1 2.2-.7 1.3-1.6 2.4-2.5 3.6-1.9 2.4-3.2 5.2-4.6 7.8l-1 1.4a2 2 0 0 0-.6 1c-.5 2.5-1.9 4.6-2.9 6.9-.4.9-.8 1.7-.4 2.7.2.7-.5 1.1-.6 1.6-.5 1-1.4 1.7-1.6 2.8-.4.7-.9 1.3-1.5 1.8-.2-3.5.6-7 .9-10.5.1-1.1-.8-1.6-.9-2.5l.4-.1c.6-.1 1 .9 1.5.2.3-.4 0-1.1.1-1.6l.1-.6c.1-.5.4-1 .9-.9.5.1.2.7.2 1v1.2c.6-.8.2-1.5.2-2.2 0-.4 0-.9.6-1 .7-.1.6.5.7 1 .3-.5.3-1 .4-1.5.1-.1-.2-.2-.1-.1v.1c-.2.6-.5.5-.8.1-.2-.3-.5-.7-.6-1.1-.6-1-1.1-1-1.9-.6z"/><path fill="#716354" d="M53.7 66.9c-.2.6-.4.7-1.2.4-3.6-1.7-7-3.7-10.6-5.3-2.6-1.1-4.9-2.6-7.4-3.9l-10.4-5c-2-.9-4.1-1.8-6-2.9-.9-.5-.3.6-.8.7 0-1.1-.6-1.6-1.6-2-1.4-.6-2.6-1.6-4.2-2.1.5 2.4 1.5 4.5 1.8 6.8-1.3 0-1.8-1.5-3-1.4-1-1.7-1.3-3.7-2-5.5.4-.4.9-.2 1.3-.2.8-.1 1.4-.4 1.1-1.4-.2-.7-.2-1.3.6-1.6.4-.1.8 0 1.1.2 1.7.7 3.1 1.8 4.9 2.3 1.8 1 3.7 1.8 5.5 2.7a32 32 0 0 0 5.6 2.7c1 .4 1.9.7 2.8 1.3 3.3 1.9 6.8 3.5 10.3 4.9.5.2.9.5 1.2.9.5.3.9.8 1.5.5.9 0 1.1.9 1.8 1.3 2.3 1.1 4.7 2.1 7 3.3l.5.2c1.2 0 1.2.8 1 1.7-.2.5-.2 1.1-.8 1.4z"/><path fill="#695747" d="M75.5 55.6h-.2c-.5-.5-.1-1.1.1-1.6.2-.7.5-1.4.5-2.1 0-1.1-.4-1.3-1.4-.8l-.4.5c-.5.7-1.3 1.1-1.9 1.8-.2.2-.4.7-.8.3-.4-.4-.4-.8-.1-1.3.8-1 1.3-2.1 2.2-3l.3-.4c.1-.1-.2-.1-.1 0 .1 0 .1.1 0 .1-.8 1.1-1.9 1.9-2.5 3.2-.3.6-.8.9-1.5.3l-.1-.1c-.3-.4-1.3.5-1.3-.7 0-.6.3-1.1.4-1.6 2.2-3.4 5.1-6.3 7.6-9.4l3.9-4.8c1.1-.8 1.6-2.1 2.8-2.7.5-.2.7-.7 1.2-1 .6-.4 1.2-.2 1.7.2.4.4-.1.8-.3 1.1-.6.8-.7 1.8-1.2 2.7-.2.4-.3.9-.8 1.1.6-.4.8-1.1 1.5-1.3.4 0 .8-.2 1.2.1l-2.7 9.1-.3 1.5c-.6 1.3-2.2 1.7-2.7 3.1-.2.6-.6 0-.8-.3l-.5 1.7c-.6 0-.8-.6-1.1-.9l-.4.8c-.5.8-.6 1.8-1 2.6-.6.4-.9 1.1-1.3 1.8z"/><path d="M.2 33.4c-.6-.8.1-1.3.6-1.7l7.2-6 9-7.5 10.4-8.7 10.1-8.4C38.8 0 39.9-.4 41.7.4a52 52 0 0 0 8 3.2c-.1.6-.4.9-.9 1-.5.3-1.1-.4-1.6-.1l-.5-.2c-1-.2-1.7-.9-2.7-1.2-.5-.5-1.1-.9-1.8-.7-.7.1-1.1-.5-1.7-.7-.7-.2-.5.3-.7.5l-5.5 4.6-8.7 7.3c-1.4 1.2-2.9 2.1-4.2 3.4l-11.1 9.3-.6.4-4.5 4.3c.6.6 1.4.8 2.1 1.2.2.1.3.3.3.4 0 .3-.4.4-.2.8.6 1.1.6 1.2-.9 1.5-1.7-.3-3.1-1.2-4.6-1.9-.5 0-1-.3-1.7-.1z" class="st8"/><path d="M58.1 93.3c-.5-.2-.3-.5-.3-1 0-1.4.9-2.4 1.3-3.5.4-.9.7-2.1 1.3-3a3 3 0 0 0 .8-2.3l.1-.6c2.3-2.5 3.2-5.9 5.2-8.6l2.2-3c.8-1.1 2-2.2 1.8-3.9l.1-.4c1.2.3 1.1-1.2 2-1.4.8-.1.5-1.1 1-1.5 1.1-.9 1.7-2.4 3-3.1.2-.1.5-.5.4-.8-.2-.8.4-1 .8-1.1.5-.1.8.5.8 1-.4 2-.9 4-1.6 5.9-.4-.4-.7-.2-1 .2l-1.6 2.2c-2.3 3.5-5.5 6.3-7.6 9.9-1.2 2.2-2.3 4.4-3.7 6.5-1 1.5-1.8 3.1-2.6 4.7-.5.9-1 1.8-1.7 2.6.1.8-.2 1.2-.7 1.2z" class="st1"/><path fill="#d3cbc0" d="M68.2 10.6l14 5.3L92.9 20c.2.1.5.1.5.5-.3 1.2-1.1 2-1.9 2.9-2.4 2.5-4.4 5.4-6.7 7.9-.6.6-1 1.4-1.9 1.6-.2-.6 0-1.3-.9-1.5-.4-.1-.5-.8-.3-1.4.6-.8 1.1-1.8 1.9-2.4.3-.2.4-.5.4-.8 0-.7.4-1 1-1.2l1.4-1.2c.8-.7 1.7-1.3 2.3-2.3.4-.6.9-1.2-.3-1.5-.2 0-.3-.4-.5-.5-.6-.4-1.3-.1-2-.4l-.3-.2c-.6-.4-1.2-.7-1.9-.7-2.2-.9-4.4-1.5-6.5-2.6-.3-.1-.6-.2-.9-.1-.4 0-.8.1-1.1-.1-2-1.1-4.4-1.6-6.4-2.8-.3-.3-.2-.8-.6-1-1.1-.6-.8-1.1 0-1.6z"/><path d="M.2 33.4c.6-1.2 1.2-.2 1.7 0 1.5.7 2.9 1.5 4.5 2 .7.2 1.5.4 2.1.8l.6.5.8.1c.4.2.9.4 1 .9-.2.6-.2 1 .4 1.3.3.2.6.5.4.9-.2.4-.6.1-.9 0-.3-.1-.6-.2-.8.1l-.2.3c-.3.4-.3.7.1 1.1.4.4.5 0 .7-.2.2-.1.4-.1.6.1.7.7 1.2 1.4 1.4 2.4 0 .2-.2.3-.4.2l-1-.3C9.4 43.2 7.8 42 6 41.1c.2 2 1 3.7.8 5.6-1.1.2-1.8-.7-2.7-1.1-1.1-.4-1.6-1-1.8-2.2-.5-3.2-1.3-6.6-2.1-10z" class="st10"/><path fill="#282522" d="M58.1 93.3c.7-.7 1-1.6 1.9-2.2.6-.4.2-1.3.7-2 1.3-1.7 2.2-3.7 3.3-5.5 2.4-4 4.5-8.2 7.8-11.6 1.7-1.7 3-4 4.4-5.9.1-.2.1-.7.6-.5.4.1.4.5.4.8l-1.6 6.3c-.2.6-.6 1-1 1.4-1.7-.9-1.6-.7-2.7 1-1.1 1.6-1.6 3.6-3.4 4.9-1.1.8-1.7 2.4-2.4 3.7a18 18 0 0 1-2 2.8c-.5.6-.9 1.3-.8 2.1l-3.8 4.7c-.5.1-.6.6-1 .9-.4.2-.5.8-1.1.6-.1-.6.8-.8.7-1.5z"/><path fill="#635242" d="M83 32.9c2.2-2.2 4-4.7 6-7l4.5-5.4c.3.5.1 1.1 0 1.6L91.3 32c-.2.9-.6 1.6-1.2 2.2-.8.3-.9-.2-.8-.8l.5-2.7c.1-.6.2-1.2-.1-1.7 0 1-.3 1.9-1.1 2.6-1.4 1.3-2.3 3-3.5 4.3-.5.3-.8.7-1.1 1.1-.5.7-1 .8-1.3-.3.7.4.9-.1 1.1-.6.7-1.2.6-2.8 2-3.6-1-.6-1.7-.4-2.2.5-.2.3-.4.3-.7.3-.1-.1 0-.3.1-.4z"/><path fill="#c7c0b4" d="M68.2 10.6c1.1 1.4-.8.1-.4.9.2.3 1.6.1 1 1.4l-.2.1c-1.6-1.3-3.7-1.4-5.4-2.6-.7-.5-1.9-.6-2.8-.8-2.8-.6-5.2-1.9-7.8-2.9-.4-.3-.8-.6-1.3-.6l-.6-.1c-.4-.2-.2-.6-.3-1-.2.4-.6.4-.9.3l-1.1-.4v-.5c.6 0 .6-.7 1.1-.8 3.8 1.2 7.4 2.8 11.1 4.1l7.6 2.9z"/><path fill="#c0b7aa" d="M11.3 58.1c.1.2.1.5.3.4.3-.1.5-.4.5-.8 0-.2-.4-.6.1-.4 1.4.7 2.9 1.1 4.1 2l-.1.4c.2 1.1-.6 1.9-.8 2.8-.5.7-.5 1.7-1.2 2.3l-4-1.3c-.4-.1-.3-.4-.3-.7.5-1.5.8-3.2 1.4-4.7z"/><path fill="#181716" d="M63.3 88.7c-.5-.6-.4-1.2 0-1.6 1.2-1.3 2-2.9 3.2-4.2.2-.2.8-.5 0-.8l.1-.3c1.5-.6 1.7-2.6 3.3-3.2h.2c-.3-1.6 1.3-2.3 1.7-3.6v-.1c.8-1.8 1.5-2 2.8-.5L63.3 88.7z"/><path fill="#594737" d="M7 46.8c-.7-2-.8-4-1.4-6.3l5.8 3.2c-.6.4-.5 1-.3 1.6.4 1-.3 1.8-1.4 1.7l-1.4-.1c-.5-.4-.9.1-1.3-.1z"/><path fill="#4f3e2d" d="M85 35.9a5.7 5.7 0 0 1 2-3.2 8 8 0 0 0 2.6-4l.2-.5.2-.2c.6 1.8-.1 3.5-.4 5.2-.1.5-.1.8.5.9-.5 1.3-1.8 1.2-2.9 1.5-.4.1-.9 0-1.2.3-.3 0-.6.5-1 0z"/><path fill="#756557" d="M17.9 64.3c.7 1.6.7 3.3 1.5 4.9.1.2.1.4-.1.4-.4.1-.7.2-1.1 0-.9-.4-1.5-1.3-2.5-1.3h-.1l-1-2.9c.2-.9 1-.8 1.6-1 .5 0 1.1.2 1.7-.1z"/><path fill="#9c8e7c" d="M42.1 93.8c.4-.5.9-.9 1.6-.3.6.6 1.1.3 1.3-.4.1-.5.5-.8.7-.4.6 1 1.7.8 2.5 1.5.8.6.8 1.1.5 1.8-.5.2-.9-.1-1.4-.3-.2-.1-.4-.4-1-.4.4.2.5.5.4.7l-.2.3c-1.3-.9-2.8-1.7-4.4-2.5z"/><path fill="#3c2c23" d="M80.2 55.3c-.6-.4-1.1 0-1.7.4.1-1 0-1.9 1-2.4.5-.3.6-.8.4-1.3-.2-.9.7-.6 1-.9.4-.3.2.4.4.6l.1.2a4 4 0 0 1 1.3 2.5c-.8.4-1.7.7-2.5.9z"/><path fill="#cdc7bd" d="M40.1 91.8c.3.3.7.6.5 1.1a57 57 0 0 1-6.9-3.7c.2-.7.9-.6 1.3-.4 1.6.9 3.5 1.7 5.1 3z"/><path fill="#2f251b" d="M40.1 91.8l-4.3-2.4c-.7-.4-1.4-.6-2.1-.2-.2 0-.4 0-.5-.3.2-.5-.4-1 0-1.6l6.6 3.7c.1.2.3.4.3.8z"/><path fill="#d2ccbe" d="M26.1 84.2c.3.5.9.9.8 1.6-1.5-.7-3.1-1.4-4.4-2.5l.6-.1c.3-.4.7-.5 1.1-.2.6.4 1.6.4 1.9 1.2z"/><path fill="#221d13" d="M47.6 95.3l1.2.6c.8.8 2.1.9 2.7 1.9-.4.4-.6-.2-1 0a8.2 8.2 0 0 0-3.9-1.5l.1-.3c.3-.4.4-.8.9-.7z"/><path fill="#141212" d="M57.4 94.9l1.5-1.4c.2-.1.3-.5.6-.1l-3.4 4.3c-.6-.7.3-1.1.4-1.6.2-.5.6-.8.9-1.2z"/><path fill="#413222" d="M16.3 64.6c-.6.3-1.3.1-1.7.8l-.3-.5c.2-.8.5-1.6 1-2.3.2-.1.4 0 .4.1 0 .6.5 1.2.6 1.9z"/><path d="M42.7 58.7c-.9-1-2.2-1.2-3.3-1.7a57 57 0 0 1-8.6-4.2c-1.3-.7-2.7-1-3.9-1.6-1.2-.6-2.2-1.4-3.5-1.7a.9.9 0 0 1-.6-.6c.5-.2.5-.7.3-1-.2-.3-.4-.7-.9-.5-.4.2-.7.1-.9-.3-.1-.3-.4-.4-.6-.3-1.2.6-1.6-.3-2-1.2l-.2-.5c-.4-1 .5-1.9 0-2.9-.1-.2.4-.4.7-.5 1.1-.3 1.9.4 2.7.8 3.5 1.7 7 3.5 10.6 5.1 4.1 1.9 8.2 4.1 12.4 5.8 2.1.9 3.7 2.4 5.9 3.1.7.2 1.4.6 2.2.7 1 .1 1.5 1.1 2.4 1.5 1 .4 1.9 1 2.8 1.5.1.2.1.5.4.6.3 0 .2-.3.3-.5.2-.4.6-.4 1-.3l.3.2c.3.7-.2 1.5.1 2.2l-.4 4.6c0 .4 0 .9-.5 1l-2.6-3.5c0 .5-.7.1-1 .2-.1.6.4.8.6 1.2-.5.2-.9.4-1.4.2-.3-.2 0-.5-.2-.8.1-.6.3-1-.7-1.2-1-.2-1.9-.9-2.9-1.4l-5.4-2.5c-.6-.3-.3-1.3-1.1-1.1l-2-.4z" class="st27"/><path d="M59 68.1c.4-1.8.4-3.6.5-5.5l.2-.3c.2-.7.4-1.3.2-2h-.1c1.1-1.5 2.4-2.7 3.5-4.2l4.1-4.9c.4-.5.7-1.1 1.5-1.1.2.3.1.6-.1.9-.3.5-.1 1 .5.9.2 0 .3-.1.4.1.8 1.2 1.1.1 1.5-.4l.2-.5c.4-.5.3-1.3 1.3-1.4.3 0 1.1-.8.5-1.8.9.6.8 1.2.3 1.6-1 .9-1.2 2.2-2.1 3.1-.3.3-.2.6.1 1 .5-.9 1.6-1.3 2.2-2.2.5-.3 1-.8 1.6-.5.7.4.5 1.1.4 1.8-.2 1.4-.7 2.6-1.3 3.9-.8 2.7-2.4 4.9-4 7.2-1.1 1.6-2.7 2.7-4 4.1-.3.3-.7.5-1 .3-.4-.2-.7-.6-.8-1.2-.1-1 .2-2 .4-3.1-.2.8-.4 1.6-.4 2.3-.1 1.5.3 2.1 1.8 2.2l.2.3c-1 1.3-1.3 3-3.1 3.6-.9.3-.1 1.2-.5 1.7-.3-.3-.6-.5-.8.2-.1.6-.3 1.2-1.3.7-.7-.3-1.5.6-1.7 1.1-.4 1.1-1.4 1.7-1.8 2.8-.7-.5 0-1.3-.6-1.7l.3-4.8c.4.2.9.6 1.3.3s.4-.8.4-1.3v-2.2c.6-.2.2-.6.2-1z" class="st28"/><path fill="#c2b7aa" d="M56.8 85.1v1.2c0 .3.3.8-.1 1-.4.2-.7-.1-1-.3l-1.1-.6c-1.3-.9-2.8-1.6-3.1-3.4-.2-1.2-.8-2.8-.2-3.7.6-.9.2-.8-.3-1.2-.1-.1 0-.5.1-.7.1-.3.4-.1.6 0 1.5.4 2.6 1.5 4.2 1.7.2 0 .7.8.6 1.4-.1.6-.2 1.3.1 1.9.5.3.5.8.3 1.3s-.3.9-.1 1.4z"/><path d="M56.8 85.1c-.4-.8-.1-1.8-.3-2.6l.1-2.1c.4-.2.3-1 .9-.9.7.1.5.8.7 1.2.2.6.6 1.1.9 1.6.4-.4-.2-.9.2-1.3.7 1 .5 2.4-.4 3.3l-.1-.2c.1-.5.2-1-.1-1.4h-.3c-.3.5-.2 1 0 1.5.2 1 .1 1.3-.8 2.2-.3-1-.1-1.8 0-2.7-.7.5-.7.5-.8 1.4z" class="st28"/><path fill="#9f937c" d="M48 79.3c-.8-1.2-2.8-.9-3.3-2.5-.2-.4 1.6.5.5-.7.7.4.7-1.3 1.6-.5.3.3 1.1.4 1.4.2 1.5-1 1 .4 1.1.9.1.4-.4.8 0 1.2-.6.2-.8-.6-1.3-.3 0 .4.4.4.6.6.1.1.2.2.1.3-.1.2-.2 0-.3 0-1.2-.3 0 .6-.4.8z"/><path fill="#5b4939" d="M16.3 64.6c-.8-.4-.6-1.4-1.1-2.1l1.1-2.8c.3 0 .4.2.5.5l1.1 4.1c-.4.9-1.1.4-1.6.3z"/><path fill="#4e402f" d="M34.9 77l-2.9-.9c-2.4-.6-3.6.7-2.9 3l.4 1.5c-1-1-1.7-2.1-1.5-3.6.2-1 .8-1.6 1.9-1.6 1.8.1 3.5.6 5 1.6z"/><path fill="#6c6050" d="M42.7 85.8c.7 1.3-.6 1.7-1.1 2.3-.3.5-.4.6-1.5.2a8 8 0 0 1-2.6-.9c-.5-.3-1.3-.2-1.5-1.2 2 .8 4 2.2 6 .4.4-.2.2-.8.7-.8z"/><path fill="#453726" d="M24.6 74.9c-1.3-3.7 1.1-5.3 4.6-4.7l1.2.3.9.4c-1.2-.3-2.5-.6-3.7-.1-.8-.2-1.4.3-2 .5-.9.8-.8 1.9-.7 3 0 .3.2.7-.3.6z"/><path fill="#4b3c2d" d="M42.4 88.4c2.3-.1 3.3-1.5 2.9-3.9-.1-.5-.3-1-.2-1.5 1.2 1.1 1.5 4 .5 5-.8.7-1.9.8-3 .6-.3 0-.3 0-.2-.2-.1 0-.1 0 0 0z"/><path fill="#362b1f" d="M26.1 84.2c-1-.4-1.8-1.5-3.1-1-.9-.2-.7-1-1.2-1.9l4.3 2.3c.2.1.8.4 0 .6z"/><path fill="#c5bbac" d="M54.3 65.4c.3.2.2.5.2.8.1 1.4-.2 2.8 0 4.3a7.2 7.2 0 0 1-.8-3.5l.6-1.6z"/><path d="M59 69.3v.5c-1.7-.6-1.8-.9-1.1-2.8 0 1.1.6 1.6 1.1 2.3z" class="st27"/><path fill="#595039" d="M24.6 74.9c.2-.1.2-.4.3-.6l1.4 3.5a5 5 0 0 1-1.7-2.9z"/><path fill="#cac1b3" d="M33.8 85.1c-1.1-.2-1.9-.6-2.2-1.8l2.2 1.8z"/><path fill="#493a2b" d="M42.7 85.8c-.2.3-.3.7-.7.8.3-1 .1-1.9-.4-2.8-.1-.3 0-.3.2-.2.5.6.9 1.3.9 2.2z"/><path fill="#726655" d="M45 83c-.9-.4-.7-1.5-1.2-2.1.7.5 1.2 1.1 1.2 2.1z"/><path fill="#ddcfc2" d="M42.4 88.4v.2c-.8.5-1.6.1-2.3-.2l-.1-.2.1-.1c.5.1 1 .5 1.5-.1l.8.4z"/><path fill="#e3dbc8" d="M40.1 88.2v.2c-.9-.1-1.9-.2-2.5-1l2.5.8z"/><path fill="#d3c6b5" d="M25.6 71.4c.6-.4 1.1-1.2 2-.5-.7 0-1.2.7-2 .5z"/><path fill="#584d3b" d="M34.9 77c.7 0 1.2.5 1.6.9-.6-.1-1.2-.3-1.6-.9z"/><path fill="#716453" d="M41.9 83.5l-.2.2a3 3 0 0 1-.8-1.6c.5.5.8.9 1 1.4z"/><path d="M66.4 68.5c-1.3.5-2-.1-2-1.6 0-1.2.4-2.4.8-3.6 0 1.1-.5 2.1-.4 3.2 0 .5.1.9.4 1.3.3.4.8.3.9.1.9-1.5 2.6-2.2 3.7-3.6 1.7-2.3 3.1-4.6 4.2-7.2l.4-.5c.3 1.1-.1 1.9-.7 2.8-1.9 2.8-3.5 5.8-6.1 8.2l-1.2.9z" class="st47"/><path d="M74.4 56.6l1-3.3c.5-2 .1-2.4-1.7-1.9v-.1c.5-.7 1.3-1.1 2-.8.6.3.5 1.2.3 2l-.8 3.1a7 7 0 0 1-.8 1z" class="st47"/><path fill="#342415" d="M76.5 53.5c.2-.9.3-1.9 1-2.6-.1 1-.3 1.9-1 2.6z"/><path fill="#2b1c10" d="M75.5 55.6c.2-.8.5-1.5 1-2.1a3 3 0 0 1-1 2.1z"/><path d="M12.4 44c-.3-1-.6-1.9-1.5-2.5-.5.4.3.5-.1.9l-1.4-.8c-.7-.6 0-1 .4-1.4l.5.6c-.2-.2-.4-.3-.5-.6.5-1.2 1.2-.3 1.8-.1.3-.7-.5-.7-.8-.9-.5-.5-.7-.9 0-1.3.5-.2.8.2 1.1.4.2.2.4.5.2.8-.3.4.1.7.2.9.1.2.2-.1.1 0l-.1-.1c-.1-.2-.3-.5-.3-.8.4-.3.9 0 1.3-.1l.3.2c.1 1 .2 2.1 1.3 2.8l.9.6c.5.4 1.5.4 1.4 1.5-.1.4.6.6.8 1 .9 1.1-.1 1.1-.8 1.3-1.7-.5-3.2-1.6-4.8-2.4z" class="st27"/><path fill="#9c8d74" d="M17.3 46.3l-.5-.8c.4-.1.5.2.7.4.2.1.5.3.7 0 .2-.3-.3-.4-.4-.6.2-.2.4-.4.8-.3l.1.3c.4.5 1.5.9 2.3.9.2 0 .3-.1.4.2.2.3 0 1.5.8.3.1-.2 1.5 1.1 1.3 1.3-.3.3.6 1.5-.7.9-2-.6-3.8-1.5-5.5-2.6z"/><path fill="#8e7f6b" d="M42.7 58.7c.8-.6 1.2-.3 1.6.5-.8.2-1.4.4-1.6-.5z"/><path d="M11.9 38.3c-.4 0-.7-.4-1-.6l-1-.8c0-1.2.8-.3 1.2-.5-.9-.4-1.5 0-2.1.6-.3-.1-.4-.3-.5-.5-.1-.8.4-1.1 1-1.2l1.3-.3c2.2.5 4.2 1.6 6.2 2.6l11.6 5.6 5.3 2.4 5 2.5L43 50l8.2 3.9c.6.3 1.2.5 1.7.9l4.1 1.9c.7.4 1 0 1.4-.4L63 51l6.8-7.6a52 52 0 0 1 3.7-4.3c1.2-1.1 1.9-2.7 3.3-3.6.7.4 1-.7 1.7-.5.6.4 1.4.3 1.8.9-1.4 2.2-3.1 4.1-4.7 6L70 48.6c-.4.5-.4 1.2-1.1 1.5-2.4 2.4-4.5 5.2-6.7 7.9-.7.8-1.4 1.7-2.4 2.3-.3.1-.7-.1-1 .2-.3.4-.5.4-.8 0-1.6-.3-3-1.3-4.1-2.1-1.6-1.3-3.7-1.2-5.2-2.5-2.1-1.8-4.8-2.3-7.1-3.6-1.1-.6-2.4-.9-3.4-1.6-1.2-.8-2.7-1.1-3.9-1.9-1.5-.9-3.2-1.7-4.9-2.3-.7-.3-1.4-.5-2-.9-.5-.3-.8-.7-1.6-.5-.6.2-.8-.9-1.5-1.1-1.2-.5-2.3-1.4-3.7-1.5-.6 0-.7-1.2-1.5-.6-1.9-.7-4-1.2-5.4-2.8h-.2c-.7-.1-.9-.9-1.6-.8z" class="st52"/><path fill="#c9bfb4" d="M80.2 36c-.6-.3-1.5 0-1.9-.8.3-.3.7-.4 1-.8.4-.2.8-.1 1.3-.1.1.1.1-.1.1-.1-.3 0-.5-.1-.6-.4l-.4-.8-.1-.3c.3-1 1.4-1.5 1.7-2.7.1-.3.5-.3.8 0 0 .7.2 1.2 1 1.4 1.1.3-.2 1 .1 1.5l-.1.4c-1.2.8-1.8 2-2.9 2.7z"/><path fill="#29180c" d="M78.1 49.3l.4-3.1c.1-.7 0-1.3-.4-1.8-.3-.4-.1-.6.1-.7.3-.2.4.2.5.4.5 1.2 0 2.4-.1 3.7.1.4.1 1-.5 1.5z"/><path fill="#2d2f33" d="M7.5 33.4l-.3-.2c-.5-.6-.3-1 .3-1.3.9-.4 1.6-1 2.3-1.8.5-.5.7-1 .1-1.5-.4-.4-.5-.9-.4-1.4l.4-.3c.6.3.7-.9 1.4-.4.6.5 0 1 .1 1.5.1.3.1.7.7.4 1-.5 2.1-.9 2.6-2.1.1-.2.3-.4.6-.5 2.1-.7 3.5-2.4 5.1-3.7.5-.4 1.3-.4 1.5-1.2.7-.7 1.4-1.3 2.3-1.9a11 11 0 0 0 3-3.1c.1-.2.2-.5.4-.5.9-.1 1.3-.6 1.5-1.5.1-.5.6 0 .9-.2 1.4-1 3.1-1.8 4-3.4.5-.8 1.4-1.4 2.2-1.9 1.5-.9 2.8-1.8 3.3-3.6.4-.1.7.1.8.5.2.9.7.5 1.2.3.5.2.4.6.4 1l-.5.8c-2.8 2-5.2 4.3-7.8 6.5a51 51 0 0 0-2.4 2.3c-3.6 2.9-7 5.9-10.5 8.9L12.6 32c-.7.6-1.3 1.3-2.1 1.7-.4.2-.7.5-1.2.5-.6 0-1.1-.2-1.5-.5l-.3-.3z"/><path fill="#474038" d="M39.6 4.9c0 1.6-.9 2.5-2.3 3.1-1.1.5-2.4 1.4-2.7 2.1-.6 1.3-1.9 1.6-2.7 2.5-.5.6-1.5.7-1.8 1.3-.5 1-.5-.5-.9 0-.3.4.5 1-.1 1.1-.2.1-.4 1.2-.7.1l-.6.3c-1 2.6-3.7 3.5-5.5 5.4-1-.3-1.3-.9-.7-1.5 1.1-1 .6-1.4-.4-1.9 3.1-2.6 6.1-5.2 9.3-7.7l8.4-7 .8-.4h.3c.2.9.8 1.9-.4 2.6z"/><path d="M21.1 17.5c.9-.1 1.4.3 1.4 1.2 0 .1.1.3-.2.4-1.1.6-1.1.9 0 1.8-.3 1.2-1.5 1.4-2.3 2-.9.8-2 1.5-2.8 2.4-.3.3-.8.5-1.2.6-.6.1-.7.3-.9.9-.3.7-1.2 1.3-2 1.6a7 7 0 0 0-1.7.9c.2-.9-.4-1.6.1-2.4.1-.2-.1-.2-.2-.3-.3-.2-.4.1-.5.3-.2 1.1-.5-.1-.7 0l11-9.4z" class="st57"/><path fill="#b1ada0" d="M41.6 6.7c.2-.4.1-.7-.2-1-.2-.2-.3-.4-.2-.7.3-.7.6-1.1 1.3-.2.3.4 1.3.4 2 .2.8-.2 1.4-.8 2.3-.9l.2.3c.3.3-.1.7.1 1.1.6.1.7-1.1 1.5-.6.8-.1 1.7.7 2.4-.6-.4 1.1-.7 1.8.8 1.4.5-.1.7.4 1 .7.4 1 1.3 1.7 1.9 2.6-.1.5-.5 1.1-.9.8-1.1-.8-1.6.1-2.2.6-1.5-.4-2.9-.8-4.3-1.4-1.7-.7-3.5-1.4-5.3-1.9-.2-.1-.4-.2-.4-.4z"/><path d="M9.6 27.2c.4.5.4 1.1.9 1.5.3.3.6.9-.2 1.4-1 .7-1.7 1.7-2.9 2.1-.5.2-.1.6-.2.9-1-.2-1.8-.8-2.6-1.3-.3-.2-.4-.6 0-.6 1 0 1.3-.8 1.9-1.3l3.1-2.7z" class="st57"/><path d="M46.8 4.1c-.1.3-1.3 0-.5.8.2.2-.3.5-.4.4-1-.8-2.1.8-3.1-.3-.4.6-.5.2-.6-.1-.3-1-.6-.4-.9 0-.7-.4-.6-1.2-1-1.8-.2-.3-.1-.8-.6-.9h-.2c.1-.3-.4-.8.1-1 .4-.2.7-.1.9.4.1.4.2.2.4 0 .2-.3.6-.2.5.4 0 .4.4.1.6.2.6.3 1.3.4 1.8.8 1.2.1 2 1 3 1.1z" class="st59"/><path d="M9.3 34.2l1-.6c.3.2.1.6.3.9.1.2.4.4.3.7-.7.7-2 .1-2.4 1.3-.7-.4-1.5-.4-2-1.1l1.2-.4c-.2-.6-.9-.7-1-1.3.2-.3.7 0 .8-.4l.3.2c.2.7 1.1.5 1.4 1l.1-.3z" class="st60"/><path d="M48.6 4.9c-.5 0-.6.5-.9.7-.2.2-.4.6-.8.4-.5-.2-.2-.6-.1-.9l.2-.7h1.5l.1.5z" class="st59"/><path fill="#c2b8a9" d="M44 3.1c-.6-.2-1.5.1-1.8-.8.8-.3 1.4.1 1.8.8z"/><path d="M81.9 30l-.5.1c-.1 1.3-1.3 1.8-1.9 2.8-.3.8-1 1.1-1.6 1.4l-.1.1c-.5.2-1.1.6-1.5.1-.4-.5.3-.9.2-1.4 0-.2-.1 0-.2 0a9.1 9.1 0 0 0-5-1.5c-.2 0-.4-.1-.4-.4 0-.2.2-.4.4-.5l.9-.3c.3-.3.5-.6.4-1-.1-.4-.5-.6-.9-.6s-.7.4-.6.7c.3 1-1.3 1.9-.1 2.9.2.2-.2.7-.6.7l-1.7-.2c-.3-.1-.5-.4-.3-.7.3-.4.2-1 .7-1.4.4-.3.4-.8.1-1.2-.4-.6-.5-1.2 0-1.9.4-.6.3-1-.5-.8-.6.1-1-.1-1.2-.6-.7.3-.8 1.4-1.4 1.2-.7-.2-.8-1-.9-1.9-.2.8-.2 1.3-1 1.4-.6.1-.6.7-.8 1.1-.2.3-.4.6-.8.5-.5-.1-.5-.4-.4-.8.1-.3.1-.5-.3-.4-.3.1-.8.1-.8-.4 0-.4-.2-1 .3-1.3.8-.5.6-1.1.4-1.8.1 1.2-.7 1.8-1.9 1.3 0 .2.2.3.4.5.3.3.8.6.5 1.1-.3.5-.7.1-1-.1-.7-.3-.9.1-.7.7.2.5.1.7-.3 1-.4.3-.7.1-1-.3-.2-.3-.5-.5-.8-.6-.5-.2-1-.5-1-1.1 0-.7.8-.2 1.1-.9-.7.4-1.2-.2-1.9.1-.2.1-.3-.1-.5-.2-.4-.3-1.1-2.3-.9-2.8.2-.5.5-.8 1.2-.8.9.1 1-.3.4-1-.3-.3-.3-.6-.2-.9.1-.5-.1-.8-.7-.9.1.8.5 1.4 1 1.9.2.2.3.5.1.7-.2.2-.4.1-.6.1-1-.1-2-.8-3.1-.2-.2.1-.5-.1-.5-.4 0-.4-.1-.9.3-1.4-.8.6-1.6.4-2.4.6-.3.1-.5-.1-.6-.4-.1-.3.1-.5.3-.7.5-.4 1.1-.2 1.8-.2-1.3-.5-.1-1.2-.2-1.7l-.1-.1v.1c0 .8-.5 1.3-1.3 1.6-.5.2-1 .1-1.2-.4-.2-.5.3-.6.6-.9l.6-.4c-1-.9-2.2-1.6-3.2-2.8-.1.6.2 1 .1 1.4-.1.4-.2.8-.8.7-.4-.1-.7-.3-.8-.8-.1-1.3-.5-2.5-.5-3.8 0-.2-.3-.3-.5-.4.1.1-.1-.1-.1 0 1.1 1.4.5 2.5-.8 3.3-.6-.6-.7-1.4-.8-2.1L41 9.1l-.3-.9c.2-.4.5-.4.8-.3l11.1 4.4c2.5.9 5 1.9 7.4 3l2 .8c3.8 1.2 7.3 3.1 11 4.5s7.3 3.1 11.1 4.4c.4.1 1.1.1 1 .8-.2.3-.8.1-.8.5.1 1.8-1.6 2.5-2.4 3.7z" class="st62"/><path fill="#b9b2a7" d="M51.5 10.3c.6-.7 1-1.9 2.2-.7.2.2.6-.4.9-.6 0-.6.4-.2.6-.2 1.3-.2 2.2.8 3.3 1.1 1.2.3 2.3.8 3.3 1.6.4.3 1.1-.1 1.3.6l.4.3c.1 1.4.8 1.1 1.6.6.6-.4 1.3-.1 1.7.2.6.4 1.1.3 1.7.4.6.5 1 1 .5 1.8a4 4 0 0 1 3 .3c1 .5 1.9 1.5 3.2 1.3a2 2 0 0 1 2 1c.2.3 1.1.7 1.7.3.7-.4 1.3-.3 2-.1.9.3 1.9.1 2.9.3.9-.2 1.5.2 2 .8-.4.4-.7-.1-1.1-.1-.6.1-1.2.1-1.1.9 1.1-1.1 1.4-1.1 1.7 0 .1-.3.2-.7.5-.9.6.4 1.5-.1 2.1.5l-.3.5c-.4.7-.5 1.2.5 1.2.4 0 .7.1.8.6-.4 1.1-1.4 1.7-2.3 2.3l-.8-.1-11-4.4a1105 1105 0 0 0-16.3-6.5c-2.1-.8-4.2-1.8-6.3-2.5-.3.1-.8.1-.7-.5z"/><path fill="#dfd8cb" d="M51.5 10.3l9.4 3.7c2.1.9 4.2 1.9 6.4 2.6l6.1 2.3c1.7.6 3.3 1.3 4.9 2.1 2.2 1.1 4.7 1.7 6.9 2.8.5.2 1.1.4 1.5.8-.3.6-.9.8-1.4 1.3l-6.2-2.5-3.9-1.6-6.4-2.6c-3.3-1.3-6.5-2.8-9.8-4-2.9-1-5.7-2.4-8.7-3.3-2.2-.7-4.4-1.8-6.6-2.8-.7-.3-1.6-.3-2.2-1-.2-.2-.4-.4-.3-.8-.1-.3 0-.5.3-.6 2.5.4 4.7 1.6 7 2.4 1.1.4 2.1.5 3 1.2z"/><path d="M83.8 18.6c-1.3.8-2.5-.2-3.7-.1-.1 0-.1-.5-.2-.3-1 1.5-2.1-.2-3 .2-.2-.5.5-.6.4-.5-.8.1-1.3-.9-2-.6-.7.3-1.1.1-1.5-.5-.5-.7-1.1-.9-1.8.2 0-.8 0-1.4-.7-1.6-.4.3.2.6-.1.9-.3.1-.3-.2-.4-.4-.1-.3 0-.6-.5-.7-.5-.1-.4.3-.4.6-.1.3-.3.5-.4 0-.1-.4-1.1.4-.6-.3.5-.8-.3-1.2-.2-1.8-.3-.4-.1-.6.3-.8 2.1.7 4.2 1.5 6.2 2.5.5.3 1 .5 1.6.2.2.3.2.9.7.2 1.8 1.2 4.2 1.6 6.3 2.8z" class="st65"/><path fill="#aba293" d="M88.9 22.2l-.6-.4c-.8.5-1.2.1-1.3-.6-.2-.8.4-1.1 1-1.4.6 0 1 .5 1.5.7.5.5-.1 1.3-.6 1.7z"/><path fill="#786e5a" d="M77.3 15.8c0 .4 0 .9-.5.8-.7-.1-.1-.7-.2-1l.7.2z"/><path d="M9 37c.3-1.1.9-1.2 2.4-.4l-.6.3c-.3.1-.3-.1-.4-.2-.4-.3-.5.1-.6.4-.2.2-.5.2-.8-.1z" class="st60"/><path fill="#a7a08e" d="M68.8 12.9l-.3.8c-.5-.2-.7.3-1 .6-.4-.9-1.7-1.4-2.4-1-1.5.8-1.9.7-1.9-1.1l-.6.7c-.3-.4.1-.8 0-1.3-.8.9-1.3-.1-1.8-.4a7.6 7.6 0 0 0-4.2-1.2c-.3-.3.5-.5.2-1-.8.6-1.6-.1-2.4-.1-1-.6-1.8-1.3-1.8-2.6 1.7.7 3.4 1.5 5.2 2 1.7.5 3.2 1.3 5 1.2h.2c1.5 2.2 4.4 1.5 5.8 3.4z"/><path fill="#a39885" d="M14.2 63.2c-.3-.1-.4-.3-.4-.6-.1-.3.2-.4.4-.4s.5.1.4.3c0 .4-.1.7-.4.7z"/><path fill="#544b3c" d="M47.6 95.3l-.7.6c.2-.5-.8-.4-.4-.8.3-.5.8-.1 1.1.2z"/><path d="M13.7 39.1c1.7 1.1 3.8 1.6 5.4 2.8.2.3-1.1.1-.3.7.4.3.2.7 0 .9-.4.5-.3 1-.3 1.5l-.8.3c-.3-.6-1.4-1-.8-2-.7.2-.9-.7-1.5-.6h-1c0-.4.5-.2.6-.6-1.2-.5-1.7-1.6-1.3-3z" class="st10"/><path fill="#2d1e15" d="M59.8 60.3c.9.7 0 1.4.1 2.1h-.1l-.1-.1c-.5-.7-.1-1.4.1-2z"/><path fill="#665749" d="M57.9 60.5c.3.2.5.2.8 0 .2.3.2.6.2 1.1-.4-.5-1.2-.3-1-1.1z"/><path d="M11.9 38.3c.3 0 .8-.8.9.2 0 .2.4.4.6.6-.4.8-.9 0-1.3 0l-.2-.8zM9.8 40.1l1.6.8c-1.1.5-1.4 0-1.6-.8z" class="st10"/><path d="M12.2 39c.1.5.6.8 1.2 1.4-1.2-.2-1.6-.5-1.2-1.4-.1 0 0 0 0 0z" class="st10"/><path d="M42.9 14.8c.1-.6.9-.9.4-1.7-.3-.4.8.4.7-.4-.1-.6-.3-1.1-1.2-1 .6-.8 1.4.1 2-.4-.6.6-.4 1.2-.1 1.8.2.4.5.7-.2.8-.2 0-.2.4.1.4.9.1.8.6.6 1.2-.1.2-.4.5 0 .6.2.1.6.3.7.2.2-.2.2-.5.3-.8l-.1-.3c-.2-.3-.5-.8-.1-1 .2-.1.8.1 1.1.5.6.9 1.5 1.4 2.4 2 .3.2.5.3.6.6.1.4-.3.4-.6.4l-1 .5c1.4.8 2 .2 2.1-1.8.8.7.8.7.4 1.5-.2.5-.5 1 .4.6l.4.3c.2.3-.2.3-.3.4-.5.4-1.2-.2-1.7.2-.2.1-.6.1-.5.5.1.4.4.1.6.1 1 .1 1.9-.3 2.8-.6-.8.5-.6 1.3-.6 2 .7.1 1-.7 1.6-.9.1 1.5 1.6.3 2.1 1.2.1-1.2-1.9-1.7-.9-3.2.5.5 1.9.5 1 1.9l.3.4c.2.2.7.5.4.8-.3.3-.5.9-1.2.6-.6-.2-.8.2-.8.8.7-.1-.8 1.3.6.8.5-.2.3.4.2.7-.2.3-.3.6 0 .9.3.3.5.2.7-.1.2-.3.4-.2.5.1.1.2.2.3.5.3s-.1-1.2.6-.4c.3.3.4.8.1 1.2-.3.4-.6-.4-1.1-.1 0 .5.5.7.9.9.3.2.7.1.9.5.2.2.2.8.7.5.5-.3.1-.5-.1-.8-.5-.7.5-.7.7-1.2.2-.5.4 0 .6.1.2.1.4.5.7.4.4-.9-2.3-1-.7-2.3.5 0 .3 1.2.9.7.2-.2 1.5-.3.6-1.2-.1-.1-.2-.4.1-.5.2 0 .5-.1.6.3.1.8.8 1.7-.5 2.3-.5.2.3.8-.1 1.3l.7-.3c.3-.1.5-.1.7.1.2.3-.1.5-.2.6-.2.2-.4.4-.1.6.3.2.5 0 .7-.4.3-.5-.2-1.9 1.3-1.3.2.1.2-.3.2-.5 0-.6.3-.9 1.1-.8-.8.8 0 1.4.1 2.2l1-1.5c.2-.2.4-.4.6-.4.3.1.3.3.3.6-.1.6.3.6.6.3.4-.4.8-.3 1.1.1.4.4.3.8-.1 1.2-.5.5-.5 1 0 1.5l.3.3c.1.4-.9 2.5-1.4 2.8.6.3 1.4-.1 1.9.4l.4-.3c.1-.2-.1-.2-.3-.3-.7-.2-.5-.9-.3-1.1.5-.5.5-1 .5-1.6 0-.6.4-1.4.9-1.3.5.1 1.6.2 1.5 1.1-.1.7-.2 1.8-1.5 1.5-.2 0-.3 0-.6.5 2.6-.6 4.4 1 6.6 1.8-1.3-.4-.3 1.1-1.1 1.1l.4.2c.4.1.6-.4 1-.5.2.9-.5 1.3-1.1 1.8-.4.1.2 1.2-.8.7l-.7.9c-.3.5-.5 1-1.1 1.4-1.1.8-2 2-2.9 3.1a49.3 49.3 0 0 1-4.2 4.9c-3.1 3.3-6 6.8-9 10.2-.4.4-.8.4-1.2.2-1.3-.8-2.8-1.4-4.2-2-.4-2.1-1.1-4.2-1.6-6.3L46.8 31c-.5-2.6-1.3-5.2-2-7.8-.1-.5-.3-1.1-.2-1.6.2-.1.3-.4.2-.7l-.1-.5-.1-.6c0 .2 0 .4-.3.4-.7-.6-.7-1.4-.6-2.2.7-.7.5-1.6-.6-2-.5-.6-.5-.9-.2-1.2z" class="st2"/><path d="M10.9 35.1l-.5-.5c.1-.5.3-.9.7-1.2l6.3-5.3 8.6-7.4c.6-.5 1.1-1 1.9-1.3.7 0 1.2.4.9 1.1-.2.4.1.4.2.5.4.4.6.8.4 1.4-.1.1-.1.2-.3.2-.5.1-.7.6-1 .9-.4.5-.9.9-1.6.3.1.2-.1 0 0 .1.7.9.6 1.7-.4 2-.8.3-.6 1.4-1.4 1.4.4-.1.9-.3 1.4 0 .7.3 1 .7.7 1.4-.1.2-.3.4 0 .7h.3c.2-.2.3-.4.3-.7 0-.3-.3-.5-.4-.8-.2-.3-.4-.6-.1-.9.3-.4.7-.2 1.1-.1.6.3.8 1 1.5 1.2-1.1-.6-1.3-1.9-2.1-2.8a.5.5 0 0 1 .1-.8c.3-.3.8-.3 1.1 0 .5.7 1.3.8 2 1.6-.4-.8-.3-1.1.4-1.3.7-.1 1-.5.2-1.1-.7-.5-.2-.9.3-1.2.5-.3.9-.6 1.1-1.1.1-.4.5-.4.8-.1.8.9 2 .4 2.9.6.5.1.7-.5.8-.9.1-.7.4-1.4.3-2.2-.1-.5-.3-1.1 0-1.4 1.2-1.5.3-3.2.8-4.7l.3-.5c.6.6 1.5-.4 2.1.3l.1.3c0 .7.2 1.3.3 1.9l-.1.5c-.1.2-.5.4-.4.6.2 1-.5 2-.4 2.9.1 2.5-1 4.7-1.4 7.1-.3 1.4-.6 2.9-1.3 4.3-.7 1.3-.8 3-.7 4.5.1 1.5-.5 2.7-.6 4-.1.7-.3 1.4.4 2 .3.2.5.6.2 1-.2.4-.5.3-.9.2-.9-.2-1.3.5-2 .9.5.4.8.1 1.2.1.5 0 .9.2.9.7.1.6-.2.9-.7 1.1h-.9c-.4.1-.5.2-.2.5.2.3.1.5-.2.6-3.1-1-5.9-2.8-8.9-4.1-4.8-2-9.3-4.6-14.1-6.5z" class="st3"/><path d="M46.8 30.8l5 19.1 1.2 4.5c.1.2.5.7-.2.8-2.6-1.5-5.3-2.7-8-4l-1.8-.9c-.4-.3-.9-.6-.1-1.1.1 0 .1-.1 0-.1-.6-.4-.5-1.1-.5-1.6.2-3.3-.3-6.6-.5-9.9-.2-2.4-.2-4.7 0-7 .1-.5.1-1.1.8-1.1.3 0 .4-.3.4-.5.1-.4.2-.7.7-.6.3 0 .6.3.6.6 0 1.1.8 1.5 1.7 1.7l.3.2c-.1.7.2-.4.4-.1z" class="st0"/><path d="M33.9 45.8v-.5c0-.3-.8 0-.4-.6.3-.4.5-.9 1.1-.4.3.2.6.1.8-.1.3-.2.3-.4.2-.7-.1-.3-.4-.5-.7-.4-.3.1-.6.3-1 .3a1 1 0 0 1-.8-.4c-.1-.4.1-.6.4-.7.6-.3 1.2-.3 1.6-1 .1-.3.4 0 .5.2.2.2.5.5.8.1.2-.3 0-.6-.1-.7-1.8-1.4-.3-2.9-.2-4.4 0-.5.2-1 .1-1.6-.2-1 .2-2.1.3-3.1.1-1.1.7-2.1 1-3.1l1.4-5.7c.1-.7-.5-1.7.8-1.8.2 0 0-.4 0-.6-.2-1.2-.2-2.3.4-3.3.3-.5 0-.9 0-1.4 0-.5.2-.8.7-.8.2-.1.3 0 .3.2.2 1.2 0 2.4.5 3.5.1.2-.2.4-.3.5-.4 1.6-.6 3.3-.4 4.8.3 1.7 0 3.3-.4 4.9-.4 1.8.5 3.6.3 5.4 0 .4.1.8-.1 1.1-.4.7-.6 1.4-.1 2.2.3.4.1 1-.1 1.4-.6 1-.5 1.9 0 2.8.6 1.2.7 2.3-.1 3.4-.2.2-.3.5-.2.8.6 1.5.4 1.8-1.3 1.8l-.3.2c-1.5-.6-3.1-1.5-4.7-2.3z" class="st73"/><path fill="#2e261f" d="M38.8 48.3c.1-.6.5-.5.9-.4.5.1.7-.2.9-.6.1-.4.1-.7-.5-.7s-.2-.6-.1-.8c1.2-1.3 1-2.6.2-4-.5-.9-.4-1.7 0-2.6.3-.5.7-1.2-.1-1.8-.3-.2-.3-.5-.1-.8.9-1.5.8-3.1.4-4.7-.3-1.2-.2-2.4-.1-3.5.1-.7.5-1.4.6-2.2l-.1-1.1a14 14 0 0 1 .4-6.1c.6.3.8.7.7 1.3-.1 3.1.2 6.3.2 9.4l.1.3-.1 4.4c0 1.6.6 3.2.5 4.7-.3 2.4.5 4.7.2 7-.1.8-.5 1.8.4 2.5.3.2-.1.2-.2.3-.8.3-.1.7 0 1-1.5-.4-2.8-1-4.2-1.6z"/><path fill="#c5bdb2" d="M76.8 35.7c.2-.7.9-1.1 1.1-1.8.8 0 1.1-.8 1.8-1.1.4.4.5.7-.1 1-.1.1-.7.2-.2.5.1.8-.5.8-1 .8-.5-.1-.4.4-.6.6-.5.6-.7.2-1 0z"/><path d="M79.4 34.4l-.6.1c-.1-.8 1.2-.7.9-1.6.3 0 .6.1.7.5 0 .1-.1.3 0 .4.2.7.2.7-1 .6z" class="st52"/><path fill="#d4cfc6" d="M27.9 19.6l-11.3 9.6-6.3 5.4c-.5-.3.1-.7 0-1l20.6-17.7c.2.1.4.3.4.6-.6 1.1-1.5 1.8-2.4 2.6l-1 .5z"/><path fill="#cfccc6" d="M31.3 16.5l-.3-.6c3.4-3 6.5-6.2 10.3-8.6.2.2.4.5.3.8-.3-.1-.6-.1-.8.2-.2.9-1 1.3-1.6 1.8-2.7 2.1-4.9 4.6-7.7 6.6l-.2-.2z"/><path fill="#241f1a" d="M39.8 2.3c.1-.7.4-.4.5-.1l1 2.7.1.7c-.2.4-.4.8-.9.7-.4-.1-.5-.4-.5-.8 0-.3-.1-.6-.5-.6.8-.8.2-1.7.3-2.6z"/><path d="M9.3 34.2l.4.8c-.8-.1-1.1-1.1-2-.7v-.8l1.6.7z" class="st8"/><path fill="#4b4337" d="M31.5 16.5c2.1-2.1 4.4-4 6.6-5.9l2.7-2.3c.3 0 .5.2.5.5-.4.9-.4 1.7-.2 2.6.1.6 0 1-.6 1.2-.9-.8-.7.4-1.1.6-.6 0-.1-.5-.3-.7-.2-.1-.4-.3-.5-.2-.2 0-.3.3-.2.5.4.7.1 1.2-.2 1.8-.2.3-.1.6.2.8 1 .5.6 1-.1 1.3-.6.2-.6.5-.5 1.1.1 1.5.2 2.9-.6 4.3-.1.2-.2.5-.3.4-.9-.6-2-.1-2.9-.3-.5-.1-.4-.6-.9-.9.1 1.4-1.5 1.2-1.9 2.2.5.5.8-.4 1.1.1.3.6-.5 1-.4 1.7 0 .4-.7-.3-1.1.1-.2.3.2.4.3.5.3.3.3.6-.1.8-.3.2-.6.1-.7-.3-.3-.9-1.7-.4-1.9-1.6 0-.1-.5-.1-.7.1-.2.1-.2.3 0 .4.7.6 1.1 1.4 1.5 2.3.3.5.8.4 1.3.3-.8.9-1.1.9-1.7.2l-.6-.7c-.3-.2-.7-.6-1-.1-.2.3.1.6.4.8.6.3.5.9.3 1.2-.2.3-.5.8-1 .8-.6.1-.5-.5-.7-.8l-.1-.2c.1-1.5-.1-1.6-1.8-1.1-.2.1-.4.2-.7 0 .5-.6 1.8-.7 1.5-1.9V26c.7-.6 1-1.2.9-1.9l.1-.4c1 .7 1.6.5 1.9-.7.2-.8.7-.1 1-.2.8.9.7-.2 1-.4-.3.3-.4.8-1 .4.3-1.1-.9-1.3-1.3-2 .2-.5.6.3.7-.2.1-.5-.3-.6-.8-.7l.8-.7c.3 0 .8.8 1 0 .4-1.8 1.6-1.1 2.7-1.1h.1l-.7-1.6z"/><path fill="#1e1e1d" d="M40.6 12.7c.6-.9 0-1.8.2-2.7.1-.5.1-.9.6-1.2.6 2 .8 4 1.6 5.9 0 .4-.1.8.3 1.1.4.5.7 1.1.6 1.7 0 .8.1 1.6.5 2.3.3.4.3.8.3 1.3l2.2 8.9.1.6c-.3.2-.2.5-.4.8.1-.9-1-1.1-1.2-1.1-1.1.2-1.1-.7-1.2-1.3-.1-.4.1-1-.5-.9-.5.1-.1.5-.1.8 0 .5-.1.8-.7.5-.7-.4-.5.2-.6.6-.7-.6-.3-1.4-.4-2.1-.4-2.6-.3-5.3-.1-8 0-.5-.4-.7-.5-1l.3-.1c-.7-1.2-.3-2.5-.6-3.7v-.5c-.2-.6.2-1.3-.3-1.8l-.1-.1z"/><path d="M58.3 21c1.7.6 1.9-.8 2.6-1.4l.5 1.6c.1.3.3.5 0 .8-.3.3-.7.5-.9.3-.6-.7-1.5-.4-2.2-1.3zM55.4 24.3c.3-1.5 1-1.8 2-1.1.3.2.3.3.1.5-.1.2-.2.4-.6.3-.8-.4-.8-.3-1.5.3z" class="st2"/><path d="M85.8 19.4c-.1.5-.3.9.4 1.5-1.1-.1-.8-.9-1.2-1.2-.5.2-.9.5-1.2 1-.4-.4-.1-1.1-.5-1.7l2.5.4zM75.2 17.6l.9.6c-.7.3-.7.3-.9-.6z" class="st65"/><path d="M47.3 19.1c-.8 0-.2-.7-.5-.9l-1.1.9c-.3-1-.1-1.8.3-2.7.2-.4.4-.5.7-.5.4 0 .4.3.5.6.5.9 0 1.8.1 2.6zM43.7 17.6a5 5 0 0 1-.6-1.7l.1-.7c.1.7.7 1.3 1 1.8.7 1.1-.5.2-.5.6zM44.5 21.2c-.2-.4-.3-.8-.3-1.3v-.4c.2-.3.2-.1.2.1.3.6.1 1.3.8 1.7-.3.3-.5 0-.7-.1z" class="st62"/><path d="M47.3 19.1c.7.2.1 1.2 1 1.2-1.3 0-1.5-.2-1-1.2zM50.1 22.6l-.3 1.1-.3-.2c-.3-.5 0-.7.6-.9z" class="st62"/><path d="M40.6 12.9c1.1.5.2 1.2.3 1.8-.4-.5-.6-1.1-.3-1.8z" class="st73"/><path d="M31.5 16.5c.9.4 1.2 1.1 1.1 2.1-.5 0-.2-1.4-.9-.4-.1.2-.2.1-.4 0-.8-.4-.9-.3-1.1.5-.1.4-.1 1-.7 1.1-.6 0-.4-.7-.7-.9l2.6-2.4s0 .1.1 0zM29.2 22.5c.5 0 .8-.3.7-.8 0-.2.3-.3.5-.3.3 0 .2.3.2.5 0 .5-.5.9-.4 1.4 0 .2-.2.2-.4.1-.5-.2-.6-.5-.6-.9zM31.7 21.2c.1-.7.1-1.5 1.2-1.3-.4.6-1 .8-1.2 1.3z" class="st3"/></svg>