<?xml version="1.0" encoding="utf-8"?>
<!-- Generator: Adobe Illustrator 22.0.0, SVG Export Plug-In . SVG Version: 6.00 Build 0)  -->
<svg version="1.1" id="图层_1" xmlns="http://www.w3.org/2000/svg" xmlns:xlink="http://www.w3.org/1999/xlink" x="0px" y="0px"
	 viewBox="0 0 100 97.7" style="enable-background:new 0 0 100 97.7;" xml:space="preserve">
<style type="text/css">
	.st0{fill:#E4E9EC;}
	.st1{fill:#EBEFF2;}
	.st2{fill:#F5F5F5;}
	.st3{fill:#5384D2;}
	.st4{fill:#83A5DE;}
	.st5{fill:#CDCFD1;}
	.st6{fill:#8EAAD4;}
	.st7{fill:#F7F8F1;}
	.st8{fill:#FBF9F4;}
	.st9{fill:#386BC6;}
	.st10{fill:#CDD1D4;}
	.st11{fill:#B1B3B4;}
	.st12{fill:#CFD0D2;}
	.st13{fill:#D0D2D3;}
	.st14{fill:#CCCED1;}
	.st15{fill:#FAFBFB;}
	.st16{fill:#E9EDEF;}
	.st17{fill:#E1E6E9;}
	.st18{fill:#5189E6;}
	.st19{fill:#85ADED;}
	.st20{fill:#2960BA;}
	.st21{fill:#2F66C1;}
	.st22{fill:#F6F6F6;}
	.st23{fill:#F5F5F6;}
	.st24{fill:#0E45A1;}
	.st25{fill:#0C439E;}
	.st26{fill:#0A429C;}
	.st27{fill:#567CBD;}
	.st28{fill:#0B439E;}
	.st29{fill:#0A409B;}
	.st30{fill:#0B429E;}
	.st31{fill:#0C439F;}
	.st32{fill:#0E44A0;}
	.st33{fill:#0F44A2;}
	.st34{fill:#3971CF;}
	.st35{fill:#5D84C5;}
	.st36{fill:#547BBC;}
	.st37{fill:#587EBF;}
	.st38{fill:#6D94D5;}
	.st39{fill:#668ECE;}
	.st40{fill:#638ACA;}
	.st41{fill:#638ACB;}
	.st42{fill:#87AFEF;}
	.st43{fill:#89B1F1;}
</style>
<g>
	<path class="st0" d="M1.4,79.7c0-25.4,0-50.7,0-76.1c0-3.5,0-3.5,3.5-3.5c24.1,0,48.3,0,72.4,0c0,0.1,0,0.2,0,0.2
		c-3.9,1.8-4.7,5.8-6.3,9.2c-0.4,0.8-0.6,1.9-1.9,1.9c-17.5,0-35.1,0-52.6,0c9.8,0,19.6,0,29.4,0c7,0,14.1,0.2,21.1-0.1
		c4.8-0.2,9.6-0.4,14.4-0.4c1,0,2.1-0.1,3.1,0.2c0.4,0.3,1,0.5,0.6,1.2c-0.9,0.7-1.9,0.7-3,0.7c-4.3-0.1-8.5,0-12.8,0
		c-16.6,0.1-33.2,0-49.7,0c-4.1,0-4.3,0.2-4.3,4.3c-0.1,15,0.1,30,0,45c0,0.3,0,0.6,0.1,0.9c0.1,0.3,0.3,0.5,0.5,0.7
		c1.2,0.5,2.4,0.3,3.7,0.3c7.5,0,14.9,0,22.4,0c1,0,2.1-0.1,3.1,0.2c1.1,0.5,0.9,1.4,0.6,2.2c-2.4,5.8-4.9,11.6-7.6,17.2
		c-0.2,0.3-0.5,0.5-0.8,0.6c-3.1,0.5-6.1,0.2-9.2,0.2c-8.6,0.1-17.2-0.1-25.8,0.1c-0.3,0-0.7-0.1-0.9-0.3
		C0.6,82.9,1.2,81.3,1.4,79.7z"/>
	<path class="st1" d="M37.8,83.9c0.8-3.8,2.9-7,4.3-10.6c1.1-2.8,2.4-5.6,3.6-8.4c1.1-1.1,2.5-0.7,3.8-0.7c10.3,0,20.6,0,30.8,0
		c1.1,0,2.3,0.1,3.4-0.2c0.4-0.3,0.5-0.7,0.6-1.2c0.4-12.2,0.1-24.4,0.2-36.6c0-3.6,0-7.2,0-10.8c0-1.2,0-2.3,0.8-3.2
		c-0.2-0.2-0.4-0.4-0.6-0.5c-3.7-0.6-7.4-0.1-11.2-0.3c-1.2-0.1-2.4,0.3-3.6-0.2c0.8-3.4,2.4-6.4,4-9.5c0.7-1.4,2.5-0.6,3.4-1.6
		c6.1,0,12.3,0.1,18.4,0c2.1,0,2.8,0.7,2.7,2.8c-0.1,7.9,0,15.8,0,23.6c0.5,0.9,0.2,1.9,0.2,2.9c0,15.6,0,31.3,0,46.9
		c0,2.6,0.9,5.2-0.1,7.8c-1,0.8-2.2,0.6-3.3,0.6c-18.1,0-36.2,0-54.3,0C39.9,84.7,38.7,84.9,37.8,83.9z"/>
	<path class="st2" d="M98.4,84c0-19.2,0-38.3,0-57.5c0.9,0.9,0.5,2,0.5,3c0,13.4,0.1,26.7,0,40.1c0,5.3,0.4,10.6,1,16
		c0.3,3.3-0.2,6.6-0.5,9.9c-0.2,1.8-1.5,2.3-3.2,2.3c-8.5-0.1-17,0-25.6,0c-21.9,0-43.8,0-65.6,0c-3.9,0-4.3-0.7-4.6-4.6
		c-0.4-4.5-0.8-9,1.1-13.3c0,1.6,0,3.2,0,4.7c2.6,0.3,5.3-0.4,7.9,0.3c0.8,0.9,0.7,2,0.5,3.2c-0.2,0.6-0.6,1-1.3,1
		c-1.5-1.4-3.4-1.1-5.2-1.2c-2-0.1-1.9,0.9-1.3,2.2c0.6,5.8,0.6,5.8,6.5,5.8c11.5-0.1,23,0.1,34.5,0c16.2-0.1,32.3,0,48.5,0
		c1,0,1.9,0,2.9,0c2.3-0.2,3.1-1.3,3.1-3.9c0-2.2-1.5-2.2-3-2.3c-1.7-0.1-3.7,0.5-4.6-1.7c-0.2-3.5-0.1-3.6,3.3-3.6
		C94.9,84.2,96.7,84.5,98.4,84z"/>
	<path class="st3" d="M14.6,63.4c0-16.5,0-33-0.1-49.5c0-1.2,0.4-1.7,1.6-1.7c17.7,0.1,35.5,0.1,53.2,0.1c0.3,0.6,0,1.1-0.3,1.5
		c-0.3,0.5-0.8,0.9-1.4,0.9c-15.7-0.3-31.3-0.2-47,0c-2.9,0-3.6,0.7-3.8,3.5c-0.2,3.3,0.4,6.7-0.6,9.9c-0.4,1.6-0.6,3.1,0.4,4.6
		c0.4,8.5,0.6,17-0.1,25.5c-0.7,2.8-0.2,3.3,2.7,2.9c1.9-0.2,3.9,0.4,5.8,0.3c6.3,0.1,12.6-0.2,18.9,0.2c0.9,0,1.8-0.1,2.6,0.4
		c0.6,0.5,0.6,1.1,0.2,1.8c-0.3,0.2-0.6,0.3-0.9,0.3c-9.2-0.2-18.4,0-27.6-0.1C17.1,64.1,15.7,64.4,14.6,63.4z"/>
	<path class="st4" d="M46.7,63.9c0-0.5,0.1-1,0.1-1.5c0.2-0.2,0.5-0.3,0.7-0.4c0.5-0.2,0.7-0.5,0.8-0.9c0.2-0.7,0.6-1.3,1.4-1.4
		c1-0.1,1.1,0.8,1.2,1.4c0.3,1.3,1.2,1.6,2.4,1.6c8.6,0,17.2,0,25.8,0c2,0,3.1-1,3.5-2.9c0.3-1.1,0.3-2.3,0.3-3.4
		c0-12.3,0-24.6,0-36.9c0-4.3-0.6-4.8-4.9-4.8c-1.9,0-3.9,0-5.8,0c-1.2-0.1-2.5-0.1-3.3-1.3c0.2-0.3,0.3-0.7,0.5-1
		c5.3,0,10.6,0,15.9-0.1c0,17.2,0,34.4-0.1,51.7c-0.9,0.6-2,0.5-3,0.5c-10.9,0-21.8,0-32.8,0C48.5,64.4,47.5,64.7,46.7,63.9z"/>
	<path class="st5" d="M9.4,88.2c0-1,0-2.1-0.1-3.1c-2.4-0.7-4.9,0.2-7.4-0.5C2.7,83.6,3.8,84,4.7,84c11,0,22.1,0,33.1,0
		c20.2,0,40.4,0,60.6,0.1c-1.5,1-3.2,0.6-4.8,0.4c-2.5-0.2-3.5,0.7-3.1,3.2c-0.6,0.1,0.3,3-1.5,0.8c-0.6-3.2-0.6-3.2-3.8-3.2
		c-2,0-4,0-6,0c-3.8,0-3.8,0-4.6,3.5c-0.5,0.8-1.1,0.9-1.7,0.1c-0.4-3.6-0.4-3.6-4.3-3.6c-1.7,0-3.5,0-5.2,0c-3.7,0-3.7,0-4.6,3.6
		c-0.6,0.8-1.2,0.8-1.8,0c-0.9-3.6-0.9-3.6-4.6-3.6c-1.7,0-3.3,0-5,0c-3.6,0-3.6,0-4.4,3.5c-0.5,0.8-1.1,0.9-1.8,0.1
		c-0.4-0.6-0.4-1.3-0.5-2c-0.1-1-0.7-1.6-1.7-1.6c-3.3-0.1-6.7-0.1-10,0c-2.5,0.1-1.8,2.1-2.1,3.5c-0.6,1-1.1,0.7-1.7,0
		c-0.8-3.5-0.8-3.5-4.7-3.5c-2,0-4,0-6.1,0c-3.1,0-3.1,0-3.6,3.1c-0.2,0.4-0.3,0.8-0.8,0.8C9.5,89.2,9.6,88.6,9.4,88.2z"/>
	<path class="st6" d="M46.7,63.9c12.8,0,25.7,0,38.5,0c-0.2,0.2-0.3,0.4-0.5,0.5c-0.7,0.4-1.5,0.2-2.3,0.2c-21.8,0-43.7,0-65.5,0
		c-0.8,0-1.6,0.2-2.3-0.3c0-0.2,0-0.4,0-0.5c2.3-0.5,4.7-0.2,7.1-0.2c8.2,0.1,16.3-0.2,24.5,0.2C46.3,63.9,46.5,63.9,46.7,63.9z"/>
	<path class="st7" d="M70,11.2c4.1,0,8.2,0,12.3,0c0.8,0,1.8-0.3,2.5,0.5c-23.2,0-46.3,0-69.5,0c0-0.2,0-0.3,0-0.5
		C33.5,11.2,51.7,11.2,70,11.2z"/>
	<path class="st8" d="M14.6,64.4c21.5,0,43.1,0,64.6,0c1.8,0,3.7,0,5.5,0.1c-0.9,0.9-2,0.5-3,0.5c-12,0-24,0-36,0
		c-9.5,0-18.9,0-28.4,0C16.4,65,15.4,65.3,14.6,64.4z"/>
	<path class="st9" d="M46.2,63.8c-10.5,0-21,0-31.5,0c-0.1-0.2-0.1-0.3,0-0.5c9.7,0,19.4,0,29.1,0C44.5,63.4,45.5,63.1,46.2,63.8z"
		/>
	<path class="st10" d="M18.2,73.6c1.5-0.8,1.5,0.5,1.5,1.1c-0.1,1.3-1.2,0.4-1.9,0.7c-0.9,0.4-1.1-0.3-1.2-1.1
		C16.7,72.6,17.6,73.3,18.2,73.6z"/>
	<path class="st11" d="M34,75.2c-0.7-0.2-1.9,1.4-2.1-0.3c-0.1-1.1,1.3-1.1,2-1.1c0.5,0,1.8,0.1,1.5,1.3
		C35.1,75.9,34.6,75.8,34,75.2z"/>
	<path class="st2" d="M1.9,84.5c2.4,0.3,5-0.5,7.4,0.5c-2.6-0.3-5.3,0.6-7.9-0.5C1.6,84.5,1.8,84.5,1.9,84.5z"/>
	<path class="st12" d="M65.8,71.9c0.6,1.7,2.1,2.6,1.2,3.8c-0.5,0.6-1.9,0.7-2.4,0C63.7,74.5,65.1,73.6,65.8,71.9z"/>
	<path class="st13" d="M48.9,75c-1.7-0.4-1-1.3-0.3-2c0.9-0.9,1.9-0.9,2.8,0c0.7,0.7,1.3,1.6-0.3,2C50.3,74,49.6,74.2,48.9,75z"/>
	<path class="st14" d="M82.9,72.4c0.2,1.6-0.4,2.5-1.1,3.4c-0.9-0.6-1.2-1.4-1.3-2.8C81.9,75,82.3,73.4,82.9,72.4z"/>
	<path class="st15" d="M48.9,75c0-0.3,0-0.5,0-0.8c0.1-0.6,0.4-0.3,0.7-0.1c0.4,0.3,1.7-0.8,1.4,0.9C50.3,76.3,49.6,76.3,48.9,75z"
		/>
	<path class="st16" d="M41.4,88.7c0.4,0.6,0.8,0.6,1.1,0c0.6-0.6,1.4-0.8,2.1-0.8c3.5-0.1,6.9-0.1,10.4,0c0.8,0,1.5,0.2,2.1,0.8
		c0.4,0.6,0.8,0.6,1.1,0c0.6-0.6,1.4-0.8,2.2-0.8c3.5-0.1,6.9-0.1,10.4,0c0.8,0,1.5,0.2,2.2,0.8c0.4,0.6,0.8,0.6,1.1,0
		c0.5-0.5,1.2-0.7,1.9-0.7c3.8-0.1,7.6-0.1,11.4,0c0.7,0,1.4,0.2,1.9,0.8c1,0.3,0.4-1,1.1-1.1c0.6,2,2.2,0.8,3.3,1.1
		c1.4,0.4,3.5-0.8,4.3,0.9c0.9,2,0.3,4.2-0.5,6.1c-0.5,1.4-2,0.8-3.1,0.9c-17.2,0-34.4,0-51.6,0c-2.7-0.6-5.4-0.1-8.1-0.3
		c-2.8-0.1-3.2-0.8-2.3-3.5c1.2-3.3,1.8-3.7,5.3-3.9c0.9,0,1.8,0,2.6-0.4C40.9,88.5,41.2,88.5,41.4,88.7z"/>
	<path class="st17" d="M41,88.7c-0.7,2-2.4,0.9-3.6,1c-2.2,0.2-5,3.1-4.6,5.2c0.2,1.1,1.2,1.1,2.1,1.2c1.9,0.1,3.8,0,5.8,0
		c0.8,0,1.8-0.3,2.5,0.5c-12.4,0-24.7,0-37.1,0c-4.1,0-4.5-0.4-4.5-4.5c0-1,0-1.9,0-2.9c2.1-2.1,4.5-1.5,6.9-0.5
		c0.5,0,0.8-0.1,1.1-0.5c0.5-0.1,0.3,1.2,1.1,0.5c0.6-0.6,1.4-0.7,2.2-0.7c3.6-0.1,7.2-0.1,10.8,0c0.8,0,1.6,0.1,2.2,0.7
		c0.4,0.6,0.7,0.7,1.2,0.1c0.5-0.6,1.2-0.7,1.9-0.8c3.5-0.1,7-0.1,10.5,0C39.8,88,40.5,88.1,41,88.7z"/>
	<path class="st2" d="M8.3,88.7c-2.3,0.2-4.6-0.5-6.9,0.5c-0.7-0.4-1.4-0.9-0.5-1.8c0.8-0.8,6.3-0.4,7.1,0.5
		C8.2,88.1,8.2,88.4,8.3,88.7z"/>
	<path class="st18" d="M47.3,62.3c-0.2,0-0.3,0-0.5,0c-7.6,0-15.1,0-22.7,0c-1-2.2-2.9-2.2-4.6-1.5c-2.1,0.9-3-0.1-3.8-1.7
		c0.4-1.3,0.5-2.7,0.5-4.1c0-7.6,0-15.2,0-22.8c-0.5-1.1,0.2-1.1,1-1.1c1.5,0.1,2.9,0,4.4,0.1c0.6,0,1.1,0,1.1-0.7
		c0-0.7-0.6-0.6-1.1-0.7c-2-0.3-4.2,0.5-5.9-1.3c0.8-3.9,0.2-7.8,0.5-11.7c0.2-1.9,1.1-3,3.1-3c15,0,29.9,0,44.9-0.1
		c1.4,0,2.8,0.1,4.1,0.5c0.4,0.7,0.1,1.4-0.2,2c-1.5,3.4-3,6.8-4.5,10.3c-0.9,1.7-1.9,3.3-2.2,5.3c-1.8,3.5-3.2,7.1-4.9,10.6
		c-0.4,0.9-0.7,2-1.6,2.6c-1,0.6-2.3,0.4-3.4,1.2c0.3,0.9,1.5,0.6,1.9,1.4c0.4,0.9,0.2,1.7-0.2,2.5c-1.7,3.8-3.3,7.7-5.1,11.4
		C47.9,61.9,47.6,62.1,47.3,62.3z"/>
	<path class="st19" d="M54.6,45c1.7-3.9,3.5-7.7,5.2-11.6c0.3-0.6,0.4-1.3,1.1-1.6c1.1,0.8,0.1,2.2,1.3,3.3c0.2-3.1,0.6-5.8,0.8-8.6
		c1.4-4.2,3.4-8.1,5.2-12.1c0.2-0.4,0.4-0.7,0.6-1.1c3.5,1,7.1,0.4,10.7,0.5c3.2,0.1,4.1,0.9,4.1,4.1c0,13.3,0,26.5,0,39.8
		c0,4.6-1.2,5.7-5.6,5.7c-8.3,0-16.5-0.1-24.8,0c-2.1,0-3.5-0.1-3.1-2.7c0-0.3-0.1-0.6-0.1-1c-1.1,0.3-0.9,1-1,1.6
		c-0.1,0.5-0.4,2.3-1.8,0.8c1.6-3.8,3.1-7.5,4.8-11.3c0.5-1.1,1-2.2,1.1-3.4c0.2-0.2,0.3-0.4,0.6-0.5c1.4-0.5,3.1,0.1,4.7-0.7
		c-1.1-1.2-2.5-0.6-3.5-1.2C54.8,45.1,54.7,45.1,54.6,45z"/>
	<path class="st20" d="M15.7,28.6c2.2,0.2,4.4,1.2,6.7,0.2c0.4-0.2,0.8,0.2,1,0.6c0.3,0.8,0.4,1.6-0.1,2.3c-0.3,0.6-0.9,0.6-1.6,0.5
		c-1.8-0.1-3.7-0.8-5.6,0.1C14.3,31.3,15.3,29.9,15.7,28.6z"/>
	<path class="st21" d="M15.7,59.2c1.4,1.8,3.4,1.6,5.1,0.8c2.6-1.1,3,0.5,3.3,2.3c-1.7,0.1-3.3-0.7-5.1-0.2
		C16.2,62.8,15.4,62,15.7,59.2z"/>
	<path class="st2" d="M89.4,88.7c-5.1,0-10.1,0-15.2,0c0-0.4,0-0.9-0.1-1.3c-0.4-2.3,0.5-3.1,2.8-2.9c2.8,0.2,5.6,0,8.3,0.1
		C89.6,84.6,89.6,83.6,89.4,88.7z"/>
	<path class="st22" d="M25.6,88.6c-5,0-10.1,0-15.1,0c0-0.8,0-1.6-0.1-2.4c-0.1-1.4,0.5-1.8,1.9-1.8c3.2,0.1,6.3,0,9.5,0
		C25.8,84.5,25.8,84.5,25.6,88.6z"/>
	<path class="st2" d="M41,88.7c-4.7,0-9.5,0-14.2,0c-1.2-3.4-0.7-4.2,2.6-4.2c3.1,0,6.2,0.1,9.2-0.1c2.3-0.2,3.3,0.6,2.9,2.9
		c-0.1,0.4,0,0.9,0,1.3C41.3,88.7,41.1,88.7,41,88.7z"/>
	<path class="st23" d="M73.1,88.7c-4.9,0-9.8,0-14.7,0c0-0.5,0-1.1,0-1.6c-0.3-2.1,0.5-2.8,2.6-2.7c3,0.2,5.9,0,8.9,0
		C73.9,84.5,74.2,84.8,73.1,88.7z"/>
	<path class="st2" d="M57.3,88.7c-4.9,0-9.8,0-14.7,0c0-0.4,0-0.9-0.1-1.3c-0.4-2.3,0.5-3.1,2.8-2.9c2.6,0.2,5.2,0,7.8,0.1
		C57.5,84.6,57.4,83.6,57.3,88.7z"/>
	<path class="st24" d="M33.7,46.2c2.9-2.1,6.2-1.1,9.4-1.2c0.7,0,0.9,0.7,1,1.3c0.1,0.5-0.1,1-0.6,1c-3.1-0.1-6.2,0.7-9.3-0.5
		C34.1,46.9,33.9,46.5,33.7,46.2z"/>
	<path class="st25" d="M45.2,27.5c0.9-0.9,2-1.6,2.1,0.5c0,2.4-0.3,4.9-0.5,7.3c0,0.4-0.3,0.9-0.8,0.8c-0.6-0.2-1.1-0.7-1.2-1.3
		c-0.1-1.6,0-3.1,0.1-4.7C44.9,29.2,45.1,28.4,45.2,27.5L45.2,27.5z"/>
	<path class="st26" d="M45.2,27.5c-2.9,1.9-6,1.2-9,0.6c-1-0.2-1.1-1.2-0.2-1.3c3-0.5,6-0.6,9,0.1C45.1,26.8,45.1,27.3,45.2,27.5
		C45.2,27.5,45.2,27.5,45.2,27.5z"/>
	<path class="st27" d="M63.1,26.5c1.2,3-0.4,6-0.1,8.9c0,0.4-0.4,0.9-0.9,0.7c-0.6-0.3-1.3-0.8-1.3-1.5c-0.1-0.9,0.1-1.9,0.2-2.8
		C60.7,29.6,61.9,28,63.1,26.5z"/>
	<path class="st28" d="M61.2,26.4c-0.2,1.3-0.6,2.1-1.7,2.1c-2.1,0-4.2,0-6.3-0.2c-0.5,0-1.7-0.1-1.5-1.1c0.1-0.8,1-0.9,1.7-0.9
		C56,26.4,58.5,26.4,61.2,26.4z"/>
	<path class="st29" d="M40.4,38c-1,0-1.9,0-2.9,0c-0.8,0-1.5-0.4-1.5-1.2c0-0.9,0.9-1,1.6-1c1.9,0,3.9,0,5.8,0c0.7,0,1.6,0,1.5,1
		c-0.1,0.8-0.8,1.1-1.6,1.1C42.4,38.1,41.4,38,40.4,38z"/>
	<path class="st24" d="M53.5,31c-0.7,1.2,0.3,3.2-1.3,4.5c-0.4,0.3-0.7,0.9-1.3,0.5c-0.4-0.3-0.4-0.8-0.3-1.2
		c0.5-1.4,0.3-2.9,0.4-4.4c0.1-0.7-0.3-1.8,0.9-1.7C53,28.8,53.7,29.4,53.5,31z"/>
	<path class="st30" d="M36.3,41c-0.1,0.9,0,1.7-0.2,2.5c-0.2,1-1,1.6-1.9,1.4c-0.9-0.2-0.4-1.2-0.4-1.8c0.1-1.2,0.2-2.4,0.3-3.7
		c0.1-0.7-0.3-1.9,0.8-1.8c0.8,0,1.2,0.9,1.3,1.7C36.3,39.8,36.3,40.5,36.3,41z"/>
	<path class="st31" d="M52.6,40.9c-0.1,0.8-0.1,1.4-0.2,2c-0.1,1.1-0.7,2-1.8,1.9c-1.3-0.1-0.6-1.4-0.6-2.1c0-0.9,0.2-1.9,0.4-2.8
		c0.2-0.7-0.5-2.1,0.8-2c1,0,1.4,1.1,1.4,2.2C52.5,40.3,52.6,40.7,52.6,40.9z"/>
	<path class="st32" d="M53.5,47.4c-0.1,0.1-0.3,0.1-0.4,0.2c-1.1-0.2-2.8,0.2-2.9-1.1c-0.1-1.4,1.7-1.3,2.8-1.5c0.5-0.1,1,0,1.6,0
		c0,0,0,0,0,0C55.4,46.3,54.7,47,53.5,47.4z"/>
	<path class="st33" d="M19,15.1c2.4,1.3,1.3,4.4,4.8,4.3c-2.5,1.2-4.5-1.5-6.1,0.8C17.9,18.4,21.1,18,19,15.1z"/>
	<path class="st20" d="M24.4,29c0.9,1.7,1.7,1.3,2.4,0c0.5,1.2,0.8,2.3,0,2.9c-0.5,0.4-1.6,0.4-2.2,0.1C23.3,31.3,25.1,30.2,24.4,29
		z"/>
	<path class="st34" d="M26.6,52.7c-0.1,0.7-0.4,1-1,1.1c-0.6,0.1-1.1-0.2-1.1-0.8c0-0.6,0.3-1.2,1.1-1.2
		C26.1,51.9,26.4,52.3,26.6,52.7z"/>
	<path class="st35" d="M72.6,41.2c-0.1,1-0.3,2.2-0.3,3.4c0.1,2.8-1.9,2.7-3.7,2.5c-2.2-0.2-1.4-2.1-1.2-3.1c0.3-1.2,0-2.4,0.2-3.6
		c0.4-2.3,2-1.8,3.4-1.8C72.9,38.6,72.6,39.9,72.6,41.2z"/>
	<path class="st36" d="M59.9,42.6c0.1-1.6-0.4-3.3,1.2-4.4c0.6-0.5,1.4-1,1.4,0.3c-0.1,2.5-0.4,5-0.6,7.5c0,0.4-0.4,0.8-0.9,0.8
		c-0.6,0-0.6-0.5-0.8-0.9C59.7,44.8,60,43.7,59.9,42.6z"/>
	<path class="st37" d="M53.5,47.4c0.5-0.8,1-1.5,1.1-2.4c1.1,0,2.2-0.1,3.4,0c0.9,0,1.4,0.6,1.4,1.5c0,1-0.8,1-1.5,1
		C56.5,47.5,55,47.5,53.5,47.4z"/>
	<path class="st38" d="M78.4,55.5c0,1.1-0.2,2-1.4,2.1c-0.7,0.1-1.3-0.3-1.2-1c0.3-1.2-1.3-2.6,0.4-3.5c0.3-0.2,0.9-0.2,1,0
		c0.5,0.6-0.5,0.4-0.5,0.7C76.7,54.8,78,54.7,78.4,55.5L78.4,55.5z"/>
	<path class="st39" d="M72.7,57.5c0.4-0.9,2.4-1.6,0.1-2.3c-0.6-0.2-0.8-0.9-0.5-1.5c0.2-0.5,0.7-0.8,1.3-0.8c0.2,0,0.5,0.1,0.7,0.2
		c-2.4,1.8,1,1.8,0.9,2.9C75.1,57.7,74.1,57.6,72.7,57.5z"/>
	<path class="st38" d="M78.4,55.5c0.3-2,1.9,0.5,2.4-0.7c0,0.7,0,1.9,0,1.9C79.7,56.8,78.9,56.5,78.4,55.5
		C78.4,55.5,78.4,55.5,78.4,55.5z"/>
	<path class="st40" d="M72.3,21.6c-0.9,0.6-1.8,1.1-2.7,2.2C69.3,21.2,70.6,21.1,72.3,21.6z"/>
	<path class="st41" d="M71.9,26.4c-1.8,0.9-2.7,0.5-2.3-1.8C70.1,25.8,70.9,26.2,71.9,26.4z"/>
	<path class="st42" d="M71.4,44.5c-0.4,0.5,0.1,1.9-1.5,1.5c-0.8-0.2-1.5-0.2-1.6-1.3c0-1.3,0.7-1.4,1.7-1.4
		C70.8,43.4,71.5,43.4,71.4,44.5z"/>
	<path class="st43" d="M70.1,42.3c-0.6-0.1-1.6,0.3-1.4-0.9c0.1-0.8,0.2-1.8,1.4-1.7c0.9,0,1.5,0.3,1.4,1.3
		C71.5,42,71.1,42.4,70.1,42.3z"/>
</g>
</svg>
