<svg xmlns="http://www.w3.org/2000/svg" id="图层_1" viewBox="0 0 100 47.6"><style>.st0{fill:#35374b}.st3{fill:#9eb7d4}.st12{fill:#a0b2c3}.st17{fill:#6680a9}.st20{fill:#95a9bf}.st22{fill:#bebec2}.st26{fill:#8ea6cc}.st33{fill:#758ea2}.st40{fill:#b3c7dc}.st41{fill:#262335}.st42{fill:#414459}.st47{fill:#4f5254}.st51{fill:#d0e0ea}.st58{fill:#a6aebc}.st67{fill:#7893c1}.st68{fill:#b9bdc9}.st70{fill:#c3bfc5}.st83{fill:#546981}.st86{fill:#717e8e}.st87{fill:#c9c6ca}.st88{fill:#a1a8b1}.st96{fill:#2e374a}.st102{fill:#95a5c2}.st109{fill:#becfe1}.st112{fill:#809cc4}.st129{fill:#1a1827}.st136{fill:#9e8040}.st140{fill:#374555}.st142{fill:#8d9cae}.st146{fill:#6d7383}.st150{fill:#c1c5cf}.st151{fill:#cccfd7}.st153{fill:#c8c2c1}.st155{fill:#7797b5}.st159{fill:#dfdedf}.st162{fill:#aeb7c9}.st163{fill:#101223}.st167{fill:#253142}.st169{fill:#b1c1d8}.st170{fill:#b9c9dc}.st177{fill:#3b4356}</style><path d="M0 39c0 1.3-.3 2.6.3 3.9.1.2.1.5.5.4l9.6-.4c-.3-.2-.6-.1-.8-.1l4.9-.1c.2 0 .4 0 .4-.2s-.1-.2-.3-.3a8 8 0 0 0-2.2 0l-7.8.4-1.5.1c-1.9.2-2.6-.6-2.2-2.6L2 41.4c.5.5 1 .7 1.7.8 1 0 2.1.1 3.1-.1 1.4-.2 2.9 0 4.3-.2l.7-.1c.2-.1.5-.3.4-.5-.4-.7.2-.6.5-.7.7-.1 1.3-.3 1.9-.8.7-.6.6-1.6-.2-1.9l-.4-.1c-1.2-.4-1.4-.7-1.2-2 .4.2.6.7 1.1.6.8-.8.8-1.1-.4-1.8l-.7-.3c-1.2-.5-1.7-1.4-1.7-2.6V31v-.5c.7-.5.5-1.3.9-1.9.6-.8.4-1.6.3-2.5-.1-.6-.3-1.3-.2-1.9 0-.4-.3-.7-.7-.6-.3 0-.5.1-.9-.2 0 0 .2-.1.1 0v.1c.3 0 .6.2.8-.3-.9-.3-1.8-.3-2.6.3l-.7.5c-.9.7-1.8.4-2.8.1l-.5-.2c-1.1-.6-2.2-.8-3.3.2l-.5.2v-.6c0-.2 0-.5-.3-.6-.3.1-.4.2-.4.5.1 3.3-.2 6.6.1 10 .1 1.7-.3 3.3-.2 4.9 0 .2 0 .4-.2.5z" class="st0"/><path fill="#aed3f1" d="M54 4.7l-.3-.3c-.1-.1-.2-.3-.4-.1-.2.3-.4.3-.8.4-1.1.1-2.1-.2-3.1-.1-.6 0-.9-.5-1.3-.9-.1-.1-.2-.4-.4-.3-.2.1-.2.3-.2.5.2.7-.2.8-.7.8l-7.6-.2c-.6 0-.4.4-.3.7-.1-.3-.3-.4-.6-.5-1.4-.3-2.7.1-4.1.1-.3 0-.4.2-.5.5l-.1.5c.3 1.7.5 3.3.6 5l.1.3c.1.1.2.1.4 0 .2-1.1.9-1.3 1.9-1.2.7.1 1.5.1 2.2-.1.6-.2.5.6.8.7.2-.1.3-.2.3-.4.1-.9 0-1.9-.2-2.8.2.8.1 1.5.5 2.2 1.3.3 2.6.2 3.9.1l4.3-.1c.3 0 .4.2.7.3.2 0 .3-.1.4-.3V8.3c.2.5-.1 1.2.4 1.7l2-.2h1.4c1.2.1 1.2.1 1.6-1 .2-.3.3-.6.2-.9-.2-.4-.4-.7-.4-1.1-.5-.9-.6-1.5-.7-2.1z"/><path fill="#a3cdee" d="M89.3 6.8c-.1-.8-.3-1.6-.8-2.4-.1-.1-.1-.1-.2 0-.7.4-1.4.3-2.2.2-.4 0-.7-.2-1.1-.1-.3.1-.6 0-.8-.3-.3-.4-.6-.5-.9 0-.2.4-.6.4-.9.4h-4.3l-1.5.1h-.7c-.2-.1-.3-.3-.5-.1-.2.2-.1.4 0 .6l.1.3c0-.4-.3-.6-.7-.6l-3.2.1c-.4 0-.7.2-.9.6l.3 1.6c.2.6.2 1.3.3 1.9.2.3 0 .7.2 1l.2.1c1.3-.1 2.6-.7 4-.4.5.1.7-.2.8-.6v-.5c.2.1 0 .4.3.5h2.1c1.8-.2 3.6-.4 5.4-.1.5.1.5-.3.7-.5.1.1 0-.3.1 0l.3.4c.4.3.8.4 1.3.4.7 0 1.4 0 2.1.2.3.1.6 0 .9-.3.2-.4.1-.9 0-1.3-.3-.4-.3-.8-.4-1.2z"/><path d="M24 47.4c1.6.1 3.3-.1 4.9-.3l2.7-.1 2.5-.2c.5-.2 1 0 1.5-.1l9.4-.6 4.7-.3 13.5-.9 3.7-.2c.2 0 .5.1.7-.1-.3-.2-.5 0-.8-.1.5 0 1 0 1.4-.2.3-.1.7-.2 1 0h.6c.5-.2 1-.4 1.6-.2l.3-.1a4 4 0 0 1 2.6-.6l.9-.2.5-.4c0-.3-.2-.3-.5-.4-1.1-.1-2.2.2-3.3.1h-.8c-.3 0-.7.2-1 .1h-1.7l-1.3.1h-.9c-.4 0-.7.2-1.1.1l-1.7.1c-.6.2-1.2.1-1.7.1-3 .3-6.1.4-9.1.6l-8.1.5-4.8.3c-.2 0-.5 0-.6.2 0 .3.3.3.5.3.2.1.5 0 .7.2-1.3.2-2.5.9-3.9.8-1 0-2.1 0-3.1.3-.7.2-1.4.1-2.2.2l-4.6.3-.6-.1c-.2-.1-.6-.2-.6-.5s.4-.3.6-.4c.2-.1.5 0 .4-.4-.5-.2-.9-.2-1.4-.1-.3.1-.2.5-.4.7-.2.3-.7 0-.9.5l.4 1z" class="st3"/><path fill="#bfb8ba" d="M99.8 25.1c.3-1.4.2-2.8.1-4.2 0-.4-.5-.8-.4-1.4h-.2l-.3.9c-.7.4-1.5.2-2.2.2-2.4.1-4.7.3-7.1.3-.8 0-1.7 0-2.5.2-.6.4-.6.5-.1.9.3.3.7.5.9.9-.6.4-1.1.9-1.9 1-.5.1-.8.7-1.2 1-.1.4.1.8.2 1.2.3.4.8.4 1.2.3.7-.2 1.4-.4 2.1-.4h.1c.8-.5 1.6-.4 2.4 0 1.2-.5 2.6-.3 3.8-.9.1-.1.3-.1.4 0 .8.3 1.4-.1 1.9-.7.3-.4.7-.6 1.1-.8.3-.1.4-.5.8-.2.1.4.7.5.5 1.1.2.2.2.5.4.6z"/><path fill="#daeff9" d="M33.8 5l.3-.3c1.4.1 2.9-.4 4.3 0 .5.1.4.6.7 1.1.2-.5-.2-1 0-1.4.3.2.6.2.9.2 1.2 0 2.5-.1 3.7.1h3.8c.3 0 .4-.2.3-.5 0-.3-.2-.6-.1-.9.4.1.3.6.6.9 1 1 2.2.3 3.2.6h1.3c.7.1.6-.2.5-.6.2-.5-.2-.8-.3-1.2l-.4-.7c-1.2-.3-2.6-.2-3.9-.2-.3 0-.6 0-.9-.3A3 3 0 0 0 47 1c-.1-.1-.3-.2-.5 0-.1.1 0 .3.1.4l.4.6.1.2H47c-.1-.2-.4-.2-.6-.2l-7.2.1c-.3 0-.7 0-.9-.3l-.1-.1c-.2-.3-.4-.6-.7-.4-.3.2 0 .5.2.7l.3.6c0 .1-.1 0 0 0 0-.3-.1-.6-.5-.6l-3.6.1c-.3 0-.7 0-1 .2-.2.2-.1.4 0 .6.3.7.3 1.5.9 2.1z"/><path fill="#a1a6b4" d="M99.8 25.1v-.8c-.4 0-.4.3-.4.6.2.8-.1 1.5-.4 2.2V27c0-.3.6-.6.2-1-.3-.3-1.3.2-1.5.6-.4 1-.8 1.2-1.7.7-.7-.3-1.4-.1-2.1.1-.8.3-1.6.6-2.3 1.2-.5.4-1.2.6-1.8.8-1.2.4-2.1 1.3-3.4 1.6-.7.2-.8.8-.2 1.3h1.7c2.9-.1 5.7-.4 8.6-.4l2.8-.2.5-.2c.1-2.1 0-4.2 0-6.4z"/><path fill="#8fa9cc" d="M75.2 42.6c.5.2.2.4 0 .4-.4.1-.9.3-1.3.2-.9-.2-1.6.2-2.3.6-.4.3-.3-.3-.5-.2-.4.2-.9.1-1.3.4-.2.1-.4.3-.5.1-.3-.5-.6-.3-.9-.1l-1.8.6h1.8c.5-.2 1 0 1.5-.1 3-.1 5.9-.4 8.9-.6l5.4-.3 10.4-.6c1.2-.1 1.2-.1 1.1-1.3a.8.8 0 0 0-.8-.5l-1.8.1-5.4.3-5.7.4-2.8.1-2.6.2h-.8c-.2 0-.5-.1-.6.3z"/><path fill="#8da1b5" d="M33.8 5l-.9-2.5-.2-.5-.5-.7H32c-.3.3-.1.5 0 .7.6.7.7 1.6 1 2.4l.1.3c-.3 1.2.2 2.5-.1 3.7-.1.5.1 1-.1 1.5l-.1.3v1c.1 1.6-.1 3.1-.4 4.7-.1.6-.3 1.1-.6 1.6-.1.2-.3.3-.5.1-.1-.1-.3-.3-.5-.3-.4 0-.3-.5-.6-.6-.7-1-.8-2.2-.9-3.3-.1-.7 0-1.3-.4-2-.8.2-.3.8-.4 1.2v-.9c0-.2.1-.5-.3-.6v1.5c0 1.6.3 3.1.9 4.6l.7 1.2.3.2c.2-.2.5-.2.7 0 .6.4 1.4.4 2.1.4.7-.1 1.3.1 1.9.4 2.3-.1 4.5 0 6.8-.2 2-.1 3.9 0 5.9-.2.9-.2 1.9-.1 2.8-.1l.5-.1c1.2-.1 2.3-.2 3.5.1l.2-.1c.1-.6-.3-.7-.7-.7l-13.7.4-4.3.1c-.8 0-1.1-.2-1.1-1 .1-1.6 0-3.1.2-4.7.1-.7 0-1.4-.3-2a23 23 0 0 0-.6-5.2c-.2-.3-.2-.5-.2-.7z"/><path fill="#b3b3ba" d="M90.7 16c-.6-.1-1-.3-.8-1.1.2-.8.1-1.6.2-2.4-.7-.1-.3.5-.5.7a.5.5 0 0 0-.7-.2l-3.6 1.1c-.3.3-.3.6-.2.9.2.4.5.3.8.2l2.3-.8c1-.3 1.1-.2.9.9l-.1.2v2.1c0 .2.1.5-.2.5l-6.8.2-.7.1c-.2.2 0 .3.2.3.5 0 1.1.3 1.6.2.6-.1 1.1.2 1.7.3.4.1.4.6.7.7.9.2 1.8.2 2.7 0l3.2-.1 6.5-.2c.7 0 1.4 0 2-.5-.1-.6.1-1.3-.7-1.5l-.5.1c-2.1-.1-4.3.2-6.4.2-.3 0-.7.1-.5-.5.2-.6-.2-1.1-.9-1.1-.2.3-.2.6-.2 1l.1-1-.1-.3z"/><path fill="#515f73" d="M66.9.5c-1.1 0-1.7.8-2.2 1.6a11 11 0 0 0-1.3 4c0 .3-.1.5-.3.7-.2 1.1.6 1.9 1 2.8.1.2.3.2.5-.1-.6 1.5-.6 1.5.8 1.4-.5.1-.5.1-.5.4 1.4.2 2.8.1 4.2-.2l.1-.2c-.5-.3-1-.2-1.5-.2l-1.7-.1c-.4-.1-.6-.3-.7-.6-.2-.7-.4-1.4-.1-2.1.1-.4.3-.8.3-1.3-.1-.2-.2-.4-.4-.4s-.3.3-.3.4l-.4 1.2c.5-.9.3-2.5 2-2.8.8-.5 1.4.1 2 .4.5-.2.1-.5.1-.7.2.2.2.7.7.7.2-.3 0-.5-.1-.7a4 4 0 0 0-1.5-1.9c.6.4 1 1 1.4 1.6.2.4.4.7.9.3.2-.2.4-.1.5.1.3.3.4 0 .4-.2-.1-.9-.6-1.7-1.1-2.4-.6-.5-1-1.2-1.7-1.5-.4-.1-.7-.4-1.1-.2z"/><path fill="#8c99af" d="M99.5 39.3l.2-5.1c0-.7.3-1.4.2-2.1-.2-.2-.5-.2-.8-.2-.8.1-1.5 0-2.3.2-.3.4 0 .4.2.4.7.2 1.3.2 1.7 0l-3.8.3-1.1.1-1.2.9c-.2.2-.3.4-.2.7.1.3.4.4.6.3.5-.1.6.2.8.6.3.8.6 1.6 1.6 2 .5.2 1.1-.2 1.6 0 .3.1.3.4.4.6l.4.5c.2.3.5.6.8.5.3-.1.3-.5.2-.8l-.2-.1c-.2.1-.3.1-.4-.1 0-.1-.1-.1 0-.2.2-.2.3 0 .5 0 .3.1.2.3.2.5.1.7 0 1.1.6 1z"/><path d="M32.9 9.8l.2-.3c-.2-1.1.3-2.1 0-3.2 0-.2-.2-.4-.1-.5.5-1.6-.3-2.9-1.1-4.2-.1-.2-.2-.4.1-.4.1-.4-.3-.4-.5-.6-.6-.3-1.2-.1-1.7.5-.7.8-1 1.8-1.2 2.9-.3 2.3-.7 4.6-.7 7 .4.5-.1 1.2.4 1.7.3-.4-.3-1.1.4-1.4.4-.7.2-1.6.3-2.3.2-1.1.2-2.2.8-3.2.2-.4.5-.9 1.1-.7.8.5 1 1.4 1.2 2.2l.2.7.2 1.1v.2l.4.5z" class="st12"/><path fill="#729cb9" d="M31.7.6l.4.6c.2.4.6.5 1 .5.7 0 1.5-.1 2.2.1l1 .1c.5-.1.9 0 1.3.3l.5.8c-.1-.7-.4-1.1-.7-1.6.4 0 .5.3.7.5.3.3.6 0 .9 0 1.4-.3 2.7.1 4-.1 1-.1 2 .1 3-.1.3-.1.5.1.7.2.1.1.3.2.4-.1l-.6-.8c.6.2.8.6 1.1.8 1.3-.3 2.6 0 3.8 0 .2 0 .6 0 .5-.4.2.1.2.5.7.4A2.3 2.3 0 0 0 50 .4H38.1l-6.4.2z"/><path fill="#97c1e5" d="M96.7 32.3c1.1.1 2.1-.1 3.2-.2l-.1-.6-7.6.3-6.2.3-.3-.1c-2.9-.1-5.8.2-8.8.3l-7.6.3c-.5.3-1 .2-1.5.4 0 .6.5.6.9.8 1.3.2 2.6-.1 3.9-.1l6.2-.4c3.6-.2 7.2-.3 10.7-.6h1.2c1.3-.2 2.7 0 4-.3.6 0 1.3.3 2-.1z"/><path fill="#141324" d="M12 41.6l-7.5.3c-1.5.1-2.4-.6-3.2-1.7l-.5-.7c-.1.6-.3 1-.2 1.5.1 1.3.4 1.9 1.7 1.9l4.2-.2 2.8-.1 5.2-.2c.9.2 1.7-.4 2.5-.5l.5-.1c.4 0 .9 0 .4.6v.3h.7c.4-.2 1 .1 1.4-.2l-.1-.4c-.4-.4-.6-1-.5-1.6 0-.2-.1-.3-.2-.3-.2-.1-.5-.1-.8 0-.7.5-.8.6-.3 1-1.9 0-3.7.2-5.6.3-.1-.1-.3 0-.5.1z"/><path fill="#cfdeec" d="M23.6 46.7c.3-.3.8.1 1.1-.3.3-1.2.1-2.5.3-3.7l.1-.5.2-.5c.1-.2.3-.6.1-.7-.7-.5-.2-1.5-.8-2-.7-.6-1.6-.6-2.4-1l-.1.2-.2 1.4v6.3c.2.5.7.5 1.1.8.2.1.4.2.6 0z"/><path d="M76.6 42.5l5.8-.4 4.3-.3 8-.5c.4 0 .7 0 1 .3v-.3c.1-.8-.5-1-1.1-1.1-2-.1-4 0-6 .3-1.5.2-3 .3-4.4.6-2.4.5-4.9.3-7.3.8h-.3c-.2 0-.4.1-.4.3-.1.3.2.1.4.3z" class="st17"/><path fill="#4d4a5b" d="M0 39l.3-.3c-.1-1.1.1-2.3.2-3.4v-5.2c0-2.1.1-4.3-.1-6.4 0-.4.1-.5.3-.6l.3-.3c.4-.7.9-1 1.7-1l.7-.1a6 6 0 0 1 1.9 0l4.5-.2.8-.2c.2-.3 0-.4-.2-.5a2 2 0 0 0-1.5 0l-6.7.3c-1.2.1-2 .8-2 2L0 38.9v.1z"/><path fill="#577794" d="M66.9.5c.4-.1.7.4 1.1.3.8.8 1.8 1 2.9.7.3-.1.6 0 .9.1.6.2 1.2-.2 1.9-.1l.4.1c1.8-.3 3.6-.2 5.4-.1l1.5-.1c.2 0 .4 0 .4-.3 0-.2-.2-.3-.4-.4l-.5-.1c-3.7-.1-7.3-.2-11-.1-.9.1-1.7-.3-2.6 0z"/><path d="M8.9 20.7c.5.1 1 0 1.5.2l.9.2c.6 0 1 .3.9.9.1.1.2.2.3.1.3-.4.1-.9.2-1.4 0-.8.2-1.6.9-2.1-.5-.5-1.3-.6-2-.8-.5-.2.3-.2 0-.3-1.2 0-1.4.2-1.5 1.4v.2c-.1 1.2-.1 1.3-1.2 1.6z" class="st20"/><path fill="#3b5673" d="M92 18l6.7-.2c.2 0 .5.1.5-.3-1.6-.5-3.3-.7-5-1l-1.9-.3c-.4-.2-.6 0-.5.5 0 .3.3.6.1 1l.1.3z"/><path d="M54 4.7c-.4.7 0 1.2.3 1.8.3 0 .6-.1.7-.5 0-.7.3-.8.9-.8l6.3-.2c.6-.3.6-.3.1-.9h-7.2c-.4 0-.8.2-1.1.6z" class="st22"/><path fill="#b9ae0a" d="M11.6 17.5l-.6.2c.9.3 1.6.9 2.6.8l.2.1c.7 0 1.4 0 2-.2.9 0 1.8.1 2.7-.3.2-.4-.2-.4-.4-.5-1.4-.7-2.8-.6-4.3-.2l-2.2.1z"/><path fill="#545e72" d="M21.9 46l.1-.1v-6.3c-.6.5-.3 1.1-.3 1.7l.1 1c0 .1-.2-.1-.1 0 .1-.8 0-.9-.8-.8h-.1c-1 .1-1 .1-.8 1.1-.4.4-1-.1-1.3.3h.7c.8-.1 1.2.3 1.2 1a3 3 0 0 0 1.3 2.1z"/><path fill="#c5ced9" d="M62.3 4.1c-.2.2.7.5 0 .7-.4.4-.3.9-.4 1.3v.2l.4.5.4.9.4 1.9.1 2.6c.1.3-.1.7.3.7.3 0 .3-.4.3-.7l-.1-.4c.2.4 0 .8.1 1.2l.1.2c.3.1.4-.1.4-.4-.2-.4.1-.9 0-1.3 0-.2.2-.3.3-.5.2-.2.5-.1.7-.2h-.4c-.5 0-1.1.1-.6-.7v-.7c-.2-.1-.3.5-.4 0-.1-.6-.6-1-.8-1.6-.1-.3.1-.8-.2-1-.6-.5 0-1 0-1.4.3-.9.3-1-.6-1.3z"/><path d="M99.5 39.3c-.4-.2-.6-.5-.3-.9.2-.3.1-.3-.3-.4v.3c0 .3 0 .6-.2.9-.3-.3-.9-.4-.8-1h-.3l-.3.6c-.1.8 0 1.7-.2 2.5l.2.5.7.1c.9.1 1.5-.3 1.6-1.2l-.1-1.4z" class="st26"/><path fill="#6a91af" d="M80.5.6c.2.2.6.2.8.5-1.9.3-3.8-.1-5.7.1-.5.1-1.1-.2-1.6.3 0 .5.3.7.7.7h4.7c1 0 2-.1 2.9-.3l.1-.3c-.2-.6-.7-.8-1.2-1h-.7z"/><path fill="#292936" d="M18 42.6l.1-.2c.1-.1.5.1.3-.4-.1-.2-.1-.5-.5-.4-.7.1-1.5 0-2.2.5-.3.3-.8-.1-1.2.2.1 0 .4.1.1.2H14c-1.7-.1-3.4.3-5.1.1v.2h3.2c.7-.2 1.3 0 2-.1 1.4.2 2.7.1 3.9-.1z"/><path fill="#4e627f" d="M94.7 40.4c.7 0 .7.6.9.9.4-.1.7.2 1 .3.3.1.4 0 .4-.3l.1-.8v-1.4c-.1-.5.3-1-.2-1.4-.5.6-.8 1.3-1.2 1.9-.1.2-.1.4-.4.3H95c-.1 0-.4.1-.3.5z"/><path fill="#8eb3cc" d="M88.4 4.4h.2c-.3-1.5-1-2.8-2.6-3.5v.3l.3.5h-2.7c-.3 0-.6-.1-.8.3.1.6.6.7 1 .7h2.9c.5 0 .8.2 1 .6.2.5.3.9.7 1.1z"/><path fill="#b2d4e8" d="M52.6 1.9l-1-.9c-.2.3.2.4.2.6l-.1.1-3.1-.2c-.3 0-.7.2-1 .4.1.5.3.6.9.5 1.1-.1 2.2-.2 3.3 0 .3.1.6 0 .9-.1l-.1-.4z"/><path fill="#52708c" d="M86 1.2V.9c-.8-.6-1.8-.4-2.7-.4l-2.1.1 1.1.9c.2.2.3.3.6.2.8-.2 1.7-.1 2.5-.3.2 0 .4 0 .6-.2z"/><path d="M29.8 18.3a2 2 0 0 0-.8-1.2c-.1.5-.5.3-.7.3l-6.2.1-.9.1c.2.3.6.2.9.2l1.4.1a20.4 20.4 0 0 0 4.4-.1c-.6 0-1.1.3-1.6.4-.2 0-.5.1-.5.4 0 .3.4.2.6.2.8-.2 1.7-.3 2.4-.6.3-.1.3.3.5.3s.4 0 .5-.2z" class="st33"/><path fill="#85899a" d="M99.9 19.1c-.7.1-1.3.3-2 .3l-6.5.2c-.3.2-.7-.2-.9.3.3.3.6.3 1 .3 1.6.1 3.2-.2 4.8-.2h1.8c.5-.1 1-.1 1.3-.4h.2c.2-.1.4-.2.3-.5z"/><path fill="#cdd6dc" d="M89.6 13.7c.3-.1.1-.4.1-.6.1-.2-.1-.5.3-.6.1-2 0-3.9-.7-5.7l.1 2.6c-.2.8 0 1.5-.1 2.3l.3 2z"/><path fill="#c0d0e3" d="M97.1 39v1.5 1.2h.2l.3-3.6c-.1-.3.2-.7-.3-.7-.3.5 0 1.1-.2 1.6z"/><path fill="#748b9d" d="M92 17.6c.3.2.3-.1.2-.2-.2-.3-.2-.6-.2-.9-.1-.4.2-.2.4-.3-.5-.2-1.1-.4-1.7-.2v.1c.1.1.2.2.3.1.2.3.9.4.6 1.1l.4.3z"/><path fill="#315b77" d="M23.4 17.7c-.7-.3-1.5 0-2.3-.2h-3c.1.2.4.1.3.4.1.2.3.3.5.2.2-.3.5-.2.8-.2h2.7c.4 0 .8.1 1-.2z"/><path fill="#5c6a7f" d="M23.6 46.7H23c.2.4.6.6 1 .7 0-.3.2-.7-.4-.7z"/><path d="M14.2 42.8c-.7 0-1.4-.1-2 .1.7 0 1.3.1 2-.1z" class="st0"/><path d="M53.2 3c-.1.4.2.8.3 1.2l.3.2c-.2-.5-.3-1-.6-1.4z" class="st22"/><path d="M28.1 12.5V11a2 2 0 0 0 0 1.5z" class="st12"/><path d="M69.8 44.5c-.5 0-1-.2-1.5.1.5 0 1 .1 1.5-.1z" class="st3"/><path d="M35.6 46.7c-.5 0-1-.2-1.5.1.5 0 1 .2 1.5-.1z" class="st40"/><path d="M97.1 41.7v-1.2c-.3.3.2.9-.4 1.1.1.2.2.1.4.1z" class="st26"/><path d="M12.5 22.1l-.2-.1c-.4-.5-.9-.9-1.6-.8l-1.2.2c-1.9.1-3.9.2-5.8.1l-.4.1c-.1.2-.5.2-.2.6l3.1-.1c1.5-.2 3 0 4.6-.1.7 0 .8.3.7 1.2-.3.3-.7 0-1.1.2.3.2.7.4 1.1.3.4-.1.7.1.6.4-.2 1 .2 1.9.3 2.8 0 .7-.1 1.2-.5 1.8l-.1.1c-.7.2.5 1-.4 1.2-.6.2-.2.9-.2 1.3-.2.8.2 1.5.4 2.3.1.4.3.9.8.7.3-.1.3.7.6.1l.1-.2c0-.5-.1-1 .1-1.4l-.1-.6c-.8-.4-.8-1.2-.1-1.8.5-.4 1.1-.6 1.4-1.2l.2-.1c1.3 0 2.5-.7 3.8-.4.4.1.8.1.7-.5-.5-.3-1.1-.3-1.6-.2-.4.1-.9.2-1.1-.3-.2-.5-.3-1 .2-1.4.4-.3.8-.8 1.4-.3.3.3.6.2.8-.1l.5-.6c.2-.7.1-1.4.1-2.1 0-.6-.5-.7-.9-1-.8-.2-1.7-.1-2.5-.1s-1.5.3-2.3.3c-.2 0-.4 0-.4-.3-.5-.1-.7-.1-.8 0z" class="st41"/><path d="M11.7 36.3c.1-.5 0-1-.3-1.4-.3-.5-.5-1-1.3-1.1-.4 0-.8-.2-1.2-.4-.5-.3-.9-.2-1.2.4-.3.5-.6.9-1.2 1-.4.1-.9.3-1 .8 0 .6.3 1.1.8 1.4.7.4 1.2 1 1.8 1.5.3.3.6.4 1 .3 1-.1 1.8-.5 2.3-1.4.3-.4.3-.7.3-1.1z" class="st42"/><path fill="#2a2937" d="M12 41.6l6.4-.3c-.6-.6-.1-.8.2-1.1.5-.7.3-1.5.3-2.3 0-.4-.5-.4-.8-.4l-.2.1c0 .6-.2 1.1-.1 1.7v0l-1.3-1.1-1.9-1.5c-.2-.2-.4-.4-.7-.3-.4-.1-.7-.3-.8-.7-.1-.1-.1-.3-.3-.3-.2.1-.2.2-.2.4-.2 1.2.2 1.8 1.4 2.1.9.3 1.4 1.1.8 1.6-.4.3-.8.7-1.3.8l-1.4.3c-.3.1-.6.3-.1.5.2.2.1.3 0 .5z"/><path fill="#4c3f49" d="M11.4 23.1c.3-.2.5-.6.3-.9-.2-.4-.6-.6-1-.5l-2.9.1-4.8.3c-.9.1-2 1.4-2 2.2 0 .1 0 .3.2.2.2-.1.5-.2.6-.4.8-.9 1.7-.7 2.6-.2.7.4 1.4.4 2.1.7.5.2 1.2-.1 1.5-.5 1.1-.9 2.2-1 3.4-1z"/><path fill="#151123" d="M1.1 24.3a4 4 0 0 1 2-2.2c.1-.2.3-.2.3-.5-1 0-2 0-2.5 1.1l-.1.4v1c0 .3.1.3.3.2z"/><path fill="#aeb4c4" d="M12.8 34.2s.1.1 0 .1c.1.2.2.5.5.3l.5-.5v-1.8l-.3-.5c-.3-.1-.5 0-.6.4l-.1.6v1.4z"/><path d="M13.7 34.2l-.3.5c.2.1.2.4.6.4.3 0 .4.4.3.7-.1.2-.4.3-.3.5l.6.4c.4-.9.2-1.9.1-2.8-.3-.4-.5-.3-.6.1-.2.3-.2.4-.4.2z" class="st47"/><path d="M10.8 39.3h-.9c-.2 0-.4 0-.4.2s.3.2.4.2c.4.2.6-.3.9-.4z" class="st42"/><path d="M13.4 35.5c0 .2.2.3.3.3.2.1.2-.1.3-.2l-.2-.3-.4.2z" class="st47"/><path fill="#adb7c7" d="M34.4 10.8v4.9c0 .8-.3 1.6 0 2.4.1.5.3.6.8.6l3.8-.1 2.7-.1c2.7.1 5.3-.1 8-.2 1.3 0 2.7.1 4-.2.4-.1.6.2.5.6v.3c.5-.2.4-.7.5-1.1l.1-1.6v-.1.1l.1 2c0 .3.1.5.4.6l.3-.2-.1-.4c-.2-.8 0-1.6-.1-2.4l-.1-.9c-.1-.3-.3-.2-.6-.3-.2-.1-.2-.4-.4-.4-.8-.1-1.5.3-2.3.6-1.2.5-2.4 1.2-3.7 1.1-1.5-.1-2.9-.1-4.3.1-.9.1-1.8 0-2.7.2-1.7.3-3.5.2-5.2.2-1.2 0-1.6-.4-1.4-1.6v-.3-.8-2.5c0-.2 0-.5-.2-.6.1.1 0 .1-.1.1z"/><path fill="#bdc1c9" d="M34.7 14.7l-.1.7c-.1.8.4 1.4 1.2 1.4 2.1 0 4.2 0 6.4-.2 1.5-.2 3.1-.4 4.7-.4l1.8.2c.4 0 .7-.2 1.1-.3 1.6-.4 3.1-1.4 4.8-1.6.3-.4.3-.8 0-1.2-.3-.3-.6-.2-1 0-1.1.4-2.2.5-3.4.6l-.5.1c-.2.3-.1.7-.2 1.1l.1-4.8c0-.4 0-.9-.3-1.2l-.2.3c-.3.4-.2.8-.2 1.2v3c0 .4-.2.6-.6.6-2.2 0-4.5-.2-6.7.3-.4.1-.8-.1-1.2-.1-.5.4-.3 1-.5 1.5-.4.2-.6-.1-.8-.3a2 2 0 0 0-1.8-.3c-.9.3-1.6.1-2.3-.6h-.3z"/><path fill="#d6dbdf" d="M49.7 14.1c1.3.1 2.6-.2 3.9-.5.9-.3.9-.3.9.6v.4c0 .2-.1.5.2.6.5-.4.3-1 .3-1.5l-.2-.7c0 .2 0 .5.3.6.3.1.5.1.7-.1.3-.8.1-1.6.1-2.4-1-.5-.8-1.7-1.1-2.5l-.1-.1c-.4-.2-.3.1-.3.3 0 .5-.3.7-.7.6-1.3-.3-2.6 0-3.9.3-.2.2-.2.4-.2.6v3.3c0 .1-.1.4.1.5z"/><path d="M49.1 10.7V9.5c-.1-.6-.5-.7-1-.5h-.4c-2.5-.1-5.1.3-7.6.1l-.1.1c-.1.4 0 .8.2 1.2.4.5.8.5 1.4.4l3.3-.3 2.5-.1c.6 0 1.1.4 1.7.3z" class="st51"/><path fill="#d9e3ea" d="M34.7 10.8v.6c0 .6.4.7.9.7l.6-.1c.9-.2 1.9-.5 2.9-.3.2.1.5 0 .7-.2.2-.5.3-.9-.1-1.3-.1-.8-.3-1.1-1.2-.8-.7.2-1.5 0-2.3 0-1.4.1-1.5.1-1.5 1.4z"/><path fill="#c5c6cb" d="M39.6 10.2v1.3c-.4.6-.2 1.2-.2 1.8 0 .7-.1.8-.8.7-1.2-.2-2.4.1-3.6-.3l-.3.1v.7c.7.9 1.4 1.1 2.6.8.6-.1 1.3-.1 1.8.4.2.3.5.4.9.3.2-1.8.3-3.5.2-5.3-.1-.3 0-.7-.3-1l-.3.5z"/><path fill="#424d64" d="M55.7 10.8v2.5c.4 0 .4-.3.4-.5l.1-1.5.1-.4c-.1-.6.3-1.2.5-1.7-.1-.5-.1-.9-.7-1-.3-.1-.7-.6-1 .1l.2-.6c0-.3 0-.5-.3-.5-.4 0-.2.3-.2.5l-.1.9c.5.5.6 1.4 1 2.2z"/><path fill="#f1f4f4" d="M49.7 14.1V9.6l-.3-1.8h-.2v1.3c.3 2.3.1 4.5.1 6.9.6-.5.3-1.2.4-1.9z"/><path fill="#636d7f" d="M54.8 7.6c.1-.1-.1-.4.2-.4.2 0 0 .2.1.3.1.4-.4.8.3 1.1 0-.2-.4-.4 0-.6.3-.2.3.3.5.3.1-.1.4-.2.3-.5-.3-.2-.3-.6-.2-.9l-.2-.4v-.3l-.1-.2-.7.1c-.3-.1-.4.3-.6.4-.1.4 0 .8.4 1.1z"/><path d="M39.8 9.9c0 .3-.1.6.1.9.3-.3.2-.6.1-.9 0-.3-.1-.5 0-.8 0-.8-.2-1.5-.4-2.2.1 1 .3 2 .2 3z" class="st51"/><path fill="#cee7f7" d="M82.7 1.7l-.4-.1v.3c.1.2.2.4-.2.5h-2.9c-1.5-.2-3.1-.1-4.6-.1-.2-.3-.5-.5-.6-.8l-.3-.2c-.3.6.3.7.4.9-.2-.3-.5-.3-.9-.3h-3.1c-.3 0-.6 0-.6.4.5.7.9 1.5 1.1 2.4.1.2-.1.6.3.8.2-.3.3-.5.6-.5l3.5-.1c.2 0 .3.1.3.3 0 .3.1.5.4.7l-.4-1.7c.5.7.9.7 1.4.5l.9-.1h5.2c.3 0 .6.1.5-.4 0-.2.1-.3.3-.3.2 0 .3.1.3.3.1.7.5.5 1 .5 1.1-.1 2 .3 2.9.1.3 0 .6 0 .6-.5-.7-1.8-.7-1.8-2.7-1.8h-1.9c-.5 0-.8-.1-1-.6l-.1-.2z"/><path d="M76.4 9.2c-.2.5-.5.6-1 .4-.7-.3-1.3.2-2 .2-.4 0-.9.2-1.3.1-.3-.1-.3.1-.3.3-.3.4-.2 1-.2 1.4 0 .3.2.5.6.5 1.1-.2 2.1.2 3.2 0 .5-.1.7.2.7.6l-.1.7c0 .5-.3.7-.8.6-.6-.1-1.1-.2-1.7-.1-.5 0-1.1-.2-1.7-.1-.1-.6.2-1.2-.2-1.8-.5.3-.3.8-.3 1.2.1 1.1-.2 2.1-.2 3.2 0 1.5 0 1.5 1.6 1.5 1 0 2 0 3-.2l1.3-.5c.3-.1.7-.2.7-.7 0-.5-.5-.3-.7-.5 0-.2.1-.2.2-.2 1.3 0 2.5-.4 3.7-.6.9-.1 1.9 0 2.8.1.5 0 1 .2 1.4-.2l-.1-.7c-.1-.2-.3.3-.5 0a9 9 0 0 0-4.3-.5h-2.9c-.2 0-.5-.1-.7.2l-.1.4v-.3c.2-1.5.3-3.1.1-4.6 0-.1 0-.3-.2-.4z" class="st58"/><path fill="#465467" d="M71.5 13.2c.1-.4-.1-.8.1-1.2l.1-.5-.2-2.3-.3-1.9c-.2-.2-.5-.4-.8-.2-.6.4-.6-.1-.8-.4-.2-.4 0-1-.5-1.2-.3-.2-.4-.7-.8-1-.2.3.3.6.1 1-.1.3.1.6.2.8.4 1.1.7 2.2.8 3.4l-.1 1.2v.1c.1.2.1.5.3.7l.3.4c-.1 1.1.9.9 1.4 1.3l.2-.2z"/><path fill="#a2acb5" d="M89.6 11.6c-.1-.7.1-1.5-.1-2.2-1.4-.1-2.8 0-4.2-.4-.4.4-.1.8-.1 1.2 0 .6-.2 1.3.2 1.9 1.4.1 2.8-.1 4.2-.5z"/><path fill="#d5ccc8" d="M71.6 11.6v2.3c1.3.4 2.7.1 4 .4.4.1.5 0 .6-.4.1-.5.2-1.1.1-1.6 0-.3-.2-.5-.5-.4-1 .3-1.9-.1-2.9 0-.4 0-.8.3-1.1 0-.3-.3-.1-.8-.1-1.2v-.4h-.1v1.3z"/><path fill="#69788a" d="M69.1 5.4l.4 1.7c.1.3.3.6.5.4.4-.4.8-.2 1.2-.2l-.3-1.9-.3-.8c-.4.3-.3-.4-.6-.3-.3.1-.3.6-.7.4-.2.1-.3-.2-.3-.4-.2-.6-.7-1-1.2-1.5-.2-.2-.4-.4-.8-.2 1.1.7 1.8 1.6 2.1 2.8z"/><path fill="#9db9cf" d="M85 8.6c-.3-.1-.3-.1-.4.5-.8-.2-1.7-.2-2.5-.2-1.7-.1-3.4.5-5.1.2l-.3.1c-.2.2-.2.4 0 .6.5.3 1.1.2 1.6.1l5-.4.7.1c.6.3.9.1 1.1-.5l-.1-.5z"/><path fill="#dee1e4" d="M85 8.6v.6c-.5 1.7-.1 3.4-.2 5.1l.2.3c0 .2 0 .4.2.6.1 0 .2 0 .1-.2v-.9c.3-.7.4-1.4.1-2.1l-.1-3.1-.3-.8v.5z"/><path fill="#e6e9ed" d="M76.8 9.8c-.2-.2-.1-.4-.1-.6-.1-.2.1-.5-.2-.7-.2.2-.1.5-.1.7.3 2 .1 4 0 6.1.5-.3.3-.7.3-1.1.4-.7.4-1.5.4-2.3-.1-.6.2-1.4-.3-2.1z"/><path d="M71.6 11.6v-1.4c-.1-.4.1-.7-.1-1.1 0 .9-.2 1.7.1 2.5z" class="st58"/><path fill="#718db4" d="M94.7 40.4l.5-.4c.2-.1.2-.3.2-.4 0-.5.3-.8.7-1 .2-.1.7-.2.2-.6-.5-.1-.9 0-1.2.3-.8.8-1.6.9-2.7.9l-2.8.3c-.5.1-1 .1-1.6 0-.5-.1-1-.1-1.5.1a16 16 0 0 1-5.3 1c-1.6 0-3.2.5-4.8.6h-1.7l-4.6.5a3 3 0 0 1-1.6-.1l-.4-.1c-1.4.3-2.9.1-4.4.5-1.6.5-3.3.6-5 .7l-2.7.5h-.9c-.9-.2-1.7-.1-2.6 0-1.5.3-3 .3-4.6.2-2-.1-3.9.3-5.9.4-1.3.1-2.7.3-4 .2-1.2-.1-2.4.2-3.6.5l-1 .1c-1.1-.2-2.1-.2-3.2-.1-1.2.1-2.4-.1-3.6-.1-.3 0-.5-.6-.9-.2v.2c0 .1.1.3-.1.2 0 0-.2.1-.1-.1l.1-.2v-.2c0-.6-.4-1-.7-1.5-.1-.1-.2-.1-.2 0-.2.5 0 1-.1 1.4.2.5-.1 1.1 0 1.7h1.5c.2.2.4.2.7.2l7.8-.5 3.2-.2c.3 0 .7 0 1-.2.9-.3 1.9-.1 2.8-.2l5.7-.4 8.6-.6 3.4-.1 2.3-.2c.5-.2 1.1 0 1.7-.1h1.8c.3-.2.6-.4 1-.1h.9c.4-.5.8-.2 1.2-.1H70c.3-.2.6-.4.9-.1h.8l.2-.2c1.2 0 2.4-.3 3.6-.2l.2.1h.8l-.3-.3c0-.2.2-.2.4-.2l5.6-.4 3.6-.5c1.9-.2 3.8-.6 5.7-.6 1.1-.3 2.1-.4 3.2-.4z"/><path d="M39 44.9c-3.2.1-6.5.3-9.7.6l-3.1.2c-.2.3-.6.1-.9.1-.3 0-.4.2-.5.5-.1.2 0 .5.3.5.3.1.5.4.9.3l5.5-.4c1.7-.1 3.4-.6 5.2-.4l.7-.1c.9-.4 1.9-.4 2.9-.8.1-.1.4.1.4-.2 0-.2-.2-.4-.5-.4l-1.2.1z" class="st40"/><path d="M75.8 42.5c-.5-.6-1.2-.3-1.8-.2l-1.6.1c-.3 0-.6 0-.6.4 1.2.1 2.3-.2 3.4-.1.2-.3.4-.2.6-.2z" class="st17"/><path d="M24.8 45.6c0-.5.3-1.1 0-1.6v-1.5c-.3.7-.1 1.4-.1 2v1.9c.2-.2 0-.5.1-.8z" class="st40"/><path d="M68.3 43c-.3-.3-1.1-.4-1.3-.2-.1.1.1.2.1.3.4-.1.8.1 1.2-.1zM66.2 43.1c-.4-.5-.8-.4-1 .1.3.1.6-.1 1-.1zM71 42.8c-.4-.4-.7-.5-.9.1.3.1.6 0 .9-.1z" class="st17"/><path d="M63.4 43.3c-.6.1-1.1-.2-1.7.1.6-.1 1.1.1 1.7-.1z" class="st67"/><path d="M67.7 33.2c.5 0 1 .1 1.4-.3a.8.8 0 0 0-.4-.2l-2.2-.1h-.3l.6-.3c.4-.5 1-.7 1.7-.7s1.4-.2 1.9-.8c.2-.2.4-.2.7-.1.5.2.9 0 1.3-.4.2-.3.5-.3.9-.4 1.2 0 2.4-.4 3.5-.8l.6-.2c.6 0 1-.3 1.2-1 .1.4.1.8.5.9.3 0 .5-.2.6-.5.5-1 1.5-1.1 2.5-1.4 1-.3 2-.4 2.9-.8l.3-.1c.4-.4-.1-.7-.2-1.1-.6-.2-1.2-.2-1.8-.2l-2.4.2-.8.1c-.5.2-1 .4-1.6.1-.4-.2-.9 0-1.2.4-.4.6-1 .8-1.6.8-1.5-.1-3 .2-4.5.1-.9-.1-1.8-.1-2.7-.5l-.9-.1h-.6c-.6-.2-1-.1-1.1.6-1.1-.4-1.8-.2-2.7.8l-.5.6c-.5.7-.7.7-1.4.3-.6-.3-.9-.3-1.2.4-.1.3-.3.5-.7.6-.7.1-1.1.5-1.5 1-.4.6-.9.9-1.7.9-.8 0-1.5.4-2.3.3h-.7c-.6-.1-1 0-1.4.5-.2.3-.6.4-.9.4-1-.2-1.2.8-1.9 1.2-.2.1 0 .3.1.4.3.2.7.3 1.1.3h2.5c2.6 0 5.3-.2 7.9-.4 1.9-.2 3.8-.3 5.8-.2.5-.1.9 0 1.2-.3z" class="st68"/><path fill="#b1b4c2" d="M85.3 26l-2 .4-2.7.7c-.6.2-.8.8-1.2 1.2-.1.1-.1.4-.4.3-.2-.1-.3-.3-.2-.5.1-.1.2-.3-.1-.4-.2 0-.5-.1-.5.3-.1.6-.4.7-1 .7-.4 0-.9.3-1.3.5-.9.5-2 .4-3 .6-.4.1-.7.1-.9.4-.3.5-.6.5-1.1.3-.4-.2-.7-.1-1 .3-.3.5-.9.6-1.5.6-.8 0-1.5.1-2 .8-.1.2-.5.3-.7.4 1.1.3 2.2.3 3.3.3 2.2 0 4.4 0 6.6-.2l6-.3 3.5-.1.6-.1c-.5-.4-1.1-.1-1.6-.2-.2 0-.4.1-.5-.2 0-.2.1-.4.3-.5.2-.2.5-.3.8-.2.5.1 1-.1 1.5-.2.4-.2.8-.3.4-.9-.2-.2-.1-.3.1-.4.2-.1.5-.3.6-.6.1-.8.6-.8 1.2-.8s1.1-.3 1.2-.9c.1-.4.4-.7.8-.8.3-.1.7-.1.7-.6l-.4-.1c-.6-.5-1.1-.7-1.7-.1l-.4.1c-.7-.1-1.4.1-2 .3-.6.2-1 .2-1.4-.1z"/><path d="M67.6 26c.9-.1 1.6.5 2.5.5 1.3 0 2.6.3 4 0h.5c1.1.1 2.2.3 3-.9.2-.3.8-.6 1.2-.1.2.2.4.2.7 0a3 3 0 0 1 1.6-.4c.3 0 .6 0 .9-.2.2-.2.4-.1.6 0l.3.1c.7-.3 1.5 0 2.2-.1.3-.1.6-.2.7-.6l.3-.2c.8 0 1.3-.6 2-.9.5-.3.3-.4.1-.6-.3-.3-.5-.7-1-.8-.3-.1-.3-.3-.2-.5-.2-.3-.5-.2-.8-.2-1.4 0-2.7-.1-4.1.2l-.6.1c-1.9-.1-3.8.2-5.7.2a77 77 0 0 0-4.8.2c-.2.1-.5.2-.4.5.1.3.4.2.6.2.3 0 .8-.2.9.3.1.5.3 1.1-.4 1.5-.1-.9-.4-1.3-1.1-1.4-.6-.1-.8.1-.7.7l.1.7c0 .3-.1.6-.5.7-.3.1-.5-.1-.6-.3-.3-.5-.6-.5-.9-.1l-.6.5c-.3.2-.3.5.2.9z" class="st70"/><path fill="#adafb9" d="M91.1 25.8c-.2.3-.5.3-.8.4-.5.2-.8.4-.9 1 0 .5-.4.7-.9.7h-.7c-.3 0-.7.2-.6.3.2 1-.6 1.1-1.2 1.4.2.3.7.3.6.6-.1.3-.4.3-.7.4-.4.2-.8.2-1.3.1-.3-.1-.6-.1-.9.2-.3.3-.5.6-.4 1 .1.3.5.1.8.2H85.8c-.2-.7.3-.9.8-1a3 3 0 0 0 1-.4c1.2-.7 2.4-1.2 3.7-1.8.8-.3 1.5-.9 2.3-1.2 1-.4 1.8-.7 2.8 0 .4.3 1.3-.2 1.5-.9.1-.4 0-.9.7-.5.2.1.3-.3.6-.2.1.3-.1.4-.3.6-.2.1-.3.3-.1.5.1.1.2.3.4.3.3 0 .2-.3.2-.5.2-.8.4-1.6.2-2.4l.2-.3v-.5c0-.2 0-.4-.3-.2-.2.1-.1-.3-.3-.4-.2.3-.2.6-.2.9 0 .2.1.6-.2.6-.3 0-.2-.4-.3-.6 0-.2 0-.5-.2-.6-.6.2-1 .4-1.4.9-.4.5-.8 1-1.6.5-.3-.2-.6 0-.9.1-.7.4-1.5.4-2.2.5l-1.1.3z"/><path fill="#6789ad" d="M82.1 21.5c1.6-.2 3.3-.2 5-.1l8.7-.3 2.9-.1c.3 0 .5-.1.7-.3-.3-.2-.6-.2-.9-.2h-1c-.5.1-.5-.6-.9-.5-.3.1-.4.6-.9.6h-.4l-4.6.1-7 .2c-1.1 0-2.1.3-3.2.1l-11.1.4-5.4.2-10.8.4h-1.5l-2.2.1c-.6.2-1.3.1-1.9.1l-8.1.3c-.2 0-.4 0-.6.2-.2.3.1.3.2.3h4.4l.6-.1c1.1-.2 2.1 0 3.2-.1l1-.1c.9-.2 1.7-.1 2.6-.1l1.5-.1c.8-.2 1.7-.1 2.6-.1l1.9-.1 1-.1c2.5.1 4.9-.2 7.4-.2.9-.2 1.9-.1 2.9-.1l1.5-.1 2.2-.2 6.3-.2c1.3.2 2.6.3 3.9.1z"/><path fill="#c4b4ac" d="M80.5 21.2l11.3-.4h3.9c.6 0 .6 0 .8-.7l.1-.1.3.2c0 .6.4.4.8.4h1.7v-1l-8.1.3c-.3 0-.6.1-.8-.1l-5.4.1-4.9.1-.5.1c-.2.3 0 .3.2.4.3.1.6 0 .9.3 0 .2-.4 0-.3.4z"/><path fill="#433c47" d="M98.4 23.5v1c0 .3.1.6.5.6.3 0 .4-.3.4-.6v-1.2c-.5-.5-.7-.2-.9.2z"/><path fill="#9bc4dd" d="M47.1 1.8c-1-.7-2.1-.1-3.2-.2l-3.6-.1c-.7-.1-1.5.1-2.2.3.2.5.5.5.9.5 2.6-.1 5.1.1 7.7-.1.4 0 .5.4.8.6 0-.4-.1-.7-.4-1z"/><path fill="#abcee4" d="M37.7 2.1c-.2-.5-.6-.5-1-.5l-1.2.1-2.3-.1c-.3 0-.6-.1-.6.4l.3.5c.2-.3.6-.1.8-.2 1.4-.1 2.7.1 4-.2z"/><path fill="#2e3b4d" d="M31.7 17.6c1-1.6 1.1-3.3 1.2-5.1V11c-.8-.3-1.6-.4-2.3.2-.4.8-.6 1.7-.4 2.6l.1.2c.2.2.2.4.1.6-.1 1.1.2 2 .9 2.8.1.1.2.3.4.2z"/><path fill="#7a8fa3" d="M30.4 14v-.1c-.2-.3 0-.7-.1-1-.1-.7-.4-1.4 0-2.1.1-.8.2-1.6-.1-2.3-.2-.4 0-.7.1-1.1l.3-1.2c.1-.4.5-.8.7-1.2-.4-.3-.7-.1-1 .2-.7.7-.9 1.6-1.1 2.6a15 15 0 0 0-.3 3.7c.2 1.6.1 3.3.8 4.9.1.3.1.3.5.5.3-.4-.1-.8-.1-1.2l-.2-.8a13 13 0 0 1-.3-4.4c.2 1.2 0 2.4.1 3.6.2.3 0 .7.4 1 .2.3-.1-.7.2-.1.1.1.2 0 .2-.1-.1-.4.1-.7-.1-.9z"/><path fill="#707d8e" d="M47.3 18.8c-1.8 0-3.7-.1-5.5.1h-1l-6.4.1c-.4.1-.3.3-.1.5.4.3.9.2 1.4.1l3-.1 6.5-.2h2.5c1.9.1 3.7-.1 5.6-.2.3 0 .6 0 .7-.3-.6-.4-1.3-.3-1.9-.3H50.3c-1.1.3-2.1.1-3 .3z"/><path fill="#476077" d="M53.9 18.8c-.4.3-.9.1-1.4.1l-6.9.2-6.2.2-5.2.2c-.2.1-.2.3 0 .4 1.1.2 2.2.1 3.2 0 1-.2 2-.1 3-.1l1.7-.1.6-.1c2.3.1 4.7-.2 7-.1l4-.2.5-.1.1-.2v-.3h-.1l-.3.1z"/><path fill="#3f4b5c" d="M30.5 5.9c-.4.8-.7 1.7-.5 2.4.2.8.1 1.6.2 2.4-.2.2-.2.5 0 .7.2.2.4.1.5-.1.7-.6 1.5-.2 2.2-.3v-.3c-.5-.5-1.1-.1-1.8-.4.7-.2 1.2-.2 1.8-.2v-.3l-.1-.7c-.4.4-.9.3-1.5.2.5-.1 1.1.1 1.5-.3l-.3-1.1c-.2.3-.6.4-1 .4-.8 0-1 .2-1.2.7l.5-2.7c.2-.5.1-.6-.3-.4z"/><path d="M34.1 19.8l.2-.3c0-.2 0-.3.2-.4-.4-.7-1-.5-1.5-.3-.4.1-.6 0-.4-.5-.7.6-1.3.5-2.4-.3-.3.1.1.4-.2.5-.1.2 0 .3.1.4 1.1.9 2.4 1.3 4 .9-.1.1 0 0 0 0z" class="st33"/><path fill="#5f768d" d="M30.1 18.8l-.1-.3-.2-.2h-.4c-.4.2-.9.1-1.3.3-.2.1-.5 0-.5.4.3.2.3.4.1.6-.3.4 0 .5.3.6h1.8l.2-.1c.4-.4-.1-.9.1-1.3z"/><path d="M30.4 14v.7c-.2 0 0-.3-.2-.3v.5c-.2.9.2 1.6.6 2.2.3.2.4 1 1 .5-.8-.6-1-1.6-1.2-2.5 0-.2-.1-.5.1-.7.3-.4 0-.4-.3-.4z" class="st83"/><path fill="#232a3a" d="M32.9 10.1c-.7-.3-1.3-.2-2 0l-.2.2c0 .1.1.2.3.2l1.8.1.1-.5z"/><path fill="#bcd8ea" d="M30.7 17.1c-.2-.7-.6-1.4-.6-2.2-.3-.3 0-.7-.3-.9-.3.2-.1.5-.2.8l.5 1.9.4.8c.2 0 .1-.3.2-.4z"/><path d="M53.9 18.8h.1l-.1-.2c-1.1 0-2.2-.2-3.3.1.2.1.5.2.7.1.9-.3 1.7 0 2.6 0z" class="st86"/><path d="M32.6 2c.7-.6 1.4-.2 2.2-.2.2 0 .5.1.7-.1-.7-.4-1.5-.1-2.3-.1-.4 0-.7-.1-1-.3 0 .3.2.5.4.7z" class="st12"/><path d="M47.3 18.8c1 0 1.9.2 2.9-.1-1 0-2-.2-2.9.1z" class="st86"/><path d="M85.4 19.7c.2-.3.1-.5-.1-.6-.7-.3-1.3-.6-2.1-.5-.6.1-1.2-.1-1.9-.1a.8.8 0 0 0-.5-.2c-1.4 0-2.8-.1-4.2.1h-.4c-2.2-.1-4.5.2-6.7.2-1.5-.1-3 .2-4.4.1-.4 0-.7 0-.7-.5-.1-.9.3-1.8.3-2.6 0-.4 0-.7-.5-.7-.5.5-.3 1.2-.4 1.8v1.4c0 .3-.1.5-.3.7v-.4c0-.2 0-.4-.2-.5-.3-.1-.3.2-.4.4-.1.2-.2.5-.5.5l-.4.2v.2h.1c.1 0 .1 0 0 0-.7-.1-1.4.1-2 .5-.4.3-.9.3-1.3.4-.3.1-.6.3-.1.6h3l2.5-.1c2.3-.1 4.7-.4 7-.3h2.5c1.2-.2 2.4 0 3.7-.1l7.2-.3c.4 0 .6 0 .8-.2z" class="st87"/><path d="M85.3 15l-.1.2c-.8.4-1.6.1-2.3 0-1.5-.1-2.8.1-4.2.5l-1.6.1c-.3 0-.6.1-.6.4 0 .4.3.2.6.2.2 0 .5-.1.5.2 0 .2-.2.3-.4.4-.4.3-1.1.1-1.4.6.6.4 1.3.2 2 .1.5-.1.9-.2 1.4 0h.7c.9-.4 1.9-.5 2.9-.6.5-.1.9-.3 1.3-.6.4-.4 1-.7 1.6-.6 1.3.1 2.5-.3 3.8-.5.3-.3.1-.7.1-1 0-.4-.1-.4-.5-.4-1.1.2-2.1.7-3.1 1-.3 0-.5.2-.7 0z" class="st88"/><path fill="#949ca9" d="M89.3 15.3c-.3-.3-.7-.2-1 0-.7.3-1.4.4-2.2.3-1 0-1.8.2-2.6.9-.4.4-1 .3-1.6.4-.8.1-1.5.2-2.2.5l-.3.1c-1.1-.6-2.2.2-3.3 0h-.4c-1.2.2-2.4.1-3.6.2-.7 0-1.1-.1-.9-.9v-.4c-.6.3-.3.8-.4 1.2l.1.6c.1.2.2.4.4.2.2-.4.5-.3.9-.3 2.7.1 5.3-.1 8-.2l7.8-.3c.3 0 .6-.1.8.1l.2.4c.2 0 .5.1.4-.2-.3-.8 0-1.7-.1-2.6z"/><path fill="#d0c5bf" d="M85.4 12a5 5 0 0 0-.1 2.1c.8.1 1.5-.3 2.2-.5l1.2-.4c.5-.2.8-.1 1 .4v-2.1l-4.3.5z"/><path fill="#425972" d="M71.3 18.3c-.3-.2-.1-.5-.2-.8H71c-.2.6-.6.9-1.2.9-.1 0-.3.1-.3.3l10.2-.3h1.6l.7-.1 7.2-.2v-.4c-1.2-.2-2.4 0-3.6 0-4.4.1-8.9.4-13.3.4-.4 0-.7 0-1 .2z"/><path fill="#98a0b5" d="M85.4 19.7l-7.9.3c-.9.2-1.9 0-2.8.1-.3 0-.6-.1-.9.1-.3.2-.7 0-1.1.1-.2 0-.4 0-.3.3.5.3 1.1.2 1.6.1.6-.2 1.3-.1 1.9-.1h2.9c.3 0 .7 0 .9-.2.2-.2.4-.1.6-.1l9-.2 1.2-.3c.3-.1.6.1.9-.2-2-.2-4 .2-6 .1z"/><path fill="#141b22" d="M92 17.6c-.1-.2-.2-.3-.5-.3-.3.7-.3.8.5.7v-.4z"/><path fill="#0d1f34" d="M91 16.2c0-.2-.2-.2-.3-.1l-.1 1.2h.1l.3-1.1z"/><path fill="#192033" d="M69.5 9.6c-.1-1.5-.5-2.9-1.2-4.2-.9-1-1.3-1-2.1-.5-.6.3-.7.8-.8 1.4.3.4.4 0 .5-.2.6-.3 1.1.1 1.5 0-.4.1-1-.3-1.6.1 0 .5.4.6.8.6h1.1-1.5c-.3 0-.7.1-.7.5 0 .3.3.3.6.3.7.1 1.5.2 2.2.1-.6.3-1.3.2-2.1.2-.3 0-.7 0-.7.4s.4.4.7.4c.8.1 1.6-.1 2.5.1H66c-.3.2-.6.2-.6.5s.2.4.5.5h2.8c.3 0 .6 0 .8-.2z"/><path d="M65.9 6.2c-.2 0-.2.3-.5.1l-.2.1-.5 2.3c0 .7.2 1.5.7 1.8.5.3 1.3.3 2 .2-.1-.5-.6-.2-.9-.4.2-.1.5 0 .7-.2.2-.2.1-.4-.1-.6-.4.2-.8-.1-1.2 0-.2 0-.5 0-.5-.3s.4-.3.6-.3c.7.2 1.5 0 2.2.1h.3c.2 0 .5.1.5-.3 0-.3-.3-.3-.5-.3h-2.4c-.2 0-.6.1-.6-.3s.4-.2.6-.2h2.1c.2 0 .6.1.5-.3 0-.4-.4-.2-.6-.3-.5-.1-.9.3-1.3.1-.4-.2-.8-.1-1.4-.2 1.1-.7 2.2-.1 3.1-.7h-1.7c-.4.3-.8.2-.9-.3z" class="st96"/><path fill="#81a8c5" d="M69.5 2.3c.1-.2.2-.2.4-.2h2.9c.7 0 1.4 0 1.7.8 0-.7-.6-1-.8-1.6-.2-.2-.3-.7-.6 0-.1.3-.6.1-1 .1-.6 0-1.3-.2-1.9 0-.9.3-1.5-.4-2.2-.6.6.4 1 1 1.5 1.5z"/><path fill="#141724" d="M69.5 11.6c0-.2.1-.6-.3-.6-1.5.1-2.9.3-4.4.1-.4-.1-.5.1-.5.5l.1.1c1.1.5 2.2.4 3.3.4.5-.2 1 0 1.5-.2l.3-.3z"/><path fill="#2a3243" d="M67.3 9.6c0 .2.2.7-.4.5-.1 0-.5 0-.5.2 0 .3.3.3.6.3.2 0 .5-.1.6.1h1.7c.6-.3.2-.8.3-1.2l-2.3.1z"/><path fill="#617896" d="M65.3 6.5l.2-.1c.3-.4.4-1 .8-1.3-.5-.1-.9 0-1.2.4-.5.9-.9 1.9-.8 3l.5-1.7c0-.5.1-.7.5-.3z"/><path d="M26 44.3c0-.1.1-.4.3-.2.6.8 1.4.3 2.1.4 1.8.3 3.6-.3 5.4.2.7.2 1.2-.2 1.8-.3 1.4-.3 2.9-.1 4.3-.3 1.8-.2 3.7-.2 5.5-.5 1.3-.2 2.7 0 4.1-.1 1.4-.1 2.8.1 4.1-.4h1.2c1.2.4 2.4 0 3.5-.2.8-.2 1.6-.2 2.4-.2 1.7-.1 3.4-.5 5-.9h.6c.5.1 1.1.2 1.6-.1.2-.1.4-.2.6-.1.9.6 1.8.1 2.8.1.5 0 1.1-.1 1.6 0 .4.1.8-.5 1.3-.4 1.8.2 3.6-.1 5.4-.4 1-.2 2.1 0 3.1-.2 1.4-.3 2.8-.4 4.1-.9.5-.2.9-.1 1.5-.1 1.2.1 2.4-.1 3.6-.3.4-.1.8-.2 1.2-.1.7.2 1.3 0 1.8-.5s1-.8 1.7-.7c.2.2.3 0 .4-.2.4.4 0 .8.2 1.2.2-.5.1-1.1.1-1.6-.6-.4-1.2.1-1.8 0-1.1-.2-2.2 0-3.3.1l-2.4.1a73 73 0 0 0-6.6.4l-3.7.2c-.5 0-1 0-1.4.2-1 1.5-2.6 1.6-4.2 1.7-.9.1-1.7.1-2.5-.4-.6-.4-1.3 0-1.8.3-.3.2-.5.2-.8.2a12 12 0 0 0-5.6.8c-.3.1-.6.3-.9.2-.9-.2-1.8.1-2.7.1-.9.1-1.9.1-2.7.6-.7.4-1.3.5-2 .1a2 2 0 0 0-2 .1c-1 .6-2 .6-3.1.3l-.7-.1c-1.3.1-2.6 0-3.8.4-.4.1-.7 0-1.1-.1-1-.4-2-.3-3 .2-.4.2-.7.3-1.2.2-.7-.2-1.5-.2-2.2.2-.7.4-1.5.3-2.2.4-1.6.2-3.3-.2-4.9 0-1.2.2-2.5-.3-3.6-.8-.6-.3-1.3-.5-1.8-1.1l-.2-.1c-.2 0-.3.1-.3.4l.1.4c.2.6.7 1 .8 1.7.1 0 .1.2.3.1z" class="st67"/><path fill="#90add7" d="M94.6 32.3c-1.3.3-2.6.1-3.9.3-.4.2-.8.3-1.2 0L83 33l-4 .2-8.5.5-2 .1c-.4-.2-.9-.3-1.3-.2-3.5.4-7 .4-10.5.7l-6.5.4-7.4.4-6.7.3-8.6.4-4.1.2c-.4 0-.8 0-.9-.5 0-.3 0-.5-.2-.8-.5.1-.3.5-.4.8v.6l.1.9.1.2c.8-.4 1.7-.2 2.6-.3l3.8-.1 8.4-.4 9.1-.5.7-.1c3.6 0 7.2-.3 10.8-.5 2.9-.1 5.8-.2 8.7-.5l.6-.1 7.8-.3 9.9-.5.6-.1a214.2 214.2 0 0 0 9-.7h1.2c.2-.1.4-.2.4-.5-.1-.2-.3-.2-.5-.3h-.6z"/><path d="M93.8 33.2l-7.2.4h-1.8c-.1.2-.2.3 0 .5.5.6.9 1.5 1.7 1.8 1.3.4 2.3 1 3.2 1.9 1.9 0 3.8-.2 5.7-.4-.9-.5-1.4-1.5-1.6-2.8-.4.1-.9.6-1.2 0-.2-.5.4-.7.7-.9l.5-.5zM94.6 32.3c0 .2.1.3.3.3.7 0 .3.3.2.6a47 47 0 0 0 3.7-.5c.2 0 .6.3.7-.2-.9-.1-1.9.3-2.8-.2h-2.1z" class="st102"/><path fill="#454b5e" d="M98.9 38.3V38c-.2-.2-.3-.4-.7-.3-.2.1-.2.3-.2.5 0 .3.4.3.6.4.3.2.1-.3.3-.3z"/><path fill="#283447" d="M30.5 5.9c.1.1.4-.1.3.3-.3 1-.6 2.1-.4 3.3.3-1 .4-1.1 1.4-1.1.4 0 .9.1.8-.6-.2-1.1-.4-2.2-1.3-3-.5.2-.7.7-.8 1.1z"/><path fill="#1c2236" d="M32.9 8.9c-.7.2-1.4 0-2 .2.6.6 1.8.5 2-.1v-.1z"/><path fill="#a5cbe9" d="M22.3 35.4c0 .6.2.8.9.8l7.6-.4c2 0 3.9-.2 5.9-.3l9.2-.5 5.3-.2c2.5-.3 5.1-.1 7.6-.6h.1c3.2.2 6.4-.5 9.5-.5-.1-.4-.6-.2-.7-.6a53 53 0 0 0-6.9.2c-2.7.2-5.4.4-8.1.4-1.1.2-2.1.1-3.2.1-1.6 0-3.2 0-4.8.2-1.4.2-2.8.1-4.2.2l-8.5.4c-1 .2-2 .2-3 .2-1.6.1-3.1.3-4.7.2-.7 0-1.4 0-2 .4z"/><path d="M89.5 32.6c.2.4.7.4 1.2 0h-1.2z" class="st102"/><path fill="#3d4659" d="M20.1 42.4c0-.3.3-.6-.1-.9.6.4 1.9-.9 1.8.9.2-1-.1-2 .2-2.9.2-.4.2-.9.1-1.4l-.2.1c-.2.3-.5.3-.8.3-.4 0-.8 0-1.3.2 0 0 0-.2.1-.1.2.1.2-.1.2-.2-.1-.4-.4-.6-.8-.5-.1.8-.7 1.5 0 2.3 0 .9.2 1.6.8 2.2z"/><path fill="#a48354" d="M19.4 40.2l.1-.1c-.5-.7.1-1.4 0-2.1l.1-.5-.2-.2c-.5 0-.9-.1-1.3.2.7 0 .9.5.7 1-.1.5.3 1-.3 1.4l.1.2.8.1z"/><path d="M24.5 36.8h-1.8c-.4 0-.5.2-.6.4-.2.3-.3.6.1.8.5.7 1.3.6 2 1 .4.2.7.4.5.9-.1.3-.1.6.2.8.5.3.3.6.2 1 .4.2.9.1 1.3.1 2.5-.3 5.1-.2 7.7-.4l1.3-.2c.8-.2 1.7-.1 2.5-.1h.4c.6-.2 1.2-.1 1.8-.1l.5-.1c.7-.2 1.4-.1 2-.1l.9-.1c.6-.2 1.3-.1 1.9-.1l.5-.1c.3-.6.1-.9-.5-1l-1.8-.3c-.4 0-.7-.2-1-.4-.3-.2-.7-.4-1-.3-.6.2-1.2 0-1.8-.1-2.6-.2-5.1-1-7.8-.5h-1.5-.1c-1.4.3-2.8.1-4.2.1-.3 0-.5.1-.5-.4 0-1 0-1-1.2-.8z" class="st109"/><path fill="#545f7a" d="M23 43.1v.6c0 .3.2.5.5.5s.5-.1.6-.5v-1.1c0-.3-.1-.6-.5-.6s-.6.2-.6.6v.5z"/><path d="M23.5 40.3c-.3 0 .6.8-.3.4-.2-.1-.2.2-.1.3.1.2.3.4.5.3.2 0 .4-.2.4-.4.1-.4-.2-.6-.5-.6z" class="st109"/><path fill="#98484b" d="M22.2 38c-.2-.2-.1-.5-.1-.8L22 37c-.4.3-1 .2-1.1.8.3.4.6.5 1.1.3l.1-.1c.1.1.1 0 .1 0z"/><path d="M24.9 42.5l-.1-.4V44c.3-.5.1-1 .1-1.5z" class="st112"/><path fill="#7b8ea5" d="M10.7 21.2l1.6.8v-.9c-.6 0-1.3-.5-1.9-.2l.3.3z"/><path fill="#f0eeeb" d="M12.5 22.1h.4c.3.3.7.2 1.1.2 1.1-.2 2.2-.2 3.3-.5l.3-.1.8-.2c1-.1 1.3-.5 1.1-1.6-.1-.4-.3-.8 0-1.3.2-.4-.2-.5-.6-.5l-.4-.1-2.7.2c-.4.3-.8.2-1.3.2-.3 0-.6-.1-.9.1-.9.2-1 .9-1.1 1.7v1.9z"/><path fill="#fcfcfc" d="M55 6.1l.7.1.5.2h.4l5.5-.2.2-1.3c-2.2-.2-4.4.1-6.7.1-.9 0-1 .2-.6 1.1z"/><path d="M13.6 18.5h1.7c.2 0 .5 0 .5-.3-.7.2-1.5 0-2.2.3z" class="st20"/><path fill="#202646" d="M63.4 9.6a6 6 0 0 0-.5-1.9c-1.4.1-2.8 0-4.2-.1-.6-.1-1.3.3-1.9 0l-.2.2.5 3.5h.1c.5-.9 1.3-.7 2.1-.6 1.2.2 2.4-.2 3.6-.2.6-.1.4-.6.5-.9z"/><path fill="#2c212a" d="M63.4 9.6c-.2.4-.4.6-1 .7-1.3.1-2.7.3-4 .1-.7-.1-1.2.1-1.2.9-.3.3-.3.5-.1.9 1.7.8 3.4.2 5.1.4l.8-.1c.3-.1.2-.4.2-.6 0-.1.1 0 0 0v.6c.1.1.1.1.2 0 .1-1 .2-1.9 0-2.9z"/><path fill="#c7e0f0" d="M56.5 6.2h-.4c.1.8.5 1.2 1.2 1.2h4.5c.4 0 .9-.1.6-.7l-.4-.4c-1.7-.3-3.5 0-5.2-.1h-.3z"/><path fill="#707f91" d="M63.5 12.5h-.1c-.2.1-.2.3-.2.4-.1.8-.4 1.6-.6 2.3.2.4.4.2.5 0 .3-.3.5-.7.5-1.1-.1.5 0 .9.2 1.3.5.1.2-.4.5-.6.4 0 .4.2.4.6-.1.9-.5 1.8-.4 2.7.5-.2.3-.7.5-1 .1.1.3.4.5.3.3-.2 0-.5-.1-.7l-.4-.7c.5.9.9 1.2 1.7 1 .2 0 .4-.1.3-.4a.8.8 0 0 0-.4-.4l-.2-.1c-.6-.2-.8-.7-1-1.1-.3-.6-.3-1.3-.5-1.9 0-.2 0-.5-.3-.5h-.1v.1c0 .2 0 .4-.3.4-.1.3 0 .6 0 .8 0-.2-.1-.5 0-.8 0-.6 0-1.2-.2-1.8-.1.5 0 1-.3 1.5v-.3z"/><path fill="#39496c" d="M62.4 6.7c0 .3 0 .5-.4.5h-4.8c-.7 0-.7-.7-1.1-1h-.4v.1c.3.5.5 1.1 1 1.4.6.2 1.2 0 1.7 0 .8 0 1.7 0 2.5.2.7.2 1.3 0 1.9-.2 0-.4-.1-.7-.4-1z"/><path fill="#98bedb" d="M64.4 12.8c.4.6.3 1.3.5 1.9.2.6.4 1.2.9 1.7.1.1.3.2.4 0 .1-.2 0-.3-.1-.4a6.8 6.8 0 0 1-1.2-3.7c0-.3-.1-.6-.5-.7.1.4-.3.8 0 1.2z"/><path fill="#8ca7c3" d="M56.5 6.2c.1.4.7.3.8.3 1.1-.2 2.1-.1 3.2-.1l.6.1c.4.3.7.2 1-.1v-.2c-.8-.3-1.7-.1-2.5-.1l-3.1.1z"/><path fill="#95bdd8" d="M74.6 2.2c.1.2.3.2.5.2 1.4 0 2.9 0 4.3.2.9.1 1.9.2 2.8-.1.3-.1.4.2.6.2-.1-.4-.3-.6-.5-.8-2.3.3-4.5 0-6.8.1-.3 0-.6-.1-.9.2z"/><path fill="#5f799e" d="M97 37.8l-.4.2-.2.3c-1 .2-1.1.9-1.1 1.7.2.3.6-.1.9.5-.4-1.3.7-1.8.8-2.7z"/><path fill="#6690af" d="M82.7 1.7l.1.3c.6-.2 1.1 0 1.7 0h2.2c-.1-.5-.4-.6-.7-.7l-2.9.2c-.2-.1-.4-.1-.4.2z"/><path fill="#d5dfe5" d="M18.8 18.1c.2.1.5.1.6.5-.4-.1-.6 0-.4.5l.3 1c.3.8 0 1.2-.9 1.2-.3 0-.6 0-.8.2.2.2.5.2.8.2h.2c.6-.2 1.2 0 1.7-.1.2-.2 0-.4-.1-.6l-.2-.4c-.2-1-.2-1 .8-1.1l6.8-1.6c-.2-.3-.4-.2-.6-.1h-7.8c-.1-.1-.4-.1-.4.3z"/><path fill="#97b0c8" d="M27.2 17.7l.4.1c-1.9.3-3.8 1-5.7 1.2-.3 0-.8.1-1 .4v.2c.3.2.6.5 1 .5l6.3-1.5c.3-.1 1 0 .8-.7-1 .3-2 .6-3 .6l2.6-.7c-.6-.3-1-.3-1.4-.1z"/><path fill="#3b5167" d="M29 17.9c0 .5-.3.4-.6.5l-5.7 1.3-.9.3.1.2c.5.1 1-.1 1.5-.2l3.4-.8c.3-.1.6-.1.8-.4.5-.1 1.1-.3 1.7-.2.5.1.1-.2.2-.3-.3-.1 0-.5-.5-.4z"/><path d="M18.6 21.5h-.1c-.3.1-.3.4-.4.6v.1c1 .4.7 1.3.7 2.1v.9c-.4.9-.4 1.9 0 2.8 0 .3-.2.5-.5.4a5 5 0 0 0-2.7.1c-.4.1-.8.4-1.3.1-.1-.1-.3.1-.3.2 0 .6-.5.8-1 1-.7.3-1 .9-.9 1.6.1.5.3.8.8.5.2-.1.3-.3.5-.3s.2-.1.3-.2c0-.3-.1-.5 0-.8.1-.3.1-.7.6-.6 1.5.2 3-.1 4.5 0 .5 0 .8-.3.8-.8V28v-3.2-2.4c0-.7-.1-.8-1-.9z" class="st129"/><path fill="#3f3e4c" d="M18.8 28.1v-2.8l-.3.1c-.3.4-.5 1.1-1 .1h-.3c-1 .1-1.7 1.2-1.4 2.2.2.6.7.7 1.1.6.6-.4 1.3-.1 1.9-.2z"/><path d="M17.4 21.6l-4.5.5-.5.2c1.9.3 3.7-.3 5.6-.1.2-.6.2-.7-.6-.6z" class="st129"/><path d="M12.8 34.2v-1.5c-.3.5-.2 1 0 1.5z" class="st0"/><path fill="#bba306" d="M14.4 33.8v2.9l1.9 1.6c.5-.2.3-.5.3-.9-.4-1-.6-2 0-3.1l.1-1.6c0-.5-.3-.9-.7-1.1-.3-.2-.7-.5-1.1-.6-.7 0-.4.7-.6 1.1l-.1.2c0 .5-.1 1 .2 1.5z"/><path fill="#ddc374" d="M18 37.6c.4-.1.9.1 1.3-.2l.2-.5c.5-1 .4-1.5-.4-2.4-.4-.1-.7-.1-1.1.1-.3.3-.4.8-.3 1.2l.1 1.8h.2z"/><path fill="#a19f9a" d="M17.9 37.6c.3-.9-.2-1.9.2-2.9-.1-.6.3-1.2 0-1.8-.5 0-.5.3-.6.7l-.1 1.2c-.1.7 0 1.4.1 2.1.1.8-.2 1.7.2 2.5.1.1.3.3.4.2.2-.2-.1-.2-.2-.3l-.1-.6c.3-.5.1-.8.1-1.1z"/><path fill="#59667d" d="M17.7 39.4v-2.6c-.4 0-.4.7-.8.5-.1 0-.3 0-.4.2-.1.3.1.6-.1.9l1.3 1z"/><path fill="#4f5a69" d="M17.6 34.7c.3-.4.1-.9.1-1.3.1-.4 0-.4.4-.3l2.1-.2h1.3c.4.1.7 0 .9-.4v-2.4c-.4-.5-.9-.8-1.5-.4l-.7.1c-.8 0-.9.1-1.1.9l-.2 1.2v-1.1c.1-.5-.1-.8-.7-.7-.8 0-1.6-.1-2.4.2-.6.2-1.3 0-1.9-.2-.7-.1-.2.5-.5.7-.1.2 0 .3.1.4.2.2 0 .2-.1.3l-.2.3.2.4.9-.1.1-.9c0-.2.1-.4.4-.2 1.5.6 2 1.8 1.7 3.3 0 .2.2.4.4.4h.7z"/><path d="M14.4 32.1a1 1 0 0 0-.9.1c.3.6.1 1.2.1 1.9v.3c0 .2 0 .4.3.3.2 0 .2-.2.2-.3 0-.2-.2-.6.3-.6v-1.7z" class="st136"/><path fill="#080715" d="M62.6 15.3c.6-.8.8-1.8.8-2.8l-.1-.8c-.2.2-.1.4-.1.6a2 2 0 0 0-.6 1.4c-.1.9-.6 1.3-1.5 1.1a17 17 0 0 0-4.5-.1l-.3.3c-.1.3-.4.5-.6.7-.2.2-.4.5-.4.8.1.7-.1 1.4.1 2l.1.1c.9.2 1.8.1 2.7 0l.2-.1c.7-.2 1.4 0 2.1-.1h.4l.6-.1c.3-.2.4-.4.5-.7v-.8-.7c-.1-.3-.3-.5-.7-.4-1.1.4-2.2.5-3.3.5-1 0-1.4.4-1.6 1.2-.3-1.1 0-1.5 1-1.6H60c1 .4 1.8 0 2.6-.5z"/><path fill="#ddd7d5" d="M34.7 14c1.4.6 2.9.1 4.3.4.5.1.7-.1.6-.6v-2.2a9.2 9.2 0 0 0-3.7.3c-.4.1-1 .2-1.2-.4V14z"/><path fill="#1d2131" d="M55.4 16.4c.2-.5 1-.6 1-1.2l-.2-.3c.1-.2.2-.5.1-.7-.2-.6-.2-1.2-.2-1.7 0-.4.1-.9-.2-1.2-.3.4-.1.9-.2 1.3 0 .3.2.7-.2 1h-.7c-.1-.1-.2 0-.2.1 0 .5.1 1.1-.1 1.6l.6-.1c.4.3.1.8.3 1.2z"/><path d="M58.4 18.6c-.9 0-1.9-.1-2.8.1l-.2.2.1.2c.5.3 1 .2 1.5.2.7-.2 1.3.1 2-.2.1-.5-.3-.4-.6-.5z" class="st140"/><path fill="#303d54" d="M55.4 19.1c0-.1 0-.1 0 0-.2-.2-.3-.3-.3-.6l-.3-2.3V16c-.2-.2-.1.1-.1.1l-.2 1.9c0 .4 0 .8-.3 1.1v.1c.4.3.9.5 1.2-.1z"/><path d="M55.4 16.4c-.1-.4.2-.9-.2-1.3V18c0 .2-.1.5.2.7v-2.3zM54.8 16.2c0 .8.1 1.5.3 2.3a6 6 0 0 0-.3-2.3z" class="st142"/><path fill="#dcd6d1" d="M49.1 10.7c-.6-.4-1.3-.5-2-.4l-1.6.1c-.7 0-1.5 0-2.2.2-.3.1-.5.1-.8 0-.3-.1-.6-.2-.8 0-.6.4-1 .1-1.5-.2-.2.2-.2.4-.2.6v2.9l.1.6a3 3 0 0 0 2.1 0c2-.4 4.1-.3 6.2-.1.5 0 .6-.1.6-.5l.1-3.2z"/><path fill="#eff0f1" d="M40.2 14.6v-4.2L40 9.2c-.3.5-.1 1.1-.2 1.7 0 1.7.2 3.5-.1 5.2l.1.2c.4-.6.4-1.1.4-1.7z"/><path fill="#628fbe" d="M55.7 10.8c-.1-.9-.2-1.8-1-2.4-.1.7.2 1.3.2 2-.1.3.4.4.8.4z"/><path d="M54.8 13.5l.2-.1c-.1-.2.1-.5-.3-.7 0 .3-.1.6.1.8z" class="st142"/><path d="M56.7 7.7c-.3-.5-.5-1.1-1-1.4-.1.1-.5-.1-.2.2l.3.4c0 .4.1.6.3.9 0 .2-.4.1-.3.4.7-.1.6.5.7.9l-.1 2.9v.3c.1.5-.2 1 .3 1.4.5-.4.6-.9.4-1.5v-.9a11 11 0 0 0-.4-3.6z" class="st22"/><path d="M56.7 12.2c0-1 .1-2-.1-3l-.1.5c-.2-.2-.1-.5-.4-.5-.3.1-.1.3-.1.5V10.9c.4.3.1.8.2 1.1l.1.2c.2.1.3.1.4 0z" class="st146"/><path d="M56 11.1v1.3c0 .1.1.2.3.2.2-.1.2-.2.2-.4-.3-.4.1-.9-.3-1.3l-.2.2z" class="st146"/><path fill="#242e41" d="M56.2 7.9c.1-.4-.2-.6-.3-.9-.3.4-.3.7.3.9z"/><path fill="#354557" d="M64.4 11.6c.4.4.3 1.1.4 1.6.2 1.2.6 2.3 1.4 3.2h.1c.6.1.4-.2.3-.4l-.9-2.1c-.3-.9 0-1.3.9-1.4h2.2c.4 0 .5.2.5.5a6 6 0 0 1-1.2 3.2c-.3.5-1 .2-1.3.6-.1.2-.8.3-1 .1l-.8-1.1c-.3.7.4 1.1.5 1.6-.4 0-.3-.5-.6-.5l-.4 1.4c-.2.6-.1.8.6.8l4.7-.2.2-.1c.8.1 1.4-.1 1.4-1.1.1-.4-.1-.8.2-1.2l.2-3.1-.7-.2c-.6-.3-1-.6-1-1.3l-.3-.2-.2.2c-.5.2-1-.1-1.5.1-1.4-.1-2.6-.1-3.7-.4z"/><path d="M76.8 9.8V12c.3.2.6.1.9.1 2.1 0 4.1.2 6.2 0 .6 0 .7.3.7.8 0 .6-.4 1.2.1 1.8.2.2.2-.2.3-.1V9.2c-.2.5-.5.6-.9.3a1 1 0 0 0-.9-.1l-3.6.3-2 .2c-.4 0-.6-.6-.8-.1z" class="st88"/><path fill="#cfc5c0" d="M84.7 14.7c-.1-.7.1-1.4.2-2.1 0-.7-.2-.8-.8-.8-.9.1-1.8.2-2.7.1l-3.2-.1-1.2.1-.2 2.3c1 .1 2-.1 3.1.1.6.1 1.2-.2 1.9-.1l2.9.5z"/><path d="M26 44.3l-.3-.1c.2.3-.5 0-.2.3.2.2.4.5.7.4.2-.2-.2-.4-.2-.6z" class="st112"/><path d="M32 34.8c2 .1 4.1-.1 6.1-.3h.4c1.9-.1 3.7 0 5.6-.2 2.8-.3 5.6-.4 8.4-.4l.3-.1c-1.1-.1-2.3.2-3.6-.3.5-.2.8-.4.9-.8.1-.3.4-.5.8-.4.6.1 1.1 0 1.4-.6.1-.3.4-.4.7-.3.8.2 1.6.1 2.4.1.6 0 1-.5 1.7-.3.3.1.8-.3 1-.7.4-.7.9-1.2 1.8-1.3.3 0 .6-.2.6-.7 0-.4.4-.6.8-.3.9.7 1.1.6 1.7-.3.4-.5.8-1 1.3-1.3.5-.3 1-.5 1.4.1.1.1.1.2.3.1l.2-.3c-.1-.9.3-.8.9-.5.2.1.3.1.5-.1-.2-.4-.3-.8.3-.9l.2-.1c.4-.6.8-.8 1.1.1.1.2.4.2.6.2.3-.1.6-.3.7-.6 0-.3 0-.7-.2-1-.1-.1-.2-.3 0-.5h.5c.8.2.9.5.8 1.3v.4c.9-.3 1.1-.6 1-1.4-.2-1-.2-1-1.4-1-.4 0-.3-.1-.2-.4h-2.7c-.9.2-1.9-.1-2.8.1l-7.8.2-.6.1.4.1c-.8.1-1.3.7-1.4 1.5 0 .2 0 .3-.2.4-.6.2-1 .6-1.7.7-1.5.1-2.8.7-4.1 1.3-.2.1-.5.2-.5.4-.2.7-.6.7-1.2.7-1.1 0-2 .4-3.1.6l-.3.1c-.6 1-1.6.8-2.5.9-.7.1-1.3.3-1.7.9-.4.5-1.1.5-1.7.5-.7-.1-1.3 0-1.7.8a1 1 0 0 1-.8.4c-.8.1-1.7.2-2.4.7a2 2 0 0 1-1.7.1c-.3-.1-.6-.2-.8.1-.7.8-1.6.7-2.4.7-.8 0-1.5.1-2.2.3l-.3.1c-.3.5-.8.9-1.5.8-.2 0-.4.2-.3.4.1.3.3.4.6.4.6.1 1.1-.1 1.6-.1 1.3-.2 3-.4 4.8-.4z" class="st150"/><path d="M69.6 21.9h1.2c2.5.1 4.9-.2 7.4-.2l3.5-.1.4-.1-12.1.3-.4.1z" class="st68"/><path d="M32 34.8c-.5-.3-1-.2-1.5-.1-1.5.2-3 .1-4.4.2-.3 0-.7.2-1 .1-.2 0-.4-.1-.4-.3 0-.3.3-.3.4-.2.7.2.9-.1 1.2-.7.4-.5 1.2-.5 1.9-.5h2.4c.2 0 .4 0 .5-.3.2-.5.6-.7 1.2-.5.7.2 1.5.2 2.2-.4.4-.4 1-.3 1.6-.3l1.1-.2c.2 0 .3-.1.3-.3.1-.9.7-.8 1.3-.8.9 0 1.8.1 2.4-.9.1-.2.4-.3.6-.3.7-.1 1.4-.5 2.2-.2.3.1.5-.1.6-.4.2-.5.5-.7 1-.7 1.2 0 2.3-.7 3.5-.4.3.1.5-.1.5-.5s.2-.5.5-.7c1.4-.5 2.7-1.2 4.2-1.3.7 0 1.2-.6 1.9-.7.1 0 .2-.3.1-.4-.2-.5-.2-.8.4-1.1.4-.2.6-.6 1.1-.6H55.2c-.8.2-1.7-.1-2.6.1h-1.5c-.9.2-1.7 0-2.6.1-1.4.1-2.8-.1-4.2.1-.2.2.3.4.1.5-.5.3-1 .6-1.6.5l-.7-.2c-.2 0-.5-.1-.6.2-.1.3.2.4.4.5.3.2.7.2 1.1.5-1.1.5-2.2.7-3.3.9a8 8 0 0 0-2.5 1.1c-.5.4-1 .5-1.6.2-.4-.2-.8-.2-1.1 0-.6.4-1.2.4-1.9.7l-.4.1c-.9-.4-1.7 0-2.6.1l-.9-.1c-1.3-.6-2.8 0-3.3 1.4-.2.6-.3 1.2-1.1 1.2-.3 0-.5.4-.4.7 0 .4-.1.6-.5.7-.3.1-.6.4-.6.6.1-1 .1-2.1 0-3.2 0-.2 0-.4-.4-.3-.2.3-.1.5-.1.8l.2.3v2.6c-.3.7-.3 1.4 0 2.1v.8l9.4-.5c-.1.2 0 .1.1 0z" class="st151"/><path fill="#d9d8db" d="M22.3 28.8c.3.7.1 1.5.1 2.3V33c.3-.7.6-1.1 1.2-1.2.4 0 .2-.3.2-.6-.1-.7 0-.8.7-.7.3.1.3-.1.5-.3.3-.6.3-1.3.8-1.8a2 2 0 0 1 2.6-.5c.8.4 1.6 0 2.3-.1.3 0 .7-.1 1 .1l.3.1c.5-.6 1.4 0 1.9-.6.3-.4.8-.5 1.4-.2.6.3 1.1.3 1.7-.2a8.4 8.4 0 0 1 3.7-1.4c.8-.1 1.6-.5 2.4-.7-.4-.7-1.3-.6-1.8-1.1.4-.3.7-.1 1 .1.7.4 1.2 0 1.8-.2.5-.2.5-.6.1-.9h-.4c-1.2.2-2.4 0-3.6.1h-4.4l-1.1.1c-1.1.2-2.2 0-3.3.1-2.8-.1-5.5.2-8.3.2-.5 0-.9.1-1.1.6-.2 1.2.1 2.4.1 3.6-.1.4-.2.9.2 1.3z"/><path d="M74 20.4h-1.7c-.1-.1-.3-.2-.4-.1-2.3.2-4.6-.1-6.9.4-.3.1-.1.6-.4.7.2-.4.2-.4-.3-.7-.8-.2-1.6-.2-2.4-.1l-1.5.1c-2.5-.1-5.1.1-7.6.1-1.1 0-2.3 0-3.4.2-.4.5-.8.6-1.4.5-.3 0-.9-.1-.9.3 0 .5.5.3.9.4 1.2.1 2.5-.2 3.7 0l10.3-.4 4.5-.1 6.5-.2 7.5-.3.1-.1c.2-.1.7.1.7-.3 0-.3-.5-.5-.9-.5h-4.6c-.6.2-1.2 0-1.8.1z" class="st153"/><path fill="#d2d0cf" d="M51.6 22.2c-1.2-.3-2.5 0-3.7-.1-.3 0-.6.1-.9-.2h1.4c.4.1.9 0 .8-.7-.1-.1-.3-.2-.5-.1l-2.4.1-6.9.2-5.1.1c-3 .2-6.1.2-9.1.3l-2.7.1c-.2 0-.5.1-.6.3l-.1.3c.1.9.1.9 1 .9l1.9-.1c.5 0 .9-.1 1-.8.2.8.6.8 1.2.7l1.9-.1 7.4-.2c.8 0 1.7.1 2.5-.3l8.9-.3c.6-.1 1.2.1 1.8-.1h2.2z"/><path d="M38.8 22.7l-10.6.4h-1.3c-.4 0-.8.2-.7-.5 0-.2-.2-.4-.4-.3-.2 0-.2.1-.2.4 0 .2-.1.5-.5.5l-1.8.1c-.7.1-1.3 0-1.3-.9-.2.5-.6.9-.5 1.5.2.4.4.4.6 0 .2-.3.4-.4.8-.5l8.5-.2c.8-.2 1.7 0 2.5-.1.3 0 .5.1.8-.1h1c.8-.2 1.7 0 2.5-.1.3 0 .5.1.8-.1h1l.1-.1v-.1c-.4.2-.9.4-1.3.1z" class="st155"/><path d="M40.1 22.9v.1h3.1c.2 0 .4 0 .5-.2l-3.6.1z" class="st151"/><path d="M65.3 22.1c.9-.1 1.9.2 2.8-.1-.9 0-1.9-.2-2.8.1z" class="st68"/><path d="M48.3 22.7c.9 0 1.7.2 2.6-.1-.9 0-1.7-.2-2.6.1zM52.4 22.5c.9 0 1.7.2 2.6-.1-.9 0-1.8-.1-2.6.1z" class="st150"/><path d="M49.4 22.2c-.6 0-1.2-.1-1.8.1.6.1 1.2.2 1.8-.1z" class="st153"/><path d="M30.6 11.3l-.4.1c-.4.4-.1.9-.1 1.3.1.4-.1.8.2 1.1-.1-.8.2-1.7.3-2.5z" class="st83"/><path fill="#eaf0f2" d="M29.6 14.7c.3-.2.1-.5.2-.8-.1-1.4.1-2.9-.3-4.3-.4 1.7-.5 3.4.1 5.1z"/><path fill="#d4dfe8" d="M30.2 12.7l.1-1.3-.1-.7c-.5.2-.2.6-.3.9-.1.4.1.8.3 1.1z"/><path fill="#d6d4d6" d="M55.4 19.1c-.4.3-.8.2-1.2.1l-11.4.4-.8.1c1 .2 1.9 0 2.7.1-1.8 0-3.7-.1-5.6.2.4-.1.9.2 1.2-.2-1 0-2-.1-3 .1.6.6 1.2 1.1 2 .8-.8-.1-1.6.4-2.6.4-.4 0-.4.1-.3.4 2.5 0 4.9-.1 7.4-.3h1.9l10.5-.3c.8 0 1.7 0 2.5-.3 0-.2.2-.3.3-.3 1-.1 1.8-.7 2.7-1l1-.2-.6-.1c-.5-.3-1-.2-1.5-.1-1.2.2-2.5.2-3.8.3-.4-.1-.9.2-1.4-.1z"/><path d="M36.3 21.3l3.2-.6h.5c0-.2-.2-.3-.3-.3-.8.1-1.6.3-2.1-.6l-.4-.1h-3.3c-.9.1-1.9 0-2.8-.1-.5 0-1-.1-1.4.2-.7.2-1.5.2-2.2 0-1.6-.3-3.1.1-4.7.1-.4 0-.7.2-.8.7 0 .4-.1.9.2 1.2 3.4-.1 6.8-.3 10.3-.3l3.3-.1c.3.1.4.1.5-.1zM40.4 19.7c-.4.3-.9 0-1.3.3l6-.3h-4.7z" class="st159"/><path fill="#a0b8c8" d="M29.9 20c1.4 0 2.8.1 4.2-.1-.7-.2-1.4 0-2.1-.3l-1.9-.7c-.2.1-.3.2-.2.5.1.1.2.3 0 .6z"/><path fill="#b3c7d4" d="M22.4 20.8c.1-.4.3-.6.7-.6 1.8.2 3.6-.2 5.3-.1.5 0 1 .2 1.5-.1h-2.3c.3-.3.5-.6.4-.9 0-.3-.3-.1-.5-.2-1.9.4-3.8 1-5.7 1.2l-.1.3c.1.4.3.5.7.4z"/><path d="M36.3 21.3l-9.8.4c-1.4 0-2.7-.1-4.1.2l-.1.1v.1l9.2-.3c2.3-.1 4.6 0 6.9-.2l4.6-.1 3.4-.1c.8-.2 1.6.1 2.4-.1h.4l7.2-.2c2.3-.1 4.7 0 7-.3.3 0 .6 0 .9.2.2-.2.4.1.6 0 .5-.3 1.2-.3 1.7-.3 1.9-.1 3.8 0 5.6-.2.4-.4 1 .1 1.4-.3h-5.5l-2.7.3c-.5.1-1.1 0-1.6 0-1.7 0-3.4.3-5.1.2-3.5.1-6.9.3-10.4.3-2.8 0-5.5.2-8.3.3h-3.7z" class="st162"/><path d="M62.6 15.3c-1.9.8-3.8.7-5.8.6-.2 0-.5.3-.5.5l-.1 1.5c0 .2.2.2.4.2s.3-.1.3-.3c0-.8.3-1.2 1.1-1.2 1.3 0 2.5 0 3.6-.6.3-.1.3.1.3.2v.7c.3.1.5-.1.6-.4-.1.5 0 1-.6 1.2 0 .3-.2.4-.3.6-.1.2-.4.2-.3.4.1.2.3.1.5.1h.8c.6-.3.5-1 .7-1.5 0-.2 0-.4.3-.2.1.1.2-.1.2-.2l.1-.7c0-.3.1-.6-.1-.8l-.2-1.5c-.4.5-.3 1.3-1 1.4z" class="st163"/><path fill="#304054" d="M63.8 16.4c-.2.2-.1.5-.2.8-.2-.1-.1-.4-.2-.3-.2 0-.3.3-.3.5 0 .6 0 1.2-.5 1.6.7 0 .4-.6.7-1 .3.2.1.5 0 .7-.1.2-.1.3.2.3.4-.2.5-.6.4-.9 0-.6.2-1.2-.1-1.7z"/><path fill="#e0e5e9" d="M63.8 16.4c0 .9.2 1.8-.3 2.6 0 .1-.1.3.1.2.3-.2.5-.6.5-1l.2-3.3c-.5-.1-.2.4-.4.6l-.1.9z"/><path d="M62.2 19l-.8-.1c-.1-.2.4-.2.1-.4h-.6c-.5.2-1 .1-1.4.1-.4.1-.6.2-.1.5.4 0 .8.1 1.3-.1h1.5c-.1 0 0 0 0 0z" class="st140"/><path d="M73.7 20.1h3.1c.2 0 .5.1.7-.1h-3.1c-.2 0-.5-.1-.7.1z" class="st162"/><path fill="#6c7888" d="M71.3 18.3c2.8.1 5.6-.1 8.5-.2 2.9-.1 5.7-.3 8.6-.3l.8-.1c0-.2 0-.4-.3-.4l-6.7.2-4.5.2h-5.6c-.5.2-.8.1-.8.6z"/><path d="M74 20.4c.6-.1 1.2.1 1.8-.1-.6.1-1.2-.2-1.8.1z" class="st162"/><path d="M65.9 6.2c.8.3 1.5.1 2.3 0-.6-.2-1.2-.1-1.8-.4-.2 0-.5.1-.5.4z" class="st96"/><path d="M67.9 11.9c.5-.1 1 .1 1.5-.1-.5 0-1.1-.2-1.5.1z" class="st167"/><path d="M45.9 40.4h-.4c-.6.2-1.3-.1-2 .1h-.9c-.7.2-1.4-.1-2.1.1h-.4c-.6.2-1.2-.1-1.8.1H38c-.8.2-1.7-.1-2.6.1-2.7.3-5.4.3-8.2.5-.7.1-1.5 0-2.2.3 0 .5.4.7.7.8 1.3.7 2.8 1.2 4.3 1.5h.6c.9-.2 1.7-.1 2.6 0 1.2.1 2.4-.1 3.6-.1.4 0 .7-.1 1-.3.7-.5 1.5-.3 2.2-.3l.4.2c.1.3.2.3.4 0 .3-.5 1.1-.8 1.6-.7.6.1 1.4-.3 2 .4.3.4 1-.2 1.5-.2 1.4-.2 2.8-.4 4.3 0 1.1.3 2.1.1 3-.5a1 1 0 0 1 1.2-.1c.9.5 1.7.4 2.7-.1.8-.4 1.8-.7 2.8-.4h.1c1.2-.6 2.5 0 3.8-.7a7 7 0 0 1 3.8-.5c.6 0 1.1-.1 1.7.1l.3-.1c.8-.8 1.2-.8 2.3-.3.6.3 1.2.1 1.8.1 1.3-.1 2.6-.2 3.8-.9.4-.2.6-.5.6-.9-.7-.4-1.5-.2-2.3-.2-2.3.1-4.6.4-6.9.4l-5.1.3-8 .5h-.3c-.5.2-1 .1-1.5.1l-.8.1c-.7.2-1.4.1-2.1.1-1.4.2-2.9.1-4.4.3-.2 0-.5 0-.8.2z" class="st112"/><path fill="#a5b7d2" d="M68.9 39c2.4 0 4.7-.2 7.1-.4h2.1l3.8-.3c2.6-.1 5.2-.5 7.9-.5-.4-.5-.7-1.2-1.4-1.4l-1.1-.4c-1.2-.2-1.6-1.3-2.4-2l-.1-.4-.6.1c-1.7-.1-3.3.1-5 .2l-9.7.5-2.8.1c-.2 0-.5-.1-.7.1.3.3.7.3 1 .5-.2.2-.5.3-.8.3-.3.1-.6.1-.6.5.1.3.3.6.6.5.9-.3 1.7.2 2.5.4a4 4 0 0 0 1.9.2c-.3.3-.4.6-.2 1s0 .6-.4.5h-.7c-.1.1-.4.1-.4.5z"/><path d="M68.9 39c.3-.5.7-.3 1.1-.2.2 0 .5.2.7 0 .2-.2.1-.5 0-.8-.1-.2-.3-.4.1-.5.2-.1.4 0 .3-.3-.1-.2-.3-.4-.6-.3-1 .3-1.9 0-2.7-.6-.2-.2-.4-.1-.6 0l-.9.2c-.3 0-.5-.2-.5-.5s.2-.2.4-.3l.5-.1c.2-.1.7-.1.7-.5 0-.3-.4-.1-.6-.2-.2-.1-.5-.3-.8-.2l-7.7.3-5.5.3-6.5.3-.3.1c.2.2.4.3.4.6.2 1 1.1 1.5 2.1 1.4.7-.1 1.5-.2 2.2.1.6.2 1.2.2 1.8.1.5 0 .9 0 1.1.6.1.3.4.6.8.7.5.1.8.3 1.2.6 3.3 0 6.6-.4 9.9-.5 1.1-.1 2.3.1 3.4-.3z" class="st169"/><path d="M55.6 39.8c-.2-.4-.4-.7-1-.7-.4 0-.8-.3-.8-.6-.1-.9-.7-.7-1.2-.7-.8.1-1.6-.1-2.3-.3h-1.7c-1 .3-1.9-.4-1.9-1.5 0-.6-.5-.2-.7-.3l-7.8.3-5.7.3-7.6.3-.3.1h.4c.7-.1.9.1.7.8-.1.2-.3.4 0 .7.3.2.5.1.8-.1.7-.3 1.2.2 1.9.2.4 0 .8.1 1.2-.1.3-.1.5-.2.8-.1 1.3.3 2.6 0 3.9-.1 1.4-.1 2.7.2 4 .6.1 0 .2.2.3.1.7-.5 1.3-.1 1.9.1h1.2c.3-.1.6-.2.8 0 .8.8 1.9.6 2.9.8.5.1.8.2.7.8a47 47 0 0 0 5.3-.3c.7-.2 1.4.1 2.1-.1h.7c.3-.3.9 0 1.4-.2z" class="st170"/><path fill="#4f2026" d="M22.2 34.7v-2.1c-.4.2-.8-.1-1.2 0-.3.1-.6-.1-.8.1.1.2.4.2.6.4-.6.5-.6.6 0 .9.1 0 .1-.1.2 0-.3.3-.5.8-.9 1-.2.1-.3.3-.3.6.1.4-.1.7.1 1.1.6-.1.6.4.8.7.1.2-.1.5.3.5.2-.5.9-.1 1-.8v-.9c-.3-.2-.3-.4 0-.6.2-.3 0-.6.2-.9z"/><path fill="#a84b4e" d="M22.1 35.6c-.2 0-.5 0-.5.3s.3.3.5.4v-.7z"/><path fill="#180d1e" d="M21 37.8c-.1-.6-.5-1.1-.7-1.7-.3.1-.1.4-.3.6-.4.2-.5.5-.6.9l.1.5c.2.2 1 .2.3.7h1.9c.4 0 .6-.2.5-.6-.5-.1-.9 0-1.2-.4z"/><path fill="#a48058" d="M19.4 37.5c.2-.3.6-.5.6-.9 0-.7-.2-1.4.6-1.8.4-.2.4-.8.9-1.1-.3-.2-.4.1-.7.2-.5.1-.9.4-1.5.4-.1 0-.2.1-.2.3.2.4.1.9.6 1.2.2.1.1.4-.2.6-.3.2-.4.6-.3 1l.2.1z"/><path d="M35.4 41c.9-.1 1.7.2 2.6-.1-.9 0-1.7-.2-2.6.1zM40.5 40.7c.7-.1 1.4.1 2.1-.1-.7 0-1.4-.2-2.1.1zM43.5 40.5c.7-.1 1.3.2 2-.1-.6.1-1.3-.2-2 .1zM38.3 40.8c.6-.1 1.2.1 1.8-.1-.6.1-1.2-.2-1.8.1z" class="st170"/><path fill="#25283a" d="M16.7 20c0 .5.6 1 1.1 1 .4 0 .8-.7.8-1.3 0-.7-.5-.8-1-.8s-1 .6-.9 1.1z"/><path fill="#262739" d="M13.8 20.3c0 .5.5 1 1 .9.7-.1.8-.5.9-1.1 0-.6-.2-.9-.8-.9-.6 0-1.1.5-1.1 1.1z"/><path d="M17.4 21.6c.4 0 .7.1.6.6.5 0 .2-.5.5-.7h-.9l-.2.1z" class="st177"/><path d="M57.2 12.2l-.3 1.5c-.2.4-.4.8-.3 1.2H59l2.2.2c.8.1 1.6-.3 1.6-1.1 0-.6.4-1.1.4-1.7h-4.9c-.6 0-.9-.1-.8-.8-.2.3-.1.5-.3.7z" class="st163"/><path d="M66.6 16.7c1.3 0 1.6-.2 2.2-1.5.4-.8.5-1.6.7-2.4.1-.4-.1-.6-.5-.6-.9.1-1.9-.1-2.8.1-.5.1-1 .9-.8 1.3.4.8.6 1.7 1.1 2.5.2.2 0 .2-.2.3l.3.3z" class="st167"/><path fill="#28384b" d="M64.1 13.2c-.2.5-.2 1 .3 1.4l-.3-1.4z"/><path d="M18.6 21.5c.6.2.8.6.8 1.2v2.2l1.1 1c.3.2.5.1.6-.3l.1-1.1.1-1.4a2 2 0 0 0 0-1.1c-.1-.5-.4-.8-.9-.7l-1.8.2z" class="st177"/><path fill="#4e5d7b" d="M20.3 21.4c.8.1.8.5.7 1.8.3.2 0 .8.6.7-.1-.5.5-.9.3-1.5v-.1c.1-.3.1-.7-.1-1-.2-.3-.1-.5-.1-.8v-.3-.1c-.3-.2-.5-.5-.9-.5l-.1.2c.2.7-.1 1.1-.7 1.3.1.1.5.1.3.3z"/><path fill="#395771" d="M20.1 21c1.1 0 1.2-.3.8-1.5v-.1c-1.1-.4-1.1-.4-.9.9l.1.7z"/><path fill="#333c4e" d="M22.2 30v-.3c-.2-.5-.8-.6-1-1-.3-1.1-.4-1.2-1.5-.8l-.3.3c0 1.8 0 1.8-1.9 1.8-1.2 0-2.4.2-3.5 0 .7.5 1.5.6 2.3.3.7-.2 1.4-.1 2.1-.1.3 0 .4.3.3.5l-.1 1.1c0 .2-.1.5.2.5.3 0 .3-.3.3-.5l.1-1.1c0-.7.4-.8.9-.7.4.1.6.1.9-.2.6-.5.8.4 1.2.2z"/><path fill="#4e5665" d="M19.4 28.2c.4-.3 1 .1 1.4-.4.2.4-.1.8.3 1.1.2-.2.2-.5.2-.8v-2.7c0-.3 0-.6-.3-.8-.3.4 0 .8-.2 1.2-.6-.1-.9-.8-1.4-.9v3.3z"/><path d="M13.5 31.6c.2-.1.3.2.5 0 0-.4-.6-.3-.6-.8-.2.3 0 .5.1.8z" class="st41"/><path fill="#b3b8c5" d="M16.9 34.7l-.4-.3c-.6.7-.7 2.2 0 3.1l.4-.1c.6-.7.6-1.9 0-2.7z"/><path d="M14.9 31.1c-.2-.4-.4-.3-.4.1v.9c.3-.2-.2-.8.4-1z" class="st136"/><path fill="#200f15" d="M19.2 34.5c.5-.2 1.3.1 1.6-.6-.3-.2-.3-.2.4-.7-.3-.3-.6-.5-1-.5h-1.4a1 1 0 0 0-.7.3c-.1.5-.5 1.1 0 1.6.4-.2.8 0 1.1-.1z"/><path fill="#b69a58" d="M16.9 34.7c.1.9.3 1.8 0 2.7.8.5.5-.4.8-.6-.1-.7-.2-1.4-.1-2.1-.2-.3-.4-.1-.7 0z"/><path fill="#838c97" d="M16.8 33.4c0 .2.1.3.3.3.2 0 .3-.2.3-.4 0-.1-.1-.3-.2-.2-.1.2-.4.1-.4.3z"/><path fill="#606339" d="M61.9 17.9c.5.1.9 0 .7-.7-.1-.3.3-.6.1-1-.3.2-.2.8-.7.9l-.1.8z"/><path d="M56.6 14.9c.1-.4.4-.8.3-1.2-.3-.4 0-.9-.2-1.3-.5.1-.3.5-.3.8-.1.6.2 1.3-.4 1.9 0 .5.2.2.4.1l.2-.3z" class="st146"/><path fill="#667b92" d="M59.3 19.1c-.1-.2 0-.3.2-.3h1.2c.2 0 .4 0 .2-.3h-.3c-.7.2-1.5-.1-2.3.1.1.2.5.1.6.4.2.2.3.2.4.1z"/><path d="M58.4 18.6c.8-.1 1.5.1 2.3-.1-.8 0-1.6-.2-2.3.1z" class="st140"/><path fill="#474f5d" d="M56 15c.7-.3.4-1 .6-1.6.1-.4-.1-.8.1-1.1v-.1h-.3c-.1.1-.1.5-.4.3 0 .6-.2 1.2.2 1.8.2.2-.3.4-.2.7z"/><path d="M59.3 19.1H59c-.7.1-1.4-.1-2.1.1 1.3 0 2.5.2 3.8-.1h-1.4z" class="st87"/><path fill="#959da9" d="M56.2 10.9c.1.4-.3 1 .3 1.3l.1-.7c0-.3 0-.6-.4-.6z"/><path d="M68.6 23.7c.2 0 .3-.1.3-.3 0-.2-.1-.4-.3-.4-.2 0-.3.1-.3.3 0 .3.2.4.3.4z" class="st70"/><path fill="#9ca1b6" d="M21 24.6l.1 4.3 1.2.8v-.9l-.1-4.9c-.2.1-.4.4-.5 0-.4 0-.1-.7-.6-.7l-.1 1.4z"/><path fill="#3f4c60" d="M23.1 27.2v.4c0 .4.2.6.6.6.4-.1.7-.3.5-.8l-.1-.9c0-.3-.1-.6-.5-.6s-.6.3-.6.6l.1.7z"/><path d="M23.8 28.8c-.4 0-.7.2-.6.6 0 .3.1.6.4.6.5 0 .6-.4.6-.8.1-.5-.2-.3-.4-.4zM39 23c-1.1 0-2.2-.1-3.3.1 1.1 0 2.2.2 3.3-.1zM34.7 23.1c-1.1 0-2.2-.1-3.3.1 1.1 0 2.2.3 3.3-.1z" class="st151"/><path fill="#6f7171" d="M65 20.9c-.2-.1-.4-.3-.6 0 .6.1.2.3.1.6.4 0 .5-.3.5-.6z"/><path d="M21.8 20.4c-.2.3-.6.5 0 .9.2.1 0 .6.2.9l.4-.2v-.1-1.2c-.3 0-.5 0-.6-.3z" class="st155"/><path d="M48.8 21.2c-.8.1-1.6-.2-2.4.1.8 0 1.6.2 2.4-.1z" class="st153"/><path d="M53.3 39.9c-.7.1-1.4-.2-2.1.1.7 0 1.4.2 2.1-.1zM55.6 39.8c-.5.1-1-.2-1.5.1.4 0 1 .2 1.5-.1z" class="st169"/><path fill="#854148" d="M19 33.3c0 .2.1.3.2.3s.3 0 .3-.2-.1-.2-.2-.2l-.3.1z"/></svg>