<svg xmlns="http://www.w3.org/2000/svg" id="图层_1" viewBox="0 0 85.5 100"><style>.st1{fill:#527281}.st4{fill:#4a6879}.st6{fill:#406275}.st8{fill:#4d6f7e}.st9{fill:#7399ae}.st15{fill:#8b8f96}.st19{fill:#72141a}.st21{fill:#c0c8ce}.st26{fill:#a9b1b4}.st41{fill:#7392a4}.st44{fill:#25272a}.st46{fill:#43565f}.st47{fill:#3d4f58}.st50{fill:#44697c}.st52{fill:#3d606f}.st64{fill:#12171a}.st67{fill:#21313b}.st71{fill:#263944}.st72{fill:#42484c}.st73{fill:#12191f}.st74{fill:#383e42}</style><path fill="#385364" d="M57.8 90l-2-.7c-.2-.1-.5-.2-.5-.5l.1-.3c.3-.1.5-.1.7.2.2.2.4.2.6.2.2 0 .2-.2.2-.3 0-.3-.2-.5-.5-.6l-1.1-.2c-.3 0-.5-.2-.5-.5l-.2-1.6c0-.4-.1-.7-.5-1v-7.4c0-.3.1-.6-.1-.8-.3.3-2-.3-3.6-.7-.2-.1-5.2 2.3-5.2 2.3l-12.3 5.7c-.5.1-.5-.2-.5-.5v-2.5c0-.2.1-.6-.4-.6l-.1-19.8c-.2-8.8 0-17.7 0-26.5v-5-1c-.2.2-.1.5-.1.7v3.9l-.1 1.5-.2 1.2v37.9l.1.3v.1c.2.7.1 1.4.1 2-.6.6-10.3 1.8-10.4 1.8-.3.2-.3.6-.3.6 0 .6.6.7-.1 1.9s-14 5.5-13.3 5.9 43.7 6.4 46.3 6.7c.4-.2.9-.5 1.1-1 .3-.8 1-.8 1.7-.6l.8.2c.3 0 .6.2.7-.3.1-.4-.1-.5-.4-.7z"/><path d="M.9 37.7l.1-.1c.2-.2.4-.2.6 0 .1.1 1.4.6 1.5.5.3-.3 0-.5-.2-.7-.2-.2-.8.1-.6-.4.1-.3.7-.4 1-.3.9.5 1.5 0 2.2-.5.3 0 .5-.2.3-.4-.4-.8 0-1.6 0-2.4l.1-.6v-6.7-2.7c0-.2-.1-.5.2-.6.3-.1.4.2.6.3l-.1 2.8.2 8.7.1 5.1.2 5.4.1 4.3.2 10.3.1 5.8v7.4l.1 1.8c0 .1.1.3 0 .4-.5.6-.2 1.2-.1 1.8l.1 2.1c.1.6.1 1.2-.1 1.8-.1.2-.2.5-.5.5s-.4-.2-.5-.4l-.1-.9c0-.5 0-1-.3-1.4-.2-.4 0-.8.1-1.3-.4.4-.2.8-.2 1.2.1.7.1 1.3-.3 1.9-.1-.1-.5 0-.7-.4-.4-.9-1-1.8-.4-2.9-.2-.1-.3.1-.3.2-.1.6-.5 1.1-.8 1.6-.5.9-.7.9-1.5.4l-.1-1-.6-23.8L.9 39v-1.3z" class="st1"/><path fill="#294250" d="M85.1 26.1L84 74c0 1.8 0 3.6-.2 5.5-.3.2-.6 0-.8-.1-.4.1-.8.1-1.2-.1-.3-.2-.7-.1-1 0-.4.1-.9.4-1.2-.2-.1-.2-.2 0-.3 0-.1.1-.3.2-.3 0-.3-.6-.8-.2-1.2-.2-.5-.3-.8-1.3-.6-1.7.3-.5.8-.2 1.3-.2-.6-.2-.4-.6-.4-1 .2-2 0-4.1.1-6.2l.1-1.6c.2-1 .1-2.1 0-3.1v-.5l.1-2.1v-1.4c.2-2.6.1-5.1.1-7.7l.1-1.5.1-.8v-8.6c0-.5 0-1 .2-1.4.5-.4.5.2.6.4l.3 2.6c0 .2.2.1.1.1v-.1c-.1-.3 0-.5.1-.8.5-.8.7-1.8 1.2-2.7.3-.5.3-1.2.5-1.7l1.1-3.9.3-1.1c.8-1.8.9-3.8 1.5-5.6.5-1.6.3-3.2.3-4.8.1-.2 0-.5.4-.3l-.2 2.9z"/><path fill="#c81c27" d="M59.9 12v1.6c.2 1.3.5 2.6-.2 3.8l-3.7.4-12.2.2c-3-.1-6.1-.5-9.1-.7a47 47 0 0 0-5.3-.3c-1.1 0-.8-1-.8-2.1l.1-4.7c0-.5.2-.7.7-.5 2.5.6 5.1.5 7.6.5 1.6 0 3.2.4 4.9.4l3.6.3 2.6.2c.5 0 .9 0 1.3-.2.5.1.4.5.4.8 0 .7-.2 1.4-.1 2.1l.2-.1c.2-1 .3-1.1 1.3-.7.7.3 1.4.2 2.1.2l3.2-.1 1.1-.1c.6-.1 1-.4 1.1-1 .1-.6.4-1.1.7-1.6.1-.1.3-.2.4-.1l.1.4V12z"/><path d="M60.5 97.6c0-.7-.4-1.3-1-1.4-1.1-.2-1.9-1.1-3-1.4-.2 0-.4-.3-.2-.4.5-.2.8-.8 1.4-.5.3.2.7.1 1.1.2.2 0 .7-.2.4.4-.1.1.1.3.2.3.1.1.2 0 .4-.1.6-.5.4-1.4-.3-1.7-1.4-.5-2.8-.5-4.2-.8l-6.9-.8c-2.1-.3-4.3 0-6.4-.6l-2-.4c-1-.1-2 0-3-.2L29.3 89l-7.8-1.1c-4.1-.6-8.2-1-12.3-1.7-.7-.1-1.3-.3-1.9-.7-1-.6-2.7-.6-3.6.1a2 2 0 0 1-1 .3c-.3-.1-.5 0-.5.4 0 .7-.1 1.4.1 2.1 0 .9-.1 1.8.1 2.6V91.3l.3.1 9.9 1.5 15.9 2.3 13.7 2 6.3.9 5.8.7.3.1 5.3.7c.6-.4.6-1.2.6-2zm-5.2 1.2c.1 0 .1 0 0 0 .1 0 0 0 0 0z" class="st4"/><path fill="#507b91" d="M83 79.1c.3.1.5.4.8.3v.5l-.7.5C80.5 82 78 83.6 75.3 85c-1.3.5-2.5 1.3-3.8 2l-10.3 5.8c-.1.2 0 .5-.3.6-.3-.1-.4-.4-.3-.7.6-1.4.5-2.8.2-4.2 0-.2-.2-.5 0-.6-.1-.6.2-.6.2-1 .8-.7 1.9-1.1 2.8-1.6l9-4.7h.2c.2.2.3.4.7.1.7-.5 1.5-.9 2.1-1.6l.2-.1c.7.5.7.6.3 1.2-.2.3-.7.5-.5.9.2.3.8.2 1.1.1.6-.2 1.1-.5 1.7-.1.1.1.3-.1.4-.1.7-.3 1.5-.6 2.3-.7 1-.1 1.3-.8 1.7-1.2z"/><path d="M67.2 13.9c3-.1 5.9.2 8.9.2l8.5.3c.6 0 .8.2.7.8l-.2 5.5c-.5.4-1 .3-1.5.2-1.1-.2-2.2-.1-3.3-.1-2.6.1-5.1-.2-7.7-.1-.7 0-1.4 0-2.1-.2-.4-.3-.1-.4.2-.5l1.7-.2h.9c.2 0 .4-.2.2-.3-.7-.6-.6-1.5-1-2.2-.5-.9-1.3-1.2-2.2-1.5-.2-.1-.6 0-.7-.3-.1-.3.3-.4.5-.6.1-.1.3-.1.4-.4l-2.5-.1c-.2-.1-.7 0-.8-.5z" class="st6"/><path fill="#375264" d="M67.2 13.9c.6.3 1.2.1 1.9.2H71c0 .8-.9.7-1.3 1.3 1-.2 1.5.5 2.3.7.4.1.3.5.5.8.3.6.9 1 .8 1.8 0 .2.2.3.4.4.2.1.5.2.4.5-.1.3-.4.3-.6.4-.8.1-1.6-.1-2.4.1-.2 0-.3 0-.4.2l-.4.1h-3.5c-1.1 0-2.2.1-3.3-.1-.5-.2-.9-.1-1.4-.1-.3 0-.6 0-.9-.2.1-.8-.2-1.6.1-2.3l-.2-.2a2 2 0 0 1-1.3-.1c.3-.9.1-1.9.2-2.8v-.9l7.2.2z"/><path d="M2 79.3l.2-.1c.7.7.9.2 1.1-.4.1-.3.1-.5.4-.6.1-.2.3-.3.2-.4-.6-.7.5-.7.5-1.2h.3c.1.2.4.5.2.7-1 1 .2 1.7.2 2.6 0 .3.3.3.5 0 .4-.8.4-1.5.2-2.2v-.9c.1-.2.3-.5.5-.3.2.1.3.4.1.6-.4.5-.2.8.1 1.3.2.3.1.8.1 1.2l.1.9c0 .2.2.4.4.3.2 0 .2-.2.2-.4l.1-.6-.2-3.5c0-.3-.1-.6-.5-.5-.2 0-.3 0-.3-.2s.1-.3.3-.3c.6.1.7-.4.6-.7-.2-.8-.1-1.7-.1-2.5v-5.2c0-2.4.2-4.9-.2-7.3v-1.8l-.2-9.1c0-2.2 0-4.5-.2-6.7l-.1-5.1-.2-6.8-.1-6.3c0-.4.3-.6.3-1l.3.1c.3 1.3.1 2.7.1 4l.4 14a27969 27969 0 0 1 .6 27.3l.3 14.2c0 .8.2 1.5.1 2.3l-.1.2c-.2.4-.5.1-.8-.1-.5-.4-1-.4-1.5-.2l-1.8.5c-.7.3-1.2.1-1.4-.5-.3-.9-.7-1.7-.6-2.6l.1-.5c.7-.6.3-1.1-.2-1.6v-.6z" class="st8"/><path d="M61 19.9l19.1.4c1 .1 3.5.4 5.1.4 0 .3.2.7-.1 1-.2.2-.5.2-.8.3l-3.9.5c-1.4-.1-19.7 3.9-19.9 3.8-.1-.5.5-6.1.5-6.4z" class="st9"/><path fill="#d42835" d="M59.9 12v-1.9a3 3 0 0 0-1 1.7c-.2 1.1-.4 1.4-1.5 1.4h-3.9c-.6.1-1.3.4-1.7.2-.5-.3-1.1-.3-1.6-.6-.2.5 0 1.1-.4 1.5-.4-.4-.5-.8-.4-1.4l.1-2.1a.8.8 0 0 1-.2-.5l.2-1.3.3-.1c.6-.2 1.3 0 1.9-.2l7.1-.3c1.3 0 1.3 0 1.1 1.3 0 .8.2 1.6 0 2.3z"/><path d="M2.1 79.9c.5.1.6.6.9.9.1.2-.1.3-.2.4-.8.7-.8 1.6-.1 2.3.2.2 0 .3 0 .5 0 .9.6 1.3 1.4.9l2.2-.7c.9-.2 1.3.6 1.9.8v.3a290.6 290.6 0 0 1 9.6 1.6l9.4 1.3 9.7 1.4 9.6 1.4 5.2.7c.3 0 .6.1.8.3v.3c-.1.2-.4.5-.6.2-.4-.5-.8-.3-1.3-.1-.5.2-1-.3-1.5-.3h-1c-.6.4-1.3.1-1.9 0-1.8-.4-3.7-.6-5.4-1.2-.6-.2-1.3-.3-2-.2-2 .1-3.8-.5-5.7-.7l-6.7-.9-5.1-.7-8.2-1-4.7-.7c-.5-.1-1-.3-1.4-.7-.7-.7-2.7-.5-3.4.1-.5.5-1 .4-1.6.1v2.4c-.2-1-.2-2-.1-3 .3-1.6.1-3.3.1-4.9l.1-.8z" class="st1"/><path fill="#202b30" d="M84.3 21.6h.8l.1.3-.1.2c-1.1 2.7-2.6 5.2-4.1 7.7l-.8.9c-.1.2-.3.3-.5.3-.3-.1-.3-.4-.3-.6-.3-1.4-.4-2.7-.4-4.3-.6.6-1.1.3-1.6 0-.9-.4-1.9-.6-2.8-.8-1-.3-1.5-1.1-1.3-2 .9-.4 1.9-.4 2.9-.6l3.2-.6c.3.1.1.3.1.5v2c.2.7.7 1 1.2.6 1.3-1.1 2.6-2.2 3.6-3.6z"/><path fill="#13181c" d="M75.3 85c.4-.7 1.2-.8 1.8-1.2l5.9-3.5c.5 0 .4.3.3.6l-.8 1.6-1.3 2.7c-.1.3-.3.6-.6.4l-5.3-.6z"/><path fill="#b5bac1" d="M29.6 7.8c2.5-.4 5-.5 7.6-.2-.1.2-.3.2-.4.2l-2.5-.1c1.6-.1 3.5.2 5.4.2l2.4.1.9.1c.5 0 .8-.2.8-.7v-.2.3l-.1.3-.1-.1V4.8l.6-.5c.1-.2.2-.4.5-.3.3.1.4.3.4.5 0 .5.1.9.6 1.2 0 .7.3 1.3 0 2-.1.2-.1.5.3.6 1.7 0 3.5-.1 5.2.1.2.1.5.1.5.4-.1.2-.4.2-.6.2-.5 0-1-.1-1.4.2-2 .1-3.7-.2-5.4-.3l-3.4-.2-4.5-.2c-1 0-2-.2-3-.1L30 8.2c-.1 0-.4-.1-.4-.4z"/><path fill="#585865" d="M29.6 7.8c1.3.3 2.6.1 3.9.3.8.2 1.6.2 2.3.2l3.3.3 4.5.1c.4 0 .8-.1 1.2.3-.3.3-.6.2-1 .3-.6 0-1.1 0-1.7.2 1 .2 1.9.1 2.8.1l.9.1c.3.1.5.3.1.6-.4.2-.7.2-1.1.1-2.3-.3-4.6-.2-6.9-.5l-2.8-.2-5.9-.4c-.2 0-.4 0-.6-.2v-.3c1.1-.2 2.2 0 3.5 0-.8-.6-1.7-.5-2.4-.6-.4-.1-.7 0-1.1-.2.2-.5.7-.1 1-.2z"/><path d="M47.1 3.1c-.2.5-.8.2-1.1.5-.1-.5-.5-.3-.8-.3-.6 0-1.2-.1-1.8.1-1.6-1-3.3-.8-5-.8h-7.2c-.5 0-.8-.3-.6-.8l.2-.1c.6.3 1.2.3 1.7.2 1.8-.2 3.6-.2 5.3.3h.2c1.2-.5 2.4-.2 3.6-.1.2 0 .3-.1.3-.4l.3-1.2h2c-.1.5-.6.9-.6 1.5 0 .5.1.7.6.7.6 0 1.3 0 1.8-.4.4-.3.8 0 1.1.2.2.2.4.4 0 .6z" class="st15"/><path fill="#9f161f" d="M49.5 10.4v.5c-1 .7-2.2.3-3.3.2-1.3-.1-2.6-.1-3.8-.3l-2.5-.3c-1.6-.2-3.1-.2-4.7-.1-2 0-4.1 0-6.1-.6-.3-.1-.4.1-.4.4v5.2c0 .5.3.5.7.5 1.5 0 3 .3 4.6.2.2 0 .4 0 .6.2-.6.3-1.3 0-1.9 0l-3.5-.1c-.3 0-.6 0-.6-.5 0-1.4-.1-2.9.1-4.3V9.6c.1-.3.3-.2.5-.2l11.7.7 6.9.5 1.7-.2z"/><path fill="#27363f" d="M80.6 85.6c.6-.2.7-.9.9-1.3l1.7-3.5c.1-.2.2-.4-.1-.5.2-.2.5-.4.8-.3v4.5l-.1.4c0 1.2 0 1.2-1.1 1.1l-2.1-.4z"/><path fill="#a32127" d="M30.7 1.9c-.2.5.3.6.5.8 0 .3-.2.6-.5.6-1.4-.1-2.7.6-4.2.3-.5-.1-.9-.2-1-.8.6-.4 1.3 0 1.8-.2-.5-.1-1.2.1-1.9-.2l-.1-.3c-.2-.7.1-.9.7-.9.7 0 1.4 0 2.1.2h1.3c.4 0 .8-.1 1.2.2l.1.3z"/><path d="M49.5 10.4c-.5.6-1.2.5-1.7.4l-1.7-.1-7.6-.6-3.9-.2c-1.9-.1-3.7-.1-5.6-.4l-.4.1v-.3l9.9.6c1 .1 2.1 0 3.1.2 1.4.2 2.9.1 4.3.2.6-.3 1.3 0 1.9 0 .7 0 1.2-.2 1.4-1l.2-.2h.1c.2.4.3.9 0 1.3z" class="st19"/><path fill="#e6ebef" d="M42.2.6v1.3c-.4.4-.9.3-1.3.2-.9-.3-1.8-.1-2.7-.3h-.6c-2.1.4-4.1 0-6.2.2l-.5-.1h-.1-.1c-.3-.6.1-.7.6-.8h5.9c1.4.1 2.8-.2 4.1 0 .5 0 .6-.3.9-.5z"/><path d="M46.1 2.3c0 .2.1.4-.2.5-.7 0-1.4.3-2.1.2-.4-.1-.6-.3-.5-.7.1-.6.1-1.3.8-1.7.9 0 1.7-.1 2.5.1.2.1.5 0 .5.3s-.2.3-.5.2c-.3-.1-.4.1-.4.3l-.1.8z" class="st21"/><path fill="#341e27" d="M49.7 9.1h-.1l-.1-.1v-.1c.5-.5 1.1-.1 1.7-.3.1 0 0-.1 0 0l-.3-.1.2-.3c.5-.1 1.1.2 1.6-.1h.2c.6.2 1.3.4 1.9 0h.9c1.1.4 2.2.1 3.4.1 1.3 0 1.4.2.9 1.5 0-1.2 0-1.2-1.2-1.1l-7.1.3c-.7.2-1.3 0-2 .2z"/><path fill="#f5bbc3" d="M25.6.6c0-.3.2-.4.5-.5 1 0 2-.3 2.9.1.6.3 1.3-.1 1.9.3-.3.6-.8.8-1.5.8h-3.3c-.3 0-.6.1-.8-.1-.1-.3.1-.5.3-.6a4 4 0 0 0 2.4.1c-.8-.2-1.6 0-2.4-.1z"/><path fill="#17171c" d="M28.6 8.1c1.1-.1 2.2.2 3.3.4.3.1.5.3.5.6-.1.3-.4.2-.6.1-1-.3-2.1.1-3.2-.3v-.8z"/><path fill="#eb707c" d="M25.3 1.2h4.6c.5 0 .5-.7 1-.6l.4.5c-.3.2-.7.3-.6.8-.1-.1-.3-.2-.4-.1-1.5.2-2.9-.2-4.3-.2-.5 0-.6.2-.7.7-.2-.4 0-.8 0-1.1z"/><path d="M46.1 2.3c-.1-.3-.3-.6.2-.8.5.6 1 .6 1.6.2.2.1 0 .7.6.4l.1.3-.1.3c-.3 1-.5 1.1-1.3.5.2-.5-.3-.8-.4-.6-.5.2-.4-.4-.7-.3z" class="st26"/><path fill="#c3c2cb" d="M52.8 8.1c-.5.7-1.1.3-1.6.2-1.8 0-3.5.1-5.3-.1a.3.3 0 0 1 0-.4H52c.3 0 .6-.1.8.3z"/><path fill="#8b8f98" d="M42.2 8.3c-.8-.2-1.7-.1-2.5-.2L38.2 8c-.2 0-.5.1-.6-.3h4.9l.9-.1v.1c.1.4-.1.5-.5.5-.2 0-.5-.1-.7.1z"/><path fill="#57585b" d="M43.4 3.4c0-.3.3-.3.5-.3h1.4c.4 0 .6.1.6.5l.3.5c-.1.4-.5 0-.6.3v.8c-.6.4-.7.3-.8-.3v-.4c0-.8-.2-.9-1-.8-.2 0-.3.1-.4-.1v-.2z"/><path d="M43.4 3.6l.5-.2c.6-.2 1 0 1.1.7v.7c-.1.6.3.5.6.4v.7c-.2.1-.2-.1-.3-.2-.5-.2-.7-.5-.6-1 0-.2.1-.6-.3-.6-.3 0-.3.3-.3.5-.1.4-.4.1-.7.1V3.6z" class="st15"/><path fill="#bcb5ac" d="M52.8 8.1l-.9-.3c.4-.8.1-1.5 0-2.3.9-.3 1-.2 1 .6V8l-.1.1z"/><path fill="#2a2f34" d="M37.6 7.6c.7.2 1.4.1 2.1.4-2 .1-3.9-.4-5.9-.5h3.4l.4.1z"/><path fill="#8f969b" d="M45.3 5.7l.3.2c.2.6 0 1.3.2 1.9v.3l-.3.3c-.3 0-.4-.1-.4-.4.3-.7.2-1.5.2-2.3z"/><path fill="#888a8c" d="M45.7 4.4c-.1-.7.4-.3.6-.3.2.1.1.3.3.5.2.3.6.6.1.8-.3.2-.6-.2-.8-.6-.1-.1 0-.3-.2-.4z"/><path fill="#7b848b" d="M48.6 2.3l-.2-.2c-.7.4-.3-.3-.4-.5l.1-.6c.2-.3.4-.5.7-.1.1.5-.1 1-.2 1.4z"/><path fill="#c5454b" d="M25.4 2.5c.9-.3 1.7.1 2.6 0v.3h-2.5l-.1-.3z"/><path d="M85.2 22c.1 1.4.2 2.8 0 4.2v-3.1c-.6-.4-.2-.8 0-1.1z" class="st9"/><path fill="#76706c" d="M52 5.5c.5.6.2 1.4.4 2.1 0 .2-.2.1-.4.1a8 8 0 0 1 0-2.2z"/><path d="M48.6 2.3c0-.5-.1-1 .1-1.4.6.5.2 1-.1 1.4z" class="st26"/><path d="M43.6.5h-1.3c.4-.4.9-.2 1.3 0z" class="st21"/><path d="M61 82.6c-.1-2.3.4-64 .5-64.6 0-.2.1-.6-.5-.7l-47.8-1.6-11.8-.4c-1.5 0-1.4-.4-1.3 1.4.2 3.3.6 6.5.6 9.8 0 3.8.2 7.6.3 11.3.2.3 2.2.8 2.4.4.2-.4 2.7-1.7 2.6-2.4-.3-1.6.2-3.2.1-4.9L6 25c0-2.6 3.1-2.4 3.6-2.3l28.7 1.7c3.2.2 15.4.6 15.4.9l.3 2.1.3 19.3-.2 13c-.1 2.2-.6 32.4-.8 32.4-.2.2-.4 1.5.5 1.6.6.1 4.8 2.6 5.7 2.8.4.1.7.5.7 1 .1.6.2 1.2-.2 1.8-.1.2-.2.4-.1.6.3 0 .9.5.9-.3l.4-6.6c.3-3-.1-9.5-.2-10.4z" class="st8"/><path fill="#444e50" d="M61.6 25.4h.2c1.4-.1 2.7-.5 4-.7 2.2-.4 4.4-.9 6.6-1.1.4.3.3.8.4 1.3l.5 3.1c-.1.3-.2.6-.6.6-1.1-1.1-2.5-1.1-3.9-.7-1 .3-2.1.6-3 1.2l-.1.1c-1.3.1-2.4.9-3.7.9-.9 0-.9.1-.9-.8 0-.2-.1-.5.1-.7 0-.7.1-1.4-.1-2.1-.3-.7.4-.8.5-1.1z"/><path fill="#4e6065" d="M61.1 28.4c0 1.4 0 1.4 1.4 1.3.4 0 .7 0 1-.4.2-.2.6-.3.9-.3.7.1 1.2-.2 1.8-.6a8.2 8.2 0 0 1 4.8-1.2c.6.1 1.5.2 1.7 1.1.6.7.5 1.5.5 2.3-.2.5 0 1-.3 1.5-.3-.2-.3-.7-.6-.8-.2-.9-1-1.4-1.8-1.1-.4.2-.7.1-1.1.2-1.1.3-2.2.4-3.3 1-.9.5-2.1.5-3.2.7-.5.1-1 .6-1.6.2a8.6 8.6 0 0 1-.2-3.9z"/><path fill="#97b7ce" d="M17.7 86.6c1.7.4 3.4.5 5.1.8l8.7 1.2L41.6 90l8.7 1.2 2.9.4c.3 0 .5.1.7.3-.1.6-.4.2-.7.1h-.7l-11.3-1.6-9.5-1.4-12.1-1.7-7.9-1.2-3.4-.4c-.2 0-.3-.1-.4-.3-.1-.2-.1-.4.2-.4h.4l5.7.9c1.2.3 2.3.6 3.5.7z"/><path fill="#4d5d64" d="M54 25.5l.5-.1c.2 0 .3.2.2.3-.6.6-.6 1.4-.6 2.2v9.5l.3 5.7a3 3 0 0 1-.1 1.6l-.1.3c.4 2.5-.2 5 0 7.5.1 2.1 0 4.3-.1 6.4l-.1 8.6v6.8c-.2.1-.3.3-.5.1l-.1-.3V74c-.1-4.8-.2-9.6.1-14.4v-1.3c0-3.8-.1-7.6.1-11.4.2-3.7.1-7.3.1-11v-1.5-8.2l.1-.6.2-.1z"/><path d="M54.1 76.7V78c-.5.5-1.1.5-1.6.2-.8-.4-1.6-.6-2.4-.8-.4-.1-.8-.1-.8-.6.5-.6 1.2-.8 1.9-1 1 .1 1.9.1 2.9.4l.2.2c-.2.1-.2.2-.2.3z" class="st41"/><path fill="#5c747e" d="M72.4 66.4c.1 1.1.2 2.3.1 3.4-.1 1.9.1 3.7-.2 5.6.1.8-.1 1.5-.2 2.3 0 .3-.2.6-.5.8.2-1.7.5-3.4.5-5.1 0-1.3.2-2.5.1-3.8l-.1-2.7c0-.3.1-.4.3-.5z"/><path fill="#3e525b" d="M51.3 24.4c.7.1 1.3.6 2 .3.2-.1.5-.1.6.1.1.2-.2.2-.2.4-.3.2-.7.1-1 .1-1.3-.1-2.7-.1-4-.3-.2 0-.5 0-.6-.3.5-.5 1.1-.2 1.7-.2l1.1-.1h.4z"/><path d="M59.8 19.7c-.2 0-.4-.1-.4-.3.1-.5.5-.5.8-.7.2-.1.2.1.2.3.1.4-.3.5-.6.7zM57.9 17.4h1.9v.1c-.7.1-1.3.3-2 .2-.1 0-.3 0-.3-.2l.4-.1zM55.1 20.9c-.3 0-.4-.2-.4-.4 0-.3 0-.5.3-.5s.4.1.4.4c.1.3-.1.4-.3.5zM52.6 18.9c0 .3-.2.4-.4.4s-.3-.2-.3-.4c0-.3.2-.3.4-.3s.3.1.3.3zM53.5 21.9c.2.1.4.1.3.4 0 .2-.2.4-.3.4-.2 0-.4-.2-.4-.3 0-.3.2-.5.4-.5zM53.9 17.3h1.9c-.1.3-.4.4-.6.3-.5-.2-1-.1-1.4-.1l.1-.2zM50.3 17.1h1.9l-.2.3c-.5-.1-1.1 0-1.7-.3z" class="st8"/><path d="M53.9 74.4l.3-.1c-.1.7.2 1.4-.1 2.1H54c-.3-.7-.2-1.4-.1-2z" class="st41"/><path d="M61 24.2v.9c0 .1 0 .3-.2.3a.2.2 0 0 1-.2-.2c.3-.2-.1-.8.4-1zM53.7 18.8c-.1.5-.4.6-.7.7-.1-.6.3-.6.7-.7zM57.8 22.2c.6-.3.8-.1 1 .1v.2c-.3.1-.5-.3-1-.3z" class="st8"/><path d="M52.6 92.1c.2-.2.4-.2.7 0-.1.5-.4.3-.7.2v-.2z" class="st4"/><path d="M48.1 24.7l5.1.3.5.2.3.3v.2c-.2.2-.5.2-.7.2-2.6-.1-5.2-.4-7.7-.6-.8 0-1.6-.2-2.2.3-.2.3-.6 0-.8.3.1.1.2.2.1.4-.2.4-.5.5-1 .5-1 0-2 .1-2.9.4-1 .2-1.3.9-1.4 1.8v1.8c0 .2.1.6-.4.5-.3-1.5-.3-3.1.1-4.6.6-.4 1.4-.3 2.1-.5l1-.2c.4 0 .8.2 1.3 0l.3-.2c0-.2-.2-.3-.3-.3l-1.1-.1c-1.4-.2-2.7-.3-4.1-.2-1.8 0-1.3-.2-2.2 1.7-.1.4-.4.6-.8.7-.7.1-.7.4-.4.9.3.6.7 1.2 1.4 1.3l.1.6c0 .6.1 1.2-.1 1.8-.4.4-.7.2-1-.1-.4-.4-.8-.8-.9-1.4l-.6-2.1c-.1-.3 0-.5-.2-.8-.9-.1-1.8 0-2.3.8-.2.3-.5.5-.9.6-.5.2-.9.3-1.3.6-.8.4-1 1-.5 1.8.1.2.3.5.1.7-.6 1.3-.5 2.7-.8 4-.1.2 0 .6-.3.7a.5.5 0 0 1-.3-.5c0-1.7-.7-3.3-.1-5 .1-.4-.1-.8-.3-1.2l.3-4.3c.1-1.1.7-1.5 1.9-1.7 1.6-.2 3.1-.1 4.7 0h.7c-.2-.3-.7-.1-.7-.6.1-.4.5-.4.7-.3 1.4.2 2.8.1 4.1.2.4.5 1 .1 1.5.2l2.8.1c2.1.2 4.2.3 6.4.3.2.3.5.3.8.5z" class="st44"/><path fill="#445760" d="M36.5 23.9c-.3.3-.7.2-1.1.2-1.2 0-2.5-.3-3.7-.1l-.4.1c-1.5-.4-3.1-.2-4.7-.3l-3.8-.2c-.6-.2-1.2-.1-1.8-.1h-1.8c-.4-.2-.8-.1-1.2-.2-.2-.1-.3-.2-.2-.4 2.5.3 5.1.3 7.7.4l4.7.2c1.3-.1 2.6.1 3.9.3.7.1 1.4-.3 2.1-.1.1-.1.3-.1.3.2z"/><path d="M17.7 22.8l.2.3c-.4.4-.9.1-1.3.2h-.5l-1.6-.1-1.7-.1c-1-.2-1.9-.1-2.8-.1l-1.6-.1-.8-.1c-.2 0-.5 0-.5-.4.5-.4 1-.3 1.5-.2 1.8.3 3.7.3 5.5.3l3.6.3z" class="st46"/><path d="M7.1 22.4c.4.4.9-.1 1.3.3-.5.4-1 .3-1.4.2h-.1-.1c-.1-.2-.1-.4.3-.5z" class="st47"/><path fill="#243a45" d="M79 40.9v-6.2c0-.3 0-.6.2-.9.5.1.3.5.4.7.1.2.1.5.4.5.2 0 .3-.2.4-.4 1-1.9 1.8-3.9 2.6-5.8.6-1.5 1.3-3 1.6-4.6 0-.2 0-.6.4-.7v2.2c.1 1.8-.7 3.5-1 5.2a16 16 0 0 1-1 3.3c-.2.4 0 .9-.2 1.2-.6 1.3-.4 2.8-1.3 4v1.1c-.9.8-.8 2.1-1.5 3-.2.2 0 .5 0 .8 0 .2 0 .4-.3.4-.2 0-.1-.2-.1-.4-.2-1-.2-2.2-.6-3.4z"/><path fill="#253840" d="M84.9 23.6c-.4 1.8-1.2 3.4-1.7 5.1-.3 1-.9 1.9-1.3 2.8l-1.4 3.2c-.1.3-.3.7-.7.7-.3 0-.4-.4-.5-.7-.2-.3.1-.7-.2-.9v-1.9c-.4-1.1-.2-2.3-.2-3.5v-.2l-.2.6c-.3.5-.7.6-.9.1-.5-1-1.3-1.2-2.3-1.3l-1-.1c-.9-.1-1.4-.5-1.6-1.4-.2-.8-.4-1.7-.3-2.5.2-.2.4-.4.7-.1.1 1.1.4 1.5 1.6 1.8 1.1.3 2.2.4 3.2 1.1.4.3.5 0 .7-.3.1-.1.1-.3.3-.3.2 0 .3.2.3.4v1.3c-.2 1.1.3 2.1.3 3.1 0 .1 0 .3.2.3l.3-.2c1.3-1.6 2.2-3.4 3.2-5.2.6-1.1.9-2.4 1.8-3.5.1.4-.3.7-.1 1.1-.2.1-.1.3-.2.5z"/><path d="M76.4 78.9c.3.2.6.1.8-.2h.5c.8-.4.9-.5 1.3.2.4-.6.4-.6.7 0 .1.2.3.2.5.1.6-.2 1.3-.4 1.9.1.3.2.5-.3.9-.1-.2.9-.8 1.3-1.7 1.4-.7.1-1.4.5-2 .7l-.4.2c-1-.7-1.9.4-2.8.1-.2-.1-.4 0-.5-.2-.1-.2.1-.4.2-.6l.5-.6c.5-.5.3-.8-.2-1.1h.3z" class="st50"/><path fill="#344f5f" d="M77.7 78.8h-.5c-.6-.6-.9-1.1-.6-2.2.5-1.4.5-2.9.6-4.3l.2-2.1c.3.3.4.5.4.8v4.6c0 .3 0 .5.3.7 0 .3-.2.7.3.7.2 0 .4.2.3.4-.1.3-.3 0-.4 0l-.8-.2c-.2 0-.5.4-.4.4.9.2.1.4 0 .6.1.3.5.3.6.6z"/><path d="M78.3 69.9c-.3-.1-.3-.4-.3-.7l.1-2.1c.3.3.2.7.2 1v1.8zM78.3 65.1c-.1.2.1.5-.2.8a2 2 0 0 1-.1-1.3c.1-.3.2-.1.3.1v.4zM78.7 53.3c-.3-.5-.4-1-.2-1.6 0-.1 0-.3.2-.2l.1.3-.1 1.5zM78.5 62.5c-.4-.5-.5-1 0-1.4v1.4z" class="st52"/><path d="M73.2 80.7l.2-.3c1-.2 1.7-1 2.7-1.3.1.7-.6.7-.9 1-.5.5-1.3.8-1.9 1.2-.4-.2.2-.4-.1-.6z" class="st50"/><path fill="#90b6cd" d="M80.4 20.5c1.2.3 2.4.1 3.5.3h.6c.1 0 .4-.1.4.2 0 .3-.2.3-.4.3l-4.1.5c-.8.1-1.5-.3-2.3-.3l-3.4-.3-4-.2c-3.1-.2-6.2-.1-9.3-.5-.2 0-.4 0-.4-.3s.3-.2.5-.2h4.9c.9.2 1.8 0 2.7.1.3 0 .6-.1.9.1h.3l8.3.3c.7 0 1.3-.3 1.8 0z"/><path d="M70.1 20.2c-1.2 0-2.4.1-3.6-.1 1.3 0 2.5-.3 3.6.1z" class="st6"/><path fill="#171d22" d="M84.3 21.6c.1.4-.1.7-.4 1-1 .7-1.8 1.7-2.7 2.5-.3.3-.7.7-1.2.5-.5-.2-.8-.7-.7-1.3.1-.7-.4-1.4.3-2 .2-.3.6 0 .8-.2l3.9-.5z"/><path d="M73.4 23.4l-.6.2h-.3l-6 1.1-3.9.7c-.2 0-.5.2-.7-.1l4.4-1c1.3-.3 2.5-.6 3.8-.7 2.1-.2 4.1-.9 6.2-.9l-2.9.7z" class="st1"/><path d="M80.5 22.1c-.2.2-.6.1-.8.2-1.1 0-2.2.5-3.4.4 1.3-.5 2.7-.6 4.2-.6z" class="st1"/><path d="M49.7 9.1c.6-.3 1.3-.1 2-.2-.7.3-1.3.1-2 .2z" class="st19"/><path fill="#6d6d7f" d="M49.6 8.9v.2c-.1.3-.4.4-.7.4-1.3.1-2.6-.1-3.9-.2l-.3-.2c-.4-.2-.7-.2-1.1-.2H39l-1.2-.3-3.8-.1a.5.5 0 0 1-.5-.3l8 .4 3.2.2 4.9.1z"/><path fill="#1d1b28" d="M45.6 8.4c-.3-.5.2-.2.3-.3h4.5c.3 0 .6-.1.8.2l-.2.2-5.4-.1z"/><path fill="#60656a" d="M42.2 8.3c.3-.4 1.1.1 1.3-.6.3-.2 0-.5.2-.7.2 1.3.2 1.4-1.5 1.3z"/><path fill="#484a57" d="M44.7 9.1l3.9.2c.3 0 .6 0 .9-.2-.2 1.2-.3 1.3-1.5 1.3l-2-.2c-.1-.5-.4-.3-.7-.3-1.3-.1-2.6.1-3.9-.3 1-.7 2.2-.5 3.3-.5z"/><path fill="#b7bdc6" d="M30.8 1.9c1.8 0 3.5-.4 5.3-.1.8.1 1.6-.4 2.4-.3 1.2.2 2.4.4 3.6.3.1.5-.3.4-.6.5-.7.2-1.4-.5-2.2-.2l-.6.1c-.5.2-1 .2-1.6 0-.6-.2-1.4-.1-2.2-.2-1.1-.1-2.2.2-3.3.2-.3-.1-.6.1-.8-.3z"/><path fill="#ef6270" d="M25.6.6a7 7 0 0 1 3.2 0c-1.1.6-2.5.5-3.2 0z"/><path fill="#69848f" d="M79.3 32c0-1.5-3.3-4.4-6.1-4.1S63 31 61.3 32.3s-.4 8-.3 9.7v28.5c0 4.2 0 8.3-.2 12.5 0 .9-.1 2.5.3 4.1 1.3-.5 2.5-1.2 3.7-1.8 1.5-.8 3.1-1.5 4.5-2.4 1.2-.7 6.4-2.9 7.8-3.7 1.4-.8 1.2-8.2 1.2-9.2l.2-8.8.3-14.8.5-14.4zM67.1 52z"/><path d="M56.7 40.5c0 .2-.1.3-.2.3-.2 0-.3-.2-.3-.4s.1-.3.3-.3c.2 0 .1.2.2.4zM8.8 85.2c.7 0 1.3 0 1.9.2.9.5 1.9.2 2.8.5.3.1.6.1.8.3-2-.1-4-.4-6-.8.2-.2.3-.2.5-.2zM17.7 86.6c-1.1 0-2.3-.2-3.4-.5.8-.3 1.6 0 2.4.2.3.2.8-.2 1 .3z" class="st1"/><path fill="#2c4652" d="M72.4 23.6c.1-.2.4-.2 1.7-.3 1.3-.1 5 3.4 5.1 4.1l.1 4.7c-.6-.2-5.9-3.2-6.1-4.1-.5-1.5-.5-3-.8-4.4z"/><path fill="#617c8d" d="M53.4 79.6c-1.4-.5-2.9-.4-4.3-.6-1.1-.2-2.1-.3-3.2-.3-.2 0-.2-.2-.2-.4.1-.3.3-.4.5-.5l2.6-1.1c.1-.1.3-.1.4 0 .4.7 1.2.4 1.8.7l1.2.4c.6.4 1.2.2 1.8.1 0 .7.3 1.4-.6 1.7z"/><path d="M42.6 26.1l-.3-.1c.2-.3.6-.2.8-.3.1-.5.4-.6.8-.6 1.8.1 3.7 0 5.5.4.7.2 1.5.2 2.3.1.8 0 1.6.2 2.4.1.2.1 0 .2 0 .3-.5.4-1.2.2-1.7.3-1-.4-2.1-.2-3.1-.2-.5 0-1 0-1.6-.2l-.6-.1c-.9-.1-1 .1-1 1v.4l-.2 11.4V46c0 .4 0 .8-.2 1.2-.7.2-.6-.4-.6-.7l-.2-2.7c0-.5-.2-1-.5-1.5-.3.8-.5 1.5-.5 2.3l-.2 1.7c-.2.8-.3 1.7-.2 2.5 0 .5.1 1.3-.3 1.3-.5 0-.3-.8-.3-1.2V37.8c0-1.9-.3-3.7 0-5.6v-5l-.3-1.1z" class="st64"/><path fill="#f7f8f8" d="M51.6 75.6l1.2-.2c.7 0 1-.3.9-1l.1-.1c.4.6.2 1.3.1 1.9-1-.1-2-.1-3-.4v-.1c.3-.2.6 0 .7-.1z"/><path d="M53.9 36.1c-.4-.6 0-1.1.2-1.6V36l-.2.1z" class="st64"/><path fill="#2d2e2e" d="M37.1 34.5c-.3-1-.1-2-.2-3.1.3-.7.1-1.5.1-2.2 0-1.5.9-2.5 2.4-2.4.8 0 1.6-.6 2.5-.1l.6-.5c.6 0 .5.5.5.8v5.3l-.3-.1c0-1.1-1.1-1-1.6-1.6-.6-.6-1.4-.9-2.2-1.2-.8-.3-1-.2-1.2.7-.3 1.3-.5 2.5-.5 3.8.2.2.2.4-.1.6z"/><path d="M34.1 32.4v6.3c-.4 0-.4-.3-.5-.5-.3-.6-.4-1.3-1.2-1.5-.3-.1-.2-.4-.2-.6l-.3-2.4-.2-.3c.2-1.6-.1-3.2.2-4.7l.6 2.1c.1.8.9 1.6 1.6 1.6z" class="st67"/><path fill="#fbfcfc" d="M37.1 26.8c-.4.2-.7.1-1.1.1-.4-.6-.4-1.3 0-1.9l3.8.1c.2 0 .4 0 .6.2.1.3.1.6-.1.8-.3.6-.9.3-1.3.4-.6.3-1.3.2-1.9.3z"/><path fill="#3a4548" d="M36 25v1.9h-2.3l.6-1.6c.2-.3.4-.3.7-.3h1z"/><path d="M40.2 26.1c0-.3-.1-.6.1-.8h1.1c.3 0 .5.1.5.5 0 .3-.1.5-.5.5-.3-.1-.8.5-1.2-.2z" class="st64"/><path fill="#999290" d="M43.1 25.7c-.2.3-.5.2-.8.3-.3-.1-.2-.4-.1-.5.2-.3.3 0 .4.1l.5.1z"/><path d="M34.1 29.8v-.3h.3c-.1.4.2.9-.2 1.3 0-.1 0-.3-.2-.3l.1-.7z" class="st67"/><path d="M31.4 24l-4.8-.1c-1.2-.1-2.5-.4-3.7-.1-.4.1-.9-.1-1.4-.1-1.8-.3-3.6-.3-5.3-.3-1.9 0-3.8-.4-5.7-.3l-.3-.1h4.4c.5.2 1.1-.1 1.6.2h.5c.8.2 1.6 0 2.4.2H21c.6.2 1.2-.1 1.8.1l7.4.3c.3 0 .8 0 1.2.2z" class="st44"/><path d="M19 23.2c-.8-.1-1.6.2-2.4-.2.4-.2.9.1 1.3 0 .3.1.7-.1 1.1.2z" class="st47"/><path d="M22.7 23.4c-.6-.1-1.2.2-1.8-.1.6 0 1.2-.2 1.8.1z" class="st46"/><path d="M10 22.9v-.2c.9.1 1.8-.2 2.7.2h-2.6-.1zM16.1 23.1c-.5-.1-1.1.2-1.6-.2.5.1 1-.1 1.6.2z" class="st47"/><path d="M52.4 76.5c.4-.6-1.5-.9-1.6-.9-1.5-.3-2.9-.8-4.4-1-.6-.1-.6-.3-.6-.8l.1-11.2V53c0-.1.1-10.8-.1-11.7-.1-.6-2.8.6-2.8-3.3-.4.1-.4.5-.4.7v2 33.6c-.7-.3-1.5-.2-2.2-.4l-1.7-.1h-.2c-1.4.1-1.6-.1-1.4-1.2l.2-3c0-.4-.2-.7-.1-1.1v-6.6-4.7-1.5-1.5c.2-2.5.1-5 .1-7.4-.2-.9 0-1.8 0-2.7v-6.3l-.1-.8.1-.3v-2.3c-.2-.7-.1-1.3-.1-2 0-.4.1-.8-.2-1.1 0-1.5-.1-3.1.2-4.6-.4-.2-.8-.1-1.2-.1-.7 0-1.5-.2-2.1.2 0 .5-.4.5-.8.5-.7 0-.8.3-.6.9.1.4.5.7.6 1.1.2.6.5.7 1 .4l.2-.3v-1.2 1.2 1l-.2-.1v1.9c-.3.3-.2.7-.2 1.1V38c-.3-.6-.5-1.2-1-1.5-.3-.2-.5-.6-.5-1l-.2-1.6c0-.2 0-.8-.5-.3-.1.4-.5.8-.5 1.1V83c0 .8 1.3 1.3 1.8.9.1.3 19-6.8 19.4-7.4z" class="st71"/><path d="M52.1 31.3c-.3-.4-.3-.9-.3-1.3l-.2-2.7c-.1-1-.3-1.2-1.3-.9l-2.6.9c-.7.3-1.3.3-1.9-.3 0-1.5.1-1.7 1.5-1.4 1.3.3 2.7.3 4 .3.4 0 .7 0 .9.3v3.9c-.1.3.1.8-.1 1.2z" class="st44"/><path d="M52.3 39.8c0-2.8-.2-5.6-.1-8.3-.2-1.4-.1-2.9-.3-4.3-.1-.9-.4-1.2-1.3-1.1a5 5 0 0 0-1.3.4c-1.1.4-2.2.9-3.4.4l-.1 4.3v18.3c.1 1.1.3 2.1 0 3.2v.2c.1 7.4-.3 14.8-.1 22.3.4-.8.9-.5 1.4-.3 1.3.5 2.7.7 4 1l.7-.3c-.2 0-.3-.1-.1-.3l.3-.9.1-7.3c.1-4.3 0-8.5 0-12.8v-5l.2-.2c.3-.3.3-.6.3-1-.2-2.7-.2-5.5-.3-8.3z" class="st72"/><path d="M54.6 26.2c-.9-.7-1.7-.9-2.3-.1s-.6 40.9-.7 47.3c0 .5 0 1.1-.2 1.6-.1.2-.2.5.2.7.6.1 1.1 0 1.7-.1.6-.1 1 .2 1.4-.8.4-1 .8-47.9-.1-48.6z" class="st64"/><path d="M45.7 49.5c.2 1.1.7 2.1 0 3.2v-3.2z" class="st72"/><path d="M23.3 51.2c.3.8.1 1.7.2 2.6-.4-.8-.1-1.7-.2-2.6zM23.6 61.4v2.3c-.3-.7-.1-1.5-.2-2.3h.2z" class="st73"/><path d="M34.4 33.5v1.6c-.2-.5-.2-1 0-1.6z" class="st67"/><path d="M32.6 27.5c-.7-.3-3 .3-3.4.9-.3.6-.8.8-1.4.9l-1.2.5c-.7.4-1 1.4-.5 1.9s.3.8 0 1.2l-.2.5c.1 1.3-.5 2.5-.3 3.7-.3.4-.3.8-.2 1.2l.2 4.7c0 1-.2 2-.1 3 .2.8.2 1.6.1 2.4 0 .7-.1 1.3.3 1.9l.1-.1v.1l.1 12.2v8c0 1.5.5 2.2 1.6 2.3 1.1.1 2.2.2 3.3.5.3.1 2.4-.1 2.6-.3 0-.1-.7-1.2-.7-2.1l-.3-37.2a32 32 0 0 1 0-6.2z" class="st74"/><path d="M31.7 33.9h-.1c-.2-.5-.1-1 .1-1.4v1.4z" class="st74"/><path d="M34.4 29.5h-.3c.1-.7-.1-1.3.2-2.2.2.9.1 1.6.1 2.2z" class="st44"/><path d="M31.7 75.2v-1.8c.3.7.1 1.4.1 2.1h-.1v-.3z" class="st74"/><path fill="#42474c" d="M43.1 37.9c0-1.9-.3-3.8 0-5.6-.5-.4-.3-1-.2-1.6-.5.4-1 .3-1.3-.1-.8-.9-2-1.3-3.1-1.6-.5-.2-.7.1-.8.6-.3 1.6-.6 3.3-.5 5v9.5c0 .9-.3 1.9 0 2.8 0 2.5 0 4.9-.2 7.4.2.5.1 1 0 1.4v1.4c.2.6 0 1.2.1 1.7h.1l-.1.5c0 .8.1 1.7-.1 2.5v6.6c.3.3.3.6.2 1l-.2 3.2c-.1 1 .4 1.3 1.6 1.1l.3-.1c.4.4 1 0 1.5.3l2.6.3V40.4c0-.7-.2-1.6.1-2.5z"/><path d="M37.1 59c0 1 .1 2.1-.2 3.1v-4.8c.4.5.2 1.1.2 1.7zM37 72.8c.1.9.4 1.1 1.6 1.1-.5.3-1 .3-1.5-.1-.3-.2-.4-.6-.1-1zM37 68.6c.9.2.2.6.2 1-.1-.3-.3-.6-.2-1zM38.6 73.9l.3-.2c.4.4 1-.1 1.4.3-.5 0-1.1.2-1.7-.1zM37 54.3c.4.5.2 1 0 1.4v-1.4z" class="st71"/><path fill="#1b252f" d="M31.7 24c-1.8-.3-18.7-1.1-21.4-1.1h-.2l-.1-.1H8.4c-.5.1-1-.2-1.4.2 0 .9-.6 13.7-.4 27.3.3 16.8 0 33.6 1 35.1s23.5-8 24.5-9.5c.9-1.4.5-2.1-.3-2.4-.8-.3-2.5-.6-3.8-.7-1.1-.1-1.4-.4-1.5-1.5l-.1-1.3c.1-6.2-1-42-1-43.4 0-.7.1-1.5.9-1.7 1-.3 2.1-.4 3.1-.3l3.1.2c0 .1 1-.4-.8-.8zM19.8 35.7v.1c-.1 0-.1-.1 0-.1-.1 0-.1 0 0 0z"/><path fill="#18232d" d="M23.8 76.4c-.6.4-1.4.6-2.1.8.5-.8 1.3-.8 2.1-.8z"/></svg>