<?xml version="1.0" standalone="no"?><!DOCTYPE svg PUBLIC "-//W3C//DTD SVG 1.1//EN" "http://www.w3.org/Graphics/SVG/1.1/DTD/svg11.dtd"><svg t="1558322765668" class="icon" style="" viewBox="0 0 1181 1024" version="1.1" xmlns="http://www.w3.org/2000/svg" p-id="1998" xmlns:xlink="http://www.w3.org/1999/xlink" width="73.8125" height="64"><defs><style type="text/css"></style></defs><path d="M0 78.769231v866.461538c0 47.261538 31.507692 78.769231 78.769231 78.769231h1024c47.261538 0 78.769231-31.507692 78.769231-78.769231V78.769231c0-47.261538-31.507692-78.769231-78.769231-78.769231H78.769231C31.507692 0 0 31.507692 0 78.769231z m78.769231 0h1024v236.307692H78.769231V78.769231z m1024 866.461538H78.769231V708.923077h1024v236.307692zM78.769231 630.153846V393.846154h1024v236.307692H78.769231z m827.076923-472.615384h78.769231c23.630769 0 39.384615 15.753846 39.384615 39.384615s-15.753846 39.384615-39.384615 39.384615h-78.769231c-23.630769 0-39.384615-15.753846-39.384616-39.384615s15.753846-39.384615 39.384616-39.384615zM1024 512c0 23.630769-15.753846 39.384615-39.384615 39.384615h-78.769231c-23.630769 0-39.384615-15.753846-39.384616-39.384615s15.753846-39.384615 39.384616-39.384615h78.769231c23.630769 0 39.384615 15.753846 39.384615 39.384615z m-157.538462 315.076923c0-23.630769 15.753846-39.384615 39.384616-39.384615h78.769231c23.630769 0 39.384615 15.753846 39.384615 39.384615s-15.753846 39.384615-39.384615 39.384615h-78.769231c-23.630769 0-39.384615-15.753846-39.384616-39.384615z" p-id="1999" fill="#0CBABD"></path></svg>