<?xml version="1.0" standalone="no"?><!DOCTYPE svg PUBLIC "-//W3C//DTD SVG 1.1//EN" "http://www.w3.org/Graphics/SVG/1.1/DTD/svg11.dtd"><svg t="1558338469214" class="icon" style="" viewBox="0 0 1235 1024" version="1.1" xmlns="http://www.w3.org/2000/svg" p-id="2863" xmlns:xlink="http://www.w3.org/1999/xlink" width="77.1875" height="64"><defs><style type="text/css"></style></defs><path d="M691.458279 515.463976c0-42.783145-34.51822-77.301365-77.301365-77.301365s-77.301365 34.51822-77.301365 77.301365 34.51822 77.301365 77.301365 77.301365c42.661602 0 77.301365-34.51822 77.301365-77.301365z m0 0" p-id="2864" fill="#0CBABD"></path><path d="M1109.687834 534.060059c4.497092-152.293412-59.191454-291.095549-162.989199-386.871454L757.820772 352.474777c-28.319525-24.91632-62.716202-42.661602-101.002256-50.075727V15.071335c-9.723442-0.364629-19.082255-0.972344-28.684154-0.972344l-0.364629 0.364629c-152.293412 0-289.272404 67.091751-382.131276 174.049614l208.203205 180.856024c-30.993472 33.910504-51.534243 77.787537-56.152879 126.040119l-267.516201-7.778754h-2.673947c-0.972344 9.723442-1.21543 19.082255-1.701602 28.805697l0.364629 0.36463c-4.497092 152.293412 59.191454 291.095549 162.989199 386.871454l195.684273-212.457211c-0.850801-0.850801-1.336973-1.336973-2.066232-2.187775 28.92724 21.999288 63.44546 36.94908 101.002255 42.175431V1008.807122c9.723442 0.364629 19.082255 0.972344 28.805698 0.972344l0.364629-0.364629c152.293412 0 289.272404-67.091751 382.131276-174.049614L783.952522 652.078338c22.242374-27.590267 37.678338-60.771513 44.241662-96.991335l277.604273 8.143383h2.673947c0.972344-9.723442 1.21543-19.082255 1.701602-28.805698l-0.486172-0.364629z m-636.763917-17.988368c0-78.152166 63.202374-141.35454 141.35454-141.35454s141.35454 63.202374 141.35454 141.35454-63.202374 141.35454-141.35454 141.35454c-78.030623-0.243086-141.35454-63.323917-141.35454-141.35454z m0 0" p-id="2865" fill="#0CBABD"></path></svg>