<?xml version="1.0" standalone="no"?><!DOCTYPE svg PUBLIC "-//W3C//DTD SVG 1.1//EN" "http://www.w3.org/Graphics/SVG/1.1/DTD/svg11.dtd"><svg t="1560168147927" class="icon" style="" viewBox="0 0 1217 1024" version="1.1" xmlns="http://www.w3.org/2000/svg" p-id="4741" xmlns:xlink="http://www.w3.org/1999/xlink" width="38.03125" height="32"><defs><style type="text/css"></style></defs><path d="M1130.745081 896c0 23.552-19.456 42.675892-43.478486 42.675892H130.463135c-24.022486 0-43.478486-19.096216-43.478486-42.675892V128c0-23.552 19.456-42.675892 43.478486-42.675892h956.775784c24.022486 0 43.478486 19.096216 43.478486 42.675892v768z m0-896H86.984649C38.939676 0 0 38.192432 0 85.324108v853.324108C0 985.807568 38.939676 1024 86.984649 1024h1043.760432C1178.790054 1024 1217.72973 985.807568 1217.72973 938.675892V85.324108C1217.72973 38.192432 1178.790054 0 1130.745081 0z" p-id="4742"></path><path d="M1001.638054 512h-173.969297c-24.022486 0-43.478486 19.096216-43.478487 42.675892v256c0 23.552 19.456 42.675892 43.478487 42.675892h173.969297c24.022486 0 43.478486-19.096216 43.478487-42.675892v-256c0-23.579676-19.456-42.675892-43.478487-42.675892z m-349.267027 0h-173.969297c-24.022486 0-43.478486 19.096216-43.478487 42.675892v256c0 23.552 19.456 42.675892 43.478487 42.675892h173.969297c24.022486 0 43.478486-19.096216 43.478487-42.675892v-256c0-23.579676-19.483676-42.675892-43.478487-42.675892z m-349.294703 0H216.091676c-24.022486 0-43.478486 19.096216-43.478487 42.675892v256c0 23.552 19.483676 42.675892 43.478487 42.675892h86.984648c24.022486 0 43.478486-19.096216 43.478487-42.675892v-256c0-23.579676-19.456-42.675892-43.478487-42.675892zM1001.638054 172.004324H566.742486c-24.022486 0-43.478486 19.096216-43.478486 42.675892v170.675892c0 23.552 19.456 42.675892 43.478486 42.675892h434.895568c24.022486 0 43.478486-19.096216 43.478487-42.675892V214.652541c0-23.552-19.456-42.648216-43.478487-42.648217zM434.895568 214.652541c0-23.552-19.483676-42.675892-43.478487-42.675892H217.447784c-24.022486 0-43.478486 19.096216-43.478487 42.675892v170.675891c0 23.552 19.456 42.675892 43.478487 42.675892h173.969297c24.022486 0 43.478486-19.096216 43.478487-42.675892V214.652541z" p-id="4743"></path></svg>