<?xml version="1.0" standalone="no"?><!DOCTYPE svg PUBLIC "-//W3C//DTD SVG 1.1//EN" "http://www.w3.org/Graphics/SVG/1.1/DTD/svg11.dtd"><svg t="1559219617082" class="icon" style="" viewBox="0 0 1024 1024" version="1.1" xmlns="http://www.w3.org/2000/svg" p-id="6249" xmlns:xlink="http://www.w3.org/1999/xlink" width="32" height="32"><defs><style type="text/css"></style></defs><path d="M512 957.44C266.24 957.44 66.56 757.76 66.56 512S266.24 66.56 512 66.56 957.44 266.24 957.44 512 757.76 957.44 512 957.44M512 0C229.376 0 0 229.376 0 512s229.376 512 512 512 512-229.376 512-512-229.376-512-512-512" p-id="6250" fill="#13227a"></path><path d="M509.074286 801.426286l-247.588572-260.388572a4.022857 4.022857 0 0 1 2.925715-6.802285h495.250285c3.437714 0 5.266286 4.169143 2.925715 6.729142l-247.734858 260.388572a3.949714 3.949714 0 0 1-5.705142 0M765.805714 454.217143H258.194286a3.218286 3.218286 0 0 1-3.145143-3.145143V370.688c0-1.755429 1.462857-3.291429 3.145143-3.291429h507.465143c1.755429 0 3.218286 1.536 3.218285 3.291429v80.384c0 1.755429-1.462857 3.145143-3.218285 3.145143" p-id="6251" fill="#13227a"></path></svg>