<?xml version="1.0" standalone="no"?><!DOCTYPE svg PUBLIC "-//W3C//DTD SVG 1.1//EN" "http://www.w3.org/Graphics/SVG/1.1/DTD/svg11.dtd"><svg t="1558339300399" class="icon" style="" viewBox="0 0 1230 1024" version="1.1" xmlns="http://www.w3.org/2000/svg" p-id="11462" xmlns:xlink="http://www.w3.org/1999/xlink" width="76.875" height="64"><defs><style type="text/css"></style></defs><path d="M84.425532 42.212766a40.851064 40.851064 0 0 0-40.851064 40.851064v857.87234a40.851064 40.851064 0 0 0 40.851064 40.851064h1062.127659a40.851064 40.851064 0 0 0 40.851064-40.851064V83.06383a40.851064 40.851064 0 0 0-40.851064-40.851064h-1062.127659z m0-40.851064h1062.127659c45.121362 0 81.702128 36.580766 81.702128 81.702128v857.87234c0 45.121362-36.580766 81.702128-81.702128 81.702128h-1062.127659c-45.121362 0-81.702128-36.580766-81.702128-81.702128V83.06383c0-45.121362 36.580766-81.702128 81.702128-81.702128z m939.574468 490.212766H206.978723v-245.106383a40.851064 40.851064 0 0 1 40.851064-40.851064h735.319149a40.851064 40.851064 0 0 1 40.851064 40.851064v245.106383z m0 40.851064v245.106383a40.851064 40.851064 0 0 1-40.851064 40.851064h-735.319149a40.851064 40.851064 0 0 1-40.851064-40.851064v-245.106383h817.021277zM329.531915 307.744681v81.702128h81.702128v-81.702128h-81.702128z m0 326.80851v81.702128h81.702128v-81.702128h-81.702128z m163.404255-326.80851v81.702128h81.702128v-81.702128h-81.702128z m0 326.80851v81.702128h81.702128v-81.702128h-81.702128z m163.404256-326.80851v81.702128h81.702127v-81.702128h-81.702127z m0 326.80851v81.702128h81.702127v-81.702128h-81.702127z m163.404255-326.80851v81.702128h81.702128v-81.702128h-81.702128z m0 326.80851v81.702128h81.702128v-81.702128h-81.702128z" fill="#0CBABD" p-id="11463"></path></svg>