<?xml version="1.0" standalone="no"?><!DOCTYPE svg PUBLIC "-//W3C//DTD SVG 1.1//EN" "http://www.w3.org/Graphics/SVG/1.1/DTD/svg11.dtd"><svg t="1558921197046" class="icon" style="" viewBox="0 0 1024 1024" version="1.1" xmlns="http://www.w3.org/2000/svg" p-id="2953" xmlns:xlink="http://www.w3.org/1999/xlink" width="32" height="32"><defs><style type="text/css"></style></defs><path d="M679.468 881.313c-58.505 28.963-124.179 45.671-193.876 45.671-241.953 0-438.072-196.144-438.072-438.073S243.639 50.839 485.592 50.839c235.223 0 426.533 185.482 437.055 418.058 12.487 3.341 24.535 7.701 36.167 12.857-3.863-258.233-214.043-466.435-473.2-466.435C224.029 15.319 12 227.337 12 488.911s212.029 473.591 473.614 473.591c80.612 0 156.438-20.256 222.875-55.775-10.267-7.793-20.094-16.153-29.021-25.414z" fill="#0CBABD" p-id="2954"></path><path d="M413.212 459.357h39.357V316.263h82.277v142.054h39.358V316.263h165.063v-36.306H507.005l19.656-10.221c-6.476-12.256-18.061-31.333-34.733-57.233l-36.814 17.898c8.856 13.967 18.569 30.478 29.137 49.556H251.2v36.306h162.012v143.094z" fill="#0CBABD" p-id="2955"></path><path d="M632.965 345.885l-28.097 24.026a1946.703 1946.703 0 0 1 103.737 107.83l31.681-28.096c-27.934-29.992-63.731-64.563-107.321-103.76zM273.169 479.268c33.739-32.352 67.986-68.472 102.72-108.339l-30.663-26.062C313.221 384.734 279.32 420 243.523 450.663c11.262 9.527 21.136 19.078 29.646 28.605zM615.69 654.83c-31.334-7.852-59.546-17.563-84.174-29.392 45.486-29.646 84.405-65.743 116.779-108.339v-35.265H300.779V517.1h58.506c26.917 43.428 58.944 79.04 96.082 106.813-53.834 24.535-125.289 44.445-214.388 59.777 8.856 11.932 17.552 24.535 26.085 37.832 92.498-19.425 167.515-43.96 225.095-73.605 34.178 19.574 73.675 35.461 118.144 47.902 0.739-13.991 2.451-27.704 5.387-40.989zM405.303 517.1h192.905c-28.79 33.716-63.639 62.691-104.522 86.879-33.902-20.79-63.363-49.741-88.383-86.879zM805.543 860.408l-50.435-226.957-33.137 90.868-26.825-0.473 65.906-181.229L812.55 774.35l43.567-108.963 63.708 76.449 65.142-162.856 27.033 1.065-84.382 210.966-63.685-76.462z" fill="#0CBABD" p-id="2956"></path></svg>