<?xml version="1.0" standalone="no"?><!DOCTYPE svg PUBLIC "-//W3C//DTD SVG 1.1//EN" "http://www.w3.org/Graphics/SVG/1.1/DTD/svg11.dtd"><svg t="1558339205121" class="icon" style="" viewBox="0 0 1024 1024" version="1.1" xmlns="http://www.w3.org/2000/svg" p-id="10836" xmlns:xlink="http://www.w3.org/1999/xlink" width="64" height="64"><defs><style type="text/css"></style></defs><path d="M917.827377 629.627001v-17.466814c0-23.119557-21.38403-41.857317-47.764863-41.857316H748.586858c-26.378787 0-47.762817 18.738783-47.762817 41.857316v17.466814H424.023808c-26.378787 0-47.762817-18.738783-47.762817-41.857317V345.192903h19.932981c26.37981 0 47.76384-18.739806 47.763841-41.857317v-106.454543c0-23.11751-21.38403-41.857317-47.763841-41.857317h-19.932981V66.034972H71.627852v88.987731H51.696917c-26.378787 0-47.762817 18.739806-47.762816 41.857316v106.454544c0 23.11751 21.38403 41.857317 47.762816 41.857317h19.930935v342.110705c0 115.585505 106.921171 209.287607 238.815108 209.287607h390.381081v17.470907c0 23.115464 21.383006 41.856293 47.762817 41.856293h121.475656c26.37981 0 47.764863-18.74083 47.764863-41.856293v-17.470907h101.544721V629.627001H917.827377zM398.166907 184.685279c6.595208 0 11.94096 4.684696 11.94096 10.46433l33.848922 97.723695c0 5.777587-5.345752 10.464329-11.94096 10.464329H83.570859c-6.596232 0-11.94096-4.686742-11.94096-10.464329v-97.723695c0-5.779633 5.344728-10.464329 11.94096-10.46433h314.596048zM139.32672 95.698572h203.086372l33.848922 59.324131H139.32672V95.698572z m181.085289 741.568513c-79.541591 0-181.085288-59.325154-181.085289-158.695349V345.192903h203.086372l29.897937 251.311723c0 34.675754 32.077579 62.785975 71.644737 62.785975h256.868275v177.976484H320.412009z m597.415368 48.860824c0 5.779633-5.347798 10.464329-11.941983 10.464329H760.527818c-6.595208 0-11.94096-4.683672-11.94096-10.464329V610.431823c0-5.779633 5.345752-10.464329 11.94096-10.464329h111.5107c6.593162 0 11.94096 4.683672 11.94096 10.464329l33.847899 275.696086z m101.544721-48.860824H917.827377V659.291624h67.694775l33.849946 177.975461z" p-id="10837" fill="#0CBABD"></path></svg>