<?xml version="1.0" standalone="no"?><!DOCTYPE svg PUBLIC "-//W3C//DTD SVG 1.1//EN" "http://www.w3.org/Graphics/SVG/1.1/DTD/svg11.dtd"><svg t="1558920947171" class="icon" style="" viewBox="0 0 1024 1024" version="1.1" xmlns="http://www.w3.org/2000/svg" p-id="1720" xmlns:xlink="http://www.w3.org/1999/xlink" width="32" height="32"><defs><style type="text/css"></style></defs><path d="M292.571429 731.428571c36.571429 0 65.828571-7.314286 73.142857-39.009523 4.87619-21.942857 24.380952-34.133333 46.323809-34.133334 29.257143 0 51.2-2.438095 51.2 24.380953h24.380953c0-41.447619-34.133333-48.761905-78.019048-48.761905-34.133333 0-63.390476 21.942857-70.704762 53.638095-2.438095 19.504762-24.380952 19.504762-48.761905 19.504762-26.819048 0-48.761905 2.438095-48.761904-24.380952H219.428571c0 41.447619 31.695238 48.761905 73.142858 48.761904zM658.285714 731.428571c36.571429 0 65.828571-7.314286 73.142857-39.009523 4.87619-21.942857 24.380952-34.133333 46.32381-34.133334 29.257143 0 51.2-2.438095 51.2 24.380953h24.380952c0-41.447619-34.133333-48.761905-78.019047-48.761905-34.133333 0-63.390476 21.942857-70.704762 53.638095-2.438095 19.504762-24.380952 19.504762-48.761905 19.504762-26.819048 0-48.761905 2.438095-48.761905-24.380952h-24.380952c2.438095 41.447619 34.133333 48.761905 75.580952 48.761904zM463.238095 390.095238h-146.285714v48.761905h390.095238v-48.761905h-146.285714V195.047619h268.190476c26.819048 0 48.761905-21.942857 48.761905-48.761905s-21.942857-48.761905-48.761905-48.761904H195.047619c-26.819048 0-48.761905 21.942857-48.761905 48.761904s21.942857 48.761905 48.761905 48.761905h268.190476v195.047619z" p-id="1721" fill="#0CBABD"></path><path d="M926.47619 438.857143v48.761905H97.52381v-48.761905H0v487.619047h97.52381v-48.761904h828.95238v48.761904h97.52381V438.857143h-97.52381z m0 341.333333H97.52381v-195.047619h828.95238v195.047619z" p-id="1722" fill="#0CBABD"></path></svg>