<?xml version="1.0" standalone="no"?><!DOCTYPE svg PUBLIC "-//W3C//DTD SVG 1.1//EN" "http://www.w3.org/Graphics/SVG/1.1/DTD/svg11.dtd"><svg t="1558338856743" class="icon" style="" viewBox="0 0 1024 1024" version="1.1" xmlns="http://www.w3.org/2000/svg" p-id="5556" xmlns:xlink="http://www.w3.org/1999/xlink" width="64" height="64"><defs><style type="text/css"></style></defs><path d="M179.053 190.887h665.895c24.116 0 46.031 9.838 61.924 25.733s25.733 37.808 25.733 61.924v389.815c0 24.116-9.838 46.031-25.733 61.924s-37.808 25.733-61.924 25.733h-665.895c-24.116 0-46.031-9.838-61.924-25.733-15.859-15.893-25.733-37.808-25.733-61.924v-389.815c0-24.116 9.874-46.031 25.733-61.924 15.893-15.893 37.808-25.733 61.924-25.733zM844.947 211.046h-665.895c-18.544 0-35.401 7.604-47.647 19.85s-19.817 29.104-19.817 47.647v389.815c0 18.544 7.568 35.401 19.817 47.647s29.104 19.85 47.647 19.85h665.895c18.544 0 35.434-7.604 47.647-19.85 12.247-12.247 19.85-29.104 19.85-47.647v-389.815c0-18.544-7.604-35.401-19.85-47.647-12.213-12.247-29.104-19.85-47.647-19.85z" fill="#0CBABD" p-id="5557"></path><path d="M179.053 185.863h665.895c12.489 0 24.461 2.511 35.366 7.052 11.318 4.714 21.536 11.628 30.102 20.159 8.532 8.532 15.447 18.784 20.159 30.102 4.541 10.906 7.052 22.879 7.052 35.366v389.815c0 12.454-2.511 24.426-7.052 35.366-4.714 11.318-11.628 21.536-20.159 30.102h-0.034c-8.532 8.532-18.784 15.481-30.068 20.159-10.94 4.541-22.913 7.052-35.366 7.052h-665.895c-12.489 0-24.426-2.511-35.366-7.052-11.284-4.678-21.536-11.628-30.068-20.159h-0.034c-8.532-8.532-15.447-18.784-20.159-30.102-4.541-10.94-7.052-22.879-7.052-35.366v-389.815c0-12.489 2.511-24.461 7.052-35.366 4.714-11.318 11.628-21.57 20.159-30.102 8.566-8.532 18.784-15.447 30.102-20.159 10.94-4.541 22.879-7.052 35.366-7.052zM844.947 195.875h-665.895c-11.146 0-21.811 2.237-31.513 6.261-10.115 4.197-19.231 10.39-26.868 18.027-7.604 7.604-13.795 16.754-17.991 26.834-4.026 9.701-6.261 20.401-6.261 31.547v389.815c0 11.146 2.237 21.845 6.261 31.513 4.197 10.115 10.355 19.265 17.991 26.902 7.604 7.604 16.754 13.795 26.868 17.991 9.701 4.026 20.366 6.261 31.513 6.261h665.895c11.146 0 21.845-2.237 31.513-6.261 10.115-4.197 19.231-10.355 26.868-17.991h0.034c7.604-7.638 13.795-16.788 17.957-26.902 4.060-9.701 6.295-20.366 6.295-31.513v-389.815c0-11.146-2.237-21.811-6.295-31.513-4.163-10.115-10.355-19.265-17.991-26.868-7.638-7.638-16.754-13.829-26.868-18.027-9.701-4.026-20.366-6.261-31.513-6.261zM844.947 216.069h-665.895c-8.429 0-16.479 1.686-23.807 4.748-7.604 3.165-14.517 7.844-20.298 13.622-5.779 5.746-10.458 12.694-13.622 20.298-3.027 7.328-4.748 15.378-4.748 23.807v389.815c0 8.429 1.719 16.513 4.748 23.807 3.165 7.604 7.844 14.517 13.622 20.298s12.694 10.458 20.298 13.622c7.328 3.061 15.378 4.748 23.807 4.748h665.895c8.429 0 16.513-1.686 23.807-4.748 7.604-3.165 14.517-7.844 20.332-13.622 5.746-5.779 10.425-12.694 13.622-20.298 3.027-7.294 4.714-15.378 4.714-23.807v-389.815c0-8.429-1.686-16.479-4.714-23.807-3.199-7.604-7.878-14.553-13.622-20.298-5.814-5.779-12.729-10.458-20.332-13.658-7.294-3.027-15.378-4.714-23.807-4.714zM179.053 206.059h665.895c9.77 0 19.093 1.962 27.66 5.503 8.842 3.681 16.858 9.117 23.532 15.79s12.11 14.69 15.79 23.567c3.545 8.532 5.503 17.889 5.503 27.625v389.815c0 9.735-1.962 19.093-5.503 27.625-3.681 8.876-9.117 16.892-15.79 23.567s-14.69 12.076-23.532 15.79c-8.566 3.545-17.889 5.503-27.66 5.503h-665.895c-9.77 0-19.129-1.962-27.66-5.539-8.842-3.681-16.858-9.083-23.532-15.757s-12.076-14.69-15.757-23.567c-3.579-8.532-5.539-17.889-5.539-27.625v-389.815c0-9.735 1.962-19.093 5.539-27.625 3.681-8.876 9.083-16.892 15.757-23.567s14.69-12.11 23.532-15.79c8.532-3.545 17.889-5.503 27.66-5.503z" fill="#0CBABD" p-id="5558"></path><path d="M288.281 334.551h459.618v264.452h-469.731v-264.452h10.115zM727.703 354.711h-429.344v224.098h429.344v-224.098z" fill="#0CBABD" p-id="5559"></path><path d="M288.281 329.53h464.607v274.464h-479.709v-274.464h15.103zM737.785 339.574h-454.595v254.407h459.686v-254.407h-5.091zM722.716 359.734h-419.332v214.052h419.332v-214.052zM298.359 349.724h434.366v234.109h-439.354v-234.109h4.988zM304.965 633.201h37.429c7.052 0 13.486 2.89 18.164 7.568h0.034v0.034c4.678 4.678 7.568 11.111 7.568 18.164v0.997c0 7.086-2.89 13.555-7.568 18.198-4.644 4.644-11.111 7.568-18.198 7.568h-37.429c-7.052 0-13.486-2.924-18.164-7.568l-0.034-0.034c-4.644-4.678-7.534-11.111-7.534-18.164v-0.997c0-7.086 2.89-13.52 7.534-18.164l0.034-0.034c4.678-4.678 11.111-7.568 18.164-7.568zM342.395 653.394h-37.429c-1.514 0-2.924 0.619-3.922 1.583l-0.034 0.069c-0.997 0.997-1.617 2.373-1.617 3.922v0.997c0 1.514 0.619 2.924 1.617 3.922l0.034 0.034c0.997 0.997 2.407 1.617 3.922 1.617h37.429c1.514 0 2.924-0.619 3.922-1.652 1.031-0.997 1.652-2.407 1.652-3.922v-0.997c0-1.549-0.619-2.959-1.617-3.922l-0.034-0.069c-0.963-0.963-2.373-1.583-3.922-1.583zM431.188 633.201h37.429c7.052 0 13.486 2.89 18.164 7.568h0.034v0.034c4.678 4.678 7.568 11.111 7.568 18.164v0.997c0 7.086-2.89 13.555-7.568 18.198-4.644 4.644-11.078 7.568-18.198 7.568h-37.429c-7.086 0-13.52-2.924-18.198-7.568-4.644-4.644-7.534-11.111-7.534-18.198v-0.997c0-7.086 2.89-13.52 7.534-18.164l0.069-0.034c4.644-4.678 11.078-7.568 18.13-7.568zM468.619 653.394h-37.429c-1.514 0-2.924 0.619-3.922 1.583l-0.034 0.069c-0.997 0.997-1.617 2.373-1.617 3.922v0.997c0 1.514 0.654 2.924 1.652 3.922 1.031 1.031 2.407 1.652 3.922 1.652h37.429c1.549 0 2.924-0.619 3.956-1.652 0.997-0.997 1.652-2.407 1.652-3.922v-0.997c0-1.549-0.619-2.959-1.617-3.922l-0.034-0.069c-0.997-0.963-2.407-1.583-3.956-1.583zM557.445 633.201h37.429c7.052 0 13.486 2.89 18.164 7.568l0.034 0.034c4.644 4.678 7.534 11.111 7.534 18.164v0.997c0 7.086-2.89 13.555-7.534 18.198s-11.111 7.568-18.198 7.568h-37.429c-7.121 0-13.555-2.924-18.198-7.568-4.678-4.644-7.568-11.111-7.568-18.198v-0.997c0-7.086 2.89-13.52 7.568-18.164l0.034-0.034c4.644-4.678 11.078-7.568 18.164-7.568zM594.875 653.394h-37.429c-1.549 0-2.924 0.619-3.922 1.583l-0.069 0.069c-0.963 0.997-1.583 2.373-1.583 3.922v0.997c0 1.514 0.619 2.924 1.652 3.922 0.997 1.031 2.407 1.652 3.922 1.652h37.429c1.514 0 2.924-0.619 3.922-1.652 0.997-0.997 1.652-2.407 1.652-3.922v-0.997c0-1.549-0.619-2.959-1.617-3.922l-0.034-0.069c-0.997-0.963-2.373-1.583-3.922-1.583zM683.669 633.201h37.429c7.052 0 13.486 2.89 18.164 7.568h0.034v0.034c4.678 4.678 7.568 11.111 7.568 18.164v0.997c0 7.086-2.89 13.555-7.568 18.198-4.644 4.644-11.111 7.568-18.198 7.568h-37.429c-7.086 0-13.52-2.924-18.198-7.568-4.644-4.644-7.568-11.111-7.568-18.198v-0.997c0-7.086 2.924-13.52 7.568-18.164l0.034-0.034c4.678-4.678 11.111-7.568 18.164-7.568zM721.099 653.394h-37.429c-1.514 0-2.924 0.619-3.922 1.583l-0.034 0.069c-0.997 0.997-1.617 2.373-1.617 3.922v0.997c0 1.514 0.619 2.924 1.652 3.922 0.997 1.031 2.407 1.652 3.922 1.652h37.429c1.514 0 2.924-0.619 3.922-1.652 1.031-0.997 1.652-2.407 1.652-3.922v-0.997c0-1.549-0.619-2.959-1.583-3.922l-0.069-0.069c-0.963-0.963-2.373-1.583-3.922-1.583zM803.871 382.201h9.013c2.34 0 4.644 0.515 6.742 1.377h0.069c2.202 0.928 4.163 2.237 5.746 3.854 1.274 1.274 2.65 2.924 3.819 4.954 0.963 1.719 1.719 3.612 2.064 5.677l10.802 39.527 0.379 1.445v1.204c0 2.373-0.481 4.678-1.377 6.777-0.894 2.202-2.237 4.197-3.819 5.779-3.235 3.199-7.67 5.229-12.592 5.229h-20.848c-2.34 0-4.609-0.515-6.742-1.377h-0.034c-2.202-0.928-4.163-2.237-5.779-3.854v-0.034c-1.652-1.652-2.959-3.579-3.854-5.746-0.86-2.098-1.377-4.403-1.377-6.777v-40.251c0-2.34 0.515-4.609 1.377-6.742v-0.034c0.928-2.202 2.237-4.163 3.854-5.779s3.579-2.924 5.779-3.854h0.034c2.133-0.86 4.403-1.377 6.742-1.377zM811.13 403.116h-4.129v33.99h13.417l-9.289-33.99zM812.884 555.966h-9.013c-2.34 0-4.609-0.515-6.742-1.377h-0.034c-2.202-0.928-4.163-2.237-5.779-3.854s-2.924-3.579-3.854-5.779v-0.034c-0.86-2.133-1.377-4.403-1.377-6.742v-40.251c0-2.373 0.515-4.678 1.377-6.777 0.928-2.202 2.237-4.163 3.854-5.779 1.583-1.583 3.545-2.89 5.746-3.819v-0.034c2.098-0.86 4.438-1.377 6.812-1.377h20.848c2.407 0 4.714 0.515 6.846 1.377v0.034c2.202 0.928 4.163 2.237 5.746 3.819 1.583 1.617 2.924 3.579 3.819 5.779 0.894 2.098 1.377 4.403 1.377 6.777v1.204l-0.379 1.445-10.802 39.527c-0.343 2.064-1.1 3.956-2.064 5.677-1.17 2.064-2.546 3.681-3.819 4.954-1.583 1.617-3.545 2.924-5.746 3.854h-0.069c-2.098 0.86-4.403 1.377-6.742 1.377zM807.002 535.050h4.129l9.289-33.99h-13.417v33.99zM454.41 799.227c3.785-3.301 10.148-3.475 14.243-0.413 4.060 3.095 4.266 8.291 0.481 11.594-0.138 0.138-49.472 43.417-16.066 67.739 49.609 36.157-24.426 88.724-24.631 88.862-4.129 3.027-10.527 2.717-14.207-0.654-3.715-3.406-3.338-8.601 0.825-11.594 0.172-0.138 57.142-40.734 24.631-64.402-48.679-35.469 14.553-90.961 14.724-91.133z" fill="#0CBABD" p-id="5560"></path><path d="M451.313 795.305c2.752-2.34 6.4-3.579 9.978-3.681h0.034c3.612-0.069 7.396 0.963 10.355 3.235 0.722 0.55 1.41 1.204 2.029 1.892 1.962 2.237 3.027 4.919 3.131 7.604 0.103 2.717-0.722 5.469-2.511 7.81-0.55 0.722-1.17 1.377-1.858 1.996l-0.206 0.138c-0.034 0.069-7.878 6.949-15.035 16.788-4.403 6.055-8.463 13.107-10.046 20.126-1.445 6.331-0.79 12.764 3.785 18.267 1.343 1.583 3.027 3.165 5.057 4.644 28.761 20.951 20.814 46.546 6.331 66.431h0.034c-12.283 16.927-29.484 29.415-30.893 30.446l-0.069 0.034-0.069 0.069c-3.027 2.133-6.812 3.165-10.458 2.959-3.647-0.172-7.328-1.549-10.046-4.026-0.688-0.619-1.308-1.343-1.823-1.996-1.719-2.373-2.511-5.159-2.34-7.914 0.172-2.683 1.274-5.366 3.301-7.568l0.034-0.034c0.585-0.585 1.308-1.238 2.029-1.789l0.309-0.24 0.172-0.103c0.103-0.034 14.759-10.527 24.461-23.841 3.301-4.575 6.021-9.426 7.121-14.141h0.034c0.997-4.163 0.688-8.325-1.583-12.039-1.274-2.029-3.199-4.060-5.814-5.986-33.542-24.426-19.747-56.867-4.335-78.026 8.669-11.903 17.821-20.126 18.576-20.778l0.138-0.172 0.172-0.103zM461.567 801.635h-0.034c-1.445 0.034-2.855 0.515-3.854 1.343l-0.034 0.069 3.922-1.41zM465.591 802.804c-1.068-0.825-2.58-1.204-4.026-1.17l4.026 1.17zM466.245 803.389v0zM466.83 804.765c0-0.448-0.206-0.963-0.585-1.377l0.585 1.377zM466.382 806.108c0.309-0.448 0.481-0.928 0.448-1.343l-0.448 1.343zM466.348 806.177v0zM465.833 806.692v0zM449.146 825.236c7.189-9.908 15.344-17.339 16.686-18.544l-16.686 18.544zM437.415 849.006c1.926-8.532 6.674-16.823 11.73-23.773l-11.73 23.773zM443.297 875.875c-6.915-8.291-7.981-17.682-5.883-26.868l5.883 26.868zM443.297 875.875zM450.144 882.206c-2.717-1.962-5.023-4.129-6.846-6.331l6.846 6.331zM454.273 934.704c11.628-15.929 18.13-36.295-4.129-52.498l4.129 52.498zM454.273 934.704zM425.581 962.914c1.308-0.963 17.373-12.626 28.691-28.21l-28.691 28.21zM425.546 962.948v0zM425.546 962.982v0zM421.418 964.083c1.479 0.069 2.992-0.309 4.129-1.1l-4.129 1.1zM421.383 964.083v0zM417.566 962.673c0.963 0.86 2.373 1.343 3.819 1.41l-3.819-1.41zM417.566 962.639v0zM417.119 962.157v0zM417.119 962.123v0zM416.67 960.747c0 0.448 0.138 0.928 0.448 1.377l-0.448-1.377zM417.359 959.337c-0.413 0.448-0.654 0.963-0.688 1.41l0.688-1.41zM418.013 958.752v0zM445.086 932.399c-9.701 13.279-24.288 24.288-27.074 26.353l27.074-26.353zM445.086 932.399zM453.859 914.751h0.034c-1.445 6.089-4.748 12.11-8.807 17.648l8.772-17.648zM451.107 895.175c3.819 6.227 4.335 12.935 2.752 19.574l-2.752-19.574zM451.073 895.141v0zM442.609 886.3c3.75 2.717 6.537 5.712 8.463 8.842l-8.463-8.842zM440.511 822.241c-12.901 17.682-24.667 44.585 2.098 64.058l-2.098-64.058z" fill="#0CBABD" p-id="5561"></path><path d="M518.915 799.227c3.785-3.301 10.148-3.475 14.207-0.413 4.060 3.095 4.3 8.291 0.515 11.594-0.138 0.138-49.472 43.417-16.066 67.739 49.609 36.123-24.426 88.724-24.631 88.862-4.163 3.027-10.527 2.717-14.207-0.654-3.715-3.406-3.338-8.601 0.825-11.594 0.138-0.138 57.108-40.734 24.631-64.402-48.714-35.469 14.517-90.961 14.724-91.133z" fill="#0CBABD" p-id="5562"></path><path d="M515.612 795.477c2.786-2.443 6.502-3.75 10.183-3.854h0.034c3.612-0.069 7.396 0.963 10.321 3.235 0.722 0.55 1.445 1.204 2.064 1.892 1.962 2.237 2.992 4.919 3.095 7.604 0.138 2.717-0.722 5.469-2.511 7.81-0.481 0.654-1.031 1.238-1.617 1.789v0.034l-0.309 0.24c-0.309 0.309-8.119 7.225-15.138 16.858-9.426 12.97-17.546 31.168-1.238 43.038 28.795 20.951 20.883 46.512 6.4 66.431-12.419 16.995-29.759 29.621-30.928 30.48l-0.103 0.034v0.034c-2.992 2.167-6.812 3.165-10.458 2.959-3.681-0.172-7.361-1.549-10.081-4.026l-0.034-0.069c-0.654-0.619-1.274-1.274-1.755-1.962-1.755-2.373-2.511-5.194-2.34-7.878s1.274-5.332 3.269-7.534l0.069-0.034c0.585-0.654 1.274-1.274 2.029-1.823l0.206-0.172c0.069-0.034 15.069-10.734 24.77-24.047 3.372-4.644 6.089-9.598 7.155-14.381v-0.034c0.963-4.197 0.55-8.429-1.962-12.179h0.034c-1.274-1.892-3.095-3.785-5.539-5.539-33.508-24.426-19.713-56.867-4.335-78.026 8.223-11.284 16.927-19.265 18.439-20.641h0.034v-0.034l0.24-0.206zM526.070 801.635h-0.034c-1.445 0.034-2.855 0.515-3.854 1.343-0.55 0.55-9.117 8.189-17.201 19.265-12.867 17.682-24.631 44.585 2.133 64.058 3.441 2.511 6.055 5.229 7.948 8.085h0.034c4.197 6.295 4.884 13.141 3.372 19.919-1.41 6.261-4.748 12.419-8.842 18.061-10.321 14.175-25.939 25.562-27.212 26.49l-0.55 0.481c-0.413 0.448-0.654 0.963-0.688 1.41v0.034c0 0.413 0.138 0.894 0.448 1.308l0.481 0.585c0.963 0.86 2.34 1.343 3.75 1.41h0.034c1.479 0.069 2.992-0.309 4.163-1.134l0.172-0.138c1.962-1.377 17.511-12.935 28.588-28.142 11.594-15.929 18.095-36.261-4.163-52.464-23.015-16.788-13.073-40.389-0.997-57.005 7.5-10.252 15.825-17.751 16.686-18.51l0.481-0.515 0.069-0.069c0.309-0.448 0.448-0.928 0.448-1.343 0-0.448-0.24-0.963-0.619-1.377l-0.619-0.585c-1.1-0.825-2.58-1.204-4.026-1.17zM594.842 799.227c3.785-3.301 10.183-3.475 14.243-0.413 4.060 3.095 4.3 8.291 0.515 11.594-0.138 0.138-49.472 43.417-16.066 67.739 49.609 36.157-24.426 88.724-24.631 88.862-4.163 3.027-10.527 2.717-14.243-0.654-3.681-3.406-3.338-8.601 0.825-11.594 0.172-0.138 57.142-40.734 24.631-64.402-48.679-35.469 14.553-90.961 14.724-91.133z" fill="#0CBABD" p-id="5563"></path><path d="M591.572 795.442c2.786-2.407 6.502-3.715 10.183-3.819 3.612-0.069 7.396 0.963 10.355 3.235 0.722 0.55 1.445 1.204 2.029 1.892 1.996 2.237 3.027 4.919 3.131 7.604 0.103 2.717-0.722 5.469-2.511 7.81-0.481 0.654-1.031 1.238-1.617 1.789v0.034l-0.309 0.24c-0.309 0.309-8.119 7.225-15.138 16.858-9.46 12.97-17.546 31.168-1.238 43.038 28.795 20.987 20.848 46.581 6.331 66.465-12.039 16.513-28.83 28.932-30.825 30.378l-0.172 0.103c-2.992 2.167-6.812 3.199-10.458 2.992-3.647-0.172-7.328-1.549-10.012-4.026-0.722-0.619-1.343-1.343-1.892-2.098-1.686-2.373-2.477-5.126-2.305-7.81 0.172-2.717 1.308-5.366 3.301-7.5 0.619-0.722 1.343-1.343 2.133-1.926l0.034-0.034 0.654-0.481 0.515-0.343c3.785-2.855 15.618-12.213 23.703-23.325 7.775-10.666 11.973-23.222-0.275-32.132-33.542-24.426-19.713-56.867-4.3-78.026 8.566-11.799 17.615-19.953 18.51-20.746l0.172-0.172zM601.997 801.635c-1.479 0.034-2.89 0.515-3.888 1.377-0.928 0.825-9.289 8.395-17.167 19.198-12.867 17.682-24.667 44.62 2.098 64.092 18.681 13.588 13.279 31.271 2.477 46.099-10.596 14.587-26.662 26.077-27.040 26.386l-0.138 0.103-0.55 0.448c-0.379 0.448-0.619 0.963-0.654 1.41v0.034c-0.034 0.413 0.103 0.928 0.413 1.343l0.034 0.034 0.448 0.481 0.034 0.034c0.928 0.86 2.305 1.343 3.75 1.41h0.034c1.479 0.069 2.992-0.309 4.129-1.1l0.103-0.103c1.1-0.79 17.201-12.489 28.623-28.176 11.628-15.893 18.164-36.295-4.129-52.498-22.981-16.788-13.038-40.389-0.963-57.005 7.5-10.252 15.825-17.751 16.686-18.51l0.481-0.515 0.034-0.069c0.343-0.448 0.481-0.928 0.481-1.343-0.034-0.448-0.24-0.963-0.619-1.377l-0.619-0.585c-1.1-0.825-2.58-1.204-4.060-1.17zM571.999 970.929v0z" fill="#0CBABD" p-id="5564"></path></svg>