<?xml version="1.0" standalone="no"?><!DOCTYPE svg PUBLIC "-//W3C//DTD SVG 1.1//EN" "http://www.w3.org/Graphics/SVG/1.1/DTD/svg11.dtd"><svg t="1558338967067" class="icon" style="" viewBox="0 0 1193 1024" version="1.1" xmlns="http://www.w3.org/2000/svg" p-id="7174" xmlns:xlink="http://www.w3.org/1999/xlink" width="74.5625" height="64"><defs><style type="text/css"></style></defs><path d="M971.599448 216.381793l-17.44331-104.589241-302.04469-5.790897-29.095724 104.589242L501.053793 204.8l-34.886621-81.355034h-255.646896L193.147586 204.8l-133.614345 11.581793 11.581793 691.376552 865.668414 116.171034 127.752828-127.752827 5.861517-656.489931-98.798345-23.234207z m-621.744551 689.611035l-203.528828-29.943173-0.494345-42.443034 204.023173 24.434758v47.880828z m287.355586 40.112551l-203.528828-29.943172-0.494345-42.372414 204.023173 24.434759v47.880827z m258.401103 31.779311L692.082759 947.941517l-0.494345-42.372414 204.023172 24.434759v47.880828z m132.06069-172.950069l-63.911724 63.911724-17.443311-499.712 87.145931-46.468414-5.861517 482.198069z" p-id="7175" fill="#0CBABD"></path></svg>