<?xml version="1.0" standalone="no"?><!DOCTYPE svg PUBLIC "-//W3C//DTD SVG 1.1//EN" "http://www.w3.org/Graphics/SVG/1.1/DTD/svg11.dtd"><svg t="1558921111573" class="icon" style="" viewBox="0 0 1024 1024" version="1.1" xmlns="http://www.w3.org/2000/svg" p-id="1907" xmlns:xlink="http://www.w3.org/1999/xlink" width="32" height="32"><defs><style type="text/css"></style></defs><path d="M1174.803-9.709c0 347.806 0 695.613 0 1043.419-0.662 3.563-1.161 7.207-1.906 10.771-12.841 63.629-51.284 104.060-112.262 123.943-9.86 3.23-20.382 4.308-30.571 6.38-347.806 0-695.613 0-1043.419 0-1.326-0.414-2.652-0.911-4.060-1.161-61.641-8.533-102.652-42.916-124.524-100.496-4.474-11.683-5.966-24.607-8.865-36.951 0-349.877 0-699.755 0-1049.632 0.414-1.326 0.994-2.652 1.161-4.060 9.362-60.729 42.254-102.899 99.753-125.021 10.771-4.143 22.618-5.633 33.968-8.285 349.463 0 698.927 0 1048.389 0 1.573 0.414 3.066 0.994 4.64 1.161 61.806 6.959 117.399 55.094 132.726 115.246 2.154 8.119 3.314 16.487 4.971 24.689zM1056.079 507.029c0-171.251-0.083-342.421 0.166-513.673 0-9.444-3.894-15.162-11.599-19.303-8.368-4.474-17.316-6.297-26.761-6.297-140.929 0.083-281.774 0-422.704 0-198.842 0-397.682 0-596.524 0-20.878 0-30.571 9.693-30.82 30.655 0 1.243 0 2.486 0 3.728 0 339.77 0 679.457 0 1019.227 0 2.237 0 4.557 0.083 6.794 1.076 17.979 10.356 27.010 28.252 27.59 2.652 0.083 5.386 0.166 8.036 0.166 336.207 0 672.497 0 1008.705 0 3.314 0 6.627 0 9.86-0.166 18.061-1.076 30.158-11.103 32.643-27.258 0.662-4.226 0.497-8.617 0.497-12.925 0.166-169.428 0.166-338.942 0.166-508.537z" p-id="1908" fill="#0CBABD"></path><path d="M468.503 101.476c21.955 0 43.91 0 66.529 0-1.491-25.766 6.297-47.805 25.684-64.955 14.665-12.925 31.981-19.636 51.451-19.636 22.701 0 42.172 8.533 57.829 25.187 15.577 16.654 21.294 36.621 19.636 59.322 22.701 0 44.657 0 67.276 0-1.409-26.595 6.131-49.545 26.595-67.026 13.92-11.847 30.24-17.647 48.385-17.565 22.37 0.166 41.342 8.617 56.173 25.6 14.581 16.736 19.802 36.621 17.979 59.652 8.285 0 15.907-0.746 23.363 0.166 27.174 3.23 50.622 23.695 56.669 52.445 5.716 27.174 5.716 55.179 0.25 82.353-6.131 30.903-32.561 50.373-64.044 50.373-5.137 0-10.191 0-15.907 0 0 61.309 0 121.873 0 182.603-17.233-1.243-33.721-2.403-51.284-3.646 0-2.817 0-5.551 0-8.368 0-120.050 0-240.1 0-360.151 0-18.31-8.948-29.908-25.435-34.797-17.481-5.137-42.172 8.617-42.087 32.228 0.414 123.116 0.166 246.314 0.414 369.429 0 6.959-1.987 9.776-8.782 10.771-7.207 1.076-14.251 3.397-22.204 5.302 0-110.937 0-221.211 0-331.899-22.618 0-44.491 0-67.358 0 0 2.734 0 5.302 0 7.954 0 114.5 0 228.998 0.166 343.499 0 5.468-1.657 7.954-6.627 10.605-14.913 7.87-29.164 16.818-44.657 25.85 0-2.403 0-5.137 0-7.788 0-143.166 0-286.332-0.083-429.497 0-5.302-0.083-10.771-1.076-15.989-2.734-14.333-13.34-22.452-27.258-21.458-12.51 0.911-21.955 11.267-23.198 25.6-0.25 2.486-0.083 4.971-0.083 7.457 0 160.067 0 320.133 0.083 480.202 0 5.551-1.823 9.28-5.302 13.587-14.333 17.73-27.921 36.123-41.757 54.268-1.326 1.823-2.486 3.728-4.722 7.043 0-168.187 0-334.633 0-501.493-22.618 0-44.573 0-67.191 0 0 3.148 0 6.047 0 8.865 0 235.13 0 470.342 0 705.472 0 9.362 1.987 11.599 11.517 12.261 2.817 0.166 5.716 0 8.45 0 2.899 15.658 5.633 30.737 8.45 46.397-9.362 0-18.393 0-27.755 0-0.662 8.948-0.83 17.565-1.906 26.015-4.143 30.903-27.174 55.012-55.344 58.492-38.112 4.722-68.849-17.897-75.395-55.924-1.573-9.030-1.741-18.393-2.567-28.003-21.872 0-43.828 0-66.611 0 1.906 27.755-6.463 51.367-28.667 68.849-14.333 11.267-30.82 16.322-49.047 15.493-21.79-0.911-39.769-9.776-53.936-26.265-14.167-16.57-18.807-36.206-17.481-58.576-6.297 0-12.014 0.414-17.647-0.083-8.948-0.83-18.393-0.746-26.677-3.728-21.707-7.788-33.388-25.354-36.288-47.058-3.728-28.003-3.977-56.338 0.58-84.341 2.154-13.257 8.45-24.938 17.897-34.63 10.356-10.605 23.033-15.658 37.697-15.742 6.213 0 12.345-0.166 18.558 0.083 4.143 0.166 6.297-0.994 5.716-5.468-0.166-1.243 0-2.486 0-3.728 0-143.58 0-287.159 0-430.739 0-2.817 0-5.633 0-9.030-7.29 0-13.67-0.331-20.050 0.083-33.637 1.823-56.173-19.717-60.564-50.539-3.977-27.921-4.474-56.505 0.83-84.341 4.143-21.625 15.411-39.437 37.449-47.142 8.285-2.899 17.73-2.734 26.677-3.563 4.889-0.414 9.86-0.083 15.658-0.083-1.657-27.671 6.463-51.119 28.252-68.765 13.504-10.937 29.247-16.238 46.397-16.074 22.287 0.166 41.342 8.533 56.255 25.435 14.913 16.9 19.802 37.034 18.227 59.238 22.701 0 44.573 0 67.854 0 0-6.38-0.331-12.676 0.083-18.973 1.573-28.583 19.056-53.687 43.91-61.889 39.851-13.090 80.366 7.539 88.236 55.344 1.326 8.285 1.243 16.736 1.823 25.435zM370.159 511.338c0 139.438-0.083 278.79 0.25 418.229 0 6.131 2.237 13.173 5.716 18.31 8.368 12.428 24.524 16.9 38.359 12.179 14.831-5.054 22.701-16.238 22.701-32.311 0-277.217 0-554.352 0-831.571 0-3.23-0.083-6.627-0.911-9.776-3.563-15.162-20.133-26.098-36.371-24.357-17.15 1.906-29.744 15.577-29.744 32.311 0 138.94 0 277.964 0 416.987zM267.344 148.701c0 242.337 0 484.261 0 726.432 22.37 0 44.159 0 66.197 0 0-242.337 0-484.261 0-726.432-22.452 0-44.241 0-66.197 0zM168.916 511.338c0 139.438 0 278.875 0.166 418.311 0 6.297 1.076 12.759 3.066 18.724 2.983 9.114 10.523 13.67 19.967 13.67 9.693 0 17.481-4.722 20.464-14.001 1.906-6.213 2.983-12.925 2.983-19.387 0.166-101.492 0.166-202.983 0.166-304.394 0-176.305 0-352.694-0.166-529.001 0-6.627-1.161-13.587-3.23-19.967-3.314-9.197-10.687-13.421-20.382-13.34-9.611 0.083-16.9 4.39-19.967 13.587-1.987 6.131-2.983 12.925-2.983 19.387-0.166 138.774-0.083 277.633-0.083 416.406zM116.223 875.299c0.58-0.83 0.746-0.994 0.746-1.161 0.166-27.59 0.25-55.179 0.25-82.851 0-1.161-1.987-3.397-3.066-3.397-9.693 0.083-19.553-0.662-28.914 1.161-11.184 2.154-20.629 8.865-19.717 24.854 0.662 11.267 0.083 22.701 0.166 33.968 0 15.079 10.108 26.18 25.269 27.258 8.368 0.662 16.818 0.166 25.269 0.166zM117.053 148.37c-8.036 0-15.411-0.166-22.784 0-15.327 0.414-28.417 13.753-28.583 29.164-0.083 12.345 0 24.689 0 37.117 0 11.847 3.646 17.481 15.327 19.471 9.776 1.741 20.050 1.326 30.075 2.154 5.386 0.497 6.546-1.823 6.463-6.711-0.25-24.938-0.083-49.876-0.166-74.815 0-1.823-0.166-3.646-0.331-6.38zM906.533 235.777c6.959 0 13.34 0.25 19.636-0.083 11.847-0.662 16.238-5.302 16.322-17.068 0.083-14.416 0.414-28.832-0.083-43.248-0.911-25.931-14.251-29.908-35.874-25.931 0 28.583 0 57.085 0 86.33z" p-id="1909" fill="#0CBABD"></path><path d="M730.395 766.847c-17.481-10.108-35.129-19.138-51.451-30.24-12.096-8.203-21.54-8.7-33.223 0.331-9.86 7.623-21.375 13.173-32.228 19.553-13.008 7.623-28.086 4.39-35.211-7.457-7.207-12.096-2.899-26.265 10.356-34.3 8.036-4.889 16.156-9.693 25.354-15.079-10.439-6.047-19.884-11.683-29.494-17.068-6.711-3.81-11.103-9.197-12.428-16.818-1.741-9.693 0.83-18.227 9.030-24.027 8.203-5.801 17.233-6.877 26.265-1.987 9.942 5.386 19.636 11.184 31.069 17.73 0-4.557 0-7.87 0-11.184 0-5.966-0.083-11.93-0.083-17.979 0.166-13.587 11.599-24.773 25.518-24.938 13.837-0.166 25.684 11.103 25.684 24.689 0.083 17.316-0.083 34.63 0.166 51.948 0 2.403 1.409 5.883 3.23 6.959 20.133 12.096 40.513 23.861 60.813 35.626 0.662 0.414 1.491 0.497 2.983 0.911 0-3.314 0-6.131 0-8.948 0-20.382-0.083-40.845 0.083-61.226 0.083-4.060-1.243-6.297-4.805-8.119-15.493-8.203-30.82-16.654-46.148-25.104-14.499-7.954-19.056-20.629-12.179-33.388 6.546-12.096 22.121-16.074 35.542-9.030 8.865 4.64 17.73 9.362 27.507 14.581 0-11.184-0.083-21.21 0-31.235 0.166-12.676 9.86-23.115 22.535-24.607 12.759-1.491 25.85 6.711 28.252 18.891 1.326 6.794 0.58 13.92 0.662 20.96 0.083 4.722 0 9.444 0 15.577 7.29-4.64 13.753-8.782 20.298-12.925 10.191-6.463 20.298-6.38 28.003 0.25 8.533 7.29 11.93 19.636 7.043 29.744-1.987 4.226-5.633 8.285-9.527 10.853-13.753 9.030-28.003 17.316-42.004 26.098-1.657 0.994-3.646 3.23-3.646 4.889-0.25 24.524-0.166 49.047-0.166 74.482 2.154-1.076 3.81-1.741 5.302-2.652 17.812-10.771 35.542-21.625 53.521-32.228 3.563-2.071 4.64-4.39 4.308-8.45-1.326-17.897-2.734-35.791-3.314-53.687-0.497-15.411 13.504-26.511 28.667-23.695 10.853 1.987 19.056 11.517 19.387 22.618 0.166 8.036 0.166 16.074 0.414 24.11 0.083 2.403 0.414 4.805 0.746 8.203 6.38-3.646 12.014-6.959 17.73-10.108 13.173-7.374 28.334-3.977 35.129 7.954 6.959 12.261 2.486 26.347-10.937 34.134-5.468 3.23-11.019 6.38-17.398 10.108 8.948 5.22 17.316 9.86 25.435 14.831 9.030 5.468 13.504 15.244 11.764 25.354-1.741 9.693-9.197 17.233-19.387 19.303-6.546 1.326-12.594-0.166-18.393-3.563-14.581-8.533-29.164-16.985-43.91-25.354-1.823-1.076-5.054-1.906-6.627-0.994-20.629 11.599-41.093 23.531-62.055 35.709 1.409 1.076 2.154 1.906 3.148 2.486 18.891 10.937 37.863 21.79 56.669 32.892 3.23 1.906 5.633 1.987 8.948-0.083 15.079-9.28 30.24-18.393 45.651-27.258 15.411-8.865 33.637-0.58 36.868 16.487 1.741 9.197-2.486 19.056-10.937 24.442-7.124 4.557-14.499 8.7-21.707 13.090-1.741 0.994-3.397 2.154-5.633 3.563 8.203 4.722 15.824 8.782 23.115 13.34 9.776 6.131 14.001 18.061 10.439 28.583-3.397 10.108-13.587 16.9-24.607 15.577-3.894-0.497-7.87-2.319-11.351-4.226-5.551-3.066-10.687-6.794-17.233-10.937 0 9.776 0.166 18.31-0.083 26.844-0.083 3.894-0.414 7.87-1.573 11.517-3.563 10.771-14.416 16.985-25.354 15.162-11.267-1.906-19.303-11.434-19.387-23.778-0.25-17.316-0.166-34.63 0-51.948 0.083-4.226-1.076-6.627-4.971-8.7-19.138-10.605-38.028-21.54-57.001-32.311-1.409-0.83-2.817-1.409-4.805-2.403-0.166 2.154-0.414 3.646-0.414 5.22 0 22.287 0.083 44.573-0.083 66.861 0 3.81 1.161 5.966 4.474 7.788 14.499 8.203 28.914 16.654 43.33 25.104 12.841 7.539 16.404 21.625 8.7 34.548-7.124 12.014-21.21 15.079-33.721 7.374-7.124-4.39-14.333-8.865-22.618-14.001 0 10.605 0 20.133 0 29.66 0 12.096-5.801 20.714-16.654 24.854-10.191 3.81-22.37 1.161-28.914-7.954-3.23-4.557-5.137-10.771-5.716-16.404-0.911-9.362-0.25-18.807-0.25-29.494-9.28 5.137-17.398 9.776-25.684 14.251-10.025 5.468-20.050 4.722-29.081-1.906-13.504-9.942-11.683-30.571 3.479-39.52 15.079-8.865 30.406-17.398 45.817-25.684 4.308-2.319 5.551-4.971 5.551-9.693-0.25-22.867-0.083-45.733-0.083-69.428-2.071 0.83-3.479 1.243-4.805 1.987-19.884 11.267-39.769 22.618-59.734 33.804-2.983 1.657-4.39 3.479-4.39 7.124-0.083 18.144-0.497 36.288-0.746 54.432-0.166 13.753-10.273 24.274-23.446 24.357-13.837 0.166-24.274-9.86-24.773-23.861-0.331-9.693-0.414-19.387-0.662-29.081 0-0.331-0.331-0.746-0.994-1.987-6.711 3.81-13.34 7.788-20.050 11.434-12.594 6.627-28.252 1.823-34.3-10.771-5.386-11.103-1.657-24.193 8.948-30.82 6.794-4.226 13.753-8.119 21.54-12.676-8.7-5.054-16.736-9.611-24.689-14.333-9.444-5.633-14.251-15.079-12.676-24.854 2.734-17.316 21.294-26.015 37.034-17.15 15.079 8.533 29.908 17.398 45.071 25.766 1.987 1.161 5.716 1.243 7.705 0.166 20.629-11.599 41.093-23.531 61.641-35.46 0.83-0.331 1.573-1.076 2.817-1.987z" p-id="1910" fill="#0CBABD"></path></svg>