<?xml version="1.0" standalone="no"?><!DOCTYPE svg PUBLIC "-//W3C//DTD SVG 1.1//EN" "http://www.w3.org/Graphics/SVG/1.1/DTD/svg11.dtd"><svg t="1558339241703" class="icon" style="" viewBox="0 0 1024 1024" version="1.1" xmlns="http://www.w3.org/2000/svg" p-id="11189" xmlns:xlink="http://www.w3.org/1999/xlink" width="64" height="64"><defs><style type="text/css"></style></defs><path d="M511.952979 1023.896979a505.462446 505.462446 0 0 1-198.72418-40.381232c-60.914463-25.881164-115.693372-62.891387-162.824501-110.022515-47.131128-47.131128-84.141351-101.902162-110.022514-162.8245a505.462446 505.462446 0 0 1-40.381233-198.72418c0-85.708713 24.227164-176.592083 68.223569-255.928957 4.891115-7.923448 14.956887-13.657316 23.998754-13.657316 1.8194 0 5.245543 0.275667 7.679287 2.095067 9.774353 7.332734 15.421582 22.352631 7.954953 34.797013l-0.275667 0.456819-0.252038 0.472571c-39.916537 74.839569-60.158348 152.829614-60.158349 231.764803 0 256.283385 208.498533 464.781919 464.781919 464.781918s464.781919-208.498533 464.781919-464.781918-208.498533-464.781919-464.781919-464.781919c-78.943064 0-156.925233 20.241811-231.780554 60.166224l-0.464696 0.252039-0.448943 0.26779c-4.938372 2.961448-10.191791 4.52881-15.208925 4.52881-7.293353 0-13.342268-3.229238-17.532401-9.349039-3.922343-11.192068-3.709686-26.692412 9.498686-34.804889 79.328998-43.996404 170.212368-68.223568 255.928957-68.223568a505.430941 505.430941 0 0 1 198.72418 40.381232c60.906587 25.873288 115.693372 62.891387 162.824501 110.022515 47.123252 47.123252 84.141351 101.902162 110.022515 162.824501 26.794802 63.072539 40.381232 129.933526 40.381232 198.72418s-13.58643 135.659517-40.381232 198.72418c-25.881164 60.914463-62.891387 115.693372-110.022515 162.824501-47.131128 47.131128-101.910038 84.141351-162.824501 110.022514a505.525456 505.525456 0 0 1-198.716304 40.373356z" p-id="11190" fill="#0CBABD"></path><path d="M870.571717 383.846178h-203.276619V275.98174c0-48.225919-18.05223-74.170093-40.326099-74.170093H281.968196c-22.273869 0-40.318223 25.944174-40.318222 57.937262v44.555614H153.334242v155.720176h88.315732v283.243588c0 32.000965 18.05223 78.801293 40.318222 78.801293h345.008679c22.273869 0 40.326099-25.936298 40.326099-41.712309v-156.547176h203.276619l-0.007876-239.963917z m-323.601192-1.677629H279.321796v-48.659109h316.032172l-48.383443 48.659109z m-48.383442 48.666986l-48.383443 48.666985H279.321796v-48.666985h219.265287z m-48.383443 97.33397l48.383443 48.666986H279.321796v-48.666986h170.881844z m96.766885 97.326095l48.383443 48.666986H279.321796v-48.666986h267.648729z m84.952599-384.373883v43.728614H279.321796v-43.728614h352.601328z m-352.601328 540.149193v-58.449215h352.601328v58.449215H279.321796z" p-id="11191" fill="#0CBABD"></path></svg>