<?xml version="1.0" standalone="no"?><!DOCTYPE svg PUBLIC "-//W3C//DTD SVG 1.1//EN" "http://www.w3.org/Graphics/SVG/1.1/DTD/svg11.dtd"><svg t="1558921263314" class="icon" style="" viewBox="0 0 1024 1024" version="1.1" xmlns="http://www.w3.org/2000/svg" p-id="5112" xmlns:xlink="http://www.w3.org/1999/xlink" width="32" height="32"><defs><style type="text/css"></style></defs><path d="M92.032 307.264H32V89.6h60.032v217.664zM272 89.6H92.032v64H272v-64z m0 153.664H92.032v64H272v-64zM332.032 89.6H272v217.6h60.032V89.6z m-240 531.136H32V403.2h60.032v217.536zM272 403.2H92.032v64H272v-64z m0 153.6H92.032v63.936H272V556.8z m60.032-153.6H272v217.536h60.032V403.2z m-240 531.2H32v-217.6h60.032v217.6z m179.968-217.664H92.032v64H272v-64z m0 153.664H92.032v64H272v-64z m60.032-153.664H272v217.6h60.032v-217.6zM452.032 160H332.032v64h120v-64z m120 320h-240v64h240v-64z m-120 320H332.032v64h120v-64zM512 160h-59.968v704H512v-704z m120-64h-59.968v832h60.032v-832z m360 0H632v64H992v-64z m-59.968 832h59.968V153.984h-60.032V928z m0-64H632v64h300.032v-64z m-180.032-640h-60.032v64h60.032v-64z m120 0h-60.032v64h60.032v-64z m-120 128h-60.032v64h60.032v-64z m120 0h-60.032v64h60.032v-64z m-120 128h-60.032v64h60.032v-64z m120 0h-60.032v64h60.032v-64z m-120 128h-60.032v64h60.032v-64z m120 0h-60.032v64h60.032v-64z m-120 128h-60.032v64h60.032v-64z m120 0h-60.032v64h60.032v-64z" fill="#0CBABD" p-id="5113"></path></svg>