<?xml version="1.0" standalone="no"?><!DOCTYPE svg PUBLIC "-//W3C//DTD SVG 1.1//EN" "http://www.w3.org/Graphics/SVG/1.1/DTD/svg11.dtd"><svg t="1559296424338" class="icon" style="" viewBox="0 0 1024 1024" version="1.1" xmlns="http://www.w3.org/2000/svg" p-id="7007" xmlns:xlink="http://www.w3.org/1999/xlink" width="16" height="16"><defs><style type="text/css"></style></defs><path d="M103.899 619.113c0-0.713 0-1.428 0-2.143 89.977 0 179.949 0 269.922 0 4.997-41.42 0.717-92.113 2.144-137.102 91.402 0 182.807 0 274.209 0 0 45.7 0 91.402 0 137.102 89.977 0 179.949 0 269.925 0 0 0.713 0 1.428 0 2.143-136.926 133.711-270.103 271.174-407.029 404.887-136.516-134.842-272.585-270.118-409.172-404.887z" p-id="7008" fill="#1296db"></path><path d="M648.034 411.314c-90.689 0-181.379 0-272.066 0 0-45.7 0-91.403 0-137.105 91.402 0 182.807 0 274.209 0-1.424 44.99 2.853 95.686-2.142 137.104z" p-id="7009" fill="#1296db"></path><path d="M375.966 205.657c0-22.854 0-45.703 0-68.554 91.402 0 182.807 0 274.209 0-1.418 22.148 2.844 49.974-2.143 68.554-90.689 0-181.379 0-272.066 0z" p-id="7010" fill="#1296db"></path><path d="M375.966 0c91.402 0 182.807 0 274.209 0 0 22.851 0 45.703 0 68.554-90.689-1.429-187.090 2.855-274.209-2.144 0-22.137 0-44.273 0-66.41z" p-id="7011" fill="#1296db"></path></svg>