<svg id="图层_1" data-name="图层 1" xmlns="http://www.w3.org/2000/svg" viewBox="0 0 100 100"><defs><style>.cls-1{isolation:isolate;}.cls-2{fill:none;stroke:#0cbabd;stroke-linecap:round;stroke-linejoin:round;stroke-width:2px;}</style></defs><title>resourceIcon</title><g class="cls-1"><path class="cls-2" d="M77.76,19.44c0,.29-.05.58-.1.87s-.12.47-.18.71a7.88,7.88,0,0,1-.24.83c-.08.23-.19.45-.28.68s-.26.58-.41.86a11.18,11.18,0,0,1-.71,1.18l-.13.18a13.77,13.77,0,0,1-.91,1.14l-.19.21a15.94,15.94,0,0,1-1.17,1.15c-.26.24-.56.47-.85.71s-.5.41-.78.61-.66.44-1,.67-.67.45-1,.67c-.6.35-1.23.67-1.87,1-.17.09-.34.16-.51.24-.58.27-1.17.53-1.77.76l-.24.1c-.65.25-1.32.47-2,.68-.47.15-1,.28-1.43.41l-1.09.29c-.5.12-1,.23-1.53.33-.35.07-.7.15-1,.21-1,.18-2.09.33-3.15.44l-1,.08c-.62,0-1.24.1-1.87.13l-1.2,0H49.54l-1.26,0-1.41-.07-1.28-.11-1.39-.15L43,34.05c-.49-.08-1-.16-1.47-.26s-.77-.14-1.15-.23c-.58-.12-1.15-.27-1.72-.42-.37-.1-.74-.19-1.1-.3-.2-.05-.39-.12-.59-.18q-.85-.27-1.68-.57l-.48-.18c-.51-.19-1-.41-1.48-.62L32.58,31c-.7-.33-1.38-.68-2-1.06-5.47-3.16-8.2-7.3-8.19-11.44l-.18,62.9c0,4.13,2.72,8.28,8.2,11.44.65.38,1.33.73,2,1.06l.71.31c.42.19.83.38,1.25.55l.23.08.48.18q.82.3,1.68.57l.59.18c.13,0,.26.09.39.12s.48.12.71.18c.57.15,1.14.29,1.73.42l.45.11c.23.05.46.08.69.12.49.1,1,.18,1.48.26l.58.1.65.07,1.39.16.66.07.62,0,1.41.07.7,0c.19,0,.38,0,.57,0h2.27c.15,0,.3,0,.45,0,.63,0,1.25-.08,1.88-.13.25,0,.5,0,.75,0l.23,0c1.06-.11,2.12-.26,3.15-.44l.16,0,.89-.19c.52-.11,1-.21,1.53-.33L61.77,96c.48-.13,1-.26,1.43-.41l.31-.09c.57-.18,1.13-.38,1.68-.59l.24-.1c.6-.24,1.19-.49,1.77-.76l.51-.24c.64-.31,1.27-.63,1.87-1l.34-.2c.26-.15.47-.32.72-.48l1-.66c.27-.2.52-.41.77-.62s.59-.46.85-.7l.18-.14c.35-.33.68-.67,1-1l.19-.21c.18-.21.37-.42.54-.63l.37-.51c0-.06.09-.12.13-.19.22-.32.43-.64.61-1a2,2,0,0,0,.1-.21c.16-.29.28-.58.41-.87s.17-.33.23-.5l0-.17a8.64,8.64,0,0,0,.24-.83c0-.19.12-.37.16-.56s0-.1,0-.15c0-.29.07-.58.1-.87a5.51,5.51,0,0,0,.06-.57,2,2,0,0,0,0-.25l.18-62.89C77.82,18.9,77.78,19.17,77.76,19.44Z"/><path class="cls-2" d="M69.64,7.19c10.86,6.27,10.92,16.45.12,22.72s-28.35,6.27-39.22,0S19.62,13.46,30.41,7.19,58.77.91,69.64,7.19Z"/></g></svg>