<?xml version="1.0" standalone="no"?><!DOCTYPE svg PUBLIC "-//W3C//DTD SVG 1.1//EN" "http://www.w3.org/Graphics/SVG/1.1/DTD/svg11.dtd"><svg t="1561801116511" class="icon" viewBox="0 0 1024 1024" version="1.1" xmlns="http://www.w3.org/2000/svg" p-id="2793" xmlns:xlink="http://www.w3.org/1999/xlink" width="32" height="32"><defs><style type="text/css"></style></defs><path d="M959.780373 383.655913c11.776208 0 21.322631-9.546424 21.322631-21.322631V116.522854l-21.322631-21.322632H64.219627L42.896996 116.522854v724.977649l21.322631 21.322631h895.560746l21.322631-21.322631V610.604762l-5.317099-14.087856L784.358061 379.026476l-31.083949-0.989537L553.12156 578.189492l-155.788136-116.841102-28.061103 2.172479-209.876008 215.248365c-8.221242 8.432043-8.05035 21.931498 0.38067 30.152741 8.432043 8.221242 21.931498 8.05035 30.152741-0.38067L386.729925 506.703367l155.598824 116.697839 27.870768-1.981121 197.159382-197.159382L938.457742 618.653065v201.524806H85.542258V137.845485h852.915484v224.487797c0 11.776208 9.546424 21.322631 21.322631 21.322631z" fill="#0cbabd" p-id="2794"></path><path d="M210.553437 278.773168v63.968917c0 7.682983 9.546424 17.229406 21.322631 17.229406s21.322631-9.546424 21.322631-21.322631v-63.968917c0-11.776208-9.546424-21.322631-21.322631-21.322631s-21.322631 9.546424-21.322631 25.415856z" fill="#0cbabd" p-id="2795"></path></svg>