<svg id="图层_1" data-name="图层 1" xmlns="http://www.w3.org/2000/svg" viewBox="0 0 100 100"><defs><style>.cls-1{fill:#0cbabd;}</style></defs><title>resourceIcon</title><path class="cls-1" d="M40.33,44H36.4V55.42H33.45V44H29.52V41.62H40.33Z"/><path class="cls-1" d="M50.39,55.42H42.22V41.62h7.85V44H45.16v3.25h4.56v2.4H45.16V53h5.23Z"/><path class="cls-1" d="M64.09,55.42h-3.5l-2.47-4.58a3.85,3.85,0,0,1-.28-.9h0a4.89,4.89,0,0,1-.32.93L55,55.42H51.48l4.43-6.9-4-6.9h3.58l2.06,4.22A7.29,7.29,0,0,1,57.93,47h0c.13-.37.28-.76.46-1.18l2.27-4.18H64l-4.17,6.84Z"/><path class="cls-1" d="M75.68,44H71.74V55.42H68.79V44H64.86V41.62H75.68Z"/></svg>